#include <stdint.h>
const uint8_t Cantinamidifile[] = {
0x4d,0x54,0x68,0x64,0x00,0x00,0x00,0x06,0x00,0x01,0x00,0x09,0x00,0xc0,0x4d,0x54,
0x72,0x6b,0x00,0x00,0x00,0x19,0x00,0xff,0x59,0x02,0xff,0x00,0x00,0xff,0x51,0x03,
0x03,0xd0,0x90,0x00,0xff,0x58,0x04,0x04,0x02,0x18,0x08,0x00,0xff,0x2f,0x00,0x4d,
0x54,0x72,0x6b,0x00,0x00,0x1f,0xac,0x00,0xff,0x03,0x05,0x53,0x61,0x78,0x20,0x32,
0x00,0xff,0x04,0x0b,0x43,0x68,0x20,0x20,0x32,0x20,0x4d,0x54,0x2d,0x33,0x32,0x00,
0xc1,0x4f,0x00,0x91,0x41,0x51,0x00,0x45,0x51,0x00,0x3e,0x51,0x48,0x3e,0x00,0x00,
0x45,0x00,0x00,0x41,0x00,0x78,0x45,0x51,0x00,0x4a,0x51,0x00,0x41,0x51,0x48,0x41,
0x00,0x00,0x4a,0x00,0x00,0x45,0x00,0x78,0x41,0x51,0x00,0x45,0x51,0x00,0x3e,0x51,
0x48,0x3e,0x00,0x00,0x45,0x00,0x00,0x41,0x00,0x78,0x45,0x51,0x00,0x4a,0x51,0x00,
0x41,0x51,0x48,0x41,0x00,0x00,0x4a,0x00,0x00,0x45,0x00,0x78,0x41,0x51,0x00,0x45,
0x51,0x00,0x3e,0x51,0x60,0x45,0x51,0x00,0x4a,0x51,0x00,0x41,0x51,0x00,0x45,0x00,
0x00,0x41,0x00,0x10,0x3e,0x00,0x00,0x45,0x00,0x00,0x41,0x00,0x60,0x4a,0x00,0x50,
0x41,0x51,0x00,0x45,0x51,0x00,0x3e,0x51,0x81,0x40,0x44,0x51,0x00,0x40,0x51,0x10,
0x3e,0x00,0x00,0x41,0x00,0x00,0x45,0x00,0x50,0x41,0x51,0x00,0x45,0x51,0x00,0x3e,
0x51,0x10,0x44,0x00,0x00,0x40,0x00,0x60,0x45,0x00,0x00,0x41,0x00,0x00,0x3e,0x00,
0x50,0x41,0x51,0x00,0x45,0x51,0x00,0x3e,0x51,0x60,0x40,0x51,0x00,0x44,0x51,0x00,
0x3d,0x51,0x10,0x3e,0x00,0x00,0x41,0x00,0x00,0x45,0x00,0x50,0x41,0x51,0x00,0x45,
0x51,0x00,0x3e,0x51,0x10,0x40,0x00,0x00,0x3d,0x00,0x00,0x44,0x00,0x50,0x40,0x51,
0x00,0x43,0x51,0x00,0x3c,0x51,0x10,0x41,0x00,0x00,0x3e,0x00,0x00,0x45,0x00,0x60,
0x40,0x00,0x00,0x43,0x00,0x00,0x3c,0x00,0x50,0x3f,0x51,0x00,0x42,0x51,0x00,0x3b,
0x51,0x60,0x40,0x51,0x00,0x43,0x51,0x00,0x3c,0x51,0x10,0x3b,0x00,0x00,0x3f,0x00,
0x00,0x42,0x00,0x50,0x3d,0x51,0x00,0x41,0x51,0x00,0x3a,0x51,0x10,0x40,0x00,0x00,
0x3c,0x00,0x00,0x43,0x00,0x38,0x3d,0x00,0x00,0x41,0x00,0x00,0x3a,0x00,0x18,0x3c,
0x51,0x00,0x41,0x51,0x00,0x39,0x51,0x82,0x08,0x39,0x00,0x00,0x41,0x00,0x00,0x3c,
0x00,0x18,0x39,0x51,0x00,0x3e,0x51,0x00,0x35,0x51,0x83,0x48,0x35,0x00,0x00,0x3e,
0x00,0x00,0x39,0x00,0x18,0x41,0x51,0x00,0x45,0x51,0x00,0x3e,0x51,0x48,0x3e,0x00,
0x00,0x45,0x00,0x00,0x41,0x00,0x78,0x45,0x51,0x00,0x4a,0x51,0x00,0x41,0x51,0x48,
0x41,0x00,0x00,0x4a,0x00,0x00,0x45,0x00,0x78,0x41,0x51,0x00,0x45,0x51,0x00,0x3e,
0x51,0x48,0x3e,0x00,0x00,0x45,0x00,0x00,0x41,0x00,0x78,0x45,0x51,0x00,0x4a,0x51,
0x00,0x41,0x51,0x48,0x41,0x00,0x00,0x4a,0x00,0x00,0x45,0x00,0x78,0x41,0x51,0x00,
0x45,0x51,0x00,0x3e,0x51,0x60,0x45,0x51,0x00,0x4a,0x51,0x00,0x41,0x51,0x00,0x45,
0x00,0x00,0x41,0x00,0x10,0x3e,0x00,0x00,0x45,0x00,0x00,0x41,0x00,0x60,0x4a,0x00,
0x50,0x41,0x51,0x00,0x45,0x51,0x00,0x3e,0x51,0x81,0x40,0x44,0x51,0x00,0x40,0x51,
0x10,0x3e,0x00,0x00,0x41,0x00,0x00,0x45,0x00,0x50,0x41,0x51,0x00,0x45,0x51,0x00,
0x3e,0x51,0x10,0x44,0x00,0x00,0x40,0x00,0x60,0x45,0x00,0x00,0x41,0x00,0x00,0x3e,
0x00,0x50,0x3e,0x51,0x00,0x43,0x51,0x00,0x3b,0x51,0x48,0x3b,0x00,0x00,0x43,0x00,
0x00,0x3e,0x00,0x78,0x3e,0x51,0x00,0x43,0x51,0x00,0x3b,0x51,0x82,0x20,0x3d,0x51,
0x00,0x42,0x51,0x00,0x3a,0x51,0x10,0x3b,0x00,0x00,0x3e,0x00,0x00,0x43,0x00,0x50,
0x3e,0x51,0x00,0x43,0x51,0x00,0x3b,0x51,0x10,0x3d,0x00,0x00,0x3a,0x00,0x00,0x42,
0x00,0x60,0x3e,0x00,0x00,0x43,0x00,0x00,0x3b,0x00,0x50,0x43,0x51,0x00,0x48,0x51,
0x00,0x40,0x51,0x48,0x40,0x00,0x00,0x48,0x00,0x00,0x43,0x00,0x18,0x41,0x51,0x00,
0x46,0x51,0x00,0x3e,0x51,0x81,0x28,0x3e,0x00,0x00,0x46,0x00,0x00,0x41,0x00,0x18,
0x40,0x51,0x00,0x45,0x51,0x00,0x3c,0x51,0x81,0x28,0x3c,0x00,0x00,0x45,0x00,0x00,
0x40,0x00,0x18,0x3e,0x51,0x00,0x43,0x51,0x00,0x3a,0x51,0x82,0x08,0x3a,0x00,0x00,
0x43,0x00,0x00,0x3e,0x00,0x18,0x41,0x51,0x00,0x45,0x51,0x00,0x3e,0x51,0x48,0x3e,
0x00,0x00,0x45,0x00,0x00,0x41,0x00,0x78,0x45,0x51,0x00,0x4a,0x51,0x00,0x41,0x51,
0x48,0x41,0x00,0x00,0x4a,0x00,0x00,0x45,0x00,0x78,0x41,0x51,0x00,0x45,0x51,0x00,
0x3e,0x51,0x48,0x3e,0x00,0x00,0x45,0x00,0x00,0x41,0x00,0x78,0x45,0x51,0x00,0x4a,
0x51,0x00,0x41,0x51,0x48,0x41,0x00,0x00,0x4a,0x00,0x00,0x45,0x00,0x78,0x41,0x51,
0x00,0x45,0x51,0x00,0x3e,0x51,0x60,0x45,0x51,0x00,0x4a,0x51,0x00,0x41,0x51,0x00,
0x45,0x00,0x00,0x41,0x00,0x10,0x3e,0x00,0x00,0x45,0x00,0x00,0x41,0x00,0x60,0x4a,
0x00,0x50,0x41,0x51,0x00,0x45,0x51,0x00,0x3e,0x51,0x81,0x40,0x44,0x51,0x00,0x40,
0x51,0x10,0x3e,0x00,0x00,0x41,0x00,0x00,0x45,0x00,0x50,0x41,0x51,0x00,0x45,0x51,
0x00,0x3e,0x51,0x10,0x44,0x00,0x00,0x40,0x00,0x60,0x45,0x00,0x00,0x41,0x00,0x00,
0x3e,0x00,0x50,0x43,0x51,0x00,0x48,0x51,0x00,0x40,0x51,0x48,0x40,0x00,0x00,0x48,
0x00,0x00,0x43,0x00,0x78,0x48,0x51,0x00,0x43,0x51,0x82,0x20,0x40,0x51,0x00,0x45,
0x51,0x00,0x3c,0x51,0x10,0x43,0x00,0x00,0x48,0x00,0x50,0x43,0x51,0x00,0x3a,0x51,
0x10,0x45,0x00,0x00,0x3c,0x00,0x00,0x40,0x00,0x60,0x43,0x00,0x00,0x3a,0x00,0x50,
0x3c,0x51,0x00,0x41,0x51,0x00,0x38,0x51,0x82,0x08,0x38,0x00,0x00,0x41,0x00,0x00,
0x3c,0x00,0x18,0x38,0x51,0x00,0x3e,0x51,0x00,0x35,0x51,0x83,0x48,0x35,0x00,0x00,
0x3e,0x00,0x00,0x38,0x00,0x18,0x3a,0x51,0x00,0x3e,0x51,0x00,0x37,0x51,0x82,0x68,
0x37,0x00,0x00,0x3e,0x00,0x00,0x3a,0x00,0x18,0x3e,0x51,0x00,0x41,0x51,0x00,0x3a,
0x51,0x82,0x68,0x3a,0x00,0x00,0x41,0x00,0x00,0x3e,0x00,0x18,0x41,0x51,0x00,0x45,
0x51,0x00,0x3c,0x51,0x82,0x68,0x3c,0x00,0x00,0x45,0x00,0x00,0x41,0x00,0x18,0x45,
0x51,0x00,0x48,0x51,0x00,0x42,0x51,0x82,0x68,0x42,0x00,0x00,0x48,0x00,0x00,0x45,
0x00,0x18,0x46,0x51,0x00,0x4b,0x51,0x00,0x43,0x51,0x48,0x43,0x00,0x00,0x4b,0x00,
0x00,0x46,0x00,0x78,0x4a,0x51,0x00,0x42,0x51,0x48,0x42,0x00,0x00,0x4a,0x00,0x78,
0x40,0x51,0x00,0x44,0x51,0x00,0x3b,0x51,0x60,0x3c,0x51,0x00,0x45,0x51,0x00,0x3a,
0x51,0x10,0x3b,0x00,0x00,0x40,0x00,0x00,0x44,0x00,0x60,0x3c,0x00,0x00,0x45,0x00,
0x00,0x3a,0x00,0x50,0x3c,0x51,0x00,0x41,0x51,0x00,0x39,0x51,0x48,0x39,0x00,0x00,
0x41,0x00,0x00,0x3c,0x00,0x86,0x78,0x4d,0x51,0x00,0x51,0x51,0x00,0x4a,0x51,0x48,
0x4a,0x00,0x00,0x51,0x00,0x00,0x4d,0x00,0x78,0x4a,0x51,0x00,0x4d,0x51,0x00,0x45,
0x51,0x48,0x45,0x00,0x00,0x4d,0x00,0x00,0x4a,0x00,0x18,0x4d,0x51,0x00,0x51,0x51,
0x00,0x4a,0x51,0x48,0x4a,0x00,0x00,0x51,0x00,0x00,0x4d,0x00,0x83,0x18,0x4d,0x51,
0x00,0x51,0x51,0x00,0x4a,0x51,0x48,0x4a,0x00,0x00,0x51,0x00,0x00,0x4d,0x00,0x78,
0x4a,0x51,0x00,0x4d,0x51,0x00,0x45,0x51,0x48,0x45,0x00,0x00,0x4d,0x00,0x00,0x4a,
0x00,0x18,0x4d,0x51,0x00,0x51,0x51,0x00,0x4a,0x51,0x48,0x4a,0x00,0x00,0x51,0x00,
0x00,0x4d,0x00,0x83,0x18,0x4d,0x51,0x00,0x51,0x51,0x00,0x4a,0x51,0x48,0x4a,0x00,
0x00,0x51,0x00,0x00,0x4d,0x00,0x78,0x4a,0x51,0x00,0x4d,0x51,0x00,0x45,0x51,0x60,
0x4c,0x51,0x00,0x50,0x51,0x00,0x4a,0x51,0x00,0x4a,0x00,0x10,0x45,0x00,0x00,0x4d,
0x00,0x00,0x4a,0x00,0x50,0x4d,0x51,0x00,0x51,0x51,0x00,0x49,0x51,0x10,0x4c,0x00,
0x00,0x50,0x00,0x60,0x51,0x00,0x00,0x4d,0x00,0x00,0x49,0x00,0x50,0x4a,0x51,0x00,
0x4d,0x51,0x00,0x45,0x51,0x82,0x68,0x45,0x00,0x00,0x4d,0x00,0x00,0x4a,0x00,0x18,
0x45,0x51,0x00,0x4a,0x51,0x00,0x41,0x51,0x83,0x48,0x41,0x00,0x00,0x4a,0x00,0x00,
0x45,0x00,0x78,0x4d,0x51,0x00,0x51,0x51,0x00,0x4a,0x51,0x48,0x4a,0x00,0x00,0x51,
0x00,0x00,0x4d,0x00,0x78,0x4a,0x51,0x00,0x4d,0x51,0x00,0x45,0x51,0x48,0x45,0x00,
0x00,0x4d,0x00,0x00,0x4a,0x00,0x18,0x4d,0x51,0x00,0x51,0x51,0x00,0x4a,0x51,0x48,
0x4a,0x00,0x00,0x51,0x00,0x00,0x4d,0x00,0x83,0x18,0x4d,0x51,0x00,0x51,0x51,0x00,
0x4a,0x51,0x48,0x4a,0x00,0x00,0x51,0x00,0x00,0x4d,0x00,0x78,0x4a,0x51,0x00,0x4d,
0x51,0x00,0x45,0x51,0x48,0x45,0x00,0x00,0x4d,0x00,0x00,0x4a,0x00,0x18,0x4d,0x51,
0x00,0x51,0x51,0x00,0x4a,0x51,0x48,0x4a,0x00,0x00,0x51,0x00,0x00,0x4d,0x00,0x83,
0x18,0x4d,0x51,0x00,0x51,0x51,0x00,0x4a,0x51,0x48,0x4a,0x00,0x00,0x51,0x00,0x00,
0x4d,0x00,0x78,0x4a,0x51,0x00,0x4d,0x51,0x00,0x45,0x51,0x60,0x4c,0x51,0x00,0x50,
0x51,0x00,0x4a,0x51,0x00,0x4a,0x00,0x10,0x45,0x00,0x00,0x4d,0x00,0x00,0x4a,0x00,
0x50,0x4d,0x51,0x00,0x51,0x51,0x00,0x49,0x51,0x10,0x4c,0x00,0x00,0x50,0x00,0x60,
0x51,0x00,0x00,0x4d,0x00,0x00,0x49,0x00,0x50,0x4b,0x51,0x00,0x4f,0x51,0x00,0x49,
0x51,0x83,0x48,0x49,0x00,0x00,0x4f,0x00,0x00,0x4b,0x00,0x18,0x43,0x51,0x00,0x48,
0x51,0x00,0x40,0x51,0x82,0x68,0x40,0x00,0x00,0x48,0x00,0x00,0x43,0x00,0x78,0x4d,
0x51,0x00,0x51,0x51,0x00,0x4a,0x51,0x48,0x4a,0x00,0x00,0x51,0x00,0x00,0x4d,0x00,
0x78,0x4a,0x51,0x00,0x4d,0x51,0x00,0x45,0x51,0x48,0x45,0x00,0x00,0x4d,0x00,0x00,
0x4a,0x00,0x18,0x4d,0x51,0x00,0x51,0x51,0x00,0x4a,0x51,0x48,0x4a,0x00,0x00,0x51,
0x00,0x00,0x4d,0x00,0x83,0x18,0x4d,0x51,0x00,0x51,0x51,0x00,0x4a,0x51,0x48,0x4a,
0x00,0x00,0x51,0x00,0x00,0x4d,0x00,0x78,0x4a,0x51,0x00,0x4d,0x51,0x00,0x45,0x51,
0x48,0x45,0x00,0x00,0x4d,0x00,0x00,0x4a,0x00,0x18,0x4d,0x51,0x00,0x51,0x51,0x00,
0x4a,0x51,0x48,0x4a,0x00,0x00,0x51,0x00,0x00,0x4d,0x00,0x83,0x18,0x4d,0x51,0x00,
0x51,0x51,0x00,0x4a,0x51,0x48,0x4a,0x00,0x00,0x51,0x00,0x00,0x4d,0x00,0x78,0x4a,
0x51,0x00,0x4d,0x51,0x00,0x45,0x51,0x60,0x4c,0x51,0x00,0x50,0x51,0x00,0x4a,0x51,
0x00,0x4a,0x00,0x10,0x45,0x00,0x00,0x4d,0x00,0x00,0x4a,0x00,0x50,0x4d,0x51,0x00,
0x51,0x51,0x00,0x49,0x51,0x10,0x4c,0x00,0x00,0x50,0x00,0x60,0x51,0x00,0x00,0x4d,
0x00,0x00,0x49,0x00,0x50,0x4a,0x51,0x00,0x4d,0x51,0x00,0x45,0x51,0x82,0x68,0x45,
0x00,0x00,0x4d,0x00,0x00,0x4a,0x00,0x18,0x45,0x51,0x00,0x4a,0x51,0x00,0x41,0x51,
0x83,0x48,0x41,0x00,0x00,0x4a,0x00,0x00,0x45,0x00,0x18,0x46,0x51,0x60,0x4a,0x51,
0x10,0x46,0x00,0x50,0x4d,0x51,0x10,0x4a,0x00,0x60,0x4d,0x00,0x50,0x47,0x51,0x60,
0x4a,0x51,0x10,0x47,0x00,0x50,0x4d,0x51,0x10,0x4a,0x00,0x60,0x4d,0x00,0x50,0x50,
0x51,0x60,0x51,0x51,0x10,0x50,0x00,0x60,0x51,0x00,0x50,0x4a,0x51,0x83,0x48,0x4a,
0x00,0x18,0x3e,0x51,0x60,0x41,0x51,0x10,0x3e,0x00,0x50,0x46,0x51,0x10,0x41,0x00,
0x50,0x4a,0x51,0x10,0x46,0x00,0x50,0x41,0x51,0x00,0x44,0x51,0x00,0x3b,0x51,0x10,
0x4a,0x00,0x50,0x40,0x51,0x00,0x45,0x51,0x00,0x3a,0x51,0x10,0x41,0x00,0x00,0x3b,
0x00,0x00,0x44,0x00,0x60,0x40,0x00,0x00,0x45,0x00,0x00,0x3a,0x00,0x50,0x3c,0x51,
0x00,0x41,0x51,0x00,0x39,0x51,0x85,0x08,0x39,0x00,0x00,0x41,0x00,0x00,0x3c,0x00,
0xe1,0x58,0x41,0x51,0x00,0x45,0x51,0x00,0x3e,0x51,0x48,0x3e,0x00,0x00,0x45,0x00,
0x00,0x41,0x00,0x78,0x45,0x51,0x00,0x4a,0x51,0x00,0x41,0x51,0x48,0x41,0x00,0x00,
0x4a,0x00,0x00,0x45,0x00,0x78,0x41,0x51,0x00,0x45,0x51,0x00,0x3e,0x51,0x48,0x3e,
0x00,0x00,0x45,0x00,0x00,0x41,0x00,0x78,0x45,0x51,0x00,0x4a,0x51,0x00,0x41,0x51,
0x48,0x41,0x00,0x00,0x4a,0x00,0x00,0x45,0x00,0x78,0x41,0x51,0x00,0x45,0x51,0x00,
0x3e,0x51,0x60,0x45,0x51,0x00,0x4a,0x51,0x00,0x41,0x51,0x00,0x45,0x00,0x00,0x41,
0x00,0x10,0x3e,0x00,0x00,0x45,0x00,0x00,0x41,0x00,0x60,0x4a,0x00,0x50,0x41,0x51,
0x00,0x45,0x51,0x00,0x3e,0x51,0x81,0x40,0x44,0x51,0x00,0x40,0x51,0x10,0x3e,0x00,
0x00,0x41,0x00,0x00,0x45,0x00,0x50,0x41,0x51,0x00,0x45,0x51,0x00,0x3e,0x51,0x10,
0x44,0x00,0x00,0x40,0x00,0x60,0x45,0x00,0x00,0x41,0x00,0x00,0x3e,0x00,0x50,0x41,
0x51,0x00,0x45,0x51,0x00,0x3e,0x51,0x60,0x40,0x51,0x00,0x44,0x51,0x00,0x3d,0x51,
0x10,0x3e,0x00,0x00,0x41,0x00,0x00,0x45,0x00,0x50,0x41,0x51,0x00,0x45,0x51,0x00,
0x3e,0x51,0x10,0x40,0x00,0x00,0x3d,0x00,0x00,0x44,0x00,0x50,0x40,0x51,0x00,0x43,
0x51,0x00,0x3c,0x51,0x10,0x41,0x00,0x00,0x3e,0x00,0x00,0x45,0x00,0x60,0x40,0x00,
0x00,0x43,0x00,0x00,0x3c,0x00,0x50,0x3f,0x51,0x00,0x42,0x51,0x00,0x3b,0x51,0x60,
0x40,0x51,0x00,0x43,0x51,0x00,0x3c,0x51,0x10,0x3b,0x00,0x00,0x3f,0x00,0x00,0x42,
0x00,0x50,0x3d,0x51,0x00,0x41,0x51,0x00,0x3a,0x51,0x10,0x40,0x00,0x00,0x3c,0x00,
0x00,0x43,0x00,0x38,0x3d,0x00,0x00,0x41,0x00,0x00,0x3a,0x00,0x18,0x3c,0x51,0x00,
0x41,0x51,0x00,0x39,0x51,0x82,0x08,0x39,0x00,0x00,0x41,0x00,0x00,0x3c,0x00,0x18,
0x39,0x51,0x00,0x3e,0x51,0x00,0x35,0x51,0x83,0x48,0x35,0x00,0x00,0x3e,0x00,0x00,
0x39,0x00,0x18,0x41,0x51,0x00,0x45,0x51,0x00,0x3e,0x51,0x48,0x3e,0x00,0x00,0x45,
0x00,0x00,0x41,0x00,0x78,0x45,0x51,0x00,0x4a,0x51,0x00,0x41,0x51,0x48,0x41,0x00,
0x00,0x4a,0x00,0x00,0x45,0x00,0x78,0x41,0x51,0x00,0x45,0x51,0x00,0x3e,0x51,0x48,
0x3e,0x00,0x00,0x45,0x00,0x00,0x41,0x00,0x78,0x45,0x51,0x00,0x4a,0x51,0x00,0x41,
0x51,0x48,0x41,0x00,0x00,0x4a,0x00,0x00,0x45,0x00,0x78,0x41,0x51,0x00,0x45,0x51,
0x00,0x3e,0x51,0x60,0x45,0x51,0x00,0x4a,0x51,0x00,0x41,0x51,0x00,0x45,0x00,0x00,
0x41,0x00,0x10,0x3e,0x00,0x00,0x45,0x00,0x00,0x41,0x00,0x60,0x4a,0x00,0x50,0x41,
0x51,0x00,0x45,0x51,0x00,0x3e,0x51,0x81,0x40,0x44,0x51,0x00,0x40,0x51,0x10,0x3e,
0x00,0x00,0x41,0x00,0x00,0x45,0x00,0x50,0x41,0x51,0x00,0x45,0x51,0x00,0x3e,0x51,
0x10,0x44,0x00,0x00,0x40,0x00,0x60,0x45,0x00,0x00,0x41,0x00,0x00,0x3e,0x00,0x50,
0x3e,0x51,0x00,0x43,0x51,0x00,0x3b,0x51,0x48,0x3b,0x00,0x00,0x43,0x00,0x00,0x3e,
0x00,0x78,0x3e,0x51,0x00,0x43,0x51,0x00,0x3b,0x51,0x82,0x20,0x3d,0x51,0x00,0x42,
0x51,0x00,0x3a,0x51,0x10,0x3b,0x00,0x00,0x3e,0x00,0x00,0x43,0x00,0x50,0x3e,0x51,
0x00,0x43,0x51,0x00,0x3b,0x51,0x10,0x3d,0x00,0x00,0x3a,0x00,0x00,0x42,0x00,0x60,
0x3e,0x00,0x00,0x43,0x00,0x00,0x3b,0x00,0x50,0x43,0x51,0x00,0x48,0x51,0x00,0x40,
0x51,0x48,0x40,0x00,0x00,0x48,0x00,0x00,0x43,0x00,0x18,0x41,0x51,0x00,0x46,0x51,
0x00,0x3e,0x51,0x81,0x28,0x3e,0x00,0x00,0x46,0x00,0x00,0x41,0x00,0x18,0x40,0x51,
0x00,0x45,0x51,0x00,0x3c,0x51,0x81,0x28,0x3c,0x00,0x00,0x45,0x00,0x00,0x40,0x00,
0x18,0x3e,0x51,0x00,0x43,0x51,0x00,0x3a,0x51,0x82,0x08,0x3a,0x00,0x00,0x43,0x00,
0x00,0x3e,0x00,0x18,0x41,0x51,0x00,0x45,0x51,0x00,0x3e,0x51,0x48,0x3e,0x00,0x00,
0x45,0x00,0x00,0x41,0x00,0x78,0x45,0x51,0x00,0x4a,0x51,0x00,0x41,0x51,0x48,0x41,
0x00,0x00,0x4a,0x00,0x00,0x45,0x00,0x78,0x41,0x51,0x00,0x45,0x51,0x00,0x3e,0x51,
0x48,0x3e,0x00,0x00,0x45,0x00,0x00,0x41,0x00,0x78,0x45,0x51,0x00,0x4a,0x51,0x00,
0x41,0x51,0x48,0x41,0x00,0x00,0x4a,0x00,0x00,0x45,0x00,0x78,0x41,0x51,0x00,0x45,
0x51,0x00,0x3e,0x51,0x60,0x45,0x51,0x00,0x4a,0x51,0x00,0x41,0x51,0x00,0x45,0x00,
0x00,0x41,0x00,0x10,0x3e,0x00,0x00,0x45,0x00,0x00,0x41,0x00,0x60,0x4a,0x00,0x50,
0x41,0x51,0x00,0x45,0x51,0x00,0x3e,0x51,0x81,0x40,0x44,0x51,0x00,0x40,0x51,0x10,
0x3e,0x00,0x00,0x41,0x00,0x00,0x45,0x00,0x50,0x41,0x51,0x00,0x45,0x51,0x00,0x3e,
0x51,0x10,0x44,0x00,0x00,0x40,0x00,0x60,0x45,0x00,0x00,0x41,0x00,0x00,0x3e,0x00,
0x50,0x43,0x51,0x00,0x48,0x51,0x00,0x40,0x51,0x48,0x40,0x00,0x00,0x48,0x00,0x00,
0x43,0x00,0x78,0x48,0x51,0x00,0x43,0x51,0x82,0x20,0x40,0x51,0x00,0x45,0x51,0x00,
0x3c,0x51,0x10,0x43,0x00,0x00,0x48,0x00,0x50,0x43,0x51,0x00,0x3a,0x51,0x10,0x45,
0x00,0x00,0x3c,0x00,0x00,0x40,0x00,0x60,0x43,0x00,0x00,0x3a,0x00,0x50,0x3c,0x51,
0x00,0x41,0x51,0x00,0x38,0x51,0x82,0x08,0x38,0x00,0x00,0x41,0x00,0x00,0x3c,0x00,
0x18,0x38,0x51,0x00,0x3e,0x51,0x00,0x35,0x51,0x83,0x48,0x35,0x00,0x00,0x3e,0x00,
0x00,0x38,0x00,0x18,0x3a,0x51,0x00,0x3e,0x51,0x00,0x37,0x51,0x82,0x68,0x37,0x00,
0x00,0x3e,0x00,0x00,0x3a,0x00,0x18,0x3e,0x51,0x00,0x41,0x51,0x00,0x3a,0x51,0x82,
0x68,0x3a,0x00,0x00,0x41,0x00,0x00,0x3e,0x00,0x18,0x41,0x51,0x00,0x45,0x51,0x00,
0x3c,0x51,0x82,0x68,0x3c,0x00,0x00,0x45,0x00,0x00,0x41,0x00,0x18,0x45,0x51,0x00,
0x48,0x51,0x00,0x42,0x51,0x82,0x68,0x42,0x00,0x00,0x48,0x00,0x00,0x45,0x00,0x18,
0x46,0x51,0x00,0x4b,0x51,0x00,0x43,0x51,0x48,0x43,0x00,0x00,0x4b,0x00,0x00,0x46,
0x00,0x78,0x4a,0x51,0x00,0x42,0x51,0x48,0x42,0x00,0x00,0x4a,0x00,0x78,0x40,0x51,
0x00,0x44,0x51,0x00,0x3b,0x51,0x60,0x3c,0x51,0x00,0x45,0x51,0x00,0x3a,0x51,0x10,
0x3b,0x00,0x00,0x40,0x00,0x00,0x44,0x00,0x60,0x3c,0x00,0x00,0x45,0x00,0x00,0x3a,
0x00,0x50,0x3c,0x51,0x00,0x41,0x51,0x00,0x39,0x51,0x48,0x39,0x00,0x00,0x41,0x00,
0x00,0x3c,0x00,0x86,0x78,0x4d,0x51,0x00,0x51,0x51,0x00,0x4a,0x51,0x48,0x4a,0x00,
0x00,0x51,0x00,0x00,0x4d,0x00,0x78,0x4a,0x51,0x00,0x4d,0x51,0x00,0x45,0x51,0x48,
0x45,0x00,0x00,0x4d,0x00,0x00,0x4a,0x00,0x18,0x4d,0x51,0x00,0x51,0x51,0x00,0x4a,
0x51,0x48,0x4a,0x00,0x00,0x51,0x00,0x00,0x4d,0x00,0x83,0x18,0x4d,0x51,0x00,0x51,
0x51,0x00,0x4a,0x51,0x48,0x4a,0x00,0x00,0x51,0x00,0x00,0x4d,0x00,0x78,0x4a,0x51,
0x00,0x4d,0x51,0x00,0x45,0x51,0x48,0x45,0x00,0x00,0x4d,0x00,0x00,0x4a,0x00,0x18,
0x4d,0x51,0x00,0x51,0x51,0x00,0x4a,0x51,0x48,0x4a,0x00,0x00,0x51,0x00,0x00,0x4d,
0x00,0x83,0x18,0x4d,0x51,0x00,0x51,0x51,0x00,0x4a,0x51,0x48,0x4a,0x00,0x00,0x51,
0x00,0x00,0x4d,0x00,0x78,0x4a,0x51,0x00,0x4d,0x51,0x00,0x45,0x51,0x60,0x4c,0x51,
0x00,0x50,0x51,0x00,0x4a,0x51,0x00,0x4a,0x00,0x10,0x45,0x00,0x00,0x4d,0x00,0x00,
0x4a,0x00,0x50,0x4d,0x51,0x00,0x51,0x51,0x00,0x49,0x51,0x10,0x4c,0x00,0x00,0x50,
0x00,0x60,0x51,0x00,0x00,0x4d,0x00,0x00,0x49,0x00,0x50,0x4a,0x51,0x00,0x4d,0x51,
0x00,0x45,0x51,0x82,0x68,0x45,0x00,0x00,0x4d,0x00,0x00,0x4a,0x00,0x18,0x45,0x51,
0x00,0x4a,0x51,0x00,0x41,0x51,0x83,0x48,0x41,0x00,0x00,0x4a,0x00,0x00,0x45,0x00,
0x78,0x4d,0x51,0x00,0x51,0x51,0x00,0x4a,0x51,0x48,0x4a,0x00,0x00,0x51,0x00,0x00,
0x4d,0x00,0x78,0x4a,0x51,0x00,0x4d,0x51,0x00,0x45,0x51,0x48,0x45,0x00,0x00,0x4d,
0x00,0x00,0x4a,0x00,0x18,0x4d,0x51,0x00,0x51,0x51,0x00,0x4a,0x51,0x48,0x4a,0x00,
0x00,0x51,0x00,0x00,0x4d,0x00,0x83,0x18,0x4d,0x51,0x00,0x51,0x51,0x00,0x4a,0x51,
0x48,0x4a,0x00,0x00,0x51,0x00,0x00,0x4d,0x00,0x78,0x4a,0x51,0x00,0x4d,0x51,0x00,
0x45,0x51,0x48,0x45,0x00,0x00,0x4d,0x00,0x00,0x4a,0x00,0x18,0x4d,0x51,0x00,0x51,
0x51,0x00,0x4a,0x51,0x48,0x4a,0x00,0x00,0x51,0x00,0x00,0x4d,0x00,0x83,0x18,0x4d,
0x51,0x00,0x51,0x51,0x00,0x4a,0x51,0x48,0x4a,0x00,0x00,0x51,0x00,0x00,0x4d,0x00,
0x78,0x4a,0x51,0x00,0x4d,0x51,0x00,0x45,0x51,0x60,0x4c,0x51,0x00,0x50,0x51,0x00,
0x4a,0x51,0x00,0x4a,0x00,0x10,0x45,0x00,0x00,0x4d,0x00,0x00,0x4a,0x00,0x50,0x4d,
0x51,0x00,0x51,0x51,0x00,0x49,0x51,0x10,0x4c,0x00,0x00,0x50,0x00,0x60,0x51,0x00,
0x00,0x4d,0x00,0x00,0x49,0x00,0x50,0x4b,0x51,0x00,0x4f,0x51,0x00,0x49,0x51,0x83,
0x48,0x49,0x00,0x00,0x4f,0x00,0x00,0x4b,0x00,0x18,0x43,0x51,0x00,0x48,0x51,0x00,
0x40,0x51,0x82,0x68,0x40,0x00,0x00,0x48,0x00,0x00,0x43,0x00,0x78,0x4d,0x51,0x00,
0x51,0x51,0x00,0x4a,0x51,0x48,0x4a,0x00,0x00,0x51,0x00,0x00,0x4d,0x00,0x78,0x4a,
0x51,0x00,0x4d,0x51,0x00,0x45,0x51,0x48,0x45,0x00,0x00,0x4d,0x00,0x00,0x4a,0x00,
0x18,0x4d,0x51,0x00,0x51,0x51,0x00,0x4a,0x51,0x48,0x4a,0x00,0x00,0x51,0x00,0x00,
0x4d,0x00,0x83,0x18,0x4d,0x51,0x00,0x51,0x51,0x00,0x4a,0x51,0x48,0x4a,0x00,0x00,
0x51,0x00,0x00,0x4d,0x00,0x78,0x4a,0x51,0x00,0x4d,0x51,0x00,0x45,0x51,0x48,0x45,
0x00,0x00,0x4d,0x00,0x00,0x4a,0x00,0x18,0x4d,0x51,0x00,0x51,0x51,0x00,0x4a,0x51,
0x48,0x4a,0x00,0x00,0x51,0x00,0x00,0x4d,0x00,0x83,0x18,0x4d,0x51,0x00,0x51,0x51,
0x00,0x4a,0x51,0x48,0x4a,0x00,0x00,0x51,0x00,0x00,0x4d,0x00,0x78,0x4a,0x51,0x00,
0x4d,0x51,0x00,0x45,0x51,0x60,0x4c,0x51,0x00,0x50,0x51,0x00,0x4a,0x51,0x00,0x4a,
0x00,0x10,0x45,0x00,0x00,0x4d,0x00,0x00,0x4a,0x00,0x50,0x4d,0x51,0x00,0x51,0x51,
0x00,0x49,0x51,0x10,0x4c,0x00,0x00,0x50,0x00,0x60,0x51,0x00,0x00,0x4d,0x00,0x00,
0x49,0x00,0x50,0x4a,0x51,0x00,0x4d,0x51,0x00,0x45,0x51,0x82,0x68,0x45,0x00,0x00,
0x4d,0x00,0x00,0x4a,0x00,0x18,0x45,0x51,0x00,0x4a,0x51,0x00,0x41,0x51,0x83,0x48,
0x41,0x00,0x00,0x4a,0x00,0x00,0x45,0x00,0x18,0x46,0x51,0x60,0x4a,0x51,0x10,0x46,
0x00,0x50,0x4d,0x51,0x10,0x4a,0x00,0x60,0x4d,0x00,0x50,0x47,0x51,0x60,0x4a,0x51,
0x10,0x47,0x00,0x50,0x4d,0x51,0x10,0x4a,0x00,0x60,0x4d,0x00,0x50,0x50,0x51,0x60,
0x51,0x51,0x10,0x50,0x00,0x60,0x51,0x00,0x50,0x4a,0x51,0x83,0x48,0x4a,0x00,0x18,
0x3e,0x51,0x60,0x41,0x51,0x10,0x3e,0x00,0x50,0x46,0x51,0x10,0x41,0x00,0x50,0x4a,
0x51,0x10,0x46,0x00,0x50,0x41,0x51,0x00,0x44,0x51,0x00,0x3b,0x51,0x10,0x4a,0x00,
0x50,0x40,0x51,0x00,0x45,0x51,0x00,0x3a,0x51,0x10,0x41,0x00,0x00,0x3b,0x00,0x00,
0x44,0x00,0x60,0x40,0x00,0x00,0x45,0x00,0x00,0x3a,0x00,0x50,0x3c,0x51,0x00,0x41,
0x51,0x00,0x39,0x51,0x85,0x08,0x39,0x00,0x00,0x41,0x00,0x00,0x3c,0x00,0x81,0xc3,
0x18,0x48,0x3f,0x00,0x4c,0x3f,0x00,0x43,0x3f,0x81,0x28,0x43,0x00,0x00,0x4c,0x00,
0x00,0x48,0x00,0x18,0x46,0x3f,0x00,0x4a,0x3f,0x00,0x41,0x3f,0x82,0x68,0x41,0x00,
0x00,0x4a,0x00,0x00,0x46,0x00,0x18,0x43,0x3f,0x00,0x48,0x3f,0x00,0x40,0x3f,0x82,
0x68,0x40,0x00,0x00,0x48,0x00,0x00,0x43,0x00,0x78,0x4c,0x3f,0x00,0x52,0x3f,0x00,
0x48,0x3f,0x82,0x08,0x48,0x00,0x00,0x52,0x00,0x00,0x4c,0x00,0x18,0x4d,0x3f,0x00,
0x51,0x3f,0x00,0x48,0x3f,0x82,0x68,0x48,0x00,0x00,0x51,0x00,0x00,0x4d,0x00,0x18,
0x4c,0x3f,0x00,0x4f,0x3f,0x00,0x46,0x3f,0x82,0x68,0x46,0x00,0x00,0x4f,0x00,0x00,
0x4c,0x00,0x18,0x48,0x3f,0x00,0x4d,0x3f,0x00,0x45,0x3f,0x82,0x68,0x45,0x00,0x00,
0x4d,0x00,0x00,0x48,0x00,0x78,0x48,0x3f,0x00,0x4d,0x3f,0x00,0x45,0x3f,0x48,0x45,
0x00,0x00,0x4d,0x00,0x00,0x48,0x00,0x81,0x58,0x48,0x3f,0x00,0x4c,0x3f,0x00,0x43,
0x3f,0x82,0x68,0x43,0x00,0x00,0x4c,0x00,0x00,0x48,0x00,0x18,0x46,0x3f,0x00,0x4a,
0x3f,0x00,0x41,0x3f,0x82,0x68,0x41,0x00,0x00,0x4a,0x00,0x00,0x46,0x00,0x18,0x43,
0x3f,0x00,0x48,0x3f,0x00,0x40,0x3f,0x83,0x48,0x40,0x00,0x00,0x48,0x00,0x00,0x43,
0x00,0x18,0x4c,0x3f,0x00,0x52,0x3f,0x00,0x48,0x3f,0x82,0x08,0x48,0x00,0x00,0x52,
0x00,0x00,0x4c,0x00,0x18,0x4d,0x3f,0x00,0x51,0x3f,0x00,0x48,0x3f,0x82,0x68,0x48,
0x00,0x00,0x51,0x00,0x00,0x4d,0x00,0x18,0x4c,0x3f,0x00,0x4f,0x3f,0x00,0x46,0x3f,
0x82,0x68,0x46,0x00,0x00,0x4f,0x00,0x00,0x4c,0x00,0x18,0x4a,0x3f,0x00,0x4e,0x3f,
0x00,0x45,0x3f,0x82,0x68,0x45,0x00,0x00,0x4e,0x00,0x00,0x4a,0x00,0x78,0x3e,0x3f,
0x82,0x08,0x3e,0x00,0x18,0x3a,0x51,0x00,0x3e,0x51,0x00,0x35,0x51,0x48,0x35,0x00,
0x00,0x3e,0x00,0x00,0x3a,0x00,0x18,0x3e,0x51,0x00,0x41,0x51,0x00,0x3a,0x51,0x48,
0x3a,0x00,0x00,0x41,0x00,0x00,0x3e,0x00,0x18,0x41,0x51,0x00,0x46,0x51,0x00,0x3e,
0x51,0x48,0x3e,0x00,0x00,0x46,0x00,0x00,0x41,0x00,0x81,0x58,0x46,0x3f,0x00,0x4a,
0x3f,0x00,0x41,0x3f,0x82,0x08,0x41,0x00,0x00,0x4a,0x00,0x00,0x46,0x00,0x18,0x38,
0x51,0x00,0x3e,0x51,0x00,0x35,0x51,0x48,0x35,0x00,0x00,0x3e,0x00,0x00,0x38,0x00,
0x18,0x3b,0x51,0x00,0x41,0x51,0x00,0x38,0x51,0x48,0x38,0x00,0x00,0x41,0x00,0x00,
0x3b,0x00,0x18,0x41,0x51,0x00,0x47,0x51,0x00,0x3e,0x51,0x48,0x3e,0x00,0x00,0x47,
0x00,0x00,0x41,0x00,0x81,0x58,0x44,0x3f,0x00,0x4a,0x3f,0x00,0x41,0x3f,0x82,0x08,
0x41,0x00,0x00,0x4a,0x00,0x00,0x44,0x00,0x18,0x3c,0x51,0x00,0x41,0x51,0x00,0x39,
0x51,0x48,0x39,0x00,0x00,0x41,0x00,0x00,0x3c,0x00,0x18,0x41,0x51,0x00,0x45,0x51,
0x00,0x3c,0x51,0x48,0x3c,0x00,0x00,0x45,0x00,0x00,0x41,0x00,0x18,0x45,0x51,0x00,
0x48,0x51,0x00,0x41,0x51,0x48,0x41,0x00,0x00,0x48,0x00,0x00,0x45,0x00,0x81,0x58,
0x45,0x3f,0x00,0x49,0x3f,0x00,0x43,0x3f,0x82,0x08,0x43,0x00,0x00,0x49,0x00,0x00,
0x45,0x00,0x18,0x45,0x3f,0x00,0x4a,0x3f,0x00,0x42,0x3f,0x81,0x28,0x42,0x00,0x00,
0x4a,0x00,0x00,0x45,0x00,0x82,0x38,0x45,0x3f,0x00,0x4a,0x3f,0x00,0x42,0x3f,0x48,
0x42,0x00,0x00,0x4a,0x00,0x00,0x45,0x00,0x81,0x58,0x4d,0x51,0x00,0x4a,0x51,0x60,
0x51,0x51,0x10,0x4a,0x00,0x00,0x4d,0x00,0x50,0x4a,0x51,0x00,0x41,0x51,0x10,0x51,
0x00,0x50,0x4d,0x51,0x00,0x46,0x51,0x10,0x41,0x00,0x00,0x4a,0x00,0x50,0x3e,0x51,
0x10,0x4d,0x00,0x00,0x46,0x00,0x50,0x4a,0x51,0x00,0x41,0x51,0x10,0x3e,0x00,0x50,
0x43,0x51,0x00,0x3a,0x51,0x10,0x41,0x00,0x00,0x4a,0x00,0x50,0x46,0x51,0x00,0x3e,
0x51,0x10,0x43,0x00,0x00,0x3a,0x00,0x50,0x4c,0x51,0x00,0x48,0x51,0x10,0x46,0x00,
0x00,0x3e,0x00,0x50,0x4f,0x51,0x10,0x4c,0x00,0x00,0x48,0x00,0x50,0x48,0x51,0x00,
0x40,0x51,0x10,0x4f,0x00,0x50,0x4c,0x51,0x00,0x43,0x51,0x10,0x40,0x00,0x00,0x48,
0x00,0x50,0x46,0x51,0x00,0x3e,0x51,0x10,0x4c,0x00,0x00,0x43,0x00,0x50,0x48,0x51,
0x00,0x40,0x51,0x10,0x46,0x00,0x00,0x3e,0x00,0x50,0x43,0x51,0x00,0x3c,0x51,0x10,
0x48,0x00,0x00,0x40,0x00,0x50,0x48,0x51,0x00,0x40,0x51,0x10,0x43,0x00,0x00,0x3c,
0x00,0x50,0x3e,0x51,0x00,0x41,0x51,0x00,0x39,0x51,0x10,0x48,0x00,0x00,0x40,0x00,
0x38,0x41,0x00,0x00,0x3e,0x00,0x00,0x39,0x00,0x18,0x41,0x51,0x00,0x48,0x51,0x00,
0x3e,0x51,0x48,0x3e,0x00,0x00,0x48,0x00,0x00,0x41,0x00,0x81,0x58,0x3d,0x51,0x00,
0x41,0x51,0x00,0x38,0x51,0x48,0x38,0x00,0x00,0x41,0x00,0x00,0x3d,0x00,0x18,0x44,
0x51,0x00,0x49,0x51,0x00,0x41,0x51,0x48,0x41,0x00,0x00,0x49,0x00,0x00,0x44,0x00,
0x81,0x58,0x48,0x51,0x00,0x4d,0x51,0x00,0x45,0x51,0x81,0x28,0x45,0x00,0x00,0x4d,
0x00,0x00,0x48,0x00,0x84,0x58,0x41,0x51,0x00,0x44,0x51,0x00,0x3d,0x51,0x60,0x40,
0x51,0x00,0x43,0x51,0x00,0x3e,0x51,0x10,0x3d,0x00,0x00,0x41,0x00,0x00,0x44,0x00,
0x50,0x41,0x51,0x00,0x44,0x51,0x00,0x3d,0x51,0x10,0x40,0x00,0x00,0x3e,0x00,0x00,
0x43,0x00,0x50,0x40,0x51,0x00,0x43,0x51,0x00,0x3e,0x51,0x10,0x41,0x00,0x00,0x3d,
0x00,0x00,0x44,0x00,0x50,0x41,0x51,0x00,0x44,0x51,0x00,0x3d,0x51,0x10,0x40,0x00,
0x00,0x3e,0x00,0x00,0x43,0x00,0x50,0x40,0x51,0x00,0x43,0x51,0x00,0x3e,0x51,0x10,
0x41,0x00,0x00,0x3d,0x00,0x00,0x44,0x00,0x50,0x41,0x51,0x00,0x44,0x51,0x00,0x3d,
0x51,0x10,0x40,0x00,0x00,0x3e,0x00,0x00,0x43,0x00,0x50,0x40,0x51,0x00,0x43,0x51,
0x00,0x3e,0x51,0x10,0x41,0x00,0x00,0x3d,0x00,0x00,0x44,0x00,0x50,0x41,0x51,0x00,
0x44,0x51,0x00,0x3d,0x51,0x10,0x40,0x00,0x00,0x3e,0x00,0x00,0x43,0x00,0x50,0x3f,
0x51,0x00,0x49,0x51,0x00,0x3c,0x51,0x10,0x41,0x00,0x00,0x3d,0x00,0x00,0x44,0x00,
0x60,0x3f,0x00,0x00,0x49,0x00,0x00,0x3c,0x00,0x50,0x41,0x51,0x00,0x44,0x51,0x00,
0x3d,0x51,0x60,0x3f,0x51,0x00,0x49,0x51,0x00,0x3c,0x51,0x10,0x3d,0x00,0x00,0x41,
0x00,0x00,0x44,0x00,0x60,0x3f,0x00,0x00,0x49,0x00,0x00,0x3c,0x00,0x50,0x41,0x51,
0x00,0x44,0x51,0x00,0x3d,0x51,0x60,0x3f,0x51,0x00,0x48,0x51,0x00,0x3c,0x51,0x10,
0x3d,0x00,0x00,0x41,0x00,0x00,0x44,0x00,0x60,0x3f,0x00,0x00,0x48,0x00,0x00,0x3c,
0x00,0x50,0x41,0x51,0x00,0x44,0x51,0x00,0x3d,0x51,0x60,0x42,0x51,0x00,0x46,0x51,
0x00,0x3f,0x51,0x10,0x3d,0x00,0x00,0x41,0x00,0x00,0x44,0x00,0x50,0x43,0x51,0x00,
0x47,0x51,0x00,0x40,0x51,0x10,0x42,0x00,0x00,0x3f,0x00,0x00,0x46,0x00,0x50,0x44,
0x51,0x00,0x48,0x51,0x00,0x41,0x51,0x10,0x43,0x00,0x00,0x40,0x00,0x00,0x47,0x00,
0x50,0x43,0x51,0x00,0x47,0x51,0x00,0x40,0x51,0x10,0x44,0x00,0x00,0x41,0x00,0x00,
0x48,0x00,0x50,0x42,0x51,0x00,0x46,0x51,0x00,0x3f,0x51,0x10,0x43,0x00,0x00,0x40,
0x00,0x00,0x47,0x00,0x60,0x42,0x00,0x00,0x46,0x00,0x00,0x3f,0x00,0x50,0x41,0x51,
0x00,0x44,0x51,0x00,0x3d,0x51,0x60,0x40,0x51,0x00,0x43,0x51,0x00,0x3e,0x51,0x10,
0x3d,0x00,0x00,0x41,0x00,0x00,0x44,0x00,0x50,0x41,0x51,0x00,0x44,0x51,0x00,0x3d,
0x51,0x10,0x40,0x00,0x00,0x3e,0x00,0x00,0x43,0x00,0x50,0x40,0x51,0x00,0x43,0x51,
0x00,0x3e,0x51,0x10,0x41,0x00,0x00,0x3d,0x00,0x00,0x44,0x00,0x50,0x41,0x51,0x00,
0x44,0x51,0x00,0x3d,0x51,0x10,0x40,0x00,0x00,0x3e,0x00,0x00,0x43,0x00,0x50,0x40,
0x51,0x00,0x43,0x51,0x00,0x3e,0x51,0x10,0x41,0x00,0x00,0x3d,0x00,0x00,0x44,0x00,
0x50,0x41,0x51,0x00,0x44,0x51,0x00,0x3d,0x51,0x10,0x40,0x00,0x00,0x3e,0x00,0x00,
0x43,0x00,0x50,0x40,0x51,0x00,0x43,0x51,0x00,0x3e,0x51,0x10,0x41,0x00,0x00,0x3d,
0x00,0x00,0x44,0x00,0x50,0x41,0x51,0x00,0x44,0x51,0x00,0x3d,0x51,0x10,0x40,0x00,
0x00,0x3e,0x00,0x00,0x43,0x00,0x50,0x3f,0x51,0x00,0x49,0x51,0x00,0x3c,0x51,0x10,
0x41,0x00,0x00,0x3d,0x00,0x00,0x44,0x00,0x60,0x3f,0x00,0x00,0x49,0x00,0x00,0x3c,
0x00,0x50,0x41,0x51,0x00,0x44,0x51,0x00,0x3d,0x51,0x48,0x3d,0x00,0x00,0x44,0x00,
0x00,0x41,0x00,0x18,0x3f,0x51,0x00,0x49,0x51,0x00,0x3c,0x51,0x48,0x3c,0x00,0x00,
0x49,0x00,0x00,0x3f,0x00,0x78,0x41,0x51,0x00,0x44,0x51,0x00,0x3d,0x51,0x60,0x42,
0x51,0x00,0x45,0x51,0x00,0x3e,0x51,0x10,0x3d,0x00,0x00,0x41,0x00,0x00,0x44,0x00,
0x38,0x42,0x00,0x00,0x45,0x00,0x00,0x3e,0x00,0x18,0x43,0x51,0x00,0x46,0x51,0x00,
0x3f,0x51,0x60,0x42,0x51,0x00,0x45,0x51,0x00,0x3e,0x51,0x10,0x3f,0x00,0x00,0x43,
0x00,0x00,0x46,0x00,0x50,0x43,0x51,0x00,0x46,0x51,0x00,0x3f,0x51,0x10,0x42,0x00,
0x00,0x3e,0x00,0x00,0x45,0x00,0x82,0x10,0x42,0x51,0x00,0x45,0x51,0x00,0x3e,0x51,
0x10,0x43,0x00,0x00,0x3f,0x00,0x00,0x46,0x00,0x50,0x43,0x51,0x00,0x46,0x51,0x00,
0x3f,0x51,0x10,0x42,0x00,0x00,0x3e,0x00,0x00,0x45,0x00,0x38,0x43,0x00,0x00,0x46,
0x00,0x00,0x3f,0x00,0x18,0x42,0x51,0x00,0x45,0x51,0x00,0x3e,0x51,0x48,0x3e,0x00,
0x00,0x45,0x00,0x00,0x42,0x00,0x18,0x43,0x51,0x00,0x46,0x51,0x00,0x3f,0x51,0x60,
0x42,0x51,0x00,0x45,0x51,0x00,0x3e,0x51,0x10,0x3f,0x00,0x00,0x43,0x00,0x00,0x46,
0x00,0x50,0x43,0x51,0x00,0x46,0x51,0x00,0x3f,0x51,0x10,0x42,0x00,0x00,0x3e,0x00,
0x00,0x45,0x00,0x50,0x43,0x51,0x00,0x47,0x51,0x00,0x3e,0x51,0x00,0x43,0x00,0x10,
0x43,0x00,0x00,0x3f,0x00,0x00,0x46,0x00,0x50,0x44,0x51,0x00,0x48,0x51,0x00,0x3f,
0x51,0x10,0x3e,0x00,0x00,0x47,0x00,0x60,0x48,0x00,0x00,0x44,0x00,0x00,0x3f,0x00,
0x50,0x3f,0x51,0x00,0x42,0x51,0x00,0x3c,0x51,0x60,0x40,0x51,0x00,0x43,0x51,0x00,
0x3d,0x51,0x10,0x3c,0x00,0x00,0x3f,0x00,0x00,0x42,0x00,0x50,0x41,0x51,0x00,0x44,
0x51,0x00,0x3d,0x51,0x00,0x3d,0x00,0x10,0x43,0x00,0x00,0x40,0x00,0x00,0x3d,0x00,
0x50,0x40,0x51,0x00,0x43,0x51,0x00,0x3e,0x51,0x10,0x41,0x00,0x00,0x44,0x00,0x50,
0x41,0x51,0x00,0x44,0x51,0x00,0x3d,0x51,0x10,0x43,0x00,0x00,0x3e,0x00,0x00,0x40,
0x00,0x50,0x40,0x51,0x00,0x43,0x51,0x00,0x3e,0x51,0x10,0x41,0x00,0x00,0x3d,0x00,
0x00,0x44,0x00,0x50,0x41,0x51,0x00,0x44,0x51,0x00,0x3d,0x51,0x10,0x40,0x00,0x00,
0x3e,0x00,0x00,0x43,0x00,0x50,0x40,0x51,0x00,0x43,0x51,0x00,0x3e,0x51,0x10,0x41,
0x00,0x00,0x3d,0x00,0x00,0x44,0x00,0x50,0x41,0x51,0x00,0x44,0x51,0x00,0x3d,0x51,
0x10,0x40,0x00,0x00,0x3e,0x00,0x00,0x43,0x00,0x50,0x40,0x51,0x00,0x43,0x51,0x00,
0x3e,0x51,0x10,0x41,0x00,0x00,0x3d,0x00,0x00,0x44,0x00,0x50,0x41,0x51,0x00,0x44,
0x51,0x00,0x3d,0x51,0x10,0x40,0x00,0x00,0x3e,0x00,0x00,0x43,0x00,0x50,0x43,0x51,
0x00,0x49,0x51,0x00,0x3f,0x51,0x10,0x41,0x00,0x00,0x3d,0x00,0x00,0x44,0x00,0x60,
0x43,0x00,0x00,0x49,0x00,0x00,0x3f,0x00,0x50,0x3f,0x51,0x00,0x44,0x51,0x00,0x3c,
0x51,0x60,0x41,0x51,0x00,0x49,0x51,0x00,0x3d,0x51,0x10,0x3c,0x00,0x00,0x3f,0x00,
0x00,0x44,0x00,0x60,0x41,0x00,0x00,0x49,0x00,0x00,0x3d,0x00,0x50,0x41,0x51,0x00,
0x44,0x51,0x00,0x3d,0x51,0x60,0x41,0x51,0x00,0x45,0x51,0x00,0x3e,0x51,0x00,0x41,
0x00,0x10,0x41,0x00,0x00,0x44,0x00,0x00,0x3d,0x00,0x38,0x3e,0x00,0x00,0x45,0x00,
0x18,0x42,0x51,0x00,0x46,0x51,0x00,0x3d,0x51,0x60,0x41,0x51,0x00,0x45,0x51,0x00,
0x3c,0x51,0x10,0x3d,0x00,0x00,0x42,0x00,0x00,0x46,0x00,0x50,0x42,0x51,0x00,0x46,
0x51,0x00,0x3d,0x51,0x10,0x41,0x00,0x00,0x3c,0x00,0x00,0x45,0x00,0x82,0x10,0x41,
0x51,0x00,0x45,0x51,0x00,0x3c,0x51,0x10,0x42,0x00,0x00,0x3d,0x00,0x00,0x46,0x00,
0x50,0x42,0x51,0x00,0x46,0x51,0x00,0x3d,0x51,0x10,0x41,0x00,0x00,0x3c,0x00,0x00,
0x45,0x00,0x38,0x42,0x00,0x00,0x46,0x00,0x00,0x3d,0x00,0x18,0x42,0x51,0x00,0x47,
0x51,0x00,0x3f,0x51,0x48,0x3f,0x00,0x00,0x47,0x00,0x00,0x42,0x00,0x18,0x43,0x51,
0x00,0x40,0x51,0x60,0x3c,0x51,0x10,0x40,0x00,0x00,0x43,0x00,0x50,0x40,0x51,0x00,
0x37,0x51,0x10,0x3c,0x00,0x50,0x3c,0x51,0x00,0x35,0x51,0x10,0x37,0x00,0x00,0x40,
0x00,0x60,0x3c,0x00,0x00,0x35,0x00,0x50,0x37,0x51,0x00,0x34,0x51,0x60,0x3d,0x51,
0x10,0x34,0x00,0x00,0x37,0x00,0x38,0x3d,0x00,0x18,0x37,0x51,0x00,0x34,0x51,0x48,
0x34,0x00,0x00,0x37,0x00,0x18,0x3d,0x51,0x00,0x3a,0x51,0x60,0x36,0x51,0x00,0x33,
0x51,0x10,0x3a,0x00,0x00,0x3d,0x00,0x60,0x36,0x00,0x00,0x33,0x00,0x50,0x3d,0x51,
0x00,0x3a,0x51,0x60,0x40,0x51,0x10,0x3a,0x00,0x00,0x3d,0x00,0x50,0x3d,0x51,0x00,
0x3a,0x51,0x10,0x40,0x00,0x60,0x3a,0x00,0x00,0x3d,0x00,0x50,0x40,0x51,0x00,0x3a,
0x51,0x60,0x3d,0x51,0x10,0x3a,0x00,0x00,0x40,0x00,0x50,0x3c,0x51,0x10,0x3d,0x00,
0x50,0x3d,0x51,0x10,0x3c,0x00,0x50,0x3e,0x51,0x10,0x3d,0x00,0x50,0x3c,0x51,0x10,
0x3e,0x00,0x50,0x37,0x51,0x10,0x3c,0x00,0x60,0x37,0x00,0x50,0x43,0x51,0x00,0x3c,
0x51,0x60,0x44,0x51,0x00,0x41,0x51,0x10,0x3c,0x00,0x00,0x43,0x00,0x50,0x43,0x51,
0x10,0x44,0x00,0x00,0x41,0x00,0x50,0x44,0x51,0x10,0x43,0x00,0x50,0x45,0x51,0x10,
0x44,0x00,0x50,0x42,0x51,0x00,0x46,0x51,0x00,0x3d,0x51,0x10,0x45,0x00,0x50,0x45,
0x51,0x10,0x42,0x00,0x00,0x3d,0x00,0x00,0x46,0x00,0x50,0x46,0x51,0x10,0x45,0x00,
0x50,0x47,0x51,0x10,0x46,0x00,0x50,0x43,0x51,0x00,0x48,0x51,0x00,0x40,0x51,0x10,
0x47,0x00,0x38,0x43,0x00,0x00,0x48,0x00,0x00,0x40,0x00,0x18,0x43,0x51,0x00,0x48,
0x51,0x00,0x40,0x51,0x48,0x40,0x00,0x00,0x48,0x00,0x00,0x43,0x00,0x81,0x58,0x43,
0x51,0x00,0x48,0x51,0x00,0x40,0x51,0x48,0x40,0x00,0x00,0x48,0x00,0x00,0x43,0x00,
0x18,0x43,0x51,0x00,0x48,0x51,0x00,0x40,0x51,0x48,0x40,0x00,0x00,0x48,0x00,0x00,
0x43,0x00,0x81,0x58,0x45,0x51,0x00,0x48,0x51,0x00,0x41,0x51,0x48,0x41,0x00,0x00,
0x48,0x00,0x00,0x45,0x00,0x18,0x45,0x51,0x00,0x48,0x51,0x00,0x41,0x51,0x48,0x41,
0x00,0x00,0x48,0x00,0x00,0x45,0x00,0x81,0x58,0x45,0x51,0x00,0x48,0x51,0x00,0x41,
0x51,0x48,0x41,0x00,0x00,0x48,0x00,0x00,0x45,0x00,0x18,0x45,0x51,0x00,0x48,0x51,
0x00,0x41,0x51,0x48,0x41,0x00,0x00,0x48,0x00,0x00,0x45,0x00,0x81,0x58,0x43,0x51,
0x00,0x48,0x51,0x00,0x40,0x51,0x48,0x40,0x00,0x00,0x48,0x00,0x00,0x43,0x00,0x78,
0x48,0x51,0x00,0x4c,0x51,0x00,0x43,0x51,0x82,0x68,0x43,0x00,0x00,0x4c,0x00,0x00,
0x48,0x00,0x18,0x4d,0x51,0x60,0x49,0x51,0x10,0x4d,0x00,0x38,0x49,0x00,0x18,0x44,
0x51,0x60,0x41,0x51,0x10,0x44,0x00,0x50,0x40,0x51,0x10,0x41,0x00,0x50,0x3f,0x51,
0x10,0x40,0x00,0x50,0x3e,0x51,0x10,0x3f,0x00,0x60,0x3e,0x00,0x81,0x30,0x3f,0x51,
0x00,0x41,0x51,0x00,0x37,0x51,0x60,0x43,0x51,0x00,0x48,0x51,0x00,0x40,0x51,0x10,
0x37,0x00,0x00,0x3f,0x00,0x00,0x41,0x00,0x50,0x43,0x51,0x00,0x48,0x51,0x00,0x40,
0x51,0x00,0x43,0x00,0x00,0x40,0x00,0x00,0x48,0x00,0x10,0x43,0x00,0x00,0x48,0x00,
0x00,0x40,0x00,0x81,0x30,0x3f,0x51,0x00,0x42,0x51,0x00,0x37,0x51,0x60,0x43,0x51,
0x00,0x48,0x51,0x00,0x40,0x51,0x10,0x37,0x00,0x00,0x3f,0x00,0x00,0x42,0x00,0x50,
0x43,0x51,0x00,0x48,0x51,0x00,0x40,0x51,0x00,0x43,0x00,0x00,0x40,0x00,0x00,0x48,
0x00,0x10,0x43,0x00,0x00,0x48,0x00,0x00,0x40,0x00,0x81,0x30,0x44,0x51,0x00,0x47,
0x51,0x00,0x3b,0x51,0x60,0x45,0x51,0x00,0x48,0x51,0x00,0x41,0x51,0x10,0x3b,0x00,
0x00,0x44,0x00,0x00,0x47,0x00,0x50,0x45,0x51,0x00,0x48,0x51,0x00,0x41,0x51,0x00,
0x45,0x00,0x00,0x41,0x00,0x00,0x48,0x00,0x10,0x45,0x00,0x00,0x48,0x00,0x00,0x41,
0x00,0x81,0x30,0x44,0x51,0x00,0x47,0x51,0x00,0x3b,0x51,0x60,0x45,0x51,0x00,0x48,
0x51,0x00,0x41,0x51,0x10,0x3b,0x00,0x00,0x44,0x00,0x00,0x47,0x00,0x50,0x45,0x51,
0x00,0x48,0x51,0x00,0x41,0x51,0x00,0x45,0x00,0x00,0x41,0x00,0x00,0x48,0x00,0x10,
0x45,0x00,0x00,0x48,0x00,0x00,0x41,0x00,0x81,0x30,0x48,0x51,0x00,0x3c,0x51,0x60,
0x49,0x51,0x00,0x44,0x51,0x10,0x3c,0x00,0x00,0x48,0x00,0x50,0x40,0x51,0x00,0x3c,
0x51,0x10,0x49,0x00,0x00,0x44,0x00,0x50,0x49,0x51,0x00,0x44,0x51,0x10,0x40,0x00,
0x00,0x3c,0x00,0x82,0x10,0x40,0x51,0x00,0x3c,0x51,0x10,0x49,0x00,0x00,0x44,0x00,
0x50,0x49,0x51,0x00,0x44,0x51,0x10,0x40,0x00,0x00,0x3c,0x00,0x38,0x49,0x00,0x00,
0x44,0x00,0x18,0x40,0x51,0x00,0x3c,0x51,0x48,0x3c,0x00,0x00,0x40,0x00,0x18,0x49,
0x51,0x00,0x44,0x51,0x60,0x40,0x51,0x00,0x3c,0x51,0x10,0x44,0x00,0x00,0x49,0x00,
0x50,0x49,0x51,0x00,0x44,0x51,0x10,0x40,0x00,0x00,0x3c,0x00,0x50,0x40,0x51,0x00,
0x3c,0x51,0x10,0x49,0x00,0x00,0x44,0x00,0x50,0x3f,0x51,0x00,0x3d,0x51,0x10,0x40,
0x00,0x00,0x3c,0x00,0x50,0x48,0x51,0x00,0x3a,0x51,0x10,0x3f,0x00,0x00,0x3d,0x00,
0x60,0x48,0x00,0x00,0x3a,0x00,0x50,0x48,0x51,0x00,0x3c,0x51,0x60,0x49,0x51,0x00,
0x44,0x51,0x10,0x3c,0x00,0x00,0x48,0x00,0x50,0x40,0x51,0x00,0x3c,0x51,0x10,0x49,
0x00,0x00,0x44,0x00,0x50,0x49,0x51,0x00,0x44,0x51,0x10,0x40,0x00,0x00,0x3c,0x00,
0x82,0x10,0x40,0x51,0x00,0x3c,0x51,0x10,0x49,0x00,0x00,0x44,0x00,0x50,0x49,0x51,
0x00,0x44,0x51,0x10,0x40,0x00,0x00,0x3c,0x00,0x38,0x49,0x00,0x00,0x44,0x00,0x18,
0x40,0x51,0x00,0x3c,0x51,0x48,0x3c,0x00,0x00,0x40,0x00,0x18,0x49,0x51,0x00,0x44,
0x51,0x60,0x40,0x51,0x00,0x3c,0x51,0x10,0x44,0x00,0x00,0x49,0x00,0x50,0x49,0x51,
0x00,0x44,0x51,0x10,0x40,0x00,0x00,0x3c,0x00,0x50,0x40,0x51,0x00,0x3c,0x51,0x10,
0x49,0x00,0x00,0x44,0x00,0x50,0x3f,0x51,0x00,0x3d,0x51,0x10,0x40,0x00,0x00,0x3c,
0x00,0x50,0x48,0x51,0x00,0x3a,0x51,0x10,0x3f,0x00,0x00,0x3d,0x00,0x60,0x48,0x00,
0x00,0x3a,0x00,0x50,0x48,0x51,0x00,0x3c,0x51,0x60,0x49,0x51,0x00,0x44,0x51,0x10,
0x3c,0x00,0x00,0x48,0x00,0x50,0x40,0x51,0x00,0x3c,0x51,0x10,0x49,0x00,0x00,0x44,
0x00,0x50,0x49,0x51,0x00,0x44,0x51,0x10,0x40,0x00,0x00,0x3c,0x00,0x82,0x10,0x40,
0x51,0x00,0x3c,0x51,0x10,0x49,0x00,0x00,0x44,0x00,0x50,0x49,0x51,0x00,0x44,0x51,
0x10,0x40,0x00,0x00,0x3c,0x00,0x38,0x49,0x00,0x00,0x44,0x00,0x18,0x40,0x51,0x00,
0x3c,0x51,0x48,0x3c,0x00,0x00,0x40,0x00,0x18,0x49,0x51,0x00,0x44,0x51,0x60,0x40,
0x51,0x00,0x3c,0x51,0x10,0x44,0x00,0x00,0x49,0x00,0x50,0x49,0x51,0x00,0x44,0x51,
0x10,0x40,0x00,0x00,0x3c,0x00,0x50,0x40,0x51,0x00,0x3c,0x51,0x10,0x49,0x00,0x00,
0x44,0x00,0x50,0x3f,0x51,0x00,0x3d,0x51,0x10,0x40,0x00,0x00,0x3c,0x00,0x50,0x48,
0x51,0x00,0x3a,0x51,0x10,0x3f,0x00,0x00,0x3d,0x00,0x60,0x48,0x00,0x00,0x3a,0x00,
0x50,0x3d,0x51,0x00,0x38,0x51,0x48,0x38,0x00,0x00,0x3d,0x00,0x81,0x58,0x42,0x51,
0x00,0x3a,0x51,0x60,0x44,0x51,0x00,0x46,0x51,0x00,0x3d,0x51,0x10,0x3a,0x00,0x00,
0x42,0x00,0x60,0x46,0x00,0x00,0x44,0x00,0x00,0x3d,0x00,0x81,0x30,0x43,0x51,0x00,
0x3c,0x51,0x60,0x48,0x51,0x00,0x40,0x51,0x10,0x3c,0x00,0x00,0x43,0x00,0x50,0x49,
0x51,0x00,0x41,0x51,0x10,0x48,0x00,0x00,0x40,0x00,0x38,0x49,0x00,0x00,0x41,0x00,
0x18,0x38,0x51,0x00,0x3d,0x51,0x00,0x35,0x51,0x48,0x35,0x00,0x00,0x3d,0x00,0x00,
0x38,0x00,0x78,0x37,0x51,0x00,0x3c,0x51,0x00,0x34,0x51,0x60,0x38,0x51,0x00,0x3d,
0x51,0x00,0x35,0x51,0x10,0x34,0x00,0x00,0x37,0x00,0x00,0x3c,0x00,0x81,0x40,0x38,
0x00,0x00,0x3d,0x00,0x00,0x35,0x00,0xb1,0x30,0x41,0x51,0x00,0x45,0x51,0x00,0x3e,
0x51,0x48,0x3e,0x00,0x00,0x45,0x00,0x00,0x41,0x00,0x78,0x45,0x51,0x00,0x4a,0x51,
0x00,0x41,0x51,0x48,0x41,0x00,0x00,0x4a,0x00,0x00,0x45,0x00,0x78,0x41,0x51,0x00,
0x45,0x51,0x00,0x3e,0x51,0x48,0x3e,0x00,0x00,0x45,0x00,0x00,0x41,0x00,0x78,0x45,
0x51,0x00,0x4a,0x51,0x00,0x41,0x51,0x48,0x41,0x00,0x00,0x4a,0x00,0x00,0x45,0x00,
0x78,0x41,0x51,0x00,0x45,0x51,0x00,0x3e,0x51,0x60,0x45,0x51,0x00,0x4a,0x51,0x00,
0x41,0x51,0x00,0x45,0x00,0x00,0x41,0x00,0x10,0x3e,0x00,0x00,0x45,0x00,0x00,0x41,
0x00,0x60,0x4a,0x00,0x50,0x41,0x51,0x00,0x45,0x51,0x00,0x3e,0x51,0x81,0x40,0x44,
0x51,0x00,0x40,0x51,0x10,0x3e,0x00,0x00,0x41,0x00,0x00,0x45,0x00,0x50,0x41,0x51,
0x00,0x45,0x51,0x00,0x3e,0x51,0x10,0x44,0x00,0x00,0x40,0x00,0x60,0x45,0x00,0x00,
0x41,0x00,0x00,0x3e,0x00,0x50,0x41,0x3f,0x00,0x45,0x3f,0x00,0x3e,0x3f,0x60,0x40,
0x3f,0x00,0x44,0x3f,0x00,0x3d,0x3f,0x10,0x3e,0x00,0x00,0x41,0x00,0x00,0x45,0x00,
0x50,0x41,0x3f,0x00,0x45,0x3f,0x00,0x3e,0x3f,0x10,0x40,0x00,0x00,0x3d,0x00,0x00,
0x44,0x00,0x50,0x40,0x3f,0x00,0x43,0x3f,0x00,0x3c,0x3f,0x10,0x41,0x00,0x00,0x3e,
0x00,0x00,0x45,0x00,0x60,0x40,0x00,0x00,0x43,0x00,0x00,0x3c,0x00,0x50,0x3f,0x3f,
0x00,0x42,0x3f,0x00,0x3b,0x3f,0x60,0x40,0x3f,0x00,0x43,0x3f,0x00,0x3c,0x3f,0x10,
0x3b,0x00,0x00,0x3f,0x00,0x00,0x42,0x00,0x50,0x3d,0x3f,0x00,0x41,0x3f,0x00,0x3a,
0x3f,0x10,0x40,0x00,0x00,0x3c,0x00,0x00,0x43,0x00,0x38,0x3d,0x00,0x00,0x41,0x00,
0x00,0x3a,0x00,0x18,0x3c,0x3f,0x00,0x41,0x3f,0x00,0x39,0x3f,0x82,0x08,0x39,0x00,
0x00,0x41,0x00,0x00,0x3c,0x00,0x18,0x39,0x3f,0x00,0x3e,0x3f,0x00,0x35,0x3f,0x83,
0x48,0x35,0x00,0x00,0x3e,0x00,0x00,0x39,0x00,0x18,0x41,0x2f,0x00,0x45,0x2f,0x00,
0x3e,0x2f,0x48,0x3e,0x00,0x00,0x45,0x00,0x00,0x41,0x00,0x78,0x45,0x2f,0x00,0x4a,
0x2f,0x00,0x41,0x2f,0x48,0x41,0x00,0x00,0x4a,0x00,0x00,0x45,0x00,0x78,0x41,0x2f,
0x00,0x45,0x2f,0x00,0x3e,0x2f,0x48,0x3e,0x00,0x00,0x45,0x00,0x00,0x41,0x00,0x78,
0x45,0x2f,0x00,0x4a,0x2f,0x00,0x41,0x2f,0x48,0x41,0x00,0x00,0x4a,0x00,0x00,0x45,
0x00,0x78,0x41,0x2f,0x00,0x45,0x2f,0x00,0x3e,0x2f,0x60,0x45,0x2f,0x00,0x4a,0x2f,
0x00,0x41,0x2f,0x00,0x45,0x00,0x00,0x41,0x00,0x10,0x3e,0x00,0x00,0x45,0x00,0x00,
0x41,0x00,0x60,0x4a,0x00,0x50,0x41,0x2f,0x00,0x45,0x2f,0x00,0x3e,0x2f,0x81,0x40,
0x44,0x2f,0x00,0x40,0x2f,0x10,0x3e,0x00,0x00,0x41,0x00,0x00,0x45,0x00,0x50,0x41,
0x2f,0x00,0x45,0x2f,0x00,0x3e,0x2f,0x10,0x44,0x00,0x00,0x40,0x00,0x60,0x45,0x00,
0x00,0x41,0x00,0x00,0x3e,0x00,0x50,0x3e,0x2f,0x00,0x43,0x2f,0x00,0x3b,0x2f,0x48,
0x3b,0x00,0x00,0x43,0x00,0x00,0x3e,0x00,0x78,0x3e,0x2f,0x00,0x43,0x2f,0x00,0x3b,
0x2f,0x82,0x20,0x3d,0x2f,0x00,0x42,0x2f,0x00,0x3a,0x2f,0x10,0x3b,0x00,0x00,0x3e,
0x00,0x00,0x43,0x00,0x50,0x3e,0x2f,0x00,0x43,0x2f,0x00,0x3b,0x2f,0x10,0x3d,0x00,
0x00,0x3a,0x00,0x00,0x42,0x00,0x60,0x3e,0x00,0x00,0x43,0x00,0x00,0x3b,0x00,0x50,
0x43,0x2f,0x00,0x48,0x2f,0x00,0x40,0x2f,0x48,0x40,0x00,0x00,0x48,0x00,0x00,0x43,
0x00,0x18,0x41,0x2f,0x00,0x46,0x2f,0x00,0x3e,0x2f,0x81,0x28,0x3e,0x00,0x00,0x46,
0x00,0x00,0x41,0x00,0x18,0x40,0x2f,0x00,0x45,0x2f,0x00,0x3c,0x2f,0x81,0x28,0x3c,
0x00,0x00,0x45,0x00,0x00,0x40,0x00,0x18,0x3e,0x2f,0x00,0x43,0x2f,0x00,0x3a,0x2f,
0x82,0x08,0x3a,0x00,0x00,0x43,0x00,0x00,0x3e,0x00,0x18,0x41,0x1f,0x00,0x45,0x1f,
0x00,0x3e,0x1f,0x48,0x3e,0x00,0x00,0x45,0x00,0x00,0x41,0x00,0x78,0x45,0x1f,0x00,
0x4a,0x1f,0x00,0x41,0x1f,0x48,0x41,0x00,0x00,0x4a,0x00,0x00,0x45,0x00,0x78,0x41,
0x1f,0x00,0x45,0x1f,0x00,0x3e,0x1f,0x48,0x3e,0x00,0x00,0x45,0x00,0x00,0x41,0x00,
0x78,0x45,0x1f,0x00,0x4a,0x1f,0x00,0x41,0x1f,0x48,0x41,0x00,0x00,0x4a,0x00,0x00,
0x45,0x00,0x78,0x41,0x1f,0x00,0x45,0x1f,0x00,0x3e,0x1f,0x60,0x45,0x1f,0x00,0x4a,
0x1f,0x00,0x41,0x1f,0x00,0x45,0x00,0x00,0x41,0x00,0x10,0x3e,0x00,0x00,0x45,0x00,
0x00,0x41,0x00,0x60,0x4a,0x00,0x50,0x41,0x1f,0x00,0x45,0x1f,0x00,0x3e,0x1f,0x81,
0x40,0x44,0x1f,0x00,0x40,0x1f,0x10,0x3e,0x00,0x00,0x41,0x00,0x00,0x45,0x00,0x50,
0x41,0x1f,0x00,0x45,0x1f,0x00,0x3e,0x1f,0x10,0x44,0x00,0x00,0x40,0x00,0x60,0x45,
0x00,0x00,0x41,0x00,0x00,0x3e,0x00,0x50,0x43,0x1f,0x00,0x48,0x1f,0x00,0x40,0x1f,
0x48,0x40,0x00,0x00,0x48,0x00,0x00,0x43,0x00,0x78,0x48,0x1f,0x00,0x43,0x1f,0x82,
0x20,0x40,0x1f,0x00,0x45,0x1f,0x00,0x3c,0x1f,0x10,0x43,0x00,0x00,0x48,0x00,0x50,
0x43,0x1f,0x00,0x3a,0x1f,0x10,0x45,0x00,0x00,0x3c,0x00,0x00,0x40,0x00,0x60,0x43,
0x00,0x00,0x3a,0x00,0x50,0x3c,0x1f,0x00,0x41,0x1f,0x00,0x38,0x1f,0x82,0x08,0x38,
0x00,0x00,0x41,0x00,0x00,0x3c,0x00,0x18,0x38,0x13,0x00,0x3e,0x13,0x00,0x35,0x13,
0x83,0x48,0x35,0x00,0x00,0x3e,0x00,0x00,0x38,0x00,0x18,0x3a,0x13,0x00,0x3e,0x13,
0x00,0x37,0x13,0x82,0x68,0x37,0x00,0x00,0x3e,0x00,0x00,0x3a,0x00,0x18,0x3e,0x13,
0x00,0x41,0x13,0x00,0x3a,0x13,0x82,0x68,0x3a,0x00,0x00,0x41,0x00,0x00,0x3e,0x00,
0x18,0x41,0x13,0x00,0x45,0x13,0x00,0x3c,0x13,0x82,0x68,0x3c,0x00,0x00,0x45,0x00,
0x00,0x41,0x00,0x18,0x45,0x0a,0x00,0x48,0x0a,0x00,0x42,0x0a,0x82,0x68,0x42,0x00,
0x00,0x48,0x00,0x00,0x45,0x00,0x18,0x46,0x0a,0x00,0x4b,0x0a,0x00,0x43,0x0a,0x48,
0x43,0x00,0x00,0x4b,0x00,0x00,0x46,0x00,0x78,0x4a,0x0a,0x00,0x42,0x0a,0x48,0x42,
0x00,0x00,0x4a,0x00,0x78,0x40,0x0a,0x00,0x44,0x0a,0x00,0x3b,0x0a,0x60,0x3c,0x0a,
0x00,0x45,0x0a,0x00,0x3a,0x0a,0x10,0x3b,0x00,0x00,0x40,0x00,0x00,0x44,0x00,0x60,
0x3c,0x00,0x00,0x45,0x00,0x00,0x3a,0x00,0x50,0x3c,0x0a,0x00,0x41,0x0a,0x00,0x39,
0x0a,0x81,0x28,0x39,0x00,0x00,0x41,0x00,0x00,0x3c,0x00,0x82,0x38,0x48,0x0a,0x00,
0x4d,0x0a,0x00,0x45,0x0a,0x82,0x08,0x45,0x00,0x00,0x4d,0x00,0x00,0x48,0x00,0x00,
0xff,0x2f,0x00,0x4d,0x54,0x72,0x6b,0x00,0x00,0x05,0x37,0x00,0xff,0x03,0x09,0x54,
0x72,0x75,0x6d,0x70,0x65,0x74,0x20,0x31,0x00,0xff,0x04,0x0b,0x43,0x68,0x20,0x20,
0x33,0x20,0x4d,0x54,0x2d,0x33,0x32,0x00,0xc2,0x58,0x81,0xf3,0x00,0x92,0x3e,0x3f,
0x85,0x68,0x3e,0x00,0x18,0x3d,0x3f,0x81,0x28,0x3d,0x00,0x84,0x58,0x3e,0x3f,0x85,
0x68,0x3e,0x00,0x18,0x3d,0x3f,0x81,0x28,0x3d,0x00,0x84,0x58,0x3e,0x3f,0x85,0x68,
0x3e,0x00,0x18,0x3d,0x3f,0x81,0x28,0x3d,0x00,0x83,0x18,0x3e,0x3f,0x81,0x28,0x3e,
0x00,0x18,0x3e,0x3f,0x48,0x3e,0x00,0x18,0x3e,0x3f,0x81,0x28,0x3e,0x00,0x18,0x3e,
0x3f,0x82,0x08,0x3e,0x00,0x81,0xf7,0x58,0x3e,0x3f,0x85,0x68,0x3e,0x00,0x18,0x3d,
0x3f,0x81,0x28,0x3d,0x00,0x84,0x58,0x3e,0x3f,0x85,0x68,0x3e,0x00,0x18,0x3d,0x3f,
0x81,0x28,0x3d,0x00,0x84,0x58,0x3e,0x3f,0x85,0x68,0x3e,0x00,0x18,0x3d,0x3f,0x81,
0x28,0x3d,0x00,0x83,0x18,0x3e,0x3f,0x81,0x28,0x3e,0x00,0x18,0x3e,0x3f,0x48,0x3e,
0x00,0x18,0x3e,0x3f,0x81,0x28,0x3e,0x00,0x18,0x3e,0x3f,0x82,0x08,0x3e,0x00,0x84,
0x58,0x48,0x69,0x81,0x28,0x48,0x00,0x81,0x58,0x4c,0x69,0x81,0x28,0x4c,0x00,0x81,
0x58,0x4f,0x69,0x81,0x28,0x4f,0x00,0x18,0x4f,0x69,0x48,0x4f,0x00,0x18,0x4f,0x69,
0x48,0x4f,0x00,0x18,0x4f,0x69,0x81,0x28,0x4f,0x00,0x18,0x4c,0x69,0x48,0x4c,0x00,
0x18,0x48,0x69,0x48,0x48,0x00,0x18,0x4d,0x69,0x81,0x28,0x4d,0x00,0x18,0x4d,0x69,
0x81,0x28,0x4d,0x00,0x18,0x4d,0x69,0x48,0x4d,0x00,0x18,0x4f,0x69,0x81,0x28,0x4f,
0x00,0x18,0x51,0x69,0x85,0x08,0x51,0x00,0x81,0x58,0x4c,0x69,0x81,0x28,0x4c,0x00,
0x18,0x4c,0x69,0x81,0x28,0x4c,0x00,0x18,0x4f,0x69,0x48,0x4f,0x00,0x18,0x4f,0x69,
0x81,0x28,0x4f,0x00,0x18,0x48,0x69,0x81,0x28,0x48,0x00,0x18,0x4c,0x69,0x81,0x28,
0x4c,0x00,0x18,0x48,0x69,0x48,0x48,0x00,0x18,0x4c,0x69,0x81,0x28,0x4c,0x00,0x18,
0x4f,0x69,0x81,0x28,0x4f,0x00,0x18,0x4d,0x69,0x81,0x28,0x4d,0x00,0x18,0x4d,0x69,
0x81,0x28,0x4d,0x00,0x18,0x4d,0x69,0x48,0x4d,0x00,0x18,0x4f,0x69,0x81,0x28,0x4f,
0x00,0x18,0x51,0x69,0x85,0x08,0x51,0x00,0x81,0x58,0x52,0x69,0x81,0x28,0x52,0x00,
0x18,0x52,0x69,0x81,0x28,0x52,0x00,0x18,0x55,0x69,0x81,0x28,0x55,0x00,0x18,0x52,
0x69,0x48,0x52,0x00,0x18,0x54,0x69,0x81,0x28,0x54,0x00,0x18,0x54,0x69,0x48,0x54,
0x00,0x18,0x52,0x69,0x81,0x28,0x52,0x00,0x18,0x54,0x69,0x81,0x28,0x54,0x00,0x18,
0x52,0x69,0x81,0x28,0x52,0x00,0x18,0x4d,0x69,0x81,0x28,0x4d,0x00,0x18,0x4d,0x69,
0x81,0x28,0x4d,0x00,0x18,0x4d,0x69,0x48,0x4d,0x00,0x18,0x51,0x69,0x81,0x28,0x51,
0x00,0x18,0x56,0x69,0x85,0x08,0x56,0x00,0x82,0x38,0x46,0x69,0x48,0x46,0x00,0x78,
0x4a,0x69,0x48,0x4a,0x00,0x18,0x4f,0x69,0x81,0x28,0x4f,0x00,0x18,0x4f,0x69,0x81,
0x28,0x4f,0x00,0x78,0x4c,0x69,0x48,0x4c,0x00,0x78,0x4c,0x69,0x48,0x4c,0x00,0x18,
0x4c,0x69,0x81,0x28,0x4c,0x00,0x18,0x4c,0x69,0x48,0x4c,0x00,0x18,0x48,0x69,0x48,
0x48,0x00,0x18,0x4d,0x69,0x00,0x45,0x69,0x81,0x28,0x45,0x00,0x00,0x4d,0x00,0x18,
0x4d,0x69,0x00,0x45,0x69,0x81,0x28,0x45,0x00,0x00,0x4d,0x00,0x18,0x4d,0x69,0x00,
0x45,0x69,0x48,0x45,0x00,0x00,0x4d,0x00,0x18,0x4d,0x69,0x00,0x45,0x69,0x81,0x28,
0x45,0x00,0x00,0x4d,0x00,0x18,0x4d,0x69,0x00,0x45,0x69,0x81,0x28,0x45,0x00,0x00,
0x4d,0x00,0x18,0x4d,0x69,0x00,0x45,0x69,0x81,0x28,0x45,0x00,0x00,0x4d,0x00,0x18,
0x4d,0x69,0x00,0x45,0x69,0x48,0x45,0x00,0x00,0x4d,0x00,0x18,0x4d,0x69,0x00,0x45,
0x69,0x81,0x28,0x45,0x00,0x00,0x4d,0x00,0x18,0x4c,0x69,0x48,0x4c,0x00,0x18,0x4a,
0x69,0x48,0x4a,0x00,0x18,0x48,0x69,0x81,0x28,0x48,0x00,0x81,0x58,0x4c,0x69,0x81,
0x28,0x4c,0x00,0x81,0x58,0x4f,0x69,0x81,0x28,0x4f,0x00,0x18,0x4f,0x69,0x48,0x4f,
0x00,0x18,0x4f,0x69,0x48,0x4f,0x00,0x18,0x4f,0x69,0x81,0x28,0x4f,0x00,0x18,0x4c,
0x69,0x48,0x4c,0x00,0x18,0x48,0x69,0x48,0x48,0x00,0x18,0x4d,0x69,0x81,0x28,0x4d,
0x00,0x18,0x4d,0x69,0x81,0x28,0x4d,0x00,0x18,0x4d,0x69,0x48,0x4d,0x00,0x18,0x4f,
0x69,0x81,0x28,0x4f,0x00,0x18,0x51,0x69,0x85,0x08,0x51,0x00,0x81,0x58,0x4c,0x69,
0x81,0x28,0x4c,0x00,0x18,0x4c,0x69,0x81,0x28,0x4c,0x00,0x18,0x4f,0x69,0x48,0x4f,
0x00,0x18,0x4f,0x69,0x81,0x28,0x4f,0x00,0x18,0x48,0x69,0x81,0x28,0x48,0x00,0x18,
0x4c,0x69,0x81,0x28,0x4c,0x00,0x18,0x48,0x69,0x48,0x48,0x00,0x18,0x4c,0x69,0x81,
0x28,0x4c,0x00,0x18,0x4f,0x69,0x81,0x28,0x4f,0x00,0x18,0x4d,0x69,0x81,0x28,0x4d,
0x00,0x18,0x4d,0x69,0x81,0x28,0x4d,0x00,0x18,0x4d,0x69,0x48,0x4d,0x00,0x18,0x4f,
0x69,0x81,0x28,0x4f,0x00,0x18,0x51,0x69,0x85,0x08,0x51,0x00,0x81,0x58,0x52,0x69,
0x81,0x28,0x52,0x00,0x18,0x52,0x69,0x81,0x28,0x52,0x00,0x18,0x52,0x69,0x81,0x28,
0x52,0x00,0x18,0x52,0x69,0x48,0x52,0x00,0x18,0x54,0x69,0x81,0x28,0x54,0x00,0x18,
0x54,0x69,0x48,0x54,0x00,0x18,0x52,0x69,0x81,0x28,0x52,0x00,0x18,0x55,0x69,0x81,
0x28,0x55,0x00,0x18,0x52,0x69,0x81,0x28,0x52,0x00,0x18,0x4d,0x69,0x81,0x28,0x4d,
0x00,0x18,0x4d,0x69,0x81,0x28,0x4d,0x00,0x18,0x4d,0x69,0x48,0x4d,0x00,0x18,0x51,
0x69,0x81,0x28,0x51,0x00,0x18,0x56,0x69,0x85,0x08,0x56,0x00,0x82,0x38,0x46,0x69,
0x48,0x46,0x00,0x78,0x4a,0x69,0x48,0x4a,0x00,0x18,0x4a,0x69,0x81,0x28,0x4a,0x00,
0x18,0x4f,0x69,0x81,0x28,0x4f,0x00,0x78,0x4c,0x69,0x48,0x4c,0x00,0x78,0x4c,0x69,
0x48,0x4c,0x00,0x18,0x4c,0x69,0x81,0x28,0x4c,0x00,0x18,0x4c,0x69,0x48,0x4c,0x00,
0x18,0x48,0x69,0x48,0x48,0x00,0x18,0x4d,0x69,0x48,0x4d,0x00,0x18,0x4d,0x69,0x81,
0x28,0x4d,0x00,0x18,0x4d,0x69,0x48,0x4d,0x00,0x18,0x4d,0x69,0x48,0x4d,0x00,0x18,
0x4d,0x69,0x81,0x28,0x4d,0x00,0x18,0x4d,0x69,0x48,0x4d,0x00,0x18,0x4d,0x69,0x81,
0x28,0x4d,0x00,0xd8,0x58,0x43,0x69,0x00,0x48,0x69,0x00,0x40,0x69,0x48,0x40,0x00,
0x00,0x48,0x00,0x00,0x43,0x00,0x18,0x43,0x69,0x00,0x48,0x69,0x00,0x40,0x69,0x48,
0x40,0x00,0x00,0x48,0x00,0x00,0x43,0x00,0x81,0x58,0x43,0x69,0x00,0x48,0x69,0x00,
0x40,0x69,0x48,0x40,0x00,0x00,0x48,0x00,0x00,0x43,0x00,0x18,0x43,0x69,0x00,0x48,
0x69,0x00,0x40,0x69,0x48,0x40,0x00,0x00,0x48,0x00,0x00,0x43,0x00,0x81,0x58,0x45,
0x69,0x00,0x48,0x69,0x00,0x41,0x69,0x48,0x41,0x00,0x00,0x48,0x00,0x00,0x45,0x00,
0x18,0x45,0x69,0x00,0x48,0x69,0x00,0x41,0x69,0x48,0x41,0x00,0x00,0x48,0x00,0x00,
0x45,0x00,0x81,0x58,0x45,0x69,0x00,0x48,0x69,0x00,0x41,0x69,0x48,0x41,0x00,0x00,
0x48,0x00,0x00,0x45,0x00,0x18,0x45,0x69,0x00,0x48,0x69,0x00,0x41,0x69,0x48,0x41,
0x00,0x00,0x48,0x00,0x00,0x45,0x00,0x81,0x58,0x43,0x69,0x00,0x48,0x69,0x00,0x40,
0x69,0x48,0x40,0x00,0x00,0x48,0x00,0x00,0x43,0x00,0x8b,0x38,0x43,0x69,0x00,0x48,
0x69,0x00,0x40,0x69,0x48,0x40,0x00,0x00,0x48,0x00,0x00,0x43,0x00,0x18,0x43,0x69,
0x00,0x48,0x69,0x00,0x40,0x69,0x48,0x40,0x00,0x00,0x48,0x00,0x00,0x43,0x00,0x81,
0x58,0x43,0x69,0x00,0x48,0x69,0x00,0x40,0x69,0x48,0x40,0x00,0x00,0x48,0x00,0x00,
0x43,0x00,0x18,0x43,0x69,0x00,0x48,0x69,0x00,0x40,0x69,0x48,0x40,0x00,0x00,0x48,
0x00,0x00,0x43,0x00,0x81,0x58,0x45,0x69,0x00,0x48,0x69,0x00,0x41,0x69,0x48,0x41,
0x00,0x00,0x48,0x00,0x00,0x45,0x00,0x18,0x45,0x69,0x00,0x48,0x69,0x00,0x41,0x69,
0x48,0x41,0x00,0x00,0x48,0x00,0x00,0x45,0x00,0x81,0x58,0x45,0x69,0x00,0x48,0x69,
0x00,0x41,0x69,0x48,0x41,0x00,0x00,0x48,0x00,0x00,0x45,0x00,0x18,0x45,0x69,0x00,
0x48,0x69,0x00,0x41,0x69,0x48,0x41,0x00,0x00,0x48,0x00,0x00,0x45,0x00,0x00,0xff,
0x2f,0x00,0x4d,0x54,0x72,0x6b,0x00,0x00,0x07,0x93,0x00,0xff,0x03,0x0a,0x53,0x63,
0x68,0x6f,0x6f,0x6c,0x64,0x61,0x7a,0x65,0x00,0xff,0x04,0x0b,0x43,0x68,0x20,0x20,
0x34,0x20,0x4d,0x54,0x2d,0x33,0x32,0x00,0xc3,0x2d,0x00,0x93,0x45,0x3f,0x48,0x45,
0x00,0x78,0x4a,0x3f,0x48,0x4a,0x00,0x78,0x45,0x3f,0x48,0x45,0x00,0x78,0x4a,0x3f,
0x48,0x4a,0x00,0x78,0x45,0x3f,0x60,0x4a,0x3f,0x10,0x45,0x00,0x60,0x4a,0x00,0x50,
0x45,0x3f,0x81,0x40,0x44,0x3f,0x00,0x3e,0x3f,0x10,0x45,0x00,0x50,0x45,0x3f,0x10,
0x3e,0x00,0x00,0x44,0x00,0x60,0x45,0x00,0x50,0x45,0x3f,0x60,0x44,0x3f,0x10,0x45,
0x00,0x50,0x45,0x3f,0x10,0x44,0x00,0x50,0x43,0x3f,0x10,0x45,0x00,0x60,0x43,0x00,
0x50,0x42,0x3f,0x60,0x43,0x3f,0x10,0x42,0x00,0x50,0x41,0x3f,0x10,0x43,0x00,0x38,
0x41,0x00,0x18,0x41,0x3f,0x82,0x08,0x41,0x00,0x18,0x3e,0x3f,0x83,0x48,0x3e,0x00,
0x18,0x45,0x3f,0x48,0x45,0x00,0x78,0x4a,0x3f,0x48,0x4a,0x00,0x78,0x45,0x3f,0x48,
0x45,0x00,0x78,0x4a,0x3f,0x48,0x4a,0x00,0x78,0x45,0x3f,0x60,0x4a,0x3f,0x10,0x45,
0x00,0x60,0x4a,0x00,0x50,0x45,0x3f,0x81,0x40,0x44,0x3f,0x00,0x3e,0x3f,0x10,0x45,
0x00,0x50,0x45,0x3f,0x10,0x3e,0x00,0x00,0x44,0x00,0x60,0x45,0x00,0x50,0x43,0x3f,
0x48,0x43,0x00,0x78,0x43,0x3f,0x82,0x20,0x42,0x3f,0x10,0x43,0x00,0x50,0x3e,0x3f,
0x00,0x43,0x3f,0x00,0x3b,0x3f,0x10,0x42,0x00,0x60,0x3e,0x00,0x00,0x43,0x00,0x00,
0x3b,0x00,0x50,0x48,0x3f,0x48,0x48,0x00,0x18,0x46,0x3f,0x81,0x28,0x46,0x00,0x18,
0x45,0x3f,0x81,0x28,0x45,0x00,0x18,0x43,0x3f,0x82,0x08,0x43,0x00,0x18,0x45,0x3f,
0x48,0x45,0x00,0x78,0x4a,0x3f,0x48,0x4a,0x00,0x78,0x45,0x3f,0x48,0x45,0x00,0x78,
0x4a,0x3f,0x48,0x4a,0x00,0x78,0x45,0x3f,0x60,0x4a,0x3f,0x10,0x45,0x00,0x60,0x4a,
0x00,0x50,0x45,0x3f,0x81,0x40,0x44,0x3f,0x00,0x3e,0x3f,0x10,0x45,0x00,0x50,0x45,
0x3f,0x10,0x3e,0x00,0x00,0x44,0x00,0x60,0x45,0x00,0x50,0x48,0x3f,0x48,0x48,0x00,
0x78,0x48,0x3f,0x00,0x40,0x3f,0x82,0x20,0x45,0x3f,0x10,0x40,0x00,0x00,0x48,0x00,
0x50,0x43,0x3f,0x00,0x40,0x3f,0x10,0x45,0x00,0x60,0x40,0x00,0x00,0x43,0x00,0x50,
0x41,0x3f,0x82,0x08,0x41,0x00,0x18,0x3e,0x3f,0x83,0x48,0x3e,0x00,0x18,0x3e,0x3f,
0x82,0x68,0x3e,0x00,0x18,0x41,0x3f,0x82,0x68,0x41,0x00,0x18,0x45,0x3f,0x82,0x68,
0x45,0x00,0x18,0x48,0x3f,0x82,0x68,0x48,0x00,0x18,0x4b,0x3f,0x48,0x4b,0x00,0x78,
0x4a,0x3f,0x48,0x4a,0x00,0x78,0x44,0x3f,0x60,0x45,0x3f,0x10,0x44,0x00,0x60,0x45,
0x00,0x50,0x41,0x3f,0x48,0x41,0x00,0x86,0x78,0x45,0x3f,0x48,0x45,0x00,0x78,0x41,
0x3f,0x48,0x41,0x00,0x18,0x45,0x3f,0x48,0x45,0x00,0x83,0x18,0x45,0x3f,0x48,0x45,
0x00,0x78,0x41,0x3f,0x48,0x41,0x00,0x18,0x45,0x3f,0x48,0x45,0x00,0x83,0x18,0x45,
0x3f,0x48,0x45,0x00,0x78,0x41,0x3f,0x60,0x44,0x3f,0x10,0x41,0x00,0x50,0x45,0x3f,
0x10,0x44,0x00,0x60,0x45,0x00,0x50,0x41,0x3f,0x82,0x68,0x41,0x00,0x18,0x3e,0x3f,
0x83,0x48,0x3e,0x00,0x78,0x45,0x3f,0x48,0x45,0x00,0x78,0x41,0x3f,0x48,0x41,0x00,
0x18,0x45,0x3f,0x48,0x45,0x00,0x83,0x18,0x45,0x3f,0x48,0x45,0x00,0x78,0x41,0x3f,
0x48,0x41,0x00,0x18,0x45,0x3f,0x48,0x45,0x00,0x83,0x18,0x45,0x3f,0x48,0x45,0x00,
0x78,0x41,0x3f,0x60,0x44,0x3f,0x10,0x41,0x00,0x50,0x45,0x3f,0x10,0x44,0x00,0x60,
0x45,0x00,0x50,0x43,0x3f,0x83,0x48,0x43,0x00,0x18,0x3c,0x3f,0x82,0x68,0x3c,0x00,
0x78,0x45,0x3f,0x48,0x45,0x00,0x78,0x41,0x3f,0x48,0x41,0x00,0x18,0x45,0x3f,0x48,
0x45,0x00,0x83,0x18,0x45,0x3f,0x48,0x45,0x00,0x78,0x41,0x3f,0x48,0x41,0x00,0x18,
0x45,0x3f,0x48,0x45,0x00,0x83,0x18,0x45,0x3f,0x48,0x45,0x00,0x78,0x41,0x3f,0x60,
0x44,0x3f,0x10,0x41,0x00,0x50,0x45,0x3f,0x10,0x44,0x00,0x60,0x45,0x00,0x50,0x41,
0x3f,0x82,0x68,0x41,0x00,0x18,0x3e,0x3f,0x83,0x48,0x3e,0x00,0x18,0x3a,0x51,0x60,
0x3e,0x51,0x10,0x3a,0x00,0x50,0x41,0x51,0x10,0x3e,0x00,0x60,0x41,0x00,0x50,0x3b,
0x51,0x60,0x3e,0x51,0x10,0x3b,0x00,0x50,0x41,0x51,0x10,0x3e,0x00,0x60,0x41,0x00,
0x50,0x44,0x51,0x60,0x45,0x51,0x10,0x44,0x00,0x60,0x45,0x00,0x50,0x3e,0x51,0x83,
0x48,0x3e,0x00,0x18,0x3e,0x51,0x60,0x41,0x51,0x10,0x3e,0x00,0x50,0x46,0x51,0x10,
0x41,0x00,0x50,0x4a,0x51,0x10,0x46,0x00,0x50,0x44,0x51,0x10,0x4a,0x00,0x50,0x45,
0x51,0x10,0x44,0x00,0x60,0x45,0x00,0x50,0x41,0x51,0x85,0x08,0x41,0x00,0xe1,0x58,
0x45,0x3f,0x48,0x45,0x00,0x78,0x4a,0x3f,0x48,0x4a,0x00,0x78,0x45,0x3f,0x48,0x45,
0x00,0x78,0x4a,0x3f,0x48,0x4a,0x00,0x78,0x45,0x3f,0x60,0x4a,0x3f,0x10,0x45,0x00,
0x60,0x4a,0x00,0x50,0x45,0x3f,0x81,0x40,0x44,0x3f,0x00,0x3e,0x3f,0x10,0x45,0x00,
0x50,0x45,0x3f,0x10,0x3e,0x00,0x00,0x44,0x00,0x60,0x45,0x00,0x50,0x45,0x3f,0x60,
0x44,0x3f,0x10,0x45,0x00,0x50,0x45,0x3f,0x10,0x44,0x00,0x50,0x43,0x3f,0x10,0x45,
0x00,0x60,0x43,0x00,0x50,0x42,0x3f,0x60,0x43,0x3f,0x10,0x42,0x00,0x50,0x41,0x3f,
0x10,0x43,0x00,0x38,0x41,0x00,0x18,0x41,0x3f,0x82,0x08,0x41,0x00,0x18,0x3e,0x3f,
0x83,0x48,0x3e,0x00,0x18,0x45,0x3f,0x48,0x45,0x00,0x78,0x4a,0x3f,0x48,0x4a,0x00,
0x78,0x45,0x3f,0x48,0x45,0x00,0x78,0x4a,0x3f,0x48,0x4a,0x00,0x78,0x45,0x3f,0x60,
0x4a,0x3f,0x10,0x45,0x00,0x60,0x4a,0x00,0x50,0x45,0x3f,0x81,0x40,0x44,0x3f,0x00,
0x3e,0x3f,0x10,0x45,0x00,0x50,0x45,0x3f,0x10,0x3e,0x00,0x00,0x44,0x00,0x60,0x45,
0x00,0x50,0x43,0x3f,0x48,0x43,0x00,0x78,0x43,0x3f,0x82,0x20,0x42,0x3f,0x10,0x43,
0x00,0x50,0x3e,0x3f,0x00,0x43,0x3f,0x00,0x3b,0x3f,0x10,0x42,0x00,0x60,0x3e,0x00,
0x00,0x43,0x00,0x00,0x3b,0x00,0x50,0x48,0x3f,0x48,0x48,0x00,0x18,0x46,0x3f,0x81,
0x28,0x46,0x00,0x18,0x45,0x3f,0x81,0x28,0x45,0x00,0x18,0x43,0x3f,0x82,0x08,0x43,
0x00,0x18,0x45,0x3f,0x48,0x45,0x00,0x78,0x4a,0x3f,0x48,0x4a,0x00,0x78,0x45,0x3f,
0x48,0x45,0x00,0x78,0x4a,0x3f,0x48,0x4a,0x00,0x78,0x45,0x3f,0x60,0x4a,0x3f,0x10,
0x45,0x00,0x60,0x4a,0x00,0x50,0x45,0x3f,0x81,0x40,0x44,0x3f,0x00,0x3e,0x3f,0x10,
0x45,0x00,0x50,0x45,0x3f,0x10,0x3e,0x00,0x00,0x44,0x00,0x60,0x45,0x00,0x50,0x48,
0x3f,0x48,0x48,0x00,0x78,0x48,0x3f,0x00,0x40,0x3f,0x82,0x20,0x45,0x3f,0x10,0x40,
0x00,0x00,0x48,0x00,0x50,0x43,0x3f,0x00,0x40,0x3f,0x10,0x45,0x00,0x60,0x40,0x00,
0x00,0x43,0x00,0x50,0x41,0x3f,0x82,0x08,0x41,0x00,0x18,0x3e,0x3f,0x83,0x48,0x3e,
0x00,0x18,0x3e,0x3f,0x82,0x68,0x3e,0x00,0x18,0x41,0x3f,0x82,0x68,0x41,0x00,0x18,
0x45,0x3f,0x82,0x68,0x45,0x00,0x18,0x48,0x3f,0x82,0x68,0x48,0x00,0x18,0x4b,0x3f,
0x48,0x4b,0x00,0x78,0x4a,0x3f,0x48,0x4a,0x00,0x78,0x44,0x3f,0x60,0x45,0x3f,0x10,
0x44,0x00,0x60,0x45,0x00,0x50,0x41,0x3f,0x48,0x41,0x00,0x86,0x78,0x45,0x3f,0x48,
0x45,0x00,0x78,0x41,0x3f,0x48,0x41,0x00,0x18,0x45,0x3f,0x48,0x45,0x00,0x83,0x18,
0x45,0x3f,0x48,0x45,0x00,0x78,0x41,0x3f,0x48,0x41,0x00,0x18,0x45,0x3f,0x48,0x45,
0x00,0x83,0x18,0x45,0x3f,0x48,0x45,0x00,0x78,0x41,0x3f,0x60,0x44,0x3f,0x10,0x41,
0x00,0x50,0x45,0x3f,0x10,0x44,0x00,0x60,0x45,0x00,0x50,0x41,0x3f,0x82,0x68,0x41,
0x00,0x18,0x3e,0x3f,0x83,0x48,0x3e,0x00,0x78,0x45,0x3f,0x48,0x45,0x00,0x78,0x41,
0x3f,0x48,0x41,0x00,0x18,0x45,0x3f,0x48,0x45,0x00,0x83,0x18,0x45,0x3f,0x48,0x45,
0x00,0x78,0x41,0x3f,0x48,0x41,0x00,0x18,0x45,0x3f,0x48,0x45,0x00,0x83,0x18,0x45,
0x3f,0x48,0x45,0x00,0x78,0x41,0x3f,0x60,0x44,0x3f,0x10,0x41,0x00,0x50,0x45,0x3f,
0x10,0x44,0x00,0x60,0x45,0x00,0x50,0x43,0x3f,0x83,0x48,0x43,0x00,0x18,0x3c,0x3f,
0x82,0x68,0x3c,0x00,0x78,0x45,0x3f,0x48,0x45,0x00,0x78,0x41,0x3f,0x48,0x41,0x00,
0x18,0x45,0x3f,0x48,0x45,0x00,0x83,0x18,0x45,0x3f,0x48,0x45,0x00,0x78,0x41,0x3f,
0x48,0x41,0x00,0x18,0x45,0x3f,0x48,0x45,0x00,0x83,0x18,0x45,0x3f,0x48,0x45,0x00,
0x78,0x41,0x3f,0x60,0x44,0x3f,0x10,0x41,0x00,0x50,0x45,0x3f,0x10,0x44,0x00,0x60,
0x45,0x00,0x50,0x41,0x3f,0x82,0x68,0x41,0x00,0x18,0x3e,0x3f,0x83,0x48,0x3e,0x00,
0x18,0x3a,0x51,0x60,0x3e,0x51,0x10,0x3a,0x00,0x50,0x41,0x51,0x10,0x3e,0x00,0x60,
0x41,0x00,0x50,0x3b,0x51,0x60,0x3e,0x51,0x10,0x3b,0x00,0x50,0x41,0x51,0x10,0x3e,
0x00,0x60,0x41,0x00,0x50,0x44,0x51,0x60,0x45,0x51,0x10,0x44,0x00,0x60,0x45,0x00,
0x50,0x3e,0x51,0x83,0x48,0x3e,0x00,0x18,0x3e,0x51,0x60,0x41,0x51,0x10,0x3e,0x00,
0x50,0x46,0x51,0x10,0x41,0x00,0x50,0x4a,0x51,0x10,0x46,0x00,0x50,0x44,0x51,0x10,
0x4a,0x00,0x50,0x45,0x51,0x10,0x44,0x00,0x60,0x45,0x00,0x50,0x41,0x51,0x85,0x08,
0x41,0x00,0x83,0xf9,0x58,0x45,0x3f,0x48,0x45,0x00,0x78,0x4a,0x3f,0x48,0x4a,0x00,
0x78,0x45,0x3f,0x48,0x45,0x00,0x78,0x4a,0x3f,0x48,0x4a,0x00,0x78,0x45,0x3f,0x60,
0x4a,0x3f,0x10,0x45,0x00,0x60,0x4a,0x00,0x50,0x45,0x3f,0x81,0x40,0x44,0x3f,0x00,
0x3e,0x3f,0x10,0x45,0x00,0x50,0x45,0x3f,0x10,0x3e,0x00,0x00,0x44,0x00,0x60,0x45,
0x00,0x50,0x45,0x2f,0x60,0x44,0x2f,0x10,0x45,0x00,0x50,0x45,0x2f,0x10,0x44,0x00,
0x50,0x43,0x2f,0x10,0x45,0x00,0x60,0x43,0x00,0x50,0x42,0x2f,0x60,0x43,0x2f,0x10,
0x42,0x00,0x50,0x41,0x2f,0x10,0x43,0x00,0x38,0x41,0x00,0x18,0x41,0x2f,0x82,0x08,
0x41,0x00,0x18,0x3e,0x1f,0x83,0x48,0x3e,0x00,0x18,0x45,0x1f,0x48,0x45,0x00,0x78,
0x4a,0x1f,0x48,0x4a,0x00,0x78,0x45,0x1f,0x48,0x45,0x00,0x78,0x4a,0x1f,0x48,0x4a,
0x00,0x78,0x45,0x1f,0x60,0x4a,0x1f,0x10,0x45,0x00,0x60,0x4a,0x00,0x50,0x45,0x1f,
0x81,0x40,0x44,0x1f,0x00,0x3e,0x1f,0x10,0x45,0x00,0x50,0x45,0x1f,0x10,0x3e,0x00,
0x00,0x44,0x00,0x60,0x45,0x00,0x50,0x43,0x1f,0x48,0x43,0x00,0x78,0x43,0x1f,0x82,
0x20,0x42,0x1f,0x10,0x43,0x00,0x50,0x3e,0x1f,0x00,0x43,0x1f,0x00,0x3b,0x1f,0x10,
0x42,0x00,0x60,0x3e,0x00,0x00,0x43,0x00,0x00,0x3b,0x00,0x50,0x48,0x1f,0x48,0x48,
0x00,0x18,0x46,0x1f,0x81,0x28,0x46,0x00,0x18,0x45,0x1f,0x81,0x28,0x45,0x00,0x18,
0x43,0x1f,0x82,0x08,0x43,0x00,0x18,0x45,0x13,0x48,0x45,0x00,0x78,0x4a,0x13,0x48,
0x4a,0x00,0x78,0x45,0x13,0x48,0x45,0x00,0x78,0x4a,0x13,0x48,0x4a,0x00,0x78,0x45,
0x13,0x60,0x4a,0x13,0x10,0x45,0x00,0x60,0x4a,0x00,0x50,0x45,0x13,0x81,0x40,0x44,
0x13,0x00,0x3e,0x13,0x10,0x45,0x00,0x50,0x45,0x13,0x10,0x3e,0x00,0x00,0x44,0x00,
0x60,0x45,0x00,0x50,0x48,0x13,0x48,0x48,0x00,0x78,0x48,0x13,0x00,0x40,0x13,0x82,
0x20,0x45,0x13,0x10,0x40,0x00,0x00,0x48,0x00,0x50,0x43,0x13,0x00,0x40,0x13,0x10,
0x45,0x00,0x60,0x40,0x00,0x00,0x43,0x00,0x50,0x41,0x13,0x82,0x08,0x41,0x00,0x18,
0x3e,0x0a,0x83,0x48,0x3e,0x00,0x18,0x3e,0x0a,0x82,0x68,0x3e,0x00,0x18,0x41,0x0a,
0x82,0x68,0x41,0x00,0x18,0x45,0x0a,0x82,0x68,0x45,0x00,0x18,0x48,0x0a,0x82,0x68,
0x48,0x00,0x18,0x4b,0x0a,0x48,0x4b,0x00,0x78,0x4a,0x0a,0x48,0x4a,0x00,0x78,0x44,
0x0a,0x60,0x45,0x0a,0x10,0x44,0x00,0x60,0x45,0x00,0x50,0x41,0x0a,0x81,0x28,0x41,
0x00,0x82,0x38,0x41,0x0a,0x82,0x08,0x41,0x00,0x00,0xff,0x2f,0x00,0x4d,0x54,0x72,
0x6b,0x00,0x00,0x18,0x74,0x00,0xff,0x03,0x0c,0x41,0x63,0x6f,0x75,0x20,0x50,0x69,
0x61,0x6e,0x6f,0x20,0x31,0x00,0xff,0x04,0x0b,0x43,0x68,0x20,0x20,0x35,0x20,0x4d,
0x54,0x2d,0x33,0x32,0x00,0xc4,0x01,0x00,0x94,0x41,0x3f,0x00,0x45,0x3f,0x00,0x3e,
0x3f,0x50,0x3e,0x00,0x00,0x45,0x00,0x00,0x41,0x00,0x70,0x45,0x3f,0x00,0x4a,0x3f,
0x00,0x41,0x3f,0x48,0x41,0x00,0x00,0x4a,0x00,0x00,0x45,0x00,0x78,0x41,0x3f,0x00,
0x45,0x3f,0x00,0x3e,0x3f,0x48,0x3e,0x00,0x00,0x45,0x00,0x00,0x41,0x00,0x78,0x45,
0x3f,0x00,0x4a,0x3f,0x00,0x41,0x3f,0x48,0x41,0x00,0x00,0x4a,0x00,0x00,0x45,0x00,
0x78,0x41,0x3f,0x00,0x45,0x3f,0x00,0x3e,0x3f,0x60,0x45,0x3f,0x00,0x4a,0x3f,0x00,
0x41,0x3f,0x00,0x45,0x00,0x00,0x41,0x00,0x10,0x3e,0x00,0x00,0x45,0x00,0x00,0x41,
0x00,0x60,0x4a,0x00,0x50,0x41,0x3f,0x00,0x45,0x3f,0x00,0x3e,0x3f,0x81,0x40,0x44,
0x3f,0x00,0x40,0x3f,0x10,0x3e,0x00,0x00,0x41,0x00,0x00,0x45,0x00,0x50,0x41,0x3f,
0x00,0x45,0x3f,0x00,0x3e,0x3f,0x10,0x44,0x00,0x00,0x40,0x00,0x60,0x45,0x00,0x00,
0x41,0x00,0x00,0x3e,0x00,0x50,0x41,0x3f,0x00,0x45,0x3f,0x00,0x3e,0x3f,0x60,0x40,
0x3f,0x00,0x44,0x3f,0x00,0x3d,0x3f,0x10,0x3e,0x00,0x00,0x41,0x00,0x00,0x45,0x00,
0x50,0x41,0x3f,0x00,0x45,0x3f,0x00,0x3e,0x3f,0x10,0x40,0x00,0x00,0x3d,0x00,0x00,
0x44,0x00,0x50,0x40,0x3f,0x00,0x43,0x3f,0x00,0x3c,0x3f,0x10,0x41,0x00,0x00,0x3e,
0x00,0x00,0x45,0x00,0x60,0x40,0x00,0x00,0x43,0x00,0x00,0x3c,0x00,0x50,0x3f,0x3f,
0x00,0x42,0x3f,0x00,0x3b,0x3f,0x60,0x40,0x3f,0x00,0x43,0x3f,0x00,0x3c,0x3f,0x10,
0x3b,0x00,0x00,0x3f,0x00,0x00,0x42,0x00,0x50,0x3d,0x3f,0x00,0x41,0x3f,0x00,0x3a,
0x3f,0x10,0x40,0x00,0x00,0x3c,0x00,0x00,0x43,0x00,0x38,0x3d,0x00,0x00,0x41,0x00,
0x00,0x3a,0x00,0x18,0x3c,0x3f,0x00,0x41,0x3f,0x00,0x39,0x3f,0x82,0x10,0x39,0x00,
0x00,0x41,0x00,0x00,0x3c,0x00,0x10,0x39,0x3f,0x00,0x3e,0x3f,0x00,0x35,0x3f,0x83,
0x48,0x35,0x00,0x00,0x3e,0x00,0x00,0x39,0x00,0x18,0x41,0x3f,0x00,0x45,0x3f,0x00,
0x3e,0x3f,0x50,0x3e,0x00,0x00,0x45,0x00,0x00,0x41,0x00,0x70,0x45,0x3f,0x00,0x4a,
0x3f,0x00,0x41,0x3f,0x48,0x41,0x00,0x00,0x4a,0x00,0x00,0x45,0x00,0x78,0x41,0x3f,
0x00,0x45,0x3f,0x00,0x3e,0x3f,0x48,0x3e,0x00,0x00,0x45,0x00,0x00,0x41,0x00,0x78,
0x45,0x3f,0x00,0x4a,0x3f,0x00,0x41,0x3f,0x48,0x41,0x00,0x00,0x4a,0x00,0x00,0x45,
0x00,0x78,0x41,0x3f,0x00,0x45,0x3f,0x00,0x3e,0x3f,0x60,0x45,0x3f,0x00,0x4a,0x3f,
0x00,0x41,0x3f,0x00,0x45,0x00,0x00,0x41,0x00,0x10,0x3e,0x00,0x00,0x45,0x00,0x00,
0x41,0x00,0x60,0x4a,0x00,0x50,0x41,0x3f,0x00,0x45,0x3f,0x00,0x3e,0x3f,0x81,0x40,
0x44,0x3f,0x00,0x40,0x3f,0x10,0x3e,0x00,0x00,0x41,0x00,0x00,0x45,0x00,0x50,0x41,
0x3f,0x00,0x45,0x3f,0x00,0x3e,0x3f,0x10,0x44,0x00,0x00,0x40,0x00,0x60,0x45,0x00,
0x00,0x41,0x00,0x00,0x3e,0x00,0x50,0x3e,0x3f,0x00,0x43,0x3f,0x00,0x3b,0x3f,0x50,
0x3b,0x00,0x00,0x43,0x00,0x00,0x3e,0x00,0x70,0x3e,0x3f,0x00,0x43,0x3f,0x00,0x3b,
0x3f,0x82,0x20,0x3d,0x3f,0x00,0x42,0x3f,0x00,0x3a,0x3f,0x10,0x3b,0x00,0x00,0x3e,
0x00,0x00,0x43,0x00,0x50,0x3e,0x3f,0x00,0x43,0x3f,0x00,0x3b,0x3f,0x10,0x3d,0x00,
0x00,0x3a,0x00,0x00,0x42,0x00,0x60,0x3e,0x00,0x00,0x43,0x00,0x00,0x3b,0x00,0x50,
0x43,0x3f,0x00,0x48,0x3f,0x00,0x40,0x3f,0x50,0x40,0x00,0x00,0x48,0x00,0x00,0x43,
0x00,0x10,0x41,0x3f,0x00,0x46,0x3f,0x00,0x3e,0x3f,0x81,0x28,0x3e,0x00,0x00,0x46,
0x00,0x00,0x41,0x00,0x18,0x40,0x3f,0x00,0x45,0x3f,0x00,0x3c,0x3f,0x81,0x28,0x3c,
0x00,0x00,0x45,0x00,0x00,0x40,0x00,0x18,0x3e,0x3f,0x00,0x43,0x3f,0x00,0x3a,0x3f,
0x82,0x08,0x3a,0x00,0x00,0x43,0x00,0x00,0x3e,0x00,0x18,0x41,0x3f,0x00,0x45,0x3f,
0x00,0x3e,0x3f,0x50,0x3e,0x00,0x00,0x45,0x00,0x00,0x41,0x00,0x70,0x45,0x3f,0x00,
0x4a,0x3f,0x00,0x41,0x3f,0x48,0x41,0x00,0x00,0x4a,0x00,0x00,0x45,0x00,0x78,0x41,
0x3f,0x00,0x45,0x3f,0x00,0x3e,0x3f,0x48,0x3e,0x00,0x00,0x45,0x00,0x00,0x41,0x00,
0x78,0x45,0x3f,0x00,0x4a,0x3f,0x00,0x41,0x3f,0x48,0x41,0x00,0x00,0x4a,0x00,0x00,
0x45,0x00,0x78,0x41,0x3f,0x00,0x45,0x3f,0x00,0x3e,0x3f,0x60,0x45,0x3f,0x00,0x4a,
0x3f,0x00,0x41,0x3f,0x00,0x45,0x00,0x00,0x41,0x00,0x10,0x3e,0x00,0x00,0x45,0x00,
0x00,0x41,0x00,0x60,0x4a,0x00,0x50,0x41,0x3f,0x00,0x45,0x3f,0x00,0x3e,0x3f,0x81,
0x40,0x44,0x3f,0x00,0x40,0x3f,0x10,0x3e,0x00,0x00,0x41,0x00,0x00,0x45,0x00,0x50,
0x41,0x3f,0x00,0x45,0x3f,0x00,0x3e,0x3f,0x10,0x44,0x00,0x00,0x40,0x00,0x60,0x45,
0x00,0x00,0x41,0x00,0x00,0x3e,0x00,0x50,0x43,0x3f,0x00,0x48,0x3f,0x00,0x40,0x3f,
0x50,0x40,0x00,0x00,0x48,0x00,0x00,0x43,0x00,0x70,0x43,0x3f,0x00,0x48,0x3f,0x00,
0x40,0x3f,0x82,0x20,0x45,0x3f,0x00,0x3c,0x3f,0x10,0x40,0x00,0x00,0x43,0x00,0x00,
0x48,0x00,0x50,0x40,0x3f,0x00,0x43,0x3f,0x00,0x3a,0x3f,0x10,0x45,0x00,0x00,0x3c,
0x00,0x60,0x43,0x00,0x00,0x40,0x00,0x00,0x3a,0x00,0x50,0x3c,0x3f,0x00,0x41,0x3f,
0x00,0x38,0x3f,0x82,0x10,0x38,0x00,0x00,0x41,0x00,0x00,0x3c,0x00,0x10,0x38,0x3f,
0x00,0x3e,0x3f,0x00,0x35,0x3f,0x83,0x48,0x35,0x00,0x00,0x3e,0x00,0x00,0x38,0x00,
0x18,0x3a,0x3f,0x00,0x3e,0x3f,0x00,0x37,0x3f,0x82,0x68,0x37,0x00,0x00,0x3e,0x00,
0x00,0x3a,0x00,0x18,0x3e,0x3f,0x00,0x41,0x3f,0x00,0x3a,0x3f,0x82,0x68,0x3a,0x00,
0x00,0x41,0x00,0x00,0x3e,0x00,0x18,0x41,0x3f,0x00,0x45,0x3f,0x00,0x3c,0x3f,0x82,
0x68,0x3c,0x00,0x00,0x45,0x00,0x00,0x41,0x00,0x18,0x45,0x3f,0x00,0x48,0x3f,0x00,
0x42,0x3f,0x82,0x68,0x42,0x00,0x00,0x48,0x00,0x00,0x45,0x00,0x18,0x46,0x3f,0x00,
0x4b,0x3f,0x00,0x43,0x3f,0x50,0x43,0x00,0x00,0x4b,0x00,0x00,0x46,0x00,0x70,0x4a,
0x3f,0x00,0x42,0x3f,0x48,0x42,0x00,0x00,0x4a,0x00,0x78,0x40,0x3f,0x00,0x44,0x3f,
0x00,0x3b,0x3f,0x60,0x3c,0x3f,0x00,0x45,0x3f,0x00,0x3a,0x3f,0x10,0x3b,0x00,0x00,
0x40,0x00,0x00,0x44,0x00,0x60,0x3c,0x00,0x00,0x45,0x00,0x00,0x3a,0x00,0x50,0x3c,
0x3f,0x00,0x41,0x3f,0x00,0x39,0x3f,0x48,0x39,0x00,0x00,0x41,0x00,0x00,0x3c,0x00,
0x87,0x58,0x51,0x51,0x00,0x45,0x51,0x81,0x28,0x45,0x00,0x00,0x51,0x00,0x81,0x58,
0x51,0x51,0x00,0x45,0x51,0x81,0x28,0x45,0x00,0x00,0x51,0x00,0x81,0x58,0x51,0x51,
0x00,0x45,0x51,0x81,0x28,0x45,0x00,0x00,0x51,0x00,0x81,0x58,0x51,0x51,0x00,0x45,
0x51,0x81,0x28,0x45,0x00,0x00,0x51,0x00,0x81,0x58,0x51,0x51,0x00,0x45,0x51,0x81,
0x28,0x45,0x00,0x00,0x51,0x00,0x81,0x58,0x51,0x51,0x00,0x45,0x51,0x81,0x28,0x45,
0x00,0x00,0x51,0x00,0x81,0x58,0x51,0x51,0x00,0x45,0x51,0x81,0x28,0x45,0x00,0x00,
0x51,0x00,0x81,0x58,0x51,0x51,0x00,0x45,0x51,0x81,0x28,0x45,0x00,0x00,0x51,0x00,
0x81,0x58,0x51,0x51,0x00,0x45,0x51,0x81,0x28,0x45,0x00,0x00,0x51,0x00,0x81,0x58,
0x51,0x51,0x00,0x45,0x51,0x81,0x28,0x45,0x00,0x00,0x51,0x00,0x81,0x58,0x51,0x51,
0x00,0x45,0x51,0x81,0x28,0x45,0x00,0x00,0x51,0x00,0x81,0x58,0x51,0x51,0x00,0x45,
0x51,0x81,0x28,0x45,0x00,0x00,0x51,0x00,0x81,0x58,0x51,0x51,0x00,0x45,0x51,0x81,
0x28,0x45,0x00,0x00,0x51,0x00,0x81,0x58,0x51,0x51,0x00,0x45,0x51,0x81,0x28,0x45,
0x00,0x00,0x51,0x00,0x81,0x58,0x4f,0x69,0x00,0x43,0x69,0x81,0x28,0x43,0x00,0x00,
0x4f,0x00,0x81,0x58,0x54,0x69,0x00,0x48,0x69,0x81,0x28,0x48,0x00,0x00,0x54,0x00,
0x81,0x58,0x56,0x51,0x00,0x4a,0x51,0x81,0x28,0x4a,0x00,0x00,0x56,0x00,0x81,0x58,
0x56,0x51,0x00,0x4a,0x51,0x81,0x28,0x4a,0x00,0x00,0x56,0x00,0x81,0x58,0x56,0x51,
0x00,0x4a,0x51,0x81,0x28,0x4a,0x00,0x00,0x56,0x00,0x81,0x58,0x56,0x51,0x00,0x4a,
0x51,0x81,0x28,0x4a,0x00,0x00,0x56,0x00,0x81,0x58,0x56,0x51,0x00,0x4a,0x51,0x81,
0x28,0x4a,0x00,0x00,0x56,0x00,0x81,0x58,0x56,0x51,0x00,0x4a,0x51,0x81,0x28,0x4a,
0x00,0x00,0x56,0x00,0x81,0x58,0x56,0x51,0x00,0x4a,0x51,0x81,0x28,0x4a,0x00,0x00,
0x56,0x00,0x81,0x58,0x56,0x51,0x00,0x4a,0x51,0x81,0x28,0x4a,0x00,0x00,0x56,0x00,
0x81,0x58,0x59,0x51,0x00,0x4d,0x51,0x81,0x28,0x4d,0x00,0x00,0x59,0x00,0x81,0x58,
0x59,0x51,0x00,0x4d,0x51,0x81,0x28,0x4d,0x00,0x00,0x59,0x00,0x81,0x58,0x59,0x51,
0x00,0x4d,0x51,0x81,0x28,0x4d,0x00,0x00,0x59,0x00,0x81,0x58,0x59,0x3f,0x00,0x4d,
0x3f,0x81,0x28,0x4d,0x00,0x00,0x59,0x00,0x83,0x18,0x54,0x69,0x00,0x48,0x69,0x81,
0x28,0x48,0x00,0x00,0x54,0x00,0x78,0x59,0x69,0x00,0x4d,0x69,0x85,0x08,0x4d,0x00,
0x00,0x59,0x00,0x81,0x58,0x41,0x69,0x00,0x3b,0x69,0x48,0x3b,0x00,0x00,0x41,0x00,
0x81,0x58,0x44,0x69,0x00,0x3e,0x69,0x81,0x28,0x3e,0x00,0x00,0x44,0x00,0x18,0x41,
0x69,0x00,0x3b,0x69,0x48,0x3b,0x00,0x00,0x41,0x00,0x18,0x43,0x69,0x00,0x3d,0x69,
0x48,0x3d,0x00,0x00,0x43,0x00,0x81,0x58,0x41,0x69,0x00,0x3b,0x69,0x48,0x3b,0x00,
0x00,0x41,0x00,0x18,0x44,0x69,0x00,0x3e,0x69,0x48,0x3e,0x00,0x00,0x44,0x00,0x18,
0x41,0x69,0x00,0x3b,0x69,0x48,0x3b,0x00,0x00,0x41,0x00,0x18,0x43,0x69,0x00,0x3d,
0x69,0x48,0x3d,0x00,0x00,0x43,0x00,0x18,0x41,0x69,0x00,0x3b,0x69,0x48,0x3b,0x00,
0x00,0x41,0x00,0x18,0x44,0x69,0x00,0x3e,0x69,0x48,0x3e,0x00,0x00,0x44,0x00,0x18,
0x3e,0x69,0x00,0x38,0x69,0x48,0x38,0x00,0x00,0x3e,0x00,0x18,0x41,0x69,0x00,0x3b,
0x69,0x50,0x3b,0x00,0x00,0x41,0x00,0x81,0x50,0x44,0x69,0x00,0x3e,0x69,0x81,0x28,
0x3e,0x00,0x00,0x44,0x00,0x18,0x41,0x69,0x00,0x3b,0x69,0x48,0x3b,0x00,0x00,0x41,
0x00,0x18,0x43,0x69,0x00,0x3d,0x69,0x48,0x3d,0x00,0x00,0x43,0x00,0x81,0x58,0x41,
0x69,0x00,0x3b,0x69,0x48,0x3b,0x00,0x00,0x41,0x00,0x18,0x44,0x69,0x00,0x3e,0x69,
0x48,0x3e,0x00,0x00,0x44,0x00,0x18,0x41,0x69,0x00,0x3b,0x69,0x48,0x3b,0x00,0x00,
0x41,0x00,0x18,0x43,0x69,0x00,0x3d,0x69,0x48,0x3d,0x00,0x00,0x43,0x00,0x18,0x41,
0x69,0x00,0x3b,0x69,0x48,0x3b,0x00,0x00,0x41,0x00,0x18,0x44,0x69,0x00,0x3e,0x69,
0x48,0x3e,0x00,0x00,0x44,0x00,0x18,0x3e,0x69,0x00,0x38,0x69,0x48,0x38,0x00,0x00,
0x3e,0x00,0x18,0x41,0x69,0x00,0x3b,0x69,0x50,0x3b,0x00,0x00,0x41,0x00,0x81,0x50,
0x44,0x69,0x00,0x3e,0x69,0x81,0x28,0x3e,0x00,0x00,0x44,0x00,0x18,0x41,0x69,0x00,
0x3b,0x69,0x48,0x3b,0x00,0x00,0x41,0x00,0x18,0x43,0x69,0x00,0x3d,0x69,0x48,0x3d,
0x00,0x00,0x43,0x00,0x81,0x58,0x41,0x69,0x00,0x3b,0x69,0x48,0x3b,0x00,0x00,0x41,
0x00,0x18,0x44,0x69,0x00,0x3e,0x69,0x48,0x3e,0x00,0x00,0x44,0x00,0x18,0x41,0x69,
0x00,0x3b,0x69,0x48,0x3b,0x00,0x00,0x41,0x00,0x18,0x43,0x69,0x00,0x3d,0x69,0x48,
0x3d,0x00,0x00,0x43,0x00,0x18,0x41,0x69,0x00,0x3b,0x69,0x48,0x3b,0x00,0x00,0x41,
0x00,0x18,0x44,0x69,0x00,0x3e,0x69,0x48,0x3e,0x00,0x00,0x44,0x00,0x18,0x3e,0x69,
0x00,0x38,0x69,0x48,0x38,0x00,0x00,0x3e,0x00,0x18,0x41,0x69,0x00,0x3b,0x69,0x48,
0x3b,0x00,0x00,0x41,0x00,0x18,0x41,0x69,0x00,0x3b,0x69,0x48,0x3b,0x00,0x00,0x41,
0x00,0x18,0x44,0x69,0x00,0x3e,0x69,0x48,0x3e,0x00,0x00,0x44,0x00,0x18,0x41,0x69,
0x00,0x3b,0x69,0x48,0x3b,0x00,0x00,0x41,0x00,0x18,0x43,0x69,0x00,0x3d,0x69,0x48,
0x3d,0x00,0x00,0x43,0x00,0x18,0x41,0x69,0x00,0x3b,0x69,0x48,0x3b,0x00,0x00,0x41,
0x00,0x18,0x44,0x69,0x00,0x3e,0x69,0x48,0x3e,0x00,0x00,0x44,0x00,0x18,0x3e,0x69,
0x00,0x38,0x69,0x48,0x38,0x00,0x00,0x3e,0x00,0x18,0x43,0x69,0x00,0x3d,0x69,0x48,
0x3d,0x00,0x00,0x43,0x00,0x18,0x41,0x69,0x00,0x3b,0x69,0x48,0x3b,0x00,0x00,0x41,
0x00,0x18,0x44,0x69,0x00,0x3e,0x69,0x48,0x3e,0x00,0x00,0x44,0x00,0x18,0x41,0x69,
0x00,0x3b,0x69,0x48,0x3b,0x00,0x00,0x41,0x00,0x18,0x43,0x69,0x00,0x3d,0x69,0x48,
0x3d,0x00,0x00,0x43,0x00,0x18,0x41,0x69,0x00,0x3b,0x69,0x48,0x3b,0x00,0x00,0x41,
0x00,0x18,0x44,0x69,0x00,0x3e,0x69,0x48,0x3e,0x00,0x00,0x44,0x00,0x18,0x41,0x69,
0x00,0x3b,0x69,0x48,0x3b,0x00,0x00,0x41,0x00,0x18,0x41,0x69,0x00,0x3b,0x69,0x48,
0x3b,0x00,0x00,0x41,0x00,0x81,0x58,0x44,0x69,0x00,0x3e,0x69,0x81,0x28,0x3e,0x00,
0x00,0x44,0x00,0x18,0x41,0x69,0x00,0x3b,0x69,0x48,0x3b,0x00,0x00,0x41,0x00,0x18,
0x43,0x69,0x00,0x3d,0x69,0x48,0x3d,0x00,0x00,0x43,0x00,0x81,0x58,0x41,0x69,0x00,
0x3b,0x69,0x48,0x3b,0x00,0x00,0x41,0x00,0x18,0x44,0x69,0x00,0x3e,0x69,0x48,0x3e,
0x00,0x00,0x44,0x00,0x18,0x41,0x69,0x00,0x3b,0x69,0x48,0x3b,0x00,0x00,0x41,0x00,
0x18,0x43,0x69,0x00,0x3d,0x69,0x48,0x3d,0x00,0x00,0x43,0x00,0x18,0x41,0x69,0x00,
0x3b,0x69,0x48,0x3b,0x00,0x00,0x41,0x00,0x18,0x44,0x69,0x00,0x3e,0x69,0x48,0x3e,
0x00,0x00,0x44,0x00,0x18,0x3e,0x69,0x00,0x38,0x69,0x48,0x38,0x00,0x00,0x3e,0x00,
0x18,0x41,0x69,0x00,0x3b,0x69,0x48,0x3b,0x00,0x00,0x41,0x00,0x81,0x58,0x44,0x69,
0x00,0x3e,0x69,0x81,0x28,0x3e,0x00,0x00,0x44,0x00,0x18,0x41,0x69,0x00,0x3b,0x69,
0x48,0x3b,0x00,0x00,0x41,0x00,0x18,0x43,0x69,0x00,0x3d,0x69,0x48,0x3d,0x00,0x00,
0x43,0x00,0x81,0x58,0x41,0x69,0x00,0x3b,0x69,0x48,0x3b,0x00,0x00,0x41,0x00,0x18,
0x44,0x69,0x00,0x3e,0x69,0x48,0x3e,0x00,0x00,0x44,0x00,0x18,0x41,0x69,0x00,0x3b,
0x69,0x48,0x3b,0x00,0x00,0x41,0x00,0x18,0x43,0x69,0x00,0x3d,0x69,0x48,0x3d,0x00,
0x00,0x43,0x00,0x18,0x41,0x69,0x00,0x3b,0x69,0x48,0x3b,0x00,0x00,0x41,0x00,0x18,
0x44,0x69,0x00,0x3e,0x69,0x48,0x3e,0x00,0x00,0x44,0x00,0x18,0x3e,0x69,0x00,0x38,
0x69,0x48,0x38,0x00,0x00,0x3e,0x00,0x18,0x41,0x69,0x00,0x3b,0x69,0x48,0x3b,0x00,
0x00,0x41,0x00,0x81,0x58,0x44,0x69,0x00,0x3e,0x69,0x81,0x28,0x3e,0x00,0x00,0x44,
0x00,0x18,0x41,0x69,0x00,0x3b,0x69,0x48,0x3b,0x00,0x00,0x41,0x00,0x18,0x43,0x69,
0x00,0x3d,0x69,0x48,0x3d,0x00,0x00,0x43,0x00,0x81,0x58,0x41,0x69,0x00,0x3b,0x69,
0x48,0x3b,0x00,0x00,0x41,0x00,0x18,0x44,0x69,0x00,0x3e,0x69,0x48,0x3e,0x00,0x00,
0x44,0x00,0x18,0x41,0x69,0x00,0x3b,0x69,0x48,0x3b,0x00,0x00,0x41,0x00,0x18,0x43,
0x69,0x00,0x3d,0x69,0x48,0x3d,0x00,0x00,0x43,0x00,0x18,0x41,0x69,0x00,0x3b,0x69,
0x48,0x3b,0x00,0x00,0x41,0x00,0x18,0x44,0x69,0x00,0x3e,0x69,0x48,0x3e,0x00,0x00,
0x44,0x00,0x18,0x3e,0x69,0x00,0x38,0x69,0x48,0x38,0x00,0x00,0x3e,0x00,0x18,0x41,
0x69,0x00,0x3b,0x69,0x48,0x3b,0x00,0x00,0x41,0x00,0x18,0x41,0x69,0x00,0x3b,0x69,
0x48,0x3b,0x00,0x00,0x41,0x00,0x18,0x44,0x69,0x00,0x3e,0x69,0x48,0x3e,0x00,0x00,
0x44,0x00,0x18,0x41,0x69,0x00,0x3b,0x69,0x48,0x3b,0x00,0x00,0x41,0x00,0x18,0x44,
0x69,0x00,0x3e,0x69,0x48,0x3e,0x00,0x00,0x44,0x00,0x18,0x44,0x69,0x00,0x3e,0x69,
0x81,0x28,0x3e,0x00,0x00,0x44,0x00,0x18,0x41,0x69,0x00,0x3b,0x69,0x82,0x08,0x3b,
0x00,0x00,0x41,0x00,0x84,0x58,0x41,0x3f,0x00,0x45,0x3f,0x00,0x3e,0x3f,0x50,0x3e,
0x00,0x00,0x45,0x00,0x00,0x41,0x00,0x70,0x45,0x3f,0x00,0x4a,0x3f,0x00,0x41,0x3f,
0x48,0x41,0x00,0x00,0x4a,0x00,0x00,0x45,0x00,0x78,0x41,0x3f,0x00,0x45,0x3f,0x00,
0x3e,0x3f,0x48,0x3e,0x00,0x00,0x45,0x00,0x00,0x41,0x00,0x78,0x45,0x3f,0x00,0x4a,
0x3f,0x00,0x41,0x3f,0x48,0x41,0x00,0x00,0x4a,0x00,0x00,0x45,0x00,0x78,0x41,0x3f,
0x00,0x45,0x3f,0x00,0x3e,0x3f,0x60,0x45,0x3f,0x00,0x4a,0x3f,0x00,0x41,0x3f,0x00,
0x45,0x00,0x00,0x41,0x00,0x10,0x3e,0x00,0x00,0x45,0x00,0x00,0x41,0x00,0x60,0x4a,
0x00,0x50,0x41,0x3f,0x00,0x45,0x3f,0x00,0x3e,0x3f,0x81,0x40,0x44,0x3f,0x00,0x40,
0x3f,0x10,0x3e,0x00,0x00,0x41,0x00,0x00,0x45,0x00,0x50,0x41,0x3f,0x00,0x45,0x3f,
0x00,0x3e,0x3f,0x10,0x44,0x00,0x00,0x40,0x00,0x60,0x45,0x00,0x00,0x41,0x00,0x00,
0x3e,0x00,0x50,0x41,0x3f,0x00,0x45,0x3f,0x00,0x3e,0x3f,0x60,0x40,0x3f,0x00,0x44,
0x3f,0x00,0x3d,0x3f,0x10,0x3e,0x00,0x00,0x41,0x00,0x00,0x45,0x00,0x50,0x41,0x3f,
0x00,0x45,0x3f,0x00,0x3e,0x3f,0x10,0x40,0x00,0x00,0x3d,0x00,0x00,0x44,0x00,0x50,
0x40,0x3f,0x00,0x43,0x3f,0x00,0x3c,0x3f,0x10,0x41,0x00,0x00,0x3e,0x00,0x00,0x45,
0x00,0x60,0x40,0x00,0x00,0x43,0x00,0x00,0x3c,0x00,0x50,0x3f,0x3f,0x00,0x42,0x3f,
0x00,0x3b,0x3f,0x60,0x40,0x3f,0x00,0x43,0x3f,0x00,0x3c,0x3f,0x10,0x3b,0x00,0x00,
0x3f,0x00,0x00,0x42,0x00,0x50,0x3d,0x3f,0x00,0x41,0x3f,0x00,0x3a,0x3f,0x10,0x40,
0x00,0x00,0x3c,0x00,0x00,0x43,0x00,0x38,0x3d,0x00,0x00,0x41,0x00,0x00,0x3a,0x00,
0x18,0x3c,0x3f,0x00,0x41,0x3f,0x00,0x39,0x3f,0x82,0x08,0x39,0x00,0x00,0x41,0x00,
0x00,0x3c,0x00,0x18,0x39,0x3f,0x00,0x3e,0x3f,0x00,0x35,0x3f,0x83,0x48,0x35,0x00,
0x00,0x3e,0x00,0x00,0x39,0x00,0x18,0x41,0x3f,0x00,0x45,0x3f,0x00,0x3e,0x3f,0x48,
0x3e,0x00,0x00,0x45,0x00,0x00,0x41,0x00,0x78,0x45,0x3f,0x00,0x4a,0x3f,0x00,0x41,
0x3f,0x48,0x41,0x00,0x00,0x4a,0x00,0x00,0x45,0x00,0x78,0x41,0x3f,0x00,0x45,0x3f,
0x00,0x3e,0x3f,0x48,0x3e,0x00,0x00,0x45,0x00,0x00,0x41,0x00,0x78,0x45,0x3f,0x00,
0x4a,0x3f,0x00,0x41,0x3f,0x48,0x41,0x00,0x00,0x4a,0x00,0x00,0x45,0x00,0x78,0x41,
0x3f,0x00,0x45,0x3f,0x00,0x3e,0x3f,0x60,0x45,0x3f,0x00,0x4a,0x3f,0x00,0x41,0x3f,
0x00,0x45,0x00,0x00,0x41,0x00,0x10,0x3e,0x00,0x00,0x45,0x00,0x00,0x41,0x00,0x60,
0x4a,0x00,0x50,0x41,0x3f,0x00,0x45,0x3f,0x00,0x3e,0x3f,0x81,0x40,0x44,0x3f,0x00,
0x40,0x3f,0x10,0x3e,0x00,0x00,0x41,0x00,0x00,0x45,0x00,0x50,0x41,0x3f,0x00,0x45,
0x3f,0x00,0x3e,0x3f,0x10,0x44,0x00,0x00,0x40,0x00,0x60,0x45,0x00,0x00,0x41,0x00,
0x00,0x3e,0x00,0x50,0x3e,0x3f,0x00,0x43,0x3f,0x00,0x3b,0x3f,0x48,0x3b,0x00,0x00,
0x43,0x00,0x00,0x3e,0x00,0x78,0x3e,0x3f,0x00,0x43,0x3f,0x00,0x3b,0x3f,0x82,0x20,
0x3d,0x3f,0x00,0x42,0x3f,0x00,0x3a,0x3f,0x10,0x3b,0x00,0x00,0x3e,0x00,0x00,0x43,
0x00,0x50,0x3e,0x3f,0x00,0x43,0x3f,0x00,0x3b,0x3f,0x10,0x3d,0x00,0x00,0x3a,0x00,
0x00,0x42,0x00,0x60,0x3e,0x00,0x00,0x43,0x00,0x00,0x3b,0x00,0x50,0x43,0x3f,0x00,
0x48,0x3f,0x00,0x40,0x3f,0x48,0x40,0x00,0x00,0x48,0x00,0x00,0x43,0x00,0x18,0x41,
0x3f,0x00,0x46,0x3f,0x00,0x3e,0x3f,0x81,0x28,0x3e,0x00,0x00,0x46,0x00,0x00,0x41,
0x00,0x18,0x40,0x3f,0x00,0x45,0x3f,0x00,0x3c,0x3f,0x81,0x28,0x3c,0x00,0x00,0x45,
0x00,0x00,0x40,0x00,0x18,0x3e,0x3f,0x00,0x43,0x3f,0x00,0x3a,0x3f,0x82,0x08,0x3a,
0x00,0x00,0x43,0x00,0x00,0x3e,0x00,0x18,0x41,0x3f,0x00,0x45,0x3f,0x00,0x3e,0x3f,
0x48,0x3e,0x00,0x00,0x45,0x00,0x00,0x41,0x00,0x78,0x45,0x3f,0x00,0x4a,0x3f,0x00,
0x41,0x3f,0x48,0x41,0x00,0x00,0x4a,0x00,0x00,0x45,0x00,0x78,0x41,0x3f,0x00,0x45,
0x3f,0x00,0x3e,0x3f,0x48,0x3e,0x00,0x00,0x45,0x00,0x00,0x41,0x00,0x78,0x45,0x3f,
0x00,0x4a,0x3f,0x00,0x41,0x3f,0x48,0x41,0x00,0x00,0x4a,0x00,0x00,0x45,0x00,0x78,
0x41,0x3f,0x00,0x45,0x3f,0x00,0x3e,0x3f,0x60,0x45,0x3f,0x00,0x4a,0x3f,0x00,0x41,
0x3f,0x00,0x45,0x00,0x00,0x41,0x00,0x10,0x3e,0x00,0x00,0x45,0x00,0x00,0x41,0x00,
0x60,0x4a,0x00,0x50,0x41,0x3f,0x00,0x45,0x3f,0x00,0x3e,0x3f,0x81,0x40,0x44,0x3f,
0x00,0x40,0x3f,0x10,0x3e,0x00,0x00,0x41,0x00,0x00,0x45,0x00,0x50,0x41,0x3f,0x00,
0x45,0x3f,0x00,0x3e,0x3f,0x10,0x44,0x00,0x00,0x40,0x00,0x60,0x45,0x00,0x00,0x41,
0x00,0x00,0x3e,0x00,0x50,0x43,0x3f,0x00,0x48,0x3f,0x00,0x40,0x3f,0x48,0x40,0x00,
0x00,0x48,0x00,0x00,0x43,0x00,0x78,0x43,0x3f,0x00,0x48,0x3f,0x00,0x40,0x3f,0x82,
0x20,0x45,0x3f,0x00,0x3c,0x3f,0x10,0x40,0x00,0x00,0x43,0x00,0x00,0x48,0x00,0x50,
0x40,0x3f,0x00,0x43,0x3f,0x00,0x3a,0x3f,0x10,0x45,0x00,0x00,0x3c,0x00,0x60,0x43,
0x00,0x00,0x40,0x00,0x00,0x3a,0x00,0x50,0x3c,0x3f,0x00,0x41,0x3f,0x00,0x38,0x3f,
0x82,0x08,0x38,0x00,0x00,0x41,0x00,0x00,0x3c,0x00,0x18,0x38,0x3f,0x00,0x3e,0x3f,
0x00,0x35,0x3f,0x83,0x48,0x35,0x00,0x00,0x3e,0x00,0x00,0x38,0x00,0x18,0x3a,0x3f,
0x00,0x3e,0x3f,0x00,0x37,0x3f,0x82,0x68,0x37,0x00,0x00,0x3e,0x00,0x00,0x3a,0x00,
0x18,0x3e,0x3f,0x00,0x41,0x3f,0x00,0x3a,0x3f,0x82,0x68,0x3a,0x00,0x00,0x41,0x00,
0x00,0x3e,0x00,0x18,0x41,0x3f,0x00,0x45,0x3f,0x00,0x3c,0x3f,0x82,0x68,0x3c,0x00,
0x00,0x45,0x00,0x00,0x41,0x00,0x18,0x45,0x3f,0x00,0x48,0x3f,0x00,0x42,0x3f,0x82,
0x68,0x42,0x00,0x00,0x48,0x00,0x00,0x45,0x00,0x18,0x46,0x3f,0x00,0x4b,0x3f,0x00,
0x43,0x3f,0x48,0x43,0x00,0x00,0x4b,0x00,0x00,0x46,0x00,0x78,0x4a,0x3f,0x00,0x42,
0x3f,0x48,0x42,0x00,0x00,0x4a,0x00,0x78,0x40,0x3f,0x00,0x44,0x3f,0x00,0x3b,0x3f,
0x60,0x3c,0x3f,0x00,0x45,0x3f,0x00,0x3a,0x3f,0x10,0x3b,0x00,0x00,0x40,0x00,0x00,
0x44,0x00,0x60,0x3c,0x00,0x00,0x45,0x00,0x00,0x3a,0x00,0x50,0x3c,0x3f,0x00,0x41,
0x3f,0x00,0x39,0x3f,0x48,0x39,0x00,0x00,0x41,0x00,0x00,0x3c,0x00,0x87,0x58,0x51,
0x51,0x00,0x45,0x51,0x81,0x28,0x45,0x00,0x00,0x51,0x00,0x81,0x58,0x51,0x51,0x00,
0x45,0x51,0x81,0x28,0x45,0x00,0x00,0x51,0x00,0x81,0x58,0x51,0x51,0x00,0x45,0x51,
0x81,0x28,0x45,0x00,0x00,0x51,0x00,0x81,0x58,0x51,0x51,0x00,0x45,0x51,0x81,0x28,
0x45,0x00,0x00,0x51,0x00,0x81,0x58,0x51,0x51,0x00,0x45,0x51,0x81,0x28,0x45,0x00,
0x00,0x51,0x00,0x81,0x58,0x51,0x51,0x00,0x45,0x51,0x81,0x28,0x45,0x00,0x00,0x51,
0x00,0x81,0x58,0x51,0x51,0x00,0x45,0x51,0x81,0x28,0x45,0x00,0x00,0x51,0x00,0x81,
0x58,0x51,0x51,0x00,0x45,0x51,0x81,0x28,0x45,0x00,0x00,0x51,0x00,0x81,0x58,0x51,
0x51,0x00,0x45,0x51,0x81,0x28,0x45,0x00,0x00,0x51,0x00,0x81,0x58,0x51,0x51,0x00,
0x45,0x51,0x81,0x28,0x45,0x00,0x00,0x51,0x00,0x81,0x58,0x51,0x51,0x00,0x45,0x51,
0x81,0x28,0x45,0x00,0x00,0x51,0x00,0x81,0x58,0x51,0x51,0x00,0x45,0x51,0x81,0x28,
0x45,0x00,0x00,0x51,0x00,0x81,0x58,0x51,0x51,0x00,0x45,0x51,0x81,0x28,0x45,0x00,
0x00,0x51,0x00,0x81,0x58,0x51,0x51,0x00,0x45,0x51,0x81,0x28,0x45,0x00,0x00,0x51,
0x00,0x81,0x58,0x4f,0x69,0x00,0x43,0x69,0x81,0x28,0x43,0x00,0x00,0x4f,0x00,0x81,
0x58,0x54,0x69,0x00,0x48,0x69,0x81,0x28,0x48,0x00,0x00,0x54,0x00,0x81,0x58,0x56,
0x51,0x00,0x4a,0x51,0x81,0x28,0x4a,0x00,0x00,0x56,0x00,0x81,0x58,0x56,0x51,0x00,
0x4a,0x51,0x81,0x28,0x4a,0x00,0x00,0x56,0x00,0x81,0x58,0x56,0x51,0x00,0x4a,0x51,
0x81,0x28,0x4a,0x00,0x00,0x56,0x00,0x81,0x58,0x56,0x51,0x00,0x4a,0x51,0x81,0x28,
0x4a,0x00,0x00,0x56,0x00,0x81,0x58,0x56,0x51,0x00,0x4a,0x51,0x81,0x28,0x4a,0x00,
0x00,0x56,0x00,0x81,0x58,0x56,0x51,0x00,0x4a,0x51,0x81,0x28,0x4a,0x00,0x00,0x56,
0x00,0x81,0x58,0x56,0x51,0x00,0x4a,0x51,0x81,0x28,0x4a,0x00,0x00,0x56,0x00,0x81,
0x58,0x56,0x51,0x00,0x4a,0x51,0x81,0x28,0x4a,0x00,0x00,0x56,0x00,0x81,0x58,0x59,
0x51,0x00,0x4d,0x51,0x81,0x28,0x4d,0x00,0x00,0x59,0x00,0x81,0x58,0x59,0x51,0x00,
0x4d,0x51,0x81,0x28,0x4d,0x00,0x00,0x59,0x00,0x81,0x58,0x59,0x51,0x00,0x4d,0x51,
0x81,0x28,0x4d,0x00,0x00,0x59,0x00,0x81,0x58,0x59,0x3f,0x00,0x4d,0x3f,0x81,0x28,
0x4d,0x00,0x00,0x59,0x00,0x83,0x18,0x54,0x69,0x00,0x48,0x69,0x81,0x28,0x48,0x00,
0x00,0x54,0x00,0x78,0x59,0x69,0x00,0x4d,0x69,0x85,0x08,0x4d,0x00,0x00,0x59,0x00,
0x81,0x58,0x41,0x69,0x00,0x3b,0x69,0x48,0x3b,0x00,0x00,0x41,0x00,0x81,0x58,0x44,
0x69,0x00,0x3e,0x69,0x81,0x28,0x3e,0x00,0x00,0x44,0x00,0x18,0x41,0x69,0x00,0x3b,
0x69,0x48,0x3b,0x00,0x00,0x41,0x00,0x18,0x43,0x69,0x00,0x3d,0x69,0x48,0x3d,0x00,
0x00,0x43,0x00,0x81,0x58,0x41,0x69,0x00,0x3b,0x69,0x48,0x3b,0x00,0x00,0x41,0x00,
0x18,0x44,0x69,0x00,0x3e,0x69,0x48,0x3e,0x00,0x00,0x44,0x00,0x18,0x41,0x69,0x00,
0x3b,0x69,0x48,0x3b,0x00,0x00,0x41,0x00,0x18,0x43,0x69,0x00,0x3d,0x69,0x48,0x3d,
0x00,0x00,0x43,0x00,0x18,0x41,0x69,0x00,0x3b,0x69,0x48,0x3b,0x00,0x00,0x41,0x00,
0x18,0x44,0x69,0x00,0x3e,0x69,0x48,0x3e,0x00,0x00,0x44,0x00,0x18,0x3e,0x69,0x00,
0x38,0x69,0x48,0x38,0x00,0x00,0x3e,0x00,0x18,0x41,0x69,0x00,0x3b,0x69,0x48,0x3b,
0x00,0x00,0x41,0x00,0x81,0x58,0x44,0x69,0x00,0x3e,0x69,0x81,0x28,0x3e,0x00,0x00,
0x44,0x00,0x18,0x41,0x69,0x00,0x3b,0x69,0x48,0x3b,0x00,0x00,0x41,0x00,0x18,0x43,
0x69,0x00,0x3d,0x69,0x48,0x3d,0x00,0x00,0x43,0x00,0x81,0x58,0x41,0x69,0x00,0x3b,
0x69,0x48,0x3b,0x00,0x00,0x41,0x00,0x18,0x44,0x69,0x00,0x3e,0x69,0x48,0x3e,0x00,
0x00,0x44,0x00,0x18,0x41,0x69,0x00,0x3b,0x69,0x48,0x3b,0x00,0x00,0x41,0x00,0x18,
0x43,0x69,0x00,0x3d,0x69,0x48,0x3d,0x00,0x00,0x43,0x00,0x18,0x41,0x69,0x00,0x3b,
0x69,0x48,0x3b,0x00,0x00,0x41,0x00,0x18,0x44,0x69,0x00,0x3e,0x69,0x48,0x3e,0x00,
0x00,0x44,0x00,0x18,0x3e,0x69,0x00,0x38,0x69,0x48,0x38,0x00,0x00,0x3e,0x00,0x18,
0x41,0x69,0x00,0x3b,0x69,0x48,0x3b,0x00,0x00,0x41,0x00,0x81,0x58,0x44,0x69,0x00,
0x3e,0x69,0x81,0x28,0x3e,0x00,0x00,0x44,0x00,0x18,0x41,0x69,0x00,0x3b,0x69,0x48,
0x3b,0x00,0x00,0x41,0x00,0x18,0x43,0x69,0x00,0x3d,0x69,0x48,0x3d,0x00,0x00,0x43,
0x00,0x81,0x58,0x41,0x69,0x00,0x3b,0x69,0x48,0x3b,0x00,0x00,0x41,0x00,0x18,0x44,
0x69,0x00,0x3e,0x69,0x48,0x3e,0x00,0x00,0x44,0x00,0x18,0x41,0x69,0x00,0x3b,0x69,
0x48,0x3b,0x00,0x00,0x41,0x00,0x18,0x43,0x69,0x00,0x3d,0x69,0x48,0x3d,0x00,0x00,
0x43,0x00,0x18,0x41,0x69,0x00,0x3b,0x69,0x48,0x3b,0x00,0x00,0x41,0x00,0x18,0x44,
0x69,0x00,0x3e,0x69,0x48,0x3e,0x00,0x00,0x44,0x00,0x18,0x3e,0x69,0x00,0x38,0x69,
0x48,0x38,0x00,0x00,0x3e,0x00,0x18,0x41,0x69,0x00,0x3b,0x69,0x48,0x3b,0x00,0x00,
0x41,0x00,0x18,0x41,0x69,0x00,0x3b,0x69,0x48,0x3b,0x00,0x00,0x41,0x00,0x18,0x44,
0x69,0x00,0x3e,0x69,0x48,0x3e,0x00,0x00,0x44,0x00,0x18,0x41,0x69,0x00,0x3b,0x69,
0x48,0x3b,0x00,0x00,0x41,0x00,0x18,0x43,0x69,0x00,0x3d,0x69,0x48,0x3d,0x00,0x00,
0x43,0x00,0x18,0x41,0x69,0x00,0x3b,0x69,0x48,0x3b,0x00,0x00,0x41,0x00,0x18,0x44,
0x69,0x00,0x3e,0x69,0x48,0x3e,0x00,0x00,0x44,0x00,0x18,0x3e,0x69,0x00,0x38,0x69,
0x48,0x38,0x00,0x00,0x3e,0x00,0x18,0x43,0x69,0x00,0x3d,0x69,0x48,0x3d,0x00,0x00,
0x43,0x00,0x18,0x41,0x69,0x00,0x3b,0x69,0x48,0x3b,0x00,0x00,0x41,0x00,0x18,0x44,
0x69,0x00,0x3e,0x69,0x48,0x3e,0x00,0x00,0x44,0x00,0x18,0x41,0x69,0x00,0x3b,0x69,
0x48,0x3b,0x00,0x00,0x41,0x00,0x18,0x43,0x69,0x00,0x3d,0x69,0x48,0x3d,0x00,0x00,
0x43,0x00,0x18,0x41,0x69,0x00,0x3b,0x69,0x48,0x3b,0x00,0x00,0x41,0x00,0x18,0x44,
0x69,0x00,0x3e,0x69,0x48,0x3e,0x00,0x00,0x44,0x00,0x18,0x41,0x69,0x00,0x3b,0x69,
0x48,0x3b,0x00,0x00,0x41,0x00,0x18,0x41,0x69,0x00,0x3b,0x69,0x48,0x3b,0x00,0x00,
0x41,0x00,0x81,0x58,0x44,0x69,0x00,0x3e,0x69,0x81,0x28,0x3e,0x00,0x00,0x44,0x00,
0x18,0x41,0x69,0x00,0x3b,0x69,0x48,0x3b,0x00,0x00,0x41,0x00,0x18,0x43,0x69,0x00,
0x3d,0x69,0x48,0x3d,0x00,0x00,0x43,0x00,0x81,0x58,0x41,0x69,0x00,0x3b,0x69,0x48,
0x3b,0x00,0x00,0x41,0x00,0x18,0x44,0x69,0x00,0x3e,0x69,0x48,0x3e,0x00,0x00,0x44,
0x00,0x18,0x41,0x69,0x00,0x3b,0x69,0x48,0x3b,0x00,0x00,0x41,0x00,0x18,0x43,0x69,
0x00,0x3d,0x69,0x48,0x3d,0x00,0x00,0x43,0x00,0x18,0x41,0x69,0x00,0x3b,0x69,0x48,
0x3b,0x00,0x00,0x41,0x00,0x18,0x44,0x69,0x00,0x3e,0x69,0x48,0x3e,0x00,0x00,0x44,
0x00,0x18,0x3e,0x69,0x00,0x38,0x69,0x48,0x38,0x00,0x00,0x3e,0x00,0x18,0x41,0x69,
0x00,0x3b,0x69,0x48,0x3b,0x00,0x00,0x41,0x00,0x81,0x58,0x44,0x69,0x00,0x3e,0x69,
0x81,0x28,0x3e,0x00,0x00,0x44,0x00,0x18,0x41,0x69,0x00,0x3b,0x69,0x48,0x3b,0x00,
0x00,0x41,0x00,0x18,0x43,0x69,0x00,0x3d,0x69,0x48,0x3d,0x00,0x00,0x43,0x00,0x81,
0x58,0x41,0x69,0x00,0x3b,0x69,0x48,0x3b,0x00,0x00,0x41,0x00,0x18,0x44,0x69,0x00,
0x3e,0x69,0x48,0x3e,0x00,0x00,0x44,0x00,0x18,0x41,0x69,0x00,0x3b,0x69,0x48,0x3b,
0x00,0x00,0x41,0x00,0x18,0x43,0x69,0x00,0x3d,0x69,0x48,0x3d,0x00,0x00,0x43,0x00,
0x18,0x41,0x69,0x00,0x3b,0x69,0x48,0x3b,0x00,0x00,0x41,0x00,0x18,0x44,0x69,0x00,
0x3e,0x69,0x48,0x3e,0x00,0x00,0x44,0x00,0x18,0x3e,0x69,0x00,0x38,0x69,0x48,0x38,
0x00,0x00,0x3e,0x00,0x18,0x41,0x69,0x00,0x3b,0x69,0x48,0x3b,0x00,0x00,0x41,0x00,
0x81,0x58,0x44,0x69,0x00,0x3e,0x69,0x81,0x28,0x3e,0x00,0x00,0x44,0x00,0x18,0x41,
0x69,0x00,0x3b,0x69,0x48,0x3b,0x00,0x00,0x41,0x00,0x18,0x43,0x69,0x00,0x3d,0x69,
0x48,0x3d,0x00,0x00,0x43,0x00,0x81,0x58,0x41,0x69,0x00,0x3b,0x69,0x48,0x3b,0x00,
0x00,0x41,0x00,0x18,0x44,0x69,0x00,0x3e,0x69,0x48,0x3e,0x00,0x00,0x44,0x00,0x18,
0x41,0x69,0x00,0x3b,0x69,0x48,0x3b,0x00,0x00,0x41,0x00,0x18,0x43,0x69,0x00,0x3d,
0x69,0x48,0x3d,0x00,0x00,0x43,0x00,0x18,0x41,0x69,0x00,0x3b,0x69,0x48,0x3b,0x00,
0x00,0x41,0x00,0x18,0x44,0x69,0x00,0x3e,0x69,0x48,0x3e,0x00,0x00,0x44,0x00,0x18,
0x3e,0x69,0x00,0x38,0x69,0x48,0x38,0x00,0x00,0x3e,0x00,0x18,0x41,0x69,0x00,0x3b,
0x69,0x48,0x3b,0x00,0x00,0x41,0x00,0x18,0x41,0x69,0x00,0x3b,0x69,0x48,0x3b,0x00,
0x00,0x41,0x00,0x18,0x44,0x69,0x00,0x3e,0x69,0x48,0x3e,0x00,0x00,0x44,0x00,0x18,
0x41,0x69,0x00,0x3b,0x69,0x48,0x3b,0x00,0x00,0x41,0x00,0x18,0x44,0x69,0x00,0x3e,
0x69,0x48,0x3e,0x00,0x00,0x44,0x00,0x18,0x44,0x69,0x00,0x3e,0x69,0x81,0x28,0x3e,
0x00,0x00,0x44,0x00,0x18,0x41,0x69,0x00,0x3b,0x69,0x82,0x08,0x3b,0x00,0x00,0x41,
0x00,0x82,0xe0,0x58,0x49,0x69,0x81,0x28,0x49,0x00,0x18,0x46,0x69,0x81,0x28,0x46,
0x00,0x18,0x4f,0x69,0x81,0x28,0x4f,0x00,0x81,0x58,0x55,0x69,0x48,0x55,0x00,0x18,
0x55,0x69,0x81,0x28,0x55,0x00,0x18,0x55,0x69,0x81,0x28,0x55,0x00,0xb2,0x38,0x41,
0x3f,0x00,0x45,0x3f,0x00,0x3e,0x3f,0x48,0x3e,0x00,0x00,0x45,0x00,0x00,0x41,0x00,
0x78,0x45,0x3f,0x00,0x4a,0x3f,0x00,0x41,0x3f,0x48,0x41,0x00,0x00,0x4a,0x00,0x00,
0x45,0x00,0x78,0x41,0x3f,0x00,0x45,0x3f,0x00,0x3e,0x3f,0x48,0x3e,0x00,0x00,0x45,
0x00,0x00,0x41,0x00,0x78,0x45,0x3f,0x00,0x4a,0x3f,0x00,0x41,0x3f,0x48,0x41,0x00,
0x00,0x4a,0x00,0x00,0x45,0x00,0x78,0x41,0x3f,0x00,0x45,0x3f,0x00,0x3e,0x3f,0x60,
0x45,0x3f,0x00,0x4a,0x3f,0x00,0x41,0x3f,0x00,0x45,0x00,0x00,0x41,0x00,0x10,0x3e,
0x00,0x00,0x45,0x00,0x00,0x41,0x00,0x60,0x4a,0x00,0x50,0x41,0x3f,0x00,0x45,0x3f,
0x00,0x3e,0x3f,0x81,0x40,0x44,0x3f,0x00,0x40,0x3f,0x10,0x3e,0x00,0x00,0x41,0x00,
0x00,0x45,0x00,0x50,0x41,0x3f,0x00,0x45,0x3f,0x00,0x3e,0x3f,0x10,0x44,0x00,0x00,
0x40,0x00,0x60,0x45,0x00,0x00,0x41,0x00,0x00,0x3e,0x00,0x50,0x41,0x2f,0x00,0x45,
0x2f,0x00,0x3e,0x2f,0x60,0x40,0x2f,0x00,0x44,0x2f,0x00,0x3d,0x2f,0x18,0x3e,0x00,
0x00,0x41,0x00,0x00,0x45,0x00,0x48,0x41,0x2f,0x00,0x45,0x2f,0x00,0x3e,0x2f,0x10,
0x40,0x00,0x00,0x3d,0x00,0x00,0x44,0x00,0x50,0x40,0x2f,0x00,0x43,0x2f,0x00,0x3c,
0x2f,0x10,0x41,0x00,0x00,0x3e,0x00,0x00,0x45,0x00,0x60,0x40,0x00,0x00,0x43,0x00,
0x00,0x3c,0x00,0x50,0x3f,0x2f,0x00,0x42,0x2f,0x00,0x3b,0x2f,0x60,0x40,0x2f,0x00,
0x43,0x2f,0x00,0x3c,0x2f,0x10,0x3b,0x00,0x00,0x3f,0x00,0x00,0x42,0x00,0x50,0x3d,
0x2f,0x00,0x41,0x2f,0x00,0x3a,0x2f,0x10,0x40,0x00,0x00,0x3c,0x00,0x00,0x43,0x00,
0x38,0x3d,0x00,0x00,0x41,0x00,0x00,0x3a,0x00,0x18,0x3c,0x2f,0x00,0x41,0x2f,0x00,
0x39,0x2f,0x82,0x08,0x39,0x00,0x00,0x41,0x00,0x00,0x3c,0x00,0x18,0x39,0x1f,0x00,
0x3e,0x1f,0x00,0x35,0x1f,0x83,0x48,0x35,0x00,0x00,0x3e,0x00,0x00,0x39,0x00,0x18,
0x41,0x1f,0x00,0x45,0x1f,0x00,0x3e,0x1f,0x48,0x3e,0x00,0x00,0x45,0x00,0x00,0x41,
0x00,0x78,0x45,0x1f,0x00,0x4a,0x1f,0x00,0x41,0x1f,0x48,0x41,0x00,0x00,0x4a,0x00,
0x00,0x45,0x00,0x78,0x41,0x1f,0x00,0x45,0x1f,0x00,0x3e,0x1f,0x48,0x3e,0x00,0x00,
0x45,0x00,0x00,0x41,0x00,0x78,0x45,0x1f,0x00,0x4a,0x1f,0x00,0x41,0x1f,0x48,0x41,
0x00,0x00,0x4a,0x00,0x00,0x45,0x00,0x78,0x41,0x1f,0x00,0x45,0x1f,0x00,0x3e,0x1f,
0x60,0x45,0x1f,0x00,0x4a,0x1f,0x00,0x41,0x1f,0x00,0x45,0x00,0x00,0x41,0x00,0x18,
0x3e,0x00,0x00,0x45,0x00,0x00,0x41,0x00,0x58,0x4a,0x00,0x50,0x41,0x1f,0x00,0x45,
0x1f,0x00,0x3e,0x1f,0x81,0x40,0x44,0x1f,0x00,0x40,0x1f,0x10,0x3e,0x00,0x00,0x41,
0x00,0x00,0x45,0x00,0x50,0x41,0x1f,0x00,0x45,0x1f,0x00,0x3e,0x1f,0x10,0x44,0x00,
0x00,0x40,0x00,0x60,0x45,0x00,0x00,0x41,0x00,0x00,0x3e,0x00,0x50,0x3e,0x1f,0x00,
0x43,0x1f,0x00,0x3b,0x1f,0x48,0x3b,0x00,0x00,0x43,0x00,0x00,0x3e,0x00,0x78,0x3e,
0x1f,0x00,0x43,0x1f,0x00,0x3b,0x1f,0x82,0x20,0x3d,0x1f,0x00,0x42,0x1f,0x00,0x3a,
0x1f,0x10,0x3b,0x00,0x00,0x3e,0x00,0x00,0x43,0x00,0x50,0x3e,0x1f,0x00,0x43,0x1f,
0x00,0x3b,0x1f,0x10,0x3d,0x00,0x00,0x3a,0x00,0x00,0x42,0x00,0x60,0x3e,0x00,0x00,
0x43,0x00,0x00,0x3b,0x00,0x50,0x43,0x1f,0x00,0x48,0x1f,0x00,0x40,0x1f,0x48,0x40,
0x00,0x00,0x48,0x00,0x00,0x43,0x00,0x18,0x41,0x1f,0x00,0x46,0x1f,0x00,0x3e,0x1f,
0x81,0x28,0x3e,0x00,0x00,0x46,0x00,0x00,0x41,0x00,0x18,0x40,0x1f,0x00,0x45,0x1f,
0x00,0x3c,0x1f,0x81,0x28,0x3c,0x00,0x00,0x45,0x00,0x00,0x40,0x00,0x18,0x3e,0x1f,
0x00,0x43,0x1f,0x00,0x3a,0x1f,0x82,0x08,0x3a,0x00,0x00,0x43,0x00,0x00,0x3e,0x00,
0x18,0x41,0x13,0x00,0x45,0x13,0x00,0x3e,0x13,0x48,0x3e,0x00,0x00,0x45,0x00,0x00,
0x41,0x00,0x78,0x45,0x13,0x00,0x4a,0x13,0x00,0x41,0x13,0x48,0x41,0x00,0x00,0x4a,
0x00,0x00,0x45,0x00,0x78,0x41,0x13,0x00,0x45,0x13,0x00,0x3e,0x13,0x48,0x3e,0x00,
0x00,0x45,0x00,0x00,0x41,0x00,0x78,0x45,0x13,0x00,0x4a,0x13,0x00,0x41,0x13,0x48,
0x41,0x00,0x00,0x4a,0x00,0x00,0x45,0x00,0x78,0x41,0x13,0x00,0x45,0x13,0x00,0x3e,
0x13,0x60,0x45,0x13,0x00,0x4a,0x13,0x00,0x41,0x13,0x00,0x45,0x00,0x00,0x41,0x00,
0x18,0x3e,0x00,0x00,0x45,0x00,0x00,0x41,0x00,0x58,0x4a,0x00,0x50,0x41,0x13,0x00,
0x45,0x13,0x00,0x3e,0x13,0x81,0x40,0x44,0x13,0x00,0x40,0x13,0x10,0x3e,0x00,0x00,
0x41,0x00,0x00,0x45,0x00,0x50,0x41,0x13,0x00,0x45,0x13,0x00,0x3e,0x13,0x10,0x44,
0x00,0x00,0x40,0x00,0x60,0x45,0x00,0x00,0x41,0x00,0x00,0x3e,0x00,0x50,0x43,0x13,
0x00,0x48,0x13,0x00,0x40,0x13,0x48,0x40,0x00,0x00,0x48,0x00,0x00,0x43,0x00,0x78,
0x43,0x13,0x00,0x48,0x13,0x00,0x40,0x13,0x82,0x20,0x45,0x13,0x00,0x3c,0x13,0x10,
0x40,0x00,0x00,0x43,0x00,0x00,0x48,0x00,0x50,0x40,0x13,0x00,0x43,0x13,0x00,0x3a,
0x13,0x10,0x45,0x00,0x00,0x3c,0x00,0x60,0x43,0x00,0x00,0x40,0x00,0x00,0x3a,0x00,
0x50,0x3c,0x13,0x00,0x41,0x13,0x00,0x38,0x13,0x82,0x08,0x38,0x00,0x00,0x41,0x00,
0x00,0x3c,0x00,0x18,0x38,0x0a,0x00,0x3e,0x0a,0x00,0x35,0x0a,0x83,0x48,0x35,0x00,
0x00,0x3e,0x00,0x00,0x38,0x00,0x18,0x3a,0x0a,0x00,0x3e,0x0a,0x00,0x37,0x0a,0x82,
0x68,0x37,0x00,0x00,0x3e,0x00,0x00,0x3a,0x00,0x18,0x3e,0x0a,0x00,0x41,0x0a,0x00,
0x3a,0x0a,0x82,0x68,0x3a,0x00,0x00,0x41,0x00,0x00,0x3e,0x00,0x18,0x41,0x0a,0x00,
0x45,0x0a,0x00,0x3c,0x0a,0x82,0x68,0x3c,0x00,0x00,0x45,0x00,0x00,0x41,0x00,0x18,
0x45,0x0a,0x00,0x48,0x0a,0x00,0x42,0x0a,0x82,0x68,0x42,0x00,0x00,0x48,0x00,0x00,
0x45,0x00,0x18,0x46,0x0a,0x00,0x4b,0x0a,0x00,0x43,0x0a,0x48,0x43,0x00,0x00,0x4b,
0x00,0x00,0x46,0x00,0x78,0x4a,0x0a,0x00,0x42,0x0a,0x48,0x42,0x00,0x00,0x4a,0x00,
0x78,0x40,0x0a,0x00,0x44,0x0a,0x00,0x3b,0x0a,0x60,0x3c,0x0a,0x00,0x45,0x0a,0x00,
0x3a,0x0a,0x10,0x3b,0x00,0x00,0x40,0x00,0x00,0x44,0x00,0x60,0x3c,0x00,0x00,0x45,
0x00,0x00,0x3a,0x00,0x50,0x3c,0x0a,0x00,0x41,0x0a,0x00,0x39,0x0a,0x81,0x28,0x39,
0x00,0x00,0x41,0x00,0x00,0x3c,0x00,0x82,0x38,0x4d,0x0a,0x00,0x41,0x0a,0x82,0x08,
0x41,0x00,0x00,0x4d,0x00,0x00,0xff,0x2f,0x00,0x4d,0x54,0x72,0x6b,0x00,0x00,0x09,
0x47,0x00,0xff,0x03,0x0a,0x43,0x6c,0x61,0x72,0x69,0x6e,0x65,0x74,0x20,0x31,0x00,
0xff,0x04,0x0b,0x43,0x68,0x20,0x20,0x36,0x20,0x4d,0x54,0x2d,0x33,0x32,0x00,0xc5,
0x52,0x81,0xc0,0x00,0x95,0x32,0x51,0x48,0x32,0x00,0x78,0x30,0x51,0x48,0x30,0x00,
0x78,0x2e,0x51,0x48,0x2e,0x00,0x78,0x2d,0x51,0x48,0x2d,0x00,0x78,0x2b,0x51,0x48,
0x2b,0x00,0x78,0x29,0x51,0x48,0x29,0x00,0x78,0x28,0x51,0x48,0x28,0x00,0x78,0x26,
0x51,0x48,0x26,0x00,0x78,0x32,0x51,0x50,0x32,0x00,0x70,0x30,0x51,0x48,0x30,0x00,
0x78,0x2e,0x51,0x48,0x2e,0x00,0x78,0x2d,0x51,0x48,0x2d,0x00,0x78,0x2b,0x51,0x48,
0x2b,0x00,0x78,0x29,0x51,0x48,0x29,0x00,0x78,0x28,0x51,0x48,0x28,0x00,0x78,0x26,
0x51,0x48,0x26,0x00,0x78,0x32,0x51,0x50,0x32,0x00,0x70,0x30,0x51,0x48,0x30,0x00,
0x78,0x2e,0x51,0x48,0x2e,0x00,0x78,0x2d,0x51,0x48,0x2d,0x00,0x78,0x2b,0x51,0x48,
0x2b,0x00,0x78,0x29,0x51,0x48,0x29,0x00,0x78,0x28,0x51,0x48,0x28,0x00,0x78,0x2e,
0x51,0x48,0x2e,0x00,0x78,0x35,0x51,0x48,0x35,0x00,0x18,0x35,0x51,0x48,0x35,0x00,
0x18,0x38,0x51,0x48,0x38,0x00,0x18,0x35,0x51,0x48,0x35,0x00,0x18,0x37,0x51,0x48,
0x37,0x00,0x18,0x35,0x51,0x48,0x35,0x00,0x18,0x38,0x51,0x48,0x38,0x00,0x18,0x35,
0x51,0x48,0x35,0x00,0x18,0x37,0x51,0x48,0x37,0x00,0x18,0x35,0x51,0x48,0x35,0x00,
0x18,0x38,0x51,0x48,0x38,0x00,0x18,0x35,0x51,0x48,0x35,0x00,0x18,0x37,0x51,0x48,
0x37,0x00,0x18,0x35,0x51,0x48,0x35,0x00,0x18,0x38,0x51,0x48,0x38,0x00,0x18,0x35,
0x51,0x48,0x35,0x00,0x18,0x32,0x51,0x48,0x32,0x00,0x78,0x30,0x51,0x48,0x30,0x00,
0x78,0x2e,0x51,0x48,0x2e,0x00,0x78,0x2d,0x51,0x48,0x2d,0x00,0x78,0x2b,0x51,0x48,
0x2b,0x00,0x78,0x29,0x51,0x48,0x29,0x00,0x78,0x28,0x51,0x48,0x28,0x00,0x78,0x26,
0x51,0x48,0x26,0x00,0x78,0x32,0x51,0x48,0x32,0x00,0x78,0x30,0x51,0x48,0x30,0x00,
0x78,0x2e,0x51,0x48,0x2e,0x00,0x78,0x2d,0x51,0x48,0x2d,0x00,0x78,0x2b,0x51,0x48,
0x2b,0x00,0x78,0x29,0x51,0x48,0x29,0x00,0x78,0x28,0x51,0x48,0x28,0x00,0x78,0x26,
0x51,0x48,0x26,0x00,0x78,0x32,0x51,0x48,0x32,0x00,0x78,0x30,0x51,0x48,0x30,0x00,
0x78,0x2e,0x51,0x48,0x2e,0x00,0x78,0x2d,0x51,0x48,0x2d,0x00,0x78,0x2b,0x51,0x48,
0x2b,0x00,0x78,0x29,0x51,0x48,0x29,0x00,0x78,0x28,0x51,0x48,0x28,0x00,0x78,0x26,
0x51,0x48,0x26,0x00,0x78,0x32,0x51,0x48,0x32,0x00,0x78,0x2e,0x51,0x48,0x2e,0x00,
0x78,0x2d,0x51,0x48,0x2d,0x00,0x78,0x2b,0x51,0x48,0x2b,0x00,0x78,0x32,0x51,0x81,
0x28,0x32,0x00,0x81,0xc4,0x58,0x32,0x51,0x48,0x32,0x00,0x78,0x30,0x51,0x48,0x30,
0x00,0x78,0x2e,0x51,0x48,0x2e,0x00,0x78,0x2d,0x51,0x48,0x2d,0x00,0x78,0x2b,0x51,
0x48,0x2b,0x00,0x78,0x29,0x51,0x48,0x29,0x00,0x78,0x28,0x51,0x48,0x28,0x00,0x78,
0x26,0x51,0x48,0x26,0x00,0x78,0x32,0x51,0x48,0x32,0x00,0x78,0x30,0x51,0x48,0x30,
0x00,0x78,0x2e,0x51,0x48,0x2e,0x00,0x78,0x2d,0x51,0x48,0x2d,0x00,0x78,0x2b,0x51,
0x48,0x2b,0x00,0x78,0x29,0x51,0x48,0x29,0x00,0x78,0x28,0x51,0x48,0x28,0x00,0x78,
0x26,0x51,0x48,0x26,0x00,0x78,0x32,0x51,0x48,0x32,0x00,0x78,0x30,0x51,0x48,0x30,
0x00,0x78,0x2e,0x51,0x48,0x2e,0x00,0x78,0x2d,0x51,0x48,0x2d,0x00,0x78,0x2b,0x51,
0x48,0x2b,0x00,0x78,0x29,0x51,0x48,0x29,0x00,0x78,0x28,0x51,0x48,0x28,0x00,0x78,
0x2e,0x51,0x48,0x2e,0x00,0x78,0x35,0x51,0x48,0x35,0x00,0x18,0x35,0x51,0x48,0x35,
0x00,0x18,0x38,0x51,0x48,0x38,0x00,0x18,0x35,0x51,0x48,0x35,0x00,0x18,0x37,0x51,
0x48,0x37,0x00,0x18,0x35,0x51,0x48,0x35,0x00,0x18,0x38,0x51,0x48,0x38,0x00,0x18,
0x35,0x51,0x48,0x35,0x00,0x18,0x37,0x51,0x48,0x37,0x00,0x18,0x35,0x51,0x48,0x35,
0x00,0x18,0x38,0x51,0x48,0x38,0x00,0x18,0x35,0x51,0x48,0x35,0x00,0x18,0x37,0x51,
0x48,0x37,0x00,0x18,0x35,0x51,0x48,0x35,0x00,0x18,0x38,0x51,0x48,0x38,0x00,0x18,
0x35,0x51,0x48,0x35,0x00,0x18,0x32,0x51,0x48,0x32,0x00,0x78,0x30,0x51,0x48,0x30,
0x00,0x78,0x2e,0x51,0x48,0x2e,0x00,0x78,0x2d,0x51,0x48,0x2d,0x00,0x78,0x2b,0x51,
0x48,0x2b,0x00,0x78,0x29,0x51,0x48,0x29,0x00,0x78,0x28,0x51,0x48,0x28,0x00,0x78,
0x26,0x51,0x48,0x26,0x00,0x78,0x32,0x51,0x48,0x32,0x00,0x78,0x30,0x51,0x48,0x30,
0x00,0x78,0x2e,0x51,0x48,0x2e,0x00,0x78,0x2d,0x51,0x48,0x2d,0x00,0x78,0x2b,0x51,
0x48,0x2b,0x00,0x78,0x29,0x51,0x48,0x29,0x00,0x78,0x28,0x51,0x48,0x28,0x00,0x78,
0x26,0x51,0x48,0x26,0x00,0x78,0x32,0x51,0x48,0x32,0x00,0x78,0x30,0x51,0x48,0x30,
0x00,0x78,0x2e,0x51,0x48,0x2e,0x00,0x78,0x2d,0x51,0x48,0x2d,0x00,0x78,0x2b,0x51,
0x48,0x2b,0x00,0x78,0x29,0x51,0x48,0x29,0x00,0x78,0x28,0x51,0x48,0x28,0x00,0x78,
0x26,0x51,0x48,0x26,0x00,0x78,0x32,0x51,0x48,0x32,0x00,0x78,0x2e,0x51,0x48,0x2e,
0x00,0x78,0x2d,0x51,0x48,0x2d,0x00,0x78,0x2b,0x51,0x48,0x2b,0x00,0x78,0x32,0x51,
0x81,0x28,0x32,0x00,0xe6,0x18,0x40,0x3f,0x81,0x28,0x40,0x00,0x18,0x3e,0x3f,0x82,
0x68,0x3e,0x00,0x18,0x3c,0x3f,0x82,0x68,0x3c,0x00,0x78,0x46,0x3f,0x82,0x08,0x46,
0x00,0x18,0x45,0x3f,0x82,0x68,0x45,0x00,0x18,0x43,0x3f,0x82,0x68,0x43,0x00,0x18,
0x41,0x3f,0x82,0x68,0x41,0x00,0x78,0x41,0x3f,0x48,0x41,0x00,0x81,0x58,0x40,0x3f,
0x82,0x68,0x40,0x00,0x18,0x3e,0x3f,0x82,0x68,0x3e,0x00,0x18,0x3c,0x3f,0x83,0x48,
0x3c,0x00,0x18,0x46,0x3f,0x82,0x08,0x46,0x00,0x18,0x45,0x3f,0x82,0x68,0x45,0x00,
0x18,0x43,0x3f,0x82,0x68,0x43,0x00,0x18,0x42,0x3f,0x82,0x68,0x42,0x00,0x83,0x18,
0x32,0x3f,0x48,0x32,0x00,0x18,0x35,0x3f,0x48,0x35,0x00,0x18,0x3a,0x3f,0x48,0x3a,
0x00,0x81,0x58,0x3a,0x3f,0x82,0x08,0x3a,0x00,0x18,0x32,0x3f,0x48,0x32,0x00,0x18,
0x35,0x3f,0x48,0x35,0x00,0x18,0x3b,0x3f,0x48,0x3b,0x00,0x81,0x58,0x3e,0x3f,0x82,
0x08,0x3e,0x00,0x18,0x35,0x3f,0x48,0x35,0x00,0x18,0x39,0x3f,0x48,0x39,0x00,0x18,
0x3c,0x3f,0x48,0x3c,0x00,0x78,0x3d,0x3f,0x82,0x08,0x3d,0x00,0x78,0x3e,0x3f,0x81,
0x28,0x3e,0x00,0x82,0x38,0x3e,0x3f,0x48,0x3e,0x00,0x81,0x58,0x41,0x51,0x60,0x45,
0x51,0x10,0x41,0x00,0x50,0x3e,0x51,0x10,0x45,0x00,0x50,0x41,0x51,0x10,0x3e,0x00,
0x50,0x3a,0x51,0x10,0x41,0x00,0x50,0x3e,0x51,0x10,0x3a,0x00,0x50,0x37,0x51,0x10,
0x3e,0x00,0x50,0x3a,0x51,0x10,0x37,0x00,0x50,0x40,0x51,0x10,0x3a,0x00,0x50,0x43,
0x51,0x10,0x40,0x00,0x50,0x3c,0x51,0x10,0x43,0x00,0x50,0x40,0x51,0x10,0x3c,0x00,
0x50,0x3a,0x51,0x10,0x40,0x00,0x50,0x3c,0x51,0x10,0x3a,0x00,0x50,0x37,0x51,0x10,
0x3c,0x00,0x50,0x3c,0x51,0x10,0x37,0x00,0x50,0x35,0x51,0x10,0x3c,0x00,0x38,0x35,
0x00,0x18,0x3c,0x51,0x48,0x3c,0x00,0x81,0x58,0x35,0x51,0x48,0x35,0x00,0x18,0x3d,
0x51,0x48,0x3d,0x00,0x81,0x58,0x41,0x51,0x81,0x28,0x41,0x00,0xe9,0x18,0x31,0x51,
0x60,0x35,0x51,0x10,0x31,0x00,0x38,0x35,0x00,0x18,0x38,0x51,0x60,0x39,0x51,0x10,
0x38,0x00,0x50,0x3a,0x51,0x10,0x39,0x00,0x50,0x3b,0x51,0x10,0x3a,0x00,0x50,0x3c,
0x51,0x10,0x3b,0x00,0x60,0x3c,0x00,0x8d,0x30,0x3c,0x51,0x60,0x3d,0x51,0x10,0x3c,
0x00,0x50,0x34,0x51,0x10,0x3d,0x00,0x50,0x3d,0x51,0x10,0x34,0x00,0x82,0x10,0x34,
0x51,0x10,0x3d,0x00,0x50,0x3d,0x51,0x10,0x34,0x00,0x38,0x3d,0x00,0x18,0x34,0x51,
0x48,0x34,0x00,0x18,0x3d,0x51,0x60,0x34,0x51,0x10,0x3d,0x00,0x50,0x3d,0x51,0x10,
0x34,0x00,0x50,0x34,0x51,0x10,0x3d,0x00,0x50,0x33,0x51,0x10,0x34,0x00,0x50,0x3c,
0x51,0x10,0x33,0x00,0x60,0x3c,0x00,0x50,0x3c,0x51,0x60,0x3d,0x51,0x10,0x3c,0x00,
0x50,0x34,0x51,0x10,0x3d,0x00,0x50,0x3d,0x51,0x10,0x34,0x00,0x82,0x10,0x34,0x51,
0x10,0x3d,0x00,0x50,0x3d,0x51,0x10,0x34,0x00,0x38,0x3d,0x00,0x18,0x34,0x51,0x48,
0x34,0x00,0x18,0x3d,0x51,0x60,0x34,0x51,0x10,0x3d,0x00,0x50,0x3d,0x51,0x10,0x34,
0x00,0x50,0x34,0x51,0x10,0x3d,0x00,0x50,0x33,0x51,0x10,0x34,0x00,0x50,0x3c,0x51,
0x10,0x33,0x00,0x60,0x3c,0x00,0x50,0x3c,0x51,0x60,0x3d,0x51,0x10,0x3c,0x00,0x50,
0x34,0x51,0x10,0x3d,0x00,0x50,0x3d,0x51,0x10,0x34,0x00,0x82,0x10,0x34,0x51,0x10,
0x3d,0x00,0x50,0x3d,0x51,0x10,0x34,0x00,0x38,0x3d,0x00,0x18,0x34,0x51,0x48,0x34,
0x00,0x18,0x3d,0x51,0x60,0x34,0x51,0x10,0x3d,0x00,0x50,0x3d,0x51,0x10,0x34,0x00,
0x50,0x34,0x51,0x10,0x3d,0x00,0x50,0x33,0x51,0x10,0x34,0x00,0x50,0x3c,0x51,0x10,
0x33,0x00,0x60,0x3c,0x00,0x81,0x30,0x38,0x51,0x00,0x3a,0x51,0x00,0x31,0x51,0x60,
0x3c,0x51,0x00,0x3d,0x51,0x00,0x36,0x51,0x10,0x31,0x00,0x00,0x38,0x00,0x00,0x3a,
0x00,0x60,0x3c,0x00,0x00,0x3d,0x00,0x00,0x36,0x00,0x81,0x30,0x3c,0x51,0x00,0x34,
0x51,0x60,0x40,0x51,0x00,0x37,0x51,0x10,0x34,0x00,0x00,0x3c,0x00,0x60,0x40,0x00,
0x00,0x37,0x00,0x88,0x70,0x39,0x51,0x18,0x3a,0x51,0x10,0x39,0x00,0x08,0x39,0x51,
0x10,0x3a,0x00,0x08,0x3a,0x51,0x10,0x39,0x00,0x08,0x39,0x51,0x10,0x3a,0x00,0x08,
0x3a,0x51,0x10,0x39,0x00,0x08,0x39,0x51,0x10,0x3a,0x00,0x08,0x3a,0x51,0x10,0x39,
0x00,0x08,0x39,0x51,0x10,0x3a,0x00,0x08,0x3a,0x51,0x10,0x39,0x00,0x08,0x39,0x51,
0x10,0x3a,0x00,0x08,0x3a,0x51,0x10,0x39,0x00,0x08,0x39,0x51,0x10,0x3a,0x00,0x08,
0x3a,0x51,0x10,0x39,0x00,0x08,0x39,0x51,0x10,0x3a,0x00,0x08,0x3a,0x51,0x10,0x39,
0x00,0x08,0x39,0x51,0x10,0x3a,0x00,0x08,0x3a,0x51,0x10,0x39,0x00,0x08,0x39,0x51,
0x10,0x3a,0x00,0x08,0x3a,0x51,0x10,0x39,0x00,0x08,0x39,0x51,0x10,0x3a,0x00,0x08,
0x3a,0x51,0x08,0x39,0x00,0x10,0x39,0x51,0x08,0x3a,0x00,0x10,0x3a,0x51,0x08,0x39,
0x00,0x10,0x39,0x51,0x08,0x3a,0x00,0x10,0x3a,0x51,0x10,0x39,0x00,0x08,0x39,0x51,
0x10,0x3a,0x00,0x08,0x3a,0x51,0x10,0x39,0x00,0x08,0x39,0x51,0x10,0x3a,0x00,0x08,
0x3a,0x51,0x10,0x39,0x00,0x08,0x39,0x51,0x10,0x3a,0x00,0x08,0x3a,0x51,0x10,0x39,
0x00,0x08,0x39,0x51,0x10,0x3a,0x00,0x08,0x3a,0x51,0x10,0x39,0x00,0x08,0x39,0x51,
0x10,0x3a,0x00,0x08,0x3a,0x51,0x10,0x39,0x00,0x08,0x39,0x51,0x10,0x3a,0x00,0x08,
0x3a,0x51,0x10,0x39,0x00,0x08,0x39,0x51,0x10,0x3a,0x00,0x08,0x3a,0x51,0x10,0x39,
0x00,0x08,0x38,0x51,0x10,0x3a,0x00,0x50,0x35,0x51,0x10,0x38,0x00,0x50,0x32,0x51,
0x10,0x35,0x00,0x60,0x32,0x00,0x82,0x10,0x39,0x51,0x18,0x3a,0x51,0x10,0x39,0x00,
0x08,0x39,0x51,0x10,0x3a,0x00,0x08,0x3a,0x51,0x10,0x39,0x00,0x08,0x39,0x51,0x10,
0x3a,0x00,0x08,0x3a,0x51,0x10,0x39,0x00,0x08,0x39,0x51,0x10,0x3a,0x00,0x08,0x3a,
0x51,0x10,0x39,0x00,0x08,0x39,0x51,0x10,0x3a,0x00,0x08,0x3a,0x51,0x10,0x39,0x00,
0x08,0x39,0x51,0x10,0x3a,0x00,0x08,0x3a,0x51,0x10,0x39,0x00,0x08,0x39,0x51,0x10,
0x3a,0x00,0x08,0x3a,0x51,0x10,0x39,0x00,0x08,0x39,0x51,0x10,0x3a,0x00,0x08,0x3a,
0x51,0x10,0x39,0x00,0x08,0x39,0x51,0x10,0x3a,0x00,0x08,0x3a,0x51,0x10,0x39,0x00,
0x08,0x39,0x51,0x10,0x3a,0x00,0x08,0x3a,0x51,0x10,0x39,0x00,0x08,0x39,0x51,0x10,
0x3a,0x00,0x08,0x3a,0x51,0x08,0x39,0x00,0x10,0x39,0x51,0x08,0x3a,0x00,0x10,0x3a,
0x51,0x08,0x39,0x00,0x10,0x39,0x51,0x08,0x3a,0x00,0x10,0x3a,0x51,0x10,0x39,0x00,
0x08,0x39,0x51,0x10,0x3a,0x00,0x08,0x3a,0x51,0x10,0x39,0x00,0x08,0x39,0x51,0x10,
0x3a,0x00,0x08,0x3a,0x51,0x10,0x39,0x00,0x08,0x39,0x51,0x10,0x3a,0x00,0x08,0x3a,
0x51,0x10,0x39,0x00,0x08,0x39,0x51,0x10,0x3a,0x00,0x08,0x3a,0x51,0x10,0x39,0x00,
0x08,0x39,0x51,0x10,0x3a,0x00,0x08,0x3a,0x51,0x10,0x39,0x00,0x08,0x39,0x51,0x10,
0x3a,0x00,0x08,0x3a,0x51,0x10,0x39,0x00,0x08,0x39,0x51,0x10,0x3a,0x00,0x08,0x3a,
0x51,0x10,0x39,0x00,0x08,0x38,0x51,0x10,0x3a,0x00,0x50,0x35,0x51,0x10,0x38,0x00,
0x50,0x32,0x51,0x10,0x35,0x00,0x60,0x32,0x00,0x82,0x10,0x39,0x51,0x18,0x3a,0x51,
0x10,0x39,0x00,0x08,0x39,0x51,0x10,0x3a,0x00,0x08,0x3a,0x51,0x10,0x39,0x00,0x08,
0x39,0x51,0x10,0x3a,0x00,0x08,0x3a,0x51,0x10,0x39,0x00,0x08,0x39,0x51,0x10,0x3a,
0x00,0x08,0x3a,0x51,0x10,0x39,0x00,0x08,0x39,0x51,0x10,0x3a,0x00,0x08,0x3a,0x51,
0x10,0x39,0x00,0x08,0x39,0x51,0x10,0x3a,0x00,0x08,0x3a,0x51,0x10,0x39,0x00,0x08,
0x39,0x51,0x10,0x3a,0x00,0x08,0x3a,0x51,0x10,0x39,0x00,0x08,0x39,0x51,0x10,0x3a,
0x00,0x08,0x3a,0x51,0x10,0x39,0x00,0x08,0x39,0x51,0x10,0x3a,0x00,0x08,0x3a,0x51,
0x10,0x39,0x00,0x08,0x39,0x51,0x10,0x3a,0x00,0x08,0x3a,0x51,0x10,0x39,0x00,0x08,
0x39,0x51,0x10,0x3a,0x00,0x08,0x3a,0x51,0x08,0x39,0x00,0x10,0x39,0x51,0x08,0x3a,
0x00,0x10,0x3a,0x51,0x08,0x39,0x00,0x10,0x39,0x51,0x08,0x3a,0x00,0x10,0x3a,0x51,
0x10,0x39,0x00,0x08,0x39,0x51,0x10,0x3a,0x00,0x08,0x3a,0x51,0x10,0x39,0x00,0x08,
0x39,0x51,0x10,0x3a,0x00,0x08,0x3a,0x51,0x10,0x39,0x00,0x08,0x39,0x51,0x10,0x3a,
0x00,0x08,0x3a,0x51,0x10,0x39,0x00,0x08,0x39,0x51,0x10,0x3a,0x00,0x08,0x3a,0x51,
0x10,0x39,0x00,0x08,0x39,0x51,0x10,0x3a,0x00,0x08,0x3a,0x51,0x10,0x39,0x00,0x08,
0x39,0x51,0x10,0x3a,0x00,0x08,0x3a,0x51,0x10,0x39,0x00,0x08,0x39,0x51,0x10,0x3a,
0x00,0x08,0x3a,0x51,0x10,0x39,0x00,0x08,0x38,0x51,0x10,0x3a,0x00,0x50,0x35,0x51,
0x10,0x38,0x00,0x50,0x32,0x51,0x10,0x35,0x00,0x60,0x32,0x00,0x81,0x30,0x39,0x51,
0x81,0x28,0x39,0x00,0x18,0x39,0x51,0x81,0x28,0x39,0x00,0x18,0x39,0x51,0x81,0x28,
0x39,0x00,0x18,0x39,0x51,0x81,0x28,0x39,0x00,0x18,0x39,0x51,0x81,0x28,0x39,0x00,
0x18,0x39,0x51,0x48,0x39,0x00,0x18,0x39,0x51,0x81,0x28,0x39,0x00,0x18,0x39,0x51,
0x81,0x28,0x39,0x00,0x00,0xff,0x2f,0x00,0x4d,0x54,0x72,0x6b,0x00,0x00,0x0d,0x80,
0x00,0xff,0x03,0x0b,0x45,0x6c,0x65,0x63,0x20,0x42,0x61,0x73,0x73,0x20,0x31,0x00,
0xff,0x04,0x0b,0x43,0x68,0x20,0x20,0x37,0x20,0x4d,0x54,0x2d,0x33,0x32,0x00,0xc6,
0x42,0x00,0x96,0x26,0x51,0x81,0x30,0x26,0x00,0x81,0x50,0x2d,0x51,0x81,0x30,0x2d,
0x00,0x81,0x50,0x26,0x51,0x81,0x30,0x26,0x00,0x81,0x50,0x2d,0x51,0x81,0x28,0x2d,
0x00,0x81,0x58,0x26,0x51,0x81,0x30,0x26,0x00,0x81,0x50,0x24,0x51,0x81,0x30,0x24,
0x00,0x81,0x50,0x29,0x51,0x81,0x30,0x29,0x00,0x81,0x50,0x30,0x51,0x81,0x30,0x30,
0x00,0x81,0x50,0x26,0x51,0x81,0x30,0x26,0x00,0x81,0x50,0x2c,0x51,0x81,0x30,0x2c,
0x00,0x10,0x2d,0x51,0x81,0x30,0x2d,0x00,0x10,0x26,0x51,0x81,0x30,0x26,0x00,0x81,
0x50,0x2c,0x51,0x81,0x28,0x2c,0x00,0x18,0x2d,0x51,0x81,0x30,0x2d,0x00,0x10,0x2b,
0x51,0x81,0x30,0x2b,0x00,0x81,0x50,0x2b,0x51,0x81,0x28,0x2b,0x00,0x81,0x58,0x24,
0x51,0x81,0x30,0x24,0x00,0x10,0x26,0x51,0x81,0x28,0x26,0x00,0x18,0x27,0x51,0x81,
0x28,0x27,0x00,0x18,0x28,0x51,0x81,0x28,0x28,0x00,0x18,0x26,0x51,0x81,0x30,0x26,
0x00,0x81,0x50,0x2d,0x51,0x81,0x30,0x2d,0x00,0x81,0x50,0x26,0x51,0x81,0x30,0x26,
0x00,0x81,0x50,0x2d,0x51,0x81,0x28,0x2d,0x00,0x81,0x58,0x24,0x51,0x81,0x30,0x24,
0x00,0x81,0x50,0x24,0x51,0x81,0x28,0x24,0x00,0x81,0x58,0x29,0x51,0x81,0x30,0x29,
0x00,0x81,0x50,0x30,0x51,0x81,0x30,0x30,0x00,0x81,0x50,0x2e,0x51,0x81,0x30,0x2e,
0x00,0x81,0x50,0x2e,0x51,0x81,0x30,0x2e,0x00,0x81,0x50,0x29,0x51,0x81,0x30,0x29,
0x00,0x81,0x50,0x26,0x51,0x81,0x30,0x26,0x00,0x81,0x50,0x2b,0x51,0x81,0x30,0x2b,
0x00,0x81,0x50,0x24,0x51,0x81,0x30,0x24,0x00,0x81,0x50,0x29,0x69,0x81,0x30,0x29,
0x00,0x10,0x28,0x69,0x81,0x28,0x28,0x00,0x18,0x26,0x69,0x81,0x28,0x26,0x00,0x18,
0x24,0x69,0x81,0x28,0x24,0x00,0x18,0x26,0x69,0x81,0x30,0x26,0x00,0x81,0x50,0x2d,
0x69,0x81,0x30,0x2d,0x00,0x81,0x50,0x26,0x69,0x81,0x30,0x26,0x00,0x81,0x50,0x2d,
0x69,0x81,0x30,0x2d,0x00,0x81,0x50,0x26,0x69,0x81,0x30,0x26,0x00,0x81,0x50,0x2d,
0x69,0x81,0x30,0x2d,0x00,0x81,0x50,0x26,0x69,0x81,0x30,0x26,0x00,0x70,0x2c,0x69,
0x82,0x08,0x2c,0x00,0x18,0x2d,0x69,0x81,0x28,0x2d,0x00,0x18,0x26,0x69,0x81,0x30,
0x26,0x00,0x81,0x50,0x2d,0x69,0x81,0x30,0x2d,0x00,0x81,0x50,0x26,0x69,0x81,0x30,
0x26,0x00,0x81,0x50,0x2d,0x69,0x81,0x30,0x2d,0x00,0x81,0x50,0x26,0x69,0x81,0x30,
0x26,0x00,0x81,0x50,0x2d,0x69,0x81,0x30,0x2d,0x00,0x81,0x50,0x27,0x69,0x82,0x70,
0x27,0x00,0x10,0x30,0x69,0x81,0x30,0x30,0x00,0x10,0x24,0x69,0x81,0x28,0x24,0x00,
0x18,0x26,0x69,0x81,0x30,0x26,0x00,0x81,0x50,0x2d,0x69,0x81,0x30,0x2d,0x00,0x81,
0x50,0x26,0x69,0x81,0x30,0x26,0x00,0x81,0x50,0x2d,0x69,0x81,0x30,0x2d,0x00,0x81,
0x50,0x26,0x69,0x81,0x30,0x26,0x00,0x81,0x50,0x2d,0x69,0x81,0x30,0x2d,0x00,0x81,
0x50,0x26,0x69,0x81,0x30,0x26,0x00,0x81,0x50,0x2d,0x69,0x81,0x30,0x2d,0x00,0x10,
0x2d,0x69,0x81,0x28,0x2d,0x00,0x18,0x2e,0x69,0x50,0x2e,0x00,0x10,0x2e,0x69,0x48,
0x2e,0x00,0x81,0x58,0x2f,0x69,0x50,0x2f,0x00,0x10,0x2f,0x69,0x48,0x2f,0x00,0x81,
0x58,0x30,0x69,0x82,0x10,0x30,0x00,0x10,0x26,0x69,0x82,0x08,0x26,0x00,0x18,0x26,
0x69,0x81,0x28,0x26,0x00,0x18,0x2b,0x69,0x81,0x30,0x2b,0x00,0x81,0x50,0x24,0x69,
0x82,0x10,0x24,0x00,0x10,0x29,0x69,0x82,0x08,0x29,0x00,0x18,0x28,0x69,0x81,0x28,
0x28,0x00,0x18,0x26,0x69,0x81,0x28,0x26,0x00,0x18,0x24,0x69,0x81,0x30,0x24,0x00,
0x10,0x32,0x51,0x81,0x28,0x32,0x00,0x18,0x30,0x51,0x81,0x28,0x30,0x00,0x18,0x2e,
0x51,0x81,0x28,0x2e,0x00,0x18,0x2d,0x51,0x81,0x28,0x2d,0x00,0x18,0x2b,0x51,0x81,
0x28,0x2b,0x00,0x18,0x29,0x51,0x81,0x28,0x29,0x00,0x18,0x28,0x51,0x81,0x28,0x28,
0x00,0x18,0x26,0x51,0x81,0x28,0x26,0x00,0x18,0x32,0x51,0x81,0x30,0x32,0x00,0x10,
0x30,0x51,0x81,0x28,0x30,0x00,0x18,0x2e,0x51,0x81,0x28,0x2e,0x00,0x18,0x2d,0x51,
0x81,0x28,0x2d,0x00,0x18,0x2b,0x51,0x81,0x28,0x2b,0x00,0x18,0x29,0x51,0x81,0x28,
0x29,0x00,0x18,0x28,0x51,0x81,0x28,0x28,0x00,0x18,0x26,0x51,0x81,0x28,0x26,0x00,
0x18,0x32,0x51,0x81,0x30,0x32,0x00,0x10,0x30,0x51,0x81,0x28,0x30,0x00,0x18,0x2e,
0x51,0x81,0x28,0x2e,0x00,0x18,0x2d,0x51,0x81,0x28,0x2d,0x00,0x18,0x2b,0x51,0x81,
0x28,0x2b,0x00,0x18,0x29,0x51,0x81,0x28,0x29,0x00,0x18,0x28,0x51,0x81,0x28,0x28,
0x00,0x18,0x2e,0x51,0x81,0x28,0x2e,0x00,0x18,0x26,0x51,0x81,0x28,0x26,0x00,0x89,
0x18,0x2d,0x51,0x81,0x28,0x2d,0x00,0x18,0x32,0x51,0x81,0x30,0x32,0x00,0x10,0x30,
0x51,0x81,0x28,0x30,0x00,0x18,0x2e,0x51,0x81,0x28,0x2e,0x00,0x18,0x2d,0x51,0x81,
0x28,0x2d,0x00,0x18,0x2b,0x51,0x81,0x30,0x2b,0x00,0x10,0x29,0x51,0x81,0x28,0x29,
0x00,0x18,0x28,0x51,0x81,0x30,0x28,0x00,0x10,0x26,0x51,0x81,0x28,0x26,0x00,0x18,
0x32,0x51,0x81,0x30,0x32,0x00,0x10,0x30,0x51,0x81,0x28,0x30,0x00,0x18,0x2e,0x51,
0x81,0x28,0x2e,0x00,0x18,0x2d,0x51,0x81,0x28,0x2d,0x00,0x18,0x2b,0x51,0x81,0x30,
0x2b,0x00,0x10,0x29,0x51,0x81,0x28,0x29,0x00,0x18,0x28,0x51,0x81,0x30,0x28,0x00,
0x10,0x26,0x51,0x81,0x28,0x26,0x00,0x18,0x32,0x51,0x81,0x30,0x32,0x00,0x10,0x30,
0x51,0x81,0x28,0x30,0x00,0x18,0x2e,0x51,0x81,0x28,0x2e,0x00,0x18,0x2d,0x51,0x81,
0x28,0x2d,0x00,0x18,0x2b,0x51,0x81,0x30,0x2b,0x00,0x10,0x29,0x51,0x81,0x28,0x29,
0x00,0x18,0x28,0x51,0x81,0x30,0x28,0x00,0x10,0x26,0x51,0x81,0x28,0x26,0x00,0x18,
0x32,0x51,0x81,0x30,0x32,0x00,0x10,0x2e,0x51,0x81,0x30,0x2e,0x00,0x10,0x2d,0x51,
0x81,0x30,0x2d,0x00,0x10,0x2d,0x51,0x81,0x28,0x2d,0x00,0x18,0x32,0x51,0x81,0x30,
0x32,0x00,0x84,0x50,0x26,0x51,0x81,0x30,0x26,0x00,0x81,0x50,0x2d,0x51,0x81,0x30,
0x2d,0x00,0x81,0x50,0x26,0x51,0x81,0x30,0x26,0x00,0x81,0x50,0x2d,0x51,0x81,0x28,
0x2d,0x00,0x81,0x58,0x26,0x51,0x81,0x30,0x26,0x00,0x81,0x50,0x24,0x51,0x81,0x28,
0x24,0x00,0x81,0x58,0x29,0x51,0x81,0x28,0x29,0x00,0x81,0x58,0x30,0x51,0x81,0x28,
0x30,0x00,0x81,0x58,0x26,0x51,0x81,0x28,0x26,0x00,0x81,0x58,0x2c,0x51,0x81,0x28,
0x2c,0x00,0x18,0x2d,0x51,0x81,0x28,0x2d,0x00,0x18,0x26,0x51,0x81,0x28,0x26,0x00,
0x81,0x58,0x2c,0x51,0x81,0x28,0x2c,0x00,0x18,0x2d,0x51,0x81,0x28,0x2d,0x00,0x18,
0x2b,0x51,0x81,0x28,0x2b,0x00,0x81,0x58,0x2b,0x51,0x81,0x28,0x2b,0x00,0x81,0x58,
0x24,0x51,0x81,0x28,0x24,0x00,0x18,0x26,0x51,0x81,0x28,0x26,0x00,0x18,0x27,0x51,
0x81,0x28,0x27,0x00,0x18,0x28,0x51,0x81,0x28,0x28,0x00,0x18,0x26,0x51,0x81,0x28,
0x26,0x00,0x81,0x58,0x2d,0x51,0x81,0x28,0x2d,0x00,0x81,0x58,0x26,0x51,0x81,0x28,
0x26,0x00,0x81,0x58,0x2d,0x51,0x81,0x28,0x2d,0x00,0x81,0x58,0x24,0x51,0x81,0x28,
0x24,0x00,0x81,0x58,0x24,0x51,0x81,0x28,0x24,0x00,0x81,0x58,0x29,0x51,0x81,0x28,
0x29,0x00,0x81,0x58,0x30,0x51,0x81,0x28,0x30,0x00,0x81,0x58,0x2e,0x51,0x81,0x28,
0x2e,0x00,0x81,0x58,0x2e,0x51,0x81,0x28,0x2e,0x00,0x81,0x58,0x29,0x51,0x81,0x28,
0x29,0x00,0x81,0x58,0x26,0x51,0x81,0x28,0x26,0x00,0x81,0x58,0x2b,0x51,0x81,0x28,
0x2b,0x00,0x81,0x58,0x24,0x51,0x81,0x28,0x24,0x00,0x81,0x58,0x29,0x69,0x81,0x28,
0x29,0x00,0x18,0x28,0x69,0x81,0x28,0x28,0x00,0x18,0x26,0x69,0x81,0x28,0x26,0x00,
0x18,0x24,0x69,0x81,0x28,0x24,0x00,0x18,0x26,0x69,0x81,0x28,0x26,0x00,0x81,0x58,
0x2d,0x69,0x81,0x28,0x2d,0x00,0x81,0x58,0x26,0x69,0x81,0x28,0x26,0x00,0x81,0x58,
0x2d,0x69,0x81,0x28,0x2d,0x00,0x81,0x58,0x26,0x69,0x81,0x28,0x26,0x00,0x81,0x58,
0x2d,0x69,0x81,0x28,0x2d,0x00,0x81,0x58,0x26,0x69,0x81,0x28,0x26,0x00,0x78,0x2c,
0x69,0x82,0x08,0x2c,0x00,0x18,0x2d,0x69,0x81,0x28,0x2d,0x00,0x18,0x26,0x69,0x81,
0x28,0x26,0x00,0x81,0x58,0x2d,0x69,0x81,0x28,0x2d,0x00,0x81,0x58,0x26,0x69,0x81,
0x28,0x26,0x00,0x81,0x58,0x2d,0x69,0x81,0x28,0x2d,0x00,0x81,0x58,0x26,0x69,0x81,
0x28,0x26,0x00,0x81,0x58,0x2d,0x69,0x81,0x28,0x2d,0x00,0x81,0x58,0x27,0x69,0x82,
0x68,0x27,0x00,0x18,0x30,0x69,0x81,0x28,0x30,0x00,0x18,0x24,0x69,0x81,0x28,0x24,
0x00,0x18,0x26,0x69,0x81,0x28,0x26,0x00,0x81,0x58,0x2d,0x69,0x81,0x28,0x2d,0x00,
0x81,0x58,0x26,0x69,0x81,0x28,0x26,0x00,0x81,0x58,0x2d,0x69,0x81,0x28,0x2d,0x00,
0x81,0x58,0x26,0x69,0x81,0x28,0x26,0x00,0x81,0x58,0x2d,0x69,0x81,0x28,0x2d,0x00,
0x81,0x58,0x26,0x69,0x81,0x28,0x26,0x00,0x81,0x58,0x2d,0x69,0x81,0x28,0x2d,0x00,
0x18,0x2d,0x69,0x81,0x28,0x2d,0x00,0x18,0x2e,0x69,0x48,0x2e,0x00,0x18,0x2e,0x69,
0x48,0x2e,0x00,0x81,0x58,0x2f,0x69,0x48,0x2f,0x00,0x18,0x2f,0x69,0x48,0x2f,0x00,
0x81,0x58,0x30,0x69,0x82,0x08,0x30,0x00,0x18,0x26,0x69,0x82,0x08,0x26,0x00,0x18,
0x26,0x69,0x81,0x28,0x26,0x00,0x18,0x2b,0x69,0x81,0x28,0x2b,0x00,0x81,0x58,0x24,
0x69,0x82,0x08,0x24,0x00,0x18,0x29,0x69,0x82,0x08,0x29,0x00,0x18,0x28,0x69,0x81,
0x28,0x28,0x00,0x18,0x26,0x69,0x81,0x28,0x26,0x00,0x18,0x24,0x69,0x81,0x28,0x24,
0x00,0x18,0x32,0x51,0x81,0x28,0x32,0x00,0x18,0x30,0x51,0x81,0x28,0x30,0x00,0x18,
0x2e,0x51,0x81,0x28,0x2e,0x00,0x18,0x2d,0x51,0x81,0x28,0x2d,0x00,0x18,0x2b,0x51,
0x81,0x28,0x2b,0x00,0x18,0x29,0x51,0x81,0x28,0x29,0x00,0x18,0x28,0x51,0x81,0x28,
0x28,0x00,0x18,0x26,0x51,0x81,0x28,0x26,0x00,0x18,0x32,0x51,0x81,0x28,0x32,0x00,
0x18,0x30,0x51,0x81,0x28,0x30,0x00,0x18,0x2e,0x51,0x81,0x28,0x2e,0x00,0x18,0x2d,
0x51,0x81,0x28,0x2d,0x00,0x18,0x2b,0x51,0x81,0x28,0x2b,0x00,0x18,0x29,0x51,0x81,
0x28,0x29,0x00,0x18,0x28,0x51,0x81,0x28,0x28,0x00,0x18,0x26,0x51,0x81,0x28,0x26,
0x00,0x18,0x32,0x51,0x81,0x28,0x32,0x00,0x18,0x30,0x51,0x81,0x28,0x30,0x00,0x18,
0x2e,0x51,0x81,0x28,0x2e,0x00,0x18,0x2d,0x51,0x81,0x28,0x2d,0x00,0x18,0x2b,0x51,
0x81,0x28,0x2b,0x00,0x18,0x29,0x51,0x81,0x28,0x29,0x00,0x18,0x28,0x51,0x81,0x28,
0x28,0x00,0x18,0x2e,0x51,0x81,0x28,0x2e,0x00,0x18,0x26,0x51,0x81,0x28,0x26,0x00,
0x89,0x18,0x2d,0x51,0x81,0x28,0x2d,0x00,0x18,0x32,0x51,0x81,0x28,0x32,0x00,0x18,
0x30,0x51,0x81,0x28,0x30,0x00,0x18,0x2e,0x51,0x81,0x28,0x2e,0x00,0x18,0x2d,0x51,
0x81,0x28,0x2d,0x00,0x18,0x2b,0x51,0x81,0x28,0x2b,0x00,0x18,0x29,0x51,0x81,0x28,
0x29,0x00,0x18,0x28,0x51,0x81,0x28,0x28,0x00,0x18,0x26,0x51,0x81,0x28,0x26,0x00,
0x18,0x32,0x51,0x81,0x28,0x32,0x00,0x18,0x30,0x51,0x81,0x28,0x30,0x00,0x18,0x2e,
0x51,0x81,0x28,0x2e,0x00,0x18,0x2d,0x51,0x81,0x28,0x2d,0x00,0x18,0x2b,0x51,0x81,
0x28,0x2b,0x00,0x18,0x29,0x51,0x81,0x28,0x29,0x00,0x18,0x28,0x51,0x81,0x28,0x28,
0x00,0x18,0x26,0x51,0x81,0x28,0x26,0x00,0x18,0x32,0x51,0x81,0x28,0x32,0x00,0x18,
0x30,0x51,0x81,0x28,0x30,0x00,0x18,0x2e,0x51,0x81,0x28,0x2e,0x00,0x18,0x2d,0x51,
0x81,0x28,0x2d,0x00,0x18,0x2b,0x51,0x81,0x28,0x2b,0x00,0x18,0x29,0x51,0x81,0x28,
0x29,0x00,0x18,0x28,0x51,0x81,0x28,0x28,0x00,0x18,0x26,0x51,0x81,0x28,0x26,0x00,
0x18,0x32,0x51,0x81,0x28,0x32,0x00,0x18,0x2e,0x51,0x81,0x28,0x2e,0x00,0x18,0x2d,
0x51,0x81,0x28,0x2d,0x00,0x18,0x2d,0x51,0x81,0x28,0x2d,0x00,0x18,0x32,0x51,0x81,
0x28,0x32,0x00,0x84,0x58,0x24,0x51,0x81,0x28,0x24,0x00,0x81,0x58,0x2b,0x51,0x81,
0x28,0x2b,0x00,0x81,0x58,0x24,0x51,0x82,0x08,0x24,0x00,0x18,0x1f,0x51,0x82,0x08,
0x1f,0x00,0x18,0x24,0x51,0x81,0x28,0x24,0x00,0x18,0x21,0x51,0x81,0x28,0x21,0x00,
0x81,0x58,0x24,0x51,0x81,0x28,0x24,0x00,0x81,0x58,0x29,0x51,0x82,0x08,0x29,0x00,
0x18,0x2d,0x51,0x82,0x08,0x2d,0x00,0x18,0x2f,0x51,0x81,0x28,0x2f,0x00,0x18,0x30,
0x51,0x81,0x28,0x30,0x00,0x81,0x58,0x24,0x51,0x81,0x28,0x24,0x00,0x81,0x58,0x30,
0x51,0x82,0x08,0x30,0x00,0x18,0x28,0x51,0x82,0x08,0x28,0x00,0x18,0x2b,0x51,0x81,
0x28,0x2b,0x00,0x18,0x2d,0x51,0x81,0x28,0x2d,0x00,0x81,0x58,0x24,0x51,0x81,0x28,
0x24,0x00,0x81,0x58,0x26,0x51,0x82,0x08,0x26,0x00,0x18,0x2d,0x51,0x82,0x08,0x2d,
0x00,0x18,0x32,0x51,0x81,0x28,0x32,0x00,0x18,0x2e,0x51,0x81,0x28,0x2e,0x00,0x81,
0x58,0x2e,0x51,0x81,0x28,0x2e,0x00,0x81,0x58,0x30,0x51,0x81,0x28,0x30,0x00,0x81,
0x58,0x30,0x51,0x81,0x28,0x30,0x00,0x81,0x58,0x30,0x51,0x81,0x28,0x30,0x00,0x81,
0x58,0x30,0x51,0x81,0x28,0x30,0x00,0x18,0x31,0x51,0x81,0x28,0x31,0x00,0x18,0x32,
0x51,0x81,0x28,0x32,0x00,0x81,0x58,0x26,0x51,0x81,0x28,0x26,0x00,0x18,0x26,0x51,
0x81,0x28,0x26,0x00,0x18,0x2b,0x51,0x81,0x28,0x2b,0x00,0x81,0x58,0x2b,0x51,0x81,
0x28,0x2b,0x00,0x81,0x58,0x28,0x51,0x81,0x28,0x28,0x00,0x81,0x58,0x28,0x51,0x81,
0x28,0x28,0x00,0x81,0x58,0x29,0x51,0x81,0x28,0x29,0x00,0x81,0x58,0x29,0x51,0x81,
0x28,0x29,0x00,0x81,0x58,0x29,0x51,0x81,0x28,0x29,0x00,0x81,0x58,0x29,0x51,0x81,
0x28,0x29,0x00,0x18,0x1d,0x51,0x48,0x1d,0x00,0x18,0x21,0x51,0x48,0x21,0x00,0x18,
0x24,0x51,0x81,0x28,0x24,0x00,0x81,0x58,0x2b,0x51,0x81,0x28,0x2b,0x00,0x81,0x58,
0x24,0x51,0x82,0x08,0x24,0x00,0x18,0x1f,0x51,0x82,0x08,0x1f,0x00,0x18,0x24,0x51,
0x81,0x28,0x24,0x00,0x18,0x21,0x51,0x81,0x28,0x21,0x00,0x81,0x58,0x24,0x51,0x81,
0x28,0x24,0x00,0x81,0x58,0x29,0x51,0x82,0x08,0x29,0x00,0x18,0x2d,0x51,0x82,0x08,
0x2d,0x00,0x18,0x2f,0x51,0x81,0x28,0x2f,0x00,0x18,0x30,0x51,0x81,0x28,0x30,0x00,
0x81,0x58,0x2b,0x51,0x81,0x28,0x2b,0x00,0x81,0x58,0x30,0x51,0x82,0x08,0x30,0x00,
0x18,0x28,0x51,0x82,0x08,0x28,0x00,0x18,0x2b,0x51,0x81,0x28,0x2b,0x00,0x18,0x2d,
0x51,0x81,0x28,0x2d,0x00,0x81,0x58,0x21,0x51,0x81,0x28,0x21,0x00,0x81,0x58,0x26,
0x51,0x82,0x08,0x26,0x00,0x18,0x2d,0x51,0x82,0x08,0x2d,0x00,0x18,0x32,0x51,0x81,
0x28,0x32,0x00,0x18,0x2e,0x51,0x81,0x28,0x2e,0x00,0x81,0x58,0x2e,0x51,0x81,0x28,
0x2e,0x00,0x81,0x58,0x30,0x51,0x81,0x28,0x30,0x00,0x81,0x58,0x30,0x51,0x81,0x28,
0x30,0x00,0x81,0x58,0x30,0x51,0x81,0x28,0x30,0x00,0x81,0x58,0x30,0x51,0x81,0x28,
0x30,0x00,0x18,0x31,0x51,0x81,0x28,0x31,0x00,0x18,0x32,0x51,0x81,0x28,0x32,0x00,
0x81,0x58,0x26,0x51,0x81,0x28,0x26,0x00,0x81,0x58,0x29,0x51,0x81,0x28,0x29,0x00,
0x81,0x58,0x2b,0x51,0x81,0x28,0x2b,0x00,0x81,0x58,0x28,0x51,0x81,0x28,0x28,0x00,
0x81,0x58,0x28,0x51,0x81,0x28,0x28,0x00,0x81,0x58,0x29,0x51,0x48,0x29,0x00,0x18,
0x29,0x51,0x48,0x29,0x00,0x81,0x58,0x29,0x51,0x48,0x29,0x00,0x18,0x29,0x51,0x48,
0x29,0x00,0x81,0x58,0x29,0x51,0x81,0x28,0x29,0x00,0x84,0x58,0x31,0x51,0x81,0x28,
0x31,0x00,0x18,0x30,0x51,0x81,0x28,0x30,0x00,0x18,0x2e,0x51,0x81,0x28,0x2e,0x00,
0x18,0x2c,0x51,0x81,0x28,0x2c,0x00,0x18,0x2a,0x51,0x81,0x28,0x2a,0x00,0x18,0x29,
0x51,0x81,0x28,0x29,0x00,0x18,0x27,0x51,0x81,0x28,0x27,0x00,0x18,0x25,0x51,0x81,
0x28,0x25,0x00,0x18,0x31,0x51,0x81,0x28,0x31,0x00,0x18,0x2e,0x51,0x81,0x28,0x2e,
0x00,0x18,0x2d,0x51,0x81,0x28,0x2d,0x00,0x18,0x2c,0x51,0x81,0x28,0x2c,0x00,0x18,
0x31,0x51,0x81,0x28,0x31,0x00,0x18,0x30,0x51,0x81,0x28,0x30,0x00,0x18,0x2e,0x51,
0x81,0x28,0x2e,0x00,0x18,0x2c,0x51,0x81,0x28,0x2c,0x00,0x18,0x2a,0x51,0x81,0x28,
0x2a,0x00,0x18,0x29,0x51,0x81,0x28,0x29,0x00,0x18,0x27,0x51,0x81,0x28,0x27,0x00,
0x18,0x25,0x51,0x81,0x28,0x25,0x00,0x18,0x27,0x51,0x81,0x28,0x27,0x00,0x18,0x28,
0x51,0x81,0x28,0x28,0x00,0x18,0x29,0x51,0x81,0x28,0x29,0x00,0x18,0x2a,0x51,0x81,
0x28,0x2a,0x00,0x18,0x2b,0x51,0x81,0x28,0x2b,0x00,0x18,0x26,0x51,0x81,0x28,0x26,
0x00,0x18,0x2e,0x51,0x81,0x28,0x2e,0x00,0x18,0x2c,0x51,0x81,0x28,0x2c,0x00,0x18,
0x31,0x51,0x81,0x28,0x31,0x00,0x18,0x30,0x51,0x81,0x28,0x30,0x00,0x18,0x2e,0x51,
0x81,0x28,0x2e,0x00,0x18,0x2c,0x51,0x81,0x28,0x2c,0x00,0x18,0x2a,0x51,0x81,0x28,
0x2a,0x00,0x18,0x29,0x51,0x81,0x28,0x29,0x00,0x18,0x27,0x51,0x81,0x28,0x27,0x00,
0x18,0x25,0x51,0x81,0x28,0x25,0x00,0x18,0x1e,0x51,0x81,0x28,0x1e,0x00,0x18,0x1e,
0x51,0x81,0x28,0x1e,0x00,0x18,0x1e,0x51,0x81,0x28,0x1e,0x00,0x18,0x25,0x51,0x81,
0x28,0x25,0x00,0x18,0x24,0x51,0x81,0x28,0x24,0x00,0x18,0x24,0x51,0x81,0x28,0x24,
0x00,0x18,0x28,0x51,0x81,0x28,0x28,0x00,0x18,0x2b,0x51,0x81,0x28,0x2b,0x00,0x18,
0x2a,0x51,0x81,0x28,0x2a,0x00,0x18,0x2a,0x51,0x81,0x28,0x2a,0x00,0x18,0x2b,0x51,
0x81,0x28,0x2b,0x00,0x18,0x2b,0x51,0x81,0x28,0x2b,0x00,0x18,0x2c,0x51,0x81,0x28,
0x2c,0x00,0x18,0x25,0x51,0x81,0x28,0x25,0x00,0x18,0x24,0x51,0x81,0x28,0x24,0x00,
0x18,0x24,0x51,0x81,0x28,0x24,0x00,0x18,0x29,0x51,0x81,0x28,0x29,0x00,0x18,0x30,
0x51,0x81,0x28,0x30,0x00,0x18,0x2a,0x51,0x81,0x28,0x2a,0x00,0x18,0x2a,0x51,0x81,
0x28,0x2a,0x00,0x18,0x24,0x51,0x81,0x28,0x24,0x00,0x81,0x58,0x24,0x51,0x81,0x28,
0x24,0x00,0x81,0x58,0x29,0x51,0x81,0x28,0x29,0x00,0x81,0x58,0x29,0x51,0x81,0x28,
0x29,0x00,0x8c,0x18,0x2b,0x51,0x81,0x28,0x2b,0x00,0x18,0x24,0x51,0x81,0x28,0x24,
0x00,0x81,0x58,0x24,0x51,0x81,0x28,0x24,0x00,0x81,0x58,0x29,0x51,0x81,0x28,0x29,
0x00,0x81,0x58,0x29,0x51,0x81,0x28,0x29,0x00,0x81,0x58,0x1f,0x51,0x81,0x28,0x1f,
0x00,0x81,0x58,0x20,0x51,0x81,0x28,0x20,0x00,0x81,0x58,0x21,0x51,0x81,0x28,0x21,
0x00,0x81,0x58,0x22,0x51,0x81,0x28,0x22,0x00,0x81,0x58,0x23,0x51,0x81,0x28,0x23,
0x00,0x81,0x58,0x24,0x51,0x81,0x28,0x24,0x00,0x81,0x58,0x25,0x51,0x81,0x28,0x25,
0x00,0x81,0x58,0x26,0x51,0x81,0x28,0x26,0x00,0x81,0x58,0x26,0x51,0x81,0x28,0x26,
0x00,0x81,0x58,0x27,0x51,0x81,0x28,0x27,0x00,0x81,0x58,0x28,0x51,0x81,0x28,0x28,
0x00,0x81,0x58,0x29,0x51,0x81,0x28,0x29,0x00,0x81,0x58,0x2a,0x51,0x81,0x28,0x2a,
0x00,0x81,0x58,0x2b,0x51,0x81,0x28,0x2b,0x00,0x81,0x58,0x31,0x51,0x81,0x28,0x31,
0x00,0x81,0x58,0x25,0x51,0x81,0x28,0x25,0x00,0xb1,0x58,0x26,0x51,0x81,0x28,0x26,
0x00,0x81,0x58,0x2d,0x51,0x81,0x28,0x2d,0x00,0x81,0x58,0x26,0x51,0x81,0x28,0x26,
0x00,0x81,0x58,0x2d,0x51,0x81,0x28,0x2d,0x00,0x81,0x58,0x26,0x3f,0x81,0x28,0x26,
0x00,0x81,0x58,0x24,0x3f,0x81,0x28,0x24,0x00,0x81,0x58,0x26,0x3f,0x81,0x28,0x26,
0x00,0x81,0x58,0x2d,0x2f,0x81,0x28,0x2d,0x00,0x18,0x2d,0x2f,0x81,0x28,0x2d,0x00,
0x18,0x26,0x2f,0x81,0x28,0x26,0x00,0x81,0x58,0x2c,0x2f,0x81,0x28,0x2c,0x00,0x18,
0x2d,0x2f,0x81,0x28,0x2d,0x00,0x18,0x26,0x2f,0x81,0x28,0x26,0x00,0x81,0x58,0x2c,
0x2f,0x81,0x28,0x2c,0x00,0x18,0x2d,0x2f,0x81,0x28,0x2d,0x00,0x18,0x2b,0x2f,0x81,
0x28,0x2b,0x00,0x81,0x58,0x2b,0x2f,0x81,0x28,0x2b,0x00,0x81,0x58,0x24,0x2f,0x81,
0x28,0x24,0x00,0x18,0x26,0x2f,0x81,0x28,0x26,0x00,0x18,0x27,0x2f,0x81,0x28,0x27,
0x00,0x18,0x28,0x2f,0x81,0x28,0x28,0x00,0x18,0x26,0x1f,0x81,0x28,0x26,0x00,0x81,
0x58,0x2d,0x1f,0x81,0x28,0x2d,0x00,0x81,0x58,0x26,0x1f,0x81,0x28,0x26,0x00,0x81,
0x58,0x2d,0x1f,0x81,0x28,0x2d,0x00,0x81,0x58,0x24,0x1f,0x81,0x28,0x24,0x00,0x81,
0x58,0x24,0x1f,0x81,0x28,0x24,0x00,0x81,0x58,0x29,0x1f,0x81,0x28,0x29,0x00,0x81,
0x58,0x30,0x13,0x81,0x28,0x30,0x00,0x81,0x58,0x2e,0x13,0x81,0x28,0x2e,0x00,0x81,
0x58,0x2e,0x13,0x81,0x28,0x2e,0x00,0x81,0x58,0x29,0x13,0x81,0x28,0x29,0x00,0x81,
0x58,0x26,0x0a,0x81,0x28,0x26,0x00,0x81,0x58,0x2b,0x0a,0x81,0x28,0x2b,0x00,0x81,
0x58,0x24,0x0a,0x81,0x28,0x24,0x00,0x81,0x58,0x29,0x0a,0x81,0x28,0x29,0x00,0x81,
0x58,0x29,0x0a,0x81,0x28,0x29,0x00,0x81,0x58,0xb6,0x00,0x00,0x00,0xff,0x2f,0x00,
0x4d,0x54,0x72,0x6b,0x00,0x00,0x01,0x49,0x00,0xff,0x03,0x05,0x53,0x61,0x78,0x20,
0x31,0x00,0xff,0x04,0x0b,0x43,0x68,0x20,0x20,0x39,0x20,0x4d,0x54,0x2d,0x33,0x32,
0x85,0xe8,0x00,0xc8,0x4f,0x00,0x98,0x46,0x51,0x60,0x4d,0x51,0x00,0x4a,0x51,0x18,
0x46,0x00,0x48,0x46,0x51,0x18,0x4a,0x00,0x00,0x4d,0x00,0x48,0x4a,0x51,0x18,0x46,
0x00,0x48,0x41,0x51,0x18,0x4a,0x00,0x48,0x46,0x51,0x18,0x41,0x00,0x48,0x3e,0x51,
0x18,0x46,0x00,0x48,0x43,0x51,0x18,0x3e,0x00,0x48,0x43,0x51,0x00,0x43,0x00,0x18,
0x43,0x00,0x48,0x4c,0x51,0x00,0x48,0x51,0x60,0x43,0x51,0x18,0x48,0x00,0x00,0x4c,
0x00,0x48,0x48,0x51,0x18,0x43,0x00,0x48,0x41,0x51,0x18,0x48,0x00,0x48,0x43,0x51,
0x18,0x41,0x00,0x48,0x40,0x51,0x18,0x43,0x00,0x48,0x43,0x51,0x18,0x40,0x00,0x60,
0x43,0x00,0xc7,0x68,0x48,0x51,0x60,0x43,0x51,0x00,0x40,0x51,0x18,0x48,0x00,0x48,
0x3c,0x51,0x10,0x40,0x00,0x00,0x43,0x00,0x50,0x37,0x51,0x18,0x3c,0x00,0x58,0x37,
0x00,0x50,0x3c,0x51,0x60,0x37,0x51,0x00,0x34,0x51,0x10,0x3c,0x00,0x38,0x34,0x00,
0x00,0x37,0x00,0x18,0x3c,0x51,0x48,0x3c,0x00,0x18,0x36,0x51,0x60,0x3a,0x51,0x18,
0x36,0x00,0x58,0x3a,0x00,0x50,0x37,0x51,0x60,0x3d,0x51,0x00,0x3a,0x51,0x10,0x37,
0x00,0x50,0x37,0x51,0x18,0x3a,0x00,0x00,0x3d,0x00,0x58,0x37,0x00,0x50,0x3d,0x51,
0x60,0x41,0x51,0x00,0x38,0x51,0x10,0x3d,0x00,0x50,0x40,0x51,0x00,0x37,0x51,0x18,
0x38,0x00,0x00,0x41,0x00,0x48,0x41,0x51,0x00,0x38,0x51,0x10,0x40,0x00,0x00,0x37,
0x00,0x50,0x42,0x51,0x00,0x39,0x51,0x18,0x41,0x00,0x00,0x38,0x00,0x48,0x43,0x51,
0x00,0x40,0x51,0x10,0x42,0x00,0x00,0x39,0x00,0x50,0x3c,0x51,0x00,0x34,0x51,0x18,
0x43,0x00,0x00,0x40,0x00,0x58,0x3c,0x00,0x00,0x34,0x00,0x50,0x40,0x51,0x60,0x41,
0x51,0x00,0x3c,0x51,0x10,0x40,0x00,0x68,0x3c,0x00,0x00,0x41,0x00,0x00,0xff,0x2f,
0x00,0x4d,0x54,0x72,0x6b,0x00,0x00,0x14,0x8a,0x00,0xff,0x03,0x05,0x44,0x72,0x75,
0x6d,0x73,0x00,0xff,0x04,0x0b,0x43,0x68,0x20,0x31,0x30,0x20,0x4d,0x54,0x2d,0x33,
0x32,0x81,0x40,0x99,0x2a,0x3f,0x81,0x30,0x2a,0x00,0x81,0x50,0x2a,0x3f,0x81,0x30,
0x2a,0x00,0x81,0x50,0x2a,0x3f,0x81,0x30,0x2a,0x00,0x81,0x50,0x2a,0x3f,0x81,0x30,
0x2a,0x00,0x81,0x50,0x2a,0x3f,0x81,0x30,0x2a,0x00,0x81,0x50,0x2a,0x3f,0x81,0x30,
0x2a,0x00,0x81,0x50,0x2a,0x3f,0x81,0x28,0x2a,0x00,0x81,0x58,0x2a,0x3f,0x81,0x28,
0x2a,0x00,0x81,0x58,0x2a,0x3f,0x81,0x30,0x2a,0x00,0x81,0x50,0x2a,0x3f,0x81,0x30,
0x2a,0x00,0x81,0x50,0x2a,0x3f,0x81,0x30,0x2a,0x00,0x81,0x50,0x2a,0x3f,0x81,0x30,
0x2a,0x00,0x81,0x50,0x2a,0x3f,0x81,0x30,0x2a,0x00,0x81,0x50,0x2a,0x3f,0x81,0x30,
0x2a,0x00,0x81,0x50,0x2a,0x3f,0x81,0x28,0x2a,0x00,0x81,0x58,0x2a,0x3f,0x81,0x28,
0x2a,0x00,0x81,0x58,0x2a,0x3f,0x81,0x30,0x2a,0x00,0x81,0x50,0x2a,0x3f,0x81,0x30,
0x2a,0x00,0x81,0x50,0x2a,0x3f,0x81,0x30,0x2a,0x00,0x81,0x50,0x2a,0x3f,0x81,0x30,
0x2a,0x00,0x81,0x50,0x2a,0x3f,0x81,0x30,0x2a,0x00,0x81,0x50,0x2a,0x3f,0x81,0x30,
0x2a,0x00,0x81,0x50,0x2a,0x3f,0x81,0x28,0x2a,0x00,0x81,0x58,0x2a,0x3f,0x81,0x28,
0x2a,0x00,0x81,0x58,0x2a,0x3f,0x81,0x28,0x2a,0x00,0x81,0x58,0x2a,0x3f,0x81,0x28,
0x2a,0x00,0x81,0x58,0x2a,0x3f,0x81,0x28,0x2a,0x00,0x81,0x58,0x2a,0x3f,0x81,0x28,
0x2a,0x00,0x81,0x58,0x2a,0x3f,0x81,0x30,0x2a,0x00,0x81,0x50,0x2a,0x3f,0x81,0x30,
0x2a,0x00,0x81,0x50,0x2a,0x3f,0x81,0x28,0x2a,0x00,0x81,0x58,0x2a,0x3f,0x81,0x28,
0x2a,0x00,0x81,0x58,0x2a,0x3f,0x81,0x30,0x2a,0x00,0x81,0x50,0x2a,0x3f,0x81,0x28,
0x2a,0x00,0x81,0x58,0x2a,0x3f,0x81,0x30,0x2a,0x00,0x81,0x50,0x2a,0x3f,0x81,0x28,
0x2a,0x00,0x81,0x58,0x2a,0x3f,0x81,0x30,0x2a,0x00,0x81,0x50,0x2a,0x3f,0x81,0x30,
0x2a,0x00,0x81,0x50,0x2a,0x3f,0x81,0x28,0x2a,0x00,0x81,0x58,0x2a,0x3f,0x81,0x28,
0x2a,0x00,0x81,0x58,0x2a,0x3f,0x81,0x30,0x2a,0x00,0x81,0x50,0x2a,0x3f,0x81,0x28,
0x2a,0x00,0x81,0x58,0x2a,0x3f,0x81,0x30,0x2a,0x00,0x81,0x50,0x2a,0x3f,0x81,0x28,
0x2a,0x00,0x81,0x58,0x2a,0x3f,0x81,0x30,0x2a,0x00,0x81,0x50,0x2a,0x3f,0x81,0x30,
0x2a,0x00,0x81,0x50,0x2a,0x3f,0x81,0x28,0x2a,0x00,0x81,0x58,0x2a,0x3f,0x81,0x28,
0x2a,0x00,0x81,0x58,0x2a,0x3f,0x81,0x30,0x2a,0x00,0x81,0x50,0x2a,0x3f,0x81,0x30,
0x2a,0x00,0x81,0x50,0x2a,0x3f,0x81,0x30,0x2a,0x00,0x81,0x50,0x2a,0x3f,0x81,0x30,
0x2a,0x00,0x81,0x50,0x2a,0x3f,0x81,0x30,0x2a,0x00,0x81,0x50,0x2a,0x3f,0x81,0x30,
0x2a,0x00,0x81,0x50,0x2a,0x3f,0x81,0x28,0x2a,0x00,0x81,0x58,0x2a,0x3f,0x81,0x28,
0x2a,0x00,0x81,0x58,0x2a,0x3f,0x81,0x30,0x2a,0x00,0x81,0x50,0x2a,0x3f,0x81,0x30,
0x2a,0x00,0x81,0x50,0x2a,0x3f,0x81,0x30,0x2a,0x00,0x81,0x50,0x2a,0x3f,0x81,0x28,
0x2a,0x00,0x81,0x58,0x2a,0x3f,0x81,0x30,0x2a,0x00,0x81,0x50,0x2a,0x3f,0x81,0x30,
0x2a,0x00,0x81,0x50,0x2a,0x3f,0x81,0x28,0x2a,0x00,0x81,0x58,0x2a,0x3f,0x81,0x30,
0x2a,0x00,0x81,0x50,0x2a,0x3f,0x81,0x28,0x2a,0x00,0x81,0x58,0x2a,0x3f,0x81,0x30,
0x2a,0x00,0x81,0x50,0x2a,0x3f,0x81,0x30,0x2a,0x00,0x81,0x50,0x2a,0x3f,0x81,0x30,
0x2a,0x00,0x81,0x50,0x2a,0x3f,0x81,0x28,0x2a,0x00,0x81,0x58,0x2a,0x3f,0x81,0x30,
0x2a,0x00,0x81,0x50,0x2a,0x3f,0x81,0x30,0x2a,0x00,0x81,0x50,0x2a,0x3f,0x81,0x30,
0x2a,0x00,0x81,0x50,0x2a,0x3f,0x81,0x28,0x2a,0x00,0x81,0x58,0x2a,0x3f,0x81,0x30,
0x2a,0x00,0x81,0x50,0x2a,0x3f,0x81,0x30,0x2a,0x00,0x81,0x50,0x2a,0x3f,0x81,0x30,
0x2a,0x00,0x8d,0x50,0x2a,0x3f,0x81,0x28,0x2a,0x00,0x81,0x58,0x2a,0x3f,0x81,0x30,
0x2a,0x00,0x81,0x50,0x2a,0x3f,0x81,0x30,0x2a,0x00,0x81,0x50,0x2a,0x3f,0x81,0x30,
0x2a,0x00,0x81,0x50,0x2a,0x3f,0x81,0x28,0x2a,0x00,0x84,0x58,0x2a,0x3f,0x81,0x30,
0x2a,0x00,0x81,0x50,0x2a,0x3f,0x81,0x30,0x2a,0x00,0x81,0x50,0x2a,0x3f,0x81,0x28,
0x2a,0x00,0x81,0x58,0x2a,0x3f,0x81,0x30,0x2a,0x00,0x81,0x50,0x2a,0x3f,0x81,0x30,
0x2a,0x00,0x81,0x50,0x2a,0x3f,0x81,0x30,0x2a,0x00,0x81,0x50,0x2a,0x3f,0x81,0x30,
0x2a,0x00,0x81,0x50,0x2a,0x3f,0x81,0x28,0x2a,0x00,0x81,0x58,0x2a,0x3f,0x00,0x26,
0x3f,0x81,0x28,0x26,0x00,0x00,0x2a,0x00,0x18,0x26,0x3f,0x48,0x26,0x00,0x18,0x26,
0x3f,0x81,0x28,0x26,0x00,0x18,0x26,0x3f,0x48,0x26,0x00,0x81,0x58,0x2a,0x3f,0x81,
0x30,0x2a,0x00,0x81,0x50,0x2a,0x3f,0x81,0x30,0x2a,0x00,0x81,0x50,0x2a,0x3f,0x81,
0x30,0x2a,0x00,0x81,0x50,0x2a,0x3f,0x81,0x30,0x2a,0x00,0x81,0x50,0x2a,0x3f,0x81,
0x30,0x2a,0x00,0x81,0x50,0x2a,0x3f,0x81,0x28,0x2a,0x00,0x81,0x58,0x2a,0x3f,0x81,
0x28,0x2a,0x00,0x81,0x58,0x2a,0x3f,0x81,0x28,0x2a,0x00,0x81,0x58,0x2a,0x3f,0x81,
0x28,0x2a,0x00,0x81,0x58,0x2a,0x3f,0x81,0x28,0x2a,0x00,0x81,0x58,0x2a,0x3f,0x81,
0x28,0x2a,0x00,0x81,0x58,0x2a,0x3f,0x81,0x28,0x2a,0x00,0x81,0x58,0x2a,0x3f,0x81,
0x28,0x2a,0x00,0x81,0x58,0x2a,0x3f,0x81,0x28,0x2a,0x00,0x81,0x58,0x2a,0x3f,0x81,
0x28,0x2a,0x00,0x81,0x58,0x2a,0x3f,0x81,0x28,0x2a,0x00,0x81,0x58,0x2a,0x3f,0x81,
0x28,0x2a,0x00,0x81,0x58,0x2a,0x3f,0x81,0x28,0x2a,0x00,0x81,0x58,0x2a,0x3f,0x81,
0x28,0x2a,0x00,0x81,0x58,0x2a,0x3f,0x81,0x28,0x2a,0x00,0x81,0x58,0x2a,0x3f,0x81,
0x28,0x2a,0x00,0x81,0x58,0x2a,0x3f,0x81,0x28,0x2a,0x00,0x81,0x58,0x2a,0x3f,0x81,
0x28,0x2a,0x00,0x81,0x58,0x2a,0x3f,0x81,0x28,0x2a,0x00,0x81,0x58,0x2a,0x3f,0x81,
0x28,0x2a,0x00,0x81,0x58,0x2a,0x3f,0x81,0x28,0x2a,0x00,0x81,0x58,0x2a,0x3f,0x81,
0x28,0x2a,0x00,0x81,0x58,0x2a,0x3f,0x81,0x28,0x2a,0x00,0x81,0x58,0x2a,0x3f,0x81,
0x28,0x2a,0x00,0x81,0x58,0x2a,0x3f,0x81,0x28,0x2a,0x00,0x81,0x58,0x2a,0x3f,0x81,
0x28,0x2a,0x00,0x81,0x58,0x2a,0x3f,0x81,0x28,0x2a,0x00,0x81,0x58,0x2a,0x3f,0x81,
0x28,0x2a,0x00,0x81,0x58,0x2a,0x3f,0x81,0x28,0x2a,0x00,0x81,0x58,0x2a,0x3f,0x81,
0x28,0x2a,0x00,0x81,0x58,0x2a,0x3f,0x81,0x28,0x2a,0x00,0x81,0x58,0x2a,0x3f,0x81,
0x28,0x2a,0x00,0x81,0x58,0x2a,0x3f,0x81,0x28,0x2a,0x00,0x81,0x58,0x2a,0x3f,0x81,
0x28,0x2a,0x00,0x81,0x58,0x2a,0x3f,0x81,0x28,0x2a,0x00,0x81,0x58,0x2a,0x3f,0x81,
0x28,0x2a,0x00,0x81,0x58,0x2a,0x3f,0x81,0x28,0x2a,0x00,0x81,0x58,0x2a,0x3f,0x81,
0x28,0x2a,0x00,0x81,0x58,0x2a,0x3f,0x81,0x28,0x2a,0x00,0x81,0x58,0x2a,0x3f,0x81,
0x28,0x2a,0x00,0x81,0x58,0x2a,0x3f,0x81,0x28,0x2a,0x00,0x81,0x58,0x2a,0x3f,0x81,
0x28,0x2a,0x00,0x81,0x58,0x2a,0x3f,0x81,0x28,0x2a,0x00,0x81,0x58,0x2a,0x3f,0x81,
0x28,0x2a,0x00,0x81,0x58,0x2a,0x3f,0x81,0x28,0x2a,0x00,0x81,0x58,0x2a,0x3f,0x81,
0x28,0x2a,0x00,0x81,0x58,0x2a,0x3f,0x81,0x28,0x2a,0x00,0x81,0x58,0x2a,0x3f,0x81,
0x28,0x2a,0x00,0x81,0x58,0x2a,0x3f,0x81,0x28,0x2a,0x00,0x81,0x58,0x2a,0x3f,0x81,
0x28,0x2a,0x00,0x81,0x58,0x2a,0x3f,0x81,0x28,0x2a,0x00,0x81,0x58,0x2a,0x3f,0x81,
0x28,0x2a,0x00,0x81,0x58,0x2a,0x3f,0x81,0x28,0x2a,0x00,0x81,0x58,0x2a,0x3f,0x81,
0x28,0x2a,0x00,0x81,0x58,0x2a,0x3f,0x81,0x28,0x2a,0x00,0x81,0x58,0x2a,0x3f,0x81,
0x28,0x2a,0x00,0x81,0x58,0x2a,0x3f,0x81,0x28,0x2a,0x00,0x81,0x58,0x2a,0x3f,0x81,
0x28,0x2a,0x00,0x81,0x58,0x2a,0x3f,0x81,0x28,0x2a,0x00,0x81,0x58,0x2a,0x3f,0x81,
0x28,0x2a,0x00,0x81,0x58,0x2a,0x3f,0x81,0x28,0x2a,0x00,0x81,0x58,0x2a,0x3f,0x81,
0x28,0x2a,0x00,0x81,0x58,0x2a,0x3f,0x81,0x28,0x2a,0x00,0x81,0x58,0x2a,0x3f,0x81,
0x28,0x2a,0x00,0x81,0x58,0x2a,0x3f,0x81,0x28,0x2a,0x00,0x81,0x58,0x2a,0x3f,0x81,
0x28,0x2a,0x00,0x81,0x58,0x2a,0x3f,0x81,0x28,0x2a,0x00,0x81,0x58,0x2a,0x3f,0x81,
0x28,0x2a,0x00,0x81,0x58,0x2a,0x3f,0x81,0x28,0x2a,0x00,0x81,0x58,0x2a,0x3f,0x81,
0x28,0x2a,0x00,0x81,0x58,0x2a,0x3f,0x81,0x28,0x2a,0x00,0x8d,0x58,0x2a,0x3f,0x81,
0x28,0x2a,0x00,0x81,0x58,0x2a,0x3f,0x81,0x28,0x2a,0x00,0x81,0x58,0x2a,0x3f,0x81,
0x28,0x2a,0x00,0x81,0x58,0x2a,0x3f,0x81,0x28,0x2a,0x00,0x81,0x58,0x2a,0x3f,0x81,
0x28,0x2a,0x00,0x84,0x58,0x2a,0x3f,0x81,0x28,0x2a,0x00,0x81,0x58,0x2a,0x3f,0x81,
0x28,0x2a,0x00,0x81,0x58,0x2a,0x3f,0x81,0x28,0x2a,0x00,0x81,0x58,0x2a,0x3f,0x81,
0x28,0x2a,0x00,0x81,0x58,0x2a,0x3f,0x81,0x28,0x2a,0x00,0x81,0x58,0x2a,0x3f,0x81,
0x28,0x2a,0x00,0x81,0x58,0x2a,0x3f,0x81,0x28,0x2a,0x00,0x81,0x58,0x2a,0x3f,0x81,
0x28,0x2a,0x00,0x81,0x58,0x2a,0x3f,0x00,0x26,0x3f,0x81,0x28,0x26,0x00,0x00,0x2a,
0x00,0x18,0x26,0x3f,0x48,0x26,0x00,0x18,0x26,0x3f,0x81,0x28,0x26,0x00,0x18,0x26,
0x3f,0x48,0x26,0x00,0x18,0x24,0x3f,0x81,0x28,0x24,0x00,0x18,0x26,0x3f,0x81,0x28,
0x26,0x00,0x18,0x24,0x3f,0x48,0x24,0x00,0x18,0x32,0x3f,0x48,0x32,0x00,0x18,0x26,
0x3f,0x48,0x26,0x00,0x18,0x2b,0x3f,0x48,0x2b,0x00,0x18,0x24,0x3f,0x48,0x24,0x00,
0x18,0x24,0x3f,0x48,0x24,0x00,0x18,0x32,0x3f,0x00,0x26,0x3f,0x48,0x26,0x00,0x00,
0x32,0x00,0x18,0x2b,0x3f,0x48,0x2b,0x00,0x18,0x24,0x3f,0x48,0x24,0x00,0x18,0x2b,
0x3f,0x48,0x2b,0x00,0x18,0x26,0x3f,0x48,0x26,0x00,0x18,0x32,0x3f,0x48,0x32,0x00,
0x18,0x24,0x3f,0x48,0x24,0x00,0x18,0x32,0x3f,0x48,0x32,0x00,0x18,0x2b,0x3f,0x00,
0x26,0x3f,0x48,0x26,0x00,0x00,0x2b,0x00,0x18,0x32,0x3f,0x48,0x32,0x00,0x18,0x2b,
0x3f,0x00,0x24,0x3f,0x48,0x24,0x00,0x00,0x2b,0x00,0x18,0x2b,0x3f,0x00,0x26,0x3f,
0x48,0x26,0x00,0x00,0x2b,0x00,0x18,0x32,0x3f,0x00,0x26,0x3f,0x48,0x26,0x00,0x00,
0x32,0x00,0x18,0x2b,0x3f,0x48,0x2b,0x00,0x18,0x26,0x3f,0x00,0x32,0x3f,0x00,0x24,
0x3f,0x48,0x24,0x00,0x00,0x32,0x00,0x00,0x26,0x00,0x18,0x2b,0x3f,0x00,0x26,0x3f,
0x48,0x26,0x00,0x00,0x2b,0x00,0x18,0x32,0x3f,0x00,0x26,0x3f,0x48,0x26,0x00,0x00,
0x32,0x00,0x18,0x2b,0x3f,0x48,0x2b,0x00,0x18,0x2f,0x3f,0x00,0x24,0x3f,0x48,0x24,
0x00,0x00,0x2f,0x00,0x18,0x2b,0x3f,0x48,0x2b,0x00,0x18,0x32,0x3f,0x00,0x26,0x3f,
0x48,0x26,0x00,0x00,0x32,0x00,0x18,0x2b,0x3f,0x00,0x26,0x3f,0x48,0x26,0x00,0x00,
0x2b,0x00,0x18,0x2b,0x3f,0x00,0x24,0x3f,0x48,0x24,0x00,0x00,0x2b,0x00,0x18,0x32,
0x3f,0x48,0x32,0x00,0x18,0x2b,0x3f,0x00,0x26,0x3f,0x48,0x26,0x00,0x00,0x2b,0x00,
0x18,0x2b,0x3f,0x48,0x2b,0x00,0x18,0x32,0x3f,0x00,0x24,0x3f,0x48,0x24,0x00,0x00,
0x32,0x00,0x18,0x2b,0x3f,0x48,0x2b,0x00,0x18,0x2b,0x3f,0x00,0x32,0x3f,0x00,0x26,
0x3f,0x48,0x26,0x00,0x00,0x32,0x00,0x00,0x2b,0x00,0x18,0x32,0x3f,0x48,0x32,0x00,
0x18,0x32,0x3f,0x00,0x24,0x3f,0x48,0x24,0x00,0x00,0x32,0x00,0x18,0x2b,0x3f,0x48,
0x2b,0x00,0x18,0x2b,0x3f,0x00,0x26,0x3f,0x48,0x26,0x00,0x00,0x2b,0x00,0x18,0x32,
0x3f,0x48,0x32,0x00,0x18,0x2b,0x3f,0x00,0x32,0x3f,0x00,0x24,0x3f,0x48,0x24,0x00,
0x00,0x32,0x00,0x00,0x2b,0x00,0x18,0x32,0x3f,0x48,0x32,0x00,0x18,0x2b,0x3f,0x00,
0x26,0x3f,0x48,0x26,0x00,0x00,0x2b,0x00,0x18,0x2b,0x3f,0x48,0x2b,0x00,0x18,0x32,
0x3f,0x00,0x24,0x3f,0x48,0x24,0x00,0x00,0x32,0x00,0x18,0x2b,0x3f,0x48,0x2b,0x00,
0x18,0x2b,0x3f,0x00,0x26,0x3f,0x48,0x26,0x00,0x00,0x2b,0x00,0x18,0x32,0x3f,0x48,
0x32,0x00,0x18,0x2f,0x3f,0x00,0x24,0x3f,0x48,0x24,0x00,0x00,0x2f,0x00,0x18,0x32,
0x3f,0x48,0x32,0x00,0x18,0x2b,0x3f,0x00,0x26,0x3f,0x48,0x26,0x00,0x00,0x2b,0x00,
0x18,0x2f,0x3f,0x48,0x2f,0x00,0x18,0x2f,0x3f,0x00,0x24,0x3f,0x48,0x24,0x00,0x00,
0x2f,0x00,0x18,0x32,0x3f,0x00,0x2f,0x3f,0x48,0x2f,0x00,0x00,0x32,0x00,0x18,0x2b,
0x3f,0x00,0x26,0x3f,0x48,0x26,0x00,0x00,0x2b,0x00,0x18,0x32,0x3f,0x48,0x32,0x00,
0x18,0x2f,0x3f,0x00,0x24,0x3f,0x48,0x24,0x00,0x00,0x2f,0x00,0x18,0x2b,0x3f,0x48,
0x2b,0x00,0x18,0x32,0x3f,0x00,0x26,0x3f,0x48,0x26,0x00,0x00,0x32,0x00,0x18,0x2b,
0x3f,0x48,0x2b,0x00,0x18,0x2b,0x3f,0x00,0x24,0x3f,0x48,0x24,0x00,0x00,0x2b,0x00,
0x18,0x2f,0x3f,0x48,0x2f,0x00,0x18,0x32,0x3f,0x00,0x26,0x3f,0x48,0x26,0x00,0x00,
0x32,0x00,0x18,0x2f,0x3f,0x48,0x2f,0x00,0x18,0x2b,0x3f,0x00,0x24,0x3f,0x48,0x24,
0x00,0x00,0x2b,0x00,0x18,0x32,0x3f,0x48,0x32,0x00,0x18,0x2b,0x3f,0x00,0x26,0x3f,
0x48,0x26,0x00,0x00,0x2b,0x00,0x18,0x2f,0x3f,0x48,0x2f,0x00,0x18,0x2f,0x3f,0x00,
0x24,0x3f,0x48,0x24,0x00,0x00,0x2f,0x00,0x18,0x32,0x3f,0x48,0x32,0x00,0x18,0x2b,
0x3f,0x00,0x26,0x3f,0x48,0x26,0x00,0x00,0x2b,0x00,0x18,0x2f,0x3f,0x48,0x2f,0x00,
0x18,0x2b,0x3f,0x00,0x24,0x3f,0x48,0x24,0x00,0x00,0x2b,0x00,0x18,0x32,0x3f,0x48,
0x32,0x00,0x18,0x32,0x3f,0x00,0x26,0x3f,0x48,0x26,0x00,0x00,0x32,0x00,0x18,0x2f,
0x3f,0x48,0x2f,0x00,0x18,0x2b,0x3f,0x00,0x24,0x3f,0x48,0x24,0x00,0x00,0x2b,0x00,
0x18,0x2f,0x3f,0x48,0x2f,0x00,0x18,0x2b,0x3f,0x00,0x26,0x3f,0x48,0x26,0x00,0x00,
0x2b,0x00,0x18,0x2f,0x3f,0x48,0x2f,0x00,0x18,0x2b,0x3f,0x00,0x24,0x3f,0x48,0x24,
0x00,0x00,0x2b,0x00,0x18,0x32,0x3f,0x00,0x26,0x3f,0x48,0x26,0x00,0x00,0x32,0x00,
0x18,0x2f,0x3f,0x00,0x26,0x3f,0x48,0x26,0x00,0x00,0x2f,0x00,0x18,0x32,0x3f,0x00,
0x2f,0x3f,0x48,0x2f,0x00,0x00,0x32,0x00,0x18,0x2b,0x3f,0x00,0x24,0x3f,0x48,0x24,
0x00,0x00,0x2b,0x00,0x18,0x32,0x3f,0x48,0x32,0x00,0x18,0x2f,0x3f,0x00,0x26,0x3f,
0x48,0x26,0x00,0x00,0x2f,0x00,0x18,0x2b,0x3f,0x00,0x26,0x3f,0x48,0x26,0x00,0x00,
0x2b,0x00,0x18,0x32,0x3f,0x00,0x24,0x3f,0x48,0x24,0x00,0x00,0x32,0x00,0x18,0x2b,
0x3f,0x48,0x2b,0x00,0x18,0x32,0x3f,0x00,0x26,0x3f,0x48,0x26,0x00,0x00,0x32,0x00,
0x18,0x2f,0x3f,0x48,0x2f,0x00,0x18,0x2f,0x3f,0x00,0x24,0x3f,0x48,0x24,0x00,0x00,
0x2f,0x00,0x18,0x2b,0x3f,0x48,0x2b,0x00,0x18,0x32,0x3f,0x00,0x26,0x3f,0x48,0x26,
0x00,0x00,0x32,0x00,0x18,0x2f,0x3f,0x00,0x26,0x3f,0x48,0x26,0x00,0x00,0x2f,0x00,
0x18,0x2b,0x3f,0x00,0x24,0x3f,0x48,0x24,0x00,0x00,0x2b,0x00,0x18,0x32,0x3f,0x00,
0x26,0x3f,0x48,0x26,0x00,0x00,0x32,0x00,0x18,0x2b,0x3f,0x48,0x2b,0x00,0x18,0x2f,
0x3f,0x00,0x26,0x3f,0x48,0x26,0x00,0x00,0x2f,0x00,0x18,0x2f,0x3f,0x00,0x24,0x3f,
0x48,0x24,0x00,0x00,0x2f,0x00,0x18,0x32,0x3f,0x00,0x26,0x3f,0x48,0x26,0x00,0x00,
0x32,0x00,0x18,0x2b,0x3f,0x48,0x2b,0x00,0x18,0x2f,0x3f,0x00,0x26,0x3f,0x48,0x26,
0x00,0x00,0x2f,0x00,0x18,0x32,0x3f,0x00,0x24,0x3f,0x48,0x24,0x00,0x00,0x32,0x00,
0x18,0x32,0x3f,0x48,0x32,0x00,0x18,0x2f,0x3f,0x00,0x26,0x3f,0x48,0x26,0x00,0x00,
0x2f,0x00,0x18,0x2b,0x3f,0x48,0x2b,0x00,0x18,0x2b,0x3f,0x00,0x24,0x3f,0x48,0x24,
0x00,0x00,0x2b,0x00,0x18,0x2f,0x3f,0x48,0x2f,0x00,0x18,0x32,0x3f,0x00,0x26,0x3f,
0x48,0x26,0x00,0x00,0x32,0x00,0x18,0x2b,0x3f,0x48,0x2b,0x00,0x18,0x2f,0x3f,0x00,
0x24,0x3f,0x48,0x24,0x00,0x00,0x2f,0x00,0x18,0x32,0x3f,0x00,0x26,0x3f,0x48,0x26,
0x00,0x00,0x32,0x00,0x18,0x2f,0x3f,0x00,0x26,0x3f,0x48,0x26,0x00,0x00,0x2f,0x00,
0x18,0x30,0x3f,0x00,0x26,0x3f,0x48,0x26,0x00,0x00,0x30,0x00,0x18,0x26,0x3f,0x00,
0x32,0x3f,0x00,0x24,0x3f,0x48,0x24,0x00,0x00,0x32,0x00,0x00,0x26,0x00,0x18,0x2f,
0x3f,0x48,0x2f,0x00,0x18,0x2b,0x3f,0x00,0x26,0x3f,0x48,0x26,0x00,0x00,0x2b,0x00,
0x18,0x2b,0x3f,0x48,0x2b,0x00,0x18,0x26,0x3f,0x00,0x32,0x3f,0x00,0x24,0x3f,0x48,
0x24,0x00,0x00,0x32,0x00,0x00,0x26,0x00,0x18,0x2f,0x3f,0x00,0x26,0x3f,0x48,0x26,
0x00,0x00,0x2f,0x00,0x18,0x2b,0x3f,0x48,0x2b,0x00,0x18,0x32,0x3f,0x00,0x26,0x3f,
0x48,0x26,0x00,0x00,0x32,0x00,0x18,0x2b,0x3f,0x00,0x24,0x3f,0x48,0x24,0x00,0x00,
0x2b,0x00,0x18,0x2f,0x3f,0x48,0x2f,0x00,0x18,0x2b,0x3f,0x00,0x26,0x3f,0x48,0x26,
0x00,0x00,0x2b,0x00,0x18,0x32,0x3f,0x48,0x32,0x00,0x18,0x2f,0x3f,0x00,0x24,0x3f,
0x48,0x24,0x00,0x00,0x2f,0x00,0x18,0x2b,0x3f,0x48,0x2b,0x00,0x18,0x32,0x3f,0x00,
0x26,0x3f,0x48,0x26,0x00,0x00,0x32,0x00,0x18,0x2f,0x3f,0x48,0x2f,0x00,0x18,0x2b,
0x3f,0x00,0x24,0x3f,0x48,0x24,0x00,0x00,0x2b,0x00,0x18,0x32,0x3f,0x48,0x32,0x00,
0x18,0x2f,0x3f,0x00,0x26,0x3f,0x48,0x26,0x00,0x00,0x2f,0x00,0x18,0x32,0x3f,0x48,
0x32,0x00,0x18,0x2b,0x3f,0x00,0x24,0x3f,0x48,0x24,0x00,0x00,0x2b,0x00,0x18,0x2f,
0x3f,0x48,0x2f,0x00,0x18,0x2f,0x3f,0x00,0x26,0x3f,0x48,0x26,0x00,0x00,0x2f,0x00,
0x18,0x32,0x3f,0x48,0x32,0x00,0x18,0x2f,0x3f,0x00,0x24,0x3f,0x48,0x24,0x00,0x00,
0x2f,0x00,0x18,0x2b,0x3f,0x48,0x2b,0x00,0x18,0x32,0x3f,0x00,0x26,0x3f,0x48,0x26,
0x00,0x00,0x32,0x00,0x18,0x2f,0x3f,0x00,0x26,0x3f,0x48,0x26,0x00,0x00,0x2f,0x00,
0x18,0x32,0x3f,0x00,0x24,0x3f,0x48,0x24,0x00,0x00,0x32,0x00,0x18,0x2b,0x3f,0x48,
0x2b,0x00,0x18,0x2f,0x3f,0x00,0x26,0x3f,0x48,0x26,0x00,0x00,0x2f,0x00,0x18,0x2f,
0x3f,0x48,0x2f,0x00,0x18,0x2b,0x3f,0x00,0x24,0x3f,0x48,0x24,0x00,0x00,0x2b,0x00,
0x18,0x32,0x3f,0x00,0x26,0x3f,0x48,0x26,0x00,0x00,0x32,0x00,0x18,0x2f,0x3f,0x00,
0x26,0x3f,0x48,0x26,0x00,0x00,0x2f,0x00,0x18,0x32,0x3f,0x00,0x26,0x3f,0x48,0x26,
0x00,0x00,0x32,0x00,0x18,0x2f,0x3f,0x00,0x24,0x3f,0x48,0x24,0x00,0x00,0x2f,0x00,
0x18,0x2b,0x3f,0x48,0x2b,0x00,0x18,0x2f,0x3f,0x00,0x26,0x3f,0x48,0x26,0x00,0x00,
0x2f,0x00,0x18,0x32,0x3f,0x48,0x32,0x00,0x18,0x2b,0x3f,0x00,0x24,0x3f,0x48,0x24,
0x00,0x00,0x2b,0x00,0x18,0x2f,0x3f,0x48,0x2f,0x00,0x18,0x2b,0x3f,0x00,0x26,0x3f,
0x48,0x26,0x00,0x00,0x2b,0x00,0x18,0x2f,0x3f,0x48,0x2f,0x00,0x18,0x32,0x3f,0x00,
0x24,0x3f,0x48,0x24,0x00,0x00,0x32,0x00,0x18,0x2f,0x3f,0x48,0x2f,0x00,0x18,0x2b,
0x3f,0x00,0x26,0x3f,0x48,0x26,0x00,0x00,0x2b,0x00,0x18,0x32,0x3f,0x48,0x32,0x00,
0x18,0x2f,0x3f,0x00,0x24,0x3f,0x48,0x24,0x00,0x00,0x2f,0x00,0x18,0x2b,0x3f,0x48,
0x2b,0x00,0x18,0x32,0x3f,0x00,0x26,0x3f,0x48,0x26,0x00,0x00,0x32,0x00,0x18,0x2b,
0x3f,0x48,0x2b,0x00,0x18,0x2f,0x3f,0x00,0x24,0x3f,0x48,0x24,0x00,0x00,0x2f,0x00,
0x18,0x2b,0x3f,0x48,0x2b,0x00,0x18,0x2b,0x3f,0x00,0x26,0x3f,0x48,0x26,0x00,0x00,
0x2b,0x00,0x18,0x32,0x3f,0x48,0x32,0x00,0x18,0x2b,0x3f,0x00,0x24,0x3f,0x48,0x24,
0x00,0x00,0x2b,0x00,0x18,0x2f,0x3f,0x48,0x2f,0x00,0x18,0x32,0x3f,0x00,0x26,0x3f,
0x48,0x26,0x00,0x00,0x32,0x00,0x18,0x2b,0x3f,0x48,0x2b,0x00,0x18,0x2b,0x3f,0x00,
0x24,0x3f,0x48,0x24,0x00,0x00,0x2b,0x00,0x18,0x32,0x3f,0x00,0x26,0x3f,0x48,0x26,
0x00,0x00,0x32,0x00,0x18,0x2f,0x3f,0x48,0x2f,0x00,0x18,0x2b,0x3f,0x00,0x26,0x3f,
0x48,0x26,0x00,0x00,0x2b,0x00,0x18,0x2b,0x3f,0x00,0x24,0x3f,0x48,0x24,0x00,0x00,
0x2b,0x00,0x18,0x32,0x3f,0x00,0x26,0x3f,0x48,0x26,0x00,0x00,0x32,0x00,0x18,0x2f,
0x3f,0x00,0x2b,0x3f,0x48,0x2b,0x00,0x00,0x2f,0x00,0x18,0x32,0x3f,0x00,0x26,0x3f,
0x48,0x26,0x00,0x00,0x32,0x00,0x18,0x2b,0x3f,0x00,0x24,0x3f,0x48,0x24,0x00,0x00,
0x2b,0x00,0x18,0x2f,0x3f,0x48,0x2f,0x00,0x18,0x2b,0x3f,0x00,0x26,0x3f,0x48,0x26,
0x00,0x00,0x2b,0x00,0x18,0x32,0x3f,0x48,0x32,0x00,0x18,0x2b,0x3f,0x00,0x24,0x3f,
0x48,0x24,0x00,0x00,0x2b,0x00,0x18,0x2f,0x3f,0x48,0x2f,0x00,0x18,0x2b,0x3f,0x00,
0x26,0x3f,0x48,0x26,0x00,0x00,0x2b,0x00,0x18,0x2f,0x3f,0x48,0x2f,0x00,0x18,0x32,
0x3f,0x00,0x24,0x3f,0x48,0x24,0x00,0x00,0x32,0x00,0x18,0x32,0x3f,0x48,0x32,0x00,
0x18,0x2b,0x3f,0x00,0x26,0x3f,0x48,0x26,0x00,0x00,0x2b,0x00,0x18,0x2f,0x3f,0x48,
0x2f,0x00,0x18,0x2f,0x3f,0x00,0x24,0x3f,0x48,0x24,0x00,0x00,0x2f,0x00,0x18,0x32,
0x3f,0x48,0x32,0x00,0x18,0x2b,0x3f,0x00,0x26,0x3f,0x48,0x26,0x00,0x00,0x2b,0x00,
0x18,0x2f,0x3f,0x48,0x2f,0x00,0x18,0x2f,0x3f,0x00,0x24,0x3f,0x48,0x24,0x00,0x00,
0x2f,0x00,0x18,0x2b,0x3f,0x48,0x2b,0x00,0x18,0x2b,0x3f,0x00,0x26,0x3f,0x48,0x26,
0x00,0x00,0x2b,0x00,0x18,0x32,0x3f,0x48,0x32,0x00,0x18,0x2f,0x3f,0x00,0x24,0x3f,
0x48,0x24,0x00,0x00,0x2f,0x00,0x18,0x2b,0x3f,0x48,0x2b,0x00,0x18,0x32,0x3f,0x00,
0x26,0x3f,0x48,0x26,0x00,0x00,0x32,0x00,0x18,0x2b,0x3f,0x48,0x2b,0x00,0x18,0x2f,
0x3f,0x00,0x24,0x3f,0x48,0x24,0x00,0x00,0x2f,0x00,0x18,0x2f,0x3f,0x48,0x2f,0x00,
0x18,0x2f,0x3f,0x00,0x26,0x3f,0x48,0x26,0x00,0x00,0x2f,0x00,0x18,0x2b,0x3f,0x00,
0x26,0x3f,0x48,0x26,0x00,0x00,0x2b,0x00,0x18,0x32,0x3f,0x00,0x24,0x3f,0x48,0x24,
0x00,0x00,0x32,0x00,0x18,0x2b,0x3f,0x48,0x2b,0x00,0x18,0x2f,0x3f,0x00,0x26,0x3f,
0x48,0x26,0x00,0x00,0x2f,0x00,0x18,0x2f,0x3f,0x48,0x2f,0x00,0x18,0x2b,0x3f,0x00,
0x24,0x3f,0x48,0x24,0x00,0x00,0x2b,0x00,0x18,0x32,0x3f,0x48,0x32,0x00,0x18,0x2b,
0x3f,0x00,0x26,0x3f,0x48,0x26,0x00,0x00,0x2b,0x00,0x18,0x2f,0x3f,0x48,0x2f,0x00,
0x18,0x2b,0x3f,0x00,0x24,0x3f,0x48,0x24,0x00,0x00,0x2b,0x00,0x18,0x2f,0x3f,0x48,
0x2f,0x00,0x18,0x32,0x3f,0x00,0x26,0x3f,0x48,0x26,0x00,0x00,0x32,0x00,0x18,0x2f,
0x3f,0x48,0x2f,0x00,0x18,0x2b,0x3f,0x00,0x24,0x3f,0x48,0x24,0x00,0x00,0x2b,0x00,
0x18,0x2f,0x3f,0x48,0x2f,0x00,0x18,0x32,0x3f,0x00,0x26,0x3f,0x48,0x26,0x00,0x00,
0x32,0x00,0x18,0x32,0x3f,0x48,0x32,0x00,0x18,0x2b,0x3f,0x00,0x24,0x3f,0x48,0x24,
0x00,0x00,0x2b,0x00,0x18,0x2b,0x3f,0x48,0x2b,0x00,0x18,0x2f,0x3f,0x00,0x26,0x3f,
0x48,0x26,0x00,0x00,0x2f,0x00,0x18,0x2f,0x3f,0x48,0x2f,0x00,0x18,0x32,0x3f,0x00,
0x24,0x3f,0x48,0x24,0x00,0x00,0x32,0x00,0x18,0x2b,0x3f,0x00,0x26,0x3f,0x48,0x26,
0x00,0x00,0x2b,0x00,0x18,0x32,0x3f,0x48,0x32,0x00,0x18,0x32,0x3f,0x00,0x26,0x3f,
0x48,0x26,0x00,0x00,0x32,0x00,0x18,0x2b,0x3f,0x00,0x26,0x3f,0x48,0x26,0x00,0x00,
0x2b,0x00,0x18,0x2b,0x3f,0x00,0x26,0x3f,0x48,0x26,0x00,0x00,0x2b,0x00,0x78,0x24,
0x3f,0x48,0x24,0x00,0x18,0x2b,0x3f,0x00,0x26,0x3f,0x48,0x26,0x00,0x00,0x2b,0x00,
0x18,0x2b,0x3f,0x00,0x26,0x3f,0x48,0x26,0x00,0x00,0x2b,0x00,0x78,0x24,0x3f,0x48,
0x24,0x00,0x18,0x26,0x3f,0x81,0x28,0x26,0x00,0x18,0x2b,0x3f,0x00,0x24,0x3f,0x48,
0x24,0x00,0x00,0x2b,0x00,0x18,0x26,0x3f,0x81,0x28,0x26,0x00,0x18,0x2b,0x3f,0x00,
0x24,0x3f,0x48,0x24,0x00,0x00,0x2b,0x00,0x18,0x26,0x3f,0x81,0x28,0x26,0x00,0x18,
0x33,0x3f,0x81,0x30,0x33,0x00,0x10,0x33,0x3f,0x81,0x28,0x33,0x00,0x18,0x33,0x3f,
0x81,0x28,0x33,0x00,0x18,0x33,0x3f,0x81,0x28,0x33,0x00,0x18,0x33,0x3f,0x81,0x28,
0x33,0x00,0x18,0x33,0x3f,0x81,0x28,0x33,0x00,0x18,0x33,0x3f,0x81,0x28,0x33,0x00,
0x18,0x33,0x3f,0x81,0x28,0x33,0x00,0x18,0x33,0x3f,0x81,0x28,0x33,0x00,0x18,0x33,
0x3f,0x81,0x28,0x33,0x00,0x18,0x33,0x3f,0x81,0x28,0x33,0x00,0x18,0x33,0x3f,0x81,
0x28,0x33,0x00,0x18,0x33,0x3f,0x81,0x28,0x33,0x00,0x18,0x33,0x3f,0x81,0x28,0x33,
0x00,0x18,0x33,0x3f,0x81,0x28,0x33,0x00,0x18,0x33,0x3f,0x81,0x28,0x33,0x00,0x18,
0x33,0x3f,0x81,0x28,0x33,0x00,0x18,0x33,0x3f,0x81,0x28,0x33,0x00,0x18,0x33,0x3f,
0x81,0x28,0x33,0x00,0x18,0x33,0x3f,0x81,0x28,0x33,0x00,0x18,0x33,0x3f,0x81,0x28,
0x33,0x00,0x18,0x33,0x3f,0x81,0x28,0x33,0x00,0x18,0x33,0x3f,0x81,0x28,0x33,0x00,
0x18,0x33,0x3f,0x81,0x28,0x33,0x00,0x18,0x33,0x3f,0x81,0x28,0x33,0x00,0x18,0x33,
0x3f,0x81,0x28,0x33,0x00,0x18,0x33,0x3f,0x81,0x28,0x33,0x00,0x18,0x33,0x3f,0x81,
0x28,0x33,0x00,0x18,0x33,0x3f,0x81,0x28,0x33,0x00,0x18,0x33,0x3f,0x81,0x28,0x33,
0x00,0x18,0x33,0x3f,0x81,0x28,0x33,0x00,0x18,0x33,0x3f,0x81,0x28,0x33,0x00,0x18,
0x33,0x3f,0x81,0x28,0x33,0x00,0x18,0x33,0x3f,0x81,0x28,0x33,0x00,0x18,0x33,0x3f,
0x81,0x28,0x33,0x00,0x18,0x33,0x3f,0x81,0x28,0x33,0x00,0x18,0x33,0x3f,0x81,0x28,
0x33,0x00,0x18,0x33,0x3f,0x81,0x28,0x33,0x00,0x18,0x33,0x3f,0x81,0x28,0x33,0x00,
0x18,0x33,0x3f,0x81,0x28,0x33,0x00,0x18,0x33,0x3f,0x81,0x28,0x33,0x00,0x18,0x33,
0x3f,0x81,0x28,0x33,0x00,0x18,0x33,0x3f,0x81,0x28,0x33,0x00,0x18,0x33,0x3f,0x81,
0x28,0x33,0x00,0x18,0x33,0x3f,0x81,0x28,0x33,0x00,0x18,0x33,0x3f,0x81,0x28,0x33,
0x00,0x18,0x33,0x3f,0x81,0x28,0x33,0x00,0x18,0x33,0x3f,0x81,0x28,0x33,0x00,0x18,
0x33,0x3f,0x81,0x28,0x33,0x00,0x18,0x33,0x3f,0x81,0x28,0x33,0x00,0x18,0x33,0x3f,
0x81,0x28,0x33,0x00,0x18,0x33,0x3f,0x81,0x28,0x33,0x00,0x18,0x33,0x3f,0x81,0x28,
0x33,0x00,0x18,0x33,0x3f,0x81,0x28,0x33,0x00,0x18,0x33,0x3f,0x81,0x28,0x33,0x00,
0x18,0x33,0x3f,0x81,0x28,0x33,0x00,0x18,0x33,0x3f,0x81,0x28,0x33,0x00,0x18,0x33,
0x3f,0x81,0x28,0x33,0x00,0x18,0x33,0x3f,0x81,0x28,0x33,0x00,0x18,0x33,0x3f,0x81,
0x28,0x33,0x00,0x18,0x33,0x3f,0x81,0x28,0x33,0x00,0x18,0x33,0x3f,0x81,0x28,0x33,
0x00,0x18,0x33,0x3f,0x81,0x28,0x33,0x00,0x18,0x33,0x3f,0x81,0x28,0x33,0x00,0x18,
0x33,0x3f,0x00,0x26,0x3f,0x81,0x28,0x26,0x00,0x00,0x33,0x00,0x18,0x26,0x3f,0x81,
0x28,0x26,0x00,0x81,0x58,0x3c,0x51,0x48,0x3c,0x00,0x18,0x3c,0x51,0x48,0x3c,0x00,
0x18,0x3c,0x51,0x48,0x3c,0x00,0x18,0x3c,0x51,0x48,0x3c,0x00,0x18,0x3c,0x51,0x48,
0x3c,0x00,0x18,0x3c,0x51,0x48,0x3c,0x00,0x18,0x3c,0x51,0x48,0x3c,0x00,0x82,0x38,
0x33,0x3f,0x81,0x28,0x33,0x00,0x18,0x33,0x3f,0x81,0x28,0x33,0x00,0x18,0x33,0x3f,
0x81,0x28,0x33,0x00,0x18,0x33,0x3f,0x81,0x28,0x33,0x00,0x18,0x33,0x3f,0x81,0x28,
0x33,0x00,0x18,0x33,0x3f,0x81,0x28,0x33,0x00,0x18,0x33,0x3f,0x81,0x28,0x33,0x00,
0x18,0x33,0x3f,0x81,0x28,0x33,0x00,0x18,0x33,0x3f,0x81,0x28,0x33,0x00,0x18,0x33,
0x3f,0x81,0x28,0x33,0x00,0x18,0x33,0x3f,0x81,0x28,0x33,0x00,0x18,0x33,0x3f,0x81,
0x28,0x33,0x00,0x18,0x33,0x3f,0x81,0x28,0x33,0x00,0x18,0x33,0x3f,0x81,0x28,0x33,
0x00,0x18,0x33,0x3f,0x81,0x28,0x33,0x00,0x18,0x33,0x3f,0x81,0x28,0x33,0x00,0x18,
0x33,0x3f,0x81,0x28,0x33,0x00,0x18,0x33,0x3f,0x81,0x28,0x33,0x00,0x18,0x33,0x3f,
0x81,0x28,0x33,0x00,0x18,0x33,0x3f,0x81,0x28,0x33,0x00,0x18,0x33,0x3f,0x81,0x28,
0x33,0x00,0x18,0x33,0x3f,0x81,0x28,0x33,0x00,0x18,0x33,0x3f,0x81,0x28,0x33,0x00,
0x18,0x33,0x3f,0x81,0x28,0x33,0x00,0x18,0x33,0x3f,0x81,0x28,0x33,0x00,0x18,0x33,
0x3f,0x81,0x28,0x33,0x00,0x18,0x33,0x3f,0x81,0x28,0x33,0x00,0x18,0x33,0x3f,0x81,
0x28,0x33,0x00,0x18,0x33,0x3f,0x81,0x28,0x33,0x00,0x18,0x33,0x3f,0x81,0x28,0x33,
0x00,0x18,0x33,0x3f,0x81,0x28,0x33,0x00,0x18,0x33,0x3f,0x81,0x28,0x33,0x00,0x18,
0x33,0x3f,0x81,0x28,0x33,0x00,0x18,0x33,0x3f,0x81,0x28,0x33,0x00,0x18,0x33,0x3f,
0x81,0x28,0x33,0x00,0x18,0x33,0x3f,0x81,0x28,0x33,0x00,0x18,0x33,0x3f,0x81,0x28,
0x33,0x00,0x18,0x33,0x3f,0x81,0x28,0x33,0x00,0x18,0x33,0x3f,0x48,0x33,0x00,0x18,
0x26,0x3f,0x48,0x26,0x00,0x18,0x24,0x3f,0x48,0x24,0x00,0x18,0x2b,0x3f,0x00,0x26,
0x3f,0x48,0x26,0x00,0x00,0x2b,0x00,0x18,0x24,0x69,0x81,0x28,0x24,0x00,0x18,0x26,
0x69,0x81,0x28,0x26,0x00,0x18,0x26,0x69,0x48,0x26,0x00,0x18,0x26,0x69,0x48,0x26,
0x00,0x18,0x26,0x69,0x81,0x28,0x26,0x00,0x18,0x26,0x69,0x81,0x28,0x26,0x00,0x18,
0x26,0x69,0x18,0x26,0x00,0x18,0x26,0x69,0x18,0x26,0x00,0x18,0x32,0x69,0x48,0x32,
0x00,0x18,0x2f,0x69,0x48,0x2f,0x00,0x18,0x2b,0x69,0x48,0x2b,0x00,0x18,0x24,0x69,
0x48,0x24,0x00,0x78,0x24,0x69,0x81,0x28,0x24,0x00,0x18,0x26,0x69,0x81,0x28,0x26,
0x00,0x18,0x26,0x69,0x48,0x26,0x00,0x18,0x26,0x69,0x81,0x28,0x26,0x00,0x18,0x26,
0x69,0x48,0x26,0x00,0x18,0x26,0x69,0x81,0x28,0x26,0x00,0x18,0x26,0x69,0x81,0x28,
0x26,0x00,0x18,0x32,0x69,0x48,0x32,0x00,0x18,0x2f,0x69,0x48,0x2f,0x00,0x18,0x2b,
0x69,0x48,0x2b,0x00,0x78,0x24,0x69,0x48,0x24,0x00,0x18,0x26,0x69,0x81,0x28,0x26,
0x00,0x18,0x26,0x69,0x81,0x28,0x26,0x00,0x18,0x24,0x69,0x48,0x24,0x00,0x18,0x26,
0x69,0x48,0x26,0x00,0x18,0x26,0x69,0x48,0x26,0x00,0x18,0x26,0x69,0x48,0x26,0x00,
0x18,0x24,0x69,0x48,0x24,0x00,0x18,0x26,0x69,0x48,0x26,0x00,0x18,0x24,0x69,0x48,
0x24,0x00,0x18,0x26,0x69,0x48,0x26,0x00,0x18,0x32,0x69,0x18,0x32,0x00,0x18,0x32,
0x69,0x18,0x32,0x00,0x18,0x2f,0x69,0x48,0x2f,0x00,0x18,0x2b,0x69,0x48,0x2b,0x00,
0x18,0x26,0x69,0x48,0x26,0x00,0x18,0x31,0x69,0x81,0x28,0x31,0x00,0x18,0x31,0x69,
0x00,0x26,0x69,0x81,0x28,0x26,0x00,0x00,0x31,0x00,0x18,0x31,0x69,0x00,0x26,0x69,
0x48,0x26,0x00,0x00,0x31,0x00,0x18,0x26,0x69,0x48,0x26,0x00,0x18,0x31,0x69,0x48,
0x31,0x00,0x18,0x26,0x69,0x48,0x26,0x00,0x18,0x31,0x69,0x81,0x28,0x31,0x00,0x18,
0x26,0x69,0x48,0x26,0x00,0x18,0x31,0x69,0x00,0x26,0x69,0x81,0x28,0x26,0x00,0x00,
0x31,0x00,0x18,0x31,0x69,0x00,0x26,0x69,0x81,0x28,0x26,0x00,0x00,0x31,0x00,0x81,
0x58,0x2a,0x51,0x81,0x28,0x2a,0x00,0x81,0x58,0x2a,0x51,0x81,0x28,0x2a,0x00,0x81,
0x58,0x2a,0x51,0x81,0x28,0x2a,0x00,0x81,0x58,0x2a,0x51,0x81,0x28,0x2a,0x00,0x81,
0x58,0x2a,0x3f,0x81,0x28,0x2a,0x00,0x81,0x58,0x2a,0x3f,0x81,0x28,0x2a,0x00,0x81,
0x58,0x2a,0x3f,0x81,0x28,0x2a,0x00,0x81,0x58,0x2a,0x2f,0x81,0x28,0x2a,0x00,0x81,
0x58,0x2a,0x2f,0x81,0x28,0x2a,0x00,0x81,0x58,0x2a,0x2f,0x81,0x28,0x2a,0x00,0x81,
0x58,0x2a,0x2f,0x81,0x28,0x2a,0x00,0x81,0x58,0x2a,0x2f,0x81,0x28,0x2a,0x00,0x81,
0x58,0x2a,0x2f,0x81,0x28,0x2a,0x00,0x81,0x58,0x2a,0x2f,0x81,0x28,0x2a,0x00,0x81,
0x58,0x2a,0x2f,0x81,0x28,0x2a,0x00,0x81,0x58,0x2a,0x2f,0x81,0x28,0x2a,0x00,0x81,
0x58,0x2a,0x1f,0x81,0x28,0x2a,0x00,0x81,0x58,0x2a,0x1f,0x81,0x28,0x2a,0x00,0x81,
0x58,0x2a,0x1f,0x81,0x28,0x2a,0x00,0x81,0x58,0x2a,0x1f,0x81,0x28,0x2a,0x00,0x81,
0x58,0x2a,0x1f,0x81,0x28,0x2a,0x00,0x81,0x58,0x2a,0x1f,0x81,0x28,0x2a,0x00,0x81,
0x58,0x2a,0x1f,0x81,0x28,0x2a,0x00,0x81,0x58,0x2a,0x13,0x81,0x28,0x2a,0x00,0x81,
0x58,0x2a,0x13,0x81,0x28,0x2a,0x00,0x81,0x58,0x2a,0x13,0x81,0x28,0x2a,0x00,0x81,
0x58,0x2a,0x0a,0x81,0x28,0x2a,0x00,0x81,0x58,0x2a,0x0a,0x81,0x28,0x2a,0x00,0x81,
0x58,0x2a,0x0a,0x81,0x28,0x2a,0x00,0x81,0x58,0x2a,0x0a,0x81,0x28,0x2a,0x00,0x00,
0xff,0x2f,0x00,
};
