#include <stdint.h>
const uint8_t midifile[] = {
0x4d,0x54,0x68,0x64,0x00,0x00,0x00,0x06,0x00,0x00,0x00,0x01,0x00,0x0a,0x4d,0x54,
0x72,0x6b,0x00,0x00,0x01,0x7e,0x00,0xff,0x51,0x03,0x07,0xa1,0x20,0x00,0xc0,0x00,
0x00,0x90,0x2c,0x39,0x00,0x90,0x36,0x3d,0x00,0x90,0x39,0x44,0x00,0x90,0x3b,0x43,
0x00,0x90,0x3d,0x44,0x00,0x90,0x3f,0x41,0x00,0x90,0x40,0x48,0x00,0x90,0x42,0x42,
0x00,0x90,0x43,0x39,0x00,0x90,0x44,0x46,0x00,0x90,0x46,0x4a,0x00,0x90,0x47,0x46,
0x00,0x90,0x48,0x41,0x00,0x90,0x4a,0x3c,0x00,0x90,0x4d,0x3d,0x00,0x90,0x4e,0x44,
0x01,0x90,0x33,0x2b,0x00,0x90,0x37,0x41,0x00,0x90,0x3c,0x3d,0x00,0x90,0x41,0x4a,
0x01,0x90,0x1e,0x1e,0x00,0x90,0x2b,0x31,0x00,0x80,0x2c,0x40,0x00,0x90,0x2f,0x38,
0x00,0x90,0x35,0x44,0x00,0x80,0x36,0x40,0x00,0x90,0x3e,0x43,0x00,0x80,0x3f,0x40,
0x01,0x90,0x29,0x32,0x00,0x90,0x30,0x2a,0x00,0x80,0x33,0x40,0x00,0x90,0x38,0x3c,
0x00,0x90,0x3f,0x3d,0x00,0x80,0x43,0x40,0x01,0x80,0x1e,0x40,0x00,0x90,0x2e,0x35,
0x00,0x80,0x2f,0x40,0x00,0x80,0x37,0x40,0x00,0x80,0x3e,0x40,0x00,0x90,0x43,0x3f,
0x01,0x80,0x29,0x40,0x00,0x80,0x2b,0x40,0x00,0x90,0x2c,0x3c,0x00,0x90,0x33,0x34,
0x00,0x90,0x3e,0x44,0x00,0x80,0x3f,0x40,0x01,0x80,0x2e,0x40,0x00,0x80,0x30,0x40,
0x00,0x90,0x32,0x40,0x00,0x90,0x37,0x3c,0x00,0x80,0x38,0x40,0x00,0x80,0x39,0x40,
0x00,0x90,0x3a,0x44,0x00,0x90,0x45,0x3d,0x01,0x80,0x33,0x40,0x00,0x90,0x34,0x37,
0x00,0x80,0x3c,0x40,0x00,0x90,0x3f,0x3e,0x01,0x90,0x1f,0x2b,0x00,0x80,0x35,0x40,
0x00,0x90,0x39,0x43,0x00,0x80,0x3a,0x40,0x01,0x80,0x34,0x40,0x01,0x80,0x1f,0x40,
0x00,0x80,0x2c,0x40,0x00,0x80,0x32,0x40,0x00,0x90,0x34,0x33,0x01,0x90,0x32,0x2d,
0x00,0x90,0x35,0x2a,0x00,0x80,0x3e,0x40,0x00,0x80,0x41,0x40,0x01,0x90,0x30,0x21,
0x00,0x80,0x34,0x40,0x00,0x80,0x44,0x40,0x01,0x80,0x3b,0x40,0x00,0x80,0x3f,0x40,
0x01,0x80,0x30,0x40,0x00,0x80,0x32,0x40,0x00,0x80,0x35,0x40,0x00,0x80,0x37,0x40,
0x00,0x80,0x39,0x40,0x00,0x80,0x3d,0x40,0x00,0x80,0x40,0x40,0x00,0x80,0x42,0x40,
0x00,0x80,0x43,0x40,0x00,0x80,0x45,0x40,0x00,0x80,0x46,0x40,0x00,0x80,0x47,0x40,
0x00,0x80,0x48,0x40,0x00,0x80,0x4a,0x40,0x00,0x80,0x4d,0x40,0x00,0x80,0x4e,0x40,
0x00,0xff,0x2f,0x00,
};
