#include <stdint.h>
const uint8_t midifile[] = {
0x4d,0x54,0x68,0x64,0x00,0x00,0x00,0x06,0x00,0x00,0x00,0x01,0x00,0x0a,0x4d,0x54,
0x72,0x6b,0x00,0x00,0x00,0x4e,0x00,0xff,0x51,0x03,0x07,0xa1,0x20,0x00,0xc0,0x00,
0x00,0x90,0x60,0x25,0x00,0x90,0x61,0x2b,0x00,0x90,0x62,0x2f,0x00,0x90,0x63,0x47,
0x00,0x90,0x64,0x56,0x00,0x90,0x65,0x39,0x00,0x90,0x66,0x2c,0x00,0x90,0x67,0x25,
0x02,0x80,0x60,0x40,0x00,0x80,0x61,0x40,0x00,0x80,0x62,0x40,0x00,0x80,0x63,0x40,
0x00,0x80,0x64,0x40,0x00,0x80,0x65,0x40,0x00,0x80,0x66,0x40,0x00,0x80,0x67,0x40,
0x00,0xff,0x2f,0x00,
};
