#include <stdint.h>
const uint8_t midifile[] = {
0x4d,0x54,0x68,0x64,0x00,0x00,0x00,0x06,0x00,0x01,0x00,0x03,0x04,0x00,0x4d,0x54,
0x72,0x6b,0x00,0x00,0x00,0xc2,0x00,0xff,0x54,0x05,0x00,0x00,0x00,0x00,0x00,0x00,
0xff,0x58,0x04,0x04,0x02,0x18,0x08,0x00,0xff,0x59,0x02,0x04,0x00,0x00,0xff,0x51,
0x03,0x05,0x8c,0x75,0x00,0xff,0x51,0x03,0x05,0x8c,0x75,0x00,0xff,0x51,0x03,0x05,
0x8c,0x75,0xb0,0x00,0xff,0x51,0x03,0x05,0x8c,0x75,0x82,0x00,0xff,0x51,0x03,0x05,
0x95,0x99,0x82,0x00,0xff,0x51,0x03,0x05,0x9e,0x56,0x82,0x00,0xff,0x51,0x03,0x05,
0xa7,0x2f,0x82,0x00,0xff,0x51,0x03,0x05,0xab,0x61,0x82,0x00,0xff,0x51,0x03,0x05,
0xb4,0x63,0x82,0x00,0xff,0x51,0x03,0x05,0xbd,0x84,0x82,0x00,0xff,0x51,0x03,0x05,
0xc6,0xc0,0x84,0x00,0xff,0x51,0x03,0x05,0x8c,0x75,0xae,0x00,0xff,0x51,0x03,0x05,
0x8c,0x75,0x82,0x00,0xff,0x51,0x03,0x05,0x91,0x03,0x82,0x00,0xff,0x51,0x03,0x05,
0x95,0x99,0x82,0x00,0xff,0x51,0x03,0x05,0x99,0xb2,0x82,0x00,0xff,0x51,0x03,0x05,
0x9e,0x56,0x82,0x00,0xff,0x51,0x03,0x05,0xa2,0x7c,0x82,0x00,0xff,0x51,0x03,0x05,
0xa7,0x2f,0x82,0x00,0xff,0x51,0x03,0x05,0xab,0x61,0x82,0x00,0xff,0x51,0x03,0x05,
0x8c,0x75,0x82,0xe0,0x00,0xff,0x2f,0x00,0x4d,0x54,0x72,0x6b,0x00,0x00,0x00,0x3b,
0x00,0xff,0x09,0x16,0x53,0x6d,0x61,0x72,0x74,0x4d,0x75,0x73,0x69,0x63,0x20,0x53,
0x6f,0x66,0x74,0x53,0x79,0x6e,0x74,0x68,0x20,0x31,0x00,0xff,0x03,0x0c,0x49,0x6e,
0x73,0x74,0x72,0x75,0x6d,0x65,0x6e,0x74,0x20,0x31,0x00,0xc0,0x00,0x00,0xb0,0x07,
0x65,0x00,0xb0,0x0a,0x40,0x83,0xe0,0x00,0xff,0x2f,0x00,0x4d,0x54,0x72,0x6b,0x00,
0x00,0x08,0x90,0x00,0xff,0x09,0x16,0x53,0x6d,0x61,0x72,0x74,0x4d,0x75,0x73,0x69,
0x63,0x20,0x53,0x6f,0x66,0x74,0x53,0x79,0x6e,0x74,0x68,0x20,0x31,0x00,0xff,0x03,
0x05,0x50,0x69,0x61,0x6e,0x6f,0x00,0xc0,0x00,0x00,0xb0,0x07,0x65,0x00,0xb0,0x0a,
0x40,0x00,0xb0,0x07,0x66,0x00,0xb0,0x07,0x6e,0x03,0xb0,0x64,0x00,0x00,0xb0,0x65,
0x00,0x00,0xb0,0x64,0x00,0x00,0xb0,0x65,0x00,0x01,0xb0,0x06,0x0c,0x00,0xb0,0x06,
0x0c,0x01,0xb0,0x26,0x00,0x00,0xb0,0x26,0x00,0x05,0xb0,0x07,0x66,0x00,0xb0,0x07,
0x6e,0x00,0x90,0x44,0x3d,0x00,0x90,0x47,0x4b,0x00,0x90,0x34,0x39,0x83,0x79,0x80,
0x44,0x00,0x1e,0x80,0x47,0x00,0x01,0x90,0x47,0x38,0x00,0x90,0x4c,0x46,0x00,0x90,
0x38,0x34,0x1e,0x80,0x34,0x00,0x83,0x5e,0x90,0x2f,0x35,0x1e,0x80,0x38,0x00,0x83,
0x5a,0x80,0x47,0x00,0x00,0x80,0x4c,0x00,0x01,0x90,0x47,0x2c,0x00,0x90,0x4c,0x36,
0x00,0x90,0x38,0x34,0x1e,0x80,0x2f,0x00,0x83,0x60,0x90,0x34,0x37,0x1e,0x80,0x38,
0x00,0x83,0x5f,0x80,0x47,0x00,0x00,0x80,0x4c,0x00,0x01,0x90,0x47,0x38,0x00,0x90,
0x4c,0x42,0x00,0x90,0x38,0x34,0x1e,0x80,0x34,0x00,0x83,0x5b,0x90,0x2f,0x35,0x1e,
0x80,0x38,0x00,0x83,0x5a,0x80,0x47,0x00,0x00,0x80,0x4c,0x00,0x01,0x90,0x47,0x2c,
0x00,0x90,0x4c,0x36,0x00,0x90,0x38,0x34,0x1e,0x80,0x2f,0x00,0x83,0x61,0x90,0x34,
0x39,0x1a,0x80,0x38,0x00,0x84,0x03,0x80,0x47,0x00,0x00,0x80,0x4c,0x00,0x01,0x90,
0x47,0x38,0x00,0x90,0x4c,0x42,0x00,0x90,0x38,0x34,0x1e,0x80,0x34,0x00,0x83,0x5e,
0x90,0x2f,0x35,0x1e,0x80,0x38,0x00,0x83,0x5a,0x80,0x47,0x00,0x00,0x80,0x4c,0x00,
0x01,0x90,0x47,0x2c,0x00,0x90,0x4c,0x36,0x00,0x90,0x38,0x34,0x1e,0x80,0x2f,0x00,
0x83,0x60,0x90,0x34,0x37,0x1e,0x80,0x38,0x00,0x83,0x5f,0x80,0x47,0x00,0x00,0x80,
0x4c,0x00,0x01,0x90,0x47,0x38,0x00,0x90,0x4c,0x42,0x00,0x90,0x2f,0x34,0x1e,0x80,
0x34,0x00,0x83,0x5b,0x90,0x31,0x35,0x1e,0x80,0x2f,0x00,0x83,0x5a,0x80,0x47,0x00,
0x00,0x80,0x4c,0x00,0x01,0x90,0x47,0x38,0x00,0x90,0x4c,0x42,0x00,0x90,0x33,0x34,
0x1e,0x80,0x31,0x00,0x83,0x3e,0x80,0x47,0x00,0x1e,0x80,0x4c,0x00,0x05,0x90,0x50,
0x45,0x00,0x90,0x38,0x39,0x1a,0x80,0x33,0x00,0x81,0x7b,0x80,0x50,0x00,0x10,0x90,
0x4f,0x40,0x81,0x69,0x80,0x4f,0x00,0x10,0x90,0x50,0x34,0x00,0x90,0x3b,0x34,0x1e,
0x80,0x38,0x00,0x83,0x5e,0x90,0x34,0x35,0x1e,0x80,0x3b,0x00,0x83,0x5b,0x90,0x49,
0x40,0x00,0x90,0x3b,0x34,0x1e,0x80,0x50,0x00,0x00,0x80,0x34,0x00,0x81,0x4a,0x80,
0x49,0x00,0x10,0x90,0x48,0x40,0x81,0x76,0x80,0x48,0x00,0x10,0x90,0x49,0x43,0x00,
0x90,0x38,0x37,0x1e,0x80,0x3b,0x00,0x83,0x60,0x90,0x3b,0x34,0x1e,0x80,0x38,0x00,
0x83,0x5a,0x80,0x49,0x00,0x01,0x90,0x47,0x41,0x00,0x90,0x34,0x35,0x1e,0x80,0x3b,
0x00,0x81,0x53,0x80,0x47,0x00,0x10,0x90,0x46,0x40,0x81,0x68,0x80,0x46,0x00,0x10,
0x90,0x47,0x34,0x00,0x90,0x3b,0x34,0x1e,0x80,0x34,0x00,0x83,0x61,0x90,0x38,0x39,
0x1a,0x80,0x3b,0x00,0x84,0x04,0x90,0x44,0x40,0x00,0x90,0x3b,0x34,0x1e,0x80,0x47,
0x00,0x00,0x80,0x38,0x00,0x81,0x4b,0x80,0x44,0x00,0x10,0x90,0x43,0x40,0x81,0x73,
0x80,0x43,0x00,0x10,0x90,0x44,0x39,0x00,0x90,0x4c,0x47,0x00,0x90,0x34,0x35,0x1e,
0x80,0x3b,0x00,0x83,0x5b,0x90,0x3b,0x34,0x1e,0x80,0x34,0x00,0x83,0x5f,0x80,0x44,
0x00,0x00,0x80,0x4c,0x00,0x01,0x90,0x47,0x3b,0x00,0x90,0x50,0x49,0x00,0x90,0x38,
0x37,0x1e,0x80,0x3b,0x00,0x83,0x60,0x90,0x3b,0x34,0x1e,0x80,0x38,0x00,0x83,0x5a,
0x80,0x47,0x00,0x00,0x80,0x50,0x00,0x01,0x90,0x4c,0x39,0x00,0x90,0x53,0x47,0x00,
0x90,0x34,0x35,0x1e,0x80,0x3b,0x00,0x83,0x5b,0x90,0x3b,0x34,0x1e,0x80,0x34,0x00,
0x83,0x5c,0x80,0x4c,0x00,0x00,0x80,0x53,0x00,0x05,0x90,0x4e,0x38,0x00,0x90,0x55,
0x46,0x00,0x90,0x36,0x39,0x1a,0x80,0x3b,0x00,0x84,0x04,0x90,0x39,0x34,0x1e,0x80,
0x36,0x00,0x83,0x5e,0x90,0x31,0x35,0x1e,0x80,0x39,0x00,0x83,0x5b,0x90,0x39,0x34,
0x1e,0x80,0x31,0x00,0x83,0x60,0x90,0x36,0x37,0x1e,0x80,0x39,0x00,0x83,0x60,0x90,
0x39,0x34,0x1e,0x80,0x36,0x00,0x83,0x5a,0x80,0x4e,0x00,0x00,0x80,0x55,0x00,0x01,
0x90,0x31,0x35,0x1e,0x80,0x39,0x00,0x83,0x5b,0x90,0x39,0x34,0x1e,0x80,0x31,0x00,
0x83,0x5c,0x80,0x39,0x00,0x05,0x90,0x4c,0x3d,0x00,0x90,0x51,0x4b,0x00,0x90,0x39,
0x39,0x84,0x1e,0x90,0x3d,0x34,0x1e,0x80,0x39,0x00,0x83,0x5d,0x80,0x4c,0x00,0x00,
0x80,0x51,0x00,0x01,0x90,0x45,0x39,0x00,0x90,0x50,0x47,0x00,0x90,0x36,0x35,0x1e,
0x80,0x3d,0x00,0x83,0x5b,0x90,0x3d,0x34,0x1e,0x80,0x36,0x00,0x83,0x5f,0x80,0x45,
0x00,0x00,0x80,0x50,0x00,0x01,0x90,0x47,0x3b,0x00,0x90,0x4e,0x49,0x00,0x90,0x39,
0x37,0x1e,0x80,0x3d,0x00,0x83,0x60,0x90,0x3d,0x34,0x1e,0x80,0x39,0x00,0x83,0x5a,
0x80,0x47,0x00,0x00,0x80,0x4e,0x00,0x01,0x90,0x49,0x39,0x00,0x90,0x4c,0x47,0x00,
0x90,0x36,0x35,0x1e,0x80,0x3d,0x00,0x83,0x5b,0x90,0x3d,0x34,0x1e,0x80,0x36,0x00,
0x83,0x5c,0x80,0x49,0x00,0x00,0x80,0x4c,0x00,0x05,0x90,0x44,0x3d,0x00,0x90,0x47,
0x4b,0x00,0x90,0x3b,0x39,0x1a,0x80,0x3d,0x00,0x84,0x04,0x90,0x40,0x34,0x1e,0x80,
0x3b,0x00,0x83,0x5d,0x80,0x44,0x00,0x00,0x80,0x47,0x00,0x01,0x90,0x38,0x35,0x1e,
0x80,0x40,0x00,0x83,0x5b,0x90,0x47,0x38,0x00,0x90,0x4c,0x46,0x00,0x90,0x40,0x34,
0x1e,0x80,0x38,0x00,0x83,0x5f,0x80,0x47,0x00,0x00,0x80,0x4c,0x00,0x01,0x90,0x44,
0x3b,0x00,0x90,0x47,0x49,0x00,0x90,0x3b,0x37,0x1e,0x80,0x40,0x00,0x83,0x60,0x90,
0x40,0x34,0x1e,0x80,0x3b,0x00,0x83,0x5a,0x80,0x44,0x00,0x00,0x80,0x47,0x00,0x01,
0x90,0x38,0x35,0x1e,0x80,0x40,0x00,0x83,0x5b,0x90,0x47,0x38,0x00,0x90,0x4c,0x46,
0x00,0x90,0x40,0x34,0x1e,0x80,0x38,0x00,0x83,0x3e,0x80,0x47,0x00,0x1e,0x80,0x4c,
0x00,0x05,0x90,0x4c,0x3d,0x00,0x90,0x50,0x4b,0x00,0x90,0x38,0x39,0x1a,0x80,0x40,
0x00,0x84,0x04,0x90,0x3b,0x34,0x1e,0x80,0x38,0x00,0x83,0x5d,0x80,0x4c,0x00,0x00,
0x80,0x50,0x00,0x01,0x90,0x34,0x35,0x1e,0x80,0x3b,0x00,0x83,0x5b,0x90,0x50,0x38,
0x00,0x90,0x53,0x46,0x00,0x90,0x3b,0x34,0x1e,0x80,0x34,0x00,0x83,0x5f,0x80,0x50,
0x00,0x00,0x80,0x53,0x00,0x01,0x90,0x4c,0x3b,0x00,0x90,0x50,0x49,0x00,0x90,0x38,
0x37,0x1e,0x80,0x3b,0x00,0x83,0x60,0x90,0x34,0x34,0x1e,0x80,0x38,0x00,0x83,0x5a,
0x80,0x4c,0x00,0x00,0x80,0x50,0x00,0x01,0x90,0x36,0x35,0x1e,0x80,0x34,0x00,0x83,
0x5b,0x90,0x50,0x38,0x00,0x90,0x53,0x46,0x00,0x90,0x3b,0x34,0x1e,0x80,0x36,0x00,
0x83,0x3e,0x80,0x50,0x00,0x1e,0x80,0x53,0x00,0x05,0x90,0x45,0x3d,0x00,0x90,0x49,
0x4b,0x00,0x90,0x39,0x39,0x1a,0x80,0x3b,0x00,0x84,0x04,0x90,0x3d,0x34,0x1e,0x80,
0x39,0x00,0x83,0x5d,0x80,0x45,0x00,0x00,0x80,0x49,0x00,0x01,0x90,0x42,0x39,0x00,
0x90,0x44,0x47,0x00,0x90,0x36,0x35,0x1e,0x80,0x3d,0x00,0x83,0x5b,0x90,0x3d,0x34,
0x1e,0x80,0x36,0x00,0x83,0x5f,0x80,0x42,0x00,0x00,0x80,0x44,0x00,0x01,0x90,0x45,
0x3b,0x00,0x90,0x49,0x49,0x00,0x90,0x39,0x37,0x1e,0x80,0x3d,0x00,0x83,0x60,0x90,
0x3d,0x34,0x1e,0x80,0x39,0x00,0x83,0x5a,0x80,0x45,0x00,0x00,0x80,0x49,0x00,0x01,
0x90,0x47,0x39,0x00,0x90,0x4b,0x47,0x00,0x90,0x36,0x35,0x1e,0x80,0x3d,0x00,0x83,
0x5b,0x90,0x3d,0x34,0x1e,0x80,0x36,0x00,0x83,0x5c,0x80,0x47,0x00,0x00,0x80,0x4b,
0x00,0x05,0x90,0x4c,0x45,0x00,0x90,0x42,0x45,0x00,0x90,0x39,0x39,0x1a,0x80,0x3d,
0x00,0x83,0x65,0x80,0x4c,0x00,0x1f,0x90,0x4b,0x40,0x00,0x90,0x3d,0x34,0x1e,0x80,
0x39,0x00,0x83,0x3f,0x80,0x4b,0x00,0x1e,0x80,0x42,0x00,0x01,0x90,0x49,0x41,0x00,
0x90,0x44,0x41,0x00,0x90,0x36,0x35,0x1e,0x80,0x3d,0x00,0x83,0x3c,0x80,0x49,0x00,
0x1f,0x90,0x4b,0x40,0x00,0x90,0x3d,0x34,0x1e,0x80,0x36,0x00,0x83,0x5f,0x80,0x44,
0x00,0x01,0x90,0x45,0x43,0x00,0x90,0x39,0x37,0x1e,0x80,0x3d,0x00,0x83,0x41,0x80,
0x45,0x00,0x1e,0x80,0x4b,0x00,0x01,0x90,0x4b,0x40,0x00,0x90,0x44,0x40,0x00,0x90,
0x3d,0x34,0x1e,0x80,0x39,0x00,0x83,0x3c,0x80,0x4b,0x00,0x00,0x80,0x44,0x00,0x1f,
0x90,0x49,0x41,0x00,0x90,0x42,0x41,0x00,0x90,0x3b,0x35,0x1e,0x80,0x3d,0x00,0x83,
0x3c,0x80,0x49,0x00,0x00,0x80,0x42,0x00,0x1f,0x90,0x47,0x40,0x00,0x90,0x3f,0x40,
0x00,0x90,0x39,0x34,0x1e,0x80,0x3b,0x00,0x83,0x3e,0x80,0x3f,0x00,0x1e,0x80,0x47,
0x00,0x05,0x90,0x47,0x3d,0x00,0x90,0x4c,0x4b,0x00,0x90,0x38,0x39,0x1a,0x80,0x39,
0x00,0x83,0x65,0x80,0x47,0x00,0x1e,0x80,0x4c,0x00,0x01,0x90,0x4c,0x38,0x00,0x90,
0x50,0x46,0x00,0x90,0x3b,0x34,0x1e,0x80,0x38,0x00,0x83,0x3f,0x80,0x4c,0x00,0x1e,
0x80,0x50,0x00,0x01,0x90,0x34,0x35,0x1e,0x80,0x3b,0x00,0x83,0x5b,0x90,0x4c,0x38,
0x00,0x90,0x50,0x42,0x00,0x90,0x3b,0x34,0x1e,0x80,0x34,0x00,0x83,0x41,0x80,0x4c,
0x00,0x1e,0x80,0x50,0x00,0x01,0x90,0x38,0x37,0x1e,0x80,0x3b,0x00,0x83,0x60,0x90,
0x4c,0x38,0x00,0x90,0x50,0x42,0x00,0x90,0x3b,0x34,0x1e,0x80,0x38,0x00,0x83,0x3c,
0x80,0x4c,0x00,0x1e,0x80,0x50,0x00,0x01,0x90,0x34,0x35,0x1e,0x80,0x3b,0x00,0x83,
0x5b,0x90,0x4c,0x38,0x00,0x90,0x50,0x46,0x00,0x90,0x3b,0x34,0x1e,0x80,0x34,0x00,
0x83,0x3e,0x80,0x4c,0x00,0x1e,0x80,0x50,0x00,0x05,0x90,0x49,0x3d,0x00,0x90,0x4e,
0x4b,0x00,0x90,0x38,0x39,0x1a,0x80,0x3b,0x00,0x83,0x65,0x80,0x49,0x00,0x1e,0x80,
0x4e,0x00,0x01,0x90,0x4e,0x38,0x00,0x90,0x51,0x46,0x00,0x90,0x3b,0x34,0x1e,0x80,
0x38,0x00,0x83,0x3f,0x80,0x4e,0x00,0x1e,0x80,0x51,0x00,0x01,0x90,0x34,0x35,0x1e,
0x80,0x3b,0x00,0x83,0x5b,0x90,0x4e,0x38,0x00,0x90,0x51,0x46,0x00,0x90,0x3b,0x34,
0x1e,0x80,0x34,0x00,0x83,0x5f,0x80,0x4e,0x00,0x00,0x80,0x51,0x00,0x01,0x90,0x4b,
0x3b,0x00,0x90,0x4e,0x49,0x00,0x90,0x38,0x37,0x1e,0x80,0x3b,0x00,0x83,0x41,0x80,
0x4b,0x00,0x1e,0x80,0x4e,0x00,0x01,0x90,0x4e,0x38,0x00,0x90,0x51,0x46,0x00,0x90,
0x3b,0x34,0x1e,0x80,0x38,0x00,0x83,0x5a,0x80,0x4e,0x00,0x00,0x80,0x51,0x00,0x01,
0x90,0x4e,0x39,0x00,0x90,0x51,0x43,0x00,0x90,0x34,0x35,0x1e,0x80,0x3b,0x00,0x83,
0x5b,0x90,0x3b,0x34,0x1e,0x80,0x34,0x00,0x83,0x5c,0x80,0x4e,0x00,0x00,0x80,0x51,
0x00,0x05,0x90,0x53,0x45,0x00,0x90,0x39,0x39,0x1a,0x80,0x3b,0x00,0x81,0x7b,0x80,
0x53,0x00,0x10,0x90,0x52,0x40,0x81,0x69,0x80,0x52,0x00,0x10,0x90,0x53,0x40,0x00,
0x90,0x40,0x34,0x1e,0x80,0x39,0x00,0x83,0x3f,0x80,0x53,0x00,0x1f,0x90,0x4e,0x41,
0x00,0x90,0x34,0x35,0x1e,0x80,0x40,0x00,0x81,0x54,0x80,0x4e,0x00,0x10,0x90,0x4d,
0x40,0x81,0x67,0x80,0x4d,0x00,0x10,0x90,0x4e,0x40,0x00,0x90,0x40,0x34,0x1e,0x80,
0x34,0x00,0x83,0x41,0x80,0x4e,0x00,0x1f,0x90,0x53,0x43,0x00,0x90,0x39,0x37,0x1e,
0x80,0x40,0x00,0x81,0x59,0x80,0x53,0x00,0x10,0x90,0x52,0x40,0x81,0x67,0x80,0x52,
0x00,0x10,0x90,0x53,0x40,0x00,0x90,0x40,0x34,0x1e,0x80,0x39,0x00,0x83,0x3c,0x80,
0x53,0x00,0x1f,0x90,0x34,0x35,0x1e,0x80,0x40,0x00,0x81,0x63,0x90,0x47,0x40,0x81,
0x68,0x80,0x47,0x00,0x10,0x90,0x46,0x40,0x00,0x90,0x40,0x34,0x1e,0x80,0x34,0x00,
0x81,0x4a,0x80,0x46,0x00,0x10,0x90,0x47,0x40,0x81,0x73,0x80,0x47,0x00,0x14,0x90,
0x53,0x45,0x00,0x90,0x39,0x39,0x1a,0x80,0x40,0x00,0x81,0x7b,0x80,0x53,0x00,0x10,
0x90,0x52,0x40,0x81,0x69,0x80,0x52,0x00,0x10,0x90,0x53,0x40,0x00,0x90,0x42,0x34,
0x1e,0x80,0x39,0x00,0x83,0x5e,0x90,0x36,0x35,0x1e,0x80,0x42,0x00,0x83,0x5b,0x90,
0x3d,0x34,0x1e,0x80,0x36,0x00,0x83,0x5f,0x80,0x53,0x00,0x01,0x90,0x4e,0x43,0x00,
0x90,0x42,0x43,0x1e,0x80,0x3d,0x00,0x81,0x59,0x80,0x4e,0x00,0x10,0x90,0x4d,0x40,
0x81,0x67,0x80,0x4d,0x00,0x10,0x90,0x4e,0x40,0x83,0x78,0x80,0x4e,0x00,0x00,0x80,
0x42,0x00,0x01,0x90,0x4e,0x39,0x00,0x90,0x53,0x47,0x00,0x90,0x36,0x41,0x81,0x71,
0x80,0x4e,0x00,0x00,0x80,0x36,0x00,0x0f,0x80,0x53,0x00,0x01,0x90,0x4c,0x38,0x00,
0x90,0x51,0x46,0x00,0x90,0x38,0x40,0x81,0x68,0x80,0x4c,0x00,0x00,0x80,0x38,0x00,
0x0f,0x80,0x51,0x00,0x01,0x90,0x4b,0x38,0x00,0x90,0x50,0x46,0x00,0x90,0x39,0x40,
0x81,0x68,0x80,0x4b,0x00,0x00,0x80,0x39,0x00,0x0f,0x80,0x50,0x00,0x01,0x90,0x49,
0x38,0x00,0x90,0x4e,0x46,0x00,0x90,0x3d,0x40,0x81,0x73,0x80,0x49,0x00,0x00,0x80,
0x3d,0x00,0x0f,0x80,0x4e,0x00,0x05,0x90,0x47,0x38,0x00,0x90,0x4c,0x46,0x00,0x90,
0x40,0x40,0x9f,0x7b,0x80,0x47,0x00,0x00,0x80,0x4c,0x00,0x00,0x80,0x40,0x00,0x01,
0xff,0x2f,0x00,
};
