#include <stdint.h>
const uint8_t Rickrollmidifile[] = {
0x4d,0x54,0x68,0x64,0x00,0x00,0x00,0x06,0x00,0x01,0x00,0x11,0x01,0x80,0x4d,0x54,
0x72,0x6b,0x00,0x00,0x00,0x15,0x00,0xff,0x58,0x04,0x04,0x02,0x18,0x08,0x00,0xff,
0x51,0x03,0x08,0x07,0xe6,0x89,0xd4,0x00,0xff,0x2f,0x00,0x4d,0x54,0x72,0x6b,0x00,
0x00,0x0e,0x8d,0x00,0xff,0x03,0x09,0x45,0x2e,0x50,0x49,0x41,0x4e,0x4f,0x20,0x32,
0x8c,0x00,0xf0,0x05,0x7e,0x7f,0x09,0x01,0xf7,0x83,0x08,0xc0,0x05,0x04,0xb0,0x07,
0x69,0x00,0xb0,0x0a,0x40,0x00,0xb0,0x0b,0x7f,0x04,0xb0,0x5b,0x32,0x00,0xb0,0x5d,
0x1e,0x95,0x0c,0x90,0x41,0x54,0x04,0xb0,0x01,0x00,0x00,0xe0,0x00,0x40,0x00,0x90,
0x36,0x3c,0x00,0x90,0x3d,0x3c,0x08,0x90,0x3a,0x3c,0x83,0x04,0x80,0x3d,0x40,0x10,
0x80,0x36,0x40,0x14,0x80,0x41,0x40,0x28,0x80,0x3a,0x40,0x50,0x90,0x3f,0x47,0x0c,
0x90,0x3a,0x33,0x00,0x90,0x38,0x3a,0x00,0x90,0x3c,0x3e,0x86,0x18,0x80,0x3c,0x40,
0x0c,0x80,0x38,0x40,0x08,0x80,0x3f,0x40,0x20,0x80,0x3a,0x40,0x54,0x90,0x3f,0x4b,
0x08,0x90,0x38,0x3e,0x00,0x90,0x3c,0x44,0x83,0x54,0x80,0x38,0x40,0x1c,0x80,0x3f,
0x40,0x04,0x80,0x3c,0x40,0x54,0x90,0x3d,0x47,0x08,0x90,0x38,0x44,0x00,0x90,0x35,
0x3e,0x85,0x70,0x80,0x35,0x40,0x04,0x80,0x38,0x40,0x2c,0x80,0x3d,0x40,0x81,0x20,
0x90,0x41,0x59,0x00,0x90,0x3a,0x47,0x00,0x90,0x36,0x47,0x00,0x90,0x3d,0x44,0x82,
0x7c,0x80,0x3d,0x40,0x24,0x80,0x36,0x40,0x04,0x80,0x41,0x40,0x3c,0x80,0x3a,0x40,
0x54,0x90,0x3f,0x4b,0x00,0x90,0x38,0x47,0x04,0x90,0x3c,0x44,0x00,0x90,0x3a,0x44,
0x86,0x38,0x80,0x3f,0x40,0x08,0x80,0x38,0x40,0x18,0x80,0x3a,0x40,0x00,0x80,0x3c,
0x40,0x5c,0x90,0x3f,0x47,0x04,0x90,0x38,0x47,0x04,0x90,0x3c,0x47,0x83,0x34,0x80,
0x38,0x40,0x1c,0x80,0x3c,0x40,0x20,0x80,0x3f,0x40,0x58,0x90,0x3d,0x47,0x00,0x90,
0x38,0x4b,0x08,0x90,0x35,0x44,0x85,0x54,0x80,0x38,0x40,0x10,0x80,0x35,0x40,0x30,
0x80,0x3d,0x40,0x81,0x10,0x90,0x41,0x54,0x08,0x90,0x3a,0x47,0x00,0x90,0x3d,0x44,
0x04,0x90,0x36,0x3e,0x83,0x34,0x80,0x3d,0x40,0x0c,0x80,0x36,0x40,0x14,0x80,0x41,
0x40,0x30,0x80,0x3a,0x40,0x44,0x90,0x3f,0x47,0x04,0x90,0x3a,0x30,0x00,0x90,0x38,
0x47,0x08,0x90,0x3c,0x3c,0x86,0x1c,0x80,0x3f,0x40,0x08,0x80,0x3c,0x40,0x00,0x80,
0x38,0x40,0x20,0x80,0x3a,0x40,0x68,0x90,0x3f,0x47,0x00,0x90,0x38,0x47,0x08,0x90,
0x3c,0x47,0x83,0x44,0x80,0x38,0x40,0x0c,0x80,0x3c,0x40,0x20,0x80,0x3f,0x40,0x4c,
0x90,0x3d,0x4b,0x04,0x90,0x35,0x44,0x04,0x90,0x38,0x47,0x85,0x70,0x80,0x35,0x40,
0x04,0x80,0x38,0x40,0x38,0x80,0x3d,0x40,0x81,0x08,0x90,0x41,0x54,0x04,0x90,0x3d,
0x3e,0x04,0x90,0x3a,0x44,0x00,0x90,0x36,0x3c,0x83,0x30,0x80,0x3d,0x40,0x14,0x80,
0x36,0x40,0x00,0x80,0x41,0x40,0x1c,0x80,0x3a,0x40,0x64,0x90,0x3f,0x4b,0x04,0x90,
0x38,0x3e,0x04,0x90,0x3c,0x3e,0x04,0x90,0x3a,0x3c,0x84,0x3c,0x80,0x3a,0x40,0x00,
0x80,0x3c,0x40,0x0c,0x80,0x38,0x40,0x20,0x80,0x3f,0x40,0x81,0x00,0x90,0x3f,0x4b,
0x00,0x90,0x3c,0x4b,0x00,0x90,0x38,0x44,0x82,0x28,0x80,0x38,0x40,0x30,0x80,0x3c,
0x40,0x04,0x80,0x3f,0x40,0x20,0x90,0x3d,0x47,0x00,0x90,0x41,0x59,0x04,0x90,0x38,
0x54,0x54,0x80,0x38,0x40,0x18,0x80,0x41,0x40,0x00,0x80,0x3d,0x40,0x54,0x90,0x3d,
0x3e,0x00,0x90,0x38,0x47,0x00,0x90,0x41,0x4b,0x87,0x60,0x80,0x38,0x40,0x0c,0x80,
0x41,0x40,0x0c,0x80,0x3d,0x40,0x81,0x04,0x90,0x3d,0x3e,0x00,0x90,0x36,0x44,0x00,
0x90,0x3a,0x44,0x00,0x90,0x41,0x5e,0x8a,0x68,0x80,0x3d,0x40,0x04,0x80,0x41,0x40,
0x0c,0x80,0x36,0x40,0x34,0x80,0x3a,0x40,0x44,0x90,0x3f,0x47,0x00,0x90,0x3a,0x33,
0x04,0x90,0x38,0x3e,0x0c,0x90,0x3c,0x3c,0x8a,0x54,0x80,0x3c,0x40,0x10,0x80,0x3f,
0x40,0x04,0x80,0x38,0x40,0x08,0x80,0x3a,0x40,0x81,0x0c,0x90,0x36,0x3c,0x00,0x90,
0x41,0x59,0x04,0x90,0x3d,0x47,0x00,0x90,0x3a,0x47,0x8b,0x40,0x80,0x3a,0x40,0x00,
0x80,0x41,0x40,0x04,0x80,0x3d,0x40,0x00,0x80,0x36,0x40,0x8c,0x40,0x90,0x41,0x59,
0x04,0x90,0x3a,0x47,0x04,0x90,0x3d,0x44,0x00,0x90,0x36,0x47,0x8a,0x50,0x80,0x3d,
0x40,0x14,0x80,0x41,0x40,0x04,0x80,0x36,0x40,0x60,0x80,0x3a,0x40,0x38,0x90,0x3a,
0x2a,0x04,0x90,0x3c,0x44,0x00,0x90,0x38,0x44,0x04,0x90,0x3f,0x47,0x8a,0x44,0x80,
0x38,0x40,0x00,0x80,0x3c,0x40,0x08,0x80,0x3a,0x40,0x14,0x80,0x3f,0x40,0x81,0x10,
0x90,0x36,0x3a,0x00,0x90,0x41,0x4e,0x04,0x90,0x3d,0x3e,0x00,0x90,0x3a,0x47,0x8b,
0x70,0x80,0x3a,0x40,0x04,0x80,0x3d,0x40,0x00,0x80,0x41,0x40,0x00,0x80,0x36,0x40,
0xbc,0x08,0x90,0x41,0x4e,0x00,0x90,0x36,0x3c,0x00,0x90,0x3a,0x3e,0x00,0x90,0x3d,
0x3e,0x83,0x4c,0x80,0x36,0x40,0x10,0x80,0x41,0x40,0x04,0x80,0x3d,0x40,0x38,0x80,
0x3a,0x40,0x34,0x90,0x3a,0x30,0x04,0x90,0x38,0x3c,0x04,0x90,0x3f,0x4b,0x00,0x90,
0x3c,0x33,0x86,0x28,0x80,0x3c,0x40,0x10,0x80,0x38,0x40,0x14,0x80,0x3f,0x40,0x04,
0x80,0x3a,0x40,0x68,0x90,0x3f,0x44,0x08,0x90,0x38,0x3e,0x00,0x90,0x3c,0x41,0x83,
0x40,0x80,0x38,0x40,0x18,0x80,0x3c,0x40,0x0c,0x80,0x3f,0x40,0x48,0x90,0x3d,0x47,
0x04,0x90,0x38,0x44,0x04,0x90,0x35,0x3e,0x85,0x54,0x80,0x35,0x40,0x18,0x80,0x38,
0x40,0x20,0x80,0x3d,0x40,0x81,0x38,0x90,0x41,0x54,0x04,0x90,0x3a,0x44,0x00,0x90,
0x36,0x44,0x00,0x90,0x3d,0x3e,0x83,0x1c,0x80,0x3d,0x40,0x18,0x80,0x41,0x40,0x08,
0x80,0x36,0x40,0x2c,0x80,0x3a,0x40,0x50,0x90,0x3f,0x4b,0x04,0x90,0x38,0x44,0x00,
0x90,0x3c,0x41,0x0c,0x90,0x3a,0x3e,0x85,0x64,0x80,0x3c,0x40,0x08,0x80,0x38,0x40,
0x14,0x80,0x3a,0x40,0x3c,0x80,0x3f,0x40,0x64,0x90,0x3f,0x47,0x04,0x90,0x38,0x44,
0x04,0x90,0x3c,0x44,0x82,0x18,0x80,0x38,0x40,0x48,0x80,0x3f,0x40,0x0c,0x80,0x3c,
0x40,0x2c,0x90,0x38,0x44,0x00,0x90,0x41,0x4b,0x00,0x90,0x3d,0x3e,0x87,0x08,0x80,
0x38,0x40,0x10,0x80,0x41,0x40,0x04,0x80,0x3d,0x40,0x81,0x38,0x90,0x36,0x3e,0x00,
0x90,0x41,0x54,0x04,0x90,0x3a,0x47,0x00,0x90,0x3d,0x47,0x83,0x20,0x80,0x3d,0x40,
0x24,0x80,0x41,0x40,0x00,0x80,0x36,0x40,0x4c,0x80,0x3a,0x40,0x40,0x90,0x3a,0x2f,
0x04,0x90,0x3f,0x47,0x04,0x90,0x38,0x3e,0x04,0x90,0x3c,0x3c,0x85,0x64,0x80,0x3c,
0x40,0x34,0x80,0x38,0x40,0x04,0x80,0x3f,0x40,0x24,0x80,0x3a,0x40,0x70,0x90,0x3f,
0x3e,0x08,0x90,0x38,0x3c,0x00,0x90,0x3c,0x3e,0x83,0x4c,0x80,0x38,0x40,0x0c,0x80,
0x3c,0x40,0x08,0x80,0x3f,0x40,0x60,0x90,0x3d,0x4b,0x04,0x90,0x38,0x47,0x00,0x90,
0x35,0x3c,0x85,0x48,0x80,0x35,0x40,0x04,0x80,0x38,0x40,0x34,0x80,0x3d,0x40,0x81,
0x40,0x90,0x41,0x4e,0x04,0x90,0x36,0x3c,0x00,0x90,0x3a,0x44,0x04,0x90,0x3d,0x3e,
0x83,0x30,0x80,0x36,0x40,0x08,0x80,0x3d,0x40,0x08,0x80,0x41,0x40,0x34,0x80,0x3a,
0x40,0x44,0x90,0x3f,0x44,0x04,0x90,0x3a,0x3c,0x04,0x90,0x3c,0x36,0x08,0x90,0x38,
0x3a,0x85,0x4c,0x80,0x38,0x40,0x10,0x80,0x3c,0x40,0x20,0x80,0x3a,0x40,0x0c,0x80,
0x3f,0x40,0x81,0x14,0x90,0x38,0x3e,0x00,0x90,0x3f,0x44,0x04,0x90,0x3c,0x47,0x82,
0x04,0x80,0x38,0x40,0x44,0x80,0x3c,0x40,0x00,0x80,0x3f,0x40,0x3c,0x90,0x38,0x44,
0x04,0x90,0x41,0x4b,0x04,0x90,0x3d,0x44,0x88,0x18,0x80,0x3d,0x40,0x00,0x80,0x38,
0x40,0x0c,0x80,0x41,0x40,0x58,0x90,0x41,0x59,0x00,0x90,0x36,0x3e,0x00,0x90,0x3d,
0x3e,0x00,0x90,0x3a,0x3e,0x8a,0x40,0x80,0x3d,0x40,0x14,0x80,0x41,0x40,0x08,0x80,
0x36,0x40,0x14,0x80,0x3a,0x40,0x7c,0x90,0x3f,0x44,0x0c,0x90,0x3a,0x33,0x04,0x90,
0x38,0x3a,0x00,0x90,0x3c,0x3c,0x8a,0x50,0x80,0x38,0x40,0x04,0x80,0x3c,0x40,0x04,
0x80,0x3f,0x40,0x04,0x80,0x3a,0x40,0x81,0x24,0x90,0x41,0x59,0x04,0x90,0x3d,0x3e,
0x00,0x90,0x3a,0x3c,0x00,0x90,0x36,0x36,0x8b,0x20,0x80,0x3a,0x40,0x00,0x80,0x41,
0x40,0x08,0x80,0x36,0x40,0x00,0x80,0x3d,0x40,0x8c,0x64,0x90,0x41,0x4e,0x04,0x90,
0x36,0x36,0x00,0x90,0x3a,0x3e,0x04,0x90,0x3d,0x3c,0x8a,0x2c,0x80,0x36,0x40,0x00,
0x80,0x41,0x40,0x04,0x80,0x3d,0x40,0x14,0x80,0x3a,0x40,0x81,0x20,0x90,0x3f,0x47,
0x08,0x90,0x38,0x36,0x08,0x90,0x3c,0x3e,0x00,0x90,0x3a,0x3c,0x8a,0x40,0x80,0x3c,
0x40,0x0c,0x80,0x38,0x40,0x04,0x80,0x3f,0x40,0x08,0x80,0x3a,0x40,0x81,0x20,0x90,
0x41,0x54,0x00,0x90,0x36,0x3e,0x00,0x90,0x3a,0x47,0x08,0x90,0x3d,0x3e,0x8a,0x40,
0x80,0x3a,0x40,0x00,0x80,0x36,0x40,0x0c,0x80,0x3d,0x40,0x00,0x80,0x41,0x40,0xbd,
0x2c,0x90,0x41,0x4e,0x00,0x90,0x36,0x3a,0x00,0x90,0x3a,0x3e,0x00,0x90,0x3d,0x3e,
0x83,0x2c,0x80,0x3d,0x40,0x10,0x80,0x36,0x40,0x00,0x80,0x41,0x40,0x18,0x80,0x3a,
0x40,0x64,0x90,0x3f,0x44,0x08,0x90,0x3a,0x35,0x00,0x90,0x38,0x3a,0x10,0x90,0x3c,
0x35,0x86,0x28,0x80,0x3c,0x40,0x00,0x80,0x38,0x40,0x0c,0x80,0x3f,0x40,0x14,0x80,
0x3a,0x40,0x6c,0x90,0x3f,0x47,0x08,0x90,0x38,0x3c,0x08,0x90,0x3c,0x44,0x83,0x18,
0x80,0x38,0x40,0x18,0x80,0x3f,0x40,0x04,0x80,0x3c,0x40,0x68,0x90,0x3d,0x47,0x08,
0x90,0x38,0x3e,0x00,0x90,0x35,0x3c,0x86,0x00,0x80,0x38,0x40,0x18,0x80,0x35,0x40,
0x2c,0x80,0x3d,0x40,0x81,0x1c,0x90,0x41,0x54,0x04,0x90,0x3a,0x44,0x00,0x90,0x36,
0x3e,0x04,0x90,0x3d,0x44,0x83,0x14,0x80,0x36,0x40,0x04,0x80,0x41,0x40,0x04,0x80,
0x3d,0x40,0x34,0x80,0x3a,0x40,0x44,0x90,0x3a,0x35,0x04,0x90,0x3f,0x47,0x00,0x90,
0x38,0x44,0x08,0x90,0x3c,0x3e,0x85,0x48,0x80,0x3c,0x40,0x08,0x80,0x3a,0x40,0x40,
0x80,0x38,0x40,0x1c,0x80,0x3f,0x40,0x81,0x08,0x90,0x3f,0x3e,0x00,0x90,0x38,0x44,
0x08,0x90,0x3c,0x44,0x82,0x1c,0x80,0x38,0x40,0x3c,0x80,0x3c,0x40,0x08,0x80,0x3f,
0x40,0x28,0x90,0x38,0x47,0x04,0x90,0x3d,0x44,0x00,0x90,0x41,0x54,0x87,0x0c,0x80,
0x38,0x40,0x08,0x80,0x41,0x40,0x10,0x80,0x3d,0x40,0x81,0x3c,0x90,0x41,0x54,0x04,
0x90,0x3a,0x47,0x04,0x90,0x36,0x3e,0x00,0x90,0x3d,0x44,0x83,0x10,0x80,0x3d,0x40,
0x1c,0x80,0x41,0x40,0x04,0x80,0x36,0x40,0x4c,0x80,0x3a,0x40,0x4c,0x90,0x3f,0x47,
0x00,0x90,0x3a,0x30,0x04,0x90,0x38,0x3e,0x00,0x90,0x3c,0x41,0x86,0x24,0x80,0x3c,
0x40,0x04,0x80,0x3f,0x40,0x08,0x80,0x38,0x40,0x10,0x80,0x3a,0x40,0x74,0x90,0x3f,
0x3e,0x08,0x90,0x3c,0x41,0x00,0x90,0x38,0x3c,0x83,0x5c,0x80,0x38,0x40,0x08,0x80,
0x3c,0x40,0x18,0x80,0x3f,0x40,0x4c,0x90,0x3d,0x4b,0x00,0x90,0x38,0x44,0x08,0x90,
0x35,0x41,0x85,0x58,0x80,0x38,0x40,0x14,0x80,0x35,0x40,0x34,0x80,0x3d,0x40,0x81,
0x20,0x90,0x41,0x4e,0x00,0x90,0x3d,0x3e,0x00,0x90,0x36,0x3e,0x00,0x90,0x3a,0x3e,
0x83,0x3c,0x80,0x36,0x40,0x04,0x80,0x41,0x40,0x18,0x80,0x3d,0x40,0x14,0x80,0x3a,
0x40,0x58,0x90,0x3f,0x47,0x00,0x90,0x3c,0x44,0x00,0x90,0x38,0x44,0x0c,0x90,0x3a,
0x3a,0x85,0x64,0x80,0x3c,0x40,0x04,0x80,0x3a,0x40,0x10,0x80,0x38,0x40,0x2c,0x80,
0x3f,0x40,0x81,0x00,0x90,0x3f,0x44,0x04,0x90,0x38,0x47,0x00,0x90,0x3c,0x47,0x82,
0x18,0x80,0x38,0x40,0x38,0x80,0x3c,0x40,0x04,0x80,0x3f,0x40,0x34,0x90,0x38,0x44,
0x04,0x90,0x41,0x54,0x04,0x90,0x3d,0x47,0x87,0x1c,0x80,0x3d,0x40,0x0c,0x80,0x41,
0x40,0x00,0x80,0x38,0x40,0x81,0x5c,0x90,0x41,0x54,0x00,0x90,0x36,0x3e,0x00,0x90,
0x3d,0x3e,0x00,0x90,0x3a,0x4b,0x83,0x24,0x80,0x3d,0x40,0x20,0x80,0x36,0x40,0x04,
0x80,0x41,0x40,0x34,0x80,0x3a,0x40,0x44,0x90,0x3f,0x44,0x04,0x90,0x3a,0x2f,0x00,
0x90,0x3c,0x3e,0x04,0x90,0x38,0x3c,0x85,0x74,0x80,0x3f,0x40,0x20,0x80,0x38,0x40,
0x04,0x80,0x3c,0x40,0x20,0x80,0x3a,0x40,0x50,0x90,0x3f,0x47,0x08,0x90,0x3c,0x41,
0x00,0x90,0x38,0x44,0x83,0x58,0x80,0x38,0x40,0x0c,0x80,0x3c,0x40,0x14,0x80,0x3f,
0x40,0x54,0x90,0x3d,0x47,0x04,0x90,0x35,0x41,0x00,0x90,0x38,0x44,0x85,0x74,0x80,
0x38,0x40,0x18,0x80,0x35,0x40,0x28,0x80,0x3d,0x40,0x81,0x10,0x90,0x41,0x54,0x08,
0x90,0x36,0x3e,0x00,0x90,0x3d,0x3e,0x04,0x90,0x3a,0x47,0x83,0x38,0x80,0x41,0x40,
0x08,0x80,0x36,0x40,0x08,0x80,0x3d,0x40,0x28,0x80,0x3a,0x40,0x44,0x90,0x3a,0x30,
0x00,0x90,0x38,0x44,0x00,0x90,0x3c,0x41,0x00,0x90,0x3f,0x47,0x85,0x6c,0x80,0x3c,
0x40,0x1c,0x80,0x3a,0x40,0x04,0x80,0x38,0x40,0x34,0x80,0x3f,0x40,0x81,0x00,0x90,
0x3f,0x44,0x00,0x90,0x38,0x3e,0x08,0x90,0x3c,0x41,0x82,0x20,0x80,0x38,0x40,0x28,
0x80,0x3c,0x40,0x08,0x80,0x3f,0x40,0x34,0x90,0x38,0x44,0x04,0x90,0x3d,0x3e,0x00,
0x90,0x41,0x4b,0x86,0x70,0x80,0x38,0x40,0x04,0x80,0x3d,0x40,0x04,0x80,0x41,0x40,
0x81,0x5c,0x90,0x41,0x4b,0x00,0x90,0x3d,0x44,0x00,0x90,0x36,0x3e,0x00,0x90,0x3a,
0x4b,0x83,0x40,0x80,0x3d,0x40,0x0c,0x80,0x36,0x40,0x00,0x80,0x41,0x40,0x4c,0x80,
0x3a,0x40,0x3c,0x90,0x3f,0x47,0x00,0x90,0x38,0x3e,0x00,0x90,0x3a,0x36,0x0c,0x90,
0x3c,0x3a,0x85,0x74,0x80,0x3c,0x40,0x10,0x80,0x38,0x40,0x0c,0x80,0x3f,0x40,0x18,
0x80,0x3a,0x40,0x81,0x0c,0x90,0x3f,0x44,0x04,0x90,0x38,0x47,0x04,0x90,0x3c,0x47,
0x83,0x48,0x80,0x38,0x40,0x10,0x80,0x3c,0x40,0x14,0x80,0x3f,0x40,0x54,0x90,0x3d,
0x44,0x04,0x90,0x38,0x47,0x04,0x90,0x35,0x41,0x85,0x50,0x80,0x38,0x40,0x14,0x80,
0x35,0x40,0x2c,0x80,0x3d,0x40,0x81,0x30,0x90,0x41,0x54,0x00,0x90,0x3d,0x3c,0x00,
0x90,0x3a,0x47,0x00,0x90,0x36,0x44,0x83,0x20,0x80,0x41,0x40,0x0c,0x80,0x36,0x40,
0x10,0x80,0x3d,0x40,0x34,0x80,0x3a,0x40,0x3c,0x90,0x3a,0x33,0x04,0x90,0x3f,0x47,
0x04,0x90,0x38,0x44,0x08,0x90,0x3c,0x3c,0x85,0x7c,0x80,0x3c,0x40,0x10,0x80,0x3a,
0x40,0x2c,0x80,0x3f,0x40,0x04,0x80,0x38,0x40,0x81,0x00,0x90,0x3f,0x44,0x00,0x90,
0x38,0x47,0x08,0x90,0x3c,0x47,0x82,0x00,0x80,0x38,0x40,0x30,0x80,0x3f,0x40,0x08,
0x80,0x3c,0x40,0x4c,0x90,0x38,0x44,0x04,0x90,0x41,0x54,0x00,0x90,0x3d,0x47,0x86,
0x20,0x80,0x3d,0x40,0x10,0x80,0x41,0x40,0x00,0x80,0x38,0x40,0x81,0xf2,0x40,0x90,
0x3a,0x3e,0x00,0x90,0x36,0x3e,0x00,0x90,0x41,0x4e,0x00,0x90,0x3d,0x44,0x83,0x48,
0x80,0x41,0x40,0x08,0x80,0x36,0x40,0x10,0x80,0x3d,0x40,0x18,0x80,0x3a,0x40,0x4c,
0x90,0x3a,0x36,0x00,0x90,0x3f,0x4b,0x08,0x90,0x38,0x47,0x04,0x90,0x3c,0x3e,0x86,
0x28,0x80,0x3c,0x40,0x00,0x80,0x38,0x40,0x08,0x80,0x3f,0x40,0x00,0x80,0x3a,0x40,
0x81,0x00,0x90,0x3f,0x47,0x0c,0x90,0x38,0x44,0x00,0x90,0x3c,0x44,0x83,0x30,0x80,
0x38,0x40,0x14,0x80,0x3c,0x40,0x0c,0x80,0x3f,0x40,0x54,0x90,0x3d,0x47,0x04,0x90,
0x38,0x44,0x04,0x90,0x35,0x41,0x86,0x18,0x80,0x38,0x40,0x08,0x80,0x35,0x40,0x28,
0x80,0x3d,0x40,0x81,0x24,0x90,0x3a,0x44,0x00,0x90,0x41,0x54,0x04,0x90,0x36,0x3e,
0x04,0x90,0x3d,0x3e,0x83,0x04,0x80,0x3d,0x40,0x24,0x80,0x41,0x40,0x08,0x80,0x36,
0x40,0x3c,0x80,0x3a,0x40,0x30,0x90,0x3f,0x47,0x04,0x90,0x3c,0x41,0x00,0x90,0x38,
0x3c,0x0c,0x90,0x3a,0x3c,0x85,0x3c,0x80,0x3c,0x40,0x28,0x80,0x3a,0x40,0x00,0x80,
0x38,0x40,0x40,0x80,0x3f,0x40,0x81,0x04,0x90,0x3f,0x47,0x00,0x90,0x38,0x44,0x00,
0x90,0x3c,0x44,0x82,0x18,0x80,0x38,0x40,0x3c,0x80,0x3c,0x40,0x10,0x80,0x3f,0x40,
0x30,0x90,0x38,0x47,0x00,0x90,0x41,0x4e,0x00,0x90,0x3d,0x44,0x86,0x6c,0x80,0x3d,
0x40,0x04,0x80,0x38,0x40,0x14,0x80,0x41,0x40,0x81,0x54,0x90,0x41,0x4e,0x04,0x90,
0x3d,0x44,0x00,0x90,0x36,0x3e,0x04,0x90,0x3a,0x47,0x83,0x28,0x80,0x3d,0x40,0x18,
0x80,0x36,0x40,0x00,0x80,0x41,0x40,0x3c,0x80,0x3a,0x40,0x44,0x90,0x3a,0x3c,0x00,
0x90,0x3f,0x4b,0x08,0x90,0x38,0x44,0x00,0x90,0x3c,0x44,0x86,0x08,0x80,0x3c,0x40,
0x14,0x80,0x38,0x40,0x00,0x80,0x3f,0x40,0x18,0x80,0x3a,0x40,0x81,0x04,0x90,0x3f,
0x44,0x00,0x90,0x38,0x4b,0x04,0x90,0x3c,0x4b,0x83,0x4c,0x80,0x38,0x40,0x10,0x80,
0x3c,0x40,0x18,0x80,0x3f,0x40,0x44,0x90,0x3d,0x4b,0x08,0x90,0x35,0x3e,0x04,0x90,
0x38,0x3e,0x85,0x70,0x80,0x38,0x40,0x08,0x80,0x35,0x40,0x30,0x80,0x3d,0x40,0x81,
0x24,0x90,0x3a,0x44,0x00,0x90,0x41,0x4e,0x00,0x90,0x3d,0x44,0x00,0x90,0x36,0x3e,
0x83,0x3c,0x80,0x3d,0x40,0x08,0x80,0x36,0x40,0x04,0x80,0x41,0x40,0x0c,0x80,0x3a,
0x40,0x68,0x90,0x3f,0x47,0x08,0x90,0x38,0x47,0x00,0x90,0x3c,0x3e,0x04,0x90,0x3a,
0x3a,0x85,0x54,0x80,0x3c,0x40,0x1c,0x80,0x38,0x40,0x04,0x80,0x3a,0x40,0x38,0x80,
0x3f,0x40,0x78,0x90,0x3f,0x44,0x08,0x90,0x38,0x3e,0x00,0x90,0x3c,0x41,0x82,0x24,
0x80,0x38,0x40,0x30,0x80,0x3c,0x40,0x08,0x80,0x3f,0x40,0x38,0x90,0x38,0x44,0x04,
0x90,0x41,0x54,0x00,0x90,0x3d,0x44,0x87,0x10,0x80,0x38,0x40,0x08,0x80,0x41,0x40,
0x04,0x80,0x3d,0x40,0x81,0x60,0x90,0x41,0x54,0x00,0x90,0x3a,0x4b,0x00,0x90,0x3d,
0x44,0x00,0x90,0x36,0x3e,0x83,0x1c,0x80,0x3d,0x40,0x0c,0x80,0x36,0x40,0x08,0x80,
0x41,0x40,0x44,0x80,0x3a,0x40,0x3c,0x90,0x3f,0x44,0x04,0x90,0x38,0x3c,0x00,0x90,
0x3a,0x3a,0x00,0x90,0x3c,0x3c,0x86,0x10,0x80,0x38,0x40,0x18,0x80,0x3c,0x40,0x00,
0x80,0x3f,0x40,0x0c,0x80,0x3a,0x40,0x74,0x90,0x3f,0x47,0x08,0x90,0x38,0x3e,0x00,
0x90,0x3c,0x47,0x83,0x70,0x80,0x38,0x40,0x14,0x80,0x3c,0x40,0x18,0x80,0x3f,0x40,
0x3c,0x90,0x38,0x44,0x00,0x90,0x3d,0x47,0x04,0x90,0x35,0x4b,0x85,0x7c,0x80,0x38,
0x40,0x04,0x80,0x35,0x40,0x24,0x80,0x3d,0x40,0x81,0x08,0x90,0x41,0x54,0x04,0x90,
0x3a,0x4b,0x00,0x90,0x36,0x44,0x00,0x90,0x3d,0x44,0x83,0x18,0x80,0x3d,0x40,0x20,
0x80,0x36,0x40,0x0c,0x80,0x41,0x40,0x34,0x80,0x3a,0x40,0x4c,0x90,0x3c,0x44,0x04,
0x90,0x3f,0x44,0x00,0x90,0x3a,0x30,0x08,0x90,0x38,0x36,0x85,0x68,0x80,0x3c,0x40,
0x1c,0x80,0x3a,0x40,0x10,0x80,0x38,0x40,0x34,0x80,0x3f,0x40,0x6c,0x90,0x3f,0x47,
0x04,0x90,0x38,0x47,0x08,0x90,0x3c,0x4b,0x82,0x18,0x80,0x38,0x40,0x3c,0x80,0x3f,
0x40,0x04,0x80,0x3c,0x40,0x2c,0x90,0x41,0x54,0x04,0x90,0x38,0x3e,0x04,0x90,0x3d,
0x3e,0x87,0x1c,0x80,0x38,0x40,0x00,0x80,0x41,0x40,0x04,0x80,0x3d,0x40,0x81,0x2c,
0x90,0x41,0x4e,0x04,0x90,0x3d,0x3e,0x00,0x90,0x3a,0x4b,0x04,0x90,0x36,0x3e,0x83,
0x4c,0x80,0x36,0x40,0x04,0x80,0x3d,0x40,0x00,0x80,0x41,0x40,0x3c,0x80,0x3a,0x40,
0x40,0x90,0x3a,0x3c,0x04,0x90,0x3f,0x44,0x00,0x90,0x38,0x44,0x0c,0x90,0x3c,0x38,
0x86,0x18,0x80,0x3f,0x40,0x08,0x80,0x38,0x40,0x08,0x80,0x3a,0x40,0x08,0x80,0x3c,
0x40,0x74,0x90,0x3f,0x3e,0x04,0x90,0x38,0x44,0x04,0x90,0x3c,0x41,0x83,0x4c,0x80,
0x38,0x40,0x18,0x80,0x3f,0x40,0x18,0x80,0x3c,0x40,0x4c,0x90,0x3d,0x47,0x04,0x90,
0x35,0x44,0x00,0x90,0x38,0x4b,0x85,0x74,0x80,0x38,0x40,0x10,0x80,0x35,0x40,0x14,
0x80,0x3d,0x40,0x81,0x1c,0x90,0x3a,0x47,0x04,0x90,0x41,0x4e,0x00,0x90,0x36,0x44,
0x00,0x90,0x3d,0x47,0x83,0x28,0x80,0x3d,0x40,0x1c,0x80,0x36,0x40,0x08,0x80,0x41,
0x40,0x34,0x80,0x3a,0x40,0x3c,0x90,0x3a,0x33,0x00,0x90,0x38,0x3e,0x00,0x90,0x3f,
0x47,0x08,0x90,0x3c,0x3e,0x85,0x50,0x80,0x3c,0x40,0x08,0x80,0x3a,0x40,0x10,0x80,
0x38,0x40,0x3c,0x80,0x3f,0x40,0x81,0x18,0x90,0x38,0x44,0x04,0x90,0x3f,0x3e,0x00,
0x90,0x3c,0x47,0x82,0x14,0x80,0x38,0x40,0x3c,0x80,0x3c,0x40,0x00,0x80,0x3f,0x40,
0x38,0x90,0x41,0x59,0x08,0x90,0x38,0x44,0x04,0x90,0x3d,0x3e,0x87,0x08,0x80,0x3d,
0x40,0x00,0x80,0x38,0x40,0x0c,0x80,0x41,0x40,0x81,0x50,0x90,0x41,0x59,0x04,0x90,
0x36,0x3e,0x04,0x90,0x3d,0x3e,0x00,0x90,0x3a,0x44,0x83,0x34,0x80,0x36,0x40,0x00,
0x80,0x41,0x40,0x04,0x80,0x3d,0x40,0x48,0x80,0x3a,0x40,0x50,0x90,0x3f,0x47,0x04,
0x90,0x38,0x43,0x04,0x90,0x3c,0x3d,0x08,0x90,0x3a,0x32,0x86,0x1c,0x80,0x38,0x40,
0x10,0x80,0x3c,0x40,0x00,0x80,0x3f,0x40,0x10,0x80,0x3a,0x40,0x64,0x90,0x3f,0x3b,
0x0c,0x90,0x38,0x33,0x00,0x90,0x3c,0x38,0x83,0x2c,0x80,0x38,0x40,0x28,0x80,0x3c,
0x40,0x14,0x80,0x3f,0x40,0x3c,0x90,0x3d,0x39,0x08,0x90,0x35,0x34,0x00,0x90,0x38,
0x36,0x85,0x70,0x80,0x38,0x40,0x0c,0x80,0x35,0x40,0x2c,0x80,0x3d,0x40,0x81,0x18,
0x90,0x3a,0x2c,0x04,0x90,0x36,0x27,0x00,0x90,0x41,0x33,0x00,0x90,0x3d,0x2c,0x83,
0x40,0x80,0x41,0x40,0x0c,0x80,0x36,0x40,0x14,0x80,0x3d,0x40,0x08,0x80,0x3a,0x40,
0x58,0x90,0x3f,0x29,0x04,0x90,0x38,0x23,0x00,0x90,0x3a,0x1a,0x00,0x90,0x3c,0x25,
0x86,0x04,0x80,0x3c,0x40,0x04,0x80,0x38,0x40,0x10,0x80,0x3a,0x40,0x30,0x80,0x3f,
0x40,0x74,0x90,0x3f,0x1c,0x00,0x90,0x38,0x21,0x08,0x90,0x3c,0x21,0x82,0x38,0x80,
0x38,0x40,0x24,0x80,0x3c,0x40,0x08,0x80,0x3f,0x40,0x34,0x90,0x41,0x25,0x08,0x90,
0x38,0x1c,0x00,0x90,0x3d,0x1c,0x87,0x18,0x80,0x41,0x40,0x04,0x80,0x38,0x40,0x08,
0x80,0x3d,0x40,0x81,0x38,0x90,0x41,0x15,0x0c,0x90,0x3a,0x12,0x04,0x90,0x36,0x0f,
0x00,0x90,0x3d,0x10,0x83,0x40,0x80,0x36,0x40,0x08,0x80,0x3d,0x40,0x00,0x80,0x41,
0x40,0x38,0x80,0x3a,0x40,0x40,0x90,0x3f,0x11,0x04,0x90,0x38,0x08,0x00,0x90,0x3a,
0x0e,0x00,0x90,0x3c,0x0d,0x86,0x24,0x80,0x3c,0x40,0x0c,0x80,0x38,0x40,0x0c,0x80,
0x3f,0x40,0x10,0x80,0x3a,0x40,0x70,0x90,0x3f,0x06,0x04,0x90,0x38,0x06,0x00,0x90,
0x3c,0x08,0x83,0x30,0x80,0x38,0x40,0x30,0x80,0x3c,0x40,0x08,0x80,0x3f,0x40,0x44,
0x90,0x3d,0x03,0x00,0x90,0x35,0x02,0x08,0x90,0x38,0x02,0x85,0x68,0x80,0x38,0x40,
0x0c,0x80,0x35,0x40,0x2c,0x80,0x3d,0x40,0x81,0x28,0x90,0x41,0x01,0x00,0x90,0x3d,
0x01,0x00,0x90,0x3a,0x01,0x08,0x90,0x36,0x01,0x83,0x24,0x80,0x36,0x40,0x08,0x80,
0x41,0x40,0x18,0x80,0x3d,0x40,0x1c,0x80,0x3a,0x40,0x44,0x90,0x3a,0x01,0x00,0x90,
0x38,0x01,0x04,0x90,0x3f,0x01,0x08,0x90,0x3c,0x01,0x85,0x58,0x80,0x3c,0x40,0x28,
0x80,0x3a,0x40,0x10,0x80,0x38,0x40,0x18,0x80,0x3f,0x40,0x8d,0x10,0xff,0x2f,0x00,
0x4d,0x54,0x72,0x6b,0x00,0x00,0x19,0x6f,0x00,0xff,0x03,0x0a,0x53,0x59,0x4e,0x20,
0x42,0x41,0x53,0x53,0x20,0x32,0x8f,0x1c,0xc1,0x27,0x04,0xb1,0x07,0x5a,0x00,0xb1,
0x0a,0x40,0x00,0xb1,0x0b,0x7f,0x04,0xb1,0x5b,0x05,0x00,0xb1,0x5d,0x00,0x94,0x5c,
0x91,0x1b,0x69,0x04,0xb1,0x01,0x00,0x00,0xe1,0x00,0x40,0x50,0x81,0x1b,0x40,0x68,
0x91,0x1b,0x72,0x44,0x81,0x1b,0x40,0x20,0x91,0x1b,0x69,0x4c,0x81,0x1b,0x40,0x70,
0x91,0x24,0x6c,0x44,0x81,0x24,0x40,0x1c,0x91,0x22,0x72,0x48,0x81,0x22,0x40,0x78,
0x91,0x20,0x69,0x58,0x81,0x20,0x40,0x68,0x91,0x20,0x77,0x68,0x81,0x20,0x40,0x82,
0x18,0x91,0x1b,0x62,0x54,0x81,0x1b,0x40,0x10,0x91,0x20,0x62,0x38,0x81,0x20,0x40,
0x28,0x91,0x1d,0x72,0x58,0x81,0x1d,0x40,0x64,0x91,0x1d,0x6c,0x3c,0x81,0x1d,0x40,
0x24,0x91,0x1d,0x6c,0x58,0x81,0x1d,0x40,0x70,0x91,0x24,0x6c,0x50,0x81,0x24,0x40,
0x10,0x91,0x22,0x72,0x60,0x81,0x22,0x40,0x82,0x20,0x91,0x22,0x69,0x34,0x81,0x22,
0x40,0x2c,0x91,0x22,0x72,0x34,0x81,0x22,0x40,0x2c,0x91,0x22,0x77,0x3c,0x81,0x22,
0x40,0x24,0x91,0x24,0x6c,0x48,0x81,0x24,0x40,0x78,0x91,0x22,0x69,0x38,0x81,0x22,
0x40,0x28,0x91,0x1b,0x69,0x50,0x81,0x1b,0x40,0x68,0x91,0x1b,0x69,0x3c,0x81,0x1b,
0x40,0x2c,0x91,0x1b,0x65,0x58,0x81,0x1b,0x40,0x68,0x91,0x24,0x69,0x40,0x81,0x24,
0x40,0x20,0x91,0x22,0x72,0x58,0x81,0x22,0x40,0x64,0x91,0x20,0x72,0x64,0x81,0x20,
0x40,0x60,0x91,0x20,0x69,0x54,0x81,0x20,0x40,0x82,0x28,0x91,0x20,0x65,0x2c,0x81,
0x20,0x40,0x30,0x91,0x20,0x72,0x38,0x81,0x20,0x40,0x2c,0x91,0x1d,0x72,0x4c,0x81,
0x1d,0x40,0x70,0x91,0x1d,0x77,0x38,0x81,0x1d,0x40,0x2c,0x91,0x1d,0x77,0x58,0x81,
0x1d,0x40,0x6c,0x91,0x24,0x6c,0x38,0x81,0x24,0x40,0x28,0x91,0x22,0x77,0x64,0x81,
0x22,0x40,0x82,0x1c,0x91,0x20,0x72,0x54,0x81,0x20,0x40,0x6c,0x91,0x20,0x69,0x30,
0x81,0x20,0x40,0x30,0x91,0x20,0x72,0x50,0x81,0x20,0x40,0x68,0x91,0x25,0x65,0x54,
0x81,0x25,0x40,0x10,0x91,0x1b,0x69,0x54,0x81,0x1b,0x40,0x68,0x91,0x1b,0x72,0x44,
0x81,0x1b,0x40,0x20,0x91,0x1b,0x69,0x4c,0x81,0x1b,0x40,0x70,0x91,0x24,0x6c,0x44,
0x81,0x24,0x40,0x1c,0x91,0x22,0x72,0x48,0x81,0x22,0x40,0x78,0x91,0x20,0x69,0x58,
0x81,0x20,0x40,0x68,0x91,0x20,0x77,0x68,0x81,0x20,0x40,0x82,0x18,0x91,0x1b,0x62,
0x54,0x81,0x1b,0x40,0x10,0x91,0x20,0x62,0x38,0x81,0x20,0x40,0x28,0x91,0x1d,0x72,
0x58,0x81,0x1d,0x40,0x64,0x91,0x1d,0x6c,0x3c,0x81,0x1d,0x40,0x24,0x91,0x1d,0x6c,
0x58,0x81,0x1d,0x40,0x70,0x91,0x24,0x6c,0x50,0x81,0x24,0x40,0x10,0x91,0x22,0x72,
0x60,0x81,0x22,0x40,0x82,0x20,0x91,0x22,0x69,0x34,0x81,0x22,0x40,0x2c,0x91,0x22,
0x72,0x34,0x81,0x22,0x40,0x2c,0x91,0x22,0x77,0x3c,0x81,0x22,0x40,0x24,0x91,0x24,
0x6c,0x48,0x81,0x24,0x40,0x78,0x91,0x22,0x69,0x38,0x81,0x22,0x40,0x28,0x91,0x1b,
0x69,0x50,0x81,0x1b,0x40,0x68,0x91,0x1b,0x69,0x3c,0x81,0x1b,0x40,0x2c,0x91,0x1b,
0x65,0x58,0x81,0x1b,0x40,0x68,0x91,0x24,0x69,0x40,0x81,0x24,0x40,0x20,0x91,0x22,
0x72,0x58,0x81,0x22,0x40,0x64,0x91,0x20,0x72,0x64,0x81,0x20,0x40,0x60,0x91,0x20,
0x69,0x54,0x81,0x20,0x40,0x82,0x28,0x91,0x20,0x65,0x2c,0x81,0x20,0x40,0x30,0x91,
0x20,0x72,0x38,0x81,0x20,0x40,0x2c,0x91,0x1d,0x72,0x4c,0x81,0x1d,0x40,0x70,0x91,
0x1d,0x77,0x38,0x81,0x1d,0x40,0x2c,0x91,0x1d,0x77,0x58,0x81,0x1d,0x40,0x6c,0x91,
0x24,0x6c,0x38,0x81,0x24,0x40,0x28,0x91,0x22,0x77,0x64,0x81,0x22,0x40,0x82,0x1c,
0x91,0x20,0x72,0x54,0x81,0x20,0x40,0x6c,0x91,0x20,0x69,0x30,0x81,0x20,0x40,0x30,
0x91,0x20,0x72,0x50,0x81,0x20,0x40,0x68,0x91,0x25,0x65,0x54,0x81,0x25,0x40,0x10,
0x91,0x22,0x72,0x3c,0x81,0x22,0x40,0x81,0x08,0x91,0x22,0x72,0x2c,0x81,0x22,0x40,
0x30,0x91,0x22,0x77,0x40,0x81,0x22,0x40,0x81,0x04,0x91,0x25,0x72,0x34,0x81,0x25,
0x40,0x28,0x91,0x24,0x72,0x40,0x81,0x24,0x40,0x7c,0x91,0x20,0x72,0x48,0x81,0x20,
0x40,0x78,0x91,0x22,0x69,0x54,0x81,0x22,0x40,0x82,0x2c,0x91,0x1d,0x6c,0x38,0x81,
0x1d,0x40,0x28,0x91,0x22,0x69,0x4c,0x81,0x22,0x40,0x81,0x5c,0x91,0x20,0x69,0x2c,
0x81,0x20,0x40,0x34,0x91,0x22,0x72,0x4c,0x81,0x22,0x40,0x74,0x91,0x25,0x72,0x30,
0x81,0x25,0x40,0x30,0x91,0x24,0x77,0x58,0x81,0x24,0x40,0x85,0x24,0x91,0x1d,0x72,
0x3c,0x81,0x1d,0x40,0x28,0x91,0x22,0x77,0x50,0x81,0x22,0x40,0x81,0x50,0x91,0x20,
0x72,0x38,0x81,0x20,0x40,0x28,0x91,0x22,0x72,0x50,0x81,0x22,0x40,0x70,0x91,0x25,
0x69,0x34,0x81,0x25,0x40,0x2c,0x91,0x24,0x77,0x40,0x81,0x24,0x40,0x81,0x00,0x91,
0x20,0x72,0x50,0x81,0x20,0x40,0x70,0x91,0x22,0x72,0x50,0x81,0x22,0x40,0x82,0x30,
0x91,0x22,0x69,0x34,0x81,0x22,0x40,0x28,0x91,0x22,0x72,0x38,0x81,0x22,0x40,0x2c,
0x91,0x1b,0x69,0x50,0x81,0x1b,0x40,0x70,0x91,0x1b,0x69,0x3c,0x81,0x1b,0x40,0x24,
0x91,0x1b,0x72,0x5c,0x81,0x1b,0x40,0x64,0x91,0x1b,0x65,0x38,0x81,0x1b,0x40,0x28,
0x91,0x20,0x77,0x44,0x81,0x20,0x40,0x82,0x3c,0x91,0x20,0x65,0x2c,0x81,0x20,0x40,
0x34,0x91,0x20,0x72,0x48,0x81,0x20,0x40,0x81,0x58,0x91,0x1d,0x72,0x34,0x81,0x1d,
0x40,0x2c,0x91,0x20,0x7c,0x34,0x81,0x20,0x40,0x28,0x91,0x22,0x72,0x3c,0x81,0x22,
0x40,0x81,0x08,0x91,0x22,0x72,0x2c,0x81,0x22,0x40,0x30,0x91,0x22,0x77,0x40,0x81,
0x22,0x40,0x81,0x04,0x91,0x25,0x72,0x34,0x81,0x25,0x40,0x28,0x91,0x24,0x72,0x40,
0x81,0x24,0x40,0x7c,0x91,0x20,0x72,0x48,0x81,0x20,0x40,0x78,0x91,0x22,0x69,0x54,
0x81,0x22,0x40,0x82,0x2c,0x91,0x1d,0x6c,0x38,0x81,0x1d,0x40,0x28,0x91,0x22,0x69,
0x4c,0x81,0x22,0x40,0x81,0x5c,0x91,0x20,0x69,0x2c,0x81,0x20,0x40,0x34,0x91,0x22,
0x72,0x4c,0x81,0x22,0x40,0x74,0x91,0x25,0x72,0x30,0x81,0x25,0x40,0x30,0x91,0x24,
0x77,0x58,0x81,0x24,0x40,0x85,0x24,0x91,0x1d,0x72,0x3c,0x81,0x1d,0x40,0x28,0x91,
0x22,0x77,0x50,0x81,0x22,0x40,0x81,0x50,0x91,0x20,0x72,0x38,0x81,0x20,0x40,0x28,
0x91,0x22,0x72,0x50,0x81,0x22,0x40,0x70,0x91,0x25,0x69,0x34,0x81,0x25,0x40,0x2c,
0x91,0x24,0x77,0x40,0x81,0x24,0x40,0x81,0x00,0x91,0x20,0x72,0x50,0x81,0x20,0x40,
0x70,0x91,0x22,0x72,0x50,0x81,0x22,0x40,0x82,0x30,0x91,0x22,0x69,0x34,0x81,0x22,
0x40,0x28,0x91,0x22,0x72,0x38,0x81,0x22,0x40,0x2c,0x91,0x1b,0x69,0x50,0x81,0x1b,
0x40,0x70,0x91,0x1b,0x69,0x3c,0x81,0x1b,0x40,0x24,0x91,0x1b,0x72,0x5c,0x81,0x1b,
0x40,0x64,0x91,0x1b,0x65,0x38,0x81,0x1b,0x40,0x28,0x91,0x20,0x77,0x44,0x81,0x20,
0x40,0x82,0x3c,0x91,0x20,0x65,0x2c,0x81,0x20,0x40,0x34,0x91,0x20,0x72,0x48,0x81,
0x20,0x40,0x81,0x58,0x91,0x1d,0x72,0x34,0x81,0x1d,0x40,0x2c,0x91,0x20,0x7c,0x34,
0x81,0x20,0x40,0x28,0x91,0x22,0x72,0x3c,0x81,0x22,0x40,0x81,0x08,0x91,0x22,0x72,
0x2c,0x81,0x22,0x40,0x30,0x91,0x22,0x77,0x40,0x81,0x22,0x40,0x81,0x04,0x91,0x25,
0x72,0x34,0x81,0x25,0x40,0x28,0x91,0x24,0x72,0x40,0x81,0x24,0x40,0x7c,0x91,0x20,
0x72,0x48,0x81,0x20,0x40,0x78,0x91,0x22,0x69,0x54,0x81,0x22,0x40,0x82,0x2c,0x91,
0x1d,0x6c,0x38,0x81,0x1d,0x40,0x28,0x91,0x22,0x69,0x4c,0x81,0x22,0x40,0x81,0x5c,
0x91,0x20,0x69,0x2c,0x81,0x20,0x40,0x34,0x91,0x22,0x72,0x4c,0x81,0x22,0x40,0x74,
0x91,0x25,0x72,0x30,0x81,0x25,0x40,0x30,0x91,0x24,0x77,0x58,0x81,0x24,0x40,0x85,
0x24,0x91,0x1d,0x72,0x3c,0x81,0x1d,0x40,0x28,0x91,0x22,0x77,0x50,0x81,0x22,0x40,
0x81,0x50,0x91,0x20,0x72,0x38,0x81,0x20,0x40,0x28,0x91,0x22,0x72,0x50,0x81,0x22,
0x40,0x70,0x91,0x25,0x69,0x34,0x81,0x25,0x40,0x2c,0x91,0x24,0x77,0x40,0x81,0x24,
0x40,0x81,0x00,0x91,0x20,0x72,0x50,0x81,0x20,0x40,0x70,0x91,0x22,0x72,0x50,0x81,
0x22,0x40,0x82,0x2c,0x91,0x20,0x69,0x34,0x81,0x20,0x40,0x2c,0x91,0x22,0x72,0x38,
0x81,0x22,0x40,0x28,0x91,0x22,0x69,0x50,0x81,0x22,0x40,0x70,0x91,0x20,0x69,0x3c,
0x81,0x20,0x40,0x24,0x91,0x22,0x72,0x5c,0x81,0x22,0x40,0x64,0x91,0x25,0x65,0x38,
0x81,0x25,0x40,0x28,0x91,0x24,0x77,0x44,0x81,0x24,0x40,0x85,0x3c,0x91,0x20,0x72,
0x34,0x81,0x20,0x40,0x2c,0x91,0x22,0x7c,0x34,0x81,0x22,0x40,0x2c,0x91,0x1b,0x69,
0x54,0x81,0x1b,0x40,0x68,0x91,0x1b,0x72,0x44,0x81,0x1b,0x40,0x20,0x91,0x1b,0x69,
0x4c,0x81,0x1b,0x40,0x70,0x91,0x24,0x6c,0x44,0x81,0x24,0x40,0x1c,0x91,0x22,0x72,
0x48,0x81,0x22,0x40,0x78,0x91,0x20,0x69,0x58,0x81,0x20,0x40,0x68,0x91,0x20,0x77,
0x68,0x81,0x20,0x40,0x82,0x18,0x91,0x1b,0x62,0x54,0x81,0x1b,0x40,0x10,0x91,0x20,
0x62,0x38,0x81,0x20,0x40,0x28,0x91,0x1d,0x72,0x58,0x81,0x1d,0x40,0x64,0x91,0x1d,
0x6c,0x3c,0x81,0x1d,0x40,0x24,0x91,0x1d,0x6c,0x58,0x81,0x1d,0x40,0x70,0x91,0x24,
0x6c,0x50,0x81,0x24,0x40,0x10,0x91,0x22,0x72,0x60,0x81,0x22,0x40,0x82,0x20,0x91,
0x22,0x69,0x34,0x81,0x22,0x40,0x2c,0x91,0x22,0x72,0x34,0x81,0x22,0x40,0x2c,0x91,
0x22,0x77,0x3c,0x81,0x22,0x40,0x24,0x91,0x24,0x6c,0x48,0x81,0x24,0x40,0x78,0x91,
0x22,0x69,0x38,0x81,0x22,0x40,0x28,0x91,0x1b,0x69,0x50,0x81,0x1b,0x40,0x68,0x91,
0x1b,0x69,0x3c,0x81,0x1b,0x40,0x2c,0x91,0x1b,0x65,0x58,0x81,0x1b,0x40,0x68,0x91,
0x24,0x69,0x40,0x81,0x24,0x40,0x20,0x91,0x22,0x72,0x58,0x81,0x22,0x40,0x64,0x91,
0x20,0x72,0x64,0x81,0x20,0x40,0x60,0x91,0x20,0x69,0x54,0x81,0x20,0x40,0x82,0x28,
0x91,0x20,0x65,0x2c,0x81,0x20,0x40,0x30,0x91,0x20,0x72,0x38,0x81,0x20,0x40,0x2c,
0x91,0x1d,0x72,0x4c,0x81,0x1d,0x40,0x70,0x91,0x1d,0x77,0x38,0x81,0x1d,0x40,0x2c,
0x91,0x1d,0x77,0x58,0x81,0x1d,0x40,0x6c,0x91,0x24,0x6c,0x38,0x81,0x24,0x40,0x28,
0x91,0x22,0x77,0x64,0x81,0x22,0x40,0x82,0x1c,0x91,0x20,0x72,0x54,0x81,0x20,0x40,
0x6c,0x91,0x20,0x69,0x30,0x81,0x20,0x40,0x30,0x91,0x20,0x72,0x50,0x81,0x20,0x40,
0x68,0x91,0x25,0x65,0x54,0x81,0x25,0x40,0x10,0x91,0x1b,0x69,0x54,0x81,0x1b,0x40,
0x68,0x91,0x1b,0x72,0x44,0x81,0x1b,0x40,0x20,0x91,0x1b,0x69,0x4c,0x81,0x1b,0x40,
0x70,0x91,0x24,0x6c,0x44,0x81,0x24,0x40,0x1c,0x91,0x22,0x72,0x48,0x81,0x22,0x40,
0x78,0x91,0x20,0x69,0x58,0x81,0x20,0x40,0x68,0x91,0x20,0x77,0x68,0x81,0x20,0x40,
0x82,0x18,0x91,0x1b,0x62,0x54,0x81,0x1b,0x40,0x10,0x91,0x20,0x62,0x38,0x81,0x20,
0x40,0x28,0x91,0x1d,0x72,0x58,0x81,0x1d,0x40,0x64,0x91,0x1d,0x6c,0x3c,0x81,0x1d,
0x40,0x24,0x91,0x1d,0x6c,0x58,0x81,0x1d,0x40,0x70,0x91,0x24,0x6c,0x50,0x81,0x24,
0x40,0x10,0x91,0x22,0x72,0x60,0x81,0x22,0x40,0x82,0x20,0x91,0x22,0x69,0x34,0x81,
0x22,0x40,0x2c,0x91,0x22,0x72,0x34,0x81,0x22,0x40,0x2c,0x91,0x22,0x77,0x3c,0x81,
0x22,0x40,0x24,0x91,0x24,0x6c,0x48,0x81,0x24,0x40,0x78,0x91,0x22,0x69,0x38,0x81,
0x22,0x40,0x28,0x91,0x1b,0x69,0x50,0x81,0x1b,0x40,0x68,0x91,0x1b,0x69,0x3c,0x81,
0x1b,0x40,0x2c,0x91,0x1b,0x65,0x58,0x81,0x1b,0x40,0x68,0x91,0x24,0x69,0x40,0x81,
0x24,0x40,0x20,0x91,0x22,0x72,0x58,0x81,0x22,0x40,0x64,0x91,0x20,0x72,0x64,0x81,
0x20,0x40,0x60,0x91,0x20,0x69,0x54,0x81,0x20,0x40,0x82,0x28,0x91,0x20,0x65,0x2c,
0x81,0x20,0x40,0x30,0x91,0x20,0x72,0x38,0x81,0x20,0x40,0x2c,0x91,0x1d,0x72,0x4c,
0x81,0x1d,0x40,0x70,0x91,0x1d,0x77,0x38,0x81,0x1d,0x40,0x2c,0x91,0x1d,0x77,0x58,
0x81,0x1d,0x40,0x6c,0x91,0x24,0x6c,0x38,0x81,0x24,0x40,0x28,0x91,0x22,0x77,0x64,
0x81,0x22,0x40,0x82,0x1c,0x91,0x20,0x72,0x54,0x81,0x20,0x40,0x6c,0x91,0x20,0x69,
0x30,0x81,0x20,0x40,0x30,0x91,0x20,0x72,0x50,0x81,0x20,0x40,0x68,0x91,0x25,0x65,
0x54,0x81,0x25,0x40,0x10,0x91,0x22,0x72,0x3c,0x81,0x22,0x40,0x81,0x08,0x91,0x22,
0x72,0x2c,0x81,0x22,0x40,0x30,0x91,0x22,0x77,0x40,0x81,0x22,0x40,0x81,0x04,0x91,
0x25,0x72,0x34,0x81,0x25,0x40,0x28,0x91,0x24,0x72,0x40,0x81,0x24,0x40,0x7c,0x91,
0x20,0x72,0x48,0x81,0x20,0x40,0x78,0x91,0x22,0x69,0x54,0x81,0x22,0x40,0x82,0x2c,
0x91,0x1d,0x6c,0x38,0x81,0x1d,0x40,0x28,0x91,0x22,0x69,0x4c,0x81,0x22,0x40,0x81,
0x5c,0x91,0x20,0x69,0x2c,0x81,0x20,0x40,0x34,0x91,0x22,0x72,0x4c,0x81,0x22,0x40,
0x74,0x91,0x25,0x72,0x30,0x81,0x25,0x40,0x30,0x91,0x24,0x77,0x58,0x81,0x24,0x40,
0x85,0x24,0x91,0x1d,0x72,0x3c,0x81,0x1d,0x40,0x28,0x91,0x22,0x77,0x50,0x81,0x22,
0x40,0x81,0x50,0x91,0x20,0x72,0x38,0x81,0x20,0x40,0x28,0x91,0x22,0x72,0x50,0x81,
0x22,0x40,0x70,0x91,0x25,0x69,0x34,0x81,0x25,0x40,0x2c,0x91,0x24,0x77,0x40,0x81,
0x24,0x40,0x81,0x00,0x91,0x20,0x72,0x50,0x81,0x20,0x40,0x70,0x91,0x22,0x72,0x50,
0x81,0x22,0x40,0x82,0x30,0x91,0x22,0x69,0x34,0x81,0x22,0x40,0x28,0x91,0x22,0x72,
0x38,0x81,0x22,0x40,0x2c,0x91,0x1b,0x69,0x50,0x81,0x1b,0x40,0x70,0x91,0x1b,0x69,
0x3c,0x81,0x1b,0x40,0x24,0x91,0x1b,0x72,0x5c,0x81,0x1b,0x40,0x64,0x91,0x1b,0x65,
0x38,0x81,0x1b,0x40,0x28,0x91,0x20,0x77,0x44,0x81,0x20,0x40,0x82,0x3c,0x91,0x20,
0x65,0x2c,0x81,0x20,0x40,0x34,0x91,0x20,0x72,0x48,0x81,0x20,0x40,0x81,0x58,0x91,
0x1d,0x72,0x34,0x81,0x1d,0x40,0x2c,0x91,0x20,0x7c,0x34,0x81,0x20,0x40,0x28,0x91,
0x22,0x72,0x3c,0x81,0x22,0x40,0x81,0x08,0x91,0x22,0x72,0x2c,0x81,0x22,0x40,0x30,
0x91,0x22,0x77,0x40,0x81,0x22,0x40,0x81,0x04,0x91,0x25,0x72,0x34,0x81,0x25,0x40,
0x28,0x91,0x24,0x72,0x40,0x81,0x24,0x40,0x7c,0x91,0x20,0x72,0x48,0x81,0x20,0x40,
0x78,0x91,0x22,0x69,0x54,0x81,0x22,0x40,0x82,0x2c,0x91,0x1d,0x6c,0x38,0x81,0x1d,
0x40,0x28,0x91,0x22,0x69,0x4c,0x81,0x22,0x40,0x81,0x5c,0x91,0x20,0x69,0x2c,0x81,
0x20,0x40,0x34,0x91,0x22,0x72,0x4c,0x81,0x22,0x40,0x74,0x91,0x25,0x72,0x30,0x81,
0x25,0x40,0x30,0x91,0x24,0x77,0x58,0x81,0x24,0x40,0x85,0x24,0x91,0x1d,0x72,0x3c,
0x81,0x1d,0x40,0x28,0x91,0x22,0x77,0x50,0x81,0x22,0x40,0x81,0x50,0x91,0x20,0x72,
0x38,0x81,0x20,0x40,0x28,0x91,0x22,0x72,0x50,0x81,0x22,0x40,0x70,0x91,0x25,0x69,
0x34,0x81,0x25,0x40,0x2c,0x91,0x24,0x77,0x40,0x81,0x24,0x40,0x81,0x00,0x91,0x20,
0x72,0x50,0x81,0x20,0x40,0x70,0x91,0x22,0x72,0x50,0x81,0x22,0x40,0x82,0x30,0x91,
0x22,0x69,0x34,0x81,0x22,0x40,0x28,0x91,0x22,0x72,0x38,0x81,0x22,0x40,0x2c,0x91,
0x1b,0x69,0x50,0x81,0x1b,0x40,0x70,0x91,0x1b,0x69,0x3c,0x81,0x1b,0x40,0x24,0x91,
0x1b,0x72,0x5c,0x81,0x1b,0x40,0x64,0x91,0x1b,0x65,0x38,0x81,0x1b,0x40,0x28,0x91,
0x20,0x77,0x44,0x81,0x20,0x40,0x82,0x3c,0x91,0x20,0x65,0x2c,0x81,0x20,0x40,0x34,
0x91,0x20,0x72,0x48,0x81,0x20,0x40,0x81,0x58,0x91,0x1d,0x72,0x34,0x81,0x1d,0x40,
0x2c,0x91,0x20,0x7c,0x34,0x81,0x20,0x40,0x28,0x91,0x22,0x72,0x3c,0x81,0x22,0x40,
0x81,0x08,0x91,0x22,0x72,0x2c,0x81,0x22,0x40,0x30,0x91,0x22,0x77,0x40,0x81,0x22,
0x40,0x81,0x04,0x91,0x25,0x72,0x34,0x81,0x25,0x40,0x28,0x91,0x24,0x72,0x40,0x81,
0x24,0x40,0x7c,0x91,0x20,0x72,0x48,0x81,0x20,0x40,0x78,0x91,0x22,0x69,0x54,0x81,
0x22,0x40,0x82,0x2c,0x91,0x1d,0x6c,0x38,0x81,0x1d,0x40,0x28,0x91,0x22,0x69,0x4c,
0x81,0x22,0x40,0x81,0x5c,0x91,0x20,0x69,0x2c,0x81,0x20,0x40,0x34,0x91,0x22,0x72,
0x4c,0x81,0x22,0x40,0x74,0x91,0x25,0x72,0x30,0x81,0x25,0x40,0x30,0x91,0x24,0x77,
0x58,0x81,0x24,0x40,0x85,0x24,0x91,0x1d,0x72,0x3c,0x81,0x1d,0x40,0x28,0x91,0x22,
0x77,0x50,0x81,0x22,0x40,0x81,0x50,0x91,0x20,0x72,0x38,0x81,0x20,0x40,0x28,0x91,
0x22,0x72,0x50,0x81,0x22,0x40,0x70,0x91,0x25,0x69,0x34,0x81,0x25,0x40,0x2c,0x91,
0x24,0x77,0x40,0x81,0x24,0x40,0x81,0x00,0x91,0x20,0x72,0x50,0x81,0x20,0x40,0x70,
0x91,0x22,0x72,0x50,0x81,0x22,0x40,0x82,0x2c,0x91,0x20,0x69,0x34,0x81,0x20,0x40,
0x2c,0x91,0x22,0x72,0x38,0x81,0x22,0x40,0x28,0x91,0x22,0x69,0x50,0x81,0x22,0x40,
0x70,0x91,0x20,0x69,0x3c,0x81,0x20,0x40,0x24,0x91,0x22,0x72,0x5c,0x81,0x22,0x40,
0x64,0x91,0x25,0x65,0x38,0x81,0x25,0x40,0x28,0x91,0x24,0x77,0x44,0x81,0x24,0x40,
0x85,0x3c,0x91,0x20,0x72,0x34,0x81,0x20,0x40,0x2c,0x91,0x22,0x7c,0x34,0x81,0x22,
0x40,0x2c,0x91,0x1b,0x69,0x54,0x81,0x1b,0x40,0x68,0x91,0x1b,0x72,0x44,0x81,0x1b,
0x40,0x20,0x91,0x1b,0x69,0x4c,0x81,0x1b,0x40,0x70,0x91,0x24,0x6c,0x44,0x81,0x24,
0x40,0x1c,0x91,0x22,0x72,0x48,0x81,0x22,0x40,0x78,0x91,0x20,0x69,0x58,0x81,0x20,
0x40,0x68,0x91,0x20,0x77,0x68,0x81,0x20,0x40,0x82,0x18,0x91,0x1b,0x62,0x54,0x81,
0x1b,0x40,0x10,0x91,0x20,0x62,0x38,0x81,0x20,0x40,0x28,0x91,0x1d,0x72,0x58,0x81,
0x1d,0x40,0x64,0x91,0x1d,0x6c,0x3c,0x81,0x1d,0x40,0x24,0x91,0x1d,0x6c,0x58,0x81,
0x1d,0x40,0x70,0x91,0x24,0x6c,0x50,0x81,0x24,0x40,0x10,0x91,0x22,0x72,0x60,0x81,
0x22,0x40,0x82,0x20,0x91,0x22,0x69,0x34,0x81,0x22,0x40,0x2c,0x91,0x22,0x72,0x34,
0x81,0x22,0x40,0x2c,0x91,0x22,0x77,0x3c,0x81,0x22,0x40,0x24,0x91,0x24,0x6c,0x48,
0x81,0x24,0x40,0x78,0x91,0x22,0x69,0x38,0x81,0x22,0x40,0x28,0x91,0x1b,0x69,0x50,
0x81,0x1b,0x40,0x68,0x91,0x1b,0x69,0x3c,0x81,0x1b,0x40,0x2c,0x91,0x1b,0x65,0x58,
0x81,0x1b,0x40,0x68,0x91,0x24,0x69,0x40,0x81,0x24,0x40,0x20,0x91,0x22,0x72,0x58,
0x81,0x22,0x40,0x64,0x91,0x20,0x72,0x64,0x81,0x20,0x40,0x60,0x91,0x20,0x69,0x54,
0x81,0x20,0x40,0x82,0x28,0x91,0x20,0x65,0x2c,0x81,0x20,0x40,0x30,0x91,0x20,0x72,
0x38,0x81,0x20,0x40,0x2c,0x91,0x1d,0x72,0x4c,0x81,0x1d,0x40,0x70,0x91,0x1d,0x77,
0x38,0x81,0x1d,0x40,0x2c,0x91,0x1d,0x77,0x58,0x81,0x1d,0x40,0x6c,0x91,0x24,0x6c,
0x38,0x81,0x24,0x40,0x28,0x91,0x22,0x77,0x64,0x81,0x22,0x40,0x82,0x1c,0x91,0x20,
0x72,0x54,0x81,0x20,0x40,0x6c,0x91,0x20,0x69,0x30,0x81,0x20,0x40,0x30,0x91,0x20,
0x72,0x50,0x81,0x20,0x40,0x68,0x91,0x25,0x65,0x54,0x81,0x25,0x40,0x10,0x91,0x1b,
0x69,0x54,0x81,0x1b,0x40,0x68,0x91,0x1b,0x72,0x44,0x81,0x1b,0x40,0x20,0x91,0x1b,
0x69,0x4c,0x81,0x1b,0x40,0x70,0x91,0x24,0x6c,0x44,0x81,0x24,0x40,0x1c,0x91,0x22,
0x72,0x48,0x81,0x22,0x40,0x78,0x91,0x20,0x69,0x58,0x81,0x20,0x40,0x68,0x91,0x20,
0x77,0x68,0x81,0x20,0x40,0x82,0x18,0x91,0x1b,0x62,0x54,0x81,0x1b,0x40,0x10,0x91,
0x20,0x62,0x38,0x81,0x20,0x40,0x28,0x91,0x1d,0x72,0x58,0x81,0x1d,0x40,0x64,0x91,
0x1d,0x6c,0x3c,0x81,0x1d,0x40,0x24,0x91,0x1d,0x6c,0x58,0x81,0x1d,0x40,0x70,0x91,
0x24,0x6c,0x50,0x81,0x24,0x40,0x10,0x91,0x22,0x72,0x60,0x81,0x22,0x40,0x82,0x20,
0x91,0x22,0x69,0x34,0x81,0x22,0x40,0x2c,0x91,0x22,0x72,0x34,0x81,0x22,0x40,0x2c,
0x91,0x22,0x77,0x3c,0x81,0x22,0x40,0x24,0x91,0x24,0x6c,0x48,0x81,0x24,0x40,0x78,
0x91,0x22,0x69,0x38,0x81,0x22,0x40,0x28,0x91,0x1b,0x69,0x50,0x81,0x1b,0x40,0x68,
0x91,0x1b,0x69,0x3c,0x81,0x1b,0x40,0x2c,0x91,0x1b,0x65,0x58,0x81,0x1b,0x40,0x68,
0x91,0x24,0x69,0x40,0x81,0x24,0x40,0x20,0x91,0x22,0x72,0x58,0x81,0x22,0x40,0x64,
0x91,0x20,0x72,0x64,0x81,0x20,0x40,0x60,0x91,0x20,0x69,0x54,0x81,0x20,0x40,0x82,
0x28,0x91,0x20,0x65,0x2c,0x81,0x20,0x40,0x30,0x91,0x20,0x72,0x38,0x81,0x20,0x40,
0x2c,0x91,0x1d,0x72,0x4c,0x81,0x1d,0x40,0x70,0x91,0x1d,0x77,0x38,0x81,0x1d,0x40,
0x2c,0x91,0x1d,0x77,0x58,0x81,0x1d,0x40,0x6c,0x91,0x24,0x6c,0x38,0x81,0x24,0x40,
0x28,0x91,0x22,0x77,0x64,0x81,0x22,0x40,0x82,0x1c,0x91,0x20,0x72,0x54,0x81,0x20,
0x40,0x6c,0x91,0x20,0x69,0x30,0x81,0x20,0x40,0x30,0x91,0x20,0x72,0x50,0x81,0x20,
0x40,0x68,0x91,0x25,0x65,0x54,0x81,0x25,0x40,0x10,0x91,0x1b,0x69,0x54,0x81,0x1b,
0x40,0x68,0x91,0x1b,0x72,0x44,0x81,0x1b,0x40,0x20,0x91,0x1b,0x69,0x4c,0x81,0x1b,
0x40,0x70,0x91,0x24,0x6c,0x44,0x81,0x24,0x40,0x1c,0x91,0x22,0x72,0x48,0x81,0x22,
0x40,0x78,0x91,0x20,0x69,0x58,0x81,0x20,0x40,0x68,0x91,0x20,0x77,0x68,0x81,0x20,
0x40,0x82,0x18,0x91,0x1b,0x62,0x54,0x81,0x1b,0x40,0x10,0x91,0x20,0x62,0x38,0x81,
0x20,0x40,0x28,0x91,0x1d,0x72,0x58,0x81,0x1d,0x40,0x64,0x91,0x1d,0x6c,0x3c,0x81,
0x1d,0x40,0x24,0x91,0x1d,0x6c,0x58,0x81,0x1d,0x40,0x70,0x91,0x24,0x6c,0x50,0x81,
0x24,0x40,0x10,0x91,0x22,0x72,0x60,0x81,0x22,0x40,0x82,0x20,0x91,0x22,0x69,0x34,
0x81,0x22,0x40,0x2c,0x91,0x22,0x72,0x34,0x81,0x22,0x40,0x2c,0x91,0x22,0x77,0x3c,
0x81,0x22,0x40,0x24,0x91,0x24,0x6c,0x48,0x81,0x24,0x40,0x78,0x91,0x22,0x69,0x38,
0x81,0x22,0x40,0x28,0x91,0x1b,0x69,0x50,0x81,0x1b,0x40,0x68,0x91,0x1b,0x69,0x3c,
0x81,0x1b,0x40,0x2c,0x91,0x1b,0x65,0x58,0x81,0x1b,0x40,0x68,0x91,0x24,0x69,0x40,
0x81,0x24,0x40,0x20,0x91,0x22,0x72,0x58,0x81,0x22,0x40,0x64,0x91,0x20,0x72,0x64,
0x81,0x20,0x40,0x60,0x91,0x20,0x69,0x54,0x81,0x20,0x40,0x82,0x28,0x91,0x20,0x65,
0x2c,0x81,0x20,0x40,0x30,0x91,0x20,0x72,0x38,0x81,0x20,0x40,0x2c,0x91,0x1d,0x72,
0x4c,0x81,0x1d,0x40,0x70,0x91,0x1d,0x77,0x38,0x81,0x1d,0x40,0x2c,0x91,0x1d,0x77,
0x58,0x81,0x1d,0x40,0x6c,0x91,0x24,0x6c,0x38,0x81,0x24,0x40,0x28,0x91,0x22,0x77,
0x64,0x81,0x22,0x40,0x82,0x1c,0x91,0x20,0x72,0x54,0x81,0x20,0x40,0x6c,0x91,0x20,
0x69,0x30,0x81,0x20,0x40,0x30,0x91,0x20,0x72,0x50,0x81,0x20,0x40,0x68,0x91,0x25,
0x65,0x54,0x81,0x25,0x40,0x10,0x91,0x1b,0x69,0x54,0x81,0x1b,0x40,0x68,0x91,0x1b,
0x72,0x44,0x81,0x1b,0x40,0x20,0x91,0x1b,0x69,0x4c,0x81,0x1b,0x40,0x70,0x91,0x24,
0x6c,0x44,0x81,0x24,0x40,0x1c,0x91,0x22,0x72,0x48,0x81,0x22,0x40,0x78,0x91,0x20,
0x69,0x58,0x81,0x20,0x40,0x68,0x91,0x20,0x77,0x68,0x81,0x20,0x40,0x82,0x18,0x91,
0x1b,0x62,0x54,0x81,0x1b,0x40,0x10,0x91,0x20,0x62,0x38,0x81,0x20,0x40,0x28,0x91,
0x1d,0x72,0x58,0x81,0x1d,0x40,0x64,0x91,0x1d,0x6c,0x3c,0x81,0x1d,0x40,0x24,0x91,
0x1d,0x6c,0x58,0x81,0x1d,0x40,0x70,0x91,0x24,0x6c,0x50,0x81,0x24,0x40,0x10,0x91,
0x22,0x72,0x60,0x81,0x22,0x40,0x82,0x20,0x91,0x22,0x69,0x34,0x81,0x22,0x40,0x2c,
0x91,0x22,0x72,0x34,0x81,0x22,0x40,0x2c,0x91,0x22,0x77,0x3c,0x81,0x22,0x40,0x24,
0x91,0x24,0x6c,0x48,0x81,0x24,0x40,0x78,0x91,0x22,0x69,0x38,0x81,0x22,0x40,0x28,
0x91,0x1b,0x69,0x50,0x81,0x1b,0x40,0x68,0x91,0x1b,0x69,0x3c,0x81,0x1b,0x40,0x2c,
0x91,0x1b,0x65,0x58,0x81,0x1b,0x40,0x68,0x91,0x24,0x69,0x40,0x81,0x24,0x40,0x20,
0x91,0x22,0x72,0x58,0x81,0x22,0x40,0x64,0x91,0x20,0x72,0x64,0x81,0x20,0x40,0x60,
0x91,0x20,0x69,0x54,0x81,0x20,0x40,0x82,0x28,0x91,0x20,0x65,0x2c,0x81,0x20,0x40,
0x30,0x91,0x20,0x72,0x38,0x81,0x20,0x40,0x2c,0x91,0x1d,0x72,0x4c,0x81,0x1d,0x40,
0x70,0x91,0x1d,0x77,0x38,0x81,0x1d,0x40,0x2c,0x91,0x1d,0x77,0x58,0x81,0x1d,0x40,
0x6c,0x91,0x24,0x6c,0x38,0x81,0x24,0x40,0x28,0x91,0x22,0x77,0x64,0x81,0x22,0x40,
0x82,0x1c,0x91,0x20,0x72,0x54,0x81,0x20,0x40,0x6c,0x91,0x20,0x69,0x30,0x81,0x20,
0x40,0x30,0x91,0x20,0x72,0x50,0x81,0x20,0x40,0x68,0x91,0x25,0x65,0x54,0x81,0x25,
0x40,0x14,0x91,0x27,0x77,0x5c,0x81,0x27,0x40,0x60,0x91,0x25,0x69,0x30,0x81,0x25,
0x40,0x34,0x91,0x27,0x77,0x48,0x81,0x27,0x40,0x70,0x91,0x2a,0x72,0x3c,0x81,0x2a,
0x40,0x24,0x91,0x29,0x77,0x4c,0x81,0x29,0x40,0x74,0x91,0x25,0x72,0x60,0x81,0x25,
0x40,0x60,0x91,0x27,0x72,0x64,0x81,0x27,0x40,0x82,0x1c,0x91,0x1d,0x6c,0x48,0x81,
0x1d,0x40,0x1c,0x91,0x20,0x72,0x3c,0x81,0x20,0x40,0x28,0x91,0x22,0x77,0x48,0x81,
0x22,0x40,0x74,0x91,0x20,0x69,0x40,0x81,0x20,0x40,0x24,0x91,0x22,0x77,0x50,0x81,
0x22,0x40,0x70,0x91,0x25,0x69,0x38,0x81,0x25,0x40,0x28,0x91,0x24,0x7c,0x68,0x81,
0x24,0x40,0x85,0x10,0x91,0x22,0x72,0x40,0x81,0x22,0x40,0x20,0x91,0x25,0x72,0x50,
0x81,0x25,0x40,0x18,0x91,0x27,0x77,0x5c,0x81,0x27,0x40,0x60,0x91,0x25,0x69,0x30,
0x81,0x25,0x40,0x34,0x91,0x27,0x77,0x48,0x81,0x27,0x40,0x70,0x91,0x2a,0x72,0x3c,
0x81,0x2a,0x40,0x24,0x91,0x29,0x77,0x4c,0x81,0x29,0x40,0x74,0x91,0x25,0x72,0x60,
0x81,0x25,0x40,0x60,0x91,0x27,0x72,0x64,0x81,0x27,0x40,0x82,0x1c,0x91,0x1d,0x6c,
0x48,0x81,0x1d,0x40,0x1c,0x91,0x20,0x72,0x3c,0x81,0x20,0x40,0x28,0x91,0x22,0x77,
0x48,0x81,0x22,0x40,0x74,0x91,0x20,0x69,0x40,0x81,0x20,0x40,0x24,0x91,0x22,0x77,
0x50,0x81,0x22,0x40,0x70,0x91,0x25,0x69,0x38,0x81,0x25,0x40,0x28,0x91,0x24,0x7c,
0x68,0x81,0x24,0x40,0x85,0x10,0x91,0x22,0x72,0x40,0x81,0x22,0x40,0x20,0x91,0x25,
0x72,0x50,0x81,0x25,0x40,0x18,0x91,0x27,0x77,0x5c,0x81,0x27,0x40,0x60,0x91,0x25,
0x69,0x30,0x81,0x25,0x40,0x34,0x91,0x27,0x77,0x48,0x81,0x27,0x40,0x70,0x91,0x2a,
0x72,0x3c,0x81,0x2a,0x40,0x24,0x91,0x29,0x77,0x4c,0x81,0x29,0x40,0x74,0x91,0x25,
0x72,0x60,0x81,0x25,0x40,0x60,0x91,0x27,0x72,0x64,0x81,0x27,0x40,0x82,0x1c,0x91,
0x1d,0x6c,0x48,0x81,0x1d,0x40,0x1c,0x91,0x20,0x72,0x3c,0x81,0x20,0x40,0x28,0x91,
0x22,0x77,0x48,0x81,0x22,0x40,0x74,0x91,0x20,0x69,0x40,0x81,0x20,0x40,0x24,0x91,
0x22,0x77,0x50,0x81,0x22,0x40,0x70,0x91,0x25,0x69,0x38,0x81,0x25,0x40,0x28,0x91,
0x24,0x7c,0x68,0x81,0x24,0x40,0x85,0x10,0x91,0x22,0x72,0x40,0x81,0x22,0x40,0x20,
0x91,0x25,0x72,0x50,0x81,0x25,0x40,0x18,0x91,0x27,0x77,0x5c,0x81,0x27,0x40,0x60,
0x91,0x25,0x69,0x30,0x81,0x25,0x40,0x34,0x91,0x27,0x77,0x48,0x81,0x27,0x40,0x70,
0x91,0x2a,0x72,0x3c,0x81,0x2a,0x40,0x24,0x91,0x29,0x77,0x4c,0x81,0x29,0x40,0x74,
0x91,0x25,0x72,0x60,0x81,0x25,0x40,0x60,0x91,0x27,0x72,0x64,0x81,0x27,0x40,0x82,
0x1c,0x91,0x1d,0x6c,0x48,0x81,0x1d,0x40,0x1c,0x91,0x20,0x72,0x3c,0x81,0x20,0x40,
0x28,0x91,0x22,0x77,0x48,0x81,0x22,0x40,0x74,0x91,0x20,0x69,0x40,0x81,0x20,0x40,
0x24,0x91,0x22,0x77,0x50,0x81,0x22,0x40,0x70,0x91,0x25,0x69,0x38,0x81,0x25,0x40,
0x28,0x91,0x24,0x7c,0x68,0x81,0x24,0x40,0x85,0x10,0x91,0x22,0x72,0x40,0x81,0x22,
0x40,0x20,0x91,0x25,0x72,0x50,0x81,0x25,0x40,0xe0,0x14,0x91,0x22,0x72,0x3c,0x81,
0x22,0x40,0x81,0x08,0x91,0x22,0x72,0x2c,0x81,0x22,0x40,0x30,0x91,0x22,0x77,0x40,
0x81,0x22,0x40,0x81,0x04,0x91,0x25,0x72,0x34,0x81,0x25,0x40,0x28,0x91,0x24,0x72,
0x40,0x81,0x24,0x40,0x7c,0x91,0x20,0x72,0x48,0x81,0x20,0x40,0x78,0x91,0x22,0x69,
0x54,0x81,0x22,0x40,0x82,0x2c,0x91,0x1d,0x6c,0x38,0x81,0x1d,0x40,0x28,0x91,0x22,
0x69,0x4c,0x81,0x22,0x40,0x81,0x5c,0x91,0x20,0x69,0x2c,0x81,0x20,0x40,0x34,0x91,
0x22,0x72,0x4c,0x81,0x22,0x40,0x74,0x91,0x25,0x72,0x30,0x81,0x25,0x40,0x30,0x91,
0x24,0x77,0x58,0x81,0x24,0x40,0x85,0x24,0x91,0x1d,0x72,0x3c,0x81,0x1d,0x40,0x28,
0x91,0x22,0x77,0x50,0x81,0x22,0x40,0x81,0x50,0x91,0x20,0x72,0x38,0x81,0x20,0x40,
0x28,0x91,0x22,0x72,0x50,0x81,0x22,0x40,0x70,0x91,0x25,0x69,0x34,0x81,0x25,0x40,
0x2c,0x91,0x24,0x77,0x40,0x81,0x24,0x40,0x81,0x00,0x91,0x20,0x72,0x50,0x81,0x20,
0x40,0x70,0x91,0x22,0x72,0x50,0x81,0x22,0x40,0x82,0x2c,0x91,0x20,0x69,0x34,0x81,
0x20,0x40,0x2c,0x91,0x22,0x72,0x38,0x81,0x22,0x40,0x28,0x91,0x22,0x69,0x50,0x81,
0x22,0x40,0x70,0x91,0x20,0x69,0x3c,0x81,0x20,0x40,0x24,0x91,0x22,0x72,0x5c,0x81,
0x22,0x40,0x64,0x91,0x25,0x65,0x38,0x81,0x25,0x40,0x28,0x91,0x24,0x77,0x44,0x81,
0x24,0x40,0x85,0x3c,0x91,0x20,0x72,0x34,0x81,0x20,0x40,0x2c,0x91,0x22,0x7c,0x34,
0x81,0x22,0x40,0x2c,0x91,0x1b,0x69,0x54,0x81,0x1b,0x40,0x68,0x91,0x1b,0x72,0x44,
0x81,0x1b,0x40,0x20,0x91,0x1b,0x69,0x4c,0x81,0x1b,0x40,0x70,0x91,0x24,0x6c,0x44,
0x81,0x24,0x40,0x1c,0x91,0x22,0x72,0x48,0x81,0x22,0x40,0x78,0x91,0x20,0x69,0x58,
0x81,0x20,0x40,0x68,0x91,0x20,0x77,0x68,0x81,0x20,0x40,0x82,0x18,0x91,0x1b,0x62,
0x54,0x81,0x1b,0x40,0x10,0x91,0x20,0x62,0x38,0x81,0x20,0x40,0x28,0x91,0x1d,0x72,
0x58,0x81,0x1d,0x40,0x64,0x91,0x1d,0x6c,0x3c,0x81,0x1d,0x40,0x24,0x91,0x1d,0x6c,
0x58,0x81,0x1d,0x40,0x70,0x91,0x24,0x6c,0x50,0x81,0x24,0x40,0x10,0x91,0x22,0x72,
0x60,0x81,0x22,0x40,0x82,0x20,0x91,0x22,0x69,0x34,0x81,0x22,0x40,0x2c,0x91,0x22,
0x72,0x34,0x81,0x22,0x40,0x2c,0x91,0x22,0x77,0x3c,0x81,0x22,0x40,0x24,0x91,0x24,
0x6c,0x48,0x81,0x24,0x40,0x78,0x91,0x22,0x69,0x38,0x81,0x22,0x40,0x28,0x91,0x1b,
0x69,0x50,0x81,0x1b,0x40,0x68,0x91,0x1b,0x69,0x3c,0x81,0x1b,0x40,0x2c,0x91,0x1b,
0x65,0x58,0x81,0x1b,0x40,0x68,0x91,0x24,0x69,0x40,0x81,0x24,0x40,0x20,0x91,0x22,
0x72,0x58,0x81,0x22,0x40,0x64,0x91,0x20,0x72,0x64,0x81,0x20,0x40,0x60,0x91,0x20,
0x69,0x54,0x81,0x20,0x40,0x82,0x28,0x91,0x20,0x65,0x2c,0x81,0x20,0x40,0x30,0x91,
0x20,0x72,0x38,0x81,0x20,0x40,0x2c,0x91,0x1d,0x72,0x4c,0x81,0x1d,0x40,0x70,0x91,
0x1d,0x77,0x38,0x81,0x1d,0x40,0x2c,0x91,0x1d,0x77,0x58,0x81,0x1d,0x40,0x6c,0x91,
0x24,0x6c,0x38,0x81,0x24,0x40,0x28,0x91,0x22,0x77,0x64,0x81,0x22,0x40,0x82,0x1c,
0x91,0x20,0x72,0x54,0x81,0x20,0x40,0x6c,0x91,0x20,0x69,0x30,0x81,0x20,0x40,0x30,
0x91,0x20,0x72,0x50,0x81,0x20,0x40,0x68,0x91,0x25,0x65,0x54,0x81,0x25,0x40,0x10,
0x91,0x1b,0x69,0x54,0x81,0x1b,0x40,0x68,0x91,0x1b,0x72,0x44,0x81,0x1b,0x40,0x20,
0x91,0x1b,0x69,0x4c,0x81,0x1b,0x40,0x70,0x91,0x24,0x6c,0x44,0x81,0x24,0x40,0x1c,
0x91,0x22,0x72,0x48,0x81,0x22,0x40,0x78,0x91,0x20,0x69,0x58,0x81,0x20,0x40,0x68,
0x91,0x20,0x77,0x68,0x81,0x20,0x40,0x82,0x18,0x91,0x1b,0x62,0x54,0x81,0x1b,0x40,
0x10,0x91,0x20,0x62,0x38,0x81,0x20,0x40,0x28,0x91,0x1d,0x72,0x58,0x81,0x1d,0x40,
0x64,0x91,0x1d,0x6c,0x3c,0x81,0x1d,0x40,0x24,0x91,0x1d,0x6c,0x58,0x81,0x1d,0x40,
0x70,0x91,0x24,0x6c,0x50,0x81,0x24,0x40,0x10,0x91,0x22,0x72,0x60,0x81,0x22,0x40,
0x82,0x20,0x91,0x22,0x69,0x34,0x81,0x22,0x40,0x2c,0x91,0x22,0x72,0x34,0x81,0x22,
0x40,0x2c,0x91,0x22,0x77,0x3c,0x81,0x22,0x40,0x24,0x91,0x24,0x6c,0x48,0x81,0x24,
0x40,0x78,0x91,0x22,0x69,0x38,0x81,0x22,0x40,0x28,0x91,0x1b,0x69,0x50,0x81,0x1b,
0x40,0x68,0x91,0x1b,0x69,0x3c,0x81,0x1b,0x40,0x2c,0x91,0x1b,0x65,0x58,0x81,0x1b,
0x40,0x68,0x91,0x24,0x69,0x40,0x81,0x24,0x40,0x20,0x91,0x22,0x72,0x58,0x81,0x22,
0x40,0x64,0x91,0x20,0x72,0x64,0x81,0x20,0x40,0x60,0x91,0x20,0x69,0x54,0x81,0x20,
0x40,0x82,0x28,0x91,0x20,0x65,0x2c,0x81,0x20,0x40,0x30,0x91,0x20,0x72,0x38,0x81,
0x20,0x40,0x2c,0x91,0x1d,0x72,0x4c,0x81,0x1d,0x40,0x70,0x91,0x1d,0x77,0x38,0x81,
0x1d,0x40,0x2c,0x91,0x1d,0x77,0x58,0x81,0x1d,0x40,0x6c,0x91,0x24,0x6c,0x38,0x81,
0x24,0x40,0x28,0x91,0x22,0x77,0x64,0x81,0x22,0x40,0x82,0x1c,0x91,0x20,0x72,0x54,
0x81,0x20,0x40,0x6c,0x91,0x20,0x69,0x30,0x81,0x20,0x40,0x30,0x91,0x20,0x72,0x50,
0x81,0x20,0x40,0x68,0x91,0x25,0x65,0x54,0x81,0x25,0x40,0x10,0x91,0x1b,0x69,0x54,
0x81,0x1b,0x40,0x68,0x91,0x1b,0x72,0x44,0x81,0x1b,0x40,0x20,0x91,0x1b,0x69,0x4c,
0x81,0x1b,0x40,0x70,0x91,0x24,0x6c,0x44,0x81,0x24,0x40,0x1c,0x91,0x22,0x72,0x48,
0x81,0x22,0x40,0x78,0x91,0x20,0x69,0x58,0x81,0x20,0x40,0x68,0x91,0x20,0x77,0x68,
0x81,0x20,0x40,0x82,0x18,0x91,0x1b,0x62,0x54,0x81,0x1b,0x40,0x10,0x91,0x20,0x62,
0x38,0x81,0x20,0x40,0x28,0x91,0x1d,0x72,0x58,0x81,0x1d,0x40,0x64,0x91,0x1d,0x6c,
0x3c,0x81,0x1d,0x40,0x24,0x91,0x1d,0x6c,0x58,0x81,0x1d,0x40,0x70,0x91,0x24,0x6c,
0x50,0x81,0x24,0x40,0x10,0x91,0x22,0x72,0x60,0x81,0x22,0x40,0x82,0x20,0x91,0x22,
0x69,0x34,0x81,0x22,0x40,0x2c,0x91,0x22,0x72,0x34,0x81,0x22,0x40,0x2c,0x91,0x22,
0x77,0x3c,0x81,0x22,0x40,0x24,0x91,0x24,0x6c,0x48,0x81,0x24,0x40,0x78,0x91,0x22,
0x69,0x38,0x81,0x22,0x40,0x28,0x91,0x1b,0x69,0x50,0x81,0x1b,0x40,0x68,0x91,0x1b,
0x69,0x3c,0x81,0x1b,0x40,0x2c,0x91,0x1b,0x65,0x58,0x81,0x1b,0x40,0x68,0x91,0x24,
0x69,0x40,0x81,0x24,0x40,0x20,0x91,0x22,0x72,0x58,0x81,0x22,0x40,0x64,0x91,0x20,
0x72,0x64,0x81,0x20,0x40,0x60,0x91,0x20,0x69,0x54,0x81,0x20,0x40,0x82,0x28,0x91,
0x20,0x65,0x2c,0x81,0x20,0x40,0x30,0x91,0x20,0x72,0x38,0x81,0x20,0x40,0x2c,0x91,
0x1d,0x72,0x4c,0x81,0x1d,0x40,0x70,0x91,0x1d,0x77,0x38,0x81,0x1d,0x40,0x2c,0x91,
0x1d,0x77,0x58,0x81,0x1d,0x40,0x6c,0x91,0x24,0x6c,0x38,0x81,0x24,0x40,0x28,0x91,
0x22,0x77,0x64,0x81,0x22,0x40,0x82,0x1c,0x91,0x20,0x72,0x54,0x81,0x20,0x40,0x6c,
0x91,0x20,0x69,0x30,0x81,0x20,0x40,0x30,0x91,0x20,0x72,0x50,0x81,0x20,0x40,0x68,
0x91,0x25,0x65,0x54,0x81,0x25,0x40,0x10,0x91,0x1b,0x69,0x54,0x81,0x1b,0x40,0x68,
0x91,0x1b,0x72,0x44,0x81,0x1b,0x40,0x20,0x91,0x1b,0x69,0x4c,0x81,0x1b,0x40,0x70,
0x91,0x24,0x6c,0x44,0x81,0x24,0x40,0x1c,0x91,0x22,0x72,0x48,0x81,0x22,0x40,0x78,
0x91,0x20,0x69,0x58,0x81,0x20,0x40,0x68,0x91,0x20,0x77,0x68,0x81,0x20,0x40,0x82,
0x18,0x91,0x1b,0x62,0x54,0x81,0x1b,0x40,0x10,0x91,0x20,0x62,0x38,0x81,0x20,0x40,
0x28,0x91,0x1d,0x72,0x58,0x81,0x1d,0x40,0x64,0x91,0x1d,0x6c,0x3c,0x81,0x1d,0x40,
0x24,0x91,0x1d,0x6c,0x58,0x81,0x1d,0x40,0x70,0x91,0x24,0x6c,0x50,0x81,0x24,0x40,
0x10,0x91,0x22,0x72,0x60,0x81,0x22,0x40,0x82,0x20,0x91,0x22,0x69,0x34,0x81,0x22,
0x40,0x2c,0x91,0x22,0x72,0x34,0x81,0x22,0x40,0x2c,0x91,0x22,0x77,0x3c,0x81,0x22,
0x40,0x24,0x91,0x24,0x6c,0x48,0x81,0x24,0x40,0x78,0x91,0x22,0x69,0x38,0x81,0x22,
0x40,0x28,0x91,0x1b,0x69,0x50,0x81,0x1b,0x40,0x68,0x91,0x1b,0x69,0x3c,0x81,0x1b,
0x40,0x2c,0x91,0x1b,0x65,0x58,0x81,0x1b,0x40,0x68,0x91,0x24,0x69,0x40,0x81,0x24,
0x40,0x20,0x91,0x22,0x72,0x58,0x81,0x22,0x40,0x64,0x91,0x20,0x72,0x64,0x81,0x20,
0x40,0x60,0x91,0x20,0x69,0x54,0x81,0x20,0x40,0x82,0x28,0x91,0x20,0x65,0x2c,0x81,
0x20,0x40,0x30,0x91,0x20,0x72,0x38,0x81,0x20,0x40,0x2c,0x91,0x1d,0x72,0x4c,0x81,
0x1d,0x40,0x70,0x91,0x1d,0x77,0x38,0x81,0x1d,0x40,0x2c,0x91,0x1d,0x77,0x58,0x81,
0x1d,0x40,0x6c,0x91,0x24,0x6c,0x38,0x81,0x24,0x40,0x28,0x91,0x22,0x77,0x64,0x81,
0x22,0x40,0x82,0x1c,0x91,0x20,0x72,0x54,0x81,0x20,0x40,0x6c,0x91,0x20,0x69,0x30,
0x81,0x20,0x40,0x30,0x91,0x20,0x72,0x50,0x81,0x20,0x40,0x68,0x91,0x25,0x65,0x54,
0x81,0x25,0x40,0x10,0x91,0x1b,0x69,0x54,0x81,0x1b,0x40,0x68,0x91,0x1b,0x72,0x44,
0x81,0x1b,0x40,0x20,0x91,0x1b,0x68,0x4c,0x81,0x1b,0x40,0x70,0x91,0x24,0x69,0x44,
0x81,0x24,0x40,0x1c,0x91,0x22,0x6d,0x48,0x81,0x22,0x40,0x78,0x91,0x20,0x63,0x58,
0x81,0x20,0x40,0x68,0x91,0x20,0x6f,0x68,0x81,0x20,0x40,0x82,0x18,0x91,0x1b,0x58,
0x54,0x81,0x1b,0x40,0x10,0x91,0x20,0x57,0x38,0x81,0x20,0x40,0x28,0x91,0x1d,0x64,
0x58,0x81,0x1d,0x40,0x64,0x91,0x1d,0x5d,0x3c,0x81,0x1d,0x40,0x24,0x91,0x1d,0x5d,
0x58,0x81,0x1d,0x40,0x70,0x91,0x24,0x5b,0x50,0x81,0x24,0x40,0x10,0x91,0x22,0x5f,
0x60,0x81,0x22,0x40,0x82,0x20,0x91,0x22,0x54,0x34,0x81,0x22,0x40,0x2c,0x91,0x22,
0x5a,0x34,0x81,0x22,0x40,0x2c,0x91,0x22,0x5c,0x3c,0x81,0x22,0x40,0x24,0x91,0x24,
0x54,0x48,0x81,0x24,0x40,0x78,0x91,0x22,0x50,0x38,0x81,0x22,0x40,0x28,0x91,0x1b,
0x4f,0x50,0x81,0x1b,0x40,0x68,0x91,0x1b,0x4d,0x3c,0x81,0x1b,0x40,0x2c,0x91,0x1b,
0x49,0x58,0x81,0x1b,0x40,0x68,0x91,0x24,0x4a,0x40,0x81,0x24,0x40,0x20,0x91,0x22,
0x50,0x58,0x81,0x22,0x40,0x64,0x91,0x20,0x4e,0x64,0x81,0x20,0x40,0x60,0x91,0x20,
0x46,0x54,0x81,0x20,0x40,0x82,0x28,0x91,0x20,0x40,0x2c,0x81,0x20,0x40,0x30,0x91,
0x20,0x48,0x38,0x81,0x20,0x40,0x2c,0x91,0x1d,0x47,0x4c,0x81,0x1d,0x40,0x70,0x91,
0x1d,0x48,0x38,0x81,0x1d,0x40,0x2c,0x91,0x1d,0x47,0x58,0x81,0x1d,0x40,0x6c,0x91,
0x24,0x3e,0x38,0x81,0x24,0x40,0x28,0x91,0x22,0x43,0x64,0x81,0x22,0x40,0x82,0x1c,
0x91,0x20,0x3e,0x54,0x81,0x20,0x40,0x6c,0x91,0x20,0x37,0x30,0x81,0x20,0x40,0x30,
0x91,0x20,0x3a,0x50,0x81,0x20,0x40,0x68,0x91,0x25,0x32,0x54,0x81,0x25,0x40,0x10,
0x91,0x1b,0x33,0x54,0x81,0x1b,0x40,0x68,0x91,0x1b,0x36,0x44,0x81,0x1b,0x40,0x20,
0x91,0x1b,0x31,0x4c,0x81,0x1b,0x40,0x70,0x91,0x24,0x31,0x44,0x81,0x24,0x40,0x1c,
0x91,0x22,0x32,0x48,0x81,0x22,0x40,0x78,0x91,0x20,0x2d,0x58,0x81,0x20,0x40,0x68,
0x91,0x20,0x30,0x68,0x81,0x20,0x40,0x82,0x18,0x91,0x1b,0x26,0x54,0x81,0x1b,0x40,
0x10,0x91,0x20,0x25,0x38,0x81,0x20,0x40,0x28,0x91,0x1d,0x29,0x58,0x81,0x1d,0x40,
0x64,0x91,0x1d,0x25,0x3c,0x81,0x1d,0x40,0x24,0x91,0x1d,0x24,0x58,0x81,0x1d,0x40,
0x70,0x91,0x24,0x23,0x50,0x81,0x24,0x40,0x10,0x91,0x22,0x24,0x60,0x81,0x22,0x40,
0x82,0x20,0x91,0x22,0x1d,0x34,0x81,0x22,0x40,0x2c,0x91,0x22,0x1e,0x34,0x81,0x22,
0x40,0x2c,0x91,0x22,0x1e,0x3c,0x81,0x22,0x40,0x24,0x91,0x24,0x1b,0x48,0x81,0x24,
0x40,0x78,0x91,0x22,0x1a,0x38,0x81,0x22,0x40,0x28,0x91,0x1b,0x19,0x50,0x81,0x1b,
0x40,0x68,0x91,0x1b,0x17,0x3c,0x81,0x1b,0x40,0x2c,0x91,0x1b,0x15,0x58,0x81,0x1b,
0x40,0x68,0x91,0x24,0x14,0x40,0x81,0x24,0x40,0x20,0x91,0x22,0x14,0x58,0x81,0x22,
0x40,0x64,0x91,0x20,0x13,0x64,0x81,0x20,0x40,0x60,0x91,0x20,0x10,0x54,0x81,0x20,
0x40,0x82,0x28,0x91,0x20,0x0c,0x2c,0x81,0x20,0x40,0x30,0x91,0x20,0x01,0x30,0x81,
0x20,0x01,0x8c,0x34,0xff,0x2f,0x00,0x4d,0x54,0x72,0x6b,0x00,0x00,0x02,0xec,0x00,
0xff,0x03,0x09,0x43,0x4c,0x45,0x41,0x4e,0x20,0x47,0x54,0x52,0x8f,0x30,0xc2,0x1b,
0x04,0xb2,0x07,0x69,0x00,0xb2,0x0a,0x64,0x00,0xb2,0x0b,0x7f,0x04,0xb2,0x5b,0x3c,
0x00,0xb2,0x5d,0x38,0x85,0xb4,0x4c,0x92,0x3d,0x44,0x00,0xe2,0x00,0x40,0x00,0x92,
0x41,0x49,0x00,0x92,0x46,0x4b,0x04,0xb2,0x01,0x00,0x82,0x14,0x82,0x3d,0x40,0x04,
0x82,0x46,0x40,0x00,0x82,0x41,0x40,0x00,0x92,0x3a,0x38,0x04,0x92,0x42,0x4a,0x00,
0x92,0x46,0x4c,0x1c,0x82,0x46,0x40,0x00,0x82,0x3a,0x40,0x08,0x82,0x42,0x40,0x30,
0xe2,0x00,0x3f,0x08,0xe2,0x00,0x40,0x81,0x48,0x92,0x3a,0x3c,0x04,0x92,0x42,0x3c,
0x00,0xe2,0x20,0x40,0x00,0x92,0x46,0x3c,0x0c,0xe2,0x00,0x40,0x28,0x82,0x46,0x40,
0x00,0x82,0x42,0x40,0x08,0x82,0x3a,0x40,0x81,0x04,0x92,0x3d,0x4b,0x00,0x92,0x41,
0x4e,0x04,0x92,0x46,0x4c,0x81,0x74,0x82,0x46,0x40,0x0c,0x82,0x41,0x40,0x00,0x82,
0x3d,0x40,0x0c,0x92,0x46,0x4b,0x04,0x92,0x3a,0x4e,0x04,0x92,0x42,0x4e,0x18,0x82,
0x3a,0x40,0x04,0x82,0x42,0x40,0x00,0x82,0x46,0x40,0x3c,0xe2,0x40,0x3e,0x81,0x44,
0xe2,0x00,0x40,0x04,0x92,0x3a,0x3d,0x00,0x92,0x42,0x4c,0x04,0x92,0x46,0x3d,0x34,
0x82,0x46,0x40,0x04,0x82,0x3a,0x40,0x04,0x82,0x42,0x40,0x8d,0x00,0x92,0x3d,0x44,
0x00,0x92,0x41,0x49,0x00,0x92,0x46,0x4b,0x82,0x18,0x82,0x3d,0x40,0x04,0x82,0x46,
0x40,0x00,0x82,0x41,0x40,0x00,0x92,0x3a,0x38,0x04,0x92,0x42,0x4a,0x00,0x92,0x46,
0x4c,0x1c,0x82,0x46,0x40,0x00,0x82,0x3a,0x40,0x08,0x82,0x42,0x40,0x30,0xe2,0x00,
0x3f,0x08,0xe2,0x00,0x40,0x81,0x48,0x92,0x3a,0x3a,0x04,0x92,0x42,0x3a,0x00,0xe2,
0x20,0x40,0x00,0x92,0x46,0x3a,0x0c,0xe2,0x00,0x40,0x28,0x82,0x46,0x40,0x00,0x82,
0x42,0x40,0x08,0x82,0x3a,0x40,0x81,0x04,0x92,0x3d,0x4b,0x00,0x92,0x41,0x4e,0x04,
0x92,0x46,0x4c,0x81,0x74,0x82,0x46,0x40,0x0c,0x82,0x41,0x40,0x00,0x82,0x3d,0x40,
0x0c,0x92,0x46,0x4b,0x04,0x92,0x3a,0x4e,0x04,0x92,0x42,0x4e,0x18,0x82,0x3a,0x40,
0x04,0x82,0x42,0x40,0x00,0x82,0x46,0x40,0x3c,0xe2,0x40,0x3e,0x81,0x44,0xe2,0x00,
0x40,0x04,0x92,0x3a,0x3d,0x00,0x92,0x42,0x4c,0x04,0x92,0x46,0x3d,0x34,0x82,0x46,
0x40,0x04,0x82,0x3a,0x40,0x04,0x82,0x42,0x40,0x8d,0x00,0x92,0x3d,0x44,0x00,0x92,
0x41,0x49,0x00,0x92,0x46,0x4b,0x82,0x18,0x82,0x3d,0x40,0x04,0x82,0x46,0x40,0x00,
0x82,0x41,0x40,0x00,0x92,0x3a,0x38,0x04,0x92,0x42,0x4a,0x00,0x92,0x46,0x4c,0x1c,
0x82,0x46,0x40,0x00,0x82,0x3a,0x40,0x08,0x82,0x42,0x40,0x30,0xe2,0x00,0x3f,0x08,
0xe2,0x00,0x40,0x81,0x48,0x92,0x3a,0x3b,0x04,0x92,0x42,0x3b,0x00,0xe2,0x20,0x40,
0x00,0x92,0x46,0x3b,0x0c,0xe2,0x00,0x40,0x28,0x82,0x46,0x40,0x00,0x82,0x42,0x40,
0x08,0x82,0x3a,0x40,0x81,0x04,0x92,0x3d,0x4b,0x00,0x92,0x41,0x4e,0x04,0x92,0x46,
0x4c,0x81,0x74,0x82,0x46,0x40,0x0c,0x82,0x41,0x40,0x00,0x82,0x3d,0x40,0x0c,0x92,
0x46,0x4b,0x04,0x92,0x3a,0x4e,0x04,0x92,0x42,0x4e,0x18,0x82,0x3a,0x40,0x04,0x82,
0x42,0x40,0x00,0x82,0x46,0x40,0x3c,0xe2,0x40,0x3e,0x81,0x44,0xe2,0x00,0x40,0x04,
0x92,0x3a,0x3d,0x00,0x92,0x42,0x4c,0x04,0x92,0x46,0x3d,0x34,0x82,0x46,0x40,0x04,
0x82,0x3a,0x40,0x04,0x82,0x42,0x40,0x8d,0x00,0x92,0x3d,0x44,0x00,0x92,0x41,0x49,
0x00,0x92,0x46,0x4b,0x82,0x18,0x82,0x3d,0x40,0x04,0x82,0x46,0x40,0x00,0x82,0x41,
0x40,0x00,0x92,0x3a,0x38,0x04,0x92,0x42,0x4a,0x00,0x92,0x46,0x4c,0x1c,0x82,0x46,
0x40,0x00,0x82,0x3a,0x40,0x08,0x82,0x42,0x40,0x30,0xe2,0x00,0x3f,0x08,0xe2,0x00,
0x40,0x81,0x48,0x92,0x3a,0x3a,0x04,0x92,0x42,0x3a,0x00,0xe2,0x20,0x40,0x00,0x92,
0x46,0x3a,0x0c,0xe2,0x00,0x40,0x28,0x82,0x46,0x40,0x00,0x82,0x42,0x40,0x08,0x82,
0x3a,0x40,0x81,0x04,0x92,0x3d,0x4b,0x00,0x92,0x41,0x4e,0x04,0x92,0x46,0x4c,0x81,
0x74,0x82,0x46,0x40,0x0c,0x82,0x41,0x40,0x00,0x82,0x3d,0x40,0x0c,0x92,0x46,0x4b,
0x04,0x92,0x3a,0x4e,0x04,0x92,0x42,0x4e,0x18,0x82,0x3a,0x40,0x04,0x82,0x42,0x40,
0x00,0x82,0x46,0x40,0x3c,0xe2,0x40,0x3e,0x81,0x44,0xe2,0x00,0x40,0x04,0x92,0x3a,
0x3d,0x00,0x92,0x42,0x4c,0x04,0x92,0x46,0x3d,0x34,0x82,0x46,0x40,0x04,0x82,0x3a,
0x40,0x04,0x82,0x42,0x40,0x83,0xbc,0x7c,0xff,0x2f,0x00,0x4d,0x54,0x72,0x6b,0x00,
0x00,0x12,0xae,0x00,0xff,0x03,0x06,0x4d,0x45,0x4c,0x4f,0x44,0x59,0x8f,0x44,0xc3,
0x49,0x04,0xb3,0x07,0x64,0x00,0xb3,0x0a,0x32,0x00,0xb3,0x0b,0x7f,0x04,0xb3,0x5b,
0x2d,0x00,0xb3,0x5d,0x00,0xf7,0x38,0x93,0x3a,0x5c,0x04,0xb3,0x01,0x00,0x00,0xe3,
0x00,0x40,0x81,0x28,0x83,0x3a,0x40,0x04,0x93,0x3c,0x4e,0x81,0x38,0x83,0x3c,0x40,
0x04,0x93,0x3d,0x57,0x81,0x0c,0x83,0x3d,0x40,0x3c,0x93,0x3d,0x57,0x81,0x40,0x83,
0x3d,0x40,0x04,0x93,0x3f,0x4e,0x81,0x48,0x83,0x3f,0x40,0x04,0x93,0x3c,0x57,0x82,
0x04,0x83,0x3c,0x40,0x04,0x93,0x3a,0x4e,0x7c,0x83,0x3a,0x40,0x04,0x93,0x38,0x41,
0x87,0x40,0x83,0x38,0x40,0x84,0x20,0x93,0x3a,0x4a,0x81,0x10,0x83,0x3a,0x40,0x34,
0x93,0x3a,0x57,0x81,0x3c,0x83,0x3a,0x40,0x04,0x93,0x3c,0x4e,0x81,0x44,0x83,0x3c,
0x40,0x04,0x93,0x3d,0x5c,0x81,0x3c,0x83,0x3d,0x40,0x04,0x93,0x3a,0x57,0x82,0x10,
0x83,0x3a,0x40,0x70,0x93,0x38,0x57,0x81,0x38,0x83,0x38,0x40,0x04,0x93,0x44,0x61,
0x82,0x30,0x83,0x44,0x40,0x58,0x93,0x44,0x61,0x81,0x3c,0x83,0x44,0x40,0x04,0x93,
0x3f,0x4e,0x87,0x38,0x83,0x3f,0x40,0x81,0x44,0x93,0x3a,0x57,0x81,0x04,0x83,0x3a,
0x40,0x44,0x93,0x3a,0x4e,0x81,0x3c,0x83,0x3a,0x40,0x04,0x93,0x3c,0x57,0x81,0x40,
0x83,0x3c,0x40,0x04,0x93,0x3d,0x57,0x81,0x48,0x83,0x3d,0x40,0x04,0x93,0x3a,0x57,
0x81,0x38,0x83,0x3a,0x40,0x04,0x93,0x3d,0x57,0x81,0x3c,0x83,0x3d,0x40,0x04,0x93,
0x3f,0x57,0x81,0x44,0x83,0x3f,0x40,0x81,0x3c,0x93,0x3c,0x57,0x81,0x38,0x83,0x3c,
0x40,0x04,0x93,0x3a,0x4e,0x81,0x44,0x83,0x3a,0x40,0x04,0x93,0x3c,0x4e,0x54,0x83,
0x3c,0x40,0x04,0x93,0x3a,0x4a,0x60,0x83,0x3a,0x40,0x04,0x93,0x38,0x4e,0x84,0x74,
0x83,0x38,0x40,0x82,0x38,0x93,0x3a,0x57,0x81,0x04,0x83,0x3a,0x40,0x40,0x93,0x3a,
0x4e,0x81,0x38,0x83,0x3a,0x40,0x04,0x93,0x3c,0x51,0x81,0x40,0x83,0x3c,0x40,0x04,
0x93,0x3d,0x4e,0x78,0x83,0x3d,0x40,0x48,0x93,0x3a,0x57,0x81,0x44,0x83,0x3a,0x40,
0x04,0x93,0x38,0x5c,0x81,0x54,0x83,0x38,0x40,0x81,0x18,0x93,0x3f,0x5c,0x81,0x14,
0x83,0x3f,0x40,0x38,0x93,0x3f,0x57,0x6c,0x83,0x3f,0x40,0x4c,0x93,0x3f,0x57,0x81,
0x44,0x83,0x3f,0x40,0x04,0x93,0x41,0x5c,0x81,0x44,0x83,0x41,0x40,0x04,0x93,0x3f,
0x57,0x83,0x0c,0x83,0x3f,0x40,0x82,0x78,0x93,0x3d,0x57,0x87,0x30,0x83,0x3d,0x40,
0x04,0x93,0x3f,0x4e,0x81,0x3c,0x83,0x3f,0x40,0x04,0x93,0x41,0x5c,0x81,0x38,0x83,
0x41,0x40,0x04,0x93,0x3d,0x4e,0x81,0x30,0x83,0x3d,0x40,0x04,0x93,0x3f,0x57,0x81,
0x20,0x83,0x3f,0x40,0x30,0x93,0x3f,0x5c,0x74,0x83,0x3f,0x40,0x38,0x93,0x3f,0x5c,
0x81,0x48,0x83,0x3f,0x40,0x04,0x93,0x41,0x5c,0x81,0x34,0x83,0x41,0x40,0x04,0x93,
0x3f,0x57,0x81,0x30,0x83,0x3f,0x40,0x04,0x93,0x38,0x4e,0x81,0x30,0x83,0x38,0x40,
0x30,0x93,0x38,0x61,0x84,0x44,0x83,0x38,0x40,0x84,0x34,0x93,0x3a,0x5c,0x81,0x3c,
0x83,0x3a,0x40,0x04,0x93,0x3c,0x57,0x81,0x3c,0x83,0x3c,0x40,0x04,0x93,0x3d,0x57,
0x81,0x38,0x83,0x3d,0x40,0x04,0x93,0x3a,0x61,0x81,0x38,0x83,0x3a,0x40,0x81,0x4c,
0x93,0x3f,0x5c,0x81,0x48,0x83,0x3f,0x40,0x04,0x93,0x41,0x61,0x81,0x30,0x83,0x41,
0x40,0x04,0x93,0x3f,0x5c,0x82,0x78,0x83,0x3f,0x40,0x81,0x4c,0x93,0x38,0x57,0x5c,
0x83,0x38,0x40,0x04,0x93,0x3a,0x57,0x50,0x83,0x3a,0x40,0x04,0x93,0x3d,0x4e,0x4c,
0x83,0x3d,0x40,0x04,0x93,0x3a,0x4e,0x5c,0x83,0x3a,0x40,0x10,0x93,0x41,0x67,0x81,
0x50,0x83,0x41,0x40,0x74,0x93,0x41,0x67,0x82,0x08,0x83,0x41,0x40,0x04,0x93,0x3f,
0x5c,0x83,0x0c,0x83,0x3f,0x40,0x81,0x34,0x93,0x38,0x57,0x44,0x83,0x38,0x40,0x04,
0x93,0x3a,0x4e,0x58,0x83,0x3a,0x40,0x04,0x93,0x3c,0x51,0x5c,0x83,0x3c,0x40,0x04,
0x93,0x3a,0x4e,0x60,0x83,0x3a,0x40,0x14,0x93,0x3f,0x5c,0x81,0x7c,0x83,0x3f,0x40,
0x4c,0x93,0x3f,0x57,0x82,0x08,0x83,0x3f,0x40,0x04,0x93,0x3d,0x57,0x81,0x60,0x83,
0x3d,0x40,0x04,0x93,0x3c,0x47,0x5c,0x83,0x3c,0x40,0x04,0x93,0x3a,0x4e,0x81,0x54,
0x83,0x3a,0x40,0x2c,0x93,0x38,0x57,0x58,0x83,0x38,0x40,0x04,0x93,0x3a,0x4a,0x68,
0x83,0x3a,0x40,0x08,0x93,0x3c,0x4a,0x4c,0x83,0x3c,0x40,0x04,0x93,0x3a,0x4e,0x54,
0x83,0x3a,0x40,0x0c,0x93,0x3d,0x57,0x82,0x5c,0x83,0x3d,0x40,0x04,0x93,0x3f,0x4e,
0x81,0x48,0x83,0x3f,0x40,0x04,0x93,0x3c,0x57,0x81,0x34,0x83,0x3c,0x40,0x04,0x93,
0x3a,0x4a,0x81,0x3c,0x83,0x3a,0x40,0x04,0x93,0x38,0x4e,0x81,0x5c,0x83,0x38,0x40,
0x81,0x24,0x93,0x38,0x4e,0x81,0x40,0x83,0x38,0x40,0x04,0x93,0x3f,0x57,0x82,0x24,
0x83,0x3f,0x40,0x60,0x93,0x3d,0x57,0x83,0x08,0x83,0x3d,0x40,0x83,0x0c,0x93,0x38,
0x57,0x44,0x83,0x38,0x40,0x04,0x93,0x3a,0x4e,0x4c,0x83,0x3a,0x40,0x04,0x93,0x3d,
0x4e,0x48,0x83,0x3d,0x40,0x04,0x93,0x3a,0x4e,0x60,0x83,0x3a,0x40,0x14,0x93,0x41,
0x67,0x81,0x68,0x83,0x41,0x40,0x58,0x93,0x41,0x67,0x82,0x04,0x83,0x41,0x40,0x04,
0x93,0x3f,0x5c,0x83,0x1c,0x83,0x3f,0x40,0x81,0x24,0x93,0x38,0x57,0x48,0x83,0x38,
0x40,0x04,0x93,0x3a,0x4e,0x50,0x83,0x3a,0x40,0x04,0x93,0x3c,0x4a,0x60,0x83,0x3c,
0x40,0x04,0x93,0x3a,0x57,0x6c,0x83,0x3a,0x40,0x1c,0x93,0x44,0x5c,0x82,0x5c,0x83,
0x44,0x40,0x18,0x93,0x3c,0x51,0x81,0x48,0x83,0x3c,0x40,0x04,0x93,0x3d,0x57,0x81,
0x34,0x83,0x3d,0x40,0x04,0x93,0x3c,0x31,0x58,0x83,0x3c,0x40,0x04,0x93,0x3a,0x57,
0x81,0x40,0x83,0x3a,0x40,0x54,0x93,0x38,0x57,0x50,0x83,0x38,0x40,0x04,0x93,0x3a,
0x4e,0x64,0x83,0x3a,0x40,0x0c,0x93,0x3c,0x4a,0x60,0x83,0x3c,0x40,0x04,0x93,0x3a,
0x57,0x78,0x83,0x3a,0x40,0x0c,0x93,0x3d,0x5c,0x82,0x7c,0x83,0x3d,0x40,0x04,0x93,
0x3f,0x4e,0x81,0x30,0x83,0x3f,0x40,0x04,0x93,0x3c,0x51,0x82,0x44,0x83,0x3c,0x40,
0x04,0x93,0x3a,0x47,0x64,0x83,0x3a,0x40,0x04,0x93,0x38,0x4e,0x81,0x48,0x83,0x38,
0x40,0x81,0x04,0x93,0x38,0x5c,0x81,0x30,0x83,0x38,0x40,0x08,0x93,0x3f,0x5c,0x81,
0x40,0x83,0x3f,0x40,0x04,0x93,0x3d,0x4d,0x81,0x28,0x83,0x3d,0x40,0x20,0x93,0x3d,
0x57,0x83,0x40,0x83,0x3d,0x40,0x86,0x7c,0x93,0x3d,0x57,0x70,0x83,0x3d,0x40,0x5c,
0x93,0x3d,0x61,0x81,0x34,0x83,0x3d,0x40,0x04,0x93,0x3a,0x57,0x81,0x38,0x83,0x3a,
0x40,0x04,0x93,0x3d,0x5c,0x81,0x5c,0x83,0x3d,0x40,0x04,0x93,0x3f,0x5c,0x82,0x38,
0x83,0x3f,0x40,0x83,0x24,0x93,0x3c,0x57,0x81,0x3c,0x83,0x3c,0x40,0x04,0x93,0x3a,
0x57,0x81,0x44,0x83,0x3a,0x40,0x04,0x93,0x3c,0x51,0x44,0x83,0x3c,0x40,0x04,0x93,
0x3a,0x41,0x7c,0x83,0x3a,0x40,0x04,0x93,0x38,0x4e,0x85,0x30,0x83,0x38,0x40,0x82,
0x08,0x93,0x3a,0x57,0x74,0x83,0x3a,0x40,0x48,0x93,0x3a,0x4a,0x81,0x3c,0x83,0x3a,
0x40,0x04,0x93,0x3c,0x51,0x81,0x3c,0x83,0x3c,0x40,0x04,0x93,0x3d,0x57,0x81,0x3c,
0x83,0x3d,0x40,0x08,0x93,0x3a,0x4e,0x81,0x38,0x83,0x3a,0x40,0x04,0x93,0x38,0x5c,
0x82,0x0c,0x83,0x38,0x40,0x82,0x44,0x93,0x44,0x61,0x81,0x08,0x83,0x44,0x40,0x34,
0x93,0x44,0x61,0x81,0x48,0x83,0x44,0x40,0x04,0x93,0x3f,0x5c,0x82,0x60,0x83,0x3f,
0x40,0x10,0x93,0x41,0x5c,0x81,0x38,0x83,0x41,0x40,0x04,0x93,0x3f,0x57,0x81,0x30,
0x83,0x3f,0x40,0x04,0x93,0x3d,0x57,0x82,0x04,0x83,0x3d,0x40,0x78,0x93,0x3d,0x57,
0x70,0x83,0x3d,0x40,0x4c,0x93,0x3d,0x57,0x81,0x40,0x83,0x3d,0x40,0x04,0x93,0x3a,
0x57,0x81,0x3c,0x83,0x3a,0x40,0x08,0x93,0x3d,0x57,0x81,0x3c,0x83,0x3d,0x40,0x0c,
0x93,0x3a,0x4a,0x81,0x30,0x83,0x3a,0x40,0x04,0x93,0x3d,0x5c,0x81,0x50,0x83,0x3d,
0x40,0x04,0x93,0x3f,0x57,0x81,0x3c,0x83,0x3f,0x40,0x81,0x44,0x93,0x3c,0x57,0x81,
0x3c,0x83,0x3c,0x40,0x04,0x93,0x3a,0x4e,0x81,0x44,0x83,0x3a,0x40,0x04,0x93,0x3c,
0x4e,0x54,0x83,0x3c,0x40,0x04,0x93,0x3a,0x4a,0x70,0x83,0x3a,0x40,0x04,0x93,0x38,
0x4e,0x83,0x40,0x83,0x38,0x40,0x83,0x70,0x93,0x3a,0x5c,0x64,0x83,0x3a,0x40,0x5c,
0x93,0x3a,0x5c,0x81,0x38,0x83,0x3a,0x40,0x04,0x93,0x3c,0x57,0x81,0x40,0x83,0x3c,
0x40,0x04,0x93,0x3d,0x4e,0x81,0x34,0x83,0x3d,0x40,0x04,0x93,0x3a,0x57,0x81,0x38,
0x83,0x3a,0x40,0x04,0x93,0x38,0x5c,0x82,0x78,0x83,0x38,0x40,0x81,0x5c,0x93,0x3f,
0x5c,0x81,0x44,0x83,0x3f,0x40,0x04,0x93,0x41,0x5c,0x81,0x14,0x83,0x41,0x40,0x38,
0x93,0x41,0x67,0x82,0x60,0x83,0x41,0x40,0x04,0x93,0x3f,0x57,0x83,0x38,0x83,0x3f,
0x40,0x81,0x14,0x93,0x3d,0x4e,0x87,0x1c,0x83,0x3d,0x40,0x04,0x93,0x3f,0x4a,0x81,
0x48,0x83,0x3f,0x40,0x04,0x93,0x41,0x61,0x81,0x38,0x83,0x41,0x40,0x04,0x93,0x3f,
0x5c,0x82,0x4c,0x83,0x3f,0x40,0x28,0x93,0x3f,0x57,0x81,0x10,0x83,0x3f,0x40,0x38,
0x93,0x3f,0x5c,0x81,0x48,0x83,0x3f,0x40,0x04,0x93,0x41,0x57,0x81,0x2c,0x83,0x41,
0x40,0x04,0x93,0x3f,0x57,0x81,0x38,0x83,0x3f,0x40,0x04,0x93,0x38,0x4a,0x81,0x1c,
0x83,0x38,0x40,0x38,0x93,0x38,0x61,0x84,0x54,0x83,0x38,0x40,0x82,0x64,0x93,0x38,
0x57,0x81,0x28,0x83,0x38,0x40,0x1c,0x93,0x3a,0x5c,0x81,0x2c,0x83,0x3a,0x40,0x04,
0x93,0x3c,0x51,0x81,0x50,0x83,0x3c,0x40,0x04,0x93,0x3d,0x57,0x81,0x34,0x83,0x3d,
0x40,0x04,0x93,0x3a,0x61,0x81,0x48,0x83,0x3a,0x40,0x81,0x44,0x93,0x3f,0x57,0x81,
0x44,0x83,0x3f,0x40,0x04,0x93,0x41,0x5c,0x81,0x30,0x83,0x41,0x40,0x04,0x93,0x3f,
0x57,0x82,0x4c,0x83,0x3f,0x40,0x81,0x70,0x93,0x38,0x57,0x5c,0x83,0x38,0x40,0x04,
0x93,0x3a,0x57,0x50,0x83,0x3a,0x40,0x04,0x93,0x3d,0x4e,0x4c,0x83,0x3d,0x40,0x04,
0x93,0x3a,0x4e,0x5c,0x83,0x3a,0x40,0x10,0x93,0x41,0x67,0x81,0x50,0x83,0x41,0x40,
0x74,0x93,0x41,0x67,0x82,0x08,0x83,0x41,0x40,0x04,0x93,0x3f,0x5c,0x83,0x0c,0x83,
0x3f,0x40,0x81,0x34,0x93,0x38,0x57,0x44,0x83,0x38,0x40,0x04,0x93,0x3a,0x4e,0x58,
0x83,0x3a,0x40,0x04,0x93,0x3c,0x51,0x5c,0x83,0x3c,0x40,0x04,0x93,0x3a,0x4e,0x60,
0x83,0x3a,0x40,0x14,0x93,0x3f,0x5c,0x81,0x7c,0x83,0x3f,0x40,0x4c,0x93,0x3f,0x57,
0x82,0x08,0x83,0x3f,0x40,0x04,0x93,0x3d,0x57,0x81,0x60,0x83,0x3d,0x40,0x04,0x93,
0x3c,0x47,0x5c,0x83,0x3c,0x40,0x04,0x93,0x3a,0x4e,0x81,0x54,0x83,0x3a,0x40,0x2c,
0x93,0x38,0x57,0x58,0x83,0x38,0x40,0x04,0x93,0x3a,0x4a,0x68,0x83,0x3a,0x40,0x08,
0x93,0x3c,0x4a,0x4c,0x83,0x3c,0x40,0x04,0x93,0x3a,0x4e,0x54,0x83,0x3a,0x40,0x0c,
0x93,0x3d,0x57,0x82,0x5c,0x83,0x3d,0x40,0x04,0x93,0x3f,0x4e,0x81,0x48,0x83,0x3f,
0x40,0x04,0x93,0x3c,0x57,0x81,0x34,0x83,0x3c,0x40,0x04,0x93,0x3a,0x4a,0x81,0x3c,
0x83,0x3a,0x40,0x04,0x93,0x38,0x4e,0x81,0x5c,0x83,0x38,0x40,0x81,0x24,0x93,0x38,
0x4e,0x81,0x40,0x83,0x38,0x40,0x04,0x93,0x3f,0x57,0x82,0x24,0x83,0x3f,0x40,0x60,
0x93,0x3d,0x57,0x83,0x08,0x83,0x3d,0x40,0x83,0x0c,0x93,0x38,0x57,0x44,0x83,0x38,
0x40,0x04,0x93,0x3a,0x4e,0x4c,0x83,0x3a,0x40,0x04,0x93,0x3d,0x4e,0x48,0x83,0x3d,
0x40,0x04,0x93,0x3a,0x4e,0x60,0x83,0x3a,0x40,0x14,0x93,0x41,0x67,0x81,0x68,0x83,
0x41,0x40,0x58,0x93,0x41,0x67,0x82,0x04,0x83,0x41,0x40,0x04,0x93,0x3f,0x5c,0x83,
0x1c,0x83,0x3f,0x40,0x81,0x24,0x93,0x38,0x57,0x48,0x83,0x38,0x40,0x04,0x93,0x3a,
0x4e,0x50,0x83,0x3a,0x40,0x04,0x93,0x3c,0x4a,0x60,0x83,0x3c,0x40,0x04,0x93,0x3a,
0x57,0x6c,0x83,0x3a,0x40,0x1c,0x93,0x44,0x5c,0x82,0x5c,0x83,0x44,0x40,0x18,0x93,
0x3c,0x51,0x81,0x48,0x83,0x3c,0x40,0x04,0x93,0x3d,0x57,0x81,0x34,0x83,0x3d,0x40,
0x04,0x93,0x3c,0x31,0x58,0x83,0x3c,0x40,0x04,0x93,0x3a,0x57,0x81,0x40,0x83,0x3a,
0x40,0x54,0x93,0x38,0x57,0x50,0x83,0x38,0x40,0x04,0x93,0x3a,0x4e,0x64,0x83,0x3a,
0x40,0x0c,0x93,0x3c,0x4a,0x60,0x83,0x3c,0x40,0x04,0x93,0x3a,0x57,0x78,0x83,0x3a,
0x40,0x0c,0x93,0x3d,0x5c,0x82,0x7c,0x83,0x3d,0x40,0x04,0x93,0x3f,0x4e,0x81,0x30,
0x83,0x3f,0x40,0x04,0x93,0x3c,0x51,0x82,0x44,0x83,0x3c,0x40,0x04,0x93,0x3a,0x47,
0x64,0x83,0x3a,0x40,0x04,0x93,0x38,0x4e,0x81,0x48,0x83,0x38,0x40,0x81,0x04,0x93,
0x38,0x5c,0x81,0x30,0x83,0x38,0x40,0x08,0x93,0x3f,0x5c,0x81,0x40,0x83,0x3f,0x40,
0x04,0x93,0x3d,0x4d,0x81,0x28,0x83,0x3d,0x40,0x20,0x93,0x3d,0x57,0x83,0x40,0x83,
0x3d,0x40,0x82,0x40,0x93,0x38,0x57,0x5c,0x83,0x38,0x40,0x04,0x93,0x3a,0x57,0x50,
0x83,0x3a,0x40,0x04,0x93,0x3d,0x4e,0x4c,0x83,0x3d,0x40,0x04,0x93,0x3a,0x4e,0x5c,
0x83,0x3a,0x40,0x10,0x93,0x41,0x67,0x81,0x50,0x83,0x41,0x40,0x74,0x93,0x41,0x67,
0x82,0x08,0x83,0x41,0x40,0x04,0x93,0x3f,0x5c,0x83,0x0c,0x83,0x3f,0x40,0x81,0x34,
0x93,0x38,0x57,0x44,0x83,0x38,0x40,0x04,0x93,0x3a,0x4e,0x58,0x83,0x3a,0x40,0x04,
0x93,0x3c,0x51,0x5c,0x83,0x3c,0x40,0x04,0x93,0x3a,0x4e,0x60,0x83,0x3a,0x40,0x14,
0x93,0x3f,0x5c,0x81,0x7c,0x83,0x3f,0x40,0x4c,0x93,0x3f,0x57,0x82,0x08,0x83,0x3f,
0x40,0x04,0x93,0x3d,0x57,0x81,0x60,0x83,0x3d,0x40,0x04,0x93,0x3c,0x47,0x5c,0x83,
0x3c,0x40,0x04,0x93,0x3a,0x4e,0x81,0x54,0x83,0x3a,0x40,0x2c,0x93,0x38,0x57,0x58,
0x83,0x38,0x40,0x04,0x93,0x3a,0x4a,0x68,0x83,0x3a,0x40,0x08,0x93,0x3c,0x4a,0x4c,
0x83,0x3c,0x40,0x04,0x93,0x3a,0x4e,0x54,0x83,0x3a,0x40,0x0c,0x93,0x3d,0x57,0x82,
0x5c,0x83,0x3d,0x40,0x04,0x93,0x3f,0x4e,0x81,0x48,0x83,0x3f,0x40,0x04,0x93,0x3c,
0x57,0x81,0x34,0x83,0x3c,0x40,0x04,0x93,0x3a,0x4a,0x81,0x3c,0x83,0x3a,0x40,0x04,
0x93,0x38,0x4e,0x81,0x5c,0x83,0x38,0x40,0x81,0x24,0x93,0x38,0x4e,0x81,0x40,0x83,
0x38,0x40,0x04,0x93,0x3f,0x57,0x82,0x24,0x83,0x3f,0x40,0x60,0x93,0x3d,0x57,0x83,
0x08,0x83,0x3d,0x40,0x83,0x0c,0x93,0x38,0x57,0x44,0x83,0x38,0x40,0x04,0x93,0x3a,
0x4e,0x4c,0x83,0x3a,0x40,0x04,0x93,0x3d,0x4e,0x48,0x83,0x3d,0x40,0x04,0x93,0x3a,
0x4e,0x60,0x83,0x3a,0x40,0x14,0x93,0x41,0x67,0x81,0x68,0x83,0x41,0x40,0x58,0x93,
0x41,0x67,0x82,0x04,0x83,0x41,0x40,0x04,0x93,0x3f,0x5c,0x83,0x1c,0x83,0x3f,0x40,
0x81,0x24,0x93,0x38,0x57,0x48,0x83,0x38,0x40,0x04,0x93,0x3a,0x4e,0x50,0x83,0x3a,
0x40,0x04,0x93,0x3c,0x4a,0x60,0x83,0x3c,0x40,0x04,0x93,0x3a,0x57,0x6c,0x83,0x3a,
0x40,0x1c,0x93,0x44,0x5c,0x82,0x5c,0x83,0x44,0x40,0x18,0x93,0x3c,0x51,0x81,0x48,
0x83,0x3c,0x40,0x04,0x93,0x3d,0x57,0x81,0x34,0x83,0x3d,0x40,0x04,0x93,0x3c,0x31,
0x58,0x83,0x3c,0x40,0x04,0x93,0x3a,0x57,0x81,0x40,0x83,0x3a,0x40,0x54,0x93,0x38,
0x57,0x50,0x83,0x38,0x40,0x04,0x93,0x3a,0x4e,0x64,0x83,0x3a,0x40,0x0c,0x93,0x3c,
0x4a,0x60,0x83,0x3c,0x40,0x04,0x93,0x3a,0x57,0x78,0x83,0x3a,0x40,0x0c,0x93,0x3d,
0x5c,0x82,0x7c,0x83,0x3d,0x40,0x04,0x93,0x3f,0x4e,0x81,0x30,0x83,0x3f,0x40,0x04,
0x93,0x3c,0x51,0x82,0x44,0x83,0x3c,0x40,0x04,0x93,0x3a,0x47,0x64,0x83,0x3a,0x40,
0x04,0x93,0x38,0x4e,0x81,0x48,0x83,0x38,0x40,0x81,0x04,0x93,0x38,0x5c,0x81,0x30,
0x83,0x38,0x40,0x08,0x93,0x3f,0x5c,0x81,0x40,0x83,0x3f,0x40,0x04,0x93,0x3d,0x4d,
0x81,0x28,0x83,0x3d,0x40,0x20,0x93,0x3d,0x57,0x83,0x40,0x83,0x3d,0x40,0xb7,0x00,
0x93,0x38,0x57,0x44,0x83,0x38,0x40,0x04,0x93,0x3a,0x4e,0x60,0x83,0x3a,0x40,0x04,
0x93,0x3d,0x4a,0x58,0x83,0x3d,0x40,0x04,0x93,0x3a,0x57,0x6c,0x83,0x3a,0x40,0x08,
0x93,0x41,0x61,0x81,0x0c,0x83,0x41,0x40,0x2c,0x93,0x38,0x4e,0x5c,0x83,0x38,0x40,
0x04,0x93,0x3a,0x4e,0x5c,0x83,0x3a,0x40,0x04,0x93,0x3d,0x57,0x50,0x83,0x3d,0x40,
0x04,0x93,0x3a,0x5c,0x58,0x83,0x3a,0x40,0x04,0x93,0x41,0x67,0x81,0x5c,0x83,0x41,
0x40,0x8e,0x74,0x93,0x38,0x57,0x4c,0x83,0x38,0x40,0x04,0x93,0x3a,0x57,0x58,0x83,
0x3a,0x40,0x04,0x93,0x3d,0x57,0x4c,0x83,0x3d,0x40,0x04,0x93,0x3a,0x4e,0x68,0x83,
0x3a,0x40,0x08,0x93,0x41,0x5c,0x81,0x14,0x83,0x41,0x40,0x40,0x93,0x38,0x5c,0x58,
0x83,0x38,0x40,0x04,0x93,0x3a,0x4e,0x64,0x83,0x3a,0x40,0x04,0x93,0x3d,0x4e,0x4c,
0x83,0x3d,0x40,0x04,0x93,0x3a,0x4e,0x60,0x83,0x3a,0x40,0x08,0x93,0x41,0x67,0x81,
0x68,0x83,0x41,0x40,0x8e,0x5c,0x93,0x3d,0x4e,0x70,0x83,0x3d,0x40,0x50,0x93,0x3d,
0x57,0x81,0x38,0x83,0x3d,0x40,0x04,0x93,0x3a,0x57,0x81,0x44,0x83,0x3a,0x40,0x04,
0x93,0x3d,0x57,0x81,0x38,0x83,0x3d,0x40,0x04,0x93,0x3f,0x57,0x82,0x18,0x83,0x3f,
0x40,0x83,0x68,0x93,0x3c,0x51,0x81,0x3c,0x83,0x3c,0x40,0x04,0x93,0x3a,0x4e,0x81,
0x44,0x83,0x3a,0x40,0x08,0x93,0x3c,0x4a,0x5c,0x83,0x3c,0x40,0x04,0x93,0x3a,0x47,
0x64,0x83,0x3a,0x40,0x04,0x93,0x38,0x4a,0x85,0x34,0x83,0x38,0x40,0x81,0x68,0x93,
0x3a,0x57,0x74,0x83,0x3a,0x40,0x58,0x93,0x3a,0x5c,0x81,0x40,0x83,0x3a,0x40,0x04,
0x93,0x3c,0x51,0x81,0x44,0x83,0x3c,0x40,0x04,0x93,0x3d,0x4e,0x81,0x34,0x83,0x3d,
0x40,0x04,0x93,0x3a,0x57,0x81,0x40,0x83,0x3a,0x40,0x08,0x93,0x38,0x57,0x82,0x14,
0x83,0x38,0x40,0x82,0x28,0x93,0x44,0x5c,0x81,0x14,0x83,0x44,0x40,0x3c,0x93,0x44,
0x5c,0x81,0x48,0x83,0x44,0x40,0x04,0x93,0x3f,0x57,0x82,0x18,0x83,0x3f,0x40,0x5c,
0x93,0x41,0x61,0x81,0x34,0x83,0x41,0x40,0x04,0x93,0x3f,0x4e,0x81,0x34,0x83,0x3f,
0x40,0x04,0x93,0x3d,0x4e,0x81,0x7c,0x83,0x3d,0x40,0x81,0x00,0x93,0x3d,0x4e,0x78,
0x83,0x3d,0x40,0x48,0x93,0x3d,0x4e,0x81,0x30,0x83,0x3d,0x40,0x08,0x93,0x3a,0x4e,
0x81,0x3c,0x83,0x3a,0x40,0x04,0x93,0x3d,0x57,0x81,0x3c,0x83,0x3d,0x40,0x08,0x93,
0x3a,0x57,0x81,0x44,0x83,0x3a,0x40,0x04,0x93,0x3d,0x57,0x81,0x50,0x83,0x3d,0x40,
0x04,0x93,0x3f,0x57,0x81,0x48,0x83,0x3f,0x40,0x81,0x34,0x93,0x3c,0x57,0x81,0x38,
0x83,0x3c,0x40,0x04,0x93,0x3a,0x4e,0x81,0x38,0x83,0x3a,0x40,0x04,0x93,0x3c,0x4a,
0x50,0x83,0x3c,0x40,0x04,0x93,0x3a,0x4a,0x58,0x83,0x3a,0x40,0x04,0x93,0x38,0x4e,
0x83,0x38,0x83,0x38,0x40,0x84,0x0c,0x93,0x3a,0x57,0x74,0x83,0x3a,0x40,0x44,0x93,
0x3a,0x4e,0x81,0x44,0x83,0x3a,0x40,0x04,0x93,0x3c,0x4e,0x81,0x44,0x83,0x3c,0x40,
0x04,0x93,0x3d,0x4e,0x81,0x38,0x83,0x3d,0x40,0x04,0x93,0x3a,0x57,0x81,0x40,0x83,
0x3a,0x40,0x04,0x93,0x38,0x5c,0x82,0x1c,0x83,0x38,0x40,0x82,0x30,0x93,0x3f,0x4e,
0x81,0x50,0x83,0x3f,0x40,0x04,0x93,0x41,0x5c,0x81,0x04,0x83,0x41,0x40,0x3c,0x93,
0x41,0x61,0x82,0x64,0x83,0x41,0x40,0x04,0x93,0x3f,0x5c,0x83,0x0c,0x83,0x3f,0x40,
0x81,0x34,0x93,0x3d,0x57,0x87,0x30,0x83,0x3d,0x40,0x04,0x93,0x3f,0x57,0x81,0x40,
0x83,0x3f,0x40,0x04,0x93,0x41,0x5c,0x81,0x3c,0x83,0x41,0x40,0x04,0x93,0x3d,0x4e,
0x81,0x3c,0x83,0x3d,0x40,0x04,0x93,0x3f,0x4e,0x81,0x18,0x83,0x3f,0x40,0x34,0x93,
0x3f,0x5c,0x6c,0x83,0x3f,0x40,0x40,0x93,0x3f,0x5c,0x81,0x40,0x83,0x3f,0x40,0x04,
0x93,0x41,0x57,0x81,0x34,0x83,0x41,0x40,0x04,0x93,0x3f,0x57,0x81,0x34,0x83,0x3f,
0x40,0x04,0x93,0x38,0x4e,0x81,0x20,0x83,0x38,0x40,0x38,0x93,0x38,0x61,0x82,0x7c,
0x83,0x38,0x40,0x86,0x04,0x93,0x3a,0x5c,0x81,0x34,0x83,0x3a,0x40,0x04,0x93,0x3c,
0x51,0x81,0x40,0x83,0x3c,0x40,0x04,0x93,0x3d,0x57,0x81,0x3c,0x83,0x3d,0x40,0x04,
0x93,0x3a,0x61,0x81,0x44,0x83,0x3a,0x40,0x81,0x4c,0x93,0x3f,0x57,0x81,0x40,0x83,
0x3f,0x40,0x04,0x93,0x41,0x5c,0x81,0x2c,0x83,0x41,0x40,0x04,0x93,0x3f,0x57,0x82,
0x60,0x83,0x3f,0x40,0x81,0x60,0x93,0x38,0x57,0x5c,0x83,0x38,0x40,0x04,0x93,0x3a,
0x57,0x50,0x83,0x3a,0x40,0x04,0x93,0x3d,0x4e,0x4c,0x83,0x3d,0x40,0x04,0x93,0x3a,
0x4e,0x5c,0x83,0x3a,0x40,0x10,0x93,0x41,0x67,0x81,0x50,0x83,0x41,0x40,0x74,0x93,
0x41,0x67,0x82,0x08,0x83,0x41,0x40,0x04,0x93,0x3f,0x5c,0x83,0x0c,0x83,0x3f,0x40,
0x81,0x34,0x93,0x38,0x57,0x44,0x83,0x38,0x40,0x04,0x93,0x3a,0x4e,0x58,0x83,0x3a,
0x40,0x04,0x93,0x3c,0x51,0x5c,0x83,0x3c,0x40,0x04,0x93,0x3a,0x4e,0x60,0x83,0x3a,
0x40,0x14,0x93,0x3f,0x5c,0x81,0x7c,0x83,0x3f,0x40,0x4c,0x93,0x3f,0x57,0x82,0x08,
0x83,0x3f,0x40,0x04,0x93,0x3d,0x57,0x81,0x60,0x83,0x3d,0x40,0x04,0x93,0x3c,0x47,
0x5c,0x83,0x3c,0x40,0x04,0x93,0x3a,0x4e,0x81,0x54,0x83,0x3a,0x40,0x2c,0x93,0x38,
0x57,0x58,0x83,0x38,0x40,0x04,0x93,0x3a,0x4a,0x68,0x83,0x3a,0x40,0x08,0x93,0x3c,
0x4a,0x4c,0x83,0x3c,0x40,0x04,0x93,0x3a,0x4e,0x54,0x83,0x3a,0x40,0x0c,0x93,0x3d,
0x57,0x82,0x5c,0x83,0x3d,0x40,0x04,0x93,0x3f,0x4e,0x81,0x48,0x83,0x3f,0x40,0x04,
0x93,0x3c,0x57,0x81,0x34,0x83,0x3c,0x40,0x04,0x93,0x3a,0x4a,0x81,0x3c,0x83,0x3a,
0x40,0x04,0x93,0x38,0x4e,0x81,0x5c,0x83,0x38,0x40,0x81,0x24,0x93,0x38,0x4e,0x81,
0x40,0x83,0x38,0x40,0x04,0x93,0x3f,0x57,0x82,0x24,0x83,0x3f,0x40,0x60,0x93,0x3d,
0x57,0x83,0x08,0x83,0x3d,0x40,0x83,0x0c,0x93,0x38,0x57,0x44,0x83,0x38,0x40,0x04,
0x93,0x3a,0x4e,0x4c,0x83,0x3a,0x40,0x04,0x93,0x3d,0x4e,0x48,0x83,0x3d,0x40,0x04,
0x93,0x3a,0x4e,0x60,0x83,0x3a,0x40,0x14,0x93,0x41,0x67,0x81,0x68,0x83,0x41,0x40,
0x58,0x93,0x41,0x67,0x82,0x04,0x83,0x41,0x40,0x04,0x93,0x3f,0x5c,0x83,0x1c,0x83,
0x3f,0x40,0x81,0x24,0x93,0x38,0x57,0x48,0x83,0x38,0x40,0x04,0x93,0x3a,0x4e,0x50,
0x83,0x3a,0x40,0x04,0x93,0x3c,0x4a,0x60,0x83,0x3c,0x40,0x04,0x93,0x3a,0x57,0x6c,
0x83,0x3a,0x40,0x1c,0x93,0x44,0x5c,0x82,0x5c,0x83,0x44,0x40,0x18,0x93,0x3c,0x51,
0x81,0x48,0x83,0x3c,0x40,0x04,0x93,0x3d,0x57,0x81,0x34,0x83,0x3d,0x40,0x04,0x93,
0x3c,0x31,0x58,0x83,0x3c,0x40,0x04,0x93,0x3a,0x57,0x81,0x40,0x83,0x3a,0x40,0x54,
0x93,0x38,0x57,0x50,0x83,0x38,0x40,0x04,0x93,0x3a,0x4e,0x64,0x83,0x3a,0x40,0x0c,
0x93,0x3c,0x4a,0x60,0x83,0x3c,0x40,0x04,0x93,0x3a,0x57,0x78,0x83,0x3a,0x40,0x0c,
0x93,0x3d,0x5c,0x82,0x7c,0x83,0x3d,0x40,0x04,0x93,0x3f,0x4e,0x81,0x30,0x83,0x3f,
0x40,0x04,0x93,0x3c,0x51,0x82,0x44,0x83,0x3c,0x40,0x04,0x93,0x3a,0x47,0x64,0x83,
0x3a,0x40,0x04,0x93,0x38,0x4e,0x81,0x48,0x83,0x38,0x40,0x81,0x04,0x93,0x38,0x5c,
0x81,0x30,0x83,0x38,0x40,0x08,0x93,0x3f,0x5c,0x81,0x40,0x83,0x3f,0x40,0x04,0x93,
0x3d,0x4d,0x81,0x28,0x83,0x3d,0x40,0x20,0x93,0x3d,0x57,0x83,0x40,0x83,0x3d,0x40,
0x82,0x40,0x93,0x38,0x57,0x5c,0x83,0x38,0x40,0x04,0x93,0x3a,0x57,0x50,0x83,0x3a,
0x40,0x04,0x93,0x3d,0x4e,0x4c,0x83,0x3d,0x40,0x04,0x93,0x3a,0x4e,0x5c,0x83,0x3a,
0x40,0x10,0x93,0x41,0x67,0x81,0x50,0x83,0x41,0x40,0x74,0x93,0x41,0x67,0x82,0x08,
0x83,0x41,0x40,0x04,0x93,0x3f,0x5c,0x83,0x0c,0x83,0x3f,0x40,0x81,0x34,0x93,0x38,
0x57,0x44,0x83,0x38,0x40,0x04,0x93,0x3a,0x4e,0x58,0x83,0x3a,0x40,0x04,0x93,0x3c,
0x51,0x5c,0x83,0x3c,0x40,0x04,0x93,0x3a,0x4e,0x60,0x83,0x3a,0x40,0x14,0x93,0x3f,
0x5c,0x81,0x7c,0x83,0x3f,0x40,0x4c,0x93,0x3f,0x57,0x82,0x08,0x83,0x3f,0x40,0x04,
0x93,0x3d,0x57,0x81,0x60,0x83,0x3d,0x40,0x04,0x93,0x3c,0x47,0x5c,0x83,0x3c,0x40,
0x04,0x93,0x3a,0x4e,0x81,0x54,0x83,0x3a,0x40,0x2c,0x93,0x38,0x57,0x58,0x83,0x38,
0x40,0x04,0x93,0x3a,0x4a,0x68,0x83,0x3a,0x40,0x08,0x93,0x3c,0x4a,0x4c,0x83,0x3c,
0x40,0x04,0x93,0x3a,0x4e,0x54,0x83,0x3a,0x40,0x0c,0x93,0x3d,0x57,0x82,0x5c,0x83,
0x3d,0x40,0x04,0x93,0x3f,0x4e,0x81,0x48,0x83,0x3f,0x40,0x04,0x93,0x3c,0x57,0x81,
0x34,0x83,0x3c,0x40,0x04,0x93,0x3a,0x4a,0x81,0x3c,0x83,0x3a,0x40,0x04,0x93,0x38,
0x4e,0x81,0x5c,0x83,0x38,0x40,0x81,0x24,0x93,0x38,0x4e,0x81,0x40,0x83,0x38,0x40,
0x04,0x93,0x3f,0x57,0x82,0x24,0x83,0x3f,0x40,0x60,0x93,0x3d,0x57,0x83,0x08,0x83,
0x3d,0x40,0x83,0x0c,0x93,0x38,0x57,0x44,0x83,0x38,0x40,0x04,0x93,0x3a,0x4e,0x4c,
0x83,0x3a,0x40,0x04,0x93,0x3d,0x4e,0x48,0x83,0x3d,0x40,0x04,0x93,0x3a,0x4e,0x60,
0x83,0x3a,0x40,0x14,0x93,0x41,0x67,0x81,0x68,0x83,0x41,0x40,0x58,0x93,0x41,0x67,
0x82,0x04,0x83,0x41,0x40,0x04,0x93,0x3f,0x5c,0x83,0x1c,0x83,0x3f,0x40,0x81,0x24,
0x93,0x38,0x57,0x48,0x83,0x38,0x40,0x04,0x93,0x3a,0x4e,0x50,0x83,0x3a,0x40,0x04,
0x93,0x3c,0x4a,0x60,0x83,0x3c,0x40,0x04,0x93,0x3a,0x57,0x6c,0x83,0x3a,0x40,0x1c,
0x93,0x44,0x5c,0x82,0x5c,0x83,0x44,0x40,0x18,0x93,0x3c,0x51,0x81,0x48,0x83,0x3c,
0x40,0x04,0x93,0x3d,0x57,0x81,0x34,0x83,0x3d,0x40,0x04,0x93,0x3c,0x31,0x58,0x83,
0x3c,0x40,0x04,0x93,0x3a,0x57,0x81,0x40,0x83,0x3a,0x40,0x54,0x93,0x38,0x57,0x50,
0x83,0x38,0x40,0x04,0x93,0x3a,0x4e,0x64,0x83,0x3a,0x40,0x0c,0x93,0x3c,0x4a,0x60,
0x83,0x3c,0x40,0x04,0x93,0x3a,0x57,0x78,0x83,0x3a,0x40,0x0c,0x93,0x3d,0x5c,0x82,
0x7c,0x83,0x3d,0x40,0x04,0x93,0x3f,0x4e,0x81,0x30,0x83,0x3f,0x40,0x04,0x93,0x3c,
0x51,0x82,0x44,0x83,0x3c,0x40,0x04,0x93,0x3a,0x47,0x64,0x83,0x3a,0x40,0x04,0x93,
0x38,0x4e,0x81,0x48,0x83,0x38,0x40,0x81,0x04,0x93,0x38,0x5c,0x81,0x30,0x83,0x38,
0x40,0x08,0x93,0x3f,0x5c,0x81,0x40,0x83,0x3f,0x40,0x04,0x93,0x3d,0x4d,0x81,0x28,
0x83,0x3d,0x40,0x20,0x93,0x3d,0x57,0x83,0x40,0x83,0x3d,0x40,0x82,0x40,0x93,0x38,
0x57,0x5c,0x83,0x38,0x40,0x04,0x93,0x3a,0x57,0x50,0x83,0x3a,0x40,0x04,0x93,0x3d,
0x4e,0x4c,0x83,0x3d,0x40,0x04,0x93,0x3a,0x4e,0x5c,0x83,0x3a,0x40,0x10,0x93,0x41,
0x67,0x81,0x50,0x83,0x41,0x40,0x74,0x93,0x41,0x65,0x82,0x08,0x83,0x41,0x40,0x04,
0x93,0x3f,0x57,0x83,0x0c,0x83,0x3f,0x40,0x81,0x34,0x93,0x38,0x4d,0x44,0x83,0x38,
0x40,0x04,0x93,0x3a,0x44,0x58,0x83,0x3a,0x40,0x04,0x93,0x3c,0x45,0x5c,0x83,0x3c,
0x40,0x04,0x93,0x3a,0x42,0x60,0x83,0x3a,0x40,0x14,0x93,0x3f,0x4d,0x81,0x7c,0x83,
0x3f,0x40,0x4c,0x93,0x3f,0x45,0x82,0x08,0x83,0x3f,0x40,0x04,0x93,0x3d,0x43,0x81,
0x60,0x83,0x3d,0x40,0x04,0x93,0x3c,0x34,0x5c,0x83,0x3c,0x40,0x04,0x93,0x3a,0x39,
0x81,0x54,0x83,0x3a,0x40,0x2c,0x93,0x38,0x3d,0x58,0x83,0x38,0x40,0x04,0x93,0x3a,
0x32,0x68,0x83,0x3a,0x40,0x08,0x93,0x3c,0x31,0x4c,0x83,0x3c,0x40,0x04,0x93,0x3a,
0x34,0x54,0x83,0x3a,0x40,0x0c,0x93,0x3d,0x3a,0x82,0x5c,0x83,0x3d,0x40,0x04,0x93,
0x3f,0x30,0x81,0x48,0x83,0x3f,0x40,0x04,0x93,0x3c,0x34,0x81,0x34,0x83,0x3c,0x40,
0x04,0x93,0x3a,0x2a,0x81,0x3c,0x83,0x3a,0x40,0x04,0x93,0x38,0x2a,0x81,0x5c,0x83,
0x38,0x40,0x81,0x24,0x93,0x38,0x27,0x81,0x40,0x83,0x38,0x40,0x04,0x93,0x3f,0x2b,
0x82,0x24,0x83,0x3f,0x40,0x60,0x93,0x3d,0x26,0x83,0x08,0x83,0x3d,0x40,0x83,0x0c,
0x93,0x38,0x1f,0x44,0x83,0x38,0x40,0x04,0x93,0x3a,0x1a,0x4c,0x83,0x3a,0x40,0x04,
0x93,0x3d,0x19,0x48,0x83,0x3d,0x40,0x04,0x93,0x3a,0x19,0x60,0x83,0x3a,0x40,0x14,
0x93,0x41,0x23,0x81,0x68,0x83,0x41,0x40,0x58,0x93,0x41,0x1f,0x82,0x04,0x83,0x41,
0x40,0x04,0x93,0x3f,0x17,0x83,0x1c,0x83,0x3f,0x40,0x81,0x24,0x93,0x38,0x10,0x48,
0x83,0x38,0x40,0x04,0x93,0x3a,0x0c,0x50,0x83,0x3a,0x40,0x04,0x93,0x3c,0x0a,0x60,
0x83,0x3c,0x40,0x04,0x93,0x3a,0x0d,0x6c,0x83,0x3a,0x40,0x1c,0x93,0x44,0x0d,0x82,
0x5c,0x83,0x44,0x40,0x18,0x93,0x3c,0x07,0x81,0x48,0x83,0x3c,0x40,0x04,0x93,0x3d,
0x06,0x81,0x34,0x83,0x3d,0x40,0x04,0x93,0x3c,0x01,0x58,0x83,0x3c,0x40,0x04,0x93,
0x3a,0x03,0x81,0x40,0x83,0x3a,0x40,0x54,0x93,0x38,0x01,0x50,0x83,0x38,0x40,0x04,
0x93,0x3a,0x01,0x64,0x83,0x3a,0x40,0x0c,0x93,0x3c,0x01,0x60,0x83,0x3c,0x40,0x04,
0x93,0x3a,0x01,0x78,0x83,0x3a,0x40,0x0c,0x93,0x3d,0x01,0x82,0x7c,0x83,0x3d,0x40,
0x04,0x93,0x3f,0x01,0x81,0x30,0x83,0x3f,0x40,0x04,0x93,0x3c,0x01,0x82,0x44,0x83,
0x3c,0x40,0x04,0x93,0x3a,0x01,0x64,0x83,0x3a,0x40,0x04,0x93,0x38,0x01,0x81,0x48,
0x83,0x38,0x40,0x81,0x04,0x93,0x38,0x01,0x30,0x83,0x38,0x01,0x8d,0x14,0xff,0x2f,
0x00,0x4d,0x54,0x72,0x6b,0x00,0x00,0x1c,0xf8,0x00,0xff,0x03,0x07,0x50,0x49,0x43,
0x43,0x4f,0x4c,0x4f,0x8f,0x58,0xc4,0x48,0x04,0xb4,0x07,0x50,0x00,0xb4,0x0a,0x4e,
0x00,0xb4,0x0b,0x7f,0x04,0xb4,0x5b,0x2d,0x00,0xb4,0x5d,0x00,0xf7,0x24,0x94,0x3a,
0x48,0x04,0xe4,0x00,0x40,0x00,0xb4,0x01,0x00,0x81,0x2c,0x84,0x3a,0x40,0x00,0x94,
0x3c,0x3a,0x81,0x3c,0x84,0x3c,0x40,0x00,0x94,0x3d,0x43,0x81,0x44,0x84,0x3d,0x40,
0x04,0x94,0x3d,0x43,0x81,0x44,0x84,0x3d,0x40,0x00,0x94,0x3f,0x3a,0x81,0x48,0x84,
0x3f,0x40,0x04,0x94,0x3c,0x43,0x82,0x04,0x84,0x3c,0x40,0x04,0x94,0x3a,0x3a,0x81,
0x00,0x84,0x3a,0x40,0x00,0x94,0x38,0x2d,0x8b,0x50,0x84,0x38,0x40,0x10,0x94,0x3a,
0x36,0x81,0x40,0x84,0x3a,0x40,0x04,0x94,0x3a,0x43,0x81,0x40,0x84,0x3a,0x40,0x00,
0x94,0x3c,0x3a,0x81,0x48,0x84,0x3c,0x40,0x00,0x94,0x3d,0x48,0x81,0x40,0x84,0x3d,
0x40,0x00,0x94,0x3a,0x43,0x82,0x7c,0x84,0x3a,0x40,0x04,0x94,0x38,0x43,0x81,0x3c,
0x84,0x38,0x40,0x00,0x94,0x44,0x4d,0x83,0x00,0x84,0x44,0x40,0x08,0x94,0x44,0x4d,
0x81,0x40,0x84,0x44,0x40,0x00,0x94,0x3f,0x3a,0x88,0x70,0x84,0x3f,0x40,0x0c,0x94,
0x3a,0x43,0x81,0x44,0x84,0x3a,0x40,0x04,0x94,0x3a,0x3a,0x81,0x40,0x84,0x3a,0x40,
0x00,0x94,0x3c,0x43,0x81,0x44,0x84,0x3c,0x40,0x00,0x94,0x3d,0x43,0x81,0x48,0x84,
0x3d,0x40,0x04,0x94,0x3a,0x43,0x81,0x3c,0x84,0x3a,0x40,0x00,0x94,0x3d,0x43,0x81,
0x40,0x84,0x3d,0x40,0x00,0x94,0x3f,0x43,0x82,0x7c,0x84,0x3f,0x40,0x04,0x94,0x3c,
0x43,0x81,0x3c,0x84,0x3c,0x40,0x00,0x94,0x3a,0x3a,0x81,0x48,0x84,0x3a,0x40,0x00,
0x94,0x3c,0x3a,0x58,0x84,0x3c,0x40,0x00,0x94,0x3a,0x36,0x64,0x84,0x3a,0x40,0x00,
0x94,0x38,0x3a,0x87,0x24,0x84,0x38,0x40,0x08,0x94,0x3a,0x43,0x81,0x40,0x84,0x3a,
0x40,0x04,0x94,0x3a,0x3a,0x81,0x3c,0x84,0x3a,0x40,0x00,0x94,0x3c,0x3d,0x81,0x44,
0x84,0x3c,0x40,0x00,0x94,0x3d,0x3a,0x81,0x40,0x84,0x3d,0x40,0x00,0x94,0x3a,0x43,
0x81,0x48,0x84,0x3a,0x40,0x00,0x94,0x38,0x48,0x82,0x68,0x84,0x38,0x40,0x04,0x94,
0x3f,0x48,0x81,0x48,0x84,0x3f,0x40,0x04,0x94,0x3f,0x43,0x81,0x34,0x84,0x3f,0x40,
0x04,0x94,0x3f,0x43,0x81,0x48,0x84,0x3f,0x40,0x00,0x94,0x41,0x48,0x81,0x48,0x84,
0x41,0x40,0x00,0x94,0x3f,0x43,0x85,0x7c,0x84,0x3f,0x40,0x08,0x94,0x3d,0x43,0x87,
0x2c,0x84,0x3d,0x40,0x08,0x94,0x3f,0x3a,0x81,0x40,0x84,0x3f,0x40,0x00,0x94,0x41,
0x48,0x81,0x3c,0x84,0x41,0x40,0x00,0x94,0x3d,0x3a,0x81,0x34,0x84,0x3d,0x40,0x00,
0x94,0x3f,0x43,0x81,0x48,0x84,0x3f,0x40,0x08,0x94,0x3f,0x48,0x81,0x28,0x84,0x3f,
0x40,0x04,0x94,0x3f,0x48,0x81,0x48,0x84,0x3f,0x40,0x04,0x94,0x41,0x48,0x81,0x38,
0x84,0x41,0x40,0x00,0x94,0x3f,0x43,0x81,0x34,0x84,0x3f,0x40,0x00,0x94,0x38,0x3a,
0x81,0x58,0x84,0x38,0x40,0x08,0x94,0x38,0x4d,0x88,0x6c,0x84,0x38,0x40,0x0c,0x94,
0x3a,0x48,0x81,0x40,0x84,0x3a,0x40,0x00,0x94,0x3c,0x43,0x81,0x40,0x84,0x3c,0x40,
0x00,0x94,0x3d,0x43,0x81,0x3c,0x84,0x3d,0x40,0x00,0x94,0x3a,0x4d,0x83,0x00,0x84,
0x3a,0x40,0x04,0x94,0x3f,0x48,0x81,0x48,0x84,0x3f,0x40,0x04,0x94,0x41,0x4d,0x81,
0x34,0x84,0x41,0x40,0x00,0x94,0x3f,0x48,0x84,0x40,0x84,0x3f,0x40,0x04,0x94,0x38,
0x43,0x60,0x84,0x38,0x40,0x00,0x94,0x3a,0x43,0x54,0x84,0x3a,0x40,0x00,0x94,0x3d,
0x3a,0x50,0x84,0x3d,0x40,0x00,0x94,0x3a,0x3a,0x7c,0x84,0x3a,0x40,0x00,0x94,0x49,
0x40,0x00,0x94,0x44,0x40,0x00,0x94,0x41,0x53,0x00,0x94,0x3d,0x30,0x82,0x18,0x84,
0x3d,0x40,0x00,0x84,0x41,0x40,0x00,0x84,0x44,0x40,0x00,0x84,0x49,0x40,0x08,0x94,
0x3d,0x28,0x00,0x94,0x49,0x45,0x00,0x94,0x41,0x50,0x00,0x94,0x44,0x40,0x82,0x18,
0x84,0x44,0x40,0x04,0x84,0x41,0x40,0x00,0x84,0x49,0x40,0x00,0x84,0x3d,0x40,0x04,
0x94,0x48,0x45,0x00,0x94,0x44,0x40,0x00,0x94,0x3f,0x45,0x00,0x94,0x3c,0x30,0x84,
0x3c,0x84,0x3c,0x40,0x00,0x84,0x3f,0x40,0x00,0x84,0x44,0x40,0x00,0x84,0x48,0x40,
0x04,0x94,0x38,0x40,0x60,0x84,0x38,0x40,0x00,0x94,0x3a,0x37,0x60,0x84,0x3a,0x40,
0x00,0x94,0x3c,0x3a,0x60,0x84,0x3c,0x40,0x00,0x94,0x3a,0x37,0x60,0x84,0x3a,0x40,
0x00,0x94,0x48,0x40,0x00,0x94,0x44,0x40,0x00,0x94,0x3c,0x2a,0x00,0x94,0x3f,0x45,
0x82,0x18,0x84,0x3f,0x40,0x00,0x84,0x3c,0x40,0x00,0x84,0x44,0x40,0x00,0x84,0x48,
0x40,0x08,0x94,0x3f,0x40,0x00,0x94,0x3c,0x21,0x00,0x94,0x48,0x3a,0x00,0x94,0x44,
0x37,0x82,0x1c,0x84,0x44,0x40,0x00,0x84,0x48,0x40,0x00,0x84,0x3c,0x40,0x00,0x84,
0x3f,0x40,0x04,0x94,0x3d,0x40,0x00,0x94,0x41,0x4a,0x00,0x94,0x46,0x45,0x82,0x1c,
0x84,0x3d,0x40,0x04,0x94,0x3c,0x30,0x60,0x84,0x3c,0x40,0x00,0x94,0x3a,0x37,0x81,
0x3c,0x84,0x46,0x40,0x00,0x84,0x41,0x40,0x04,0x84,0x3a,0x40,0x04,0x94,0x38,0x40,
0x74,0x84,0x38,0x40,0x04,0x94,0x3a,0x33,0x70,0x84,0x3a,0x40,0x00,0x94,0x3c,0x33,
0x50,0x84,0x3c,0x40,0x00,0x94,0x3a,0x37,0x60,0x84,0x3a,0x40,0x00,0x94,0x3d,0x40,
0x82,0x5c,0x84,0x3d,0x40,0x04,0x94,0x3f,0x37,0x81,0x48,0x84,0x3f,0x40,0x04,0x94,
0x3c,0x40,0x81,0x38,0x84,0x3c,0x40,0x00,0x94,0x3a,0x33,0x81,0x40,0x84,0x3a,0x40,
0x00,0x94,0x38,0x37,0x82,0x78,0x84,0x38,0x40,0x08,0x94,0x3f,0x33,0x00,0x94,0x48,
0x40,0x00,0x94,0x38,0x37,0x00,0x94,0x3c,0x3a,0x81,0x3c,0x84,0x3c,0x40,0x00,0x84,
0x48,0x40,0x00,0x84,0x3f,0x40,0x04,0x84,0x38,0x40,0x00,0x94,0x3f,0x40,0x00,0x94,
0x3c,0x45,0x00,0x94,0x48,0x45,0x82,0x7c,0x84,0x48,0x40,0x00,0x84,0x3c,0x40,0x00,
0x84,0x3f,0x40,0x04,0x94,0x44,0x45,0x00,0x94,0x49,0x37,0x00,0x94,0x41,0x45,0x00,
0x94,0x3d,0x40,0x85,0x78,0x84,0x3d,0x40,0x00,0x84,0x41,0x40,0x00,0x84,0x49,0x40,
0x00,0x84,0x44,0x40,0x08,0x94,0x38,0x40,0x60,0x84,0x38,0x40,0x00,0x94,0x3a,0x37,
0x60,0x84,0x3a,0x40,0x00,0x94,0x3d,0x37,0x60,0x84,0x3d,0x40,0x00,0x94,0x3a,0x37,
0x60,0x84,0x3a,0x40,0x00,0x94,0x49,0x40,0x00,0x94,0x44,0x40,0x00,0x94,0x3d,0x30,
0x00,0x94,0x41,0x50,0x82,0x18,0x84,0x41,0x40,0x00,0x84,0x3d,0x40,0x00,0x84,0x44,
0x40,0x00,0x84,0x49,0x40,0x08,0x94,0x3d,0x30,0x00,0x94,0x44,0x40,0x00,0x94,0x49,
0x40,0x00,0x94,0x41,0x50,0x82,0x18,0x84,0x44,0x40,0x04,0x84,0x41,0x40,0x00,0x84,
0x49,0x40,0x00,0x84,0x3d,0x40,0x04,0x94,0x44,0x45,0x00,0x94,0x3c,0x3a,0x00,0x94,
0x3f,0x45,0x00,0x94,0x48,0x45,0x84,0x3c,0x84,0x48,0x40,0x00,0x84,0x3f,0x40,0x00,
0x84,0x3c,0x40,0x00,0x84,0x44,0x40,0x04,0x94,0x38,0x40,0x60,0x84,0x38,0x40,0x00,
0x94,0x3a,0x37,0x60,0x84,0x3a,0x40,0x00,0x94,0x3c,0x33,0x60,0x84,0x3c,0x40,0x00,
0x94,0x3a,0x40,0x60,0x84,0x3a,0x40,0x00,0x94,0x3c,0x37,0x00,0x94,0x3f,0x45,0x00,
0x94,0x44,0x45,0x00,0x94,0x48,0x45,0x82,0x78,0x84,0x48,0x40,0x00,0x84,0x3f,0x40,
0x00,0x84,0x3c,0x40,0x04,0x84,0x44,0x40,0x04,0x94,0x3c,0x3a,0x00,0x94,0x48,0x40,
0x00,0x94,0x3f,0x40,0x81,0x40,0x84,0x3f,0x40,0x00,0x84,0x48,0x40,0x00,0x84,0x3c,
0x40,0x00,0x94,0x41,0x40,0x00,0x94,0x49,0x40,0x00,0x94,0x3d,0x40,0x81,0x40,0x84,
0x3d,0x40,0x00,0x84,0x49,0x40,0x00,0x84,0x41,0x40,0x00,0x94,0x3c,0x1a,0x00,0x94,
0x48,0x33,0x00,0x94,0x3f,0x33,0x60,0x84,0x3f,0x40,0x00,0x84,0x48,0x40,0x00,0x84,
0x3c,0x40,0x00,0x94,0x3a,0x40,0x00,0x94,0x3d,0x33,0x00,0x94,0x46,0x33,0x82,0x1c,
0x84,0x46,0x40,0x00,0x84,0x3d,0x40,0x00,0x84,0x3a,0x40,0x04,0x94,0x38,0x40,0x60,
0x84,0x38,0x40,0x00,0x94,0x3a,0x37,0x60,0x84,0x3a,0x40,0x00,0x94,0x3c,0x33,0x60,
0x84,0x3c,0x40,0x00,0x94,0x3a,0x40,0x7c,0x84,0x3a,0x40,0x00,0x94,0x3d,0x45,0x82,
0x7c,0x84,0x3d,0x40,0x04,0x94,0x3f,0x37,0x81,0x34,0x84,0x3f,0x40,0x00,0x94,0x3c,
0x3a,0x82,0x44,0x84,0x3c,0x40,0x04,0x94,0x3a,0x30,0x68,0x84,0x3a,0x40,0x00,0x94,
0x38,0x37,0x82,0x44,0x84,0x38,0x40,0x08,0x94,0x38,0x45,0x81,0x34,0x84,0x38,0x40,
0x00,0x94,0x48,0x45,0x00,0x94,0x3f,0x45,0x00,0x94,0x3c,0x37,0x82,0x7c,0x84,0x3c,
0x40,0x00,0x84,0x3f,0x40,0x00,0x84,0x48,0x40,0x04,0x94,0x41,0x45,0x00,0x94,0x49,
0x40,0x00,0x94,0x44,0x40,0x00,0x94,0x3d,0x40,0x88,0x74,0x84,0x3d,0x40,0x00,0x84,
0x44,0x40,0x00,0x84,0x49,0x40,0x00,0x84,0x41,0x40,0x81,0x48,0x94,0x3d,0x43,0x81,
0x48,0x84,0x3d,0x40,0x04,0x94,0x3d,0x4d,0x81,0x38,0x84,0x3d,0x40,0x00,0x94,0x3a,
0x43,0x81,0x3c,0x84,0x3a,0x40,0x00,0x94,0x3d,0x48,0x81,0x5c,0x84,0x3d,0x40,0x04,
0x94,0x3f,0x48,0x85,0x54,0x84,0x3f,0x40,0x08,0x94,0x3c,0x43,0x81,0x40,0x84,0x3c,
0x40,0x00,0x94,0x3a,0x43,0x81,0x48,0x84,0x3a,0x40,0x00,0x94,0x3c,0x3d,0x48,0x84,
0x3c,0x40,0x00,0x94,0x3a,0x2d,0x81,0x00,0x84,0x3a,0x40,0x00,0x94,0x38,0x3a,0x87,
0x30,0x84,0x38,0x40,0x08,0x94,0x3a,0x43,0x81,0x38,0x84,0x3a,0x40,0x04,0x94,0x3a,
0x36,0x81,0x40,0x84,0x3a,0x40,0x00,0x94,0x3c,0x3d,0x81,0x40,0x84,0x3c,0x40,0x00,
0x94,0x3d,0x43,0x81,0x44,0x84,0x3d,0x40,0x00,0x94,0x3a,0x3a,0x81,0x3c,0x84,0x3a,
0x40,0x00,0x94,0x38,0x48,0x84,0x4c,0x84,0x38,0x40,0x04,0x94,0x44,0x4d,0x81,0x38,
0x84,0x44,0x40,0x04,0x94,0x44,0x4d,0x81,0x48,0x84,0x44,0x40,0x04,0x94,0x3f,0x48,
0x82,0x6c,0x84,0x3f,0x40,0x04,0x94,0x41,0x48,0x81,0x3c,0x84,0x41,0x40,0x00,0x94,
0x3f,0x43,0x81,0x34,0x84,0x3f,0x40,0x00,0x94,0x3d,0x43,0x82,0x74,0x84,0x3d,0x40,
0x08,0x94,0x3d,0x43,0x81,0x38,0x84,0x3d,0x40,0x04,0x94,0x3d,0x43,0x81,0x44,0x84,
0x3d,0x40,0x00,0x94,0x3a,0x43,0x81,0x44,0x84,0x3a,0x40,0x00,0x94,0x3d,0x43,0x81,
0x48,0x84,0x3d,0x40,0x00,0x94,0x3a,0x36,0x81,0x34,0x84,0x3a,0x40,0x00,0x94,0x3d,
0x48,0x81,0x50,0x84,0x3d,0x40,0x04,0x94,0x3f,0x43,0x82,0x7c,0x84,0x3f,0x40,0x04,
0x94,0x3c,0x43,0x81,0x40,0x84,0x3c,0x40,0x00,0x94,0x3a,0x3a,0x81,0x48,0x84,0x3a,
0x40,0x00,0x94,0x3c,0x3a,0x58,0x84,0x3c,0x40,0x00,0x94,0x3a,0x36,0x74,0x84,0x3a,
0x40,0x00,0x94,0x38,0x3a,0x87,0x28,0x84,0x38,0x40,0x08,0x94,0x3a,0x48,0x81,0x3c,
0x84,0x3a,0x40,0x04,0x94,0x3a,0x48,0x81,0x3c,0x84,0x3a,0x40,0x00,0x94,0x3c,0x43,
0x81,0x44,0x84,0x3c,0x40,0x00,0x94,0x3d,0x3a,0x81,0x38,0x84,0x3d,0x40,0x00,0x94,
0x3a,0x43,0x81,0x3c,0x84,0x3a,0x40,0x00,0x94,0x38,0x48,0x84,0x50,0x84,0x38,0x40,
0x04,0x94,0x3f,0x48,0x81,0x48,0x84,0x3f,0x40,0x00,0x94,0x41,0x48,0x81,0x48,0x84,
0x41,0x40,0x04,0x94,0x41,0x53,0x82,0x60,0x84,0x41,0x40,0x04,0x94,0x3f,0x43,0x84,
0x48,0x84,0x3f,0x40,0x04,0x94,0x3d,0x3a,0x87,0x18,0x84,0x3d,0x40,0x08,0x94,0x3f,
0x36,0x81,0x48,0x84,0x3f,0x40,0x04,0x94,0x41,0x4d,0x81,0x3c,0x84,0x41,0x40,0x00,
0x94,0x3f,0x48,0x82,0x6c,0x84,0x3f,0x40,0x08,0x94,0x3f,0x43,0x81,0x44,0x84,0x3f,
0x40,0x04,0x94,0x3f,0x48,0x81,0x48,0x84,0x3f,0x40,0x04,0x94,0x41,0x43,0x81,0x30,
0x84,0x41,0x40,0x00,0x94,0x3f,0x43,0x81,0x3c,0x84,0x3f,0x40,0x00,0x94,0x38,0x36,
0x81,0x4c,0x84,0x38,0x40,0x08,0x94,0x38,0x4d,0x87,0x2c,0x84,0x38,0x40,0x0c,0x94,
0x38,0x43,0x81,0x44,0x84,0x38,0x40,0x00,0x94,0x3a,0x48,0x81,0x30,0x84,0x3a,0x40,
0x00,0x94,0x3c,0x3d,0x81,0x50,0x84,0x3c,0x40,0x04,0x94,0x3d,0x43,0x81,0x38,0x84,
0x3d,0x40,0x00,0x94,0x3a,0x4d,0x83,0x08,0x84,0x3a,0x40,0x04,0x94,0x3f,0x43,0x81,
0x48,0x84,0x3f,0x40,0x00,0x94,0x41,0x48,0x81,0x34,0x84,0x41,0x40,0x00,0x94,0x3f,
0x43,0x84,0x38,0x84,0x3f,0x40,0x04,0x94,0x38,0x43,0x60,0x84,0x38,0x40,0x00,0x94,
0x3a,0x43,0x54,0x84,0x3a,0x40,0x00,0x94,0x3d,0x3a,0x50,0x84,0x3d,0x40,0x00,0x94,
0x3a,0x3a,0x7c,0x84,0x3a,0x40,0x00,0x94,0x49,0x40,0x00,0x94,0x44,0x40,0x00,0x94,
0x41,0x53,0x00,0x94,0x3d,0x30,0x82,0x18,0x84,0x3d,0x40,0x00,0x84,0x41,0x40,0x00,
0x84,0x44,0x40,0x00,0x84,0x49,0x40,0x08,0x94,0x3d,0x28,0x00,0x94,0x49,0x45,0x00,
0x94,0x41,0x50,0x00,0x94,0x44,0x40,0x82,0x18,0x84,0x44,0x40,0x04,0x84,0x41,0x40,
0x00,0x84,0x49,0x40,0x00,0x84,0x3d,0x40,0x04,0x94,0x48,0x45,0x00,0x94,0x44,0x40,
0x00,0x94,0x3f,0x45,0x00,0x94,0x3c,0x30,0x84,0x3c,0x84,0x3c,0x40,0x00,0x84,0x3f,
0x40,0x00,0x84,0x44,0x40,0x00,0x84,0x48,0x40,0x04,0x94,0x38,0x40,0x60,0x84,0x38,
0x40,0x00,0x94,0x3a,0x37,0x60,0x84,0x3a,0x40,0x00,0x94,0x3c,0x3a,0x60,0x84,0x3c,
0x40,0x00,0x94,0x3a,0x37,0x60,0x84,0x3a,0x40,0x00,0x94,0x48,0x40,0x00,0x94,0x44,
0x40,0x00,0x94,0x3c,0x2a,0x00,0x94,0x3f,0x45,0x82,0x18,0x84,0x3f,0x40,0x00,0x84,
0x3c,0x40,0x00,0x84,0x44,0x40,0x00,0x84,0x48,0x40,0x08,0x94,0x3f,0x40,0x00,0x94,
0x3c,0x21,0x00,0x94,0x48,0x3a,0x00,0x94,0x44,0x37,0x82,0x1c,0x84,0x44,0x40,0x00,
0x84,0x48,0x40,0x00,0x84,0x3c,0x40,0x00,0x84,0x3f,0x40,0x04,0x94,0x41,0x4a,0x00,
0x94,0x46,0x45,0x00,0x94,0x3d,0x40,0x82,0x1c,0x84,0x3d,0x40,0x04,0x94,0x3c,0x30,
0x60,0x84,0x3c,0x40,0x00,0x94,0x3a,0x37,0x81,0x3c,0x84,0x46,0x40,0x00,0x84,0x41,
0x40,0x04,0x84,0x3a,0x40,0x04,0x94,0x38,0x40,0x74,0x84,0x38,0x40,0x04,0x94,0x3a,
0x33,0x70,0x84,0x3a,0x40,0x00,0x94,0x3c,0x33,0x50,0x84,0x3c,0x40,0x00,0x94,0x3a,
0x37,0x60,0x84,0x3a,0x40,0x00,0x94,0x3d,0x40,0x82,0x5c,0x84,0x3d,0x40,0x04,0x94,
0x3f,0x37,0x81,0x48,0x84,0x3f,0x40,0x04,0x94,0x3c,0x40,0x81,0x38,0x84,0x3c,0x40,
0x00,0x94,0x3a,0x33,0x81,0x40,0x84,0x3a,0x40,0x00,0x94,0x38,0x37,0x82,0x78,0x84,
0x38,0x40,0x08,0x94,0x3f,0x33,0x00,0x94,0x48,0x40,0x00,0x94,0x38,0x37,0x00,0x94,
0x3c,0x3a,0x81,0x3c,0x84,0x3c,0x40,0x00,0x84,0x48,0x40,0x00,0x84,0x3f,0x40,0x04,
0x84,0x38,0x40,0x00,0x94,0x3f,0x40,0x00,0x94,0x3c,0x45,0x00,0x94,0x48,0x45,0x82,
0x7c,0x84,0x48,0x40,0x00,0x84,0x3c,0x40,0x00,0x84,0x3f,0x40,0x04,0x94,0x44,0x45,
0x00,0x94,0x49,0x37,0x00,0x94,0x41,0x45,0x00,0x94,0x3d,0x40,0x85,0x78,0x84,0x3d,
0x40,0x00,0x84,0x41,0x40,0x00,0x84,0x49,0x40,0x00,0x84,0x44,0x40,0x08,0x94,0x38,
0x40,0x60,0x84,0x38,0x40,0x00,0x94,0x3a,0x37,0x60,0x84,0x3a,0x40,0x00,0x94,0x3d,
0x37,0x60,0x84,0x3d,0x40,0x00,0x94,0x3a,0x37,0x60,0x84,0x3a,0x40,0x00,0x94,0x49,
0x40,0x00,0x94,0x44,0x40,0x00,0x94,0x3d,0x30,0x00,0x94,0x41,0x50,0x82,0x18,0x84,
0x41,0x40,0x00,0x84,0x3d,0x40,0x00,0x84,0x44,0x40,0x00,0x84,0x49,0x40,0x08,0x94,
0x3d,0x30,0x00,0x94,0x44,0x40,0x00,0x94,0x49,0x40,0x00,0x94,0x41,0x50,0x82,0x18,
0x84,0x44,0x40,0x04,0x84,0x41,0x40,0x00,0x84,0x49,0x40,0x00,0x84,0x3d,0x40,0x04,
0x94,0x44,0x45,0x00,0x94,0x3c,0x3a,0x00,0x94,0x3f,0x45,0x00,0x94,0x48,0x45,0x84,
0x3c,0x84,0x48,0x40,0x00,0x84,0x3f,0x40,0x00,0x84,0x3c,0x40,0x00,0x84,0x44,0x40,
0x04,0x94,0x38,0x40,0x60,0x84,0x38,0x40,0x00,0x94,0x3a,0x37,0x60,0x84,0x3a,0x40,
0x00,0x94,0x3c,0x33,0x60,0x84,0x3c,0x40,0x00,0x94,0x3a,0x40,0x60,0x84,0x3a,0x40,
0x00,0x94,0x3c,0x37,0x00,0x94,0x3f,0x45,0x00,0x94,0x44,0x45,0x00,0x94,0x48,0x45,
0x82,0x78,0x84,0x48,0x40,0x00,0x84,0x3f,0x40,0x00,0x84,0x3c,0x40,0x04,0x84,0x44,
0x40,0x04,0x94,0x3c,0x3a,0x00,0x94,0x48,0x40,0x00,0x94,0x3f,0x40,0x81,0x40,0x84,
0x3f,0x40,0x00,0x84,0x48,0x40,0x00,0x84,0x3c,0x40,0x00,0x94,0x41,0x40,0x00,0x94,
0x49,0x40,0x00,0x94,0x3d,0x40,0x81,0x40,0x84,0x3d,0x40,0x00,0x84,0x49,0x40,0x00,
0x84,0x41,0x40,0x00,0x94,0x3c,0x1a,0x00,0x94,0x48,0x33,0x00,0x94,0x3f,0x33,0x60,
0x84,0x3f,0x40,0x00,0x84,0x48,0x40,0x00,0x84,0x3c,0x40,0x00,0x94,0x3a,0x40,0x00,
0x94,0x3d,0x33,0x00,0x94,0x46,0x33,0x82,0x1c,0x84,0x46,0x40,0x00,0x84,0x3d,0x40,
0x00,0x84,0x3a,0x40,0x04,0x94,0x38,0x40,0x60,0x84,0x38,0x40,0x00,0x94,0x3a,0x37,
0x60,0x84,0x3a,0x40,0x00,0x94,0x3c,0x33,0x60,0x84,0x3c,0x40,0x00,0x94,0x3a,0x40,
0x7c,0x84,0x3a,0x40,0x00,0x94,0x3d,0x45,0x82,0x7c,0x84,0x3d,0x40,0x04,0x94,0x3f,
0x37,0x81,0x34,0x84,0x3f,0x40,0x00,0x94,0x3c,0x3a,0x82,0x44,0x84,0x3c,0x40,0x04,
0x94,0x3a,0x30,0x68,0x84,0x3a,0x40,0x00,0x94,0x38,0x37,0x82,0x44,0x84,0x38,0x40,
0x08,0x94,0x38,0x45,0x81,0x34,0x84,0x38,0x40,0x00,0x94,0x48,0x45,0x00,0x94,0x3f,
0x45,0x00,0x94,0x3c,0x37,0x82,0x7c,0x84,0x3c,0x40,0x00,0x84,0x3f,0x40,0x00,0x84,
0x48,0x40,0x04,0x94,0x41,0x45,0x00,0x94,0x49,0x40,0x00,0x94,0x44,0x40,0x00,0x94,
0x3d,0x40,0x85,0x78,0x84,0x3d,0x40,0x00,0x84,0x44,0x40,0x00,0x84,0x49,0x40,0x00,
0x84,0x41,0x40,0x08,0x94,0x38,0x40,0x60,0x84,0x38,0x40,0x00,0x94,0x3a,0x40,0x60,
0x84,0x3a,0x40,0x00,0x94,0x3d,0x37,0x60,0x84,0x3d,0x40,0x00,0x94,0x3a,0x37,0x60,
0x84,0x3a,0x40,0x00,0x94,0x49,0x40,0x00,0x94,0x44,0x40,0x00,0x94,0x41,0x50,0x00,
0x94,0x3d,0x30,0x82,0x18,0x84,0x3d,0x40,0x00,0x84,0x41,0x40,0x00,0x84,0x44,0x40,
0x00,0x84,0x49,0x40,0x08,0x94,0x3d,0x28,0x00,0x94,0x41,0x50,0x00,0x94,0x44,0x40,
0x00,0x94,0x49,0x45,0x82,0x18,0x84,0x44,0x40,0x04,0x84,0x49,0x40,0x00,0x84,0x41,
0x40,0x00,0x84,0x3d,0x40,0x04,0x94,0x48,0x45,0x00,0x94,0x44,0x40,0x00,0x94,0x3f,
0x45,0x00,0x94,0x3c,0x30,0x84,0x3c,0x84,0x3c,0x40,0x00,0x84,0x3f,0x40,0x00,0x84,
0x44,0x40,0x00,0x84,0x48,0x40,0x04,0x94,0x38,0x40,0x60,0x84,0x38,0x40,0x00,0x94,
0x3a,0x37,0x60,0x84,0x3a,0x40,0x00,0x94,0x3c,0x3a,0x60,0x84,0x3c,0x40,0x00,0x94,
0x3a,0x37,0x60,0x84,0x3a,0x40,0x00,0x94,0x3c,0x2a,0x00,0x94,0x48,0x40,0x00,0x94,
0x44,0x40,0x00,0x94,0x3f,0x45,0x82,0x18,0x84,0x3f,0x40,0x00,0x84,0x44,0x40,0x00,
0x84,0x48,0x40,0x00,0x84,0x3c,0x40,0x08,0x94,0x3f,0x40,0x00,0x94,0x3c,0x21,0x00,
0x94,0x48,0x3a,0x00,0x94,0x44,0x37,0x82,0x1c,0x84,0x44,0x40,0x00,0x84,0x48,0x40,
0x00,0x84,0x3c,0x40,0x00,0x84,0x3f,0x40,0x04,0x94,0x41,0x4a,0x00,0x94,0x46,0x45,
0x00,0x94,0x3d,0x40,0x82,0x1c,0x84,0x3d,0x40,0x04,0x94,0x3c,0x30,0x60,0x84,0x3c,
0x40,0x00,0x94,0x3a,0x37,0x81,0x3c,0x84,0x46,0x40,0x00,0x84,0x41,0x40,0x04,0x84,
0x3a,0x40,0x0c,0x94,0x38,0x40,0x70,0x84,0x38,0x40,0x00,0x94,0x3a,0x33,0x70,0x84,
0x3a,0x40,0x00,0x94,0x3c,0x33,0x50,0x84,0x3c,0x40,0x00,0x94,0x3a,0x37,0x60,0x84,
0x3a,0x40,0x00,0x94,0x3d,0x40,0x82,0x5c,0x84,0x3d,0x40,0x04,0x94,0x3f,0x37,0x81,
0x48,0x84,0x3f,0x40,0x04,0x94,0x3c,0x40,0x81,0x38,0x84,0x3c,0x40,0x00,0x94,0x3a,
0x33,0x81,0x40,0x84,0x3a,0x40,0x00,0x94,0x38,0x37,0x82,0x78,0x84,0x38,0x40,0x08,
0x94,0x3f,0x33,0x00,0x94,0x38,0x37,0x00,0x94,0x48,0x40,0x00,0x94,0x3c,0x3a,0x81,
0x3c,0x84,0x3c,0x40,0x00,0x84,0x48,0x40,0x00,0x84,0x3f,0x40,0x04,0x84,0x38,0x40,
0x00,0x94,0x48,0x45,0x00,0x94,0x3f,0x40,0x00,0x94,0x3c,0x45,0x82,0x7c,0x84,0x3c,
0x40,0x00,0x84,0x3f,0x40,0x00,0x84,0x48,0x40,0x04,0x94,0x49,0x37,0x00,0x94,0x44,
0x45,0x00,0x94,0x41,0x45,0x00,0x94,0x3d,0x40,0x85,0x78,0x84,0x3d,0x40,0x00,0x84,
0x41,0x40,0x00,0x84,0x44,0x40,0x00,0x84,0x49,0x40,0x08,0x94,0x38,0x40,0x60,0x84,
0x38,0x40,0x00,0x94,0x3a,0x37,0x60,0x84,0x3a,0x40,0x00,0x94,0x3d,0x37,0x60,0x84,
0x3d,0x40,0x00,0x94,0x3a,0x37,0x60,0x84,0x3a,0x40,0x00,0x94,0x49,0x40,0x00,0x94,
0x3d,0x30,0x00,0x94,0x44,0x40,0x00,0x94,0x41,0x50,0x82,0x18,0x84,0x41,0x40,0x00,
0x84,0x44,0x40,0x00,0x84,0x3d,0x40,0x00,0x84,0x49,0x40,0x08,0x94,0x44,0x40,0x00,
0x94,0x3d,0x30,0x00,0x94,0x49,0x40,0x00,0x94,0x41,0x50,0x82,0x18,0x84,0x44,0x40,
0x04,0x84,0x41,0x40,0x00,0x84,0x49,0x40,0x00,0x84,0x3d,0x40,0x04,0x94,0x44,0x45,
0x00,0x94,0x3c,0x3a,0x00,0x94,0x3f,0x45,0x00,0x94,0x48,0x45,0x84,0x3c,0x84,0x48,
0x40,0x00,0x84,0x3f,0x40,0x00,0x84,0x3c,0x40,0x00,0x84,0x44,0x40,0x04,0x94,0x38,
0x40,0x60,0x84,0x38,0x40,0x00,0x94,0x3a,0x37,0x60,0x84,0x3a,0x40,0x00,0x94,0x3c,
0x33,0x60,0x84,0x3c,0x40,0x00,0x94,0x3a,0x40,0x60,0x84,0x3a,0x40,0x00,0x94,0x3c,
0x37,0x00,0x94,0x3f,0x45,0x00,0x94,0x44,0x45,0x00,0x94,0x48,0x45,0x82,0x78,0x84,
0x48,0x40,0x00,0x84,0x3f,0x40,0x00,0x84,0x3c,0x40,0x04,0x84,0x44,0x40,0x04,0x94,
0x3c,0x3a,0x00,0x94,0x48,0x40,0x00,0x94,0x3f,0x40,0x81,0x40,0x84,0x3f,0x40,0x00,
0x84,0x48,0x40,0x00,0x84,0x3c,0x40,0x00,0x94,0x41,0x40,0x00,0x94,0x49,0x40,0x00,
0x94,0x3d,0x40,0x81,0x40,0x84,0x3d,0x40,0x00,0x84,0x49,0x40,0x00,0x84,0x41,0x40,
0x00,0x94,0x3c,0x1a,0x00,0x94,0x48,0x33,0x00,0x94,0x3f,0x33,0x60,0x84,0x3f,0x40,
0x00,0x84,0x48,0x40,0x00,0x84,0x3c,0x40,0x00,0x94,0x3a,0x40,0x00,0x94,0x3d,0x33,
0x00,0x94,0x46,0x33,0x82,0x1c,0x84,0x46,0x40,0x00,0x84,0x3d,0x40,0x00,0x84,0x3a,
0x40,0x04,0x94,0x38,0x40,0x44,0x94,0x3a,0x37,0x1c,0x84,0x38,0x40,0x54,0x84,0x3a,
0x40,0x00,0x94,0x3c,0x33,0x64,0x84,0x3c,0x40,0x00,0x94,0x3a,0x40,0x81,0x04,0x84,
0x3a,0x40,0x00,0x94,0x3d,0x45,0x82,0x7c,0x84,0x3d,0x40,0x04,0x94,0x3f,0x37,0x81,
0x34,0x84,0x3f,0x40,0x00,0x94,0x3c,0x3a,0x82,0x44,0x84,0x3c,0x40,0x04,0x94,0x3a,
0x30,0x68,0x84,0x3a,0x40,0x00,0x94,0x38,0x37,0x82,0x44,0x84,0x38,0x40,0x08,0x94,
0x38,0x45,0x81,0x30,0x84,0x38,0x40,0x04,0x94,0x3c,0x37,0x00,0x94,0x3f,0x45,0x00,
0x94,0x48,0x45,0x82,0x7c,0x84,0x48,0x40,0x00,0x84,0x3f,0x40,0x00,0x84,0x3c,0x40,
0x04,0x94,0x41,0x45,0x00,0x94,0x49,0x40,0x00,0x94,0x44,0x40,0x00,0x94,0x3d,0x40,
0x88,0x74,0x84,0x3d,0x40,0x00,0x84,0x44,0x40,0x00,0x84,0x49,0x40,0x00,0x84,0x41,
0x40,0x8c,0x0c,0x94,0x49,0x40,0x00,0x94,0x44,0x2b,0x00,0x94,0x46,0x36,0x00,0x94,
0x41,0x2b,0x82,0x18,0x84,0x41,0x40,0x00,0x84,0x46,0x40,0x00,0x84,0x44,0x40,0x00,
0x84,0x49,0x40,0x08,0x94,0x46,0x31,0x00,0x94,0x49,0x40,0x00,0x94,0x41,0x2c,0x00,
0x94,0x44,0x2b,0x82,0x18,0x84,0x44,0x40,0x04,0x84,0x41,0x40,0x00,0x84,0x49,0x40,
0x00,0x84,0x46,0x40,0x04,0x94,0x44,0x31,0x00,0x94,0x48,0x37,0x00,0x94,0x3f,0x2c,
0x84,0x18,0x84,0x3f,0x40,0x00,0x84,0x48,0x40,0x00,0x84,0x44,0x40,0x8f,0x28,0x94,
0x49,0x40,0x00,0x94,0x44,0x2b,0x00,0x94,0x46,0x36,0x00,0x94,0x41,0x2b,0x82,0x18,
0x84,0x41,0x40,0x00,0x84,0x46,0x40,0x00,0x84,0x44,0x40,0x00,0x84,0x49,0x40,0x08,
0x94,0x46,0x31,0x00,0x94,0x49,0x40,0x00,0x94,0x41,0x2c,0x00,0x94,0x44,0x2b,0x82,
0x18,0x84,0x44,0x40,0x04,0x84,0x41,0x40,0x00,0x84,0x49,0x40,0x00,0x84,0x46,0x40,
0x04,0x94,0x44,0x31,0x00,0x94,0x48,0x37,0x00,0x94,0x3f,0x2c,0x84,0x18,0x84,0x3f,
0x40,0x00,0x84,0x48,0x40,0x00,0x84,0x44,0x40,0x84,0x78,0x94,0x38,0x40,0x48,0x84,
0x38,0x40,0x00,0x94,0x3a,0x37,0x64,0x84,0x3a,0x40,0x00,0x94,0x3d,0x33,0x5c,0x84,
0x3d,0x40,0x00,0x94,0x3a,0x40,0x74,0x84,0x3a,0x40,0x00,0x94,0x41,0x4a,0x81,0x38,
0x84,0x41,0x40,0x00,0x94,0x38,0x37,0x60,0x84,0x38,0x40,0x00,0x94,0x3a,0x37,0x60,
0x84,0x3a,0x40,0x00,0x94,0x3d,0x40,0x54,0x84,0x3d,0x40,0x00,0x94,0x3a,0x45,0x5c,
0x84,0x3a,0x40,0x00,0x94,0x41,0x50,0x83,0x04,0x84,0x41,0x40,0x08,0x94,0x49,0x40,
0x00,0x94,0x44,0x2b,0x00,0x94,0x46,0x36,0x00,0x94,0x41,0x2b,0x82,0x18,0x84,0x41,
0x40,0x00,0x84,0x46,0x40,0x00,0x84,0x44,0x40,0x00,0x84,0x49,0x40,0x08,0x94,0x44,
0x2b,0x00,0x94,0x49,0x40,0x00,0x94,0x41,0x2c,0x00,0x94,0x46,0x31,0x82,0x18,0x84,
0x44,0x40,0x04,0x84,0x46,0x40,0x00,0x84,0x41,0x40,0x00,0x84,0x49,0x40,0x04,0x94,
0x44,0x31,0x00,0x94,0x48,0x37,0x00,0x94,0x3f,0x2c,0x84,0x18,0x84,0x3f,0x40,0x00,
0x84,0x48,0x40,0x00,0x84,0x44,0x40,0x84,0x78,0x94,0x38,0x40,0x48,0x84,0x38,0x40,
0x00,0x94,0x3a,0x37,0x64,0x84,0x3a,0x40,0x00,0x94,0x3d,0x33,0x5c,0x84,0x3d,0x40,
0x00,0x94,0x3a,0x40,0x74,0x84,0x3a,0x40,0x00,0x94,0x41,0x4a,0x81,0x38,0x84,0x41,
0x40,0x00,0x94,0x38,0x37,0x60,0x84,0x38,0x40,0x00,0x94,0x3a,0x37,0x60,0x84,0x3a,
0x40,0x00,0x94,0x3d,0x40,0x54,0x84,0x3d,0x40,0x00,0x94,0x3a,0x45,0x5c,0x84,0x3a,
0x40,0x00,0x94,0x41,0x50,0x83,0x04,0x84,0x41,0x40,0x08,0x94,0x41,0x2b,0x00,0x94,
0x49,0x40,0x00,0x94,0x44,0x2b,0x00,0x94,0x46,0x36,0x82,0x18,0x84,0x46,0x40,0x00,
0x84,0x44,0x40,0x00,0x84,0x49,0x40,0x00,0x84,0x41,0x40,0x08,0x94,0x46,0x31,0x00,
0x94,0x49,0x40,0x00,0x94,0x41,0x2c,0x00,0x94,0x44,0x2b,0x82,0x18,0x84,0x44,0x40,
0x04,0x84,0x41,0x40,0x00,0x84,0x49,0x40,0x00,0x84,0x46,0x40,0x04,0x94,0x44,0x31,
0x00,0x94,0x48,0x37,0x00,0x94,0x3f,0x2c,0x87,0x38,0x84,0x3f,0x40,0x00,0x84,0x48,
0x40,0x00,0x84,0x44,0x40,0x81,0x3c,0x94,0x3d,0x3a,0x81,0x3c,0x84,0x3d,0x40,0x04,
0x94,0x3d,0x43,0x81,0x3c,0x84,0x3d,0x40,0x00,0x94,0x3a,0x43,0x81,0x48,0x84,0x3a,
0x40,0x00,0x94,0x3d,0x43,0x81,0x3c,0x84,0x3d,0x40,0x00,0x94,0x3f,0x43,0x85,0x78,
0x84,0x3f,0x40,0x08,0x94,0x3c,0x3d,0x81,0x40,0x84,0x3c,0x40,0x00,0x94,0x3a,0x3a,
0x81,0x48,0x84,0x3a,0x40,0x04,0x94,0x3c,0x36,0x60,0x84,0x3c,0x40,0x00,0x94,0x3a,
0x33,0x68,0x84,0x3a,0x40,0x00,0x94,0x38,0x36,0x87,0x14,0x84,0x38,0x40,0x08,0x94,
0x3a,0x43,0x81,0x48,0x84,0x3a,0x40,0x04,0x94,0x3a,0x48,0x81,0x44,0x84,0x3a,0x40,
0x00,0x94,0x3c,0x3d,0x81,0x48,0x84,0x3c,0x40,0x00,0x94,0x3d,0x3a,0x81,0x38,0x84,
0x3d,0x40,0x00,0x94,0x3a,0x43,0x81,0x48,0x84,0x3a,0x40,0x00,0x94,0x38,0x43,0x84,
0x38,0x84,0x38,0x40,0x04,0x94,0x44,0x48,0x81,0x48,0x84,0x44,0x40,0x08,0x94,0x44,
0x48,0x81,0x48,0x84,0x44,0x40,0x04,0x94,0x3f,0x43,0x82,0x70,0x84,0x3f,0x40,0x04,
0x94,0x41,0x4d,0x81,0x38,0x84,0x41,0x40,0x00,0x94,0x3f,0x3a,0x81,0x38,0x84,0x3f,
0x40,0x00,0x94,0x3d,0x3a,0x82,0x74,0x84,0x3d,0x40,0x08,0x94,0x3d,0x3a,0x81,0x3c,
0x84,0x3d,0x40,0x04,0x94,0x3d,0x3a,0x81,0x38,0x84,0x3d,0x40,0x00,0x94,0x3a,0x3a,
0x81,0x40,0x84,0x3a,0x40,0x00,0x94,0x3d,0x43,0x81,0x44,0x84,0x3d,0x40,0x00,0x94,
0x3a,0x43,0x81,0x48,0x84,0x3a,0x40,0x00,0x94,0x3d,0x43,0x81,0x50,0x84,0x3d,0x40,
0x04,0x94,0x3f,0x43,0x82,0x78,0x84,0x3f,0x40,0x04,0x94,0x3c,0x43,0x81,0x3c,0x84,
0x3c,0x40,0x00,0x94,0x3a,0x3a,0x81,0x3c,0x84,0x3a,0x40,0x00,0x94,0x3c,0x36,0x54,
0x84,0x3c,0x40,0x00,0x94,0x3a,0x36,0x5c,0x84,0x3a,0x40,0x00,0x94,0x38,0x3a,0x87,
0x3c,0x84,0x38,0x40,0x08,0x94,0x3a,0x43,0x81,0x34,0x84,0x3a,0x40,0x04,0x94,0x3a,
0x3a,0x81,0x48,0x84,0x3a,0x40,0x00,0x94,0x3c,0x3a,0x81,0x48,0x84,0x3c,0x40,0x00,
0x94,0x3d,0x3a,0x81,0x3c,0x84,0x3d,0x40,0x00,0x94,0x3a,0x43,0x81,0x44,0x84,0x3a,
0x40,0x00,0x94,0x38,0x48,0x84,0x48,0x84,0x38,0x40,0x04,0x94,0x3f,0x3a,0x81,0x50,
0x84,0x3f,0x40,0x04,0x94,0x41,0x48,0x81,0x3c,0x84,0x41,0x40,0x04,0x94,0x41,0x4d,
0x82,0x64,0x84,0x41,0x40,0x04,0x94,0x3f,0x48,0x84,0x3c,0x84,0x3f,0x40,0x04,0x94,
0x3d,0x43,0x87,0x2c,0x84,0x3d,0x40,0x08,0x94,0x3f,0x43,0x81,0x44,0x84,0x3f,0x40,
0x00,0x94,0x41,0x48,0x81,0x40,0x84,0x41,0x40,0x00,0x94,0x3d,0x3a,0x81,0x40,0x84,
0x3d,0x40,0x00,0x94,0x3f,0x3a,0x81,0x48,0x84,0x3f,0x40,0x04,0x94,0x3f,0x48,0x81,
0x28,0x84,0x3f,0x40,0x04,0x94,0x3f,0x48,0x81,0x44,0x84,0x3f,0x40,0x00,0x94,0x41,
0x43,0x81,0x38,0x84,0x41,0x40,0x00,0x94,0x3f,0x43,0x81,0x38,0x84,0x3f,0x40,0x00,
0x94,0x38,0x3a,0x81,0x50,0x84,0x38,0x40,0x08,0x94,0x38,0x4d,0x88,0x74,0x84,0x38,
0x40,0x0c,0x94,0x3a,0x48,0x81,0x38,0x84,0x3a,0x40,0x00,0x94,0x3c,0x3d,0x81,0x44,
0x84,0x3c,0x40,0x00,0x94,0x3d,0x43,0x81,0x40,0x84,0x3d,0x40,0x00,0x94,0x3a,0x4d,
0x83,0x0c,0x84,0x3a,0x40,0x04,0x94,0x3f,0x43,0x81,0x44,0x84,0x3f,0x40,0x00,0x94,
0x41,0x48,0x81,0x30,0x84,0x41,0x40,0x00,0x94,0x3f,0x43,0x84,0x3c,0x84,0x3f,0x40,
0x04,0x94,0x38,0x43,0x60,0x84,0x38,0x40,0x00,0x94,0x3a,0x43,0x54,0x84,0x3a,0x40,
0x00,0x94,0x3d,0x3a,0x50,0x84,0x3d,0x40,0x00,0x94,0x3a,0x3a,0x7c,0x84,0x3a,0x40,
0x00,0x94,0x49,0x40,0x00,0x94,0x44,0x40,0x00,0x94,0x41,0x53,0x00,0x94,0x3d,0x30,
0x82,0x18,0x84,0x3d,0x40,0x00,0x84,0x41,0x40,0x00,0x84,0x44,0x40,0x00,0x84,0x49,
0x40,0x08,0x94,0x3d,0x28,0x00,0x94,0x49,0x45,0x00,0x94,0x41,0x50,0x00,0x94,0x44,
0x40,0x82,0x18,0x84,0x44,0x40,0x04,0x84,0x41,0x40,0x00,0x84,0x49,0x40,0x00,0x84,
0x3d,0x40,0x04,0x94,0x48,0x45,0x00,0x94,0x44,0x40,0x00,0x94,0x3f,0x45,0x00,0x94,
0x3c,0x30,0x84,0x3c,0x84,0x3c,0x40,0x00,0x84,0x3f,0x40,0x00,0x84,0x44,0x40,0x00,
0x84,0x48,0x40,0x04,0x94,0x38,0x40,0x60,0x84,0x38,0x40,0x00,0x94,0x3a,0x37,0x60,
0x84,0x3a,0x40,0x00,0x94,0x3c,0x3a,0x60,0x84,0x3c,0x40,0x00,0x94,0x3a,0x37,0x60,
0x84,0x3a,0x40,0x00,0x94,0x48,0x40,0x00,0x94,0x44,0x40,0x00,0x94,0x3c,0x2a,0x00,
0x94,0x3f,0x45,0x82,0x18,0x84,0x3f,0x40,0x00,0x84,0x3c,0x40,0x00,0x84,0x44,0x40,
0x00,0x84,0x48,0x40,0x08,0x94,0x3f,0x40,0x00,0x94,0x3c,0x21,0x00,0x94,0x48,0x3a,
0x00,0x94,0x44,0x37,0x82,0x1c,0x84,0x44,0x40,0x00,0x84,0x48,0x40,0x00,0x84,0x3c,
0x40,0x00,0x84,0x3f,0x40,0x04,0x94,0x41,0x4a,0x00,0x94,0x46,0x45,0x00,0x94,0x3d,
0x40,0x82,0x1c,0x84,0x3d,0x40,0x04,0x94,0x3c,0x30,0x60,0x84,0x3c,0x40,0x00,0x94,
0x3a,0x37,0x81,0x3c,0x84,0x46,0x40,0x00,0x84,0x41,0x40,0x04,0x84,0x3a,0x40,0x04,
0x94,0x38,0x40,0x74,0x84,0x38,0x40,0x04,0x94,0x3a,0x33,0x70,0x84,0x3a,0x40,0x00,
0x94,0x3c,0x33,0x50,0x84,0x3c,0x40,0x00,0x94,0x3a,0x37,0x60,0x84,0x3a,0x40,0x00,
0x94,0x3d,0x40,0x82,0x5c,0x84,0x3d,0x40,0x04,0x94,0x3f,0x37,0x81,0x48,0x84,0x3f,
0x40,0x04,0x94,0x3c,0x40,0x81,0x38,0x84,0x3c,0x40,0x00,0x94,0x3a,0x33,0x81,0x40,
0x84,0x3a,0x40,0x00,0x94,0x38,0x37,0x82,0x78,0x84,0x38,0x40,0x08,0x94,0x3f,0x33,
0x00,0x94,0x48,0x40,0x00,0x94,0x38,0x37,0x00,0x94,0x3c,0x3a,0x81,0x3c,0x84,0x3c,
0x40,0x00,0x84,0x48,0x40,0x00,0x84,0x3f,0x40,0x04,0x84,0x38,0x40,0x00,0x94,0x3f,
0x40,0x00,0x94,0x3c,0x45,0x00,0x94,0x48,0x45,0x82,0x7c,0x84,0x48,0x40,0x00,0x84,
0x3c,0x40,0x00,0x84,0x3f,0x40,0x04,0x94,0x44,0x45,0x00,0x94,0x49,0x37,0x00,0x94,
0x41,0x45,0x00,0x94,0x3d,0x40,0x85,0x78,0x84,0x3d,0x40,0x00,0x84,0x41,0x40,0x00,
0x84,0x49,0x40,0x00,0x84,0x44,0x40,0x08,0x94,0x38,0x40,0x60,0x84,0x38,0x40,0x00,
0x94,0x3a,0x37,0x60,0x84,0x3a,0x40,0x00,0x94,0x3d,0x37,0x60,0x84,0x3d,0x40,0x00,
0x94,0x3a,0x37,0x60,0x84,0x3a,0x40,0x00,0x94,0x49,0x40,0x00,0x94,0x44,0x40,0x00,
0x94,0x3d,0x30,0x00,0x94,0x41,0x50,0x82,0x18,0x84,0x41,0x40,0x00,0x84,0x3d,0x40,
0x00,0x84,0x44,0x40,0x00,0x84,0x49,0x40,0x08,0x94,0x3d,0x30,0x00,0x94,0x44,0x40,
0x00,0x94,0x49,0x40,0x00,0x94,0x41,0x50,0x82,0x18,0x84,0x44,0x40,0x04,0x84,0x41,
0x40,0x00,0x84,0x49,0x40,0x00,0x84,0x3d,0x40,0x04,0x94,0x44,0x45,0x00,0x94,0x3c,
0x3a,0x00,0x94,0x3f,0x45,0x00,0x94,0x48,0x45,0x84,0x3c,0x84,0x48,0x40,0x00,0x84,
0x3f,0x40,0x00,0x84,0x3c,0x40,0x00,0x84,0x44,0x40,0x04,0x94,0x38,0x40,0x60,0x84,
0x38,0x40,0x00,0x94,0x3a,0x37,0x60,0x84,0x3a,0x40,0x00,0x94,0x3c,0x33,0x60,0x84,
0x3c,0x40,0x00,0x94,0x3a,0x40,0x60,0x84,0x3a,0x40,0x00,0x94,0x3c,0x37,0x00,0x94,
0x3f,0x45,0x00,0x94,0x44,0x45,0x00,0x94,0x48,0x45,0x82,0x78,0x84,0x48,0x40,0x00,
0x84,0x3f,0x40,0x00,0x84,0x3c,0x40,0x04,0x84,0x44,0x40,0x04,0x94,0x3c,0x3a,0x00,
0x94,0x48,0x40,0x00,0x94,0x3f,0x40,0x81,0x40,0x84,0x3f,0x40,0x00,0x84,0x48,0x40,
0x00,0x84,0x3c,0x40,0x00,0x94,0x41,0x40,0x00,0x94,0x49,0x40,0x00,0x94,0x3d,0x40,
0x81,0x40,0x84,0x3d,0x40,0x00,0x84,0x49,0x40,0x00,0x84,0x41,0x40,0x00,0x94,0x3c,
0x1a,0x00,0x94,0x48,0x33,0x00,0x94,0x3f,0x33,0x60,0x84,0x3f,0x40,0x00,0x84,0x48,
0x40,0x00,0x84,0x3c,0x40,0x00,0x94,0x3a,0x40,0x00,0x94,0x3d,0x33,0x00,0x94,0x46,
0x33,0x82,0x1c,0x84,0x46,0x40,0x00,0x84,0x3d,0x40,0x00,0x84,0x3a,0x40,0x04,0x94,
0x38,0x40,0x60,0x84,0x38,0x40,0x00,0x94,0x3a,0x37,0x60,0x84,0x3a,0x40,0x00,0x94,
0x3c,0x33,0x60,0x84,0x3c,0x40,0x00,0x94,0x3a,0x40,0x7c,0x84,0x3a,0x40,0x00,0x94,
0x3d,0x45,0x82,0x7c,0x84,0x3d,0x40,0x04,0x94,0x3f,0x37,0x81,0x34,0x84,0x3f,0x40,
0x00,0x94,0x3c,0x3a,0x82,0x44,0x84,0x3c,0x40,0x04,0x94,0x3a,0x30,0x68,0x84,0x3a,
0x40,0x00,0x94,0x38,0x37,0x82,0x44,0x84,0x38,0x40,0x08,0x94,0x38,0x45,0x81,0x34,
0x84,0x38,0x40,0x00,0x94,0x48,0x45,0x00,0x94,0x3f,0x45,0x00,0x94,0x3c,0x37,0x82,
0x7c,0x84,0x3c,0x40,0x00,0x84,0x3f,0x40,0x00,0x84,0x48,0x40,0x04,0x94,0x41,0x45,
0x00,0x94,0x49,0x40,0x00,0x94,0x44,0x40,0x00,0x94,0x3d,0x40,0x85,0x78,0x84,0x3d,
0x40,0x00,0x84,0x44,0x40,0x00,0x84,0x49,0x40,0x00,0x84,0x41,0x40,0x08,0x94,0x38,
0x40,0x60,0x84,0x38,0x40,0x00,0x94,0x3a,0x40,0x60,0x84,0x3a,0x40,0x00,0x94,0x3d,
0x37,0x60,0x84,0x3d,0x40,0x00,0x94,0x3a,0x37,0x60,0x84,0x3a,0x40,0x00,0x94,0x49,
0x40,0x00,0x94,0x44,0x40,0x00,0x94,0x41,0x53,0x00,0x94,0x3d,0x30,0x82,0x18,0x84,
0x3d,0x40,0x00,0x84,0x41,0x40,0x00,0x84,0x44,0x40,0x00,0x84,0x49,0x40,0x08,0x94,
0x3d,0x28,0x00,0x94,0x49,0x45,0x00,0x94,0x41,0x50,0x00,0x94,0x44,0x40,0x82,0x18,
0x84,0x44,0x40,0x04,0x84,0x41,0x40,0x00,0x84,0x49,0x40,0x00,0x84,0x3d,0x40,0x04,
0x94,0x48,0x45,0x00,0x94,0x44,0x40,0x00,0x94,0x3f,0x45,0x00,0x94,0x3c,0x30,0x84,
0x3c,0x84,0x3c,0x40,0x00,0x84,0x3f,0x40,0x00,0x84,0x44,0x40,0x00,0x84,0x48,0x40,
0x04,0x94,0x38,0x40,0x60,0x84,0x38,0x40,0x00,0x94,0x3a,0x37,0x60,0x84,0x3a,0x40,
0x00,0x94,0x3c,0x3a,0x60,0x84,0x3c,0x40,0x00,0x94,0x3a,0x37,0x60,0x84,0x3a,0x40,
0x00,0x94,0x48,0x40,0x00,0x94,0x44,0x40,0x00,0x94,0x3c,0x2a,0x00,0x94,0x3f,0x45,
0x82,0x18,0x84,0x3f,0x40,0x00,0x84,0x3c,0x40,0x00,0x84,0x44,0x40,0x00,0x84,0x48,
0x40,0x08,0x94,0x3f,0x40,0x00,0x94,0x3c,0x21,0x00,0x94,0x48,0x3a,0x00,0x94,0x44,
0x37,0x82,0x1c,0x84,0x44,0x40,0x00,0x84,0x48,0x40,0x00,0x84,0x3c,0x40,0x00,0x84,
0x3f,0x40,0x04,0x94,0x41,0x4a,0x00,0x94,0x46,0x45,0x00,0x94,0x3d,0x40,0x82,0x1c,
0x84,0x3d,0x40,0x04,0x94,0x3c,0x30,0x60,0x84,0x3c,0x40,0x00,0x94,0x3a,0x37,0x81,
0x3c,0x84,0x46,0x40,0x00,0x84,0x41,0x40,0x04,0x84,0x3a,0x40,0x04,0x94,0x38,0x40,
0x74,0x84,0x38,0x40,0x04,0x94,0x3a,0x33,0x70,0x84,0x3a,0x40,0x00,0x94,0x3c,0x33,
0x50,0x84,0x3c,0x40,0x00,0x94,0x3a,0x37,0x60,0x84,0x3a,0x40,0x00,0x94,0x3d,0x40,
0x82,0x5c,0x84,0x3d,0x40,0x04,0x94,0x3f,0x37,0x81,0x48,0x84,0x3f,0x40,0x04,0x94,
0x3c,0x40,0x81,0x38,0x84,0x3c,0x40,0x00,0x94,0x3a,0x33,0x81,0x40,0x84,0x3a,0x40,
0x00,0x94,0x38,0x37,0x82,0x78,0x84,0x38,0x40,0x08,0x94,0x3f,0x33,0x00,0x94,0x48,
0x40,0x00,0x94,0x38,0x37,0x00,0x94,0x3c,0x3a,0x81,0x3c,0x84,0x3c,0x40,0x00,0x84,
0x48,0x40,0x00,0x84,0x3f,0x40,0x04,0x84,0x38,0x40,0x00,0x94,0x3f,0x40,0x00,0x94,
0x3c,0x45,0x00,0x94,0x48,0x45,0x82,0x7c,0x84,0x48,0x40,0x00,0x84,0x3c,0x40,0x00,
0x84,0x3f,0x40,0x04,0x94,0x44,0x45,0x00,0x94,0x49,0x37,0x00,0x94,0x41,0x45,0x00,
0x94,0x3d,0x40,0x85,0x78,0x84,0x3d,0x40,0x00,0x84,0x41,0x40,0x00,0x84,0x49,0x40,
0x00,0x84,0x44,0x40,0x08,0x94,0x38,0x40,0x60,0x84,0x38,0x40,0x00,0x94,0x3a,0x37,
0x60,0x84,0x3a,0x40,0x00,0x94,0x3d,0x37,0x60,0x84,0x3d,0x40,0x00,0x94,0x3a,0x37,
0x60,0x84,0x3a,0x40,0x00,0x94,0x49,0x40,0x00,0x94,0x44,0x40,0x00,0x94,0x3d,0x30,
0x00,0x94,0x41,0x50,0x82,0x18,0x84,0x41,0x40,0x00,0x84,0x3d,0x40,0x00,0x84,0x44,
0x40,0x00,0x84,0x49,0x40,0x08,0x94,0x3d,0x30,0x00,0x94,0x44,0x40,0x00,0x94,0x49,
0x40,0x00,0x94,0x41,0x50,0x82,0x18,0x84,0x44,0x40,0x04,0x84,0x41,0x40,0x00,0x84,
0x49,0x40,0x00,0x84,0x3d,0x40,0x04,0x94,0x44,0x45,0x00,0x94,0x3c,0x3a,0x00,0x94,
0x3f,0x45,0x00,0x94,0x48,0x45,0x84,0x3c,0x84,0x48,0x40,0x00,0x84,0x3f,0x40,0x00,
0x84,0x3c,0x40,0x00,0x84,0x44,0x40,0x04,0x94,0x38,0x40,0x60,0x84,0x38,0x40,0x00,
0x94,0x3a,0x37,0x60,0x84,0x3a,0x40,0x00,0x94,0x3c,0x33,0x60,0x84,0x3c,0x40,0x00,
0x94,0x3a,0x40,0x60,0x84,0x3a,0x40,0x00,0x94,0x3c,0x37,0x00,0x94,0x3f,0x45,0x00,
0x94,0x44,0x45,0x00,0x94,0x48,0x45,0x82,0x78,0x84,0x48,0x40,0x00,0x84,0x3f,0x40,
0x00,0x84,0x3c,0x40,0x04,0x84,0x44,0x40,0x04,0x94,0x3c,0x3a,0x00,0x94,0x48,0x40,
0x00,0x94,0x3f,0x40,0x81,0x40,0x84,0x3f,0x40,0x00,0x84,0x48,0x40,0x00,0x84,0x3c,
0x40,0x00,0x94,0x41,0x40,0x00,0x94,0x49,0x40,0x00,0x94,0x3d,0x40,0x81,0x40,0x84,
0x3d,0x40,0x00,0x84,0x49,0x40,0x00,0x84,0x41,0x40,0x00,0x94,0x3c,0x1a,0x00,0x94,
0x48,0x33,0x00,0x94,0x3f,0x33,0x60,0x84,0x3f,0x40,0x00,0x84,0x48,0x40,0x00,0x84,
0x3c,0x40,0x00,0x94,0x3a,0x40,0x00,0x94,0x3d,0x33,0x00,0x94,0x46,0x33,0x82,0x1c,
0x84,0x46,0x40,0x00,0x84,0x3d,0x40,0x00,0x84,0x3a,0x40,0x04,0x94,0x38,0x40,0x60,
0x84,0x38,0x40,0x00,0x94,0x3a,0x37,0x60,0x84,0x3a,0x40,0x00,0x94,0x3c,0x33,0x60,
0x84,0x3c,0x40,0x00,0x94,0x3a,0x40,0x7c,0x84,0x3a,0x40,0x00,0x94,0x3d,0x45,0x82,
0x7c,0x84,0x3d,0x40,0x04,0x94,0x3f,0x37,0x81,0x34,0x84,0x3f,0x40,0x00,0x94,0x3c,
0x3a,0x82,0x44,0x84,0x3c,0x40,0x04,0x94,0x3a,0x30,0x68,0x84,0x3a,0x40,0x00,0x94,
0x38,0x37,0x82,0x44,0x84,0x38,0x40,0x08,0x94,0x38,0x45,0x81,0x34,0x84,0x38,0x40,
0x00,0x94,0x48,0x45,0x00,0x94,0x3f,0x45,0x00,0x94,0x3c,0x37,0x82,0x7c,0x84,0x3c,
0x40,0x00,0x84,0x3f,0x40,0x00,0x84,0x48,0x40,0x04,0x94,0x41,0x45,0x00,0x94,0x49,
0x40,0x00,0x94,0x44,0x40,0x00,0x94,0x3d,0x40,0x85,0x78,0x84,0x3d,0x40,0x00,0x84,
0x44,0x40,0x00,0x84,0x49,0x40,0x00,0x84,0x41,0x40,0x08,0x94,0x38,0x40,0x60,0x84,
0x38,0x40,0x00,0x94,0x3a,0x40,0x60,0x84,0x3a,0x40,0x00,0x94,0x3d,0x37,0x60,0x84,
0x3d,0x40,0x00,0x94,0x3a,0x37,0x60,0x84,0x3a,0x40,0x00,0x94,0x49,0x40,0x00,0x94,
0x44,0x40,0x00,0x94,0x41,0x53,0x00,0x94,0x3d,0x30,0x82,0x18,0x84,0x3d,0x40,0x00,
0x84,0x41,0x40,0x00,0x84,0x44,0x40,0x00,0x84,0x49,0x40,0x08,0x94,0x3d,0x28,0x00,
0x94,0x49,0x45,0x00,0x94,0x41,0x50,0x00,0x94,0x44,0x40,0x82,0x18,0x84,0x44,0x40,
0x04,0x84,0x41,0x40,0x00,0x84,0x49,0x40,0x00,0x84,0x3d,0x40,0x04,0x94,0x48,0x45,
0x00,0x94,0x44,0x40,0x00,0x94,0x3f,0x45,0x00,0x94,0x3c,0x30,0x84,0x3c,0x84,0x3c,
0x40,0x00,0x84,0x3f,0x40,0x00,0x84,0x44,0x40,0x00,0x84,0x48,0x40,0x04,0x94,0x38,
0x40,0x60,0x84,0x38,0x40,0x00,0x94,0x3a,0x37,0x60,0x84,0x3a,0x40,0x00,0x94,0x3c,
0x3a,0x60,0x84,0x3c,0x40,0x00,0x94,0x3a,0x37,0x60,0x84,0x3a,0x40,0x00,0x94,0x48,
0x40,0x00,0x94,0x44,0x40,0x00,0x94,0x3c,0x2a,0x00,0x94,0x3f,0x45,0x82,0x18,0x84,
0x3f,0x40,0x00,0x84,0x3c,0x40,0x00,0x84,0x44,0x40,0x00,0x84,0x48,0x40,0x08,0x94,
0x3f,0x3d,0x00,0x94,0x3c,0x1f,0x00,0x94,0x48,0x38,0x00,0x94,0x44,0x35,0x82,0x1c,
0x84,0x44,0x40,0x00,0x84,0x48,0x40,0x00,0x84,0x3c,0x40,0x00,0x84,0x3f,0x40,0x04,
0x94,0x41,0x44,0x00,0x94,0x46,0x3f,0x00,0x94,0x3d,0x3a,0x82,0x1c,0x84,0x3d,0x40,
0x04,0x94,0x3c,0x28,0x60,0x84,0x3c,0x40,0x00,0x94,0x3a,0x2e,0x81,0x3c,0x84,0x46,
0x40,0x00,0x84,0x41,0x40,0x04,0x84,0x3a,0x40,0x04,0x94,0x38,0x34,0x74,0x84,0x38,
0x40,0x04,0x94,0x3a,0x28,0x70,0x84,0x3a,0x40,0x00,0x94,0x3c,0x27,0x50,0x84,0x3c,
0x40,0x00,0x94,0x3a,0x29,0x60,0x84,0x3a,0x40,0x00,0x94,0x3d,0x30,0x82,0x5c,0x84,
0x3d,0x40,0x04,0x94,0x3f,0x24,0x81,0x48,0x84,0x3f,0x40,0x04,0x94,0x3c,0x2a,0x81,
0x38,0x84,0x3c,0x40,0x00,0x94,0x3a,0x1e,0x81,0x40,0x84,0x3a,0x40,0x00,0x94,0x38,
0x1f,0x82,0x78,0x84,0x38,0x40,0x08,0x94,0x3f,0x17,0x00,0x94,0x48,0x20,0x00,0x94,
0x38,0x1a,0x00,0x94,0x3c,0x1c,0x81,0x3c,0x84,0x3c,0x40,0x00,0x84,0x48,0x40,0x00,
0x84,0x3f,0x40,0x04,0x84,0x38,0x40,0x00,0x94,0x3f,0x1e,0x00,0x94,0x3c,0x22,0x00,
0x94,0x48,0x22,0x82,0x7c,0x84,0x48,0x40,0x00,0x84,0x3c,0x40,0x00,0x84,0x3f,0x40,
0x04,0x94,0x44,0x1d,0x00,0x94,0x49,0x14,0x00,0x94,0x41,0x1d,0x00,0x94,0x3d,0x1a,
0x85,0x78,0x84,0x3d,0x40,0x00,0x84,0x41,0x40,0x00,0x84,0x49,0x40,0x00,0x84,0x44,
0x40,0x08,0x94,0x38,0x12,0x60,0x84,0x38,0x40,0x00,0x94,0x3a,0x0c,0x60,0x84,0x3a,
0x40,0x00,0x94,0x3d,0x0b,0x60,0x84,0x3d,0x40,0x00,0x94,0x3a,0x0a,0x60,0x84,0x3a,
0x40,0x00,0x94,0x49,0x0e,0x00,0x94,0x44,0x0e,0x00,0x94,0x3d,0x05,0x00,0x94,0x41,
0x16,0x82,0x18,0x84,0x41,0x40,0x00,0x84,0x3d,0x40,0x00,0x84,0x44,0x40,0x00,0x84,
0x49,0x40,0x08,0x94,0x3d,0x03,0x00,0x94,0x44,0x0a,0x00,0x94,0x49,0x0a,0x00,0x94,
0x41,0x12,0x82,0x18,0x84,0x44,0x40,0x04,0x84,0x41,0x40,0x00,0x84,0x49,0x40,0x00,
0x84,0x3d,0x40,0x04,0x94,0x44,0x0a,0x00,0x94,0x3c,0x05,0x00,0x94,0x3f,0x0a,0x00,
0x94,0x48,0x0a,0x84,0x3c,0x84,0x48,0x40,0x00,0x84,0x3f,0x40,0x00,0x84,0x3c,0x40,
0x00,0x84,0x44,0x40,0x04,0x94,0x38,0x01,0x60,0x84,0x38,0x40,0x00,0x94,0x3a,0x01,
0x60,0x84,0x3a,0x40,0x00,0x94,0x3c,0x01,0x60,0x84,0x3c,0x40,0x00,0x94,0x3a,0x01,
0x60,0x84,0x3a,0x40,0x00,0x94,0x3c,0x01,0x00,0x94,0x3f,0x01,0x00,0x94,0x44,0x01,
0x00,0x94,0x48,0x01,0x82,0x78,0x84,0x48,0x40,0x00,0x84,0x3f,0x40,0x00,0x84,0x3c,
0x40,0x04,0x84,0x44,0x40,0x04,0x94,0x3c,0x01,0x00,0x94,0x48,0x01,0x00,0x94,0x3f,
0x01,0x81,0x40,0x84,0x3f,0x40,0x00,0x84,0x48,0x40,0x00,0x84,0x3c,0x40,0x00,0x94,
0x41,0x01,0x00,0x94,0x49,0x01,0x00,0x94,0x3d,0x01,0x81,0x40,0x84,0x3d,0x40,0x00,
0x84,0x49,0x40,0x00,0x84,0x41,0x40,0x00,0x94,0x3c,0x01,0x00,0x94,0x48,0x01,0x00,
0x94,0x3f,0x01,0x60,0x84,0x3f,0x40,0x00,0x84,0x48,0x40,0x00,0x84,0x3c,0x40,0x00,
0x94,0x3a,0x01,0x00,0x94,0x3d,0x01,0x00,0x94,0x46,0x01,0x82,0x1c,0x84,0x46,0x40,
0x00,0x84,0x3d,0x40,0x00,0x84,0x3a,0x40,0x04,0x94,0x38,0x01,0x60,0x84,0x38,0x40,
0x00,0x94,0x3a,0x01,0x60,0x84,0x3a,0x40,0x00,0x94,0x3c,0x01,0x60,0x84,0x3c,0x40,
0x00,0x94,0x3a,0x01,0x7c,0x84,0x3a,0x40,0x00,0x94,0x3d,0x01,0x82,0x7c,0x84,0x3d,
0x40,0x04,0x94,0x3f,0x01,0x81,0x34,0x84,0x3f,0x40,0x00,0x94,0x3c,0x01,0x82,0x44,
0x84,0x3c,0x40,0x04,0x94,0x3a,0x01,0x68,0x84,0x3a,0x40,0x00,0x94,0x38,0x01,0x82,
0x44,0x84,0x38,0x40,0x08,0x94,0x38,0x01,0x40,0x84,0x38,0x01,0x8c,0x74,0xff,0x2f,
0x00,0x4d,0x54,0x72,0x6b,0x00,0x00,0x02,0x21,0x00,0xff,0x03,0x0a,0x53,0x59,0x4e,
0x54,0x48,0x20,0x44,0x52,0x55,0x4d,0x8f,0x6c,0xc5,0x76,0x04,0xb5,0x07,0x5f,0x00,
0xb5,0x0a,0x0a,0x00,0xb5,0x0b,0x7f,0x04,0xb5,0x5b,0x37,0x00,0xb5,0x5d,0x28,0x8b,
0x6c,0x95,0x48,0x6c,0x04,0xb5,0x01,0x00,0x00,0xe5,0x00,0x40,0x2c,0x85,0x48,0x40,
0x82,0x50,0x95,0x45,0x77,0x30,0x85,0x45,0x40,0x30,0x95,0x45,0x72,0x30,0x85,0x45,
0x40,0x81,0x70,0x95,0x3e,0x77,0x20,0x85,0x3e,0x40,0x40,0x95,0x3e,0x7c,0x2c,0x85,
0x3e,0x40,0x34,0x95,0x3b,0x7f,0x34,0x85,0x3b,0x40,0x2c,0x95,0x3b,0x7c,0x28,0x85,
0x3b,0x40,0xdb,0x78,0x95,0x3b,0x7c,0x34,0x85,0x3b,0x40,0xdd,0x2c,0x95,0x43,0x7c,
0x3c,0x85,0x43,0x40,0x24,0x95,0x43,0x7c,0x40,0x85,0x43,0x40,0x81,0x00,0x95,0x3b,
0x7f,0x54,0x85,0x3b,0x40,0xab,0x4c,0x95,0x41,0x7f,0x38,0x85,0x41,0x40,0x81,0x68,
0x95,0x41,0x69,0x30,0x85,0x41,0x40,0x30,0x95,0x41,0x7f,0x40,0x85,0x41,0x40,0x81,
0x60,0x95,0x3e,0x77,0x30,0x85,0x3e,0x40,0x30,0x95,0x3e,0x77,0x34,0x85,0x3e,0x40,
0x2c,0x95,0x3b,0x7f,0x38,0x85,0x3b,0x40,0xda,0x28,0x95,0x41,0x7c,0x2c,0x85,0x41,
0x40,0x34,0x95,0x41,0x7f,0x3c,0x85,0x41,0x40,0xde,0x64,0x95,0x45,0x7f,0x3c,0x85,
0x45,0x40,0x24,0x95,0x45,0x7f,0x44,0x85,0x45,0x40,0x7c,0x95,0x41,0x72,0x20,0x85,
0x41,0x40,0x40,0x95,0x41,0x7c,0x3c,0x85,0x41,0x40,0x24,0x95,0x3e,0x77,0x40,0x85,
0x3e,0x40,0xab,0x60,0x95,0x48,0x77,0x54,0x85,0x48,0x40,0x82,0x2c,0x95,0x40,0x77,
0x6c,0x85,0x40,0x40,0xac,0x14,0x95,0x47,0x7c,0x54,0x85,0x47,0x40,0x81,0x4c,0x95,
0x40,0x77,0x78,0x85,0x40,0x40,0xab,0x28,0x95,0x41,0x72,0x2c,0x85,0x41,0x40,0x34,
0x95,0x41,0x7c,0x3c,0x85,0x41,0x40,0x83,0x24,0x95,0x41,0x7c,0x2c,0x85,0x41,0x40,
0x34,0x95,0x41,0x77,0x40,0x85,0x41,0x40,0x81,0x60,0x95,0x3b,0x7f,0x3c,0x85,0x3b,
0x40,0xab,0x64,0x95,0x3e,0x7c,0x30,0x85,0x3e,0x40,0xab,0x70,0x95,0x45,0x6c,0x28,
0x85,0x45,0x40,0x38,0x95,0x45,0x77,0x44,0x85,0x45,0x40,0x82,0x3c,0x95,0x41,0x7f,
0x44,0x85,0x41,0x40,0x81,0x5c,0x95,0x3e,0x7f,0x4c,0x85,0x3e,0x40,0xd5,0x54,0x95,
0x45,0x7c,0x50,0x85,0x45,0x40,0x81,0x50,0x95,0x40,0x7c,0x4c,0x85,0x40,0x40,0x83,
0x14,0x95,0x3c,0x77,0x3c,0x85,0x3c,0x40,0x82,0x44,0x95,0x37,0x7c,0x58,0x85,0x37,
0x40,0xdd,0x68,0x95,0x43,0x6c,0x30,0x85,0x43,0x40,0xab,0x70,0x95,0x48,0x7c,0x34,
0x85,0x48,0x40,0x83,0x2c,0x95,0x41,0x77,0x2c,0x85,0x41,0x40,0x34,0x95,0x41,0x72,
0x30,0x85,0x41,0x40,0xac,0x50,0x95,0x45,0x7f,0x50,0x85,0x45,0x40,0x81,0x50,0x95,
0x3b,0x7f,0x3c,0x85,0x3b,0x40,0xa8,0x64,0x95,0x3e,0x7c,0x3c,0x85,0x3e,0x40,0x82,
0x44,0x95,0x41,0x7c,0x3c,0x85,0x41,0x40,0x83,0x24,0x95,0x3b,0x6c,0x30,0x85,0x3b,
0x40,0x30,0x95,0x3b,0x7f,0x3c,0x85,0x3b,0x40,0xae,0x64,0x95,0x3b,0x7f,0x30,0x85,
0x3b,0x40,0xab,0x70,0x95,0x45,0x77,0x48,0x85,0x45,0x40,0x82,0x38,0x95,0x3b,0x6c,
0x2c,0x85,0x3b,0x40,0x34,0x95,0x3b,0x7c,0x3c,0x85,0x3b,0x40,0xaf,0x44,0x95,0x3b,
0x44,0x38,0x85,0x3b,0x40,0xb3,0x28,0xff,0x2f,0x00,0x4d,0x54,0x72,0x6b,0x00,0x00,
0x01,0x75,0x00,0xff,0x03,0x0a,0x53,0x59,0x4e,0x54,0x48,0x20,0x44,0x52,0x55,0x4d,
0x90,0x00,0xc6,0x76,0x04,0xb6,0x07,0x5f,0x00,0xb6,0x0a,0x76,0x00,0xb6,0x0b,0x7f,
0x04,0xb6,0x5b,0x3c,0x00,0xb6,0x5d,0x28,0x8c,0x38,0x96,0x48,0x7c,0x04,0xb6,0x01,
0x00,0x00,0xe6,0x00,0x40,0x30,0x86,0x48,0x40,0x83,0x2c,0x96,0x41,0x77,0x2c,0x86,
0x41,0x40,0x34,0x96,0x41,0x72,0x30,0x86,0x41,0x40,0xdc,0x50,0x96,0x43,0x7c,0x34,
0x86,0x43,0x40,0x2c,0x96,0x43,0x7c,0x3c,0x86,0x43,0x40,0x81,0x8e,0x04,0x96,0x48,
0x72,0x30,0x86,0x48,0x40,0x30,0x96,0x48,0x77,0x40,0x86,0x48,0x40,0x81,0x60,0x96,
0x40,0x6c,0x2c,0x86,0x40,0x40,0x34,0x96,0x40,0x77,0x38,0x86,0x40,0x40,0xde,0x68,
0x96,0x3b,0x7f,0x30,0x86,0x3b,0x40,0xde,0x70,0x96,0x43,0x7f,0x28,0x86,0x43,0x40,
0xaf,0x58,0x96,0x43,0x77,0x4c,0x86,0x43,0x40,0x81,0x54,0x96,0x3b,0x77,0x4c,0x86,
0x3b,0x40,0xac,0x34,0x96,0x43,0x7c,0x34,0x86,0x43,0x40,0xaf,0x4c,0x96,0x45,0x77,
0x2c,0x86,0x45,0x40,0x83,0x34,0x96,0x3e,0x77,0x30,0x86,0x3e,0x40,0xab,0x10,0x96,
0x43,0x7c,0x30,0x86,0x43,0x40,0x30,0x96,0x43,0x77,0x2c,0x86,0x43,0x40,0xaf,0x54,
0x96,0x41,0x77,0x28,0x86,0x41,0x40,0xd7,0x38,0x96,0x47,0x77,0x5c,0x86,0x47,0x40,
0x86,0x04,0x96,0x3e,0x77,0x3c,0x86,0x3e,0x40,0x82,0x44,0x96,0x3b,0x7c,0x3c,0x86,
0x3b,0x40,0x24,0x96,0x3b,0x7c,0x3c,0x86,0x3b,0x40,0xdd,0x24,0x96,0x47,0x7c,0x3c,
0x86,0x47,0x40,0x82,0x44,0x96,0x3e,0x73,0x28,0x86,0x3e,0x40,0x38,0x96,0x3e,0x7f,
0x38,0x86,0x3e,0x40,0xa8,0x68,0x96,0x48,0x6c,0x30,0x86,0x48,0x40,0x82,0x50,0x96,
0x45,0x77,0x30,0x86,0x45,0x40,0x30,0x96,0x45,0x72,0x30,0x86,0x45,0x40,0x81,0x70,
0x96,0x3e,0x77,0x20,0x86,0x3e,0x40,0x40,0x96,0x3e,0x7c,0x2c,0x86,0x3e,0x40,0x34,
0x96,0x3b,0x7f,0x34,0x86,0x3b,0x40,0xab,0x0c,0x96,0x45,0x7f,0x30,0x86,0x45,0x40,
0xde,0x70,0x96,0x41,0x7c,0x30,0x86,0x41,0x40,0x30,0x96,0x41,0x77,0x30,0x86,0x41,
0x40,0xde,0x70,0x96,0x45,0x44,0x34,0x86,0x45,0x40,0x2c,0x96,0x45,0x3f,0x40,0x86,
0x45,0x40,0xb4,0x60,0xff,0x2f,0x00,0x4d,0x54,0x72,0x6b,0x00,0x00,0x08,0x79,0x00,
0xff,0x03,0x08,0x53,0x41,0x57,0x20,0x57,0x41,0x56,0x45,0x90,0x14,0xc7,0x51,0x04,
0xb7,0x07,0x46,0x00,0xb7,0x0a,0x40,0x00,0xb7,0x0b,0x7f,0x04,0xb7,0x5b,0x3c,0x00,
0xb7,0x5d,0x3c,0x81,0x97,0x64,0x97,0x3a,0x60,0x00,0x97,0x41,0x65,0x00,0x97,0x3d,
0x57,0x00,0x97,0x36,0x60,0x04,0xb7,0x01,0x00,0x00,0xe7,0x00,0x40,0x83,0x28,0x87,
0x3d,0x40,0x00,0x87,0x41,0x40,0x20,0x87,0x36,0x40,0x08,0x87,0x3a,0x40,0x7c,0x97,
0x35,0x65,0x04,0x97,0x38,0x65,0x00,0x97,0x3f,0x65,0x00,0x97,0x3c,0x6a,0x86,0x40,
0x87,0x3c,0x40,0x00,0x87,0x38,0x40,0x04,0x87,0x3f,0x40,0x08,0x87,0x35,0x40,0xa4,
0x74,0x97,0x41,0x6a,0x00,0x97,0x3d,0x53,0x04,0x97,0x36,0x60,0x00,0x97,0x3a,0x60,
0x83,0x0c,0x87,0x3d,0x40,0x00,0x87,0x41,0x40,0x10,0x87,0x3a,0x40,0x08,0x87,0x36,
0x40,0x6c,0x97,0x3f,0x57,0x00,0x97,0x38,0x65,0x00,0x97,0x3c,0x5a,0x00,0x97,0x35,
0x65,0x86,0x18,0x87,0x35,0x40,0x00,0x87,0x3c,0x40,0x00,0x87,0x38,0x40,0x00,0x87,
0x3f,0x40,0x81,0x40,0x97,0x46,0x60,0x00,0x97,0x42,0x60,0x00,0x97,0x3d,0x60,0x8b,
0x28,0x87,0x3d,0x40,0x08,0x87,0x42,0x40,0x08,0x87,0x46,0x40,0x50,0x97,0x44,0x60,
0x00,0x97,0x3c,0x60,0x00,0x97,0x3f,0x60,0x8a,0x50,0x87,0x3c,0x40,0x2c,0x87,0x3f,
0x40,0x08,0x87,0x44,0x40,0x70,0x97,0x3d,0x60,0x00,0x97,0x46,0x60,0x08,0x97,0x42,
0x65,0x82,0x5c,0xb7,0x01,0x04,0x0c,0xb7,0x01,0x05,0x0c,0xb7,0x01,0x06,0x10,0xb7,
0x01,0x08,0x10,0xb7,0x01,0x0b,0x0c,0xb7,0x01,0x0d,0x10,0xb7,0x01,0x10,0x0c,0xb7,
0x01,0x13,0x10,0xb7,0x01,0x15,0x0c,0xb7,0x01,0x18,0x10,0xb7,0x01,0x1b,0x0c,0xb7,
0x01,0x1e,0x10,0xb7,0x01,0x21,0x0c,0xb7,0x01,0x23,0x10,0xb7,0x01,0x26,0x0c,0xb7,
0x01,0x2a,0x0c,0xb7,0x01,0x2c,0x10,0xb7,0x01,0x2f,0x0c,0xb7,0x01,0x31,0x10,0xb7,
0x01,0x34,0x0c,0xb7,0x01,0x37,0x10,0xb7,0x01,0x39,0x0c,0xb7,0x01,0x3c,0x10,0xb7,
0x01,0x3e,0x0c,0xb7,0x01,0x41,0x10,0xb7,0x01,0x43,0x10,0xb7,0x01,0x46,0x08,0xb7,
0x01,0x49,0x10,0xb7,0x01,0x4b,0x10,0xb7,0x01,0x4d,0x0c,0xb7,0x01,0x50,0x10,0xb7,
0x01,0x52,0x0c,0xb7,0x01,0x54,0x10,0xb7,0x01,0x56,0x0c,0xb7,0x01,0x59,0x10,0xb7,
0x01,0x5a,0x0c,0xb7,0x01,0x5c,0x10,0xb7,0x01,0x5e,0x0c,0xb7,0x01,0x60,0x10,0xb7,
0x01,0x61,0x0c,0xb7,0x01,0x63,0x10,0xb7,0x01,0x65,0x0c,0xb7,0x01,0x67,0x10,0xb7,
0x01,0x69,0x0c,0xb7,0x01,0x6b,0x10,0xb7,0x01,0x6e,0x0c,0xb7,0x01,0x70,0x0c,0xb7,
0x01,0x72,0x10,0xb7,0x01,0x74,0x0c,0xb7,0x01,0x77,0x10,0xb7,0x01,0x79,0x0c,0xb7,
0x01,0x7d,0x10,0xb7,0x01,0x7f,0x81,0x50,0xb7,0x01,0x78,0x0c,0xb7,0x01,0x72,0x10,
0xb7,0x01,0x6b,0x0c,0xb7,0x01,0x63,0x0c,0xb7,0x01,0x59,0x10,0xb7,0x01,0x4b,0x10,
0x87,0x3d,0x40,0x00,0xb7,0x01,0x3a,0x04,0x87,0x46,0x40,0x08,0x87,0x42,0x40,0x00,
0xb7,0x01,0x28,0x10,0xb7,0x01,0x19,0x0c,0xb7,0x01,0x08,0x10,0xb7,0x01,0x03,0x6c,
0x97,0x46,0x6a,0x00,0x97,0x3d,0x6a,0x00,0x97,0x42,0x6a,0x44,0x87,0x3d,0x40,0x0c,
0x87,0x42,0x40,0x0c,0x87,0x46,0x40,0x81,0x40,0x97,0x3d,0x6a,0x00,0x97,0x46,0x6a,
0x00,0x97,0x42,0x74,0x60,0x87,0x3d,0x40,0x04,0x87,0x42,0x40,0x14,0x87,0x46,0x40,
0x81,0x34,0x97,0x48,0x70,0x00,0x97,0x3f,0x65,0x08,0x97,0x44,0x65,0x81,0x08,0x87,
0x3f,0x40,0x00,0x87,0x48,0x40,0x08,0x87,0x44,0x40,0x81,0x8a,0x2c,0x97,0x41,0x65,
0x04,0x97,0x36,0x53,0x00,0x97,0x3a,0x53,0x00,0x97,0x3d,0x53,0x83,0x48,0x87,0x3d,
0x40,0x04,0x87,0x41,0x40,0x14,0x87,0x36,0x40,0x04,0x87,0x3a,0x40,0x70,0x97,0x3c,
0x5a,0x04,0x97,0x35,0x60,0x00,0x97,0x3f,0x60,0x00,0x97,0x38,0x65,0x86,0x10,0x87,
0x38,0x40,0x00,0x87,0x3f,0x40,0x00,0x87,0x35,0x40,0x00,0x87,0x3c,0x40,0xa5,0x20,
0x97,0x41,0x60,0x00,0x97,0x3a,0x60,0x00,0x97,0x3d,0x57,0x00,0x97,0x36,0x57,0x82,
0x78,0x87,0x3d,0x40,0x00,0x87,0x41,0x40,0x14,0x87,0x3a,0x40,0x08,0x87,0x36,0x40,
0x81,0x0c,0x97,0x38,0x60,0x00,0x97,0x3f,0x60,0x04,0x97,0x35,0x60,0x00,0x97,0x3c,
0x60,0x85,0x54,0x87,0x35,0x40,0x1c,0x87,0x38,0x40,0x0c,0x87,0x3c,0x40,0x0c,0x87,
0x3f,0x40,0x81,0x3c,0x97,0x46,0x65,0x00,0x97,0x3d,0x65,0x04,0x97,0x42,0x60,0x8a,
0x7c,0x87,0x3d,0x40,0x1c,0x87,0x42,0x40,0x04,0x87,0x46,0x40,0x50,0x97,0x44,0x65,
0x04,0x97,0x3c,0x65,0x00,0x97,0x3f,0x60,0x8a,0x68,0x87,0x3c,0x40,0x24,0x87,0x3f,
0x40,0x00,0x87,0x44,0x40,0x78,0x97,0x46,0x65,0x04,0x97,0x42,0x65,0x04,0x97,0x3d,
0x57,0x82,0x0c,0xb7,0x01,0x04,0x0c,0xb7,0x01,0x05,0x0c,0xb7,0x01,0x07,0x10,0xb7,
0x01,0x09,0x0c,0xb7,0x01,0x0d,0x10,0xb7,0x01,0x10,0x0c,0xb7,0x01,0x14,0x10,0xb7,
0x01,0x18,0x0c,0xb7,0x01,0x1b,0x10,0xb7,0x01,0x1e,0x0c,0xb7,0x01,0x21,0x10,0xb7,
0x01,0x24,0x10,0xb7,0x01,0x26,0x08,0xb7,0x01,0x28,0x10,0xb7,0x01,0x2a,0x10,0xb7,
0x01,0x2d,0x0c,0xb7,0x01,0x2f,0x10,0xb7,0x01,0x32,0x0c,0xb7,0x01,0x35,0x10,0xb7,
0x01,0x37,0x0c,0xb7,0x01,0x3a,0x10,0xb7,0x01,0x3c,0x0c,0xb7,0x01,0x3f,0x10,0xb7,
0x01,0x41,0x0c,0xb7,0x01,0x43,0x10,0xb7,0x01,0x44,0x0c,0xb7,0x01,0x46,0x10,0xb7,
0x01,0x48,0x0c,0xb7,0x01,0x4a,0x10,0xb7,0x01,0x4b,0x0c,0xb7,0x01,0x4c,0x10,0xb7,
0x01,0x4e,0x0c,0xb7,0x01,0x4f,0x0c,0xb7,0x01,0x50,0x10,0xb7,0x01,0x52,0x0c,0xb7,
0x01,0x54,0x10,0xb7,0x01,0x55,0x0c,0xb7,0x01,0x57,0x10,0xb7,0x01,0x59,0x0c,0xb7,
0x01,0x5a,0x10,0xb7,0x01,0x5c,0x0c,0xb7,0x01,0x5f,0x10,0xb7,0x01,0x61,0x0c,0xb7,
0x01,0x64,0x0c,0xb7,0x01,0x67,0x10,0xb7,0x01,0x6a,0x0c,0xb7,0x01,0x6c,0x10,0xb7,
0x01,0x6f,0x10,0xb7,0x01,0x73,0x0c,0xb7,0x01,0x76,0x10,0xb7,0x01,0x78,0x0c,0xb7,
0x01,0x7d,0x10,0xb7,0x01,0x7f,0x81,0x78,0xb7,0x01,0x7c,0x0c,0xb7,0x01,0x76,0x10,
0xb7,0x01,0x70,0x0c,0xb7,0x01,0x6a,0x10,0xb7,0x01,0x63,0x0c,0xb7,0x01,0x5b,0x10,
0x87,0x3d,0x40,0x00,0xb7,0x01,0x53,0x0c,0xb7,0x01,0x49,0x04,0x87,0x42,0x40,0x0c,
0xb7,0x01,0x3c,0x08,0x87,0x46,0x40,0x04,0xb7,0x01,0x2e,0x10,0xb7,0x01,0x1f,0x10,
0xb7,0x01,0x10,0x10,0xb7,0x01,0x04,0x08,0xb7,0x01,0x03,0x74,0x97,0x46,0x6a,0x04,
0x97,0x3d,0x65,0x00,0x97,0x42,0x65,0x78,0x87,0x46,0x40,0x04,0x87,0x42,0x40,0x00,
0x87,0x3d,0x40,0x81,0x24,0x97,0x46,0x65,0x04,0x97,0x3d,0x60,0x00,0x97,0x42,0x6a,
0x64,0x87,0x3d,0x40,0x18,0x87,0x46,0x40,0x08,0x87,0x42,0x40,0x81,0x18,0x97,0x48,
0x65,0x00,0x97,0x3f,0x60,0x00,0x97,0x44,0x6a,0x81,0x28,0x87,0x3f,0x40,0x14,0x87,
0x44,0x40,0x00,0x87,0x48,0x40,0x82,0xca,0x18,0x97,0x41,0x6a,0x04,0x97,0x36,0x57,
0x00,0x97,0x3a,0x60,0x00,0x97,0x3d,0x57,0x82,0x7c,0x87,0x41,0x40,0x04,0x87,0x3d,
0x40,0x04,0x87,0x3a,0x40,0x0c,0x87,0x36,0x40,0x81,0x1c,0x97,0x3f,0x57,0x04,0x97,
0x35,0x5a,0x00,0x97,0x38,0x57,0x00,0x97,0x3c,0x65,0x85,0x5c,0x87,0x38,0x40,0x00,
0x87,0x35,0x40,0x04,0x87,0x3c,0x40,0x00,0x87,0x3f,0x40,0xa5,0x60,0x97,0x3d,0x57,
0x00,0x97,0x41,0x65,0x00,0x97,0x36,0x57,0x04,0x97,0x3a,0x65,0x83,0x00,0x87,0x41,
0x40,0x00,0x87,0x3d,0x40,0x08,0x87,0x3a,0x40,0x04,0x87,0x36,0x40,0x81,0x28,0x97,
0x3f,0x60,0x08,0x97,0x38,0x60,0x00,0x97,0x35,0x5a,0x04,0x97,0x3c,0x65,0x85,0x70,
0x87,0x35,0x40,0x04,0x87,0x3c,0x40,0x00,0x87,0x38,0x40,0x00,0x87,0x3f,0x40,0x81,
0x40,0x97,0x46,0x60,0x00,0x97,0x3d,0x4a,0x00,0x97,0x42,0x4a,0x85,0x6c,0xb7,0x01,
0x04,0x1c,0xb7,0x01,0x05,0x08,0xb7,0x01,0x06,0x14,0xb7,0x01,0x07,0x0c,0xb7,0x01,
0x09,0x0c,0xb7,0x01,0x0a,0x10,0xb7,0x01,0x0b,0x0c,0xb7,0x01,0x0d,0x10,0xb7,0x01,
0x0e,0x0c,0xb7,0x01,0x10,0x10,0xb7,0x01,0x13,0x0c,0xb7,0x01,0x15,0x10,0xb7,0x01,
0x18,0x0c,0xb7,0x01,0x1a,0x10,0xb7,0x01,0x1c,0x0c,0xb7,0x01,0x1f,0x10,0xb7,0x01,
0x21,0x0c,0xb7,0x01,0x24,0x10,0xb7,0x01,0x27,0x0c,0xb7,0x01,0x2a,0x0c,0xb7,0x01,
0x2d,0x10,0xb7,0x01,0x30,0x10,0xb7,0x01,0x32,0x0c,0xb7,0x01,0x35,0x0c,0xb7,0x01,
0x38,0x10,0xb7,0x01,0x3b,0x0c,0xb7,0x01,0x3e,0x10,0xb7,0x01,0x41,0x10,0xb7,0x01,
0x44,0x0c,0xb7,0x01,0x47,0x10,0xb7,0x01,0x4a,0x0c,0xb7,0x01,0x4c,0x10,0xb7,0x01,
0x4f,0x0c,0xb7,0x01,0x52,0x0c,0xb7,0x01,0x55,0x10,0xb7,0x01,0x59,0x0c,0xb7,0x01,
0x5d,0x10,0xb7,0x01,0x62,0x0c,0xb7,0x01,0x66,0x10,0xb7,0x01,0x6b,0x0c,0xb7,0x01,
0x70,0x10,0xb7,0x01,0x72,0x0c,0xb7,0x01,0x73,0x10,0xb7,0x01,0x71,0x0c,0xb7,0x01,
0x6a,0x04,0x87,0x42,0x40,0x04,0x87,0x3d,0x40,0x04,0x87,0x46,0x40,0x04,0xb7,0x01,
0x5d,0x10,0xb7,0x01,0x4c,0x0c,0xb7,0x01,0x38,0x10,0xb7,0x01,0x24,0x0c,0xb7,0x01,
0x11,0x10,0xb7,0x01,0x04,0x0c,0xb7,0x01,0x03,0x34,0x97,0x44,0x60,0x04,0x97,0x3c,
0x60,0x00,0x97,0x3f,0x60,0x83,0x74,0xb7,0x01,0x05,0x0c,0xb7,0x01,0x06,0x10,0xb7,
0x01,0x07,0x0c,0xb7,0x01,0x09,0x10,0xb7,0x01,0x0c,0x0c,0xb7,0x01,0x0e,0x10,0xb7,
0x01,0x10,0x0c,0xb7,0x01,0x11,0x10,0xb7,0x01,0x13,0x0c,0xb7,0x01,0x14,0x0c,0xb7,
0x01,0x16,0x10,0xb7,0x01,0x17,0x10,0xb7,0x01,0x18,0x10,0xb7,0x01,0x1a,0x08,0xb7,
0x01,0x1c,0x10,0xb7,0x01,0x1d,0x0c,0xb7,0x01,0x1f,0x10,0xb7,0x01,0x20,0x0c,0xb7,
0x01,0x22,0x10,0xb7,0x01,0x23,0x0c,0xb7,0x01,0x24,0x10,0xb7,0x01,0x26,0x10,0xb7,
0x01,0x27,0x0c,0xb7,0x01,0x29,0x0c,0xb7,0x01,0x2a,0x1c,0xb7,0x01,0x2b,0x10,0xb7,
0x01,0x2c,0x0c,0xb7,0x01,0x2d,0x10,0xb7,0x01,0x2e,0x0c,0xb7,0x01,0x2f,0x10,0xb7,
0x01,0x31,0x0c,0xb7,0x01,0x32,0x10,0xb7,0x01,0x34,0x0c,0xb7,0x01,0x36,0x10,0xb7,
0x01,0x39,0x0c,0xb7,0x01,0x3b,0x10,0xb7,0x01,0x3d,0x0c,0xb7,0x01,0x40,0x10,0xb7,
0x01,0x42,0x0c,0xb7,0x01,0x44,0x10,0xb7,0x01,0x47,0x0c,0xb7,0x01,0x4a,0x0c,0xb7,
0x01,0x4d,0x10,0xb7,0x01,0x50,0x0c,0xb7,0x01,0x52,0x10,0xb7,0x01,0x55,0x0c,0xb7,
0x01,0x57,0x10,0xb7,0x01,0x5a,0x0c,0xb7,0x01,0x5d,0x10,0xb7,0x01,0x60,0x10,0xb7,
0x01,0x62,0x0c,0xb7,0x01,0x63,0x0c,0xb7,0x01,0x62,0x10,0xb7,0x01,0x5f,0x0c,0xb7,
0x01,0x5a,0x10,0xb7,0x01,0x53,0x0c,0xb7,0x01,0x4c,0x10,0xb7,0x01,0x44,0x0c,0xb7,
0x01,0x3c,0x10,0xb7,0x01,0x34,0x0c,0xb7,0x01,0x2b,0x10,0xb7,0x01,0x21,0x04,0x87,
0x3c,0x40,0x08,0xb7,0x01,0x14,0x0c,0xb7,0x01,0x07,0x08,0x87,0x44,0x40,0x04,0x87,
0x3f,0x40,0x08,0xb7,0x01,0x03,0x81,0x0c,0x97,0x46,0x6a,0x00,0x97,0x42,0x6a,0x04,
0x97,0x3d,0x6a,0x83,0x34,0xb7,0x01,0x04,0x28,0xb7,0x01,0x05,0x10,0xb7,0x01,0x06,
0x1c,0xb7,0x01,0x08,0x0c,0xb7,0x01,0x09,0x10,0xb7,0x01,0x0a,0x0c,0xb7,0x01,0x0b,
0x10,0xb7,0x01,0x0c,0x1c,0xb7,0x01,0x0d,0x0c,0xb7,0x01,0x0e,0x10,0xb7,0x01,0x10,
0x10,0xb7,0x01,0x11,0x08,0xb7,0x01,0x13,0x10,0xb7,0x01,0x14,0x0c,0xb7,0x01,0x16,
0x10,0xb7,0x01,0x18,0x10,0xb7,0x01,0x1a,0x0c,0xb7,0x01,0x1c,0x10,0xb7,0x01,0x1e,
0x0c,0xb7,0x01,0x21,0x10,0xb7,0x01,0x23,0x0c,0xb7,0x01,0x25,0x10,0xb7,0x01,0x26,
0x10,0xb7,0x01,0x28,0x0c,0xb7,0x01,0x2a,0x0c,0xb7,0x01,0x2b,0x10,0xb7,0x01,0x2d,
0x0c,0xb7,0x01,0x2e,0x10,0xb7,0x01,0x2f,0x0c,0xb7,0x01,0x31,0x10,0xb7,0x01,0x33,
0x0c,0xb7,0x01,0x34,0x10,0xb7,0x01,0x36,0x10,0xb7,0x01,0x37,0x08,0xb7,0x01,0x38,
0x10,0xb7,0x01,0x3a,0x0c,0xb7,0x01,0x3b,0x10,0xb7,0x01,0x3d,0x0c,0xb7,0x01,0x3f,
0x10,0xb7,0x01,0x41,0x0c,0xb7,0x01,0x43,0x10,0xb7,0x01,0x45,0x10,0xb7,0x01,0x49,
0x0c,0xb7,0x01,0x4b,0x0c,0xb7,0x01,0x4f,0x0c,0xb7,0x01,0x53,0x10,0xb7,0x01,0x56,
0x0c,0xb7,0x01,0x5a,0x10,0xb7,0x01,0x5e,0x10,0xb7,0x01,0x61,0x0c,0xb7,0x01,0x64,
0x10,0xb7,0x01,0x67,0x10,0xb7,0x01,0x69,0x0c,0xb7,0x01,0x6b,0x0c,0xb7,0x01,0x6c,
0x2c,0xb7,0x01,0x68,0x0c,0xb7,0x01,0x63,0x10,0xb7,0x01,0x5a,0x0c,0xb7,0x01,0x4f,
0x10,0xb7,0x01,0x43,0x0c,0xb7,0x01,0x36,0x10,0xb7,0x01,0x29,0x08,0x87,0x3d,0x40,
0x08,0x87,0x42,0x40,0x00,0x87,0x46,0x40,0x00,0xb7,0x01,0x1c,0x08,0xb7,0x01,0x0d,
0x10,0xb7,0x01,0x03,0x70,0x97,0x46,0x74,0x04,0x97,0x3d,0x6a,0x00,0x97,0x42,0x6a,
0x30,0x87,0x3d,0x40,0x08,0x87,0x42,0x40,0x10,0x87,0x46,0x40,0x81,0x5c,0x97,0x46,
0x6a,0x04,0x97,0x42,0x6a,0x00,0x97,0x3d,0x6a,0x44,0x87,0x3d,0x40,0x08,0x87,0x42,
0x40,0x08,0x87,0x46,0x40,0x81,0x38,0x97,0x3f,0x6a,0x04,0x97,0x44,0x6a,0x00,0x97,
0x48,0x74,0x54,0x87,0x3f,0x40,0x1c,0x87,0x44,0x40,0x08,0x87,0x48,0x40,0x00,0xb7,
0x01,0x00,0x82,0xa6,0x50,0xff,0x2f,0x00,0x4d,0x54,0x72,0x6b,0x00,0x00,0x04,0x63,
0x00,0xff,0x03,0x0a,0x53,0x4f,0x50,0x52,0x41,0x4e,0x20,0x53,0x41,0x58,0x90,0x28,
0xc8,0x40,0x04,0xb8,0x07,0x50,0x00,0xb8,0x0a,0x40,0x00,0xb8,0x0b,0x7f,0x04,0xb8,
0x5b,0x3c,0x00,0xb8,0x5d,0x00,0xc3,0x50,0x98,0x44,0x58,0x04,0xb8,0x01,0x00,0x00,
0xe8,0x00,0x40,0x8a,0x34,0x88,0x44,0x40,0x04,0x98,0x41,0x52,0x50,0x88,0x41,0x40,
0x04,0x98,0x3f,0x4e,0x68,0x88,0x3f,0x40,0x04,0x98,0x41,0x56,0x8b,0x20,0x88,0x41,
0x40,0x81,0xa8,0x7c,0x98,0x44,0x68,0x8a,0x18,0x88,0x44,0x40,0x0c,0x98,0x41,0x5f,
0x48,0x88,0x41,0x40,0x04,0x98,0x3f,0x58,0x58,0x88,0x3f,0x40,0x04,0x98,0x41,0x5b,
0x8b,0x78,0x88,0x41,0x40,0x04,0x98,0x3d,0x5b,0x84,0x48,0x88,0x3d,0x40,0x04,0x98,
0x3f,0x58,0x87,0x34,0x88,0x3f,0x40,0x8c,0x30,0x98,0x44,0x5f,0x8a,0x28,0x88,0x44,
0x40,0x10,0x98,0x41,0x5b,0x44,0x88,0x41,0x40,0x04,0x98,0x3f,0x58,0x78,0x88,0x3f,
0x40,0x0c,0x98,0x41,0x62,0x8b,0x64,0x88,0x41,0x40,0x30,0x98,0x3d,0x58,0x84,0x08,
0x88,0x3d,0x40,0x00,0x98,0x3f,0x5b,0x86,0x78,0x88,0x3f,0x40,0x81,0x9c,0x70,0x98,
0x44,0x68,0x8a,0x18,0x88,0x44,0x40,0x0c,0x98,0x41,0x5f,0x48,0x88,0x41,0x40,0x04,
0x98,0x3f,0x58,0x58,0x88,0x3f,0x40,0x04,0x98,0x41,0x5b,0x8b,0x78,0x88,0x41,0x40,
0x04,0x98,0x3d,0x5b,0x84,0x48,0x88,0x3d,0x40,0x04,0x98,0x3f,0x58,0x87,0x34,0x88,
0x3f,0x40,0x8c,0x30,0x98,0x44,0x5f,0x8a,0x28,0x88,0x44,0x40,0x10,0x98,0x41,0x5b,
0x44,0x88,0x41,0x40,0x04,0x98,0x3f,0x58,0x78,0x88,0x3f,0x40,0x0c,0x98,0x41,0x62,
0x8b,0x64,0x88,0x41,0x40,0x30,0x98,0x3d,0x58,0x84,0x08,0x88,0x3d,0x40,0x00,0x98,
0x3f,0x5b,0x86,0x78,0x88,0x3f,0x40,0x8c,0x70,0x98,0x44,0x68,0x8a,0x18,0x88,0x44,
0x40,0x0c,0x98,0x41,0x5f,0x48,0x88,0x41,0x40,0x04,0x98,0x3f,0x58,0x58,0x88,0x3f,
0x40,0x04,0x98,0x41,0x5b,0x8b,0x78,0x88,0x41,0x40,0x04,0x98,0x3d,0x5b,0x84,0x48,
0x88,0x3d,0x40,0x04,0x98,0x3f,0x58,0x87,0x34,0x88,0x3f,0x40,0x8c,0x30,0x98,0x44,
0x5f,0x8a,0x28,0x88,0x44,0x40,0x10,0x98,0x41,0x5b,0x44,0x88,0x41,0x40,0x04,0x98,
0x3f,0x58,0x78,0x88,0x3f,0x40,0x0c,0x98,0x41,0x62,0x8b,0x64,0x88,0x41,0x40,0x30,
0x98,0x3d,0x58,0x84,0x08,0x88,0x3d,0x40,0x00,0x98,0x3f,0x5b,0x86,0x78,0x88,0x3f,
0x40,0x89,0x74,0x98,0x38,0x68,0x82,0x60,0x98,0x44,0x5f,0x0c,0x88,0x38,0x40,0x8a,
0x30,0x88,0x44,0x40,0x04,0x98,0x41,0x5b,0x5c,0x88,0x41,0x40,0x04,0x98,0x3f,0x4e,
0x5c,0x88,0x3f,0x40,0x04,0x98,0x49,0x68,0x00,0x98,0x41,0x4f,0x08,0x98,0x44,0x53,
0x00,0x98,0x46,0x5e,0x81,0x24,0x88,0x44,0x40,0x18,0x88,0x41,0x40,0x04,0x88,0x46,
0x40,0x1c,0x88,0x49,0x40,0x44,0x98,0x46,0x59,0x00,0x98,0x41,0x54,0x04,0x98,0x49,
0x68,0x00,0x98,0x44,0x53,0x81,0x54,0x88,0x44,0x40,0x1c,0x88,0x46,0x40,0x18,0x88,
0x49,0x40,0x0c,0x98,0x44,0x59,0x04,0x88,0x41,0x40,0x04,0x98,0x48,0x5f,0x00,0x98,
0x3f,0x54,0x81,0x64,0x88,0x48,0x40,0x30,0x88,0x44,0x40,0x08,0x88,0x3f,0x40,0x82,
0x1c,0x98,0x38,0x68,0x83,0x08,0x98,0x44,0x5f,0x10,0x88,0x38,0x40,0x8a,0x2c,0x88,
0x44,0x40,0x04,0x98,0x41,0x58,0x54,0x88,0x41,0x40,0x0c,0x98,0x3f,0x4a,0x5c,0x98,
0x44,0x53,0x04,0x88,0x3f,0x40,0x00,0x98,0x49,0x5f,0x00,0x98,0x46,0x59,0x00,0x98,
0x41,0x54,0x81,0x28,0x88,0x46,0x40,0x04,0x88,0x44,0x40,0x08,0x88,0x41,0x40,0x08,
0x88,0x49,0x40,0x68,0x98,0x49,0x6d,0x00,0x98,0x46,0x5e,0x00,0x98,0x44,0x53,0x00,
0x98,0x41,0x59,0x81,0x78,0x88,0x44,0x40,0x10,0x88,0x46,0x40,0x08,0x88,0x49,0x40,
0x0c,0x88,0x41,0x40,0x00,0x98,0x48,0x5f,0x00,0x98,0x44,0x59,0x04,0x98,0x3f,0x46,
0x81,0x3c,0x88,0x44,0x40,0x18,0x88,0x48,0x40,0x44,0x88,0x3f,0x40,0x82,0x24,0x98,
0x38,0x5f,0x82,0x78,0x88,0x38,0x40,0x08,0x98,0x44,0x5f,0x8a,0x2c,0x88,0x44,0x40,
0x0c,0x98,0x41,0x58,0x54,0x88,0x41,0x40,0x0c,0x98,0x3f,0x50,0x60,0x88,0x3f,0x40,
0x00,0x98,0x49,0x68,0x00,0x98,0x41,0x54,0x04,0x98,0x46,0x5e,0x04,0x98,0x44,0x53,
0x81,0x1c,0x88,0x44,0x40,0x00,0x88,0x41,0x40,0x08,0x88,0x49,0x40,0x0c,0x88,0x46,
0x40,0x70,0x98,0x46,0x5e,0x00,0x98,0x41,0x54,0x04,0x98,0x49,0x68,0x00,0x98,0x44,
0x53,0x81,0x48,0x88,0x44,0x40,0x20,0x88,0x46,0x40,0x30,0x88,0x49,0x40,0x00,0x88,
0x41,0x40,0x00,0x98,0x44,0x59,0x04,0x98,0x48,0x6d,0x00,0x98,0x3f,0x46,0x81,0x3c,
0x88,0x48,0x40,0x04,0x88,0x3f,0x40,0x2c,0x88,0x44,0x40,0x82,0x4c,0x98,0x38,0x68,
0x83,0x00,0x98,0x44,0x5f,0x04,0x88,0x38,0x40,0x8a,0x40,0x98,0x41,0x5b,0x08,0x88,
0x44,0x40,0x4c,0x88,0x41,0x40,0x08,0x98,0x3f,0x47,0x58,0x88,0x3f,0x40,0x08,0x98,
0x46,0x5e,0x00,0x98,0x41,0x4f,0x00,0x98,0x49,0x68,0x08,0x98,0x44,0x53,0x81,0x1c,
0x88,0x44,0x40,0x04,0x88,0x41,0x40,0x0c,0x88,0x46,0x40,0x1c,0x88,0x49,0x40,0x54,
0x98,0x49,0x68,0x04,0x98,0x46,0x59,0x00,0x98,0x41,0x54,0x04,0x98,0x44,0x53,0x81,
0x44,0x88,0x44,0x40,0x14,0x88,0x46,0x40,0x0c,0x88,0x41,0x40,0x2c,0x88,0x49,0x40,
0x00,0x98,0x44,0x50,0x00,0x98,0x3f,0x46,0x0c,0x98,0x48,0x62,0x81,0x70,0x88,0x48,
0x40,0x10,0x88,0x44,0x40,0x18,0x88,0x3f,0x40,0x81,0xf5,0x3c,0x98,0x44,0x68,0x8a,
0x18,0x88,0x44,0x40,0x0c,0x98,0x41,0x5f,0x48,0x88,0x41,0x40,0x04,0x98,0x3f,0x58,
0x58,0x88,0x3f,0x40,0x04,0x98,0x41,0x5b,0x8b,0x78,0x88,0x41,0x40,0x04,0x98,0x3d,
0x5b,0x84,0x48,0x88,0x3d,0x40,0x04,0x98,0x3f,0x58,0x87,0x34,0x88,0x3f,0x40,0x8c,
0x30,0x98,0x44,0x5f,0x8a,0x28,0x88,0x44,0x40,0x10,0x98,0x41,0x5b,0x44,0x88,0x41,
0x40,0x04,0x98,0x3f,0x58,0x78,0x88,0x3f,0x40,0x0c,0x98,0x41,0x62,0x8b,0x64,0x88,
0x41,0x40,0x30,0x98,0x3d,0x58,0x84,0x08,0x88,0x3d,0x40,0x00,0x98,0x3f,0x5b,0x86,
0x78,0x88,0x3f,0x40,0x8c,0x70,0x98,0x44,0x68,0x8a,0x18,0x88,0x44,0x40,0x0c,0x98,
0x41,0x54,0x48,0x88,0x41,0x40,0x04,0x98,0x3f,0x4d,0x58,0x88,0x3f,0x40,0x04,0x98,
0x41,0x4f,0x8b,0x78,0x88,0x41,0x40,0x04,0x98,0x3d,0x42,0x84,0x48,0x88,0x3d,0x40,
0x04,0x98,0x3f,0x3b,0x87,0x34,0x88,0x3f,0x40,0x8c,0x30,0x98,0x44,0x29,0x8a,0x28,
0x88,0x44,0x40,0x10,0x98,0x41,0x1d,0x44,0x88,0x41,0x40,0x04,0x98,0x3f,0x1b,0x78,
0x88,0x3f,0x40,0x0c,0x98,0x41,0x1d,0x8b,0x64,0x88,0x41,0x40,0x30,0x98,0x3d,0x0d,
0x84,0x08,0x88,0x3d,0x40,0x00,0x98,0x3f,0x0a,0x86,0x78,0x88,0x3f,0x40,0x8c,0x58,
0xff,0x2f,0x00,0x4d,0x54,0x72,0x6b,0x00,0x00,0x60,0x51,0x00,0xff,0x03,0x05,0x44,
0x52,0x55,0x4d,0x53,0x90,0x40,0xb9,0x07,0x69,0x00,0xb9,0x0b,0x7f,0x04,0xb9,0x5b,
0x2e,0x00,0xb9,0x5d,0x00,0x93,0x3c,0x99,0x23,0x6e,0x00,0x99,0x45,0x4a,0x00,0x99,
0x3c,0x36,0x04,0x89,0x3c,0x40,0x00,0x89,0x45,0x40,0x00,0x89,0x23,0x40,0x00,0x99,
0x2c,0x4c,0x00,0xb9,0x01,0x00,0x00,0xe9,0x00,0x40,0x04,0x89,0x2c,0x40,0x54,0x99,
0x45,0x1c,0x04,0x89,0x45,0x40,0x50,0x99,0x45,0x66,0x04,0x89,0x45,0x40,0x10,0x99,
0x2e,0x3f,0x04,0x89,0x2e,0x40,0x48,0x99,0x45,0x66,0x04,0x89,0x45,0x40,0x0c,0x99,
0x3c,0x36,0x04,0x89,0x3c,0x40,0x5c,0x99,0x23,0x72,0x04,0x89,0x23,0x40,0x00,0x99,
0x28,0x6e,0x00,0x99,0x2c,0x3c,0x04,0x89,0x2c,0x40,0x00,0x89,0x28,0x40,0x00,0x99,
0x27,0x5f,0x04,0x89,0x27,0x40,0x54,0x99,0x3c,0x2b,0x04,0x89,0x3c,0x40,0x5c,0x99,
0x46,0x51,0x00,0x99,0x3f,0x31,0x04,0x89,0x3f,0x40,0x00,0x89,0x46,0x40,0x5c,0x99,
0x46,0x63,0x04,0x89,0x46,0x40,0x5c,0x99,0x23,0x6e,0x00,0x99,0x3c,0x36,0x04,0x89,
0x3c,0x40,0x00,0x89,0x23,0x40,0x81,0x3c,0x99,0x46,0x63,0x04,0x89,0x46,0x40,0x00,
0x99,0x2e,0x43,0x04,0x89,0x2e,0x40,0x58,0x99,0x3c,0x2b,0x04,0x89,0x3c,0x40,0x5c,
0x99,0x23,0x72,0x04,0x89,0x23,0x40,0x00,0x99,0x28,0x6e,0x00,0x99,0x2c,0x43,0x04,
0x89,0x2c,0x40,0x00,0x89,0x28,0x40,0x00,0x99,0x27,0x5f,0x04,0x89,0x27,0x40,0x54,
0x99,0x3c,0x31,0x04,0x89,0x3c,0x40,0x5c,0x99,0x46,0x63,0x00,0x99,0x3f,0x36,0x04,
0x89,0x3f,0x40,0x00,0x89,0x46,0x40,0x00,0x99,0x2e,0x3f,0x04,0x89,0x2e,0x40,0x81,
0x38,0x99,0x23,0x6e,0x00,0x99,0x3c,0x36,0x04,0x89,0x3c,0x40,0x00,0x89,0x23,0x40,
0x00,0x99,0x2c,0x3f,0x04,0x89,0x2c,0x40,0x81,0x38,0x99,0x46,0x55,0x04,0x89,0x46,
0x40,0x00,0x99,0x2e,0x3c,0x04,0x89,0x2e,0x40,0x58,0x99,0x3c,0x21,0x04,0x89,0x3c,
0x40,0x5c,0x99,0x23,0x6e,0x04,0x89,0x23,0x40,0x00,0x99,0x28,0x6e,0x00,0x99,0x2c,
0x3f,0x04,0x89,0x2c,0x40,0x00,0x89,0x28,0x40,0x00,0x99,0x27,0x5f,0x04,0x89,0x27,
0x40,0x54,0x99,0x3c,0x24,0x04,0x89,0x3c,0x40,0x5c,0x99,0x46,0x4e,0x00,0x99,0x3f,
0x31,0x04,0x89,0x3f,0x40,0x00,0x89,0x46,0x40,0x00,0x99,0x2e,0x36,0x04,0x89,0x2e,
0x40,0x58,0x99,0x46,0x5e,0x04,0x89,0x46,0x40,0x5c,0x99,0x23,0x6e,0x00,0x99,0x3c,
0x36,0x04,0x89,0x3c,0x40,0x00,0x89,0x23,0x40,0x00,0x99,0x2c,0x3f,0x04,0x89,0x2c,
0x40,0x81,0x38,0x99,0x46,0x5e,0x04,0x89,0x46,0x40,0x00,0x99,0x2e,0x36,0x04,0x89,
0x2e,0x40,0x58,0x99,0x3c,0x2b,0x04,0x89,0x3c,0x40,0x5c,0x99,0x23,0x72,0x04,0x89,
0x23,0x40,0x00,0x99,0x28,0x6e,0x00,0x99,0x2c,0x3f,0x04,0x89,0x2c,0x40,0x00,0x89,
0x28,0x40,0x00,0x99,0x27,0x5f,0x04,0x89,0x27,0x40,0x54,0x99,0x3c,0x28,0x04,0x89,
0x3c,0x40,0x5c,0x99,0x46,0x51,0x00,0x99,0x3f,0x31,0x04,0x89,0x3f,0x40,0x00,0x89,
0x46,0x40,0x00,0x99,0x2e,0x3c,0x04,0x89,0x2e,0x40,0x58,0x99,0x46,0x5e,0x04,0x89,
0x46,0x40,0x5c,0x99,0x23,0x72,0x00,0x99,0x45,0x4a,0x00,0x99,0x3c,0x36,0x04,0x89,
0x3c,0x40,0x00,0x89,0x45,0x40,0x00,0x89,0x23,0x40,0x00,0x99,0x2c,0x3f,0x04,0x89,
0x2c,0x40,0x54,0x99,0x45,0x1c,0x04,0x89,0x45,0x40,0x50,0x99,0x45,0x66,0x04,0x89,
0x45,0x40,0x0c,0x99,0x46,0x5e,0x04,0x89,0x46,0x40,0x00,0x99,0x2e,0x43,0x04,0x89,
0x2e,0x40,0x48,0x99,0x45,0x66,0x04,0x89,0x45,0x40,0x0c,0x99,0x3c,0x2b,0x04,0x89,
0x3c,0x40,0x5c,0x99,0x23,0x72,0x04,0x89,0x23,0x40,0x00,0x99,0x28,0x72,0x00,0x99,
0x2c,0x4c,0x04,0x89,0x2c,0x40,0x00,0x89,0x28,0x40,0x00,0x99,0x27,0x63,0x04,0x89,
0x27,0x40,0x54,0x99,0x3c,0x28,0x04,0x89,0x3c,0x40,0x5c,0x99,0x46,0x48,0x00,0x99,
0x3f,0x28,0x04,0x89,0x3f,0x40,0x00,0x89,0x46,0x40,0x5c,0x99,0x46,0x55,0x04,0x89,
0x46,0x40,0x5c,0x99,0x23,0x6e,0x00,0x99,0x3c,0x36,0x04,0x89,0x3c,0x40,0x00,0x89,
0x23,0x40,0x81,0x3c,0x99,0x46,0x5e,0x04,0x89,0x46,0x40,0x00,0x99,0x2e,0x3f,0x04,
0x89,0x2e,0x40,0x58,0x99,0x3c,0x28,0x04,0x89,0x3c,0x40,0x5c,0x99,0x23,0x72,0x04,
0x89,0x23,0x40,0x00,0x99,0x28,0x72,0x00,0x99,0x2c,0x3f,0x04,0x89,0x2c,0x40,0x00,
0x89,0x28,0x40,0x00,0x99,0x27,0x63,0x04,0x89,0x27,0x40,0x54,0x99,0x3c,0x2b,0x04,
0x89,0x3c,0x40,0x5c,0x99,0x46,0x5e,0x00,0x99,0x3f,0x36,0x04,0x89,0x3f,0x40,0x00,
0x89,0x46,0x40,0x00,0x99,0x2e,0x3f,0x04,0x89,0x2e,0x40,0x81,0x38,0x99,0x23,0x72,
0x00,0x99,0x3c,0x31,0x04,0x89,0x3c,0x40,0x00,0x89,0x23,0x40,0x00,0x99,0x2c,0x43,
0x04,0x89,0x2c,0x40,0x81,0x38,0x99,0x46,0x63,0x04,0x89,0x46,0x40,0x00,0x99,0x2e,
0x3f,0x04,0x89,0x2e,0x40,0x58,0x99,0x3c,0x28,0x04,0x89,0x3c,0x40,0x5c,0x99,0x23,
0x6e,0x04,0x89,0x23,0x40,0x00,0x99,0x28,0x72,0x00,0x99,0x2c,0x3f,0x04,0x89,0x2c,
0x40,0x00,0x89,0x28,0x40,0x00,0x99,0x27,0x63,0x04,0x89,0x27,0x40,0x54,0x99,0x3c,
0x2b,0x04,0x89,0x3c,0x40,0x5c,0x99,0x46,0x4e,0x00,0x99,0x3f,0x28,0x04,0x89,0x3f,
0x40,0x00,0x89,0x46,0x40,0x00,0x99,0x2e,0x3f,0x04,0x89,0x2e,0x40,0x58,0x99,0x46,
0x55,0x04,0x89,0x46,0x40,0x5c,0x99,0x23,0x72,0x00,0x99,0x3c,0x31,0x04,0x89,0x3c,
0x40,0x00,0x89,0x23,0x40,0x00,0x99,0x2c,0x3f,0x04,0x89,0x2c,0x40,0x81,0x38,0x99,
0x46,0x63,0x04,0x89,0x46,0x40,0x00,0x99,0x2e,0x3f,0x04,0x89,0x2e,0x40,0x58,0x99,
0x3c,0x28,0x04,0x89,0x3c,0x40,0x5c,0x99,0x23,0x72,0x04,0x89,0x23,0x40,0x00,0x99,
0x28,0x72,0x00,0x99,0x2c,0x43,0x04,0x89,0x2c,0x40,0x00,0x89,0x28,0x40,0x00,0x99,
0x27,0x63,0x04,0x89,0x27,0x40,0x54,0x99,0x3c,0x28,0x04,0x89,0x3c,0x40,0x5c,0x99,
0x46,0x51,0x00,0x99,0x3f,0x31,0x04,0x89,0x3f,0x40,0x00,0x89,0x46,0x40,0x00,0x99,
0x2e,0x43,0x04,0x89,0x2e,0x40,0x58,0x99,0x46,0x63,0x04,0x89,0x46,0x40,0x5c,0x99,
0x23,0x6e,0x00,0x99,0x45,0x4a,0x00,0x99,0x3c,0x36,0x04,0x89,0x3c,0x40,0x00,0x89,
0x45,0x40,0x00,0x89,0x23,0x40,0x00,0x99,0x2c,0x4c,0x04,0x89,0x2c,0x40,0x54,0x99,
0x45,0x1c,0x04,0x89,0x45,0x40,0x50,0x99,0x45,0x66,0x04,0x89,0x45,0x40,0x0c,0x99,
0x46,0x63,0x04,0x89,0x46,0x40,0x00,0x99,0x2e,0x3f,0x04,0x89,0x2e,0x40,0x48,0x99,
0x45,0x66,0x04,0x89,0x45,0x40,0x0c,0x99,0x3c,0x36,0x04,0x89,0x3c,0x40,0x5c,0x99,
0x23,0x72,0x04,0x89,0x23,0x40,0x00,0x99,0x28,0x6e,0x00,0x99,0x2c,0x3c,0x04,0x89,
0x2c,0x40,0x00,0x89,0x28,0x40,0x00,0x99,0x27,0x5f,0x04,0x89,0x27,0x40,0x54,0x99,
0x3c,0x2b,0x04,0x89,0x3c,0x40,0x5c,0x99,0x46,0x51,0x00,0x99,0x3f,0x31,0x04,0x89,
0x3f,0x40,0x00,0x89,0x46,0x40,0x5c,0x99,0x46,0x63,0x04,0x89,0x46,0x40,0x5c,0x99,
0x23,0x6e,0x00,0x99,0x3c,0x36,0x04,0x89,0x3c,0x40,0x00,0x89,0x23,0x40,0x81,0x3c,
0x99,0x46,0x5e,0x04,0x89,0x46,0x40,0x00,0x99,0x2e,0x43,0x04,0x89,0x2e,0x40,0x58,
0x99,0x3c,0x2b,0x04,0x89,0x3c,0x40,0x5c,0x99,0x23,0x72,0x04,0x89,0x23,0x40,0x00,
0x99,0x28,0x6e,0x00,0x99,0x2c,0x43,0x04,0x89,0x2c,0x40,0x00,0x89,0x28,0x40,0x00,
0x99,0x27,0x5f,0x04,0x89,0x27,0x40,0x54,0x99,0x3c,0x31,0x04,0x89,0x3c,0x40,0x5c,
0x99,0x46,0x5e,0x00,0x99,0x3f,0x36,0x04,0x89,0x3f,0x40,0x00,0x89,0x46,0x40,0x00,
0x99,0x2e,0x3f,0x04,0x89,0x2e,0x40,0x81,0x38,0x99,0x23,0x6e,0x00,0x99,0x3c,0x36,
0x04,0x89,0x3c,0x40,0x00,0x89,0x23,0x40,0x00,0x99,0x2c,0x3f,0x04,0x89,0x2c,0x40,
0x81,0x38,0x99,0x46,0x5e,0x04,0x89,0x46,0x40,0x00,0x99,0x2e,0x3c,0x04,0x89,0x2e,
0x40,0x58,0x99,0x3c,0x21,0x04,0x89,0x3c,0x40,0x5c,0x99,0x23,0x6e,0x04,0x89,0x23,
0x40,0x00,0x99,0x28,0x6e,0x00,0x99,0x2c,0x3f,0x04,0x89,0x2c,0x40,0x00,0x89,0x28,
0x40,0x00,0x99,0x27,0x5f,0x04,0x89,0x27,0x40,0x54,0x99,0x3c,0x24,0x04,0x89,0x3c,
0x40,0x5c,0x99,0x46,0x4e,0x00,0x99,0x3f,0x31,0x04,0x89,0x3f,0x40,0x00,0x89,0x46,
0x40,0x00,0x99,0x2e,0x36,0x04,0x89,0x2e,0x40,0x58,0x99,0x46,0x5e,0x04,0x89,0x46,
0x40,0x5c,0x99,0x23,0x6e,0x00,0x99,0x3c,0x36,0x04,0x89,0x3c,0x40,0x00,0x89,0x23,
0x40,0x00,0x99,0x2c,0x3f,0x04,0x89,0x2c,0x40,0x81,0x38,0x99,0x46,0x5e,0x04,0x89,
0x46,0x40,0x00,0x99,0x2e,0x36,0x04,0x89,0x2e,0x40,0x58,0x99,0x3c,0x2b,0x04,0x89,
0x3c,0x40,0x5c,0x99,0x23,0x72,0x04,0x89,0x23,0x40,0x00,0x99,0x28,0x6e,0x00,0x99,
0x2c,0x3f,0x04,0x89,0x2c,0x40,0x00,0x89,0x28,0x40,0x00,0x99,0x27,0x5f,0x04,0x89,
0x27,0x40,0x54,0x99,0x3c,0x28,0x04,0x89,0x3c,0x40,0x5c,0x99,0x46,0x4e,0x00,0x99,
0x3f,0x31,0x04,0x89,0x3f,0x40,0x00,0x89,0x46,0x40,0x00,0x99,0x2e,0x3c,0x04,0x89,
0x2e,0x40,0x58,0x99,0x46,0x63,0x04,0x89,0x46,0x40,0x5c,0x99,0x23,0x72,0x00,0x99,
0x45,0x4a,0x00,0x99,0x3c,0x36,0x04,0x89,0x3c,0x40,0x00,0x89,0x45,0x40,0x00,0x89,
0x23,0x40,0x00,0x99,0x2c,0x3f,0x04,0x89,0x2c,0x40,0x54,0x99,0x45,0x1c,0x04,0x89,
0x45,0x40,0x50,0x99,0x45,0x66,0x04,0x89,0x45,0x40,0x0c,0x99,0x46,0x5e,0x04,0x89,
0x46,0x40,0x00,0x99,0x2e,0x43,0x04,0x89,0x2e,0x40,0x48,0x99,0x45,0x66,0x04,0x89,
0x45,0x40,0x0c,0x99,0x3c,0x2b,0x04,0x89,0x3c,0x40,0x5c,0x99,0x23,0x72,0x04,0x89,
0x23,0x40,0x00,0x99,0x28,0x72,0x00,0x99,0x2c,0x4c,0x04,0x89,0x2c,0x40,0x00,0x89,
0x28,0x40,0x00,0x99,0x27,0x63,0x04,0x89,0x27,0x40,0x54,0x99,0x3c,0x28,0x04,0x89,
0x3c,0x40,0x5c,0x99,0x46,0x48,0x00,0x99,0x3f,0x28,0x04,0x89,0x3f,0x40,0x00,0x89,
0x46,0x40,0x5c,0x99,0x46,0x55,0x04,0x89,0x46,0x40,0x5c,0x99,0x23,0x6e,0x00,0x99,
0x3c,0x36,0x04,0x89,0x3c,0x40,0x00,0x89,0x23,0x40,0x81,0x3c,0x99,0x46,0x5e,0x04,
0x89,0x46,0x40,0x00,0x99,0x2e,0x3f,0x04,0x89,0x2e,0x40,0x58,0x99,0x3c,0x28,0x04,
0x89,0x3c,0x40,0x5c,0x99,0x23,0x72,0x04,0x89,0x23,0x40,0x00,0x99,0x28,0x72,0x00,
0x99,0x2c,0x3f,0x04,0x89,0x2c,0x40,0x00,0x89,0x28,0x40,0x00,0x99,0x27,0x63,0x04,
0x89,0x27,0x40,0x54,0x99,0x3c,0x2b,0x04,0x89,0x3c,0x40,0x5c,0x99,0x46,0x5e,0x00,
0x99,0x3f,0x36,0x04,0x89,0x3f,0x40,0x00,0x89,0x46,0x40,0x00,0x99,0x2e,0x3f,0x04,
0x89,0x2e,0x40,0x81,0x38,0x99,0x23,0x72,0x00,0x99,0x3c,0x31,0x04,0x89,0x3c,0x40,
0x00,0x89,0x23,0x40,0x00,0x99,0x2c,0x43,0x04,0x89,0x2c,0x40,0x81,0x38,0x99,0x46,
0x63,0x04,0x89,0x46,0x40,0x00,0x99,0x2e,0x3f,0x04,0x89,0x2e,0x40,0x58,0x99,0x3c,
0x28,0x04,0x89,0x3c,0x40,0x5c,0x99,0x23,0x6e,0x04,0x89,0x23,0x40,0x00,0x99,0x28,
0x72,0x00,0x99,0x2c,0x3f,0x04,0x89,0x2c,0x40,0x00,0x89,0x28,0x40,0x00,0x99,0x27,
0x63,0x04,0x89,0x27,0x40,0x54,0x99,0x3c,0x2b,0x04,0x89,0x3c,0x40,0x5c,0x99,0x46,
0x4e,0x00,0x99,0x3f,0x28,0x04,0x89,0x3f,0x40,0x00,0x89,0x46,0x40,0x00,0x99,0x2e,
0x3f,0x04,0x89,0x2e,0x40,0x58,0x99,0x46,0x55,0x04,0x89,0x46,0x40,0x5c,0x99,0x23,
0x72,0x00,0x99,0x3c,0x31,0x04,0x89,0x3c,0x40,0x00,0x89,0x23,0x40,0x00,0x99,0x28,
0x6e,0x00,0x99,0x2c,0x3f,0x04,0x89,0x2c,0x40,0x00,0x89,0x28,0x40,0x00,0x99,0x27,
0x5f,0x04,0x89,0x27,0x40,0x81,0x34,0x99,0x46,0x63,0x04,0x89,0x46,0x40,0x00,0x99,
0x2e,0x3f,0x04,0x89,0x2e,0x40,0x58,0x99,0x3c,0x28,0x04,0x89,0x3c,0x40,0x5c,0x99,
0x23,0x72,0x04,0x89,0x23,0x40,0x00,0x99,0x28,0x72,0x00,0x99,0x2c,0x43,0x04,0x89,
0x2c,0x40,0x00,0x89,0x28,0x40,0x00,0x99,0x27,0x63,0x04,0x89,0x27,0x40,0x54,0x99,
0x3c,0x28,0x04,0x89,0x3c,0x40,0x00,0x99,0x28,0x6e,0x04,0x89,0x28,0x40,0x00,0x99,
0x27,0x5f,0x04,0x89,0x27,0x40,0x54,0x99,0x46,0x51,0x00,0x99,0x3f,0x31,0x04,0x89,
0x3f,0x40,0x00,0x89,0x46,0x40,0x00,0x99,0x2e,0x43,0x04,0x89,0x2e,0x40,0x58,0x99,
0x46,0x63,0x04,0x89,0x46,0x40,0x5c,0x99,0x23,0x6e,0x00,0x99,0x45,0x4a,0x00,0x99,
0x3c,0x36,0x04,0x89,0x3c,0x40,0x00,0x89,0x45,0x40,0x00,0x89,0x23,0x40,0x00,0x99,
0x2c,0x4c,0x04,0x89,0x2c,0x40,0x54,0x99,0x45,0x1c,0x04,0x89,0x45,0x40,0x50,0x99,
0x45,0x66,0x04,0x89,0x45,0x40,0x0c,0x99,0x46,0x63,0x04,0x89,0x46,0x40,0x00,0x99,
0x2e,0x3f,0x04,0x89,0x2e,0x40,0x48,0x99,0x45,0x66,0x04,0x89,0x45,0x40,0x0c,0x99,
0x3c,0x36,0x04,0x89,0x3c,0x40,0x5c,0x99,0x23,0x72,0x04,0x89,0x23,0x40,0x00,0x99,
0x28,0x6e,0x00,0x99,0x2c,0x3c,0x04,0x89,0x2c,0x40,0x00,0x89,0x28,0x40,0x00,0x99,
0x27,0x5f,0x04,0x89,0x27,0x40,0x54,0x99,0x3c,0x2b,0x04,0x89,0x3c,0x40,0x5c,0x99,
0x46,0x51,0x00,0x99,0x3f,0x31,0x04,0x89,0x3f,0x40,0x00,0x89,0x46,0x40,0x5c,0x99,
0x46,0x63,0x04,0x89,0x46,0x40,0x5c,0x99,0x23,0x6e,0x00,0x99,0x3c,0x36,0x04,0x89,
0x3c,0x40,0x00,0x89,0x23,0x40,0x81,0x3c,0x99,0x46,0x5e,0x04,0x89,0x46,0x40,0x00,
0x99,0x2e,0x43,0x04,0x89,0x2e,0x40,0x58,0x99,0x3c,0x2b,0x04,0x89,0x3c,0x40,0x5c,
0x99,0x23,0x72,0x04,0x89,0x23,0x40,0x00,0x99,0x28,0x6e,0x00,0x99,0x2c,0x43,0x04,
0x89,0x2c,0x40,0x00,0x89,0x28,0x40,0x00,0x99,0x27,0x5f,0x04,0x89,0x27,0x40,0x54,
0x99,0x3c,0x31,0x04,0x89,0x3c,0x40,0x5c,0x99,0x46,0x5e,0x00,0x99,0x3f,0x36,0x04,
0x89,0x3f,0x40,0x00,0x89,0x46,0x40,0x00,0x99,0x2e,0x3f,0x04,0x89,0x2e,0x40,0x81,
0x38,0x99,0x23,0x6e,0x00,0x99,0x3c,0x36,0x04,0x89,0x3c,0x40,0x00,0x89,0x23,0x40,
0x00,0x99,0x2c,0x3f,0x04,0x89,0x2c,0x40,0x81,0x38,0x99,0x46,0x5e,0x04,0x89,0x46,
0x40,0x00,0x99,0x2e,0x3c,0x04,0x89,0x2e,0x40,0x58,0x99,0x3c,0x21,0x04,0x89,0x3c,
0x40,0x5c,0x99,0x23,0x6e,0x04,0x89,0x23,0x40,0x00,0x99,0x28,0x6e,0x00,0x99,0x2c,
0x3f,0x04,0x89,0x2c,0x40,0x00,0x89,0x28,0x40,0x00,0x99,0x27,0x5f,0x04,0x89,0x27,
0x40,0x54,0x99,0x3c,0x24,0x04,0x89,0x3c,0x40,0x5c,0x99,0x46,0x4e,0x00,0x99,0x3f,
0x31,0x04,0x89,0x3f,0x40,0x00,0x89,0x46,0x40,0x00,0x99,0x2e,0x36,0x04,0x89,0x2e,
0x40,0x58,0x99,0x46,0x5e,0x04,0x89,0x46,0x40,0x5c,0x99,0x23,0x6e,0x00,0x99,0x3c,
0x36,0x04,0x89,0x3c,0x40,0x00,0x89,0x23,0x40,0x00,0x99,0x2c,0x3f,0x04,0x89,0x2c,
0x40,0x81,0x38,0x99,0x46,0x5e,0x04,0x89,0x46,0x40,0x00,0x99,0x2e,0x36,0x04,0x89,
0x2e,0x40,0x58,0x99,0x3c,0x2b,0x04,0x89,0x3c,0x40,0x5c,0x99,0x23,0x72,0x04,0x89,
0x23,0x40,0x00,0x99,0x28,0x6e,0x00,0x99,0x2c,0x3f,0x04,0x89,0x2c,0x40,0x00,0x89,
0x28,0x40,0x00,0x99,0x27,0x5f,0x04,0x89,0x27,0x40,0x54,0x99,0x3c,0x28,0x04,0x89,
0x3c,0x40,0x5c,0x99,0x46,0x4e,0x00,0x99,0x3f,0x31,0x04,0x89,0x3f,0x40,0x00,0x89,
0x46,0x40,0x00,0x99,0x2e,0x3c,0x04,0x89,0x2e,0x40,0x58,0x99,0x46,0x63,0x04,0x89,
0x46,0x40,0x5c,0x99,0x23,0x72,0x00,0x99,0x45,0x4a,0x00,0x99,0x3c,0x36,0x04,0x89,
0x3c,0x40,0x00,0x89,0x45,0x40,0x00,0x89,0x23,0x40,0x00,0x99,0x2c,0x3f,0x04,0x89,
0x2c,0x40,0x54,0x99,0x45,0x1c,0x04,0x89,0x45,0x40,0x50,0x99,0x45,0x66,0x04,0x89,
0x45,0x40,0x0c,0x99,0x46,0x5e,0x04,0x89,0x46,0x40,0x00,0x99,0x2e,0x43,0x04,0x89,
0x2e,0x40,0x48,0x99,0x45,0x66,0x04,0x89,0x45,0x40,0x0c,0x99,0x3c,0x2b,0x04,0x89,
0x3c,0x40,0x5c,0x99,0x23,0x72,0x04,0x89,0x23,0x40,0x00,0x99,0x28,0x72,0x00,0x99,
0x2c,0x4c,0x04,0x89,0x2c,0x40,0x00,0x89,0x28,0x40,0x00,0x99,0x27,0x63,0x04,0x89,
0x27,0x40,0x54,0x99,0x3c,0x28,0x04,0x89,0x3c,0x40,0x5c,0x99,0x46,0x48,0x00,0x99,
0x3f,0x28,0x04,0x89,0x3f,0x40,0x00,0x89,0x46,0x40,0x5c,0x99,0x46,0x55,0x04,0x89,
0x46,0x40,0x5c,0x99,0x23,0x6e,0x00,0x99,0x3c,0x36,0x04,0x89,0x3c,0x40,0x00,0x89,
0x23,0x40,0x81,0x3c,0x99,0x46,0x5e,0x04,0x89,0x46,0x40,0x00,0x99,0x2e,0x3f,0x04,
0x89,0x2e,0x40,0x58,0x99,0x3c,0x28,0x04,0x89,0x3c,0x40,0x5c,0x99,0x23,0x72,0x04,
0x89,0x23,0x40,0x00,0x99,0x28,0x72,0x00,0x99,0x2c,0x3f,0x04,0x89,0x2c,0x40,0x00,
0x89,0x28,0x40,0x00,0x99,0x27,0x63,0x04,0x89,0x27,0x40,0x54,0x99,0x3c,0x2b,0x04,
0x89,0x3c,0x40,0x5c,0x99,0x46,0x5e,0x00,0x99,0x3f,0x36,0x04,0x89,0x3f,0x40,0x00,
0x89,0x46,0x40,0x00,0x99,0x2e,0x3f,0x04,0x89,0x2e,0x40,0x81,0x38,0x99,0x23,0x72,
0x00,0x99,0x3c,0x31,0x04,0x89,0x3c,0x40,0x00,0x89,0x23,0x40,0x00,0x99,0x2c,0x43,
0x04,0x89,0x2c,0x40,0x81,0x38,0x99,0x46,0x63,0x04,0x89,0x46,0x40,0x00,0x99,0x2e,
0x3f,0x04,0x89,0x2e,0x40,0x58,0x99,0x3c,0x28,0x04,0x89,0x3c,0x40,0x5c,0x99,0x23,
0x6e,0x04,0x89,0x23,0x40,0x00,0x99,0x28,0x72,0x00,0x99,0x2c,0x3f,0x04,0x89,0x2c,
0x40,0x00,0x89,0x28,0x40,0x00,0x99,0x27,0x63,0x04,0x89,0x27,0x40,0x54,0x99,0x3c,
0x2b,0x04,0x89,0x3c,0x40,0x5c,0x99,0x46,0x4e,0x00,0x99,0x3f,0x28,0x04,0x89,0x3f,
0x40,0x00,0x89,0x46,0x40,0x00,0x99,0x2e,0x3f,0x04,0x89,0x2e,0x40,0x58,0x99,0x46,
0x55,0x04,0x89,0x46,0x40,0x5c,0x99,0x23,0x72,0x00,0x99,0x3c,0x31,0x04,0x89,0x3c,
0x40,0x00,0x89,0x23,0x40,0x00,0x99,0x2c,0x3f,0x04,0x89,0x2c,0x40,0x81,0x38,0x99,
0x46,0x63,0x04,0x89,0x46,0x40,0x00,0x99,0x2e,0x3f,0x04,0x89,0x2e,0x40,0x58,0x99,
0x3c,0x28,0x04,0x89,0x3c,0x40,0x5c,0x99,0x23,0x72,0x04,0x89,0x23,0x40,0x00,0x99,
0x28,0x72,0x00,0x99,0x2c,0x43,0x04,0x89,0x2c,0x40,0x00,0x89,0x28,0x40,0x00,0x99,
0x27,0x63,0x04,0x89,0x27,0x40,0x54,0x99,0x3c,0x28,0x04,0x89,0x3c,0x40,0x5c,0x99,
0x46,0x51,0x00,0x99,0x3f,0x31,0x04,0x89,0x3f,0x40,0x00,0x89,0x46,0x40,0x00,0x99,
0x2e,0x43,0x04,0x89,0x2e,0x40,0x58,0x99,0x46,0x63,0x04,0x89,0x46,0x40,0x5c,0x99,
0x23,0x6e,0x00,0x99,0x45,0x4a,0x00,0x99,0x3c,0x36,0x04,0x89,0x3c,0x40,0x00,0x89,
0x45,0x40,0x00,0x89,0x23,0x40,0x00,0x99,0x2c,0x4c,0x04,0x89,0x2c,0x40,0x54,0x99,
0x45,0x1c,0x04,0x89,0x45,0x40,0x50,0x99,0x45,0x66,0x04,0x89,0x45,0x40,0x0c,0x99,
0x46,0x63,0x04,0x89,0x46,0x40,0x00,0x99,0x2e,0x3f,0x04,0x89,0x2e,0x40,0x48,0x99,
0x45,0x66,0x04,0x89,0x45,0x40,0x0c,0x99,0x3c,0x36,0x04,0x89,0x3c,0x40,0x5c,0x99,
0x23,0x72,0x04,0x89,0x23,0x40,0x00,0x99,0x28,0x6e,0x00,0x99,0x2c,0x3c,0x04,0x89,
0x2c,0x40,0x00,0x89,0x28,0x40,0x00,0x99,0x27,0x5f,0x04,0x89,0x27,0x40,0x54,0x99,
0x3c,0x2b,0x04,0x89,0x3c,0x40,0x5c,0x99,0x46,0x51,0x00,0x99,0x3f,0x31,0x04,0x89,
0x3f,0x40,0x00,0x89,0x46,0x40,0x5c,0x99,0x46,0x63,0x04,0x89,0x46,0x40,0x5c,0x99,
0x23,0x6e,0x00,0x99,0x3c,0x36,0x04,0x89,0x3c,0x40,0x00,0x89,0x23,0x40,0x81,0x3c,
0x99,0x46,0x5e,0x04,0x89,0x46,0x40,0x00,0x99,0x2e,0x43,0x04,0x89,0x2e,0x40,0x58,
0x99,0x3c,0x2b,0x04,0x89,0x3c,0x40,0x5c,0x99,0x23,0x72,0x04,0x89,0x23,0x40,0x00,
0x99,0x28,0x6e,0x00,0x99,0x2c,0x43,0x04,0x89,0x2c,0x40,0x00,0x89,0x28,0x40,0x00,
0x99,0x27,0x5f,0x04,0x89,0x27,0x40,0x54,0x99,0x3c,0x31,0x04,0x89,0x3c,0x40,0x5c,
0x99,0x46,0x5e,0x00,0x99,0x3f,0x36,0x04,0x89,0x3f,0x40,0x00,0x89,0x46,0x40,0x00,
0x99,0x2e,0x3f,0x04,0x89,0x2e,0x40,0x81,0x38,0x99,0x23,0x6e,0x00,0x99,0x3c,0x36,
0x04,0x89,0x3c,0x40,0x00,0x89,0x23,0x40,0x00,0x99,0x2c,0x3f,0x04,0x89,0x2c,0x40,
0x81,0x38,0x99,0x46,0x5e,0x04,0x89,0x46,0x40,0x00,0x99,0x2e,0x3c,0x04,0x89,0x2e,
0x40,0x58,0x99,0x3c,0x21,0x04,0x89,0x3c,0x40,0x5c,0x99,0x23,0x6e,0x04,0x89,0x23,
0x40,0x00,0x99,0x28,0x6e,0x00,0x99,0x2c,0x3f,0x04,0x89,0x2c,0x40,0x00,0x89,0x28,
0x40,0x00,0x99,0x27,0x5f,0x04,0x89,0x27,0x40,0x54,0x99,0x3c,0x24,0x04,0x89,0x3c,
0x40,0x5c,0x99,0x46,0x4e,0x00,0x99,0x3f,0x31,0x04,0x89,0x3f,0x40,0x00,0x89,0x46,
0x40,0x00,0x99,0x2e,0x36,0x04,0x89,0x2e,0x40,0x58,0x99,0x46,0x5e,0x04,0x89,0x46,
0x40,0x5c,0x99,0x23,0x6e,0x00,0x99,0x3c,0x36,0x04,0x89,0x3c,0x40,0x00,0x89,0x23,
0x40,0x00,0x99,0x2c,0x3f,0x04,0x89,0x2c,0x40,0x81,0x38,0x99,0x46,0x5e,0x04,0x89,
0x46,0x40,0x00,0x99,0x2e,0x36,0x04,0x89,0x2e,0x40,0x58,0x99,0x3c,0x2b,0x04,0x89,
0x3c,0x40,0x5c,0x99,0x23,0x72,0x04,0x89,0x23,0x40,0x00,0x99,0x28,0x6e,0x00,0x99,
0x2c,0x3f,0x04,0x89,0x2c,0x40,0x00,0x89,0x28,0x40,0x00,0x99,0x27,0x5f,0x04,0x89,
0x27,0x40,0x54,0x99,0x3c,0x28,0x04,0x89,0x3c,0x40,0x5c,0x99,0x46,0x4e,0x00,0x99,
0x3f,0x31,0x04,0x89,0x3f,0x40,0x00,0x89,0x46,0x40,0x00,0x99,0x2e,0x3c,0x04,0x89,
0x2e,0x40,0x58,0x99,0x46,0x63,0x04,0x89,0x46,0x40,0x5c,0x99,0x23,0x72,0x00,0x99,
0x45,0x4a,0x00,0x99,0x3c,0x36,0x04,0x89,0x3c,0x40,0x00,0x89,0x45,0x40,0x00,0x89,
0x23,0x40,0x00,0x99,0x2c,0x3f,0x04,0x89,0x2c,0x40,0x54,0x99,0x45,0x1c,0x04,0x89,
0x45,0x40,0x50,0x99,0x45,0x66,0x04,0x89,0x45,0x40,0x0c,0x99,0x46,0x5e,0x04,0x89,
0x46,0x40,0x00,0x99,0x2e,0x43,0x04,0x89,0x2e,0x40,0x48,0x99,0x45,0x66,0x04,0x89,
0x45,0x40,0x0c,0x99,0x3c,0x2b,0x04,0x89,0x3c,0x40,0x5c,0x99,0x23,0x72,0x04,0x89,
0x23,0x40,0x00,0x99,0x28,0x72,0x00,0x99,0x2c,0x4c,0x04,0x89,0x2c,0x40,0x00,0x89,
0x28,0x40,0x00,0x99,0x27,0x63,0x04,0x89,0x27,0x40,0x54,0x99,0x3c,0x28,0x04,0x89,
0x3c,0x40,0x5c,0x99,0x46,0x48,0x00,0x99,0x3f,0x28,0x04,0x89,0x3f,0x40,0x00,0x89,
0x46,0x40,0x5c,0x99,0x46,0x55,0x04,0x89,0x46,0x40,0x5c,0x99,0x23,0x6e,0x00,0x99,
0x3c,0x36,0x04,0x89,0x3c,0x40,0x00,0x89,0x23,0x40,0x81,0x3c,0x99,0x46,0x5e,0x04,
0x89,0x46,0x40,0x00,0x99,0x2e,0x3f,0x04,0x89,0x2e,0x40,0x58,0x99,0x3c,0x28,0x04,
0x89,0x3c,0x40,0x5c,0x99,0x23,0x72,0x04,0x89,0x23,0x40,0x00,0x99,0x28,0x72,0x00,
0x99,0x2c,0x3f,0x04,0x89,0x2c,0x40,0x00,0x89,0x28,0x40,0x00,0x99,0x27,0x63,0x04,
0x89,0x27,0x40,0x54,0x99,0x3c,0x2b,0x04,0x89,0x3c,0x40,0x5c,0x99,0x46,0x5e,0x00,
0x99,0x3f,0x36,0x04,0x89,0x3f,0x40,0x00,0x89,0x46,0x40,0x00,0x99,0x2e,0x3f,0x04,
0x89,0x2e,0x40,0x81,0x38,0x99,0x23,0x72,0x00,0x99,0x3c,0x31,0x04,0x89,0x3c,0x40,
0x00,0x89,0x23,0x40,0x00,0x99,0x2c,0x43,0x04,0x89,0x2c,0x40,0x81,0x38,0x99,0x46,
0x63,0x04,0x89,0x46,0x40,0x00,0x99,0x2e,0x3f,0x04,0x89,0x2e,0x40,0x58,0x99,0x3c,
0x28,0x04,0x89,0x3c,0x40,0x5c,0x99,0x23,0x6e,0x04,0x89,0x23,0x40,0x00,0x99,0x28,
0x72,0x00,0x99,0x2c,0x3f,0x04,0x89,0x2c,0x40,0x00,0x89,0x28,0x40,0x00,0x99,0x27,
0x63,0x04,0x89,0x27,0x40,0x54,0x99,0x3c,0x2b,0x04,0x89,0x3c,0x40,0x5c,0x99,0x46,
0x4e,0x00,0x99,0x3f,0x28,0x04,0x89,0x3f,0x40,0x00,0x89,0x46,0x40,0x00,0x99,0x2e,
0x3f,0x04,0x89,0x2e,0x40,0x58,0x99,0x46,0x55,0x04,0x89,0x46,0x40,0x5c,0x99,0x23,
0x72,0x00,0x99,0x3c,0x31,0x04,0x89,0x3c,0x40,0x00,0x89,0x23,0x40,0x00,0x99,0x2c,
0x3f,0x04,0x89,0x2c,0x40,0x81,0x38,0x99,0x46,0x63,0x04,0x89,0x46,0x40,0x00,0x99,
0x2e,0x3f,0x04,0x89,0x2e,0x40,0x58,0x99,0x3c,0x28,0x04,0x89,0x3c,0x40,0x5c,0x99,
0x23,0x72,0x04,0x89,0x23,0x40,0x00,0x99,0x28,0x72,0x00,0x99,0x2c,0x43,0x04,0x89,
0x2c,0x40,0x00,0x89,0x28,0x40,0x00,0x99,0x27,0x63,0x04,0x89,0x27,0x40,0x54,0x99,
0x3c,0x28,0x04,0x89,0x3c,0x40,0x5c,0x99,0x46,0x51,0x00,0x99,0x3f,0x31,0x04,0x89,
0x3f,0x40,0x00,0x89,0x46,0x40,0x00,0x99,0x2e,0x43,0x04,0x89,0x2e,0x40,0x58,0x99,
0x46,0x63,0x04,0x89,0x46,0x40,0x5c,0x99,0x23,0x6e,0x00,0x99,0x45,0x4a,0x00,0x99,
0x3c,0x36,0x04,0x89,0x3c,0x40,0x00,0x89,0x45,0x40,0x00,0x89,0x23,0x40,0x00,0x99,
0x2c,0x4c,0x04,0x89,0x2c,0x40,0x54,0x99,0x45,0x1c,0x04,0x89,0x45,0x40,0x50,0x99,
0x45,0x66,0x04,0x89,0x45,0x40,0x0c,0x99,0x46,0x63,0x04,0x89,0x46,0x40,0x00,0x99,
0x2e,0x3f,0x04,0x89,0x2e,0x40,0x48,0x99,0x45,0x66,0x04,0x89,0x45,0x40,0x0c,0x99,
0x3c,0x36,0x04,0x89,0x3c,0x40,0x5c,0x99,0x23,0x72,0x04,0x89,0x23,0x40,0x00,0x99,
0x28,0x6e,0x00,0x99,0x2c,0x3c,0x04,0x89,0x2c,0x40,0x00,0x89,0x28,0x40,0x00,0x99,
0x27,0x5f,0x04,0x89,0x27,0x40,0x54,0x99,0x3c,0x2b,0x04,0x89,0x3c,0x40,0x5c,0x99,
0x46,0x51,0x00,0x99,0x3f,0x31,0x04,0x89,0x3f,0x40,0x00,0x89,0x46,0x40,0x5c,0x99,
0x46,0x63,0x04,0x89,0x46,0x40,0x5c,0x99,0x23,0x6e,0x00,0x99,0x3c,0x36,0x04,0x89,
0x3c,0x40,0x00,0x89,0x23,0x40,0x81,0x3c,0x99,0x46,0x5e,0x04,0x89,0x46,0x40,0x00,
0x99,0x2e,0x43,0x04,0x89,0x2e,0x40,0x58,0x99,0x3c,0x2b,0x04,0x89,0x3c,0x40,0x5c,
0x99,0x23,0x72,0x04,0x89,0x23,0x40,0x00,0x99,0x28,0x6e,0x00,0x99,0x2c,0x43,0x04,
0x89,0x2c,0x40,0x00,0x89,0x28,0x40,0x00,0x99,0x27,0x5f,0x04,0x89,0x27,0x40,0x54,
0x99,0x3c,0x31,0x04,0x89,0x3c,0x40,0x5c,0x99,0x46,0x5e,0x00,0x99,0x3f,0x36,0x04,
0x89,0x3f,0x40,0x00,0x89,0x46,0x40,0x00,0x99,0x2e,0x3f,0x04,0x89,0x2e,0x40,0x81,
0x38,0x99,0x23,0x6e,0x00,0x99,0x3c,0x36,0x04,0x89,0x3c,0x40,0x00,0x89,0x23,0x40,
0x00,0x99,0x2c,0x3f,0x04,0x89,0x2c,0x40,0x81,0x38,0x99,0x46,0x5e,0x04,0x89,0x46,
0x40,0x00,0x99,0x2e,0x3c,0x04,0x89,0x2e,0x40,0x58,0x99,0x3c,0x21,0x04,0x89,0x3c,
0x40,0x5c,0x99,0x23,0x6e,0x04,0x89,0x23,0x40,0x00,0x99,0x28,0x6e,0x00,0x99,0x2c,
0x3f,0x04,0x89,0x2c,0x40,0x00,0x89,0x28,0x40,0x00,0x99,0x27,0x5f,0x04,0x89,0x27,
0x40,0x54,0x99,0x3c,0x24,0x04,0x89,0x3c,0x40,0x5c,0x99,0x46,0x4e,0x00,0x99,0x3f,
0x31,0x04,0x89,0x3f,0x40,0x00,0x89,0x46,0x40,0x00,0x99,0x2e,0x36,0x04,0x89,0x2e,
0x40,0x58,0x99,0x46,0x5e,0x04,0x89,0x46,0x40,0x5c,0x99,0x23,0x6e,0x00,0x99,0x3c,
0x36,0x04,0x89,0x3c,0x40,0x00,0x89,0x23,0x40,0x00,0x99,0x2c,0x3f,0x04,0x89,0x2c,
0x40,0x81,0x38,0x99,0x46,0x5e,0x04,0x89,0x46,0x40,0x00,0x99,0x2e,0x36,0x04,0x89,
0x2e,0x40,0x58,0x99,0x3c,0x2b,0x04,0x89,0x3c,0x40,0x5c,0x99,0x23,0x72,0x04,0x89,
0x23,0x40,0x00,0x99,0x28,0x6e,0x00,0x99,0x2c,0x3f,0x04,0x89,0x2c,0x40,0x00,0x89,
0x28,0x40,0x00,0x99,0x27,0x5f,0x04,0x89,0x27,0x40,0x54,0x99,0x3c,0x28,0x04,0x89,
0x3c,0x40,0x5c,0x99,0x46,0x4e,0x00,0x99,0x3f,0x31,0x04,0x89,0x3f,0x40,0x00,0x89,
0x46,0x40,0x00,0x99,0x2e,0x3c,0x04,0x89,0x2e,0x40,0x58,0x99,0x46,0x63,0x04,0x89,
0x46,0x40,0x5c,0x99,0x23,0x72,0x00,0x99,0x45,0x4a,0x00,0x99,0x3c,0x36,0x04,0x89,
0x3c,0x40,0x00,0x89,0x45,0x40,0x00,0x89,0x23,0x40,0x00,0x99,0x2c,0x3f,0x04,0x89,
0x2c,0x40,0x54,0x99,0x45,0x1c,0x04,0x89,0x45,0x40,0x50,0x99,0x45,0x66,0x04,0x89,
0x45,0x40,0x0c,0x99,0x46,0x5e,0x04,0x89,0x46,0x40,0x00,0x99,0x2e,0x43,0x04,0x89,
0x2e,0x40,0x48,0x99,0x45,0x66,0x04,0x89,0x45,0x40,0x0c,0x99,0x3c,0x2b,0x04,0x89,
0x3c,0x40,0x5c,0x99,0x23,0x72,0x04,0x89,0x23,0x40,0x00,0x99,0x28,0x72,0x00,0x99,
0x2c,0x4c,0x04,0x89,0x2c,0x40,0x00,0x89,0x28,0x40,0x00,0x99,0x27,0x63,0x04,0x89,
0x27,0x40,0x54,0x99,0x3c,0x28,0x04,0x89,0x3c,0x40,0x5c,0x99,0x46,0x48,0x00,0x99,
0x3f,0x28,0x04,0x89,0x3f,0x40,0x00,0x89,0x46,0x40,0x5c,0x99,0x46,0x55,0x04,0x89,
0x46,0x40,0x5c,0x99,0x23,0x6e,0x00,0x99,0x3c,0x36,0x04,0x89,0x3c,0x40,0x00,0x89,
0x23,0x40,0x81,0x3c,0x99,0x46,0x5e,0x04,0x89,0x46,0x40,0x00,0x99,0x2e,0x3f,0x04,
0x89,0x2e,0x40,0x58,0x99,0x3c,0x28,0x04,0x89,0x3c,0x40,0x5c,0x99,0x23,0x72,0x04,
0x89,0x23,0x40,0x00,0x99,0x28,0x72,0x00,0x99,0x2c,0x3f,0x04,0x89,0x2c,0x40,0x00,
0x89,0x28,0x40,0x00,0x99,0x27,0x63,0x04,0x89,0x27,0x40,0x54,0x99,0x3c,0x2b,0x04,
0x89,0x3c,0x40,0x5c,0x99,0x46,0x5e,0x00,0x99,0x3f,0x36,0x04,0x89,0x3f,0x40,0x00,
0x89,0x46,0x40,0x00,0x99,0x2e,0x3f,0x04,0x89,0x2e,0x40,0x81,0x38,0x99,0x23,0x72,
0x00,0x99,0x3c,0x31,0x04,0x89,0x3c,0x40,0x00,0x89,0x23,0x40,0x00,0x99,0x2c,0x43,
0x04,0x89,0x2c,0x40,0x81,0x38,0x99,0x46,0x63,0x04,0x89,0x46,0x40,0x00,0x99,0x2e,
0x3f,0x04,0x89,0x2e,0x40,0x58,0x99,0x3c,0x28,0x04,0x89,0x3c,0x40,0x5c,0x99,0x23,
0x6e,0x04,0x89,0x23,0x40,0x00,0x99,0x28,0x72,0x00,0x99,0x2c,0x3f,0x04,0x89,0x2c,
0x40,0x00,0x89,0x28,0x40,0x00,0x99,0x27,0x63,0x04,0x89,0x27,0x40,0x54,0x99,0x3c,
0x2b,0x04,0x89,0x3c,0x40,0x5c,0x99,0x46,0x4e,0x00,0x99,0x3f,0x28,0x04,0x89,0x3f,
0x40,0x00,0x89,0x46,0x40,0x00,0x99,0x2e,0x3f,0x04,0x89,0x2e,0x40,0x58,0x99,0x46,
0x55,0x04,0x89,0x46,0x40,0x5c,0x99,0x23,0x72,0x00,0x99,0x3c,0x31,0x04,0x89,0x3c,
0x40,0x00,0x89,0x23,0x40,0x00,0x99,0x2c,0x3f,0x04,0x89,0x2c,0x40,0x5c,0x99,0x28,
0x6e,0x04,0x89,0x28,0x40,0x00,0x99,0x27,0x5f,0x04,0x89,0x27,0x40,0x54,0x99,0x46,
0x63,0x04,0x89,0x46,0x40,0x00,0x99,0x2e,0x3f,0x04,0x89,0x2e,0x40,0x58,0x99,0x3c,
0x28,0x04,0x89,0x3c,0x40,0x5c,0x99,0x23,0x72,0x04,0x89,0x23,0x40,0x00,0x99,0x28,
0x72,0x00,0x99,0x2c,0x43,0x04,0x89,0x2c,0x40,0x00,0x89,0x28,0x40,0x00,0x99,0x27,
0x63,0x04,0x89,0x27,0x40,0x54,0x99,0x3c,0x28,0x04,0x89,0x3c,0x40,0x5c,0x99,0x46,
0x51,0x00,0x99,0x3f,0x31,0x04,0x89,0x3f,0x40,0x00,0x89,0x46,0x40,0x00,0x99,0x2e,
0x43,0x04,0x89,0x2e,0x40,0x58,0x99,0x46,0x63,0x04,0x89,0x46,0x40,0x00,0x99,0x28,
0x6e,0x04,0x89,0x28,0x40,0x00,0x99,0x27,0x5f,0x04,0x89,0x27,0x40,0x54,0x99,0x23,
0x6e,0x00,0x99,0x45,0x4a,0x00,0x99,0x3c,0x36,0x04,0x89,0x3c,0x40,0x00,0x89,0x45,
0x40,0x00,0x89,0x23,0x40,0x00,0x99,0x2c,0x4c,0x04,0x89,0x2c,0x40,0x54,0x99,0x45,
0x1c,0x04,0x89,0x45,0x40,0x50,0x99,0x45,0x66,0x04,0x89,0x45,0x40,0x0c,0x99,0x46,
0x63,0x04,0x89,0x46,0x40,0x00,0x99,0x2e,0x3f,0x04,0x89,0x2e,0x40,0x48,0x99,0x45,
0x66,0x04,0x89,0x45,0x40,0x0c,0x99,0x3c,0x36,0x04,0x89,0x3c,0x40,0x5c,0x99,0x23,
0x72,0x04,0x89,0x23,0x40,0x00,0x99,0x28,0x6e,0x00,0x99,0x2c,0x3c,0x04,0x89,0x2c,
0x40,0x00,0x89,0x28,0x40,0x00,0x99,0x27,0x5f,0x04,0x89,0x27,0x40,0x54,0x99,0x3c,
0x2b,0x04,0x89,0x3c,0x40,0x50,0x99,0x3f,0x31,0x04,0x89,0x3f,0x40,0x00,0x99,0x46,
0x51,0x04,0x89,0x46,0x40,0x64,0x99,0x46,0x63,0x04,0x89,0x46,0x40,0x5c,0x99,0x23,
0x6e,0x00,0x99,0x3c,0x36,0x04,0x89,0x3c,0x40,0x00,0x89,0x23,0x40,0x81,0x38,0x99,
0x2e,0x43,0x04,0x89,0x2e,0x40,0x00,0x99,0x46,0x5e,0x04,0x89,0x46,0x40,0x5c,0x99,
0x3c,0x2b,0x04,0x89,0x3c,0x40,0x5c,0x99,0x23,0x72,0x04,0x89,0x23,0x40,0x00,0x99,
0x28,0x6e,0x00,0x99,0x2c,0x43,0x04,0x89,0x2c,0x40,0x00,0x89,0x28,0x40,0x00,0x99,
0x27,0x5f,0x04,0x89,0x27,0x40,0x54,0x99,0x3c,0x31,0x04,0x89,0x3c,0x40,0x5c,0x99,
0x46,0x5e,0x00,0x99,0x3f,0x36,0x04,0x89,0x3f,0x40,0x00,0x89,0x46,0x40,0x00,0x99,
0x2e,0x3f,0x04,0x89,0x2e,0x40,0x81,0x38,0x99,0x23,0x6e,0x00,0x99,0x3c,0x36,0x04,
0x89,0x3c,0x40,0x00,0x89,0x23,0x40,0x00,0x99,0x2c,0x3f,0x04,0x89,0x2c,0x40,0x81,
0x38,0x99,0x46,0x5e,0x04,0x89,0x46,0x40,0x00,0x99,0x2e,0x3c,0x04,0x89,0x2e,0x40,
0x58,0x99,0x3c,0x21,0x04,0x89,0x3c,0x40,0x5c,0x99,0x23,0x6e,0x04,0x89,0x23,0x40,
0x00,0x99,0x28,0x6e,0x00,0x99,0x2c,0x3f,0x04,0x89,0x2c,0x40,0x00,0x89,0x28,0x40,
0x00,0x99,0x27,0x5f,0x04,0x89,0x27,0x40,0x54,0x99,0x3c,0x24,0x04,0x89,0x3c,0x40,
0x5c,0x99,0x46,0x4e,0x00,0x99,0x3f,0x31,0x04,0x89,0x3f,0x40,0x00,0x89,0x46,0x40,
0x00,0x99,0x2e,0x36,0x04,0x89,0x2e,0x40,0x58,0x99,0x46,0x5e,0x04,0x89,0x46,0x40,
0x5c,0x99,0x23,0x6e,0x00,0x99,0x3c,0x36,0x04,0x89,0x3c,0x40,0x00,0x89,0x23,0x40,
0x00,0x99,0x2c,0x3f,0x04,0x89,0x2c,0x40,0x81,0x38,0x99,0x46,0x5e,0x04,0x89,0x46,
0x40,0x00,0x99,0x2e,0x36,0x04,0x89,0x2e,0x40,0x58,0x99,0x3c,0x2b,0x04,0x89,0x3c,
0x40,0x5c,0x99,0x23,0x72,0x04,0x89,0x23,0x40,0x00,0x99,0x28,0x6e,0x00,0x99,0x2c,
0x3f,0x04,0x89,0x2c,0x40,0x00,0x89,0x28,0x40,0x00,0x99,0x27,0x5f,0x04,0x89,0x27,
0x40,0x54,0x99,0x3c,0x28,0x04,0x89,0x3c,0x40,0x5c,0x99,0x46,0x4e,0x00,0x99,0x3f,
0x31,0x04,0x89,0x3f,0x40,0x00,0x89,0x46,0x40,0x00,0x99,0x2e,0x3c,0x04,0x89,0x2e,
0x40,0x58,0x99,0x46,0x63,0x04,0x89,0x46,0x40,0x5c,0x99,0x23,0x72,0x00,0x99,0x45,
0x4a,0x00,0x99,0x3c,0x36,0x04,0x89,0x3c,0x40,0x00,0x89,0x45,0x40,0x00,0x89,0x23,
0x40,0x00,0x99,0x2c,0x3f,0x04,0x89,0x2c,0x40,0x54,0x99,0x45,0x1c,0x04,0x89,0x45,
0x40,0x50,0x99,0x45,0x66,0x04,0x89,0x45,0x40,0x0c,0x99,0x46,0x5e,0x04,0x89,0x46,
0x40,0x00,0x99,0x2e,0x43,0x04,0x89,0x2e,0x40,0x48,0x99,0x45,0x66,0x04,0x89,0x45,
0x40,0x0c,0x99,0x3c,0x2b,0x04,0x89,0x3c,0x40,0x5c,0x99,0x23,0x72,0x04,0x89,0x23,
0x40,0x00,0x99,0x28,0x72,0x00,0x99,0x2c,0x4c,0x04,0x89,0x2c,0x40,0x00,0x89,0x28,
0x40,0x00,0x99,0x27,0x63,0x04,0x89,0x27,0x40,0x54,0x99,0x3c,0x28,0x04,0x89,0x3c,
0x40,0x5c,0x99,0x46,0x48,0x00,0x99,0x3f,0x28,0x04,0x89,0x3f,0x40,0x00,0x89,0x46,
0x40,0x5c,0x99,0x46,0x55,0x04,0x89,0x46,0x40,0x5c,0x99,0x23,0x6e,0x00,0x99,0x3c,
0x36,0x04,0x89,0x3c,0x40,0x00,0x89,0x23,0x40,0x81,0x3c,0x99,0x46,0x5e,0x04,0x89,
0x46,0x40,0x00,0x99,0x2e,0x3f,0x04,0x89,0x2e,0x40,0x58,0x99,0x3c,0x28,0x04,0x89,
0x3c,0x40,0x5c,0x99,0x23,0x72,0x04,0x89,0x23,0x40,0x00,0x99,0x28,0x72,0x00,0x99,
0x2c,0x3f,0x04,0x89,0x2c,0x40,0x00,0x89,0x28,0x40,0x00,0x99,0x27,0x63,0x04,0x89,
0x27,0x40,0x54,0x99,0x3c,0x2b,0x04,0x89,0x3c,0x40,0x5c,0x99,0x46,0x5e,0x00,0x99,
0x3f,0x36,0x04,0x89,0x3f,0x40,0x00,0x89,0x46,0x40,0x00,0x99,0x2e,0x3f,0x04,0x89,
0x2e,0x40,0x81,0x38,0x99,0x23,0x72,0x00,0x99,0x3c,0x31,0x04,0x89,0x3c,0x40,0x00,
0x89,0x23,0x40,0x00,0x99,0x2c,0x43,0x04,0x89,0x2c,0x40,0x81,0x38,0x99,0x46,0x63,
0x04,0x89,0x46,0x40,0x00,0x99,0x2e,0x3f,0x04,0x89,0x2e,0x40,0x58,0x99,0x3c,0x28,
0x04,0x89,0x3c,0x40,0x5c,0x99,0x23,0x6e,0x04,0x89,0x23,0x40,0x00,0x99,0x28,0x72,
0x00,0x99,0x2c,0x3f,0x04,0x89,0x2c,0x40,0x00,0x89,0x28,0x40,0x00,0x99,0x27,0x63,
0x04,0x89,0x27,0x40,0x54,0x99,0x3c,0x2b,0x04,0x89,0x3c,0x40,0x5c,0x99,0x46,0x4e,
0x00,0x99,0x3f,0x28,0x04,0x89,0x3f,0x40,0x00,0x89,0x46,0x40,0x00,0x99,0x2e,0x3f,
0x04,0x89,0x2e,0x40,0x58,0x99,0x46,0x55,0x04,0x89,0x46,0x40,0x5c,0x99,0x23,0x72,
0x00,0x99,0x3c,0x31,0x04,0x89,0x3c,0x40,0x00,0x89,0x23,0x40,0x00,0x99,0x2c,0x3f,
0x04,0x89,0x2c,0x40,0x81,0x38,0x99,0x46,0x63,0x04,0x89,0x46,0x40,0x00,0x99,0x2e,
0x3f,0x04,0x89,0x2e,0x40,0x58,0x99,0x3c,0x28,0x04,0x89,0x3c,0x40,0x5c,0x99,0x23,
0x72,0x04,0x89,0x23,0x40,0x00,0x99,0x28,0x72,0x00,0x99,0x2c,0x43,0x04,0x89,0x2c,
0x40,0x00,0x89,0x28,0x40,0x00,0x99,0x27,0x63,0x04,0x89,0x27,0x40,0x54,0x99,0x3c,
0x28,0x04,0x89,0x3c,0x40,0x5c,0x99,0x46,0x51,0x00,0x99,0x3f,0x31,0x04,0x89,0x3f,
0x40,0x00,0x89,0x46,0x40,0x00,0x99,0x2e,0x43,0x04,0x89,0x2e,0x40,0x58,0x99,0x46,
0x63,0x04,0x89,0x46,0x40,0x5c,0x99,0x23,0x6e,0x00,0x99,0x45,0x4a,0x00,0x99,0x3c,
0x36,0x04,0x89,0x3c,0x40,0x00,0x89,0x45,0x40,0x00,0x89,0x23,0x40,0x00,0x99,0x2c,
0x4c,0x04,0x89,0x2c,0x40,0x54,0x99,0x45,0x1c,0x04,0x89,0x45,0x40,0x50,0x99,0x45,
0x66,0x04,0x89,0x45,0x40,0x0c,0x99,0x46,0x63,0x04,0x89,0x46,0x40,0x00,0x99,0x2e,
0x3f,0x04,0x89,0x2e,0x40,0x48,0x99,0x45,0x66,0x04,0x89,0x45,0x40,0x0c,0x99,0x3c,
0x36,0x04,0x89,0x3c,0x40,0x5c,0x99,0x23,0x72,0x04,0x89,0x23,0x40,0x00,0x99,0x28,
0x6e,0x00,0x99,0x2c,0x3c,0x04,0x89,0x2c,0x40,0x00,0x89,0x28,0x40,0x00,0x99,0x27,
0x5f,0x04,0x89,0x27,0x40,0x54,0x99,0x3c,0x2b,0x04,0x89,0x3c,0x40,0x5c,0x99,0x46,
0x51,0x00,0x99,0x3f,0x31,0x04,0x89,0x3f,0x40,0x00,0x89,0x46,0x40,0x5c,0x99,0x46,
0x63,0x04,0x89,0x46,0x40,0x5c,0x99,0x23,0x6e,0x00,0x99,0x3c,0x36,0x04,0x89,0x3c,
0x40,0x00,0x89,0x23,0x40,0x81,0x3c,0x99,0x46,0x5e,0x04,0x89,0x46,0x40,0x00,0x99,
0x2e,0x43,0x04,0x89,0x2e,0x40,0x58,0x99,0x3c,0x2b,0x04,0x89,0x3c,0x40,0x5c,0x99,
0x23,0x72,0x04,0x89,0x23,0x40,0x00,0x99,0x28,0x6e,0x00,0x99,0x2c,0x43,0x04,0x89,
0x2c,0x40,0x00,0x89,0x28,0x40,0x00,0x99,0x27,0x5f,0x04,0x89,0x27,0x40,0x54,0x99,
0x3c,0x31,0x04,0x89,0x3c,0x40,0x5c,0x99,0x46,0x5e,0x00,0x99,0x3f,0x36,0x04,0x89,
0x3f,0x40,0x00,0x89,0x46,0x40,0x00,0x99,0x2e,0x3f,0x04,0x89,0x2e,0x40,0x81,0x38,
0x99,0x23,0x6e,0x00,0x99,0x3c,0x36,0x04,0x89,0x3c,0x40,0x00,0x89,0x23,0x40,0x00,
0x99,0x2c,0x3f,0x04,0x89,0x2c,0x40,0x81,0x38,0x99,0x46,0x5e,0x04,0x89,0x46,0x40,
0x00,0x99,0x2e,0x3c,0x04,0x89,0x2e,0x40,0x58,0x99,0x3c,0x21,0x04,0x89,0x3c,0x40,
0x5c,0x99,0x23,0x6e,0x04,0x89,0x23,0x40,0x00,0x99,0x28,0x6e,0x00,0x99,0x2c,0x3f,
0x04,0x89,0x2c,0x40,0x00,0x89,0x28,0x40,0x00,0x99,0x27,0x5f,0x04,0x89,0x27,0x40,
0x54,0x99,0x3c,0x24,0x04,0x89,0x3c,0x40,0x5c,0x99,0x46,0x4e,0x00,0x99,0x3f,0x31,
0x04,0x89,0x3f,0x40,0x00,0x89,0x46,0x40,0x00,0x99,0x2e,0x36,0x04,0x89,0x2e,0x40,
0x58,0x99,0x46,0x5e,0x04,0x89,0x46,0x40,0x5c,0x99,0x23,0x6e,0x00,0x99,0x3c,0x36,
0x04,0x89,0x3c,0x40,0x00,0x89,0x23,0x40,0x00,0x99,0x2c,0x3f,0x04,0x89,0x2c,0x40,
0x81,0x38,0x99,0x46,0x5e,0x04,0x89,0x46,0x40,0x00,0x99,0x2e,0x36,0x04,0x89,0x2e,
0x40,0x58,0x99,0x3c,0x2b,0x04,0x89,0x3c,0x40,0x5c,0x99,0x23,0x72,0x04,0x89,0x23,
0x40,0x00,0x99,0x28,0x6e,0x00,0x99,0x2c,0x3f,0x04,0x89,0x2c,0x40,0x00,0x89,0x28,
0x40,0x00,0x99,0x27,0x5f,0x04,0x89,0x27,0x40,0x54,0x99,0x3c,0x28,0x04,0x89,0x3c,
0x40,0x5c,0x99,0x46,0x4e,0x00,0x99,0x3f,0x31,0x04,0x89,0x3f,0x40,0x00,0x89,0x46,
0x40,0x00,0x99,0x2e,0x3c,0x04,0x89,0x2e,0x40,0x58,0x99,0x46,0x63,0x04,0x89,0x46,
0x40,0x5c,0x99,0x23,0x72,0x00,0x99,0x45,0x4a,0x00,0x99,0x3c,0x36,0x04,0x89,0x3c,
0x40,0x00,0x89,0x45,0x40,0x00,0x89,0x23,0x40,0x00,0x99,0x2c,0x3f,0x04,0x89,0x2c,
0x40,0x54,0x99,0x45,0x1c,0x04,0x89,0x45,0x40,0x50,0x99,0x45,0x66,0x04,0x89,0x45,
0x40,0x0c,0x99,0x46,0x5e,0x04,0x89,0x46,0x40,0x00,0x99,0x2e,0x43,0x04,0x89,0x2e,
0x40,0x48,0x99,0x45,0x66,0x04,0x89,0x45,0x40,0x0c,0x99,0x3c,0x2b,0x04,0x89,0x3c,
0x40,0x5c,0x99,0x23,0x72,0x04,0x89,0x23,0x40,0x00,0x99,0x28,0x72,0x00,0x99,0x2c,
0x4c,0x04,0x89,0x2c,0x40,0x00,0x89,0x28,0x40,0x00,0x99,0x27,0x63,0x04,0x89,0x27,
0x40,0x54,0x99,0x3c,0x28,0x04,0x89,0x3c,0x40,0x5c,0x99,0x46,0x48,0x00,0x99,0x3f,
0x28,0x04,0x89,0x3f,0x40,0x00,0x89,0x46,0x40,0x5c,0x99,0x46,0x55,0x04,0x89,0x46,
0x40,0x5c,0x99,0x23,0x6e,0x00,0x99,0x3c,0x36,0x04,0x89,0x3c,0x40,0x00,0x89,0x23,
0x40,0x81,0x3c,0x99,0x46,0x5e,0x04,0x89,0x46,0x40,0x00,0x99,0x2e,0x3f,0x04,0x89,
0x2e,0x40,0x58,0x99,0x3c,0x28,0x04,0x89,0x3c,0x40,0x5c,0x99,0x23,0x72,0x04,0x89,
0x23,0x40,0x00,0x99,0x28,0x72,0x00,0x99,0x2c,0x3f,0x04,0x89,0x2c,0x40,0x00,0x89,
0x28,0x40,0x00,0x99,0x27,0x63,0x04,0x89,0x27,0x40,0x54,0x99,0x3c,0x2b,0x04,0x89,
0x3c,0x40,0x5c,0x99,0x46,0x5e,0x00,0x99,0x3f,0x36,0x04,0x89,0x3f,0x40,0x00,0x89,
0x46,0x40,0x00,0x99,0x2e,0x3f,0x04,0x89,0x2e,0x40,0x81,0x38,0x99,0x23,0x72,0x00,
0x99,0x3c,0x31,0x04,0x89,0x3c,0x40,0x00,0x89,0x23,0x40,0x00,0x99,0x2c,0x43,0x04,
0x89,0x2c,0x40,0x81,0x38,0x99,0x46,0x63,0x04,0x89,0x46,0x40,0x00,0x99,0x2e,0x3f,
0x04,0x89,0x2e,0x40,0x58,0x99,0x3c,0x28,0x04,0x89,0x3c,0x40,0x5c,0x99,0x23,0x6e,
0x04,0x89,0x23,0x40,0x00,0x99,0x28,0x72,0x00,0x99,0x2c,0x3f,0x04,0x89,0x2c,0x40,
0x00,0x89,0x28,0x40,0x00,0x99,0x27,0x63,0x04,0x89,0x27,0x40,0x54,0x99,0x3c,0x2b,
0x04,0x89,0x3c,0x40,0x5c,0x99,0x46,0x4e,0x00,0x99,0x3f,0x28,0x04,0x89,0x3f,0x40,
0x00,0x89,0x46,0x40,0x00,0x99,0x2e,0x3f,0x04,0x89,0x2e,0x40,0x58,0x99,0x46,0x55,
0x04,0x89,0x46,0x40,0x5c,0x99,0x23,0x72,0x00,0x99,0x3c,0x31,0x04,0x89,0x3c,0x40,
0x00,0x89,0x23,0x40,0x00,0x99,0x28,0x6e,0x00,0x99,0x2c,0x3f,0x04,0x89,0x2c,0x40,
0x00,0x89,0x28,0x40,0x00,0x99,0x27,0x5f,0x04,0x89,0x27,0x40,0x81,0x34,0x99,0x46,
0x63,0x04,0x89,0x46,0x40,0x00,0x99,0x2e,0x3f,0x04,0x89,0x2e,0x40,0x58,0x99,0x3c,
0x28,0x04,0x89,0x3c,0x40,0x5c,0x99,0x23,0x72,0x04,0x89,0x23,0x40,0x00,0x99,0x28,
0x72,0x00,0x99,0x2c,0x43,0x04,0x89,0x2c,0x40,0x00,0x89,0x28,0x40,0x00,0x99,0x27,
0x63,0x04,0x89,0x27,0x40,0x54,0x99,0x3c,0x28,0x04,0x89,0x3c,0x40,0x00,0x99,0x28,
0x72,0x04,0x89,0x28,0x40,0x00,0x99,0x27,0x63,0x04,0x89,0x27,0x40,0x54,0x99,0x46,
0x51,0x00,0x99,0x3f,0x31,0x04,0x89,0x3f,0x40,0x00,0x89,0x46,0x40,0x00,0x99,0x2e,
0x43,0x04,0x89,0x2e,0x40,0x58,0x99,0x46,0x63,0x04,0x89,0x46,0x40,0x5c,0x99,0x23,
0x6e,0x00,0x99,0x45,0x4a,0x00,0x99,0x3c,0x36,0x04,0x89,0x3c,0x40,0x00,0x89,0x45,
0x40,0x00,0x89,0x23,0x40,0x00,0x99,0x2c,0x4c,0x04,0x89,0x2c,0x40,0x54,0x99,0x45,
0x1c,0x04,0x89,0x45,0x40,0x50,0x99,0x45,0x66,0x04,0x89,0x45,0x40,0x0c,0x99,0x46,
0x63,0x04,0x89,0x46,0x40,0x00,0x99,0x2e,0x3f,0x04,0x89,0x2e,0x40,0x48,0x99,0x45,
0x66,0x04,0x89,0x45,0x40,0x0c,0x99,0x3c,0x36,0x04,0x89,0x3c,0x40,0x5c,0x99,0x23,
0x72,0x04,0x89,0x23,0x40,0x00,0x99,0x28,0x6e,0x00,0x99,0x2c,0x3c,0x04,0x89,0x2c,
0x40,0x00,0x89,0x28,0x40,0x00,0x99,0x27,0x5f,0x04,0x89,0x27,0x40,0x54,0x99,0x3c,
0x2b,0x04,0x89,0x3c,0x40,0x5c,0x99,0x46,0x51,0x00,0x99,0x3f,0x31,0x04,0x89,0x3f,
0x40,0x00,0x89,0x46,0x40,0x5c,0x99,0x46,0x63,0x04,0x89,0x46,0x40,0x5c,0x99,0x23,
0x6e,0x00,0x99,0x3c,0x36,0x04,0x89,0x3c,0x40,0x00,0x89,0x23,0x40,0x81,0x3c,0x99,
0x46,0x5e,0x04,0x89,0x46,0x40,0x00,0x99,0x2e,0x43,0x04,0x89,0x2e,0x40,0x58,0x99,
0x3c,0x2b,0x04,0x89,0x3c,0x40,0x5c,0x99,0x23,0x72,0x04,0x89,0x23,0x40,0x00,0x99,
0x28,0x6e,0x00,0x99,0x2c,0x43,0x04,0x89,0x2c,0x40,0x00,0x89,0x28,0x40,0x00,0x99,
0x27,0x5f,0x04,0x89,0x27,0x40,0x54,0x99,0x3c,0x31,0x04,0x89,0x3c,0x40,0x5c,0x99,
0x46,0x5e,0x00,0x99,0x3f,0x36,0x04,0x89,0x3f,0x40,0x00,0x89,0x46,0x40,0x00,0x99,
0x2e,0x3f,0x04,0x89,0x2e,0x40,0x81,0x38,0x99,0x23,0x6e,0x00,0x99,0x3c,0x36,0x04,
0x89,0x3c,0x40,0x00,0x89,0x23,0x40,0x00,0x99,0x2c,0x3f,0x04,0x89,0x2c,0x40,0x81,
0x38,0x99,0x46,0x5e,0x04,0x89,0x46,0x40,0x00,0x99,0x2e,0x3c,0x04,0x89,0x2e,0x40,
0x58,0x99,0x3c,0x21,0x04,0x89,0x3c,0x40,0x5c,0x99,0x23,0x6e,0x04,0x89,0x23,0x40,
0x00,0x99,0x28,0x6e,0x00,0x99,0x2c,0x3f,0x04,0x89,0x2c,0x40,0x00,0x89,0x28,0x40,
0x00,0x99,0x27,0x5f,0x04,0x89,0x27,0x40,0x54,0x99,0x3c,0x24,0x04,0x89,0x3c,0x40,
0x5c,0x99,0x46,0x4e,0x00,0x99,0x3f,0x31,0x04,0x89,0x3f,0x40,0x00,0x89,0x46,0x40,
0x00,0x99,0x2e,0x36,0x04,0x89,0x2e,0x40,0x58,0x99,0x46,0x5e,0x04,0x89,0x46,0x40,
0x5c,0x99,0x23,0x6e,0x00,0x99,0x3c,0x36,0x04,0x89,0x3c,0x40,0x00,0x89,0x23,0x40,
0x00,0x99,0x2c,0x3f,0x04,0x89,0x2c,0x40,0x81,0x38,0x99,0x46,0x5e,0x04,0x89,0x46,
0x40,0x00,0x99,0x2e,0x36,0x04,0x89,0x2e,0x40,0x58,0x99,0x3c,0x2b,0x04,0x89,0x3c,
0x40,0x5c,0x99,0x23,0x72,0x04,0x89,0x23,0x40,0x00,0x99,0x28,0x6e,0x00,0x99,0x2c,
0x3f,0x04,0x89,0x2c,0x40,0x00,0x89,0x28,0x40,0x00,0x99,0x27,0x5f,0x04,0x89,0x27,
0x40,0x54,0x99,0x3c,0x28,0x04,0x89,0x3c,0x40,0x5c,0x99,0x46,0x4e,0x00,0x99,0x3f,
0x31,0x04,0x89,0x3f,0x40,0x00,0x89,0x46,0x40,0x00,0x99,0x2e,0x3c,0x04,0x89,0x2e,
0x40,0x58,0x99,0x46,0x63,0x04,0x89,0x46,0x40,0x5c,0x99,0x23,0x72,0x00,0x99,0x45,
0x4a,0x00,0x99,0x3c,0x36,0x04,0x89,0x3c,0x40,0x00,0x89,0x45,0x40,0x00,0x89,0x23,
0x40,0x00,0x99,0x2c,0x3f,0x04,0x89,0x2c,0x40,0x54,0x99,0x45,0x1c,0x04,0x89,0x45,
0x40,0x50,0x99,0x45,0x66,0x04,0x89,0x45,0x40,0x0c,0x99,0x46,0x5e,0x04,0x89,0x46,
0x40,0x00,0x99,0x2e,0x43,0x04,0x89,0x2e,0x40,0x48,0x99,0x45,0x66,0x04,0x89,0x45,
0x40,0x0c,0x99,0x3c,0x2b,0x04,0x89,0x3c,0x40,0x5c,0x99,0x23,0x72,0x04,0x89,0x23,
0x40,0x00,0x99,0x28,0x72,0x00,0x99,0x2c,0x4c,0x04,0x89,0x2c,0x40,0x00,0x89,0x28,
0x40,0x00,0x99,0x27,0x63,0x04,0x89,0x27,0x40,0x54,0x99,0x3c,0x28,0x04,0x89,0x3c,
0x40,0x5c,0x99,0x46,0x48,0x00,0x99,0x3f,0x28,0x04,0x89,0x3f,0x40,0x00,0x89,0x46,
0x40,0x5c,0x99,0x46,0x55,0x04,0x89,0x46,0x40,0x5c,0x99,0x23,0x6e,0x00,0x99,0x3c,
0x36,0x04,0x89,0x3c,0x40,0x00,0x89,0x23,0x40,0x81,0x3c,0x99,0x46,0x5e,0x04,0x89,
0x46,0x40,0x00,0x99,0x2e,0x3f,0x04,0x89,0x2e,0x40,0x58,0x99,0x3c,0x28,0x04,0x89,
0x3c,0x40,0x5c,0x99,0x23,0x72,0x04,0x89,0x23,0x40,0x00,0x99,0x28,0x72,0x00,0x99,
0x2c,0x3f,0x04,0x89,0x2c,0x40,0x00,0x89,0x28,0x40,0x00,0x99,0x27,0x63,0x04,0x89,
0x27,0x40,0x54,0x99,0x3c,0x2b,0x04,0x89,0x3c,0x40,0x5c,0x99,0x46,0x5e,0x00,0x99,
0x3f,0x36,0x04,0x89,0x3f,0x40,0x00,0x89,0x46,0x40,0x00,0x99,0x2e,0x3f,0x04,0x89,
0x2e,0x40,0x81,0x38,0x99,0x23,0x72,0x00,0x99,0x3c,0x31,0x04,0x89,0x3c,0x40,0x00,
0x89,0x23,0x40,0x00,0x99,0x2c,0x43,0x04,0x89,0x2c,0x40,0x81,0x38,0x99,0x46,0x63,
0x04,0x89,0x46,0x40,0x00,0x99,0x2e,0x3f,0x04,0x89,0x2e,0x40,0x58,0x99,0x3c,0x28,
0x04,0x89,0x3c,0x40,0x5c,0x99,0x23,0x6e,0x04,0x89,0x23,0x40,0x00,0x99,0x28,0x72,
0x00,0x99,0x2c,0x3f,0x04,0x89,0x2c,0x40,0x00,0x89,0x28,0x40,0x00,0x99,0x27,0x63,
0x04,0x89,0x27,0x40,0x54,0x99,0x3c,0x2b,0x04,0x89,0x3c,0x40,0x5c,0x99,0x46,0x4e,
0x00,0x99,0x3f,0x28,0x04,0x89,0x3f,0x40,0x00,0x89,0x46,0x40,0x00,0x99,0x2e,0x3f,
0x04,0x89,0x2e,0x40,0x58,0x99,0x46,0x55,0x04,0x89,0x46,0x40,0x5c,0x99,0x23,0x72,
0x00,0x99,0x3c,0x31,0x04,0x89,0x3c,0x40,0x00,0x89,0x23,0x40,0x00,0x99,0x2c,0x3f,
0x04,0x89,0x2c,0x40,0x81,0x38,0x99,0x46,0x63,0x04,0x89,0x46,0x40,0x00,0x99,0x2e,
0x3f,0x04,0x89,0x2e,0x40,0x58,0x99,0x3c,0x28,0x04,0x89,0x3c,0x40,0x5c,0x99,0x23,
0x72,0x04,0x89,0x23,0x40,0x00,0x99,0x28,0x72,0x00,0x99,0x2c,0x43,0x04,0x89,0x2c,
0x40,0x00,0x89,0x28,0x40,0x00,0x99,0x27,0x63,0x04,0x89,0x27,0x40,0x54,0x99,0x3c,
0x28,0x04,0x89,0x3c,0x40,0x5c,0x99,0x46,0x51,0x00,0x99,0x3f,0x31,0x04,0x89,0x3f,
0x40,0x00,0x89,0x46,0x40,0x00,0x99,0x2e,0x43,0x04,0x89,0x2e,0x40,0x58,0x99,0x46,
0x63,0x04,0x89,0x46,0x40,0x5c,0x99,0x23,0x6e,0x00,0x99,0x45,0x4a,0x00,0x99,0x3c,
0x36,0x04,0x89,0x3c,0x40,0x00,0x89,0x45,0x40,0x00,0x89,0x23,0x40,0x00,0x99,0x2c,
0x4c,0x04,0x89,0x2c,0x40,0x54,0x99,0x45,0x1c,0x04,0x89,0x45,0x40,0x50,0x99,0x45,
0x66,0x04,0x89,0x45,0x40,0x0c,0x99,0x46,0x63,0x04,0x89,0x46,0x40,0x00,0x99,0x2e,
0x3f,0x04,0x89,0x2e,0x40,0x48,0x99,0x45,0x66,0x04,0x89,0x45,0x40,0x0c,0x99,0x3c,
0x36,0x04,0x89,0x3c,0x40,0x5c,0x99,0x23,0x72,0x04,0x89,0x23,0x40,0x00,0x99,0x28,
0x6e,0x00,0x99,0x2c,0x3c,0x04,0x89,0x2c,0x40,0x00,0x89,0x28,0x40,0x00,0x99,0x27,
0x5f,0x04,0x89,0x27,0x40,0x54,0x99,0x3c,0x2b,0x04,0x89,0x3c,0x40,0x5c,0x99,0x46,
0x51,0x00,0x99,0x3f,0x31,0x04,0x89,0x3f,0x40,0x00,0x89,0x46,0x40,0x5c,0x99,0x46,
0x63,0x04,0x89,0x46,0x40,0x5c,0x99,0x23,0x6e,0x00,0x99,0x3c,0x36,0x04,0x89,0x3c,
0x40,0x00,0x89,0x23,0x40,0x81,0x3c,0x99,0x46,0x5e,0x04,0x89,0x46,0x40,0x00,0x99,
0x2e,0x43,0x04,0x89,0x2e,0x40,0x58,0x99,0x3c,0x2b,0x04,0x89,0x3c,0x40,0x5c,0x99,
0x23,0x72,0x04,0x89,0x23,0x40,0x00,0x99,0x28,0x6e,0x00,0x99,0x2c,0x43,0x04,0x89,
0x2c,0x40,0x00,0x89,0x28,0x40,0x00,0x99,0x27,0x5f,0x04,0x89,0x27,0x40,0x54,0x99,
0x3c,0x31,0x04,0x89,0x3c,0x40,0x5c,0x99,0x46,0x5e,0x00,0x99,0x3f,0x36,0x04,0x89,
0x3f,0x40,0x00,0x89,0x46,0x40,0x00,0x99,0x2e,0x3f,0x04,0x89,0x2e,0x40,0x81,0x38,
0x99,0x23,0x6e,0x00,0x99,0x3c,0x36,0x04,0x89,0x3c,0x40,0x00,0x89,0x23,0x40,0x00,
0x99,0x2c,0x3f,0x04,0x89,0x2c,0x40,0x81,0x38,0x99,0x46,0x5e,0x04,0x89,0x46,0x40,
0x00,0x99,0x2e,0x3c,0x04,0x89,0x2e,0x40,0x58,0x99,0x3c,0x21,0x04,0x89,0x3c,0x40,
0x5c,0x99,0x23,0x6e,0x04,0x89,0x23,0x40,0x00,0x99,0x28,0x6e,0x00,0x99,0x2c,0x3f,
0x04,0x89,0x2c,0x40,0x00,0x89,0x28,0x40,0x00,0x99,0x27,0x5f,0x04,0x89,0x27,0x40,
0x54,0x99,0x3c,0x24,0x04,0x89,0x3c,0x40,0x5c,0x99,0x46,0x4e,0x00,0x99,0x3f,0x31,
0x04,0x89,0x3f,0x40,0x00,0x89,0x46,0x40,0x00,0x99,0x2e,0x36,0x04,0x89,0x2e,0x40,
0x58,0x99,0x46,0x5e,0x04,0x89,0x46,0x40,0x5c,0x99,0x23,0x6e,0x00,0x99,0x3c,0x36,
0x04,0x89,0x3c,0x40,0x00,0x89,0x23,0x40,0x00,0x99,0x2c,0x3f,0x04,0x89,0x2c,0x40,
0x81,0x38,0x99,0x46,0x5e,0x04,0x89,0x46,0x40,0x00,0x99,0x2e,0x36,0x04,0x89,0x2e,
0x40,0x58,0x99,0x3c,0x2b,0x04,0x89,0x3c,0x40,0x5c,0x99,0x23,0x72,0x04,0x89,0x23,
0x40,0x00,0x99,0x28,0x6e,0x00,0x99,0x2c,0x3f,0x04,0x89,0x2c,0x40,0x00,0x89,0x28,
0x40,0x00,0x99,0x27,0x5f,0x04,0x89,0x27,0x40,0x54,0x99,0x3c,0x28,0x04,0x89,0x3c,
0x40,0x5c,0x99,0x46,0x4e,0x00,0x99,0x3f,0x31,0x04,0x89,0x3f,0x40,0x00,0x89,0x46,
0x40,0x00,0x99,0x2e,0x3c,0x04,0x89,0x2e,0x40,0x58,0x99,0x46,0x63,0x04,0x89,0x46,
0x40,0x5c,0x99,0x23,0x72,0x00,0x99,0x45,0x4a,0x00,0x99,0x3c,0x36,0x04,0x89,0x3c,
0x40,0x00,0x89,0x45,0x40,0x00,0x89,0x23,0x40,0x00,0x99,0x2c,0x3f,0x04,0x89,0x2c,
0x40,0x54,0x99,0x45,0x1c,0x04,0x89,0x45,0x40,0x50,0x99,0x45,0x66,0x04,0x89,0x45,
0x40,0x0c,0x99,0x46,0x5e,0x04,0x89,0x46,0x40,0x00,0x99,0x2e,0x43,0x04,0x89,0x2e,
0x40,0x48,0x99,0x45,0x66,0x04,0x89,0x45,0x40,0x0c,0x99,0x3c,0x2b,0x04,0x89,0x3c,
0x40,0x5c,0x99,0x23,0x72,0x04,0x89,0x23,0x40,0x00,0x99,0x28,0x72,0x00,0x99,0x2c,
0x4c,0x04,0x89,0x2c,0x40,0x00,0x89,0x28,0x40,0x00,0x99,0x27,0x63,0x04,0x89,0x27,
0x40,0x54,0x99,0x3c,0x28,0x04,0x89,0x3c,0x40,0x5c,0x99,0x46,0x48,0x00,0x99,0x3f,
0x28,0x04,0x89,0x3f,0x40,0x00,0x89,0x46,0x40,0x5c,0x99,0x46,0x55,0x04,0x89,0x46,
0x40,0x5c,0x99,0x23,0x6e,0x00,0x99,0x3c,0x36,0x04,0x89,0x3c,0x40,0x00,0x89,0x23,
0x40,0x81,0x3c,0x99,0x46,0x5e,0x04,0x89,0x46,0x40,0x00,0x99,0x2e,0x3f,0x04,0x89,
0x2e,0x40,0x58,0x99,0x3c,0x28,0x04,0x89,0x3c,0x40,0x5c,0x99,0x23,0x72,0x04,0x89,
0x23,0x40,0x00,0x99,0x28,0x72,0x00,0x99,0x2c,0x3f,0x04,0x89,0x2c,0x40,0x00,0x89,
0x28,0x40,0x00,0x99,0x27,0x63,0x04,0x89,0x27,0x40,0x54,0x99,0x3c,0x2b,0x04,0x89,
0x3c,0x40,0x5c,0x99,0x46,0x5e,0x00,0x99,0x3f,0x36,0x04,0x89,0x3f,0x40,0x00,0x89,
0x46,0x40,0x00,0x99,0x2e,0x3f,0x04,0x89,0x2e,0x40,0x81,0x38,0x99,0x23,0x72,0x00,
0x99,0x3c,0x31,0x04,0x89,0x3c,0x40,0x00,0x89,0x23,0x40,0x00,0x99,0x2c,0x43,0x04,
0x89,0x2c,0x40,0x81,0x38,0x99,0x46,0x63,0x04,0x89,0x46,0x40,0x00,0x99,0x2e,0x3f,
0x04,0x89,0x2e,0x40,0x58,0x99,0x3c,0x28,0x04,0x89,0x3c,0x40,0x5c,0x99,0x23,0x6e,
0x04,0x89,0x23,0x40,0x00,0x99,0x28,0x72,0x00,0x99,0x2c,0x3f,0x04,0x89,0x2c,0x40,
0x00,0x89,0x28,0x40,0x00,0x99,0x27,0x63,0x04,0x89,0x27,0x40,0x54,0x99,0x3c,0x2b,
0x04,0x89,0x3c,0x40,0x5c,0x99,0x46,0x4e,0x00,0x99,0x3f,0x28,0x04,0x89,0x3f,0x40,
0x00,0x89,0x46,0x40,0x00,0x99,0x2e,0x3f,0x04,0x89,0x2e,0x40,0x58,0x99,0x46,0x55,
0x04,0x89,0x46,0x40,0x5c,0x99,0x23,0x72,0x00,0x99,0x3c,0x31,0x04,0x89,0x3c,0x40,
0x00,0x89,0x23,0x40,0x00,0x99,0x2c,0x3f,0x04,0x89,0x2c,0x40,0x81,0x38,0x99,0x46,
0x63,0x04,0x89,0x46,0x40,0x00,0x99,0x2e,0x3f,0x04,0x89,0x2e,0x40,0x58,0x99,0x3c,
0x28,0x04,0x89,0x3c,0x40,0x5c,0x99,0x23,0x72,0x04,0x89,0x23,0x40,0x00,0x99,0x28,
0x72,0x00,0x99,0x2c,0x43,0x04,0x89,0x2c,0x40,0x00,0x89,0x28,0x40,0x00,0x99,0x27,
0x63,0x04,0x89,0x27,0x40,0x54,0x99,0x3c,0x28,0x04,0x89,0x3c,0x40,0x5c,0x99,0x46,
0x51,0x00,0x99,0x3f,0x31,0x04,0x89,0x3f,0x40,0x00,0x89,0x46,0x40,0x00,0x99,0x2e,
0x43,0x04,0x89,0x2e,0x40,0x58,0x99,0x46,0x63,0x04,0x89,0x46,0x40,0x5c,0x99,0x23,
0x6e,0x00,0x99,0x45,0x4a,0x00,0x99,0x3c,0x36,0x04,0x89,0x3c,0x40,0x00,0x89,0x45,
0x40,0x00,0x89,0x23,0x40,0x00,0x99,0x2c,0x4c,0x04,0x89,0x2c,0x40,0x54,0x99,0x45,
0x1c,0x04,0x89,0x45,0x40,0x50,0x99,0x45,0x66,0x04,0x89,0x45,0x40,0x0c,0x99,0x46,
0x63,0x04,0x89,0x46,0x40,0x00,0x99,0x2e,0x3f,0x04,0x89,0x2e,0x40,0x48,0x99,0x45,
0x66,0x04,0x89,0x45,0x40,0x0c,0x99,0x3c,0x36,0x04,0x89,0x3c,0x40,0x5c,0x99,0x23,
0x72,0x04,0x89,0x23,0x40,0x00,0x99,0x28,0x6e,0x00,0x99,0x2c,0x3c,0x04,0x89,0x2c,
0x40,0x00,0x89,0x28,0x40,0x00,0x99,0x27,0x5f,0x04,0x89,0x27,0x40,0x54,0x99,0x3c,
0x2b,0x04,0x89,0x3c,0x40,0x5c,0x99,0x46,0x51,0x00,0x99,0x3f,0x31,0x04,0x89,0x3f,
0x40,0x00,0x89,0x46,0x40,0x5c,0x99,0x46,0x63,0x04,0x89,0x46,0x40,0x5c,0x99,0x23,
0x6e,0x00,0x99,0x3c,0x36,0x04,0x89,0x3c,0x40,0x00,0x89,0x23,0x40,0x81,0x3c,0x99,
0x46,0x5e,0x04,0x89,0x46,0x40,0x00,0x99,0x2e,0x43,0x04,0x89,0x2e,0x40,0x58,0x99,
0x3c,0x2b,0x04,0x89,0x3c,0x40,0x5c,0x99,0x23,0x72,0x04,0x89,0x23,0x40,0x00,0x99,
0x28,0x6e,0x00,0x99,0x2c,0x43,0x04,0x89,0x2c,0x40,0x00,0x89,0x28,0x40,0x00,0x99,
0x27,0x5f,0x04,0x89,0x27,0x40,0x54,0x99,0x3c,0x31,0x04,0x89,0x3c,0x40,0x5c,0x99,
0x46,0x5e,0x00,0x99,0x3f,0x36,0x04,0x89,0x3f,0x40,0x00,0x89,0x46,0x40,0x00,0x99,
0x2e,0x3f,0x04,0x89,0x2e,0x40,0x81,0x38,0x99,0x23,0x6e,0x00,0x99,0x3c,0x36,0x04,
0x89,0x3c,0x40,0x00,0x89,0x23,0x40,0x00,0x99,0x2c,0x3f,0x04,0x89,0x2c,0x40,0x81,
0x38,0x99,0x46,0x5e,0x04,0x89,0x46,0x40,0x00,0x99,0x2e,0x3c,0x04,0x89,0x2e,0x40,
0x58,0x99,0x3c,0x21,0x04,0x89,0x3c,0x40,0x5c,0x99,0x23,0x6e,0x04,0x89,0x23,0x40,
0x00,0x99,0x28,0x6e,0x00,0x99,0x2c,0x3f,0x04,0x89,0x2c,0x40,0x00,0x89,0x28,0x40,
0x00,0x99,0x27,0x5f,0x04,0x89,0x27,0x40,0x54,0x99,0x3c,0x24,0x04,0x89,0x3c,0x40,
0x5c,0x99,0x46,0x4e,0x00,0x99,0x3f,0x31,0x04,0x89,0x3f,0x40,0x00,0x89,0x46,0x40,
0x00,0x99,0x2e,0x36,0x04,0x89,0x2e,0x40,0x58,0x99,0x46,0x5e,0x04,0x89,0x46,0x40,
0x5c,0x99,0x23,0x6e,0x00,0x99,0x3c,0x36,0x04,0x89,0x3c,0x40,0x00,0x89,0x23,0x40,
0x00,0x99,0x2c,0x3f,0x04,0x89,0x2c,0x40,0x81,0x38,0x99,0x46,0x5e,0x04,0x89,0x46,
0x40,0x00,0x99,0x2e,0x36,0x04,0x89,0x2e,0x40,0x58,0x99,0x3c,0x2b,0x04,0x89,0x3c,
0x40,0x5c,0x99,0x23,0x72,0x04,0x89,0x23,0x40,0x00,0x99,0x28,0x6e,0x00,0x99,0x2c,
0x3f,0x04,0x89,0x2c,0x40,0x00,0x89,0x28,0x40,0x00,0x99,0x27,0x5f,0x04,0x89,0x27,
0x40,0x54,0x99,0x3c,0x28,0x04,0x89,0x3c,0x40,0x5c,0x99,0x46,0x4e,0x00,0x99,0x3f,
0x31,0x04,0x89,0x3f,0x40,0x00,0x89,0x46,0x40,0x00,0x99,0x2e,0x3c,0x04,0x89,0x2e,
0x40,0x58,0x99,0x46,0x63,0x04,0x89,0x46,0x40,0x5c,0x99,0x23,0x72,0x00,0x99,0x45,
0x4a,0x00,0x99,0x3c,0x36,0x04,0x89,0x3c,0x40,0x00,0x89,0x45,0x40,0x00,0x89,0x23,
0x40,0x00,0x99,0x2c,0x3f,0x04,0x89,0x2c,0x40,0x54,0x99,0x45,0x1c,0x04,0x89,0x45,
0x40,0x50,0x99,0x45,0x66,0x04,0x89,0x45,0x40,0x0c,0x99,0x46,0x5e,0x04,0x89,0x46,
0x40,0x00,0x99,0x2e,0x43,0x04,0x89,0x2e,0x40,0x48,0x99,0x45,0x66,0x04,0x89,0x45,
0x40,0x0c,0x99,0x3c,0x2b,0x04,0x89,0x3c,0x40,0x5c,0x99,0x23,0x72,0x04,0x89,0x23,
0x40,0x00,0x99,0x28,0x72,0x00,0x99,0x2c,0x4c,0x04,0x89,0x2c,0x40,0x00,0x89,0x28,
0x40,0x00,0x99,0x27,0x63,0x04,0x89,0x27,0x40,0x54,0x99,0x3c,0x28,0x04,0x89,0x3c,
0x40,0x5c,0x99,0x46,0x48,0x00,0x99,0x3f,0x28,0x04,0x89,0x3f,0x40,0x00,0x89,0x46,
0x40,0x5c,0x99,0x46,0x55,0x04,0x89,0x46,0x40,0x5c,0x99,0x23,0x6e,0x00,0x99,0x3c,
0x36,0x04,0x89,0x3c,0x40,0x00,0x89,0x23,0x40,0x81,0x3c,0x99,0x46,0x5e,0x04,0x89,
0x46,0x40,0x00,0x99,0x2e,0x3f,0x04,0x89,0x2e,0x40,0x58,0x99,0x3c,0x28,0x04,0x89,
0x3c,0x40,0x5c,0x99,0x23,0x72,0x04,0x89,0x23,0x40,0x00,0x99,0x28,0x72,0x00,0x99,
0x2c,0x3f,0x04,0x89,0x2c,0x40,0x00,0x89,0x28,0x40,0x00,0x99,0x27,0x63,0x04,0x89,
0x27,0x40,0x54,0x99,0x3c,0x2b,0x04,0x89,0x3c,0x40,0x5c,0x99,0x46,0x5e,0x00,0x99,
0x3f,0x36,0x04,0x89,0x3f,0x40,0x00,0x89,0x46,0x40,0x00,0x99,0x2e,0x3f,0x04,0x89,
0x2e,0x40,0x81,0x38,0x99,0x23,0x72,0x00,0x99,0x3c,0x31,0x04,0x89,0x3c,0x40,0x00,
0x89,0x23,0x40,0x00,0x99,0x2c,0x43,0x04,0x89,0x2c,0x40,0x81,0x38,0x99,0x46,0x63,
0x04,0x89,0x46,0x40,0x00,0x99,0x2e,0x3f,0x04,0x89,0x2e,0x40,0x58,0x99,0x3c,0x28,
0x04,0x89,0x3c,0x40,0x5c,0x99,0x23,0x6e,0x04,0x89,0x23,0x40,0x00,0x99,0x28,0x72,
0x00,0x99,0x2c,0x3f,0x04,0x89,0x2c,0x40,0x00,0x89,0x28,0x40,0x00,0x99,0x27,0x63,
0x04,0x89,0x27,0x40,0x54,0x99,0x3c,0x2b,0x04,0x89,0x3c,0x40,0x5c,0x99,0x46,0x4e,
0x00,0x99,0x3f,0x28,0x04,0x89,0x3f,0x40,0x00,0x89,0x46,0x40,0x00,0x99,0x2e,0x3f,
0x04,0x89,0x2e,0x40,0x58,0x99,0x46,0x55,0x04,0x89,0x46,0x40,0x5c,0x99,0x23,0x72,
0x00,0x99,0x3c,0x31,0x04,0x89,0x3c,0x40,0x00,0x89,0x23,0x40,0x00,0x99,0x2c,0x3f,
0x04,0x89,0x2c,0x40,0x5c,0x99,0x28,0x72,0x04,0x89,0x28,0x40,0x00,0x99,0x27,0x63,
0x04,0x89,0x27,0x40,0x54,0x99,0x46,0x63,0x04,0x89,0x46,0x40,0x00,0x99,0x2e,0x3f,
0x04,0x89,0x2e,0x40,0x58,0x99,0x3c,0x28,0x04,0x89,0x3c,0x40,0x5c,0x99,0x23,0x72,
0x04,0x89,0x23,0x40,0x00,0x99,0x28,0x72,0x00,0x99,0x2c,0x43,0x04,0x89,0x2c,0x40,
0x00,0x89,0x28,0x40,0x00,0x99,0x27,0x63,0x04,0x89,0x27,0x40,0x54,0x99,0x3c,0x28,
0x04,0x89,0x3c,0x40,0x5c,0x99,0x46,0x51,0x00,0x99,0x3f,0x31,0x04,0x89,0x3f,0x40,
0x00,0x89,0x46,0x40,0x00,0x99,0x2e,0x43,0x04,0x89,0x2e,0x40,0x58,0x99,0x46,0x63,
0x04,0x89,0x46,0x40,0x00,0x99,0x28,0x6e,0x04,0x89,0x28,0x40,0x00,0x99,0x27,0x5f,
0x04,0x89,0x27,0x40,0x54,0x99,0x23,0x6e,0x00,0x99,0x45,0x4a,0x00,0x99,0x3c,0x36,
0x04,0x89,0x3c,0x40,0x00,0x89,0x45,0x40,0x00,0x89,0x23,0x40,0x00,0x99,0x2c,0x4c,
0x04,0x89,0x2c,0x40,0x54,0x99,0x45,0x1c,0x04,0x89,0x45,0x40,0x50,0x99,0x45,0x66,
0x04,0x89,0x45,0x40,0x0c,0x99,0x46,0x63,0x04,0x89,0x46,0x40,0x00,0x99,0x2e,0x3f,
0x04,0x89,0x2e,0x40,0x48,0x99,0x45,0x66,0x04,0x89,0x45,0x40,0x0c,0x99,0x3c,0x36,
0x04,0x89,0x3c,0x40,0x5c,0x99,0x23,0x72,0x04,0x89,0x23,0x40,0x00,0x99,0x28,0x6e,
0x00,0x99,0x2c,0x3c,0x04,0x89,0x2c,0x40,0x00,0x89,0x28,0x40,0x00,0x99,0x27,0x5f,
0x04,0x89,0x27,0x40,0x54,0x99,0x3c,0x2b,0x04,0x89,0x3c,0x40,0x5c,0x99,0x46,0x51,
0x00,0x99,0x3f,0x31,0x04,0x89,0x3f,0x40,0x00,0x89,0x46,0x40,0x5c,0x99,0x46,0x63,
0x04,0x89,0x46,0x40,0x5c,0x99,0x23,0x6e,0x00,0x99,0x3c,0x36,0x04,0x89,0x3c,0x40,
0x00,0x89,0x23,0x40,0x81,0x3c,0x99,0x46,0x5e,0x04,0x89,0x46,0x40,0x00,0x99,0x2e,
0x43,0x04,0x89,0x2e,0x40,0x58,0x99,0x3c,0x2b,0x04,0x89,0x3c,0x40,0x5c,0x99,0x23,
0x72,0x04,0x89,0x23,0x40,0x00,0x99,0x28,0x6e,0x00,0x99,0x2c,0x43,0x04,0x89,0x2c,
0x40,0x00,0x89,0x28,0x40,0x00,0x99,0x27,0x5f,0x04,0x89,0x27,0x40,0x54,0x99,0x3c,
0x31,0x04,0x89,0x3c,0x40,0x5c,0x99,0x46,0x5e,0x00,0x99,0x3f,0x36,0x04,0x89,0x3f,
0x40,0x00,0x89,0x46,0x40,0x00,0x99,0x2e,0x3f,0x04,0x89,0x2e,0x40,0x81,0x38,0x99,
0x23,0x6e,0x00,0x99,0x3c,0x36,0x04,0x89,0x3c,0x40,0x00,0x89,0x23,0x40,0x00,0x99,
0x2c,0x3f,0x04,0x89,0x2c,0x40,0x81,0x38,0x99,0x46,0x5e,0x04,0x89,0x46,0x40,0x00,
0x99,0x2e,0x3c,0x04,0x89,0x2e,0x40,0x58,0x99,0x3c,0x21,0x04,0x89,0x3c,0x40,0x5c,
0x99,0x23,0x6e,0x04,0x89,0x23,0x40,0x00,0x99,0x28,0x6e,0x00,0x99,0x2c,0x3f,0x04,
0x89,0x2c,0x40,0x00,0x89,0x28,0x40,0x00,0x99,0x27,0x5f,0x04,0x89,0x27,0x40,0x54,
0x99,0x3c,0x24,0x04,0x89,0x3c,0x40,0x5c,0x99,0x46,0x4e,0x00,0x99,0x3f,0x31,0x04,
0x89,0x3f,0x40,0x00,0x89,0x46,0x40,0x00,0x99,0x2e,0x36,0x04,0x89,0x2e,0x40,0x58,
0x99,0x46,0x5e,0x04,0x89,0x46,0x40,0x5c,0x99,0x23,0x6e,0x00,0x99,0x3c,0x36,0x04,
0x89,0x3c,0x40,0x00,0x89,0x23,0x40,0x00,0x99,0x2c,0x3f,0x04,0x89,0x2c,0x40,0x81,
0x38,0x99,0x46,0x5e,0x04,0x89,0x46,0x40,0x00,0x99,0x2e,0x36,0x04,0x89,0x2e,0x40,
0x58,0x99,0x3c,0x2b,0x04,0x89,0x3c,0x40,0x5c,0x99,0x23,0x72,0x04,0x89,0x23,0x40,
0x00,0x99,0x28,0x6e,0x00,0x99,0x2c,0x3f,0x04,0x89,0x2c,0x40,0x00,0x89,0x28,0x40,
0x00,0x99,0x27,0x5f,0x04,0x89,0x27,0x40,0x54,0x99,0x3c,0x28,0x04,0x89,0x3c,0x40,
0x5c,0x99,0x46,0x4e,0x00,0x99,0x3f,0x31,0x04,0x89,0x3f,0x40,0x00,0x89,0x46,0x40,
0x00,0x99,0x2e,0x3c,0x04,0x89,0x2e,0x40,0x58,0x99,0x46,0x63,0x04,0x89,0x46,0x40,
0x5c,0x99,0x23,0x72,0x00,0x99,0x45,0x4a,0x00,0x99,0x3c,0x36,0x04,0x89,0x3c,0x40,
0x00,0x89,0x45,0x40,0x00,0x89,0x23,0x40,0x00,0x99,0x2c,0x3f,0x04,0x89,0x2c,0x40,
0x54,0x99,0x45,0x1c,0x04,0x89,0x45,0x40,0x50,0x99,0x45,0x66,0x04,0x89,0x45,0x40,
0x0c,0x99,0x46,0x5e,0x04,0x89,0x46,0x40,0x00,0x99,0x2e,0x43,0x04,0x89,0x2e,0x40,
0x48,0x99,0x45,0x66,0x04,0x89,0x45,0x40,0x0c,0x99,0x3c,0x2b,0x04,0x89,0x3c,0x40,
0x5c,0x99,0x23,0x72,0x04,0x89,0x23,0x40,0x00,0x99,0x28,0x72,0x00,0x99,0x2c,0x4c,
0x04,0x89,0x2c,0x40,0x00,0x89,0x28,0x40,0x00,0x99,0x27,0x63,0x04,0x89,0x27,0x40,
0x54,0x99,0x3c,0x28,0x04,0x89,0x3c,0x40,0x5c,0x99,0x46,0x48,0x00,0x99,0x3f,0x28,
0x04,0x89,0x3f,0x40,0x00,0x89,0x46,0x40,0x5c,0x99,0x46,0x55,0x04,0x89,0x46,0x40,
0x5c,0x99,0x23,0x6e,0x00,0x99,0x3c,0x36,0x04,0x89,0x3c,0x40,0x00,0x89,0x23,0x40,
0x81,0x3c,0x99,0x46,0x5e,0x04,0x89,0x46,0x40,0x00,0x99,0x2e,0x3f,0x04,0x89,0x2e,
0x40,0x58,0x99,0x3c,0x28,0x04,0x89,0x3c,0x40,0x5c,0x99,0x23,0x72,0x04,0x89,0x23,
0x40,0x00,0x99,0x28,0x72,0x00,0x99,0x2c,0x3f,0x04,0x89,0x2c,0x40,0x00,0x89,0x28,
0x40,0x00,0x99,0x27,0x63,0x04,0x89,0x27,0x40,0x54,0x99,0x3c,0x2b,0x04,0x89,0x3c,
0x40,0x5c,0x99,0x46,0x5e,0x00,0x99,0x3f,0x36,0x04,0x89,0x3f,0x40,0x00,0x89,0x46,
0x40,0x00,0x99,0x2e,0x3f,0x04,0x89,0x2e,0x40,0x81,0x38,0x99,0x23,0x72,0x00,0x99,
0x3c,0x31,0x04,0x89,0x3c,0x40,0x00,0x89,0x23,0x40,0x00,0x99,0x2c,0x43,0x04,0x89,
0x2c,0x40,0x81,0x38,0x99,0x46,0x63,0x04,0x89,0x46,0x40,0x00,0x99,0x2e,0x3f,0x04,
0x89,0x2e,0x40,0x58,0x99,0x3c,0x28,0x04,0x89,0x3c,0x40,0x5c,0x99,0x23,0x6e,0x04,
0x89,0x23,0x40,0x00,0x99,0x28,0x72,0x00,0x99,0x2c,0x3f,0x04,0x89,0x2c,0x40,0x00,
0x89,0x28,0x40,0x00,0x99,0x27,0x63,0x04,0x89,0x27,0x40,0x54,0x99,0x3c,0x2b,0x04,
0x89,0x3c,0x40,0x5c,0x99,0x46,0x4e,0x00,0x99,0x3f,0x28,0x04,0x89,0x3f,0x40,0x00,
0x89,0x46,0x40,0x00,0x99,0x2e,0x3f,0x04,0x89,0x2e,0x40,0x58,0x99,0x46,0x55,0x04,
0x89,0x46,0x40,0x5c,0x99,0x23,0x72,0x00,0x99,0x3c,0x31,0x04,0x89,0x3c,0x40,0x00,
0x89,0x23,0x40,0x00,0x99,0x2c,0x3f,0x04,0x89,0x2c,0x40,0x81,0x38,0x99,0x46,0x63,
0x04,0x89,0x46,0x40,0x00,0x99,0x2e,0x3f,0x04,0x89,0x2e,0x40,0x58,0x99,0x3c,0x28,
0x04,0x89,0x3c,0x40,0x5c,0x99,0x23,0x72,0x04,0x89,0x23,0x40,0x00,0x99,0x28,0x72,
0x00,0x99,0x2c,0x43,0x04,0x89,0x2c,0x40,0x00,0x89,0x28,0x40,0x00,0x99,0x27,0x63,
0x04,0x89,0x27,0x40,0x54,0x99,0x3c,0x28,0x04,0x89,0x3c,0x40,0x5c,0x99,0x46,0x51,
0x00,0x99,0x3f,0x31,0x04,0x89,0x3f,0x40,0x00,0x89,0x46,0x40,0x00,0x99,0x2e,0x43,
0x04,0x89,0x2e,0x40,0x58,0x99,0x46,0x63,0x04,0x89,0x46,0x40,0x5c,0x99,0x23,0x6e,
0x00,0x99,0x45,0x4a,0x00,0x99,0x3c,0x36,0x04,0x89,0x3c,0x40,0x00,0x89,0x45,0x40,
0x00,0x89,0x23,0x40,0x00,0x99,0x2c,0x4c,0x04,0x89,0x2c,0x40,0x54,0x99,0x45,0x1c,
0x04,0x89,0x45,0x40,0x50,0x99,0x45,0x66,0x04,0x89,0x45,0x40,0x0c,0x99,0x46,0x63,
0x04,0x89,0x46,0x40,0x00,0x99,0x2e,0x3f,0x04,0x89,0x2e,0x40,0x48,0x99,0x45,0x66,
0x04,0x89,0x45,0x40,0x0c,0x99,0x3c,0x36,0x04,0x89,0x3c,0x40,0x5c,0x99,0x23,0x72,
0x04,0x89,0x23,0x40,0x00,0x99,0x28,0x6e,0x00,0x99,0x2c,0x3c,0x04,0x89,0x2c,0x40,
0x00,0x89,0x28,0x40,0x00,0x99,0x27,0x5f,0x04,0x89,0x27,0x40,0x54,0x99,0x3c,0x2b,
0x04,0x89,0x3c,0x40,0x5c,0x99,0x46,0x51,0x00,0x99,0x3f,0x31,0x04,0x89,0x3f,0x40,
0x00,0x89,0x46,0x40,0x5c,0x99,0x46,0x63,0x04,0x89,0x46,0x40,0x5c,0x99,0x23,0x6e,
0x00,0x99,0x3c,0x36,0x04,0x89,0x3c,0x40,0x00,0x89,0x23,0x40,0x81,0x3c,0x99,0x46,
0x5e,0x04,0x89,0x46,0x40,0x00,0x99,0x2e,0x43,0x04,0x89,0x2e,0x40,0x58,0x99,0x3c,
0x2b,0x04,0x89,0x3c,0x40,0x5c,0x99,0x23,0x72,0x04,0x89,0x23,0x40,0x00,0x99,0x28,
0x6e,0x00,0x99,0x2c,0x43,0x04,0x89,0x2c,0x40,0x00,0x89,0x28,0x40,0x00,0x99,0x27,
0x5f,0x04,0x89,0x27,0x40,0x54,0x99,0x3c,0x31,0x04,0x89,0x3c,0x40,0x5c,0x99,0x46,
0x5e,0x00,0x99,0x3f,0x36,0x04,0x89,0x3f,0x40,0x00,0x89,0x46,0x40,0x00,0x99,0x2e,
0x3f,0x04,0x89,0x2e,0x40,0x81,0x38,0x99,0x23,0x6e,0x00,0x99,0x3c,0x36,0x04,0x89,
0x3c,0x40,0x00,0x89,0x23,0x40,0x00,0x99,0x2c,0x3f,0x04,0x89,0x2c,0x40,0x81,0x38,
0x99,0x46,0x5e,0x04,0x89,0x46,0x40,0x00,0x99,0x2e,0x3c,0x04,0x89,0x2e,0x40,0x58,
0x99,0x3c,0x21,0x04,0x89,0x3c,0x40,0x5c,0x99,0x23,0x6e,0x04,0x89,0x23,0x40,0x00,
0x99,0x28,0x6e,0x00,0x99,0x2c,0x3f,0x04,0x89,0x2c,0x40,0x00,0x89,0x28,0x40,0x00,
0x99,0x27,0x5f,0x04,0x89,0x27,0x40,0x54,0x99,0x3c,0x24,0x04,0x89,0x3c,0x40,0x5c,
0x99,0x46,0x4e,0x00,0x99,0x3f,0x31,0x04,0x89,0x3f,0x40,0x00,0x89,0x46,0x40,0x00,
0x99,0x2e,0x36,0x04,0x89,0x2e,0x40,0x58,0x99,0x46,0x5e,0x04,0x89,0x46,0x40,0x5c,
0x99,0x23,0x6e,0x00,0x99,0x3c,0x36,0x04,0x89,0x3c,0x40,0x00,0x89,0x23,0x40,0x00,
0x99,0x2c,0x3f,0x04,0x89,0x2c,0x40,0x81,0x38,0x99,0x46,0x5e,0x04,0x89,0x46,0x40,
0x00,0x99,0x2e,0x36,0x04,0x89,0x2e,0x40,0x58,0x99,0x3c,0x2b,0x04,0x89,0x3c,0x40,
0x5c,0x99,0x23,0x72,0x04,0x89,0x23,0x40,0x00,0x99,0x28,0x6e,0x00,0x99,0x2c,0x3f,
0x04,0x89,0x2c,0x40,0x00,0x89,0x28,0x40,0x00,0x99,0x27,0x5f,0x04,0x89,0x27,0x40,
0x54,0x99,0x3c,0x28,0x04,0x89,0x3c,0x40,0x5c,0x99,0x46,0x4e,0x00,0x99,0x3f,0x31,
0x04,0x89,0x3f,0x40,0x00,0x89,0x46,0x40,0x00,0x99,0x2e,0x3c,0x04,0x89,0x2e,0x40,
0x58,0x99,0x46,0x63,0x04,0x89,0x46,0x40,0x5c,0x99,0x23,0x72,0x00,0x99,0x45,0x4a,
0x00,0x99,0x3c,0x36,0x04,0x89,0x3c,0x40,0x00,0x89,0x45,0x40,0x00,0x89,0x23,0x40,
0x00,0x99,0x2c,0x3f,0x04,0x89,0x2c,0x40,0x54,0x99,0x45,0x1c,0x04,0x89,0x45,0x40,
0x50,0x99,0x45,0x66,0x04,0x89,0x45,0x40,0x0c,0x99,0x46,0x5e,0x04,0x89,0x46,0x40,
0x00,0x99,0x2e,0x43,0x04,0x89,0x2e,0x40,0x48,0x99,0x45,0x66,0x04,0x89,0x45,0x40,
0x0c,0x99,0x3c,0x2b,0x04,0x89,0x3c,0x40,0x5c,0x99,0x23,0x72,0x04,0x89,0x23,0x40,
0x00,0x99,0x28,0x72,0x00,0x99,0x2c,0x4c,0x04,0x89,0x2c,0x40,0x00,0x89,0x28,0x40,
0x00,0x99,0x27,0x63,0x04,0x89,0x27,0x40,0x54,0x99,0x3c,0x28,0x04,0x89,0x3c,0x40,
0x5c,0x99,0x46,0x48,0x00,0x99,0x3f,0x28,0x04,0x89,0x3f,0x40,0x00,0x89,0x46,0x40,
0x5c,0x99,0x46,0x55,0x04,0x89,0x46,0x40,0x5c,0x99,0x23,0x6e,0x00,0x99,0x3c,0x36,
0x04,0x89,0x3c,0x40,0x00,0x89,0x23,0x40,0x81,0x3c,0x99,0x46,0x5e,0x04,0x89,0x46,
0x40,0x00,0x99,0x2e,0x3f,0x04,0x89,0x2e,0x40,0x58,0x99,0x3c,0x28,0x04,0x89,0x3c,
0x40,0x5c,0x99,0x23,0x72,0x04,0x89,0x23,0x40,0x00,0x99,0x28,0x72,0x00,0x99,0x2c,
0x3f,0x04,0x89,0x2c,0x40,0x00,0x89,0x28,0x40,0x00,0x99,0x27,0x63,0x04,0x89,0x27,
0x40,0x54,0x99,0x3c,0x2b,0x04,0x89,0x3c,0x40,0x5c,0x99,0x46,0x5e,0x00,0x99,0x3f,
0x36,0x04,0x89,0x3f,0x40,0x00,0x89,0x46,0x40,0x00,0x99,0x2e,0x3f,0x04,0x89,0x2e,
0x40,0x81,0x38,0x99,0x23,0x72,0x00,0x99,0x3c,0x31,0x04,0x89,0x3c,0x40,0x00,0x89,
0x23,0x40,0x00,0x99,0x2c,0x43,0x04,0x89,0x2c,0x40,0x81,0x38,0x99,0x46,0x63,0x04,
0x89,0x46,0x40,0x00,0x99,0x2e,0x3f,0x04,0x89,0x2e,0x40,0x58,0x99,0x3c,0x28,0x04,
0x89,0x3c,0x40,0x5c,0x99,0x23,0x6e,0x04,0x89,0x23,0x40,0x00,0x99,0x28,0x72,0x00,
0x99,0x2c,0x3f,0x04,0x89,0x2c,0x40,0x00,0x89,0x28,0x40,0x00,0x99,0x27,0x63,0x04,
0x89,0x27,0x40,0x54,0x99,0x3c,0x2b,0x04,0x89,0x3c,0x40,0x5c,0x99,0x46,0x4e,0x00,
0x99,0x3f,0x28,0x04,0x89,0x3f,0x40,0x00,0x89,0x46,0x40,0x00,0x99,0x2e,0x3f,0x04,
0x89,0x2e,0x40,0x58,0x99,0x46,0x55,0x04,0x89,0x46,0x40,0x5c,0x99,0x23,0x72,0x00,
0x99,0x3c,0x31,0x04,0x89,0x3c,0x40,0x00,0x89,0x23,0x40,0x00,0x99,0x2c,0x3f,0x04,
0x89,0x2c,0x40,0x81,0x38,0x99,0x46,0x63,0x04,0x89,0x46,0x40,0x00,0x99,0x2e,0x3f,
0x04,0x89,0x2e,0x40,0x58,0x99,0x3c,0x28,0x04,0x89,0x3c,0x40,0x5c,0x99,0x23,0x72,
0x04,0x89,0x23,0x40,0x00,0x99,0x28,0x72,0x00,0x99,0x2c,0x43,0x04,0x89,0x2c,0x40,
0x00,0x89,0x28,0x40,0x00,0x99,0x27,0x63,0x04,0x89,0x27,0x40,0x54,0x99,0x3c,0x28,
0x04,0x89,0x3c,0x40,0x5c,0x99,0x46,0x51,0x00,0x99,0x3f,0x31,0x04,0x89,0x3f,0x40,
0x00,0x89,0x46,0x40,0x00,0x99,0x2e,0x43,0x04,0x89,0x2e,0x40,0x58,0x99,0x46,0x63,
0x04,0x89,0x46,0x40,0x5c,0x99,0x23,0x6e,0x00,0x99,0x45,0x4a,0x00,0x99,0x3c,0x36,
0x04,0x89,0x3c,0x40,0x00,0x89,0x45,0x40,0x00,0x89,0x23,0x40,0x00,0x99,0x2c,0x4c,
0x04,0x89,0x2c,0x40,0x54,0x99,0x45,0x1c,0x04,0x89,0x45,0x40,0x50,0x99,0x45,0x66,
0x04,0x89,0x45,0x40,0x0c,0x99,0x46,0x63,0x04,0x89,0x46,0x40,0x00,0x99,0x2e,0x3f,
0x04,0x89,0x2e,0x40,0x48,0x99,0x45,0x66,0x04,0x89,0x45,0x40,0x0c,0x99,0x3c,0x36,
0x04,0x89,0x3c,0x40,0x5c,0x99,0x23,0x72,0x04,0x89,0x23,0x40,0x00,0x99,0x28,0x6e,
0x00,0x99,0x2c,0x3c,0x04,0x89,0x2c,0x40,0x00,0x89,0x28,0x40,0x00,0x99,0x27,0x5f,
0x04,0x89,0x27,0x40,0x54,0x99,0x3c,0x2b,0x04,0x89,0x3c,0x40,0x5c,0x99,0x46,0x51,
0x00,0x99,0x3f,0x31,0x04,0x89,0x3f,0x40,0x00,0x89,0x46,0x40,0x5c,0x99,0x46,0x63,
0x04,0x89,0x46,0x40,0x5c,0x99,0x23,0x6e,0x00,0x99,0x3c,0x36,0x04,0x89,0x3c,0x40,
0x00,0x89,0x23,0x40,0x81,0x3c,0x99,0x46,0x5e,0x04,0x89,0x46,0x40,0x00,0x99,0x2e,
0x43,0x04,0x89,0x2e,0x40,0x58,0x99,0x3c,0x2b,0x04,0x89,0x3c,0x40,0x5c,0x99,0x23,
0x72,0x04,0x89,0x23,0x40,0x00,0x99,0x28,0x6e,0x00,0x99,0x2c,0x43,0x04,0x89,0x2c,
0x40,0x00,0x89,0x28,0x40,0x00,0x99,0x27,0x5f,0x04,0x89,0x27,0x40,0x54,0x99,0x3c,
0x31,0x04,0x89,0x3c,0x40,0x5c,0x99,0x46,0x5e,0x00,0x99,0x3f,0x36,0x04,0x89,0x3f,
0x40,0x00,0x89,0x46,0x40,0x00,0x99,0x2e,0x3f,0x04,0x89,0x2e,0x40,0x81,0x38,0x99,
0x23,0x6e,0x00,0x99,0x3c,0x36,0x04,0x89,0x3c,0x40,0x00,0x89,0x23,0x40,0x00,0x99,
0x2c,0x3f,0x04,0x89,0x2c,0x40,0x81,0x38,0x99,0x46,0x5e,0x04,0x89,0x46,0x40,0x00,
0x99,0x2e,0x3c,0x04,0x89,0x2e,0x40,0x58,0x99,0x3c,0x21,0x04,0x89,0x3c,0x40,0x5c,
0x99,0x23,0x6e,0x04,0x89,0x23,0x40,0x00,0x99,0x28,0x6e,0x00,0x99,0x2c,0x3f,0x04,
0x89,0x2c,0x40,0x00,0x89,0x28,0x40,0x00,0x99,0x27,0x5f,0x04,0x89,0x27,0x40,0x54,
0x99,0x3c,0x24,0x04,0x89,0x3c,0x40,0x5c,0x99,0x46,0x4e,0x00,0x99,0x3f,0x31,0x04,
0x89,0x3f,0x40,0x00,0x89,0x46,0x40,0x00,0x99,0x2e,0x36,0x04,0x89,0x2e,0x40,0x58,
0x99,0x46,0x5e,0x04,0x89,0x46,0x40,0x5c,0x99,0x23,0x6e,0x00,0x99,0x3c,0x36,0x04,
0x89,0x3c,0x40,0x00,0x89,0x23,0x40,0x00,0x99,0x2c,0x3f,0x04,0x89,0x2c,0x40,0x81,
0x38,0x99,0x46,0x5e,0x04,0x89,0x46,0x40,0x00,0x99,0x2e,0x36,0x04,0x89,0x2e,0x40,
0x58,0x99,0x3c,0x2b,0x04,0x89,0x3c,0x40,0x5c,0x99,0x23,0x72,0x04,0x89,0x23,0x40,
0x00,0x99,0x28,0x6e,0x00,0x99,0x2c,0x3f,0x04,0x89,0x2c,0x40,0x00,0x89,0x28,0x40,
0x00,0x99,0x27,0x5f,0x04,0x89,0x27,0x40,0x54,0x99,0x3c,0x28,0x04,0x89,0x3c,0x40,
0x5c,0x99,0x46,0x4e,0x00,0x99,0x3f,0x31,0x04,0x89,0x3f,0x40,0x00,0x89,0x46,0x40,
0x00,0x99,0x2e,0x3c,0x04,0x89,0x2e,0x40,0x58,0x99,0x46,0x63,0x04,0x89,0x46,0x40,
0x5c,0x99,0x23,0x72,0x00,0x99,0x45,0x4a,0x00,0x99,0x3c,0x36,0x04,0x89,0x3c,0x40,
0x00,0x89,0x45,0x40,0x00,0x89,0x23,0x40,0x00,0x99,0x2c,0x3f,0x04,0x89,0x2c,0x40,
0x54,0x99,0x45,0x1c,0x04,0x89,0x45,0x40,0x50,0x99,0x45,0x66,0x04,0x89,0x45,0x40,
0x0c,0x99,0x46,0x5e,0x04,0x89,0x46,0x40,0x00,0x99,0x2e,0x43,0x04,0x89,0x2e,0x40,
0x48,0x99,0x45,0x66,0x04,0x89,0x45,0x40,0x0c,0x99,0x3c,0x2b,0x04,0x89,0x3c,0x40,
0x5c,0x99,0x23,0x72,0x04,0x89,0x23,0x40,0x00,0x99,0x28,0x72,0x00,0x99,0x2c,0x4c,
0x04,0x89,0x2c,0x40,0x00,0x89,0x28,0x40,0x00,0x99,0x27,0x63,0x04,0x89,0x27,0x40,
0x54,0x99,0x3c,0x28,0x04,0x89,0x3c,0x40,0x5c,0x99,0x46,0x48,0x00,0x99,0x3f,0x28,
0x04,0x89,0x3f,0x40,0x00,0x89,0x46,0x40,0x5c,0x99,0x46,0x55,0x04,0x89,0x46,0x40,
0x5c,0x99,0x23,0x6e,0x00,0x99,0x3c,0x36,0x04,0x89,0x3c,0x40,0x00,0x89,0x23,0x40,
0x81,0x3c,0x99,0x46,0x5e,0x04,0x89,0x46,0x40,0x00,0x99,0x2e,0x3f,0x04,0x89,0x2e,
0x40,0x58,0x99,0x3c,0x28,0x04,0x89,0x3c,0x40,0x5c,0x99,0x23,0x72,0x04,0x89,0x23,
0x40,0x00,0x99,0x28,0x72,0x00,0x99,0x2c,0x3f,0x04,0x89,0x2c,0x40,0x00,0x89,0x28,
0x40,0x00,0x99,0x27,0x63,0x04,0x89,0x27,0x40,0x54,0x99,0x3c,0x2b,0x04,0x89,0x3c,
0x40,0x5c,0x99,0x46,0x5e,0x00,0x99,0x3f,0x36,0x04,0x89,0x3f,0x40,0x00,0x89,0x46,
0x40,0x00,0x99,0x2e,0x3f,0x04,0x89,0x2e,0x40,0x81,0x38,0x99,0x23,0x72,0x00,0x99,
0x3c,0x31,0x04,0x89,0x3c,0x40,0x00,0x89,0x23,0x40,0x00,0x99,0x2c,0x43,0x04,0x89,
0x2c,0x40,0x81,0x38,0x99,0x46,0x63,0x04,0x89,0x46,0x40,0x00,0x99,0x2e,0x3f,0x04,
0x89,0x2e,0x40,0x58,0x99,0x3c,0x28,0x04,0x89,0x3c,0x40,0x5c,0x99,0x23,0x6e,0x04,
0x89,0x23,0x40,0x00,0x99,0x28,0x72,0x00,0x99,0x2c,0x3f,0x04,0x89,0x2c,0x40,0x00,
0x89,0x28,0x40,0x00,0x99,0x27,0x63,0x04,0x89,0x27,0x40,0x54,0x99,0x3c,0x2b,0x04,
0x89,0x3c,0x40,0x5c,0x99,0x46,0x4e,0x00,0x99,0x3f,0x28,0x04,0x89,0x3f,0x40,0x00,
0x89,0x46,0x40,0x00,0x99,0x2e,0x3f,0x04,0x89,0x2e,0x40,0x58,0x99,0x46,0x55,0x04,
0x89,0x46,0x40,0x5c,0x99,0x23,0x72,0x00,0x99,0x3c,0x31,0x04,0x89,0x3c,0x40,0x00,
0x89,0x23,0x40,0x00,0x99,0x2c,0x3f,0x04,0x89,0x2c,0x40,0x81,0x38,0x99,0x46,0x63,
0x04,0x89,0x46,0x40,0x00,0x99,0x2e,0x3f,0x04,0x89,0x2e,0x40,0x58,0x99,0x3c,0x28,
0x04,0x89,0x3c,0x40,0x5c,0x99,0x23,0x72,0x04,0x89,0x23,0x40,0x00,0x99,0x28,0x72,
0x00,0x99,0x2c,0x43,0x04,0x89,0x2c,0x40,0x00,0x89,0x28,0x40,0x00,0x99,0x27,0x63,
0x04,0x89,0x27,0x40,0x54,0x99,0x3c,0x28,0x04,0x89,0x3c,0x40,0x5c,0x99,0x46,0x51,
0x00,0x99,0x3f,0x31,0x04,0x89,0x3f,0x40,0x00,0x89,0x46,0x40,0x00,0x99,0x2e,0x43,
0x04,0x89,0x2e,0x40,0x58,0x99,0x46,0x63,0x04,0x89,0x46,0x40,0x5c,0x99,0x23,0x6e,
0x00,0x99,0x45,0x4a,0x00,0x99,0x3c,0x36,0x04,0x89,0x3c,0x40,0x00,0x89,0x45,0x40,
0x00,0x89,0x23,0x40,0x00,0x99,0x2c,0x4c,0x04,0x89,0x2c,0x40,0x54,0x99,0x45,0x1c,
0x04,0x89,0x45,0x40,0x50,0x99,0x45,0x66,0x04,0x89,0x45,0x40,0x0c,0x99,0x46,0x63,
0x04,0x89,0x46,0x40,0x00,0x99,0x2e,0x3f,0x04,0x89,0x2e,0x40,0x48,0x99,0x45,0x66,
0x04,0x89,0x45,0x40,0x0c,0x99,0x3c,0x36,0x04,0x89,0x3c,0x40,0x5c,0x99,0x23,0x72,
0x04,0x89,0x23,0x40,0x00,0x99,0x28,0x6e,0x00,0x99,0x2c,0x3c,0x04,0x89,0x2c,0x40,
0x00,0x89,0x28,0x40,0x00,0x99,0x27,0x5f,0x04,0x89,0x27,0x40,0x54,0x99,0x3c,0x2b,
0x04,0x89,0x3c,0x40,0x5c,0x99,0x46,0x51,0x00,0x99,0x3f,0x31,0x04,0x89,0x3f,0x40,
0x00,0x89,0x46,0x40,0x5c,0x99,0x46,0x63,0x04,0x89,0x46,0x40,0x5c,0x99,0x23,0x6e,
0x00,0x99,0x3c,0x36,0x04,0x89,0x3c,0x40,0x00,0x89,0x23,0x40,0x81,0x3c,0x99,0x46,
0x5e,0x04,0x89,0x46,0x40,0x00,0x99,0x2e,0x43,0x04,0x89,0x2e,0x40,0x58,0x99,0x3c,
0x2b,0x04,0x89,0x3c,0x40,0x5c,0x99,0x23,0x72,0x04,0x89,0x23,0x40,0x00,0x99,0x28,
0x6e,0x00,0x99,0x2c,0x43,0x04,0x89,0x2c,0x40,0x00,0x89,0x28,0x40,0x00,0x99,0x27,
0x5f,0x04,0x89,0x27,0x40,0x54,0x99,0x3c,0x31,0x04,0x89,0x3c,0x40,0x5c,0x99,0x46,
0x5e,0x00,0x99,0x3f,0x36,0x04,0x89,0x3f,0x40,0x00,0x89,0x46,0x40,0x00,0x99,0x2e,
0x3f,0x04,0x89,0x2e,0x40,0x81,0x38,0x99,0x23,0x6e,0x00,0x99,0x3c,0x36,0x04,0x89,
0x3c,0x40,0x00,0x89,0x23,0x40,0x00,0x99,0x2c,0x3f,0x04,0x89,0x2c,0x40,0x81,0x38,
0x99,0x46,0x5e,0x04,0x89,0x46,0x40,0x00,0x99,0x2e,0x3c,0x04,0x89,0x2e,0x40,0x58,
0x99,0x3c,0x21,0x04,0x89,0x3c,0x40,0x5c,0x99,0x23,0x6e,0x04,0x89,0x23,0x40,0x00,
0x99,0x28,0x6e,0x00,0x99,0x2c,0x3f,0x04,0x89,0x2c,0x40,0x00,0x89,0x28,0x40,0x00,
0x99,0x27,0x5f,0x04,0x89,0x27,0x40,0x54,0x99,0x3c,0x24,0x04,0x89,0x3c,0x40,0x5c,
0x99,0x46,0x4e,0x00,0x99,0x3f,0x31,0x04,0x89,0x3f,0x40,0x00,0x89,0x46,0x40,0x00,
0x99,0x2e,0x36,0x04,0x89,0x2e,0x40,0x58,0x99,0x46,0x5e,0x04,0x89,0x46,0x40,0x5c,
0x99,0x23,0x6e,0x00,0x99,0x3c,0x36,0x04,0x89,0x3c,0x40,0x00,0x89,0x23,0x40,0x00,
0x99,0x2c,0x3f,0x04,0x89,0x2c,0x40,0x81,0x38,0x99,0x46,0x5e,0x04,0x89,0x46,0x40,
0x00,0x99,0x2e,0x36,0x04,0x89,0x2e,0x40,0x58,0x99,0x3c,0x2b,0x04,0x89,0x3c,0x40,
0x5c,0x99,0x23,0x72,0x04,0x89,0x23,0x40,0x00,0x99,0x28,0x6e,0x00,0x99,0x2c,0x3f,
0x04,0x89,0x2c,0x40,0x00,0x89,0x28,0x40,0x00,0x99,0x27,0x5f,0x04,0x89,0x27,0x40,
0x54,0x99,0x3c,0x28,0x04,0x89,0x3c,0x40,0x5c,0x99,0x46,0x4e,0x00,0x99,0x3f,0x31,
0x04,0x89,0x3f,0x40,0x00,0x89,0x46,0x40,0x00,0x99,0x2e,0x3c,0x04,0x89,0x2e,0x40,
0x58,0x99,0x46,0x63,0x04,0x89,0x46,0x40,0x5c,0x99,0x23,0x72,0x00,0x99,0x45,0x4a,
0x00,0x99,0x3c,0x36,0x04,0x89,0x3c,0x40,0x00,0x89,0x45,0x40,0x00,0x89,0x23,0x40,
0x00,0x99,0x2c,0x3f,0x04,0x89,0x2c,0x40,0x54,0x99,0x45,0x1c,0x04,0x89,0x45,0x40,
0x50,0x99,0x45,0x66,0x04,0x89,0x45,0x40,0x0c,0x99,0x46,0x5e,0x04,0x89,0x46,0x40,
0x00,0x99,0x2e,0x43,0x04,0x89,0x2e,0x40,0x48,0x99,0x45,0x66,0x04,0x89,0x45,0x40,
0x0c,0x99,0x3c,0x2b,0x04,0x89,0x3c,0x40,0x5c,0x99,0x23,0x72,0x04,0x89,0x23,0x40,
0x00,0x99,0x28,0x72,0x00,0x99,0x2c,0x4c,0x04,0x89,0x2c,0x40,0x00,0x89,0x28,0x40,
0x00,0x99,0x27,0x63,0x04,0x89,0x27,0x40,0x54,0x99,0x3c,0x28,0x04,0x89,0x3c,0x40,
0x5c,0x99,0x46,0x48,0x00,0x99,0x3f,0x28,0x04,0x89,0x3f,0x40,0x00,0x89,0x46,0x40,
0x5c,0x99,0x46,0x55,0x04,0x89,0x46,0x40,0x5c,0x99,0x23,0x6e,0x00,0x99,0x3c,0x36,
0x04,0x89,0x3c,0x40,0x00,0x89,0x23,0x40,0x81,0x3c,0x99,0x46,0x5e,0x04,0x89,0x46,
0x40,0x00,0x99,0x2e,0x3f,0x04,0x89,0x2e,0x40,0x58,0x99,0x3c,0x28,0x04,0x89,0x3c,
0x40,0x5c,0x99,0x23,0x72,0x04,0x89,0x23,0x40,0x00,0x99,0x28,0x72,0x00,0x99,0x2c,
0x3f,0x04,0x89,0x2c,0x40,0x00,0x89,0x28,0x40,0x00,0x99,0x27,0x63,0x04,0x89,0x27,
0x40,0x54,0x99,0x3c,0x2b,0x04,0x89,0x3c,0x40,0x5c,0x99,0x46,0x5e,0x00,0x99,0x3f,
0x36,0x04,0x89,0x3f,0x40,0x00,0x89,0x46,0x40,0x00,0x99,0x2e,0x3f,0x04,0x89,0x2e,
0x40,0x81,0x38,0x99,0x23,0x72,0x00,0x99,0x3c,0x31,0x04,0x89,0x3c,0x40,0x00,0x89,
0x23,0x40,0x00,0x99,0x2c,0x43,0x04,0x89,0x2c,0x40,0x81,0x38,0x99,0x46,0x63,0x04,
0x89,0x46,0x40,0x00,0x99,0x2e,0x3f,0x04,0x89,0x2e,0x40,0x58,0x99,0x3c,0x28,0x04,
0x89,0x3c,0x40,0x5c,0x99,0x23,0x6e,0x04,0x89,0x23,0x40,0x00,0x99,0x28,0x72,0x00,
0x99,0x2c,0x3f,0x04,0x89,0x2c,0x40,0x00,0x89,0x28,0x40,0x00,0x99,0x27,0x63,0x04,
0x89,0x27,0x40,0x54,0x99,0x3c,0x2b,0x04,0x89,0x3c,0x40,0x5c,0x99,0x46,0x4e,0x00,
0x99,0x3f,0x28,0x04,0x89,0x3f,0x40,0x00,0x89,0x46,0x40,0x00,0x99,0x2e,0x3f,0x04,
0x89,0x2e,0x40,0x58,0x99,0x46,0x55,0x04,0x89,0x46,0x40,0x5c,0x99,0x23,0x72,0x00,
0x99,0x3c,0x31,0x04,0x89,0x3c,0x40,0x00,0x89,0x23,0x40,0x00,0x99,0x28,0x72,0x00,
0x99,0x2c,0x3f,0x04,0x89,0x2c,0x40,0x00,0x89,0x28,0x40,0x00,0x99,0x27,0x63,0x04,
0x89,0x27,0x40,0x81,0x34,0x99,0x46,0x63,0x04,0x89,0x46,0x40,0x00,0x99,0x2e,0x3f,
0x04,0x89,0x2e,0x40,0x58,0x99,0x3c,0x28,0x04,0x89,0x3c,0x40,0x5c,0x99,0x23,0x72,
0x04,0x89,0x23,0x40,0x00,0x99,0x28,0x72,0x00,0x99,0x2c,0x43,0x04,0x89,0x2c,0x40,
0x00,0x89,0x28,0x40,0x00,0x99,0x27,0x63,0x04,0x89,0x27,0x40,0x54,0x99,0x3c,0x28,
0x04,0x89,0x3c,0x40,0x00,0x99,0x28,0x72,0x04,0x89,0x28,0x40,0x00,0x99,0x27,0x63,
0x04,0x89,0x27,0x40,0x54,0x99,0x46,0x51,0x00,0x99,0x3f,0x31,0x04,0x89,0x3f,0x40,
0x00,0x89,0x46,0x40,0x00,0x99,0x2e,0x43,0x04,0x89,0x2e,0x40,0x58,0x99,0x46,0x63,
0x04,0x89,0x46,0x40,0x5c,0x99,0x23,0x6e,0x00,0x99,0x45,0x4a,0x00,0x99,0x3c,0x36,
0x04,0x89,0x3c,0x40,0x00,0x89,0x45,0x40,0x00,0x89,0x23,0x40,0x00,0x99,0x2c,0x4c,
0x04,0x89,0x2c,0x40,0x54,0x99,0x45,0x1c,0x04,0x89,0x45,0x40,0x50,0x99,0x45,0x66,
0x04,0x89,0x45,0x40,0x0c,0x99,0x46,0x63,0x04,0x89,0x46,0x40,0x00,0x99,0x2e,0x3f,
0x04,0x89,0x2e,0x40,0x48,0x99,0x45,0x66,0x04,0x89,0x45,0x40,0x0c,0x99,0x3c,0x36,
0x04,0x89,0x3c,0x40,0x5c,0x99,0x23,0x72,0x04,0x89,0x23,0x40,0x00,0x99,0x28,0x6e,
0x00,0x99,0x2c,0x3c,0x04,0x89,0x2c,0x40,0x00,0x89,0x28,0x40,0x00,0x99,0x27,0x5f,
0x04,0x89,0x27,0x40,0x54,0x99,0x3c,0x2b,0x04,0x89,0x3c,0x40,0x5c,0x99,0x46,0x51,
0x00,0x99,0x3f,0x31,0x04,0x89,0x3f,0x40,0x00,0x89,0x46,0x40,0x5c,0x99,0x46,0x63,
0x04,0x89,0x46,0x40,0x5c,0x99,0x23,0x6e,0x00,0x99,0x3c,0x36,0x04,0x89,0x3c,0x40,
0x00,0x89,0x23,0x40,0x81,0x3c,0x99,0x46,0x5e,0x04,0x89,0x46,0x40,0x00,0x99,0x2e,
0x43,0x04,0x89,0x2e,0x40,0x58,0x99,0x3c,0x2b,0x04,0x89,0x3c,0x40,0x5c,0x99,0x23,
0x72,0x04,0x89,0x23,0x40,0x00,0x99,0x28,0x6e,0x00,0x99,0x2c,0x43,0x04,0x89,0x2c,
0x40,0x00,0x89,0x28,0x40,0x00,0x99,0x27,0x5f,0x04,0x89,0x27,0x40,0x54,0x99,0x3c,
0x31,0x04,0x89,0x3c,0x40,0x5c,0x99,0x46,0x5e,0x00,0x99,0x3f,0x36,0x04,0x89,0x3f,
0x40,0x00,0x89,0x46,0x40,0x00,0x99,0x2e,0x3f,0x04,0x89,0x2e,0x40,0x81,0x38,0x99,
0x23,0x6e,0x00,0x99,0x3c,0x36,0x04,0x89,0x3c,0x40,0x00,0x89,0x23,0x40,0x00,0x99,
0x2c,0x3f,0x04,0x89,0x2c,0x40,0x81,0x38,0x99,0x46,0x5e,0x04,0x89,0x46,0x40,0x00,
0x99,0x2e,0x3c,0x04,0x89,0x2e,0x40,0x58,0x99,0x3c,0x21,0x04,0x89,0x3c,0x40,0x5c,
0x99,0x23,0x6e,0x04,0x89,0x23,0x40,0x00,0x99,0x28,0x6e,0x00,0x99,0x2c,0x3f,0x04,
0x89,0x2c,0x40,0x00,0x89,0x28,0x40,0x00,0x99,0x27,0x5f,0x04,0x89,0x27,0x40,0x54,
0x99,0x3c,0x24,0x04,0x89,0x3c,0x40,0x5c,0x99,0x46,0x4e,0x00,0x99,0x3f,0x31,0x04,
0x89,0x3f,0x40,0x00,0x89,0x46,0x40,0x00,0x99,0x2e,0x36,0x04,0x89,0x2e,0x40,0x58,
0x99,0x46,0x5e,0x04,0x89,0x46,0x40,0x5c,0x99,0x23,0x6e,0x00,0x99,0x3c,0x36,0x04,
0x89,0x3c,0x40,0x00,0x89,0x23,0x40,0x00,0x99,0x2c,0x3f,0x04,0x89,0x2c,0x40,0x81,
0x38,0x99,0x46,0x5e,0x04,0x89,0x46,0x40,0x00,0x99,0x2e,0x36,0x04,0x89,0x2e,0x40,
0x58,0x99,0x3c,0x2b,0x04,0x89,0x3c,0x40,0x5c,0x99,0x23,0x72,0x04,0x89,0x23,0x40,
0x00,0x99,0x28,0x6e,0x00,0x99,0x2c,0x3f,0x04,0x89,0x2c,0x40,0x00,0x89,0x28,0x40,
0x00,0x99,0x27,0x5f,0x04,0x89,0x27,0x40,0x54,0x99,0x3c,0x28,0x04,0x89,0x3c,0x40,
0x5c,0x99,0x46,0x4e,0x00,0x99,0x3f,0x31,0x04,0x89,0x3f,0x40,0x00,0x89,0x46,0x40,
0x00,0x99,0x2e,0x3c,0x04,0x89,0x2e,0x40,0x58,0x99,0x46,0x63,0x04,0x89,0x46,0x40,
0x5c,0x99,0x23,0x72,0x00,0x99,0x45,0x4a,0x00,0x99,0x3c,0x36,0x04,0x89,0x3c,0x40,
0x00,0x89,0x45,0x40,0x00,0x89,0x23,0x40,0x00,0x99,0x2c,0x3f,0x04,0x89,0x2c,0x40,
0x54,0x99,0x45,0x1c,0x04,0x89,0x45,0x40,0x50,0x99,0x45,0x66,0x04,0x89,0x45,0x40,
0x0c,0x99,0x46,0x5e,0x04,0x89,0x46,0x40,0x00,0x99,0x2e,0x43,0x04,0x89,0x2e,0x40,
0x48,0x99,0x45,0x66,0x04,0x89,0x45,0x40,0x0c,0x99,0x3c,0x2b,0x04,0x89,0x3c,0x40,
0x5c,0x99,0x23,0x72,0x04,0x89,0x23,0x40,0x00,0x99,0x28,0x72,0x00,0x99,0x2c,0x4c,
0x04,0x89,0x2c,0x40,0x00,0x89,0x28,0x40,0x00,0x99,0x27,0x63,0x04,0x89,0x27,0x40,
0x54,0x99,0x3c,0x28,0x04,0x89,0x3c,0x40,0x5c,0x99,0x46,0x48,0x00,0x99,0x3f,0x28,
0x04,0x89,0x3f,0x40,0x00,0x89,0x46,0x40,0x5c,0x99,0x46,0x55,0x04,0x89,0x46,0x40,
0x5c,0x99,0x23,0x6e,0x00,0x99,0x3c,0x36,0x04,0x89,0x3c,0x40,0x00,0x89,0x23,0x40,
0x81,0x3c,0x99,0x46,0x5e,0x04,0x89,0x46,0x40,0x00,0x99,0x2e,0x3f,0x04,0x89,0x2e,
0x40,0x58,0x99,0x3c,0x28,0x04,0x89,0x3c,0x40,0x5c,0x99,0x23,0x72,0x04,0x89,0x23,
0x40,0x00,0x99,0x28,0x72,0x00,0x99,0x2c,0x3f,0x04,0x89,0x2c,0x40,0x00,0x89,0x28,
0x40,0x00,0x99,0x27,0x63,0x04,0x89,0x27,0x40,0x54,0x99,0x3c,0x2b,0x04,0x89,0x3c,
0x40,0x5c,0x99,0x46,0x5e,0x00,0x99,0x3f,0x36,0x04,0x89,0x3f,0x40,0x00,0x89,0x46,
0x40,0x00,0x99,0x2e,0x3f,0x04,0x89,0x2e,0x40,0x81,0x38,0x99,0x23,0x72,0x00,0x99,
0x3c,0x31,0x04,0x89,0x3c,0x40,0x00,0x89,0x23,0x40,0x00,0x99,0x2c,0x43,0x04,0x89,
0x2c,0x40,0x81,0x38,0x99,0x46,0x63,0x04,0x89,0x46,0x40,0x00,0x99,0x2e,0x3f,0x04,
0x89,0x2e,0x40,0x58,0x99,0x3c,0x28,0x04,0x89,0x3c,0x40,0x5c,0x99,0x23,0x6e,0x04,
0x89,0x23,0x40,0x00,0x99,0x28,0x72,0x00,0x99,0x2c,0x3f,0x04,0x89,0x2c,0x40,0x00,
0x89,0x28,0x40,0x00,0x99,0x27,0x63,0x04,0x89,0x27,0x40,0x54,0x99,0x3c,0x2b,0x04,
0x89,0x3c,0x40,0x5c,0x99,0x46,0x4e,0x00,0x99,0x3f,0x28,0x04,0x89,0x3f,0x40,0x00,
0x89,0x46,0x40,0x00,0x99,0x2e,0x3f,0x04,0x89,0x2e,0x40,0x58,0x99,0x46,0x55,0x04,
0x89,0x46,0x40,0x5c,0x99,0x23,0x72,0x00,0x99,0x3c,0x31,0x04,0x89,0x3c,0x40,0x00,
0x89,0x23,0x40,0x00,0x99,0x2c,0x3f,0x04,0x89,0x2c,0x40,0x81,0x38,0x99,0x46,0x63,
0x04,0x89,0x46,0x40,0x00,0x99,0x2e,0x3f,0x04,0x89,0x2e,0x40,0x58,0x99,0x3c,0x28,
0x04,0x89,0x3c,0x40,0x5c,0x99,0x23,0x72,0x04,0x89,0x23,0x40,0x00,0x99,0x28,0x72,
0x00,0x99,0x2c,0x43,0x04,0x89,0x2c,0x40,0x00,0x89,0x28,0x40,0x00,0x99,0x27,0x63,
0x04,0x89,0x27,0x40,0x54,0x99,0x3c,0x28,0x04,0x89,0x3c,0x40,0x5c,0x99,0x46,0x51,
0x00,0x99,0x3f,0x31,0x04,0x89,0x3f,0x40,0x00,0x89,0x46,0x40,0x00,0x99,0x2e,0x43,
0x04,0x89,0x2e,0x40,0x58,0x99,0x46,0x63,0x04,0x89,0x46,0x40,0x5c,0x99,0x23,0x6e,
0x00,0x99,0x45,0x4a,0x00,0x99,0x3c,0x36,0x04,0x89,0x3c,0x40,0x00,0x89,0x45,0x40,
0x00,0x89,0x23,0x40,0x00,0x99,0x2c,0x4c,0x04,0x89,0x2c,0x40,0x54,0x99,0x45,0x1c,
0x04,0x89,0x45,0x40,0x50,0x99,0x45,0x66,0x04,0x89,0x45,0x40,0x0c,0x99,0x46,0x63,
0x04,0x89,0x46,0x40,0x00,0x99,0x2e,0x3f,0x04,0x89,0x2e,0x40,0x48,0x99,0x45,0x66,
0x04,0x89,0x45,0x40,0x0c,0x99,0x3c,0x36,0x04,0x89,0x3c,0x40,0x5c,0x99,0x23,0x72,
0x04,0x89,0x23,0x40,0x00,0x99,0x28,0x6e,0x00,0x99,0x2c,0x3c,0x04,0x89,0x2c,0x40,
0x00,0x89,0x28,0x40,0x00,0x99,0x27,0x5f,0x04,0x89,0x27,0x40,0x54,0x99,0x3c,0x2b,
0x04,0x89,0x3c,0x40,0x5c,0x99,0x46,0x51,0x00,0x99,0x3f,0x31,0x04,0x89,0x3f,0x40,
0x00,0x89,0x46,0x40,0x5c,0x99,0x46,0x63,0x04,0x89,0x46,0x40,0x5c,0x99,0x23,0x6e,
0x00,0x99,0x3c,0x36,0x04,0x89,0x3c,0x40,0x00,0x89,0x23,0x40,0x81,0x3c,0x99,0x46,
0x5e,0x04,0x89,0x46,0x40,0x00,0x99,0x2e,0x43,0x04,0x89,0x2e,0x40,0x58,0x99,0x3c,
0x2b,0x04,0x89,0x3c,0x40,0x5c,0x99,0x23,0x72,0x04,0x89,0x23,0x40,0x00,0x99,0x28,
0x6e,0x00,0x99,0x2c,0x43,0x04,0x89,0x2c,0x40,0x00,0x89,0x28,0x40,0x00,0x99,0x27,
0x5f,0x04,0x89,0x27,0x40,0x54,0x99,0x3c,0x31,0x04,0x89,0x3c,0x40,0x5c,0x99,0x46,
0x5e,0x00,0x99,0x3f,0x36,0x04,0x89,0x3f,0x40,0x00,0x89,0x46,0x40,0x00,0x99,0x2e,
0x3f,0x04,0x89,0x2e,0x40,0x81,0x38,0x99,0x23,0x6e,0x00,0x99,0x3c,0x36,0x04,0x89,
0x3c,0x40,0x00,0x89,0x23,0x40,0x00,0x99,0x2c,0x3f,0x04,0x89,0x2c,0x40,0x81,0x38,
0x99,0x46,0x5e,0x04,0x89,0x46,0x40,0x00,0x99,0x2e,0x3c,0x04,0x89,0x2e,0x40,0x58,
0x99,0x3c,0x21,0x04,0x89,0x3c,0x40,0x5c,0x99,0x23,0x6e,0x04,0x89,0x23,0x40,0x00,
0x99,0x28,0x6e,0x00,0x99,0x2c,0x3f,0x04,0x89,0x2c,0x40,0x00,0x89,0x28,0x40,0x00,
0x99,0x27,0x5f,0x04,0x89,0x27,0x40,0x54,0x99,0x3c,0x24,0x04,0x89,0x3c,0x40,0x5c,
0x99,0x46,0x4e,0x00,0x99,0x3f,0x31,0x04,0x89,0x3f,0x40,0x00,0x89,0x46,0x40,0x00,
0x99,0x2e,0x36,0x04,0x89,0x2e,0x40,0x58,0x99,0x46,0x5e,0x04,0x89,0x46,0x40,0x5c,
0x99,0x23,0x6e,0x00,0x99,0x3c,0x36,0x04,0x89,0x3c,0x40,0x00,0x89,0x23,0x40,0x00,
0x99,0x2c,0x3f,0x04,0x89,0x2c,0x40,0x81,0x38,0x99,0x46,0x5e,0x04,0x89,0x46,0x40,
0x00,0x99,0x2e,0x36,0x04,0x89,0x2e,0x40,0x58,0x99,0x3c,0x2b,0x04,0x89,0x3c,0x40,
0x5c,0x99,0x23,0x72,0x04,0x89,0x23,0x40,0x00,0x99,0x28,0x6e,0x00,0x99,0x2c,0x3f,
0x04,0x89,0x2c,0x40,0x00,0x89,0x28,0x40,0x00,0x99,0x27,0x5f,0x04,0x89,0x27,0x40,
0x54,0x99,0x3c,0x28,0x04,0x89,0x3c,0x40,0x5c,0x99,0x46,0x4e,0x00,0x99,0x3f,0x31,
0x04,0x89,0x3f,0x40,0x00,0x89,0x46,0x40,0x00,0x99,0x2e,0x3c,0x04,0x89,0x2e,0x40,
0x58,0x99,0x46,0x63,0x04,0x89,0x46,0x40,0x5c,0x99,0x23,0x72,0x00,0x99,0x45,0x4a,
0x00,0x99,0x3c,0x36,0x04,0x89,0x3c,0x40,0x00,0x89,0x45,0x40,0x00,0x89,0x23,0x40,
0x00,0x99,0x2c,0x3f,0x04,0x89,0x2c,0x40,0x54,0x99,0x45,0x1c,0x04,0x89,0x45,0x40,
0x50,0x99,0x45,0x66,0x04,0x89,0x45,0x40,0x0c,0x99,0x46,0x5e,0x04,0x89,0x46,0x40,
0x00,0x99,0x2e,0x43,0x04,0x89,0x2e,0x40,0x48,0x99,0x45,0x66,0x04,0x89,0x45,0x40,
0x0c,0x99,0x3c,0x2b,0x04,0x89,0x3c,0x40,0x5c,0x99,0x23,0x72,0x04,0x89,0x23,0x40,
0x00,0x99,0x28,0x72,0x00,0x99,0x2c,0x4c,0x04,0x89,0x2c,0x40,0x00,0x89,0x28,0x40,
0x00,0x99,0x27,0x63,0x04,0x89,0x27,0x40,0x54,0x99,0x3c,0x28,0x04,0x89,0x3c,0x40,
0x5c,0x99,0x46,0x48,0x00,0x99,0x3f,0x28,0x04,0x89,0x3f,0x40,0x00,0x89,0x46,0x40,
0x5c,0x99,0x46,0x55,0x04,0x89,0x46,0x40,0x5c,0x99,0x23,0x6e,0x00,0x99,0x3c,0x36,
0x04,0x89,0x3c,0x40,0x00,0x89,0x23,0x40,0x81,0x3c,0x99,0x46,0x5e,0x04,0x89,0x46,
0x40,0x00,0x99,0x2e,0x3f,0x04,0x89,0x2e,0x40,0x58,0x99,0x3c,0x28,0x04,0x89,0x3c,
0x40,0x5c,0x99,0x23,0x72,0x04,0x89,0x23,0x40,0x00,0x99,0x28,0x72,0x00,0x99,0x2c,
0x3f,0x04,0x89,0x2c,0x40,0x00,0x89,0x28,0x40,0x00,0x99,0x27,0x63,0x04,0x89,0x27,
0x40,0x54,0x99,0x3c,0x2b,0x04,0x89,0x3c,0x40,0x5c,0x99,0x46,0x5e,0x00,0x99,0x3f,
0x36,0x04,0x89,0x3f,0x40,0x00,0x89,0x46,0x40,0x00,0x99,0x2e,0x3f,0x04,0x89,0x2e,
0x40,0x81,0x38,0x99,0x23,0x72,0x00,0x99,0x3c,0x31,0x04,0x89,0x3c,0x40,0x00,0x89,
0x23,0x40,0x00,0x99,0x2c,0x43,0x04,0x89,0x2c,0x40,0x81,0x38,0x99,0x46,0x63,0x04,
0x89,0x46,0x40,0x00,0x99,0x2e,0x3f,0x04,0x89,0x2e,0x40,0x58,0x99,0x3c,0x28,0x04,
0x89,0x3c,0x40,0x5c,0x99,0x23,0x6e,0x04,0x89,0x23,0x40,0x00,0x99,0x28,0x72,0x00,
0x99,0x2c,0x3f,0x04,0x89,0x2c,0x40,0x00,0x89,0x28,0x40,0x00,0x99,0x27,0x63,0x04,
0x89,0x27,0x40,0x54,0x99,0x3c,0x2b,0x04,0x89,0x3c,0x40,0x5c,0x99,0x46,0x4e,0x00,
0x99,0x3f,0x28,0x04,0x89,0x3f,0x40,0x00,0x89,0x46,0x40,0x00,0x99,0x2e,0x3f,0x04,
0x89,0x2e,0x40,0x58,0x99,0x46,0x55,0x04,0x89,0x46,0x40,0x5c,0x99,0x23,0x72,0x00,
0x99,0x3c,0x31,0x04,0x89,0x3c,0x40,0x00,0x89,0x23,0x40,0x00,0x99,0x28,0x6e,0x00,
0x99,0x2c,0x3f,0x04,0x89,0x2c,0x40,0x00,0x89,0x28,0x40,0x00,0x99,0x27,0x5f,0x04,
0x89,0x27,0x40,0x58,0x99,0x28,0x63,0x04,0x89,0x28,0x40,0x00,0x99,0x27,0x54,0x04,
0x89,0x27,0x40,0x54,0x99,0x46,0x63,0x04,0x89,0x46,0x40,0x00,0x99,0x28,0x5e,0x00,
0x99,0x2e,0x3f,0x04,0x89,0x2e,0x40,0x00,0x89,0x28,0x40,0x00,0x99,0x27,0x4f,0x04,
0x89,0x27,0x40,0x54,0x99,0x3c,0x28,0x04,0x89,0x3c,0x40,0x00,0x99,0x28,0x68,0x04,
0x89,0x28,0x40,0x00,0x99,0x27,0x59,0x04,0x89,0x27,0x40,0x54,0x99,0x23,0x72,0x04,
0x89,0x23,0x40,0x00,0x99,0x2c,0x43,0x04,0x89,0x2c,0x40,0x58,0x99,0x3c,0x28,0x04,
0x89,0x3c,0x40,0x5c,0x99,0x46,0x51,0x00,0x99,0x3f,0x31,0x04,0x89,0x3f,0x40,0x00,
0x89,0x46,0x40,0x00,0x99,0x2e,0x43,0x04,0x89,0x2e,0x40,0x58,0x99,0x46,0x63,0x04,
0x89,0x46,0x40,0x5c,0x99,0x23,0x6e,0x00,0x99,0x45,0x4a,0x00,0x99,0x3c,0x36,0x04,
0x89,0x3c,0x40,0x00,0x89,0x45,0x40,0x00,0x89,0x23,0x40,0x00,0x99,0x2c,0x4c,0x04,
0x89,0x2c,0x40,0x54,0x99,0x45,0x1c,0x04,0x89,0x45,0x40,0x50,0x99,0x45,0x66,0x04,
0x89,0x45,0x40,0x0c,0x99,0x46,0x63,0x04,0x89,0x46,0x40,0x00,0x99,0x2e,0x3f,0x04,
0x89,0x2e,0x40,0x48,0x99,0x45,0x66,0x04,0x89,0x45,0x40,0x0c,0x99,0x3c,0x36,0x04,
0x89,0x3c,0x40,0x5c,0x99,0x23,0x72,0x04,0x89,0x23,0x40,0x00,0x99,0x28,0x6e,0x00,
0x99,0x2c,0x3c,0x04,0x89,0x2c,0x40,0x00,0x89,0x28,0x40,0x00,0x99,0x27,0x5f,0x04,
0x89,0x27,0x40,0x54,0x99,0x3c,0x2b,0x04,0x89,0x3c,0x40,0x5c,0x99,0x46,0x51,0x00,
0x99,0x3f,0x31,0x04,0x89,0x3f,0x40,0x00,0x89,0x46,0x40,0x5c,0x99,0x46,0x63,0x04,
0x89,0x46,0x40,0x5c,0x99,0x23,0x6e,0x00,0x99,0x3c,0x36,0x04,0x89,0x3c,0x40,0x00,
0x89,0x23,0x40,0x81,0x3c,0x99,0x46,0x5e,0x04,0x89,0x46,0x40,0x00,0x99,0x2e,0x43,
0x04,0x89,0x2e,0x40,0x58,0x99,0x3c,0x2b,0x04,0x89,0x3c,0x40,0x5c,0x99,0x23,0x72,
0x04,0x89,0x23,0x40,0x00,0x99,0x28,0x6e,0x00,0x99,0x2c,0x43,0x04,0x89,0x2c,0x40,
0x00,0x89,0x28,0x40,0x00,0x99,0x27,0x5f,0x04,0x89,0x27,0x40,0x54,0x99,0x3c,0x31,
0x04,0x89,0x3c,0x40,0x5c,0x99,0x46,0x5e,0x00,0x99,0x3f,0x36,0x04,0x89,0x3f,0x40,
0x00,0x89,0x46,0x40,0x00,0x99,0x2e,0x3f,0x04,0x89,0x2e,0x40,0x81,0x38,0x99,0x23,
0x6e,0x00,0x99,0x3c,0x36,0x04,0x89,0x3c,0x40,0x00,0x89,0x23,0x40,0x00,0x99,0x2c,
0x3f,0x04,0x89,0x2c,0x40,0x81,0x38,0x99,0x46,0x5e,0x04,0x89,0x46,0x40,0x00,0x99,
0x2e,0x3c,0x04,0x89,0x2e,0x40,0x58,0x99,0x3c,0x21,0x04,0x89,0x3c,0x40,0x5c,0x99,
0x23,0x6e,0x04,0x89,0x23,0x40,0x00,0x99,0x28,0x6e,0x00,0x99,0x2c,0x3f,0x04,0x89,
0x2c,0x40,0x00,0x89,0x28,0x40,0x00,0x99,0x27,0x5f,0x04,0x89,0x27,0x40,0x54,0x99,
0x3c,0x24,0x04,0x89,0x3c,0x40,0x5c,0x99,0x46,0x4e,0x00,0x99,0x3f,0x31,0x04,0x89,
0x3f,0x40,0x00,0x89,0x46,0x40,0x00,0x99,0x2e,0x36,0x04,0x89,0x2e,0x40,0x58,0x99,
0x46,0x5e,0x04,0x89,0x46,0x40,0x5c,0x99,0x23,0x6e,0x00,0x99,0x3c,0x36,0x04,0x89,
0x3c,0x40,0x00,0x89,0x23,0x40,0x00,0x99,0x2c,0x3f,0x04,0x89,0x2c,0x40,0x81,0x38,
0x99,0x46,0x5e,0x04,0x89,0x46,0x40,0x00,0x99,0x2e,0x36,0x04,0x89,0x2e,0x40,0x58,
0x99,0x3c,0x2b,0x04,0x89,0x3c,0x40,0x5c,0x99,0x23,0x72,0x04,0x89,0x23,0x40,0x00,
0x99,0x28,0x6e,0x00,0x99,0x2c,0x3f,0x04,0x89,0x2c,0x40,0x00,0x89,0x28,0x40,0x00,
0x99,0x27,0x5f,0x04,0x89,0x27,0x40,0x54,0x99,0x3c,0x28,0x04,0x89,0x3c,0x40,0x5c,
0x99,0x46,0x4e,0x00,0x99,0x3f,0x31,0x04,0x89,0x3f,0x40,0x00,0x89,0x46,0x40,0x00,
0x99,0x2e,0x3c,0x04,0x89,0x2e,0x40,0x58,0x99,0x46,0x63,0x04,0x89,0x46,0x40,0x5c,
0x99,0x23,0x72,0x00,0x99,0x45,0x4a,0x00,0x99,0x3c,0x36,0x04,0x89,0x3c,0x40,0x00,
0x89,0x45,0x40,0x00,0x89,0x23,0x40,0x00,0x99,0x2c,0x3f,0x04,0x89,0x2c,0x40,0x54,
0x99,0x45,0x1c,0x04,0x89,0x45,0x40,0x50,0x99,0x45,0x66,0x04,0x89,0x45,0x40,0x0c,
0x99,0x46,0x5e,0x04,0x89,0x46,0x40,0x00,0x99,0x2e,0x43,0x04,0x89,0x2e,0x40,0x48,
0x99,0x45,0x66,0x04,0x89,0x45,0x40,0x0c,0x99,0x3c,0x2b,0x04,0x89,0x3c,0x40,0x5c,
0x99,0x23,0x72,0x04,0x89,0x23,0x40,0x00,0x99,0x28,0x72,0x00,0x99,0x2c,0x4c,0x04,
0x89,0x2c,0x40,0x00,0x89,0x28,0x40,0x00,0x99,0x27,0x63,0x04,0x89,0x27,0x40,0x54,
0x99,0x3c,0x28,0x04,0x89,0x3c,0x40,0x5c,0x99,0x46,0x48,0x00,0x99,0x3f,0x28,0x04,
0x89,0x3f,0x40,0x00,0x89,0x46,0x40,0x5c,0x99,0x46,0x55,0x04,0x89,0x46,0x40,0x5c,
0x99,0x23,0x6e,0x00,0x99,0x3c,0x36,0x04,0x89,0x3c,0x40,0x00,0x89,0x23,0x40,0x81,
0x3c,0x99,0x46,0x5e,0x04,0x89,0x46,0x40,0x00,0x99,0x2e,0x3f,0x04,0x89,0x2e,0x40,
0x58,0x99,0x3c,0x28,0x04,0x89,0x3c,0x40,0x5c,0x99,0x23,0x72,0x04,0x89,0x23,0x40,
0x00,0x99,0x28,0x72,0x00,0x99,0x2c,0x3f,0x04,0x89,0x2c,0x40,0x00,0x89,0x28,0x40,
0x00,0x99,0x27,0x63,0x04,0x89,0x27,0x40,0x54,0x99,0x3c,0x2b,0x04,0x89,0x3c,0x40,
0x5c,0x99,0x46,0x5e,0x00,0x99,0x3f,0x36,0x04,0x89,0x3f,0x40,0x00,0x89,0x46,0x40,
0x00,0x99,0x2e,0x3f,0x04,0x89,0x2e,0x40,0x81,0x38,0x99,0x23,0x72,0x00,0x99,0x3c,
0x31,0x04,0x89,0x3c,0x40,0x00,0x89,0x23,0x40,0x00,0x99,0x2c,0x43,0x04,0x89,0x2c,
0x40,0x81,0x38,0x99,0x46,0x63,0x04,0x89,0x46,0x40,0x00,0x99,0x2e,0x3f,0x04,0x89,
0x2e,0x40,0x58,0x99,0x3c,0x28,0x04,0x89,0x3c,0x40,0x5c,0x99,0x23,0x6e,0x04,0x89,
0x23,0x40,0x00,0x99,0x28,0x72,0x00,0x99,0x2c,0x3f,0x04,0x89,0x2c,0x40,0x00,0x89,
0x28,0x40,0x00,0x99,0x27,0x63,0x04,0x89,0x27,0x40,0x54,0x99,0x3c,0x2b,0x04,0x89,
0x3c,0x40,0x5c,0x99,0x46,0x4e,0x00,0x99,0x3f,0x28,0x04,0x89,0x3f,0x40,0x00,0x89,
0x46,0x40,0x00,0x99,0x2e,0x3f,0x04,0x89,0x2e,0x40,0x58,0x99,0x46,0x55,0x04,0x89,
0x46,0x40,0x5c,0x99,0x23,0x72,0x00,0x99,0x3c,0x31,0x04,0x89,0x3c,0x40,0x00,0x89,
0x23,0x40,0x00,0x99,0x2c,0x3f,0x04,0x89,0x2c,0x40,0x81,0x38,0x99,0x46,0x63,0x04,
0x89,0x46,0x40,0x00,0x99,0x2e,0x3f,0x04,0x89,0x2e,0x40,0x58,0x99,0x3c,0x28,0x04,
0x89,0x3c,0x40,0x5c,0x99,0x23,0x72,0x04,0x89,0x23,0x40,0x00,0x99,0x28,0x72,0x00,
0x99,0x2c,0x43,0x04,0x89,0x2c,0x40,0x00,0x89,0x28,0x40,0x00,0x99,0x27,0x63,0x04,
0x89,0x27,0x40,0x54,0x99,0x3c,0x28,0x04,0x89,0x3c,0x40,0x5c,0x99,0x46,0x51,0x00,
0x99,0x3f,0x31,0x04,0x89,0x3f,0x40,0x00,0x89,0x46,0x40,0x00,0x99,0x2e,0x43,0x04,
0x89,0x2e,0x40,0x58,0x99,0x46,0x63,0x04,0x89,0x46,0x40,0x5c,0x99,0x23,0x6e,0x00,
0x99,0x45,0x4a,0x00,0x99,0x3c,0x36,0x04,0x89,0x3c,0x40,0x00,0x89,0x45,0x40,0x00,
0x89,0x23,0x40,0x00,0x99,0x2c,0x4c,0x04,0x89,0x2c,0x40,0x54,0x99,0x45,0x1c,0x04,
0x89,0x45,0x40,0x50,0x99,0x45,0x66,0x04,0x89,0x45,0x40,0x0c,0x99,0x46,0x63,0x04,
0x89,0x46,0x40,0x00,0x99,0x2e,0x3f,0x04,0x89,0x2e,0x40,0x48,0x99,0x45,0x66,0x04,
0x89,0x45,0x40,0x0c,0x99,0x3c,0x36,0x04,0x89,0x3c,0x40,0x5c,0x99,0x23,0x72,0x04,
0x89,0x23,0x40,0x00,0x99,0x28,0x6e,0x00,0x99,0x2c,0x3c,0x04,0x89,0x2c,0x40,0x00,
0x89,0x28,0x40,0x00,0x99,0x27,0x5f,0x04,0x89,0x27,0x40,0x54,0x99,0x3c,0x2b,0x04,
0x89,0x3c,0x40,0x5c,0x99,0x46,0x51,0x00,0x99,0x3f,0x31,0x04,0x89,0x3f,0x40,0x00,
0x89,0x46,0x40,0x5c,0x99,0x46,0x63,0x04,0x89,0x46,0x40,0x5c,0x99,0x23,0x6e,0x00,
0x99,0x3c,0x36,0x04,0x89,0x3c,0x40,0x00,0x89,0x23,0x40,0x81,0x3c,0x99,0x46,0x5e,
0x04,0x89,0x46,0x40,0x00,0x99,0x2e,0x43,0x04,0x89,0x2e,0x40,0x58,0x99,0x3c,0x2b,
0x04,0x89,0x3c,0x40,0x5c,0x99,0x23,0x72,0x04,0x89,0x23,0x40,0x00,0x99,0x28,0x6e,
0x00,0x99,0x2c,0x43,0x04,0x89,0x2c,0x40,0x00,0x89,0x28,0x40,0x00,0x99,0x27,0x5f,
0x04,0x89,0x27,0x40,0x54,0x99,0x3c,0x31,0x04,0x89,0x3c,0x40,0x5c,0x99,0x46,0x5e,
0x00,0x99,0x3f,0x36,0x04,0x89,0x3f,0x40,0x00,0x89,0x46,0x40,0x00,0x99,0x2e,0x3f,
0x04,0x89,0x2e,0x40,0x81,0x38,0x99,0x23,0x6e,0x00,0x99,0x3c,0x36,0x04,0x89,0x3c,
0x40,0x00,0x89,0x23,0x40,0x00,0x99,0x2c,0x3f,0x04,0x89,0x2c,0x40,0x81,0x38,0x99,
0x46,0x5e,0x04,0x89,0x46,0x40,0x00,0x99,0x2e,0x3c,0x04,0x89,0x2e,0x40,0x58,0x99,
0x3c,0x21,0x04,0x89,0x3c,0x40,0x5c,0x99,0x23,0x6e,0x04,0x89,0x23,0x40,0x00,0x99,
0x28,0x6e,0x00,0x99,0x2c,0x3f,0x04,0x89,0x2c,0x40,0x00,0x89,0x28,0x40,0x00,0x99,
0x27,0x5f,0x04,0x89,0x27,0x40,0x54,0x99,0x3c,0x24,0x04,0x89,0x3c,0x40,0x5c,0x99,
0x46,0x4e,0x00,0x99,0x3f,0x31,0x04,0x89,0x3f,0x40,0x00,0x89,0x46,0x40,0x00,0x99,
0x2e,0x36,0x04,0x89,0x2e,0x40,0x58,0x99,0x46,0x5e,0x04,0x89,0x46,0x40,0x5c,0x99,
0x23,0x6e,0x00,0x99,0x3c,0x36,0x04,0x89,0x3c,0x40,0x00,0x89,0x23,0x40,0x00,0x99,
0x2c,0x3f,0x04,0x89,0x2c,0x40,0x81,0x38,0x99,0x46,0x5e,0x04,0x89,0x46,0x40,0x00,
0x99,0x2e,0x36,0x04,0x89,0x2e,0x40,0x58,0x99,0x3c,0x2b,0x04,0x89,0x3c,0x40,0x5c,
0x99,0x23,0x72,0x04,0x89,0x23,0x40,0x00,0x99,0x28,0x6e,0x00,0x99,0x2c,0x3f,0x04,
0x89,0x2c,0x40,0x00,0x89,0x28,0x40,0x00,0x99,0x27,0x5f,0x04,0x89,0x27,0x40,0x54,
0x99,0x3c,0x28,0x04,0x89,0x3c,0x40,0x5c,0x99,0x46,0x4e,0x00,0x99,0x3f,0x31,0x04,
0x89,0x3f,0x40,0x00,0x89,0x46,0x40,0x00,0x99,0x2e,0x3c,0x04,0x89,0x2e,0x40,0x58,
0x99,0x46,0x63,0x04,0x89,0x46,0x40,0x5c,0x99,0x23,0x72,0x00,0x99,0x45,0x4a,0x00,
0x99,0x3c,0x36,0x04,0x89,0x3c,0x40,0x00,0x89,0x45,0x40,0x00,0x89,0x23,0x40,0x00,
0x99,0x2c,0x3f,0x04,0x89,0x2c,0x40,0x54,0x99,0x45,0x1c,0x04,0x89,0x45,0x40,0x50,
0x99,0x45,0x66,0x04,0x89,0x45,0x40,0x0c,0x99,0x46,0x5e,0x04,0x89,0x46,0x40,0x00,
0x99,0x2e,0x43,0x04,0x89,0x2e,0x40,0x48,0x99,0x45,0x66,0x04,0x89,0x45,0x40,0x0c,
0x99,0x3c,0x2b,0x04,0x89,0x3c,0x40,0x5c,0x99,0x23,0x72,0x04,0x89,0x23,0x40,0x00,
0x99,0x28,0x72,0x00,0x99,0x2c,0x4c,0x04,0x89,0x2c,0x40,0x00,0x89,0x28,0x40,0x00,
0x99,0x27,0x63,0x04,0x89,0x27,0x40,0x54,0x99,0x3c,0x28,0x04,0x89,0x3c,0x40,0x5c,
0x99,0x46,0x48,0x00,0x99,0x3f,0x28,0x04,0x89,0x3f,0x40,0x00,0x89,0x46,0x40,0x5c,
0x99,0x46,0x55,0x04,0x89,0x46,0x40,0x5c,0x99,0x23,0x6e,0x00,0x99,0x3c,0x36,0x04,
0x89,0x3c,0x40,0x00,0x89,0x23,0x40,0x81,0x3c,0x99,0x46,0x5e,0x04,0x89,0x46,0x40,
0x00,0x99,0x2e,0x3f,0x04,0x89,0x2e,0x40,0x58,0x99,0x3c,0x28,0x04,0x89,0x3c,0x40,
0x5c,0x99,0x23,0x72,0x04,0x89,0x23,0x40,0x00,0x99,0x28,0x72,0x00,0x99,0x2c,0x3f,
0x04,0x89,0x2c,0x40,0x00,0x89,0x28,0x40,0x00,0x99,0x27,0x63,0x04,0x89,0x27,0x40,
0x54,0x99,0x3c,0x2b,0x04,0x89,0x3c,0x40,0x5c,0x99,0x46,0x5e,0x00,0x99,0x3f,0x36,
0x04,0x89,0x3f,0x40,0x00,0x89,0x46,0x40,0x00,0x99,0x2e,0x3f,0x04,0x89,0x2e,0x40,
0x81,0x38,0x99,0x23,0x72,0x00,0x99,0x3c,0x31,0x04,0x89,0x3c,0x40,0x00,0x89,0x23,
0x40,0x00,0x99,0x2c,0x43,0x04,0x89,0x2c,0x40,0x81,0x38,0x99,0x46,0x63,0x04,0x89,
0x46,0x40,0x00,0x99,0x2e,0x3f,0x04,0x89,0x2e,0x40,0x58,0x99,0x3c,0x28,0x04,0x89,
0x3c,0x40,0x5c,0x99,0x23,0x6e,0x04,0x89,0x23,0x40,0x00,0x99,0x28,0x72,0x00,0x99,
0x2c,0x3f,0x04,0x89,0x2c,0x40,0x00,0x89,0x28,0x40,0x00,0x99,0x27,0x63,0x04,0x89,
0x27,0x40,0x54,0x99,0x3c,0x2b,0x04,0x89,0x3c,0x40,0x5c,0x99,0x46,0x4e,0x00,0x99,
0x3f,0x28,0x04,0x89,0x3f,0x40,0x00,0x89,0x46,0x40,0x00,0x99,0x2e,0x3f,0x04,0x89,
0x2e,0x40,0x58,0x99,0x46,0x55,0x04,0x89,0x46,0x40,0x5c,0x99,0x23,0x72,0x00,0x99,
0x3c,0x31,0x04,0x89,0x3c,0x40,0x00,0x89,0x23,0x40,0x00,0x99,0x2c,0x3f,0x04,0x89,
0x2c,0x40,0x81,0x38,0x99,0x46,0x63,0x04,0x89,0x46,0x40,0x00,0x99,0x2e,0x3f,0x04,
0x89,0x2e,0x40,0x58,0x99,0x3c,0x28,0x04,0x89,0x3c,0x40,0x5c,0x99,0x23,0x72,0x04,
0x89,0x23,0x40,0x00,0x99,0x28,0x72,0x00,0x99,0x2c,0x43,0x04,0x89,0x2c,0x40,0x00,
0x89,0x28,0x40,0x00,0x99,0x27,0x63,0x04,0x89,0x27,0x40,0x54,0x99,0x3c,0x28,0x04,
0x89,0x3c,0x40,0x5c,0x99,0x46,0x51,0x00,0x99,0x3f,0x31,0x04,0x89,0x3f,0x40,0x00,
0x89,0x46,0x40,0x00,0x99,0x2e,0x43,0x04,0x89,0x2e,0x40,0x58,0x99,0x46,0x63,0x04,
0x89,0x46,0x40,0x5c,0x99,0x23,0x6e,0x00,0x99,0x45,0x4a,0x00,0x99,0x3c,0x36,0x04,
0x89,0x3c,0x40,0x00,0x89,0x45,0x40,0x00,0x89,0x23,0x40,0x00,0x99,0x2c,0x4c,0x04,
0x89,0x2c,0x40,0x54,0x99,0x45,0x1c,0x04,0x89,0x45,0x40,0x50,0x99,0x45,0x66,0x04,
0x89,0x45,0x40,0x0c,0x99,0x46,0x63,0x04,0x89,0x46,0x40,0x00,0x99,0x2e,0x3f,0x04,
0x89,0x2e,0x40,0x48,0x99,0x45,0x66,0x04,0x89,0x45,0x40,0x0c,0x99,0x3c,0x36,0x04,
0x89,0x3c,0x40,0x5c,0x99,0x23,0x72,0x04,0x89,0x23,0x40,0x00,0x99,0x28,0x6e,0x00,
0x99,0x2c,0x3c,0x04,0x89,0x2c,0x40,0x00,0x89,0x28,0x40,0x00,0x99,0x27,0x5f,0x04,
0x89,0x27,0x40,0x54,0x99,0x3c,0x2b,0x04,0x89,0x3c,0x40,0x5c,0x99,0x46,0x51,0x00,
0x99,0x3f,0x31,0x04,0x89,0x3f,0x40,0x00,0x89,0x46,0x40,0x5c,0x99,0x46,0x63,0x04,
0x89,0x46,0x40,0x5c,0x99,0x23,0x6e,0x00,0x99,0x3c,0x36,0x04,0x89,0x3c,0x40,0x00,
0x89,0x23,0x40,0x81,0x3c,0x99,0x46,0x5e,0x04,0x89,0x46,0x40,0x00,0x99,0x2e,0x43,
0x04,0x89,0x2e,0x40,0x58,0x99,0x3c,0x2b,0x04,0x89,0x3c,0x40,0x5c,0x99,0x23,0x72,
0x04,0x89,0x23,0x40,0x00,0x99,0x28,0x6e,0x00,0x99,0x2c,0x43,0x04,0x89,0x2c,0x40,
0x00,0x89,0x28,0x40,0x00,0x99,0x27,0x5f,0x04,0x89,0x27,0x40,0x54,0x99,0x3c,0x31,
0x04,0x89,0x3c,0x40,0x5c,0x99,0x46,0x5e,0x00,0x99,0x3f,0x36,0x04,0x89,0x3f,0x40,
0x00,0x89,0x46,0x40,0x00,0x99,0x2e,0x3f,0x04,0x89,0x2e,0x40,0x81,0x38,0x99,0x23,
0x6e,0x00,0x99,0x3c,0x36,0x04,0x89,0x3c,0x40,0x00,0x89,0x23,0x40,0x00,0x99,0x2c,
0x3f,0x04,0x89,0x2c,0x40,0x81,0x38,0x99,0x46,0x5e,0x04,0x89,0x46,0x40,0x00,0x99,
0x2e,0x3c,0x04,0x89,0x2e,0x40,0x58,0x99,0x3c,0x21,0x04,0x89,0x3c,0x40,0x5c,0x99,
0x23,0x6e,0x04,0x89,0x23,0x40,0x00,0x99,0x28,0x6e,0x00,0x99,0x2c,0x3f,0x04,0x89,
0x2c,0x40,0x00,0x89,0x28,0x40,0x00,0x99,0x27,0x5f,0x04,0x89,0x27,0x40,0x54,0x99,
0x3c,0x24,0x04,0x89,0x3c,0x40,0x5c,0x99,0x46,0x4e,0x00,0x99,0x3f,0x31,0x04,0x89,
0x3f,0x40,0x00,0x89,0x46,0x40,0x00,0x99,0x2e,0x36,0x04,0x89,0x2e,0x40,0x58,0x99,
0x46,0x5e,0x04,0x89,0x46,0x40,0x5c,0x99,0x23,0x6e,0x00,0x99,0x3c,0x36,0x04,0x89,
0x3c,0x40,0x00,0x89,0x23,0x40,0x00,0x99,0x2c,0x3f,0x04,0x89,0x2c,0x40,0x81,0x38,
0x99,0x46,0x5e,0x04,0x89,0x46,0x40,0x00,0x99,0x2e,0x36,0x04,0x89,0x2e,0x40,0x58,
0x99,0x3c,0x2b,0x04,0x89,0x3c,0x40,0x5c,0x99,0x23,0x72,0x04,0x89,0x23,0x40,0x00,
0x99,0x28,0x6e,0x00,0x99,0x2c,0x3f,0x04,0x89,0x2c,0x40,0x00,0x89,0x28,0x40,0x00,
0x99,0x27,0x5f,0x04,0x89,0x27,0x40,0x54,0x99,0x3c,0x28,0x04,0x89,0x3c,0x40,0x5c,
0x99,0x46,0x4e,0x00,0x99,0x3f,0x31,0x04,0x89,0x3f,0x40,0x00,0x89,0x46,0x40,0x00,
0x99,0x2e,0x3c,0x04,0x89,0x2e,0x40,0x58,0x99,0x46,0x63,0x04,0x89,0x46,0x40,0x5c,
0x99,0x23,0x72,0x00,0x99,0x45,0x4a,0x00,0x99,0x3c,0x36,0x04,0x89,0x3c,0x40,0x00,
0x89,0x45,0x40,0x00,0x89,0x23,0x40,0x00,0x99,0x2c,0x3f,0x04,0x89,0x2c,0x40,0x54,
0x99,0x45,0x1c,0x04,0x89,0x45,0x40,0x50,0x99,0x45,0x66,0x04,0x89,0x45,0x40,0x0c,
0x99,0x46,0x5e,0x04,0x89,0x46,0x40,0x00,0x99,0x2e,0x43,0x04,0x89,0x2e,0x40,0x48,
0x99,0x45,0x66,0x04,0x89,0x45,0x40,0x0c,0x99,0x3c,0x2b,0x04,0x89,0x3c,0x40,0x5c,
0x99,0x23,0x72,0x04,0x89,0x23,0x40,0x00,0x99,0x28,0x72,0x00,0x99,0x2c,0x4c,0x04,
0x89,0x2c,0x40,0x00,0x89,0x28,0x40,0x00,0x99,0x27,0x63,0x04,0x89,0x27,0x40,0x54,
0x99,0x3c,0x28,0x04,0x89,0x3c,0x40,0x5c,0x99,0x46,0x48,0x00,0x99,0x3f,0x28,0x04,
0x89,0x3f,0x40,0x00,0x89,0x46,0x40,0x5c,0x99,0x46,0x55,0x04,0x89,0x46,0x40,0x5c,
0x99,0x23,0x6e,0x00,0x99,0x3c,0x36,0x04,0x89,0x3c,0x40,0x00,0x89,0x23,0x40,0x81,
0x3c,0x99,0x46,0x5e,0x04,0x89,0x46,0x40,0x00,0x99,0x2e,0x3f,0x04,0x89,0x2e,0x40,
0x58,0x99,0x3c,0x28,0x04,0x89,0x3c,0x40,0x5c,0x99,0x23,0x72,0x04,0x89,0x23,0x40,
0x00,0x99,0x28,0x72,0x00,0x99,0x2c,0x3f,0x04,0x89,0x2c,0x40,0x00,0x89,0x28,0x40,
0x00,0x99,0x27,0x63,0x04,0x89,0x27,0x40,0x54,0x99,0x3c,0x2b,0x04,0x89,0x3c,0x40,
0x5c,0x99,0x46,0x5e,0x00,0x99,0x3f,0x36,0x04,0x89,0x3f,0x40,0x00,0x89,0x46,0x40,
0x00,0x99,0x2e,0x3f,0x04,0x89,0x2e,0x40,0x81,0x38,0x99,0x23,0x72,0x00,0x99,0x3c,
0x31,0x04,0x89,0x3c,0x40,0x00,0x89,0x23,0x40,0x00,0x99,0x2c,0x43,0x04,0x89,0x2c,
0x40,0x81,0x38,0x99,0x46,0x63,0x04,0x89,0x46,0x40,0x00,0x99,0x2e,0x3f,0x04,0x89,
0x2e,0x40,0x58,0x99,0x3c,0x28,0x04,0x89,0x3c,0x40,0x5c,0x99,0x23,0x6e,0x04,0x89,
0x23,0x40,0x00,0x99,0x28,0x72,0x00,0x99,0x2c,0x3f,0x04,0x89,0x2c,0x40,0x00,0x89,
0x28,0x40,0x00,0x99,0x27,0x63,0x04,0x89,0x27,0x40,0x54,0x99,0x3c,0x2b,0x04,0x89,
0x3c,0x40,0x5c,0x99,0x46,0x4e,0x00,0x99,0x3f,0x28,0x04,0x89,0x3f,0x40,0x00,0x89,
0x46,0x40,0x00,0x99,0x2e,0x3f,0x04,0x89,0x2e,0x40,0x58,0x99,0x46,0x55,0x04,0x89,
0x46,0x40,0x5c,0x99,0x23,0x72,0x00,0x99,0x3c,0x31,0x04,0x89,0x3c,0x40,0x00,0x89,
0x23,0x40,0x00,0x99,0x2c,0x3f,0x04,0x89,0x2c,0x40,0x5c,0x99,0x28,0x6e,0x04,0x89,
0x28,0x40,0x00,0x99,0x27,0x5f,0x04,0x89,0x27,0x40,0x54,0x99,0x46,0x63,0x04,0x89,
0x46,0x40,0x00,0x99,0x2e,0x3f,0x04,0x89,0x2e,0x40,0x58,0x99,0x3c,0x28,0x04,0x89,
0x3c,0x40,0x5c,0x99,0x23,0x72,0x04,0x89,0x23,0x40,0x00,0x99,0x28,0x72,0x00,0x99,
0x2c,0x43,0x04,0x89,0x2c,0x40,0x00,0x89,0x28,0x40,0x00,0x99,0x27,0x63,0x04,0x89,
0x27,0x40,0x54,0x99,0x3c,0x28,0x04,0x89,0x3c,0x40,0x5c,0x99,0x46,0x51,0x00,0x99,
0x3f,0x31,0x04,0x89,0x3f,0x40,0x00,0x89,0x46,0x40,0x00,0x99,0x2e,0x43,0x04,0x89,
0x2e,0x40,0x58,0x99,0x46,0x63,0x04,0x89,0x46,0x40,0x00,0x99,0x28,0x6e,0x04,0x89,
0x28,0x40,0x00,0x99,0x27,0x5f,0x04,0x89,0x27,0x40,0x54,0x99,0x23,0x6e,0x00,0x99,
0x45,0x4a,0x00,0x99,0x3c,0x36,0x04,0x89,0x3c,0x40,0x00,0x89,0x45,0x40,0x00,0x89,
0x23,0x40,0x00,0x99,0x2c,0x4c,0x04,0x89,0x2c,0x40,0x54,0x99,0x45,0x1c,0x04,0x89,
0x45,0x40,0x50,0x99,0x45,0x66,0x04,0x89,0x45,0x40,0x0c,0x99,0x46,0x63,0x04,0x89,
0x46,0x40,0x00,0x99,0x2e,0x3f,0x04,0x89,0x2e,0x40,0x48,0x99,0x45,0x66,0x04,0x89,
0x45,0x40,0x0c,0x99,0x3c,0x36,0x04,0x89,0x3c,0x40,0x5c,0x99,0x23,0x72,0x04,0x89,
0x23,0x40,0x00,0x99,0x28,0x6e,0x00,0x99,0x2c,0x3c,0x04,0x89,0x2c,0x40,0x00,0x89,
0x28,0x40,0x00,0x99,0x27,0x5f,0x04,0x89,0x27,0x40,0x54,0x99,0x3c,0x2b,0x04,0x89,
0x3c,0x40,0x5c,0x99,0x46,0x51,0x00,0x99,0x3f,0x31,0x04,0x89,0x3f,0x40,0x00,0x89,
0x46,0x40,0x5c,0x99,0x46,0x63,0x04,0x89,0x46,0x40,0x5c,0x99,0x23,0x6e,0x00,0x99,
0x3c,0x36,0x04,0x89,0x3c,0x40,0x00,0x89,0x23,0x40,0x81,0x3c,0x99,0x46,0x5e,0x04,
0x89,0x46,0x40,0x00,0x99,0x2e,0x43,0x04,0x89,0x2e,0x40,0x58,0x99,0x3c,0x2b,0x04,
0x89,0x3c,0x40,0x5c,0x99,0x23,0x72,0x04,0x89,0x23,0x40,0x00,0x99,0x28,0x6e,0x00,
0x99,0x2c,0x43,0x04,0x89,0x2c,0x40,0x00,0x89,0x28,0x40,0x00,0x99,0x27,0x5f,0x04,
0x89,0x27,0x40,0x54,0x99,0x3c,0x31,0x04,0x89,0x3c,0x40,0x5c,0x99,0x46,0x5e,0x00,
0x99,0x3f,0x36,0x04,0x89,0x3f,0x40,0x00,0x89,0x46,0x40,0x00,0x99,0x2e,0x3f,0x04,
0x89,0x2e,0x40,0x81,0x38,0x99,0x23,0x6e,0x00,0x99,0x3c,0x36,0x04,0x89,0x3c,0x40,
0x00,0x89,0x23,0x40,0x00,0x99,0x2c,0x3f,0x04,0x89,0x2c,0x40,0x81,0x38,0x99,0x46,
0x5e,0x04,0x89,0x46,0x40,0x00,0x99,0x2e,0x3c,0x04,0x89,0x2e,0x40,0x58,0x99,0x3c,
0x21,0x04,0x89,0x3c,0x40,0x5c,0x99,0x23,0x6e,0x04,0x89,0x23,0x40,0x00,0x99,0x28,
0x6e,0x00,0x99,0x2c,0x3f,0x04,0x89,0x2c,0x40,0x00,0x89,0x28,0x40,0x00,0x99,0x27,
0x5f,0x04,0x89,0x27,0x40,0x54,0x99,0x3c,0x24,0x04,0x89,0x3c,0x40,0x5c,0x99,0x46,
0x4e,0x00,0x99,0x3f,0x31,0x04,0x89,0x3f,0x40,0x00,0x89,0x46,0x40,0x00,0x99,0x2e,
0x36,0x04,0x89,0x2e,0x40,0x58,0x99,0x46,0x5e,0x04,0x89,0x46,0x40,0x5c,0x99,0x23,
0x6e,0x00,0x99,0x3c,0x36,0x04,0x89,0x3c,0x40,0x00,0x89,0x23,0x40,0x00,0x99,0x2c,
0x3f,0x04,0x89,0x2c,0x40,0x81,0x38,0x99,0x46,0x5e,0x04,0x89,0x46,0x40,0x00,0x99,
0x2e,0x36,0x04,0x89,0x2e,0x40,0x58,0x99,0x3c,0x2b,0x04,0x89,0x3c,0x40,0x5c,0x99,
0x23,0x72,0x04,0x89,0x23,0x40,0x00,0x99,0x28,0x6e,0x00,0x99,0x2c,0x3f,0x04,0x89,
0x2c,0x40,0x00,0x89,0x28,0x40,0x00,0x99,0x27,0x5f,0x04,0x89,0x27,0x40,0x54,0x99,
0x3c,0x28,0x04,0x89,0x3c,0x40,0x5c,0x99,0x46,0x4e,0x00,0x99,0x3f,0x31,0x04,0x89,
0x3f,0x40,0x00,0x89,0x46,0x40,0x00,0x99,0x2e,0x3c,0x04,0x89,0x2e,0x40,0x58,0x99,
0x46,0x63,0x04,0x89,0x46,0x40,0x5c,0x99,0x23,0x72,0x00,0x99,0x45,0x4a,0x00,0x99,
0x3c,0x36,0x04,0x89,0x3c,0x40,0x00,0x89,0x45,0x40,0x00,0x89,0x23,0x40,0x00,0x99,
0x2c,0x3f,0x04,0x89,0x2c,0x40,0x54,0x99,0x45,0x1c,0x04,0x89,0x45,0x40,0x50,0x99,
0x45,0x66,0x04,0x89,0x45,0x40,0x0c,0x99,0x46,0x5e,0x04,0x89,0x46,0x40,0x00,0x99,
0x2e,0x43,0x04,0x89,0x2e,0x40,0x48,0x99,0x45,0x66,0x04,0x89,0x45,0x40,0x0c,0x99,
0x3c,0x2b,0x04,0x89,0x3c,0x40,0x5c,0x99,0x23,0x72,0x04,0x89,0x23,0x40,0x00,0x99,
0x28,0x72,0x00,0x99,0x2c,0x4c,0x04,0x89,0x2c,0x40,0x00,0x89,0x28,0x40,0x00,0x99,
0x27,0x63,0x04,0x89,0x27,0x40,0x54,0x99,0x3c,0x28,0x04,0x89,0x3c,0x40,0x5c,0x99,
0x46,0x48,0x00,0x99,0x3f,0x28,0x04,0x89,0x3f,0x40,0x00,0x89,0x46,0x40,0x5c,0x99,
0x46,0x55,0x04,0x89,0x46,0x40,0x5c,0x99,0x23,0x6e,0x00,0x99,0x3c,0x36,0x04,0x89,
0x3c,0x40,0x00,0x89,0x23,0x40,0x81,0x3c,0x99,0x46,0x5e,0x04,0x89,0x46,0x40,0x00,
0x99,0x2e,0x3f,0x04,0x89,0x2e,0x40,0x58,0x99,0x3c,0x28,0x04,0x89,0x3c,0x40,0x5c,
0x99,0x23,0x72,0x04,0x89,0x23,0x40,0x00,0x99,0x28,0x72,0x00,0x99,0x2c,0x3f,0x04,
0x89,0x2c,0x40,0x00,0x89,0x28,0x40,0x00,0x99,0x27,0x63,0x04,0x89,0x27,0x40,0x54,
0x99,0x3c,0x2b,0x04,0x89,0x3c,0x40,0x5c,0x99,0x46,0x5e,0x00,0x99,0x3f,0x36,0x04,
0x89,0x3f,0x40,0x00,0x89,0x46,0x40,0x00,0x99,0x2e,0x3f,0x04,0x89,0x2e,0x40,0x81,
0x38,0x99,0x23,0x72,0x00,0x99,0x3c,0x31,0x04,0x89,0x3c,0x40,0x00,0x89,0x23,0x40,
0x00,0x99,0x2c,0x43,0x04,0x89,0x2c,0x40,0x81,0x38,0x99,0x46,0x63,0x04,0x89,0x46,
0x40,0x00,0x99,0x2e,0x3f,0x04,0x89,0x2e,0x40,0x58,0x99,0x3c,0x28,0x04,0x89,0x3c,
0x40,0x5c,0x99,0x23,0x6e,0x04,0x89,0x23,0x40,0x00,0x99,0x28,0x72,0x00,0x99,0x2c,
0x3f,0x04,0x89,0x2c,0x40,0x00,0x89,0x28,0x40,0x00,0x99,0x27,0x63,0x04,0x89,0x27,
0x40,0x54,0x99,0x3c,0x2b,0x04,0x89,0x3c,0x40,0x5c,0x99,0x46,0x4e,0x00,0x99,0x3f,
0x28,0x04,0x89,0x3f,0x40,0x00,0x89,0x46,0x40,0x00,0x99,0x2e,0x3f,0x04,0x89,0x2e,
0x40,0x58,0x99,0x46,0x55,0x04,0x89,0x46,0x40,0x5c,0x99,0x23,0x72,0x00,0x99,0x3c,
0x31,0x04,0x89,0x3c,0x40,0x00,0x89,0x23,0x40,0x00,0x99,0x2c,0x3f,0x04,0x89,0x2c,
0x40,0x81,0x38,0x99,0x46,0x63,0x04,0x89,0x46,0x40,0x00,0x99,0x2e,0x3f,0x04,0x89,
0x2e,0x40,0x58,0x99,0x3c,0x28,0x04,0x89,0x3c,0x40,0x5c,0x99,0x23,0x72,0x04,0x89,
0x23,0x40,0x00,0x99,0x28,0x72,0x00,0x99,0x2c,0x43,0x04,0x89,0x2c,0x40,0x00,0x89,
0x28,0x40,0x00,0x99,0x27,0x63,0x04,0x89,0x27,0x40,0x54,0x99,0x3c,0x28,0x04,0x89,
0x3c,0x40,0x5c,0x99,0x46,0x51,0x00,0x99,0x3f,0x31,0x04,0x89,0x3f,0x40,0x00,0x89,
0x46,0x40,0x00,0x99,0x2e,0x43,0x04,0x89,0x2e,0x40,0x58,0x99,0x46,0x63,0x04,0x89,
0x46,0x40,0x5c,0x99,0x23,0x6e,0x00,0x99,0x45,0x4a,0x00,0x99,0x3c,0x36,0x04,0x89,
0x3c,0x40,0x00,0x89,0x45,0x40,0x00,0x89,0x23,0x40,0x00,0x99,0x2c,0x4c,0x04,0x89,
0x2c,0x40,0x54,0x99,0x45,0x1c,0x04,0x89,0x45,0x40,0x50,0x99,0x45,0x66,0x04,0x89,
0x45,0x40,0x0c,0x99,0x46,0x63,0x04,0x89,0x46,0x40,0x00,0x99,0x2e,0x3f,0x04,0x89,
0x2e,0x40,0x48,0x99,0x45,0x66,0x04,0x89,0x45,0x40,0x0c,0x99,0x3c,0x36,0x04,0x89,
0x3c,0x40,0x5c,0x99,0x23,0x72,0x04,0x89,0x23,0x40,0x00,0x99,0x28,0x6e,0x00,0x99,
0x2c,0x3c,0x04,0x89,0x2c,0x40,0x00,0x89,0x28,0x40,0x00,0x99,0x27,0x5f,0x04,0x89,
0x27,0x40,0x54,0x99,0x3c,0x2b,0x04,0x89,0x3c,0x40,0x5c,0x99,0x46,0x51,0x00,0x99,
0x3f,0x31,0x04,0x89,0x3f,0x40,0x00,0x89,0x46,0x40,0x5c,0x99,0x46,0x63,0x04,0x89,
0x46,0x40,0x5c,0x99,0x23,0x6e,0x00,0x99,0x3c,0x36,0x04,0x89,0x3c,0x40,0x00,0x89,
0x23,0x40,0x81,0x3c,0x99,0x46,0x5e,0x04,0x89,0x46,0x40,0x00,0x99,0x2e,0x43,0x04,
0x89,0x2e,0x40,0x58,0x99,0x3c,0x2b,0x04,0x89,0x3c,0x40,0x5c,0x99,0x23,0x72,0x04,
0x89,0x23,0x40,0x00,0x99,0x28,0x6e,0x00,0x99,0x2c,0x43,0x04,0x89,0x2c,0x40,0x00,
0x89,0x28,0x40,0x00,0x99,0x27,0x5f,0x04,0x89,0x27,0x40,0x54,0x99,0x3c,0x31,0x04,
0x89,0x3c,0x40,0x5c,0x99,0x46,0x5e,0x00,0x99,0x3f,0x36,0x04,0x89,0x3f,0x40,0x00,
0x89,0x46,0x40,0x00,0x99,0x2e,0x3f,0x04,0x89,0x2e,0x40,0x81,0x38,0x99,0x23,0x6e,
0x00,0x99,0x3c,0x36,0x04,0x89,0x3c,0x40,0x00,0x89,0x23,0x40,0x00,0x99,0x2c,0x3f,
0x04,0x89,0x2c,0x40,0x81,0x38,0x99,0x46,0x5e,0x04,0x89,0x46,0x40,0x00,0x99,0x2e,
0x3c,0x04,0x89,0x2e,0x40,0x58,0x99,0x3c,0x21,0x04,0x89,0x3c,0x40,0x5c,0x99,0x23,
0x6e,0x04,0x89,0x23,0x40,0x00,0x99,0x28,0x6e,0x00,0x99,0x2c,0x3f,0x04,0x89,0x2c,
0x40,0x00,0x89,0x28,0x40,0x00,0x99,0x27,0x5f,0x04,0x89,0x27,0x40,0x54,0x99,0x3c,
0x24,0x04,0x89,0x3c,0x40,0x5c,0x99,0x46,0x4e,0x00,0x99,0x3f,0x31,0x04,0x89,0x3f,
0x40,0x00,0x89,0x46,0x40,0x00,0x99,0x2e,0x36,0x04,0x89,0x2e,0x40,0x58,0x99,0x46,
0x5e,0x04,0x89,0x46,0x40,0x5c,0x99,0x23,0x6e,0x00,0x99,0x3c,0x36,0x04,0x89,0x3c,
0x40,0x00,0x89,0x23,0x40,0x00,0x99,0x2c,0x3f,0x04,0x89,0x2c,0x40,0x81,0x38,0x99,
0x46,0x5e,0x04,0x89,0x46,0x40,0x00,0x99,0x2e,0x36,0x04,0x89,0x2e,0x40,0x58,0x99,
0x3c,0x2b,0x04,0x89,0x3c,0x40,0x5c,0x99,0x23,0x72,0x04,0x89,0x23,0x40,0x00,0x99,
0x28,0x6e,0x00,0x99,0x2c,0x3f,0x04,0x89,0x2c,0x40,0x00,0x89,0x28,0x40,0x00,0x99,
0x27,0x5f,0x04,0x89,0x27,0x40,0x54,0x99,0x3c,0x28,0x04,0x89,0x3c,0x40,0x5c,0x99,
0x46,0x4e,0x00,0x99,0x3f,0x31,0x04,0x89,0x3f,0x40,0x00,0x89,0x46,0x40,0x00,0x99,
0x2e,0x3c,0x04,0x89,0x2e,0x40,0x58,0x99,0x46,0x63,0x04,0x89,0x46,0x40,0x5c,0x99,
0x23,0x72,0x00,0x99,0x45,0x4a,0x00,0x99,0x3c,0x36,0x04,0x89,0x3c,0x40,0x00,0x89,
0x45,0x40,0x00,0x89,0x23,0x40,0x00,0x99,0x2c,0x3f,0x04,0x89,0x2c,0x40,0x54,0x99,
0x45,0x1c,0x04,0x89,0x45,0x40,0x50,0x99,0x45,0x66,0x04,0x89,0x45,0x40,0x0c,0x99,
0x46,0x5e,0x04,0x89,0x46,0x40,0x00,0x99,0x2e,0x43,0x04,0x89,0x2e,0x40,0x48,0x99,
0x45,0x66,0x04,0x89,0x45,0x40,0x0c,0x99,0x3c,0x2b,0x04,0x89,0x3c,0x40,0x5c,0x99,
0x23,0x72,0x04,0x89,0x23,0x40,0x00,0x99,0x28,0x72,0x00,0x99,0x2c,0x4c,0x04,0x89,
0x2c,0x40,0x00,0x89,0x28,0x40,0x00,0x99,0x27,0x63,0x04,0x89,0x27,0x40,0x54,0x99,
0x3c,0x28,0x04,0x89,0x3c,0x40,0x5c,0x99,0x46,0x48,0x00,0x99,0x3f,0x28,0x04,0x89,
0x3f,0x40,0x00,0x89,0x46,0x40,0x5c,0x99,0x46,0x55,0x04,0x89,0x46,0x40,0x5c,0x99,
0x23,0x6e,0x00,0x99,0x3c,0x36,0x04,0x89,0x3c,0x40,0x00,0x89,0x23,0x40,0x81,0x3c,
0x99,0x46,0x5e,0x04,0x89,0x46,0x40,0x00,0x99,0x2e,0x3f,0x04,0x89,0x2e,0x40,0x58,
0x99,0x3c,0x28,0x04,0x89,0x3c,0x40,0x5c,0x99,0x23,0x72,0x04,0x89,0x23,0x40,0x00,
0x99,0x28,0x72,0x00,0x99,0x2c,0x3f,0x04,0x89,0x2c,0x40,0x00,0x89,0x28,0x40,0x00,
0x99,0x27,0x63,0x04,0x89,0x27,0x40,0x54,0x99,0x3c,0x2b,0x04,0x89,0x3c,0x40,0x5c,
0x99,0x46,0x5e,0x00,0x99,0x3f,0x36,0x04,0x89,0x3f,0x40,0x00,0x89,0x46,0x40,0x00,
0x99,0x2e,0x3f,0x04,0x89,0x2e,0x40,0x81,0x38,0x99,0x23,0x72,0x00,0x99,0x3c,0x31,
0x04,0x89,0x3c,0x40,0x00,0x89,0x23,0x40,0x00,0x99,0x2c,0x43,0x04,0x89,0x2c,0x40,
0x81,0x38,0x99,0x46,0x63,0x04,0x89,0x46,0x40,0x00,0x99,0x2e,0x3f,0x04,0x89,0x2e,
0x40,0x58,0x99,0x3c,0x28,0x04,0x89,0x3c,0x40,0x5c,0x99,0x23,0x6e,0x04,0x89,0x23,
0x40,0x00,0x99,0x28,0x72,0x00,0x99,0x2c,0x3f,0x04,0x89,0x2c,0x40,0x00,0x89,0x28,
0x40,0x00,0x99,0x27,0x63,0x04,0x89,0x27,0x40,0x54,0x99,0x3c,0x2b,0x04,0x89,0x3c,
0x40,0x5c,0x99,0x46,0x4e,0x00,0x99,0x3f,0x28,0x04,0x89,0x3f,0x40,0x00,0x89,0x46,
0x40,0x00,0x99,0x2e,0x3f,0x04,0x89,0x2e,0x40,0x58,0x99,0x46,0x55,0x04,0x89,0x46,
0x40,0x5c,0x99,0x23,0x72,0x00,0x99,0x3c,0x31,0x04,0x89,0x3c,0x40,0x00,0x89,0x23,
0x40,0x00,0x99,0x2c,0x3f,0x04,0x89,0x2c,0x40,0x81,0x38,0x99,0x46,0x63,0x04,0x89,
0x46,0x40,0x00,0x99,0x2e,0x3f,0x04,0x89,0x2e,0x40,0x58,0x99,0x3c,0x28,0x04,0x89,
0x3c,0x40,0x5c,0x99,0x23,0x72,0x04,0x89,0x23,0x40,0x00,0x99,0x28,0x72,0x00,0x99,
0x2c,0x43,0x04,0x89,0x2c,0x40,0x00,0x89,0x28,0x40,0x00,0x99,0x27,0x63,0x04,0x89,
0x27,0x40,0x54,0x99,0x3c,0x28,0x04,0x89,0x3c,0x40,0x00,0x99,0x28,0x6e,0x04,0x89,
0x28,0x40,0x00,0x99,0x27,0x5f,0x04,0x89,0x27,0x40,0x54,0x99,0x46,0x51,0x00,0x99,
0x3f,0x31,0x04,0x89,0x3f,0x40,0x00,0x89,0x46,0x40,0x00,0x99,0x2e,0x43,0x04,0x89,
0x2e,0x40,0x58,0x99,0x46,0x63,0x04,0x89,0x46,0x40,0x5c,0x99,0x23,0x6e,0x00,0x99,
0x45,0x4a,0x00,0x99,0x3c,0x36,0x04,0x89,0x3c,0x40,0x00,0x89,0x45,0x40,0x00,0x89,
0x23,0x40,0x00,0x99,0x2c,0x4c,0x04,0x89,0x2c,0x40,0x54,0x99,0x45,0x1c,0x04,0x89,
0x45,0x40,0x50,0x99,0x45,0x66,0x04,0x89,0x45,0x40,0x0c,0x99,0x46,0x63,0x04,0x89,
0x46,0x40,0x00,0x99,0x2e,0x3f,0x04,0x89,0x2e,0x40,0x48,0x99,0x45,0x66,0x04,0x89,
0x45,0x40,0x0c,0x99,0x3c,0x36,0x04,0x89,0x3c,0x40,0x5c,0x99,0x23,0x72,0x04,0x89,
0x23,0x40,0x00,0x99,0x28,0x6e,0x00,0x99,0x2c,0x3c,0x04,0x89,0x2c,0x40,0x00,0x89,
0x28,0x40,0x00,0x99,0x27,0x5f,0x04,0x89,0x27,0x40,0x54,0x99,0x3c,0x2b,0x04,0x89,
0x3c,0x40,0x5c,0x99,0x46,0x51,0x00,0x99,0x3f,0x31,0x04,0x89,0x3f,0x40,0x00,0x89,
0x46,0x40,0x5c,0x99,0x46,0x63,0x04,0x89,0x46,0x40,0x5c,0x99,0x23,0x6e,0x00,0x99,
0x3c,0x36,0x04,0x89,0x3c,0x40,0x00,0x89,0x23,0x40,0x81,0x3c,0x99,0x46,0x5e,0x04,
0x89,0x46,0x40,0x00,0x99,0x2e,0x43,0x04,0x89,0x2e,0x40,0x58,0x99,0x3c,0x2b,0x04,
0x89,0x3c,0x40,0x5c,0x99,0x23,0x72,0x04,0x89,0x23,0x40,0x00,0x99,0x28,0x6e,0x00,
0x99,0x2c,0x43,0x04,0x89,0x2c,0x40,0x00,0x89,0x28,0x40,0x00,0x99,0x27,0x5f,0x04,
0x89,0x27,0x40,0x54,0x99,0x3c,0x31,0x04,0x89,0x3c,0x40,0x5c,0x99,0x46,0x5e,0x00,
0x99,0x3f,0x36,0x04,0x89,0x3f,0x40,0x00,0x89,0x46,0x40,0x00,0x99,0x2e,0x3f,0x04,
0x89,0x2e,0x40,0x81,0x38,0x99,0x23,0x6e,0x00,0x99,0x3c,0x36,0x04,0x89,0x3c,0x40,
0x00,0x89,0x23,0x40,0x00,0x99,0x2c,0x3f,0x04,0x89,0x2c,0x40,0x81,0x38,0x99,0x46,
0x5e,0x04,0x89,0x46,0x40,0x00,0x99,0x2e,0x3c,0x04,0x89,0x2e,0x40,0x58,0x99,0x3c,
0x21,0x04,0x89,0x3c,0x40,0x5c,0x99,0x23,0x6e,0x04,0x89,0x23,0x40,0x00,0x99,0x28,
0x6e,0x00,0x99,0x2c,0x3f,0x04,0x89,0x2c,0x40,0x00,0x89,0x28,0x40,0x00,0x99,0x27,
0x5f,0x04,0x89,0x27,0x40,0x54,0x99,0x3c,0x24,0x04,0x89,0x3c,0x40,0x5c,0x99,0x46,
0x4e,0x00,0x99,0x3f,0x31,0x04,0x89,0x3f,0x40,0x00,0x89,0x46,0x40,0x00,0x99,0x2e,
0x36,0x04,0x89,0x2e,0x40,0x58,0x99,0x46,0x5e,0x04,0x89,0x46,0x40,0x5c,0x99,0x23,
0x6e,0x00,0x99,0x3c,0x36,0x04,0x89,0x3c,0x40,0x00,0x89,0x23,0x40,0x00,0x99,0x2c,
0x3f,0x04,0x89,0x2c,0x40,0x81,0x38,0x99,0x46,0x5e,0x04,0x89,0x46,0x40,0x00,0x99,
0x2e,0x36,0x04,0x89,0x2e,0x40,0x58,0x99,0x3c,0x2b,0x04,0x89,0x3c,0x40,0x5c,0x99,
0x23,0x72,0x04,0x89,0x23,0x40,0x00,0x99,0x28,0x6e,0x00,0x99,0x2c,0x3f,0x04,0x89,
0x2c,0x40,0x00,0x89,0x28,0x40,0x00,0x99,0x27,0x5f,0x04,0x89,0x27,0x40,0x54,0x99,
0x3c,0x28,0x04,0x89,0x3c,0x40,0x5c,0x99,0x46,0x4e,0x00,0x99,0x3f,0x31,0x04,0x89,
0x3f,0x40,0x00,0x89,0x46,0x40,0x00,0x99,0x2e,0x3c,0x04,0x89,0x2e,0x40,0x58,0x99,
0x46,0x63,0x04,0x89,0x46,0x40,0x5c,0x99,0x23,0x72,0x00,0x99,0x45,0x4a,0x00,0x99,
0x3c,0x36,0x04,0x89,0x3c,0x40,0x00,0x89,0x45,0x40,0x00,0x89,0x23,0x40,0x00,0x99,
0x2c,0x3f,0x04,0x89,0x2c,0x40,0x54,0x99,0x45,0x1c,0x04,0x89,0x45,0x40,0x50,0x99,
0x45,0x66,0x04,0x89,0x45,0x40,0x0c,0x99,0x46,0x5e,0x04,0x89,0x46,0x40,0x00,0x99,
0x2e,0x43,0x04,0x89,0x2e,0x40,0x48,0x99,0x45,0x66,0x04,0x89,0x45,0x40,0x0c,0x99,
0x3c,0x2b,0x04,0x89,0x3c,0x40,0x5c,0x99,0x23,0x72,0x04,0x89,0x23,0x40,0x00,0x99,
0x28,0x72,0x00,0x99,0x2c,0x4c,0x04,0x89,0x2c,0x40,0x00,0x89,0x28,0x40,0x00,0x99,
0x27,0x63,0x04,0x89,0x27,0x40,0x54,0x99,0x3c,0x28,0x04,0x89,0x3c,0x40,0x5c,0x99,
0x46,0x48,0x00,0x99,0x3f,0x28,0x04,0x89,0x3f,0x40,0x00,0x89,0x46,0x40,0x5c,0x99,
0x46,0x55,0x04,0x89,0x46,0x40,0x5c,0x99,0x23,0x6e,0x00,0x99,0x3c,0x36,0x04,0x89,
0x3c,0x40,0x00,0x89,0x23,0x40,0x81,0x3c,0x99,0x46,0x5e,0x04,0x89,0x46,0x40,0x00,
0x99,0x2e,0x3f,0x04,0x89,0x2e,0x40,0x58,0x99,0x3c,0x28,0x04,0x89,0x3c,0x40,0x5c,
0x99,0x23,0x72,0x04,0x89,0x23,0x40,0x00,0x99,0x28,0x72,0x00,0x99,0x2c,0x3f,0x04,
0x89,0x2c,0x40,0x00,0x89,0x28,0x40,0x00,0x99,0x27,0x63,0x04,0x89,0x27,0x40,0x54,
0x99,0x3c,0x2b,0x04,0x89,0x3c,0x40,0x5c,0x99,0x46,0x5e,0x00,0x99,0x3f,0x36,0x04,
0x89,0x3f,0x40,0x00,0x89,0x46,0x40,0x00,0x99,0x2e,0x3f,0x04,0x89,0x2e,0x40,0x81,
0x38,0x99,0x23,0x72,0x00,0x99,0x3c,0x31,0x04,0x89,0x3c,0x40,0x00,0x89,0x23,0x40,
0x00,0x99,0x2c,0x43,0x04,0x89,0x2c,0x40,0x81,0x38,0x99,0x46,0x63,0x04,0x89,0x46,
0x40,0x00,0x99,0x2e,0x3f,0x04,0x89,0x2e,0x40,0x58,0x99,0x3c,0x28,0x04,0x89,0x3c,
0x40,0x5c,0x99,0x23,0x6e,0x04,0x89,0x23,0x40,0x00,0x99,0x28,0x72,0x00,0x99,0x2c,
0x3f,0x04,0x89,0x2c,0x40,0x00,0x89,0x28,0x40,0x00,0x99,0x27,0x63,0x04,0x89,0x27,
0x40,0x54,0x99,0x3c,0x2b,0x04,0x89,0x3c,0x40,0x5c,0x99,0x46,0x4e,0x00,0x99,0x3f,
0x28,0x04,0x89,0x3f,0x40,0x00,0x89,0x46,0x40,0x00,0x99,0x2e,0x3f,0x04,0x89,0x2e,
0x40,0x58,0x99,0x46,0x55,0x04,0x89,0x46,0x40,0x5c,0x99,0x23,0x72,0x00,0x99,0x3c,
0x31,0x04,0x89,0x3c,0x40,0x00,0x89,0x23,0x40,0x00,0x99,0x2c,0x3f,0x04,0x89,0x2c,
0x40,0x81,0x38,0x99,0x46,0x63,0x04,0x89,0x46,0x40,0x00,0x99,0x2e,0x3f,0x04,0x89,
0x2e,0x40,0x58,0x99,0x3c,0x28,0x04,0x89,0x3c,0x40,0x5c,0x99,0x23,0x72,0x04,0x89,
0x23,0x40,0x00,0x99,0x28,0x72,0x00,0x99,0x2c,0x43,0x04,0x89,0x2c,0x40,0x00,0x89,
0x28,0x40,0x00,0x99,0x27,0x63,0x04,0x89,0x27,0x40,0x54,0x99,0x3c,0x28,0x04,0x89,
0x3c,0x40,0x5c,0x99,0x46,0x51,0x00,0x99,0x3f,0x31,0x04,0x89,0x3f,0x40,0x00,0x89,
0x46,0x40,0x00,0x99,0x2e,0x43,0x04,0x89,0x2e,0x40,0x58,0x99,0x46,0x63,0x04,0x89,
0x46,0x40,0x5c,0x99,0x23,0x6e,0x00,0x99,0x45,0x4a,0x00,0x99,0x3c,0x36,0x04,0x89,
0x3c,0x40,0x00,0x89,0x45,0x40,0x00,0x89,0x23,0x40,0x00,0x99,0x2c,0x4c,0x04,0x89,
0x2c,0x40,0x54,0x99,0x45,0x1c,0x04,0x89,0x45,0x40,0x50,0x99,0x45,0x66,0x04,0x89,
0x45,0x40,0x0c,0x99,0x46,0x63,0x04,0x89,0x46,0x40,0x00,0x99,0x2e,0x3f,0x04,0x89,
0x2e,0x40,0x48,0x99,0x45,0x66,0x04,0x89,0x45,0x40,0x0c,0x99,0x3c,0x36,0x04,0x89,
0x3c,0x40,0x5c,0x99,0x23,0x72,0x04,0x89,0x23,0x40,0x00,0x99,0x28,0x6e,0x00,0x99,
0x2c,0x3c,0x04,0x89,0x2c,0x40,0x00,0x89,0x28,0x40,0x00,0x99,0x27,0x5f,0x04,0x89,
0x27,0x40,0x54,0x99,0x3c,0x2b,0x04,0x89,0x3c,0x40,0x5c,0x99,0x46,0x51,0x00,0x99,
0x3f,0x31,0x04,0x89,0x3f,0x40,0x00,0x89,0x46,0x40,0x5c,0x99,0x46,0x63,0x04,0x89,
0x46,0x40,0x5c,0x99,0x23,0x6e,0x00,0x99,0x3c,0x36,0x04,0x89,0x3c,0x40,0x00,0x89,
0x23,0x40,0x81,0x3c,0x99,0x46,0x5e,0x04,0x89,0x46,0x40,0x00,0x99,0x2e,0x43,0x04,
0x89,0x2e,0x40,0x58,0x99,0x3c,0x2b,0x04,0x89,0x3c,0x40,0x5c,0x99,0x23,0x72,0x04,
0x89,0x23,0x40,0x00,0x99,0x28,0x6e,0x00,0x99,0x2c,0x43,0x04,0x89,0x2c,0x40,0x00,
0x89,0x28,0x40,0x00,0x99,0x27,0x5f,0x04,0x89,0x27,0x40,0x54,0x99,0x3c,0x31,0x04,
0x89,0x3c,0x40,0x5c,0x99,0x46,0x5e,0x00,0x99,0x3f,0x36,0x04,0x89,0x3f,0x40,0x00,
0x89,0x46,0x40,0x00,0x99,0x2e,0x3f,0x04,0x89,0x2e,0x40,0x81,0x38,0x99,0x23,0x6e,
0x00,0x99,0x3c,0x36,0x04,0x89,0x3c,0x40,0x00,0x89,0x23,0x40,0x00,0x99,0x2c,0x3f,
0x04,0x89,0x2c,0x40,0x81,0x38,0x99,0x46,0x5e,0x04,0x89,0x46,0x40,0x00,0x99,0x2e,
0x3c,0x04,0x89,0x2e,0x40,0x58,0x99,0x3c,0x21,0x04,0x89,0x3c,0x40,0x5c,0x99,0x23,
0x6e,0x04,0x89,0x23,0x40,0x00,0x99,0x28,0x6e,0x00,0x99,0x2c,0x3f,0x04,0x89,0x2c,
0x40,0x00,0x89,0x28,0x40,0x00,0x99,0x27,0x5f,0x04,0x89,0x27,0x40,0x54,0x99,0x3c,
0x24,0x04,0x89,0x3c,0x40,0x5c,0x99,0x46,0x4e,0x00,0x99,0x3f,0x31,0x04,0x89,0x3f,
0x40,0x00,0x89,0x46,0x40,0x00,0x99,0x2e,0x36,0x04,0x89,0x2e,0x40,0x58,0x99,0x46,
0x5e,0x04,0x89,0x46,0x40,0x5c,0x99,0x23,0x6e,0x00,0x99,0x3c,0x36,0x04,0x89,0x3c,
0x40,0x00,0x89,0x23,0x40,0x00,0x99,0x2c,0x3f,0x04,0x89,0x2c,0x40,0x81,0x38,0x99,
0x46,0x5e,0x04,0x89,0x46,0x40,0x00,0x99,0x2e,0x36,0x04,0x89,0x2e,0x40,0x58,0x99,
0x3c,0x2b,0x04,0x89,0x3c,0x40,0x5c,0x99,0x23,0x72,0x04,0x89,0x23,0x40,0x00,0x99,
0x28,0x6e,0x00,0x99,0x2c,0x3f,0x04,0x89,0x2c,0x40,0x00,0x89,0x28,0x40,0x00,0x99,
0x27,0x5f,0x04,0x89,0x27,0x40,0x54,0x99,0x3c,0x28,0x04,0x89,0x3c,0x40,0x5c,0x99,
0x46,0x4e,0x00,0x99,0x3f,0x31,0x04,0x89,0x3f,0x40,0x00,0x89,0x46,0x40,0x00,0x99,
0x2e,0x3c,0x04,0x89,0x2e,0x40,0x58,0x99,0x46,0x63,0x04,0x89,0x46,0x40,0x5c,0x99,
0x23,0x72,0x00,0x99,0x45,0x4a,0x00,0x99,0x3c,0x36,0x04,0x89,0x3c,0x40,0x00,0x89,
0x45,0x40,0x00,0x89,0x23,0x40,0x00,0x99,0x2c,0x3f,0x04,0x89,0x2c,0x40,0x54,0x99,
0x45,0x1c,0x04,0x89,0x45,0x40,0x50,0x99,0x45,0x66,0x04,0x89,0x45,0x40,0x0c,0x99,
0x46,0x5e,0x04,0x89,0x46,0x40,0x00,0x99,0x2e,0x43,0x04,0x89,0x2e,0x40,0x48,0x99,
0x45,0x66,0x04,0x89,0x45,0x40,0x0c,0x99,0x3c,0x2b,0x04,0x89,0x3c,0x40,0x5c,0x99,
0x23,0x72,0x04,0x89,0x23,0x40,0x00,0x99,0x28,0x72,0x00,0x99,0x2c,0x4c,0x04,0x89,
0x2c,0x40,0x00,0x89,0x28,0x40,0x00,0x99,0x27,0x63,0x04,0x89,0x27,0x40,0x54,0x99,
0x3c,0x28,0x04,0x89,0x3c,0x40,0x5c,0x99,0x46,0x48,0x00,0x99,0x3f,0x28,0x04,0x89,
0x3f,0x40,0x00,0x89,0x46,0x40,0x5c,0x99,0x46,0x55,0x04,0x89,0x46,0x40,0x5c,0x99,
0x23,0x6e,0x00,0x99,0x3c,0x36,0x04,0x89,0x3c,0x40,0x00,0x89,0x23,0x40,0x81,0x3c,
0x99,0x46,0x5e,0x04,0x89,0x46,0x40,0x00,0x99,0x2e,0x3f,0x04,0x89,0x2e,0x40,0x58,
0x99,0x3c,0x28,0x04,0x89,0x3c,0x40,0x5c,0x99,0x23,0x72,0x04,0x89,0x23,0x40,0x00,
0x99,0x28,0x72,0x00,0x99,0x2c,0x3f,0x04,0x89,0x2c,0x40,0x00,0x89,0x28,0x40,0x00,
0x99,0x27,0x63,0x04,0x89,0x27,0x40,0x54,0x99,0x3c,0x2b,0x04,0x89,0x3c,0x40,0x5c,
0x99,0x46,0x5e,0x00,0x99,0x3f,0x36,0x04,0x89,0x3f,0x40,0x00,0x89,0x46,0x40,0x00,
0x99,0x2e,0x3f,0x04,0x89,0x2e,0x40,0x81,0x38,0x99,0x23,0x72,0x00,0x99,0x3c,0x31,
0x04,0x89,0x3c,0x40,0x00,0x89,0x23,0x40,0x00,0x99,0x2c,0x43,0x04,0x89,0x2c,0x40,
0x81,0x38,0x99,0x46,0x63,0x04,0x89,0x46,0x40,0x00,0x99,0x2e,0x3f,0x04,0x89,0x2e,
0x40,0x58,0x99,0x3c,0x28,0x04,0x89,0x3c,0x40,0x5c,0x99,0x23,0x6e,0x04,0x89,0x23,
0x40,0x00,0x99,0x28,0x72,0x00,0x99,0x2c,0x3f,0x04,0x89,0x2c,0x40,0x00,0x89,0x28,
0x40,0x00,0x99,0x27,0x63,0x04,0x89,0x27,0x40,0x54,0x99,0x3c,0x2b,0x04,0x89,0x3c,
0x40,0x5c,0x99,0x46,0x4e,0x00,0x99,0x3f,0x28,0x04,0x89,0x3f,0x40,0x00,0x89,0x46,
0x40,0x00,0x99,0x2e,0x3f,0x04,0x89,0x2e,0x40,0x58,0x99,0x46,0x55,0x04,0x89,0x46,
0x40,0x5c,0x99,0x23,0x72,0x00,0x99,0x3c,0x31,0x04,0x89,0x3c,0x40,0x00,0x89,0x23,
0x40,0x00,0x99,0x2c,0x3f,0x04,0x89,0x2c,0x40,0x81,0x38,0x99,0x46,0x63,0x04,0x89,
0x46,0x40,0x00,0x99,0x2e,0x3f,0x04,0x89,0x2e,0x40,0x58,0x99,0x3c,0x28,0x04,0x89,
0x3c,0x40,0x5c,0x99,0x23,0x72,0x04,0x89,0x23,0x40,0x00,0x99,0x28,0x72,0x00,0x99,
0x2c,0x43,0x04,0x89,0x2c,0x40,0x00,0x89,0x28,0x40,0x00,0x99,0x27,0x63,0x04,0x89,
0x27,0x40,0x54,0x99,0x3c,0x28,0x04,0x89,0x3c,0x40,0x00,0x99,0x28,0x72,0x04,0x89,
0x28,0x40,0x00,0x99,0x27,0x63,0x04,0x89,0x27,0x40,0x54,0x99,0x46,0x51,0x00,0x99,
0x3f,0x31,0x04,0x89,0x3f,0x40,0x00,0x89,0x46,0x40,0x00,0x99,0x2e,0x43,0x04,0x89,
0x2e,0x40,0x58,0x99,0x46,0x63,0x04,0x89,0x46,0x40,0x5c,0x99,0x23,0x6e,0x00,0x99,
0x45,0x4a,0x00,0x99,0x3c,0x36,0x04,0x89,0x3c,0x40,0x00,0x89,0x45,0x40,0x00,0x89,
0x23,0x40,0x00,0x99,0x2c,0x4c,0x04,0x89,0x2c,0x40,0x54,0x99,0x45,0x1c,0x04,0x89,
0x45,0x40,0x50,0x99,0x45,0x66,0x04,0x89,0x45,0x40,0x0c,0x99,0x46,0x63,0x04,0x89,
0x46,0x40,0x00,0x99,0x2e,0x3f,0x04,0x89,0x2e,0x40,0x48,0x99,0x45,0x64,0x04,0x89,
0x45,0x40,0x0c,0x99,0x3c,0x35,0x04,0x89,0x3c,0x40,0x5c,0x99,0x23,0x6f,0x04,0x89,
0x23,0x40,0x00,0x99,0x28,0x6b,0x00,0x99,0x2c,0x3a,0x04,0x89,0x2c,0x40,0x00,0x89,
0x28,0x40,0x00,0x99,0x27,0x5c,0x04,0x89,0x27,0x40,0x54,0x99,0x3c,0x29,0x04,0x89,
0x3c,0x40,0x5c,0x99,0x46,0x4d,0x00,0x99,0x3f,0x2e,0x04,0x89,0x3f,0x40,0x00,0x89,
0x46,0x40,0x5c,0x99,0x46,0x5d,0x04,0x89,0x46,0x40,0x5c,0x99,0x23,0x66,0x00,0x99,
0x3c,0x32,0x04,0x89,0x3c,0x40,0x00,0x89,0x23,0x40,0x81,0x3c,0x99,0x46,0x56,0x04,
0x89,0x46,0x40,0x00,0x99,0x2e,0x3d,0x04,0x89,0x2e,0x40,0x58,0x99,0x3c,0x26,0x04,
0x89,0x3c,0x40,0x5c,0x99,0x23,0x66,0x04,0x89,0x23,0x40,0x00,0x99,0x28,0x63,0x00,
0x99,0x2c,0x3c,0x04,0x89,0x2c,0x40,0x00,0x89,0x28,0x40,0x00,0x99,0x27,0x55,0x04,
0x89,0x27,0x40,0x54,0x99,0x3c,0x2b,0x04,0x89,0x3c,0x40,0x5c,0x99,0x46,0x52,0x00,
0x99,0x3f,0x2e,0x04,0x89,0x3f,0x40,0x00,0x89,0x46,0x40,0x00,0x99,0x2e,0x36,0x04,
0x89,0x2e,0x40,0x81,0x38,0x99,0x23,0x5e,0x00,0x99,0x3c,0x2d,0x04,0x89,0x3c,0x40,
0x00,0x89,0x23,0x40,0x00,0x99,0x2c,0x35,0x04,0x89,0x2c,0x40,0x81,0x38,0x99,0x46,
0x4e,0x04,0x89,0x46,0x40,0x00,0x99,0x2e,0x31,0x04,0x89,0x2e,0x40,0x58,0x99,0x3c,
0x1a,0x04,0x89,0x3c,0x40,0x5c,0x99,0x23,0x5a,0x04,0x89,0x23,0x40,0x00,0x99,0x28,
0x5a,0x00,0x99,0x2c,0x33,0x04,0x89,0x2c,0x40,0x00,0x89,0x28,0x40,0x00,0x99,0x27,
0x4e,0x04,0x89,0x27,0x40,0x54,0x99,0x3c,0x1c,0x04,0x89,0x3c,0x40,0x5c,0x99,0x46,
0x3e,0x00,0x99,0x3f,0x26,0x04,0x89,0x3f,0x40,0x00,0x89,0x46,0x40,0x00,0x99,0x2e,
0x2a,0x04,0x89,0x2e,0x40,0x58,0x99,0x46,0x4a,0x04,0x89,0x46,0x40,0x5c,0x99,0x23,
0x56,0x00,0x99,0x3c,0x29,0x04,0x89,0x3c,0x40,0x00,0x89,0x23,0x40,0x00,0x99,0x2c,
0x30,0x04,0x89,0x2c,0x40,0x81,0x38,0x99,0x46,0x47,0x04,0x89,0x46,0x40,0x00,0x99,
0x2e,0x27,0x04,0x89,0x2e,0x40,0x58,0x99,0x3c,0x1e,0x04,0x89,0x3c,0x40,0x5c,0x99,
0x23,0x54,0x04,0x89,0x23,0x40,0x00,0x99,0x28,0x51,0x00,0x99,0x2c,0x2d,0x04,0x89,
0x2c,0x40,0x00,0x89,0x28,0x40,0x00,0x99,0x27,0x45,0x04,0x89,0x27,0x40,0x54,0x99,
0x3c,0x1c,0x04,0x89,0x3c,0x40,0x5c,0x99,0x46,0x38,0x00,0x99,0x3f,0x22,0x04,0x89,
0x3f,0x40,0x00,0x89,0x46,0x40,0x00,0x99,0x2e,0x2a,0x04,0x89,0x2e,0x40,0x58,0x99,
0x46,0x46,0x04,0x89,0x46,0x40,0x5c,0x99,0x23,0x50,0x00,0x99,0x45,0x33,0x00,0x99,
0x3c,0x24,0x04,0x89,0x3c,0x40,0x00,0x89,0x45,0x40,0x00,0x89,0x23,0x40,0x00,0x99,
0x2c,0x2b,0x04,0x89,0x2c,0x40,0x54,0x99,0x45,0x11,0x04,0x89,0x45,0x40,0x50,0x99,
0x45,0x45,0x04,0x89,0x45,0x40,0x0c,0x99,0x46,0x3f,0x04,0x89,0x46,0x40,0x00,0x99,
0x2e,0x2c,0x04,0x89,0x2e,0x40,0x48,0x99,0x45,0x44,0x04,0x89,0x45,0x40,0x0c,0x99,
0x3c,0x1b,0x04,0x89,0x3c,0x40,0x5c,0x99,0x23,0x4b,0x04,0x89,0x23,0x40,0x00,0x99,
0x28,0x4b,0x00,0x99,0x2c,0x31,0x04,0x89,0x2c,0x40,0x00,0x89,0x28,0x40,0x00,0x99,
0x27,0x41,0x04,0x89,0x27,0x40,0x54,0x99,0x3c,0x18,0x04,0x89,0x3c,0x40,0x5c,0x99,
0x46,0x2d,0x00,0x99,0x3f,0x18,0x04,0x89,0x3f,0x40,0x00,0x89,0x46,0x40,0x5c,0x99,
0x46,0x35,0x04,0x89,0x46,0x40,0x5c,0x99,0x23,0x45,0x00,0x99,0x3c,0x20,0x04,0x89,
0x3c,0x40,0x00,0x89,0x23,0x40,0x81,0x3c,0x99,0x46,0x38,0x04,0x89,0x46,0x40,0x00,
0x99,0x2e,0x24,0x04,0x89,0x2e,0x40,0x58,0x99,0x3c,0x15,0x04,0x89,0x3c,0x40,0x5c,
0x99,0x23,0x42,0x04,0x89,0x23,0x40,0x00,0x99,0x28,0x42,0x00,0x99,0x2c,0x23,0x04,
0x89,0x2c,0x40,0x00,0x89,0x28,0x40,0x00,0x99,0x27,0x39,0x04,0x89,0x27,0x40,0x54,
0x99,0x3c,0x16,0x04,0x89,0x3c,0x40,0x5c,0x99,0x46,0x34,0x00,0x99,0x3f,0x1c,0x04,
0x89,0x3f,0x40,0x00,0x89,0x46,0x40,0x00,0x99,0x2e,0x21,0x04,0x89,0x2e,0x40,0x81,
0x38,0x99,0x23,0x3f,0x00,0x99,0x3c,0x18,0x04,0x89,0x3c,0x40,0x00,0x89,0x23,0x40,
0x00,0x99,0x2c,0x23,0x04,0x89,0x2c,0x40,0x81,0x38,0x99,0x46,0x34,0x04,0x89,0x46,
0x40,0x00,0x99,0x2e,0x1f,0x04,0x89,0x2e,0x40,0x58,0x99,0x3c,0x12,0x04,0x89,0x3c,
0x40,0x5c,0x99,0x23,0x38,0x04,0x89,0x23,0x40,0x00,0x99,0x28,0x3a,0x00,0x99,0x2c,
0x1e,0x04,0x89,0x2c,0x40,0x00,0x89,0x28,0x40,0x00,0x99,0x27,0x31,0x04,0x89,0x27,
0x40,0x54,0x99,0x3c,0x12,0x04,0x89,0x3c,0x40,0x5c,0x99,0x46,0x24,0x00,0x99,0x3f,
0x10,0x04,0x89,0x3f,0x40,0x00,0x89,0x46,0x40,0x00,0x99,0x2e,0x1c,0x04,0x89,0x2e,
0x40,0x58,0x99,0x46,0x27,0x04,0x89,0x46,0x40,0x5c,0x99,0x23,0x35,0x00,0x99,0x3c,
0x14,0x04,0x89,0x3c,0x40,0x00,0x89,0x23,0x40,0x00,0x99,0x2c,0x1b,0x04,0x89,0x2c,
0x40,0x81,0x38,0x99,0x46,0x2c,0x04,0x89,0x46,0x40,0x00,0x99,0x2e,0x1a,0x04,0x89,
0x2e,0x40,0x58,0x99,0x3c,0x0e,0x04,0x89,0x3c,0x40,0x5c,0x99,0x23,0x31,0x04,0x89,
0x23,0x40,0x00,0x99,0x28,0x31,0x00,0x99,0x2c,0x1a,0x04,0x89,0x2c,0x40,0x00,0x89,
0x28,0x40,0x00,0x99,0x27,0x2a,0x04,0x89,0x27,0x40,0x54,0x99,0x3c,0x0d,0x04,0x89,
0x3c,0x40,0x5c,0x99,0x46,0x1f,0x00,0x99,0x3f,0x11,0x04,0x89,0x3f,0x40,0x00,0x89,
0x46,0x40,0x00,0x99,0x2e,0x19,0x04,0x89,0x2e,0x40,0x58,0x99,0x46,0x27,0x04,0x89,
0x46,0x40,0x5c,0x99,0x23,0x2a,0x00,0x99,0x45,0x1a,0x00,0x99,0x3c,0x12,0x04,0x89,
0x3c,0x40,0x00,0x89,0x45,0x40,0x00,0x89,0x23,0x40,0x00,0x99,0x2c,0x1b,0x04,0x89,
0x2c,0x40,0x54,0x99,0x45,0x06,0x04,0x89,0x45,0x40,0x50,0x99,0x45,0x26,0x04,0x89,
0x45,0x40,0x0c,0x99,0x46,0x24,0x04,0x89,0x46,0x40,0x00,0x99,0x2e,0x15,0x04,0x89,
0x2e,0x40,0x48,0x99,0x45,0x25,0x04,0x89,0x45,0x40,0x0c,0x99,0x3c,0x10,0x04,0x89,
0x3c,0x40,0x5c,0x99,0x23,0x28,0x04,0x89,0x23,0x40,0x00,0x99,0x28,0x27,0x00,0x99,
0x2c,0x12,0x04,0x89,0x2c,0x40,0x00,0x89,0x28,0x40,0x00,0x99,0x27,0x21,0x04,0x89,
0x27,0x40,0x54,0x99,0x3c,0x0b,0x04,0x89,0x3c,0x40,0x5c,0x99,0x46,0x19,0x00,0x99,
0x3f,0x0d,0x04,0x89,0x3f,0x40,0x00,0x89,0x46,0x40,0x5c,0x99,0x46,0x1f,0x04,0x89,
0x46,0x40,0x5c,0x99,0x23,0x22,0x00,0x99,0x3c,0x0d,0x04,0x89,0x3c,0x40,0x00,0x89,
0x23,0x40,0x81,0x3c,0x99,0x46,0x1a,0x04,0x89,0x46,0x40,0x00,0x99,0x2e,0x10,0x04,
0x89,0x2e,0x40,0x58,0x99,0x3c,0x08,0x04,0x89,0x3c,0x40,0x5c,0x99,0x23,0x20,0x04,
0x89,0x23,0x40,0x00,0x99,0x28,0x1e,0x00,0x99,0x2c,0x10,0x04,0x89,0x2c,0x40,0x00,
0x89,0x28,0x40,0x00,0x99,0x27,0x19,0x04,0x89,0x27,0x40,0x54,0x99,0x3c,0x09,0x04,
0x89,0x3c,0x40,0x5c,0x99,0x46,0x17,0x00,0x99,0x3f,0x0a,0x04,0x89,0x3f,0x40,0x00,
0x89,0x46,0x40,0x00,0x99,0x2e,0x0d,0x04,0x89,0x2e,0x40,0x81,0x38,0x99,0x23,0x1a,
0x00,0x99,0x3c,0x09,0x04,0x89,0x3c,0x40,0x00,0x89,0x23,0x40,0x00,0x99,0x2c,0x0b,
0x04,0x89,0x2c,0x40,0x81,0x38,0x99,0x46,0x13,0x04,0x89,0x46,0x40,0x00,0x99,0x2e,
0x09,0x04,0x89,0x2e,0x40,0x58,0x99,0x3c,0x01,0x04,0x89,0x3c,0x40,0x5c,0x99,0x23,
0x15,0x04,0x89,0x23,0x40,0x00,0x99,0x28,0x15,0x00,0x99,0x2c,0x08,0x04,0x89,0x2c,
0x40,0x00,0x89,0x28,0x40,0x00,0x99,0x27,0x11,0x04,0x89,0x27,0x40,0x54,0x99,0x3c,
0x01,0x04,0x89,0x3c,0x40,0x5c,0x99,0x46,0x0c,0x00,0x99,0x3f,0x04,0x04,0x89,0x3f,
0x40,0x00,0x89,0x46,0x40,0x00,0x99,0x2e,0x06,0x04,0x89,0x2e,0x40,0x58,0x99,0x46,
0x0e,0x04,0x89,0x46,0x40,0x5c,0x99,0x23,0x11,0x00,0x99,0x3c,0x04,0x04,0x89,0x3c,
0x40,0x00,0x89,0x23,0x40,0x00,0x99,0x2c,0x06,0x04,0x89,0x2c,0x40,0x81,0x38,0x99,
0x46,0x0b,0x04,0x89,0x46,0x40,0x00,0x99,0x2e,0x03,0x04,0x89,0x2e,0x40,0x58,0x99,
0x3c,0x01,0x04,0x89,0x3c,0x40,0x5c,0x99,0x23,0x0d,0x04,0x89,0x23,0x40,0x00,0x99,
0x28,0x0c,0x00,0x99,0x2c,0x03,0x04,0x89,0x2c,0x40,0x00,0x89,0x28,0x40,0x00,0x99,
0x27,0x09,0x04,0x89,0x27,0x40,0x54,0x99,0x3c,0x01,0x04,0x89,0x3c,0x40,0x5c,0x99,
0x46,0x05,0x00,0x99,0x3f,0x01,0x04,0x89,0x3f,0x40,0x00,0x89,0x46,0x40,0x00,0x99,
0x2e,0x02,0x04,0x89,0x2e,0x40,0x58,0x99,0x46,0x08,0x04,0x89,0x46,0x40,0x5c,0x99,
0x23,0x09,0x00,0x99,0x45,0x03,0x00,0x99,0x3c,0x01,0x04,0x89,0x3c,0x40,0x00,0x89,
0x45,0x40,0x00,0x89,0x23,0x40,0x00,0x99,0x2c,0x01,0x04,0x89,0x2c,0x40,0x54,0x99,
0x45,0x01,0x04,0x89,0x45,0x40,0x50,0x99,0x45,0x05,0x04,0x89,0x45,0x40,0x0c,0x99,
0x46,0x04,0x04,0x89,0x46,0x40,0x00,0x99,0x2e,0x01,0x04,0x89,0x2e,0x40,0x48,0x99,
0x45,0x04,0x04,0x89,0x45,0x40,0x0c,0x99,0x3c,0x01,0x04,0x89,0x3c,0x40,0x5c,0x99,
0x23,0x04,0x04,0x89,0x23,0x40,0x00,0x99,0x28,0x04,0x00,0x99,0x2c,0x01,0x04,0x89,
0x2c,0x40,0x00,0x89,0x28,0x40,0x00,0x99,0x27,0x03,0x04,0x89,0x27,0x40,0x54,0x99,
0x3c,0x01,0x04,0x89,0x3c,0x40,0x5c,0x99,0x46,0x01,0x00,0x99,0x3f,0x01,0x04,0x89,
0x3f,0x40,0x00,0x89,0x46,0x40,0x5c,0x99,0x46,0x01,0x04,0x89,0x46,0x40,0x5c,0x99,
0x23,0x01,0x00,0x99,0x3c,0x01,0x04,0x89,0x3c,0x40,0x00,0x89,0x23,0x40,0x81,0x3c,
0x99,0x46,0x01,0x04,0x89,0x46,0x40,0x00,0x99,0x2e,0x01,0x04,0x89,0x2e,0x40,0x58,
0x99,0x3c,0x01,0x04,0x89,0x3c,0x40,0x5c,0x99,0x23,0x01,0x04,0x89,0x23,0x40,0x00,
0x99,0x28,0x01,0x00,0x99,0x2c,0x01,0x04,0x89,0x2c,0x40,0x00,0x89,0x28,0x40,0x00,
0x99,0x27,0x01,0x04,0x89,0x27,0x40,0x54,0x99,0x3c,0x01,0x04,0x89,0x3c,0x40,0x5c,
0x99,0x46,0x01,0x00,0x99,0x3f,0x01,0x04,0x89,0x3f,0x40,0x00,0x89,0x46,0x40,0x00,
0x99,0x2e,0x01,0x04,0x89,0x2e,0x40,0x8d,0x38,0xff,0x2f,0x00,0x4d,0x54,0x72,0x6b,
0x00,0x00,0x0b,0xd5,0x00,0xff,0x03,0x07,0x53,0x54,0x52,0x49,0x4e,0x47,0x53,0x90,
0x50,0xca,0x30,0x04,0xba,0x07,0x69,0x00,0xba,0x0a,0x40,0x00,0xba,0x0b,0x7f,0x04,
0xba,0x5b,0x3c,0x00,0xba,0x5d,0x00,0x93,0x34,0x9a,0x55,0x44,0x00,0x9a,0x49,0x44,
0x04,0xba,0x01,0x00,0x00,0xea,0x00,0x40,0x84,0x20,0x8a,0x49,0x40,0x00,0x8a,0x55,
0x40,0x04,0x9a,0x57,0x44,0x00,0x9a,0x4b,0x44,0x84,0x34,0x8a,0x4b,0x40,0x00,0x8a,
0x57,0x40,0x04,0x9a,0x50,0x37,0x00,0x9a,0x44,0x39,0x82,0x6c,0x8a,0x44,0x40,0x00,
0x8a,0x50,0x40,0x04,0x9a,0x57,0x44,0x00,0x9a,0x4b,0x44,0x84,0x64,0x8a,0x4b,0x40,
0x00,0x8a,0x57,0x40,0x04,0x9a,0x59,0x54,0x00,0x9a,0x4d,0x54,0x83,0x60,0x8a,0x4d,
0x40,0x00,0x8a,0x59,0x40,0x48,0x9a,0x5c,0x47,0x00,0x9a,0x50,0x47,0x54,0x8a,0x50,
0x40,0x00,0x8a,0x5c,0x40,0x04,0x9a,0x5a,0x47,0x00,0x9a,0x4e,0x47,0x50,0x8a,0x4e,
0x40,0x00,0x8a,0x5a,0x40,0x08,0x9a,0x59,0x4e,0x00,0x9a,0x4d,0x4e,0x44,0x8a,0x4d,
0x40,0x00,0x8a,0x59,0x40,0x28,0x9a,0x55,0x4b,0x00,0x9a,0x49,0x4b,0x85,0x2c,0x8a,
0x49,0x40,0x00,0x8a,0x55,0x40,0x04,0x9a,0x57,0x47,0x00,0x9a,0x4b,0x47,0x84,0x40,
0x8a,0x4b,0x40,0x00,0x8a,0x57,0x40,0x04,0x9a,0x50,0x2d,0x00,0x9a,0x44,0x2c,0x88,
0x60,0x8a,0x44,0x40,0x00,0x8a,0x50,0x40,0x83,0x24,0x9a,0x5c,0x4b,0x00,0x9a,0x50,
0x4b,0x54,0x8a,0x50,0x40,0x00,0x8a,0x5c,0x40,0x04,0x9a,0x5a,0x47,0x00,0x9a,0x4e,
0x47,0x58,0x8a,0x4e,0x40,0x00,0x8a,0x5a,0x40,0x04,0x9a,0x59,0x54,0x00,0x9a,0x4d,
0x54,0x50,0x8a,0x4d,0x40,0x00,0x8a,0x59,0x40,0x1c,0x9a,0x55,0x4b,0x00,0x9a,0x49,
0x4b,0x85,0x14,0x8a,0x49,0x40,0x00,0x8a,0x55,0x40,0x04,0x9a,0x57,0x47,0x00,0x9a,
0x4b,0x47,0x84,0x30,0x8a,0x4b,0x40,0x00,0x8a,0x57,0x40,0x04,0x9a,0x50,0x37,0x00,
0x9a,0x44,0x38,0x83,0x08,0x8a,0x44,0x40,0x00,0x8a,0x50,0x40,0x04,0x9a,0x57,0x44,
0x00,0x9a,0x4b,0x44,0x84,0x44,0x8a,0x4b,0x40,0x00,0x8a,0x57,0x40,0x04,0x9a,0x59,
0x4b,0x00,0x9a,0x4d,0x4b,0x84,0x20,0x8a,0x4d,0x40,0x00,0x8a,0x59,0x40,0x30,0x9a,
0x5c,0x44,0x00,0x9a,0x50,0x44,0x4c,0x8a,0x50,0x40,0x00,0x8a,0x5c,0x40,0x04,0x9a,
0x5a,0x3e,0x00,0x9a,0x4e,0x3e,0x50,0x8a,0x4e,0x40,0x00,0x8a,0x5a,0x40,0x08,0x9a,
0x59,0x44,0x00,0x9a,0x4d,0x44,0x48,0x8a,0x4d,0x40,0x00,0x8a,0x59,0x40,0x24,0x9a,
0x55,0x3e,0x00,0x9a,0x49,0x3e,0x85,0x00,0x8a,0x49,0x40,0x00,0x8a,0x55,0x40,0x04,
0x9a,0x57,0x47,0x00,0x9a,0x4b,0x47,0x84,0x40,0x8a,0x4b,0x40,0x00,0x8a,0x57,0x40,
0x04,0x9a,0x50,0x2b,0x00,0x9a,0x44,0x2c,0x8b,0x18,0x8a,0x44,0x40,0x00,0x8a,0x50,
0x40,0x81,0x94,0x08,0x9a,0x55,0x44,0x00,0x9a,0x49,0x44,0x84,0x24,0x8a,0x49,0x40,
0x00,0x8a,0x55,0x40,0x04,0x9a,0x57,0x44,0x00,0x9a,0x4b,0x44,0x84,0x34,0x8a,0x4b,
0x40,0x00,0x8a,0x57,0x40,0x04,0x9a,0x50,0x37,0x00,0x9a,0x44,0x39,0x82,0x6c,0x8a,
0x44,0x40,0x00,0x8a,0x50,0x40,0x04,0x9a,0x57,0x44,0x00,0x9a,0x4b,0x44,0x84,0x64,
0x8a,0x4b,0x40,0x00,0x8a,0x57,0x40,0x04,0x9a,0x59,0x54,0x00,0x9a,0x4d,0x54,0x83,
0x60,0x8a,0x4d,0x40,0x00,0x8a,0x59,0x40,0x48,0x9a,0x5c,0x47,0x00,0x9a,0x50,0x47,
0x54,0x8a,0x50,0x40,0x00,0x8a,0x5c,0x40,0x04,0x9a,0x5a,0x47,0x00,0x9a,0x4e,0x47,
0x50,0x8a,0x4e,0x40,0x00,0x8a,0x5a,0x40,0x08,0x9a,0x59,0x4e,0x00,0x9a,0x4d,0x4e,
0x44,0x8a,0x4d,0x40,0x00,0x8a,0x59,0x40,0x28,0x9a,0x55,0x4b,0x00,0x9a,0x49,0x4b,
0x85,0x2c,0x8a,0x49,0x40,0x00,0x8a,0x55,0x40,0x04,0x9a,0x57,0x47,0x00,0x9a,0x4b,
0x47,0x84,0x40,0x8a,0x4b,0x40,0x00,0x8a,0x57,0x40,0x04,0x9a,0x50,0x2d,0x00,0x9a,
0x44,0x2c,0x88,0x60,0x8a,0x44,0x40,0x00,0x8a,0x50,0x40,0x83,0x24,0x9a,0x5c,0x4b,
0x00,0x9a,0x50,0x4b,0x54,0x8a,0x50,0x40,0x00,0x8a,0x5c,0x40,0x04,0x9a,0x5a,0x47,
0x00,0x9a,0x4e,0x47,0x58,0x8a,0x4e,0x40,0x00,0x8a,0x5a,0x40,0x04,0x9a,0x59,0x54,
0x00,0x9a,0x4d,0x54,0x50,0x8a,0x4d,0x40,0x00,0x8a,0x59,0x40,0x1c,0x9a,0x55,0x4b,
0x00,0x9a,0x49,0x4b,0x85,0x14,0x8a,0x49,0x40,0x00,0x8a,0x55,0x40,0x04,0x9a,0x57,
0x47,0x00,0x9a,0x4b,0x47,0x84,0x30,0x8a,0x4b,0x40,0x00,0x8a,0x57,0x40,0x04,0x9a,
0x50,0x37,0x00,0x9a,0x44,0x38,0x83,0x08,0x8a,0x44,0x40,0x00,0x8a,0x50,0x40,0x04,
0x9a,0x57,0x44,0x00,0x9a,0x4b,0x44,0x84,0x44,0x8a,0x4b,0x40,0x00,0x8a,0x57,0x40,
0x04,0x9a,0x59,0x4b,0x00,0x9a,0x4d,0x4b,0x84,0x20,0x8a,0x4d,0x40,0x00,0x8a,0x59,
0x40,0x30,0x9a,0x5c,0x44,0x00,0x9a,0x50,0x44,0x4c,0x8a,0x50,0x40,0x00,0x8a,0x5c,
0x40,0x04,0x9a,0x5a,0x3e,0x00,0x9a,0x4e,0x3e,0x50,0x8a,0x4e,0x40,0x00,0x8a,0x5a,
0x40,0x08,0x9a,0x59,0x44,0x00,0x9a,0x4d,0x44,0x48,0x8a,0x4d,0x40,0x00,0x8a,0x59,
0x40,0x24,0x9a,0x55,0x3e,0x00,0x9a,0x49,0x3e,0x85,0x00,0x8a,0x49,0x40,0x00,0x8a,
0x55,0x40,0x04,0x9a,0x57,0x47,0x00,0x9a,0x4b,0x47,0x84,0x40,0x8a,0x4b,0x40,0x00,
0x8a,0x57,0x40,0x04,0x9a,0x50,0x2b,0x00,0x9a,0x44,0x2c,0x8b,0x18,0x8a,0x44,0x40,
0x00,0x8a,0x50,0x40,0x81,0x94,0x08,0x9a,0x55,0x44,0x00,0x9a,0x49,0x44,0x84,0x24,
0x8a,0x49,0x40,0x00,0x8a,0x55,0x40,0x04,0x9a,0x57,0x44,0x00,0x9a,0x4b,0x44,0x84,
0x34,0x8a,0x4b,0x40,0x00,0x8a,0x57,0x40,0x04,0x9a,0x50,0x37,0x00,0x9a,0x44,0x39,
0x82,0x6c,0x8a,0x44,0x40,0x00,0x8a,0x50,0x40,0x04,0x9a,0x57,0x44,0x00,0x9a,0x4b,
0x44,0x84,0x64,0x8a,0x4b,0x40,0x00,0x8a,0x57,0x40,0x04,0x9a,0x59,0x54,0x00,0x9a,
0x4d,0x54,0x83,0x60,0x8a,0x4d,0x40,0x00,0x8a,0x59,0x40,0x48,0x9a,0x5c,0x47,0x00,
0x9a,0x50,0x47,0x54,0x8a,0x50,0x40,0x00,0x8a,0x5c,0x40,0x04,0x9a,0x5a,0x47,0x00,
0x9a,0x4e,0x47,0x50,0x8a,0x4e,0x40,0x00,0x8a,0x5a,0x40,0x08,0x9a,0x59,0x4e,0x00,
0x9a,0x4d,0x4e,0x44,0x8a,0x4d,0x40,0x00,0x8a,0x59,0x40,0x28,0x9a,0x55,0x4b,0x00,
0x9a,0x49,0x4b,0x85,0x2c,0x8a,0x49,0x40,0x00,0x8a,0x55,0x40,0x04,0x9a,0x57,0x47,
0x00,0x9a,0x4b,0x47,0x84,0x40,0x8a,0x4b,0x40,0x00,0x8a,0x57,0x40,0x04,0x9a,0x50,
0x2d,0x00,0x9a,0x44,0x2c,0x88,0x60,0x8a,0x44,0x40,0x00,0x8a,0x50,0x40,0x83,0x24,
0x9a,0x5c,0x4b,0x00,0x9a,0x50,0x4b,0x54,0x8a,0x50,0x40,0x00,0x8a,0x5c,0x40,0x04,
0x9a,0x5a,0x47,0x00,0x9a,0x4e,0x47,0x58,0x8a,0x4e,0x40,0x00,0x8a,0x5a,0x40,0x04,
0x9a,0x59,0x54,0x00,0x9a,0x4d,0x54,0x50,0x8a,0x4d,0x40,0x00,0x8a,0x59,0x40,0x1c,
0x9a,0x55,0x4b,0x00,0x9a,0x49,0x4b,0x85,0x14,0x8a,0x49,0x40,0x00,0x8a,0x55,0x40,
0x04,0x9a,0x57,0x47,0x00,0x9a,0x4b,0x47,0x84,0x30,0x8a,0x4b,0x40,0x00,0x8a,0x57,
0x40,0x04,0x9a,0x50,0x37,0x00,0x9a,0x44,0x38,0x83,0x08,0x8a,0x44,0x40,0x00,0x8a,
0x50,0x40,0x04,0x9a,0x57,0x44,0x00,0x9a,0x4b,0x44,0x84,0x44,0x8a,0x4b,0x40,0x00,
0x8a,0x57,0x40,0x04,0x9a,0x59,0x4b,0x00,0x9a,0x4d,0x4b,0x84,0x20,0x8a,0x4d,0x40,
0x00,0x8a,0x59,0x40,0x30,0x9a,0x5c,0x44,0x00,0x9a,0x50,0x44,0x4c,0x8a,0x50,0x40,
0x00,0x8a,0x5c,0x40,0x04,0x9a,0x5a,0x3e,0x00,0x9a,0x4e,0x3e,0x50,0x8a,0x4e,0x40,
0x00,0x8a,0x5a,0x40,0x08,0x9a,0x59,0x44,0x00,0x9a,0x4d,0x44,0x48,0x8a,0x4d,0x40,
0x00,0x8a,0x59,0x40,0x24,0x9a,0x55,0x3e,0x00,0x9a,0x49,0x3e,0x85,0x00,0x8a,0x49,
0x40,0x00,0x8a,0x55,0x40,0x04,0x9a,0x57,0x47,0x00,0x9a,0x4b,0x47,0x84,0x40,0x8a,
0x4b,0x40,0x00,0x8a,0x57,0x40,0x04,0x9a,0x50,0x2b,0x00,0x9a,0x44,0x2c,0x8b,0x18,
0x8a,0x44,0x40,0x00,0x8a,0x50,0x40,0x84,0x08,0x9a,0x55,0x44,0x00,0x9a,0x49,0x44,
0x84,0x24,0x8a,0x49,0x40,0x00,0x8a,0x55,0x40,0x04,0x9a,0x57,0x44,0x00,0x9a,0x4b,
0x44,0x84,0x34,0x8a,0x4b,0x40,0x00,0x8a,0x57,0x40,0x04,0x9a,0x50,0x37,0x00,0x9a,
0x44,0x39,0x82,0x6c,0x8a,0x44,0x40,0x00,0x8a,0x50,0x40,0x04,0x9a,0x57,0x44,0x00,
0x9a,0x4b,0x44,0x84,0x64,0x8a,0x4b,0x40,0x00,0x8a,0x57,0x40,0x04,0x9a,0x59,0x54,
0x00,0x9a,0x4d,0x54,0x83,0x60,0x8a,0x4d,0x40,0x00,0x8a,0x59,0x40,0x48,0x9a,0x5c,
0x47,0x00,0x9a,0x50,0x47,0x54,0x8a,0x50,0x40,0x00,0x8a,0x5c,0x40,0x04,0x9a,0x5a,
0x47,0x00,0x9a,0x4e,0x47,0x50,0x8a,0x4e,0x40,0x00,0x8a,0x5a,0x40,0x08,0x9a,0x59,
0x4e,0x00,0x9a,0x4d,0x4e,0x44,0x8a,0x4d,0x40,0x00,0x8a,0x59,0x40,0x28,0x9a,0x55,
0x4b,0x00,0x9a,0x49,0x4b,0x85,0x2c,0x8a,0x49,0x40,0x00,0x8a,0x55,0x40,0x04,0x9a,
0x57,0x47,0x00,0x9a,0x4b,0x47,0x84,0x40,0x8a,0x4b,0x40,0x00,0x8a,0x57,0x40,0x04,
0x9a,0x50,0x2d,0x00,0x9a,0x44,0x2c,0x88,0x60,0x8a,0x44,0x40,0x00,0x8a,0x50,0x40,
0x83,0x24,0x9a,0x5c,0x4b,0x00,0x9a,0x50,0x4b,0x54,0x8a,0x50,0x40,0x00,0x8a,0x5c,
0x40,0x04,0x9a,0x5a,0x47,0x00,0x9a,0x4e,0x47,0x58,0x8a,0x4e,0x40,0x00,0x8a,0x5a,
0x40,0x04,0x9a,0x59,0x54,0x00,0x9a,0x4d,0x54,0x50,0x8a,0x4d,0x40,0x00,0x8a,0x59,
0x40,0x1c,0x9a,0x55,0x4b,0x00,0x9a,0x49,0x4b,0x85,0x14,0x8a,0x49,0x40,0x00,0x8a,
0x55,0x40,0x04,0x9a,0x57,0x47,0x00,0x9a,0x4b,0x47,0x84,0x30,0x8a,0x4b,0x40,0x00,
0x8a,0x57,0x40,0x04,0x9a,0x50,0x37,0x00,0x9a,0x44,0x38,0x83,0x08,0x8a,0x44,0x40,
0x00,0x8a,0x50,0x40,0x04,0x9a,0x57,0x44,0x00,0x9a,0x4b,0x44,0x84,0x44,0x8a,0x4b,
0x40,0x00,0x8a,0x57,0x40,0x04,0x9a,0x59,0x4b,0x00,0x9a,0x4d,0x4b,0x84,0x20,0x8a,
0x4d,0x40,0x00,0x8a,0x59,0x40,0x30,0x9a,0x5c,0x44,0x00,0x9a,0x50,0x44,0x4c,0x8a,
0x50,0x40,0x00,0x8a,0x5c,0x40,0x04,0x9a,0x5a,0x3e,0x00,0x9a,0x4e,0x3e,0x50,0x8a,
0x4e,0x40,0x00,0x8a,0x5a,0x40,0x08,0x9a,0x59,0x44,0x00,0x9a,0x4d,0x44,0x48,0x8a,
0x4d,0x40,0x00,0x8a,0x59,0x40,0x24,0x9a,0x55,0x3e,0x00,0x9a,0x49,0x3e,0x85,0x00,
0x8a,0x49,0x40,0x00,0x8a,0x55,0x40,0x04,0x9a,0x57,0x47,0x00,0x9a,0x4b,0x47,0x84,
0x40,0x8a,0x4b,0x40,0x00,0x8a,0x57,0x40,0x04,0x9a,0x50,0x2b,0x00,0x9a,0x44,0x2c,
0x8b,0x18,0x8a,0x44,0x40,0x00,0x8a,0x50,0x40,0x81,0xc4,0x04,0x9a,0x55,0x32,0x00,
0x9a,0x49,0x30,0x8a,0x24,0x9a,0x57,0x34,0x0c,0x9a,0x4b,0x2c,0x08,0x8a,0x49,0x40,
0x00,0x8a,0x55,0x40,0x87,0x2c,0x9a,0x59,0x41,0x04,0x8a,0x57,0x40,0x04,0x9a,0x4d,
0x3d,0x04,0x8a,0x4b,0x40,0x86,0x04,0x9a,0x52,0x32,0x00,0x9a,0x46,0x30,0x04,0x8a,
0x4d,0x40,0x00,0x8a,0x59,0x40,0x8a,0x54,0x8a,0x52,0x40,0x08,0x8a,0x46,0x40,0x8d,
0x30,0x9a,0x55,0x44,0x00,0x9a,0x49,0x44,0x84,0x24,0x8a,0x49,0x40,0x00,0x8a,0x55,
0x40,0x04,0x9a,0x57,0x44,0x00,0x9a,0x4b,0x44,0x84,0x34,0x8a,0x4b,0x40,0x00,0x8a,
0x57,0x40,0x04,0x9a,0x50,0x37,0x00,0x9a,0x44,0x39,0x82,0x6c,0x8a,0x44,0x40,0x00,
0x8a,0x50,0x40,0x04,0x9a,0x57,0x44,0x00,0x9a,0x4b,0x44,0x84,0x64,0x8a,0x4b,0x40,
0x00,0x8a,0x57,0x40,0x04,0x9a,0x59,0x54,0x00,0x9a,0x4d,0x54,0x83,0x60,0x8a,0x4d,
0x40,0x00,0x8a,0x59,0x40,0x48,0x9a,0x5c,0x47,0x00,0x9a,0x50,0x47,0x54,0x8a,0x50,
0x40,0x00,0x8a,0x5c,0x40,0x04,0x9a,0x5a,0x47,0x00,0x9a,0x4e,0x47,0x50,0x8a,0x4e,
0x40,0x00,0x8a,0x5a,0x40,0x08,0x9a,0x59,0x4e,0x00,0x9a,0x4d,0x4e,0x44,0x8a,0x4d,
0x40,0x00,0x8a,0x59,0x40,0x28,0x9a,0x55,0x4b,0x00,0x9a,0x49,0x4b,0x85,0x2c,0x8a,
0x49,0x40,0x00,0x8a,0x55,0x40,0x04,0x9a,0x57,0x47,0x00,0x9a,0x4b,0x47,0x84,0x40,
0x8a,0x4b,0x40,0x00,0x8a,0x57,0x40,0x04,0x9a,0x50,0x2d,0x00,0x9a,0x44,0x2c,0x88,
0x60,0x8a,0x44,0x40,0x00,0x8a,0x50,0x40,0x83,0x24,0x9a,0x5c,0x4b,0x00,0x9a,0x50,
0x4b,0x54,0x8a,0x50,0x40,0x00,0x8a,0x5c,0x40,0x04,0x9a,0x5a,0x47,0x00,0x9a,0x4e,
0x47,0x58,0x8a,0x4e,0x40,0x00,0x8a,0x5a,0x40,0x04,0x9a,0x59,0x54,0x00,0x9a,0x4d,
0x54,0x50,0x8a,0x4d,0x40,0x00,0x8a,0x59,0x40,0x1c,0x9a,0x55,0x4b,0x00,0x9a,0x49,
0x4b,0x85,0x14,0x8a,0x49,0x40,0x00,0x8a,0x55,0x40,0x04,0x9a,0x57,0x47,0x00,0x9a,
0x4b,0x47,0x84,0x30,0x8a,0x4b,0x40,0x00,0x8a,0x57,0x40,0x04,0x9a,0x50,0x37,0x00,
0x9a,0x44,0x38,0x83,0x08,0x8a,0x44,0x40,0x00,0x8a,0x50,0x40,0x04,0x9a,0x57,0x44,
0x00,0x9a,0x4b,0x44,0x84,0x44,0x8a,0x4b,0x40,0x00,0x8a,0x57,0x40,0x04,0x9a,0x59,
0x4b,0x00,0x9a,0x4d,0x4b,0x84,0x20,0x8a,0x4d,0x40,0x00,0x8a,0x59,0x40,0x30,0x9a,
0x5c,0x44,0x00,0x9a,0x50,0x44,0x4c,0x8a,0x50,0x40,0x00,0x8a,0x5c,0x40,0x04,0x9a,
0x5a,0x3e,0x00,0x9a,0x4e,0x3e,0x50,0x8a,0x4e,0x40,0x00,0x8a,0x5a,0x40,0x08,0x9a,
0x59,0x44,0x00,0x9a,0x4d,0x44,0x48,0x8a,0x4d,0x40,0x00,0x8a,0x59,0x40,0x24,0x9a,
0x55,0x3e,0x00,0x9a,0x49,0x3e,0x85,0x00,0x8a,0x49,0x40,0x00,0x8a,0x55,0x40,0x04,
0x9a,0x57,0x47,0x00,0x9a,0x4b,0x47,0x84,0x40,0x8a,0x4b,0x40,0x00,0x8a,0x57,0x40,
0x04,0x9a,0x50,0x2b,0x00,0x9a,0x44,0x2c,0x8b,0x18,0x8a,0x44,0x40,0x00,0x8a,0x50,
0x40,0x84,0x08,0x9a,0x55,0x44,0x00,0x9a,0x49,0x44,0x84,0x24,0x8a,0x49,0x40,0x00,
0x8a,0x55,0x40,0x04,0x9a,0x57,0x44,0x00,0x9a,0x4b,0x44,0x84,0x34,0x8a,0x4b,0x40,
0x00,0x8a,0x57,0x40,0x04,0x9a,0x50,0x37,0x00,0x9a,0x44,0x39,0x82,0x6c,0x8a,0x44,
0x40,0x00,0x8a,0x50,0x40,0x04,0x9a,0x57,0x44,0x00,0x9a,0x4b,0x44,0x84,0x64,0x8a,
0x4b,0x40,0x00,0x8a,0x57,0x40,0x04,0x9a,0x59,0x54,0x00,0x9a,0x4d,0x54,0x83,0x60,
0x8a,0x4d,0x40,0x00,0x8a,0x59,0x40,0x48,0x9a,0x5c,0x47,0x00,0x9a,0x50,0x47,0x54,
0x8a,0x50,0x40,0x00,0x8a,0x5c,0x40,0x04,0x9a,0x5a,0x47,0x00,0x9a,0x4e,0x47,0x50,
0x8a,0x4e,0x40,0x00,0x8a,0x5a,0x40,0x08,0x9a,0x59,0x4e,0x00,0x9a,0x4d,0x4e,0x44,
0x8a,0x4d,0x40,0x00,0x8a,0x59,0x40,0x28,0x9a,0x55,0x4b,0x00,0x9a,0x49,0x4b,0x85,
0x2c,0x8a,0x49,0x40,0x00,0x8a,0x55,0x40,0x04,0x9a,0x57,0x47,0x00,0x9a,0x4b,0x47,
0x84,0x40,0x8a,0x4b,0x40,0x00,0x8a,0x57,0x40,0x04,0x9a,0x50,0x2d,0x00,0x9a,0x44,
0x2c,0x88,0x60,0x8a,0x44,0x40,0x00,0x8a,0x50,0x40,0x83,0x24,0x9a,0x5c,0x4b,0x00,
0x9a,0x50,0x4b,0x54,0x8a,0x50,0x40,0x00,0x8a,0x5c,0x40,0x04,0x9a,0x5a,0x47,0x00,
0x9a,0x4e,0x47,0x58,0x8a,0x4e,0x40,0x00,0x8a,0x5a,0x40,0x04,0x9a,0x59,0x54,0x00,
0x9a,0x4d,0x54,0x50,0x8a,0x4d,0x40,0x00,0x8a,0x59,0x40,0x1c,0x9a,0x55,0x4b,0x00,
0x9a,0x49,0x4b,0x85,0x14,0x8a,0x49,0x40,0x00,0x8a,0x55,0x40,0x04,0x9a,0x57,0x47,
0x00,0x9a,0x4b,0x47,0x84,0x30,0x8a,0x4b,0x40,0x00,0x8a,0x57,0x40,0x04,0x9a,0x50,
0x37,0x00,0x9a,0x44,0x38,0x83,0x08,0x8a,0x44,0x40,0x00,0x8a,0x50,0x40,0x04,0x9a,
0x57,0x44,0x00,0x9a,0x4b,0x44,0x84,0x44,0x8a,0x4b,0x40,0x00,0x8a,0x57,0x40,0x04,
0x9a,0x59,0x4b,0x00,0x9a,0x4d,0x4b,0x84,0x20,0x8a,0x4d,0x40,0x00,0x8a,0x59,0x40,
0x30,0x9a,0x5c,0x44,0x00,0x9a,0x50,0x44,0x4c,0x8a,0x50,0x40,0x00,0x8a,0x5c,0x40,
0x04,0x9a,0x5a,0x3e,0x00,0x9a,0x4e,0x3e,0x50,0x8a,0x4e,0x40,0x00,0x8a,0x5a,0x40,
0x08,0x9a,0x59,0x44,0x00,0x9a,0x4d,0x44,0x48,0x8a,0x4d,0x40,0x00,0x8a,0x59,0x40,
0x24,0x9a,0x55,0x3e,0x00,0x9a,0x49,0x3e,0x85,0x00,0x8a,0x49,0x40,0x00,0x8a,0x55,
0x40,0x04,0x9a,0x57,0x47,0x00,0x9a,0x4b,0x47,0x84,0x40,0x8a,0x4b,0x40,0x00,0x8a,
0x57,0x40,0x04,0x9a,0x50,0x2b,0x00,0x9a,0x44,0x2c,0x8b,0x18,0x8a,0x44,0x40,0x00,
0x8a,0x50,0x40,0x84,0x08,0x9a,0x55,0x44,0x00,0x9a,0x49,0x44,0x84,0x24,0x8a,0x49,
0x40,0x00,0x8a,0x55,0x40,0x04,0x9a,0x57,0x40,0x00,0x9a,0x4b,0x40,0x84,0x34,0x8a,
0x4b,0x40,0x00,0x8a,0x57,0x40,0x04,0x9a,0x50,0x30,0x00,0x9a,0x44,0x32,0x82,0x6c,
0x8a,0x44,0x40,0x00,0x8a,0x50,0x40,0x04,0x9a,0x57,0x39,0x00,0x9a,0x4b,0x39,0x84,
0x64,0x8a,0x4b,0x40,0x00,0x8a,0x57,0x40,0x04,0x9a,0x59,0x41,0x00,0x9a,0x4d,0x41,
0x83,0x60,0x8a,0x4d,0x40,0x00,0x8a,0x59,0x40,0x48,0x9a,0x5c,0x32,0x00,0x9a,0x50,
0x32,0x54,0x8a,0x50,0x40,0x00,0x8a,0x5c,0x40,0x04,0x9a,0x5a,0x31,0x00,0x9a,0x4e,
0x31,0x50,0x8a,0x4e,0x40,0x00,0x8a,0x5a,0x40,0x08,0x9a,0x59,0x35,0x00,0x9a,0x4d,
0x35,0x44,0x8a,0x4d,0x40,0x00,0x8a,0x59,0x40,0x28,0x9a,0x55,0x32,0x00,0x9a,0x49,
0x32,0x85,0x2c,0x8a,0x49,0x40,0x00,0x8a,0x55,0x40,0x04,0x9a,0x57,0x29,0x00,0x9a,
0x4b,0x29,0x84,0x40,0x8a,0x4b,0x40,0x00,0x8a,0x57,0x40,0x04,0x9a,0x50,0x14,0x00,
0x9a,0x44,0x13,0x88,0x60,0x8a,0x44,0x40,0x00,0x8a,0x50,0x40,0x83,0x24,0x9a,0x5c,
0x19,0x00,0x9a,0x50,0x19,0x54,0x8a,0x50,0x40,0x00,0x8a,0x5c,0x40,0x04,0x9a,0x5a,
0x16,0x00,0x9a,0x4e,0x16,0x58,0x8a,0x4e,0x40,0x00,0x8a,0x5a,0x40,0x04,0x9a,0x59,
0x1b,0x00,0x9a,0x4d,0x1b,0x50,0x8a,0x4d,0x40,0x00,0x8a,0x59,0x40,0x1c,0x9a,0x55,
0x16,0x00,0x9a,0x49,0x16,0x85,0x14,0x8a,0x49,0x40,0x00,0x8a,0x55,0x40,0x04,0x9a,
0x57,0x0f,0x00,0x9a,0x4b,0x0f,0x84,0x30,0x8a,0x4b,0x40,0x00,0x8a,0x57,0x40,0x04,
0x9a,0x50,0x05,0x00,0x9a,0x44,0x05,0x83,0x08,0x8a,0x44,0x40,0x00,0x8a,0x50,0x40,
0x04,0x9a,0x57,0x06,0x00,0x9a,0x4b,0x06,0x84,0x44,0x8a,0x4b,0x40,0x00,0x8a,0x57,
0x40,0x04,0x9a,0x59,0x03,0x00,0x9a,0x4d,0x03,0x84,0x20,0x8a,0x4d,0x40,0x00,0x8a,
0x59,0x40,0x30,0x9a,0x5c,0x01,0x00,0x9a,0x50,0x01,0x4c,0x8a,0x50,0x40,0x00,0x8a,
0x5c,0x40,0x04,0x9a,0x5a,0x01,0x00,0x9a,0x4e,0x01,0x50,0x8a,0x4e,0x40,0x00,0x8a,
0x5a,0x40,0x08,0x9a,0x59,0x01,0x00,0x9a,0x4d,0x01,0x48,0x8a,0x4d,0x40,0x00,0x8a,
0x59,0x40,0x24,0x9a,0x55,0x01,0x00,0x9a,0x49,0x01,0x85,0x00,0x8a,0x49,0x40,0x00,
0x8a,0x55,0x40,0x04,0x9a,0x57,0x01,0x00,0x9a,0x4b,0x01,0x84,0x50,0x8a,0x4b,0x40,
0x00,0x8a,0x57,0x40,0x8f,0x08,0xff,0x2f,0x00,0x4d,0x54,0x72,0x6b,0x00,0x00,0x08,
0x5c,0x00,0xff,0x03,0x07,0x54,0x52,0x55,0x4d,0x50,0x45,0x54,0x90,0x64,0xcb,0x38,
0x04,0xbb,0x07,0x4b,0x00,0xbb,0x0a,0x28,0x00,0xbb,0x0b,0x7f,0x04,0xbb,0x5b,0x42,
0x00,0xbb,0x5d,0x00,0xbe,0x58,0x9b,0x50,0x68,0x00,0x9b,0x44,0x54,0x04,0xbb,0x01,
0x00,0x00,0xeb,0x00,0x40,0x30,0x8b,0x50,0x40,0x04,0x8b,0x44,0x40,0x28,0x9b,0x50,
0x68,0x00,0x9b,0x44,0x54,0x38,0x8b,0x50,0x40,0x08,0x8b,0x44,0x40,0x20,0x9b,0x52,
0x68,0x00,0x9b,0x46,0x54,0x2c,0x8b,0x52,0x40,0x04,0x8b,0x46,0x40,0x30,0x9b,0x55,
0x5f,0x00,0x9b,0x49,0x47,0x38,0x8b,0x55,0x40,0x08,0x8b,0x49,0x40,0x18,0x9b,0x52,
0x6d,0x04,0x9b,0x46,0x54,0x2c,0x8b,0x52,0x40,0x0c,0x8b,0x46,0x40,0x28,0x9b,0x55,
0x68,0x04,0x9b,0x49,0x54,0x4c,0x8b,0x55,0x40,0x1c,0x8b,0x49,0x40,0xa9,0x74,0x9b,
0x55,0x5f,0x00,0x9b,0x50,0x68,0x00,0x9b,0x49,0x5f,0x20,0x8b,0x49,0x40,0x04,0x8b,
0x50,0x40,0x08,0x8b,0x55,0x40,0x30,0x9b,0x55,0x5f,0x04,0x9b,0x50,0x5f,0x00,0x9b,
0x49,0x52,0x20,0x8b,0x49,0x40,0x04,0x8b,0x50,0x40,0x10,0x8b,0x55,0x40,0x81,0x10,
0x9b,0x49,0x38,0x00,0x9b,0x50,0x38,0x00,0x9b,0x55,0x38,0x24,0x8b,0x49,0x40,0x08,
0x8b,0x50,0x40,0x04,0x8b,0x55,0x40,0x2c,0x9b,0x55,0x68,0x00,0x9b,0x50,0x68,0x00,
0x9b,0x49,0x6d,0x24,0x8b,0x49,0x40,0x04,0x8b,0x50,0x40,0x08,0x8b,0x55,0x40,0x2c,
0x9b,0x55,0x5f,0x08,0x9b,0x49,0x5b,0x00,0x9b,0x50,0x68,0x20,0x8b,0x50,0x40,0x00,
0x8b,0x49,0x40,0x0c,0x8b,0x55,0x40,0x34,0x9b,0x49,0x35,0x00,0x9b,0x55,0x35,0x00,
0x9b,0x50,0x35,0x20,0x8b,0x50,0x40,0x0c,0x8b,0x49,0x40,0x04,0x8b,0x55,0x40,0x2c,
0x9b,0x55,0x6d,0x00,0x9b,0x50,0x72,0x04,0x9b,0x49,0x6d,0x24,0x8b,0x49,0x40,0x04,
0x8b,0x50,0x40,0x14,0x8b,0x55,0x40,0xc8,0x20,0x9b,0x50,0x5f,0x00,0x9b,0x44,0x5b,
0x8d,0x3c,0x9b,0x4d,0x6d,0x08,0x9b,0x41,0x62,0x08,0x8b,0x44,0x40,0x08,0x8b,0x50,
0x40,0x82,0x74,0x9b,0x4b,0x5b,0x08,0x8b,0x4d,0x40,0x04,0x9b,0x3f,0x5b,0x04,0x8b,
0x41,0x40,0x82,0x64,0x9b,0x49,0x5f,0x04,0x9b,0x3d,0x5b,0x10,0x8b,0x4b,0x40,0x04,
0x8b,0x3f,0x40,0x82,0x78,0x9b,0x46,0x68,0x08,0x8b,0x49,0x40,0x00,0x9b,0x3a,0x5b,
0x04,0x8b,0x3d,0x40,0x8c,0x18,0x8b,0x46,0x40,0x0c,0x8b,0x3a,0x40,0xa0,0x48,0x9b,
0x50,0x68,0x00,0x9b,0x44,0x54,0x34,0x8b,0x50,0x40,0x04,0x8b,0x44,0x40,0x28,0x9b,
0x50,0x68,0x00,0x9b,0x44,0x54,0x38,0x8b,0x50,0x40,0x08,0x8b,0x44,0x40,0x20,0x9b,
0x52,0x68,0x00,0x9b,0x46,0x54,0x2c,0x8b,0x52,0x40,0x04,0x8b,0x46,0x40,0x30,0x9b,
0x55,0x5f,0x00,0x9b,0x49,0x47,0x38,0x8b,0x55,0x40,0x08,0x8b,0x49,0x40,0x18,0x9b,
0x52,0x6d,0x04,0x9b,0x46,0x54,0x2c,0x8b,0x52,0x40,0x0c,0x8b,0x46,0x40,0x28,0x9b,
0x55,0x68,0x04,0x9b,0x49,0x54,0x4c,0x8b,0x55,0x40,0x1c,0x8b,0x49,0x40,0xab,0x38,
0x9b,0x50,0x68,0x00,0x9b,0x44,0x54,0x34,0x8b,0x50,0x40,0x04,0x8b,0x44,0x40,0x28,
0x9b,0x50,0x68,0x00,0x9b,0x44,0x54,0x38,0x8b,0x50,0x40,0x08,0x8b,0x44,0x40,0x20,
0x9b,0x52,0x68,0x00,0x9b,0x46,0x54,0x2c,0x8b,0x52,0x40,0x04,0x8b,0x46,0x40,0x30,
0x9b,0x55,0x5f,0x00,0x9b,0x49,0x47,0x38,0x8b,0x55,0x40,0x08,0x8b,0x49,0x40,0x18,
0x9b,0x52,0x6d,0x04,0x9b,0x46,0x54,0x2c,0x8b,0x52,0x40,0x0c,0x8b,0x46,0x40,0x28,
0x9b,0x55,0x68,0x04,0x9b,0x49,0x54,0x4c,0x8b,0x55,0x40,0x1c,0x8b,0x49,0x40,0xa9,
0x74,0x9b,0x55,0x5f,0x00,0x9b,0x50,0x68,0x00,0x9b,0x49,0x5f,0x20,0x8b,0x49,0x40,
0x04,0x8b,0x50,0x40,0x08,0x8b,0x55,0x40,0x30,0x9b,0x55,0x5f,0x04,0x9b,0x50,0x5f,
0x00,0x9b,0x49,0x52,0x20,0x8b,0x49,0x40,0x04,0x8b,0x50,0x40,0x10,0x8b,0x55,0x40,
0x81,0x10,0x9b,0x49,0x38,0x00,0x9b,0x50,0x38,0x00,0x9b,0x55,0x38,0x24,0x8b,0x49,
0x40,0x08,0x8b,0x50,0x40,0x04,0x8b,0x55,0x40,0x2c,0x9b,0x55,0x68,0x00,0x9b,0x50,
0x68,0x00,0x9b,0x49,0x6d,0x24,0x8b,0x49,0x40,0x04,0x8b,0x50,0x40,0x08,0x8b,0x55,
0x40,0x2c,0x9b,0x55,0x5f,0x08,0x9b,0x49,0x5b,0x00,0x9b,0x50,0x68,0x20,0x8b,0x50,
0x40,0x00,0x8b,0x49,0x40,0x0c,0x8b,0x55,0x40,0x34,0x9b,0x49,0x35,0x00,0x9b,0x55,
0x35,0x00,0x9b,0x50,0x35,0x20,0x8b,0x50,0x40,0x0c,0x8b,0x49,0x40,0x04,0x8b,0x55,
0x40,0x2c,0x9b,0x55,0x6d,0x00,0x9b,0x50,0x72,0x04,0x9b,0x49,0x6d,0x24,0x8b,0x49,
0x40,0x04,0x8b,0x50,0x40,0x14,0x8b,0x55,0x40,0x81,0x64,0x9b,0x55,0x53,0x00,0x9b,
0x50,0x53,0x00,0x9b,0x49,0x53,0x2c,0x8b,0x49,0x40,0x00,0x8b,0x50,0x40,0x08,0x8b,
0x55,0x40,0xc6,0x10,0x9b,0x50,0x6d,0x08,0x9b,0x44,0x58,0x8d,0x10,0x8b,0x50,0x40,
0x08,0x8b,0x44,0x40,0x28,0x9b,0x4d,0x6d,0x08,0x9b,0x41,0x68,0x82,0x54,0x8b,0x41,
0x40,0x10,0x8b,0x4d,0x40,0x18,0x9b,0x4b,0x5f,0x08,0x9b,0x3f,0x5f,0x82,0x50,0x8b,
0x3f,0x40,0x14,0x8b,0x4b,0x40,0x14,0x9b,0x49,0x68,0x10,0x9b,0x3d,0x5f,0x82,0x70,
0x9b,0x46,0x6d,0x04,0x8b,0x49,0x40,0x08,0x8b,0x3d,0x40,0x00,0x9b,0x3a,0x68,0x8b,
0x7c,0x8b,0x46,0x40,0x0c,0x8b,0x3a,0x40,0xa0,0x5c,0x9b,0x50,0x68,0x00,0x9b,0x44,
0x54,0x34,0x8b,0x50,0x40,0x04,0x8b,0x44,0x40,0x28,0x9b,0x50,0x68,0x00,0x9b,0x44,
0x54,0x38,0x8b,0x50,0x40,0x08,0x8b,0x44,0x40,0x20,0x9b,0x52,0x68,0x00,0x9b,0x46,
0x54,0x2c,0x8b,0x52,0x40,0x04,0x8b,0x46,0x40,0x30,0x9b,0x55,0x5f,0x00,0x9b,0x49,
0x47,0x38,0x8b,0x55,0x40,0x08,0x8b,0x49,0x40,0x18,0x9b,0x52,0x6d,0x04,0x9b,0x46,
0x54,0x2c,0x8b,0x52,0x40,0x0c,0x8b,0x46,0x40,0x28,0x9b,0x55,0x68,0x04,0x9b,0x49,
0x54,0x4c,0x8b,0x55,0x40,0x1c,0x8b,0x49,0x40,0xab,0x38,0x9b,0x50,0x68,0x00,0x9b,
0x44,0x54,0x34,0x8b,0x50,0x40,0x04,0x8b,0x44,0x40,0x28,0x9b,0x50,0x68,0x00,0x9b,
0x44,0x54,0x38,0x8b,0x50,0x40,0x08,0x8b,0x44,0x40,0x20,0x9b,0x52,0x68,0x00,0x9b,
0x46,0x54,0x2c,0x8b,0x52,0x40,0x04,0x8b,0x46,0x40,0x30,0x9b,0x55,0x5f,0x00,0x9b,
0x49,0x47,0x38,0x8b,0x55,0x40,0x08,0x8b,0x49,0x40,0x18,0x9b,0x52,0x6d,0x04,0x9b,
0x46,0x54,0x2c,0x8b,0x52,0x40,0x0c,0x8b,0x46,0x40,0x28,0x9b,0x55,0x68,0x04,0x9b,
0x49,0x54,0x4c,0x8b,0x55,0x40,0x1c,0x8b,0x49,0x40,0xa9,0x74,0x9b,0x55,0x5f,0x00,
0x9b,0x50,0x68,0x00,0x9b,0x49,0x5f,0x20,0x8b,0x49,0x40,0x04,0x8b,0x50,0x40,0x08,
0x8b,0x55,0x40,0x30,0x9b,0x55,0x5f,0x04,0x9b,0x50,0x5f,0x00,0x9b,0x49,0x52,0x20,
0x8b,0x49,0x40,0x04,0x8b,0x50,0x40,0x10,0x8b,0x55,0x40,0x81,0x10,0x9b,0x49,0x38,
0x00,0x9b,0x50,0x38,0x00,0x9b,0x55,0x38,0x24,0x8b,0x49,0x40,0x08,0x8b,0x50,0x40,
0x04,0x8b,0x55,0x40,0x2c,0x9b,0x55,0x68,0x00,0x9b,0x50,0x68,0x00,0x9b,0x49,0x6d,
0x24,0x8b,0x49,0x40,0x04,0x8b,0x50,0x40,0x08,0x8b,0x55,0x40,0x2c,0x9b,0x55,0x5f,
0x08,0x9b,0x49,0x5b,0x00,0x9b,0x50,0x68,0x20,0x8b,0x50,0x40,0x00,0x8b,0x49,0x40,
0x0c,0x8b,0x55,0x40,0x34,0x9b,0x49,0x35,0x00,0x9b,0x55,0x35,0x00,0x9b,0x50,0x35,
0x20,0x8b,0x50,0x40,0x0c,0x8b,0x49,0x40,0x04,0x8b,0x55,0x40,0xac,0x50,0x9b,0x50,
0x68,0x00,0x9b,0x44,0x54,0x34,0x8b,0x50,0x40,0x04,0x8b,0x44,0x40,0x28,0x9b,0x50,
0x68,0x00,0x9b,0x44,0x54,0x38,0x8b,0x50,0x40,0x08,0x8b,0x44,0x40,0x20,0x9b,0x52,
0x68,0x00,0x9b,0x46,0x54,0x2c,0x8b,0x52,0x40,0x04,0x8b,0x46,0x40,0x30,0x9b,0x55,
0x5f,0x00,0x9b,0x49,0x47,0x38,0x8b,0x55,0x40,0x08,0x8b,0x49,0x40,0x18,0x9b,0x52,
0x6d,0x04,0x9b,0x46,0x54,0x2c,0x8b,0x52,0x40,0x0c,0x8b,0x46,0x40,0x28,0x9b,0x55,
0x68,0x04,0x9b,0x49,0x54,0x4c,0x8b,0x55,0x40,0x1c,0x8b,0x49,0x40,0xa9,0x74,0x9b,
0x55,0x5f,0x00,0x9b,0x50,0x68,0x00,0x9b,0x49,0x5f,0x20,0x8b,0x49,0x40,0x04,0x8b,
0x50,0x40,0x08,0x8b,0x55,0x40,0x30,0x9b,0x55,0x5f,0x04,0x9b,0x50,0x5f,0x00,0x9b,
0x49,0x52,0x20,0x8b,0x49,0x40,0x04,0x8b,0x50,0x40,0x10,0x8b,0x55,0x40,0x81,0x10,
0x9b,0x49,0x38,0x00,0x9b,0x50,0x38,0x00,0x9b,0x55,0x38,0x24,0x8b,0x49,0x40,0x08,
0x8b,0x50,0x40,0x04,0x8b,0x55,0x40,0x2c,0x9b,0x55,0x68,0x00,0x9b,0x50,0x68,0x00,
0x9b,0x49,0x6d,0x24,0x8b,0x49,0x40,0x04,0x8b,0x50,0x40,0x08,0x8b,0x55,0x40,0x2c,
0x9b,0x55,0x5f,0x08,0x9b,0x49,0x5b,0x00,0x9b,0x50,0x68,0x20,0x8b,0x50,0x40,0x00,
0x8b,0x49,0x40,0x0c,0x8b,0x55,0x40,0x34,0x9b,0x49,0x35,0x00,0x9b,0x55,0x35,0x00,
0x9b,0x50,0x35,0x20,0x8b,0x50,0x40,0x0c,0x8b,0x49,0x40,0x04,0x8b,0x55,0x40,0x81,
0xec,0x50,0x9b,0x50,0x68,0x00,0x9b,0x44,0x54,0x34,0x8b,0x50,0x40,0x04,0x8b,0x44,
0x40,0x28,0x9b,0x50,0x68,0x00,0x9b,0x44,0x54,0x38,0x8b,0x50,0x40,0x08,0x8b,0x44,
0x40,0x20,0x9b,0x52,0x68,0x00,0x9b,0x46,0x54,0x2c,0x8b,0x52,0x40,0x04,0x8b,0x46,
0x40,0x30,0x9b,0x55,0x5f,0x00,0x9b,0x49,0x47,0x38,0x8b,0x55,0x40,0x08,0x8b,0x49,
0x40,0x18,0x9b,0x52,0x6d,0x04,0x9b,0x46,0x54,0x2c,0x8b,0x52,0x40,0x0c,0x8b,0x46,
0x40,0x28,0x9b,0x55,0x68,0x04,0x9b,0x49,0x54,0x4c,0x8b,0x55,0x40,0x1c,0x8b,0x49,
0x40,0xab,0x38,0x9b,0x50,0x68,0x00,0x9b,0x44,0x54,0x34,0x8b,0x50,0x40,0x04,0x8b,
0x44,0x40,0x28,0x9b,0x50,0x68,0x00,0x9b,0x44,0x54,0x38,0x8b,0x50,0x40,0x08,0x8b,
0x44,0x40,0x20,0x9b,0x52,0x68,0x00,0x9b,0x46,0x54,0x2c,0x8b,0x52,0x40,0x04,0x8b,
0x46,0x40,0x30,0x9b,0x55,0x5f,0x00,0x9b,0x49,0x47,0x38,0x8b,0x55,0x40,0x08,0x8b,
0x49,0x40,0x18,0x9b,0x52,0x6d,0x04,0x9b,0x46,0x54,0x2c,0x8b,0x52,0x40,0x0c,0x8b,
0x46,0x40,0x28,0x9b,0x55,0x68,0x04,0x9b,0x49,0x54,0x4c,0x8b,0x55,0x40,0x1c,0x8b,
0x49,0x40,0xa9,0x74,0x9b,0x55,0x5f,0x00,0x9b,0x50,0x68,0x00,0x9b,0x49,0x5f,0x20,
0x8b,0x49,0x40,0x04,0x8b,0x50,0x40,0x08,0x8b,0x55,0x40,0x30,0x9b,0x55,0x5f,0x04,
0x9b,0x50,0x5f,0x00,0x9b,0x49,0x52,0x20,0x8b,0x49,0x40,0x04,0x8b,0x50,0x40,0x10,
0x8b,0x55,0x40,0x81,0x10,0x9b,0x49,0x38,0x00,0x9b,0x50,0x38,0x00,0x9b,0x55,0x38,
0x24,0x8b,0x49,0x40,0x08,0x8b,0x50,0x40,0x04,0x8b,0x55,0x40,0x2c,0x9b,0x55,0x68,
0x00,0x9b,0x50,0x68,0x00,0x9b,0x49,0x6d,0x24,0x8b,0x49,0x40,0x04,0x8b,0x50,0x40,
0x08,0x8b,0x55,0x40,0x2c,0x9b,0x55,0x5f,0x08,0x9b,0x49,0x5b,0x00,0x9b,0x50,0x68,
0x20,0x8b,0x50,0x40,0x00,0x8b,0x49,0x40,0x0c,0x8b,0x55,0x40,0x34,0x9b,0x49,0x35,
0x00,0x9b,0x55,0x35,0x00,0x9b,0x50,0x35,0x20,0x8b,0x50,0x40,0x0c,0x8b,0x49,0x40,
0x04,0x8b,0x55,0x40,0xac,0x50,0x9b,0x50,0x68,0x00,0x9b,0x44,0x54,0x34,0x8b,0x50,
0x40,0x04,0x8b,0x44,0x40,0x28,0x9b,0x50,0x68,0x00,0x9b,0x44,0x54,0x38,0x8b,0x50,
0x40,0x08,0x8b,0x44,0x40,0x20,0x9b,0x52,0x68,0x00,0x9b,0x46,0x54,0x2c,0x8b,0x52,
0x40,0x04,0x8b,0x46,0x40,0x30,0x9b,0x55,0x5f,0x00,0x9b,0x49,0x47,0x38,0x8b,0x55,
0x40,0x08,0x8b,0x49,0x40,0x18,0x9b,0x52,0x6d,0x04,0x9b,0x46,0x54,0x2c,0x8b,0x52,
0x40,0x0c,0x8b,0x46,0x40,0x28,0x9b,0x55,0x68,0x04,0x9b,0x49,0x54,0x4c,0x8b,0x55,
0x40,0x1c,0x8b,0x49,0x40,0xa9,0x74,0x9b,0x55,0x5f,0x00,0x9b,0x50,0x68,0x00,0x9b,
0x49,0x5f,0x20,0x8b,0x49,0x40,0x04,0x8b,0x50,0x40,0x08,0x8b,0x55,0x40,0x30,0x9b,
0x55,0x5f,0x04,0x9b,0x50,0x5f,0x00,0x9b,0x49,0x52,0x20,0x8b,0x49,0x40,0x04,0x8b,
0x50,0x40,0x10,0x8b,0x55,0x40,0x81,0x10,0x9b,0x49,0x38,0x00,0x9b,0x50,0x38,0x00,
0x9b,0x55,0x38,0x24,0x8b,0x49,0x40,0x08,0x8b,0x50,0x40,0x04,0x8b,0x55,0x40,0x2c,
0x9b,0x55,0x68,0x00,0x9b,0x50,0x68,0x00,0x9b,0x49,0x6d,0x24,0x8b,0x49,0x40,0x04,
0x8b,0x50,0x40,0x08,0x8b,0x55,0x40,0x2c,0x9b,0x55,0x5f,0x08,0x9b,0x49,0x5b,0x00,
0x9b,0x50,0x68,0x20,0x8b,0x50,0x40,0x00,0x8b,0x49,0x40,0x0c,0x8b,0x55,0x40,0x34,
0x9b,0x49,0x35,0x00,0x9b,0x55,0x35,0x00,0x9b,0x50,0x35,0x20,0x8b,0x50,0x40,0x0c,
0x8b,0x49,0x40,0x04,0x8b,0x55,0x40,0xac,0x50,0x9b,0x50,0x34,0x00,0x9b,0x44,0x2a,
0x34,0x8b,0x50,0x40,0x04,0x8b,0x44,0x40,0x28,0x9b,0x50,0x32,0x00,0x9b,0x44,0x29,
0x38,0x8b,0x50,0x40,0x08,0x8b,0x44,0x40,0x20,0x9b,0x52,0x31,0x00,0x9b,0x46,0x28,
0x2c,0x8b,0x52,0x40,0x04,0x8b,0x46,0x40,0x30,0x9b,0x55,0x2c,0x00,0x9b,0x49,0x21,
0x38,0x8b,0x55,0x40,0x08,0x8b,0x49,0x40,0x18,0x9b,0x52,0x32,0x04,0x9b,0x46,0x26,
0x2c,0x8b,0x52,0x40,0x0c,0x8b,0x46,0x40,0x28,0x9b,0x55,0x2e,0x04,0x9b,0x49,0x25,
0x4c,0x8b,0x55,0x40,0x1c,0x8b,0x49,0x40,0xaf,0x74,0xff,0x2f,0x00,0x4d,0x54,0x72,
0x6b,0x00,0x00,0x08,0x2c,0x00,0xff,0x03,0x07,0x42,0x52,0x41,0x53,0x53,0x20,0x31,
0x90,0x78,0xcc,0x3d,0x04,0xbc,0x07,0x5a,0x00,0xbc,0x0a,0x58,0x00,0xbc,0x0b,0x7f,
0x04,0xbc,0x5b,0x3c,0x00,0xbc,0x5d,0x00,0xbe,0x4c,0x9c,0x50,0x68,0x00,0x9c,0x44,
0x54,0x04,0xbc,0x01,0x00,0x00,0xec,0x00,0x40,0x30,0x8c,0x50,0x40,0x04,0x8c,0x44,
0x40,0x28,0x9c,0x50,0x68,0x00,0x9c,0x44,0x54,0x38,0x8c,0x50,0x40,0x08,0x8c,0x44,
0x40,0x20,0x9c,0x52,0x68,0x00,0x9c,0x46,0x54,0x2c,0x8c,0x52,0x40,0x04,0x8c,0x46,
0x40,0x30,0x9c,0x55,0x5f,0x00,0x9c,0x49,0x47,0x38,0x8c,0x55,0x40,0x08,0x8c,0x49,
0x40,0x18,0x9c,0x52,0x6d,0x04,0x9c,0x46,0x54,0x2c,0x8c,0x52,0x40,0x0c,0x8c,0x46,
0x40,0x28,0x9c,0x55,0x68,0x04,0x9c,0x49,0x54,0x4c,0x8c,0x55,0x40,0x1c,0x8c,0x49,
0x40,0xa9,0x74,0x9c,0x55,0x5f,0x00,0x9c,0x50,0x68,0x00,0x9c,0x49,0x5f,0x20,0x8c,
0x49,0x40,0x04,0x8c,0x50,0x40,0x08,0x8c,0x55,0x40,0x30,0x9c,0x55,0x5f,0x04,0x9c,
0x50,0x5f,0x00,0x9c,0x49,0x52,0x20,0x8c,0x49,0x40,0x04,0x8c,0x50,0x40,0x10,0x8c,
0x55,0x40,0x81,0x10,0x9c,0x49,0x38,0x00,0x9c,0x50,0x38,0x00,0x9c,0x55,0x38,0x24,
0x8c,0x49,0x40,0x08,0x8c,0x50,0x40,0x04,0x8c,0x55,0x40,0x2c,0x9c,0x55,0x68,0x00,
0x9c,0x50,0x68,0x00,0x9c,0x49,0x6d,0x24,0x8c,0x49,0x40,0x04,0x8c,0x50,0x40,0x08,
0x8c,0x55,0x40,0x2c,0x9c,0x55,0x5f,0x08,0x9c,0x49,0x5b,0x00,0x9c,0x50,0x68,0x20,
0x8c,0x50,0x40,0x00,0x8c,0x49,0x40,0x0c,0x8c,0x55,0x40,0x34,0x9c,0x49,0x35,0x00,
0x9c,0x55,0x35,0x00,0x9c,0x50,0x35,0x20,0x8c,0x50,0x40,0x0c,0x8c,0x49,0x40,0x04,
0x8c,0x55,0x40,0x2c,0x9c,0x55,0x6d,0x00,0x9c,0x50,0x72,0x04,0x9c,0x49,0x6d,0x24,
0x8c,0x49,0x40,0x04,0x8c,0x50,0x40,0x14,0x8c,0x55,0x40,0xc8,0x20,0x9c,0x50,0x5f,
0x00,0x9c,0x44,0x5b,0x8d,0x3c,0x9c,0x4d,0x6d,0x08,0x9c,0x41,0x62,0x08,0x8c,0x44,
0x40,0x08,0x8c,0x50,0x40,0x82,0x74,0x9c,0x4b,0x5b,0x08,0x8c,0x4d,0x40,0x04,0x9c,
0x3f,0x5b,0x04,0x8c,0x41,0x40,0x82,0x64,0x9c,0x49,0x5f,0x04,0x9c,0x3d,0x5b,0x10,
0x8c,0x4b,0x40,0x04,0x8c,0x3f,0x40,0x82,0x78,0x9c,0x46,0x68,0x08,0x8c,0x49,0x40,
0x00,0x9c,0x3a,0x5b,0x04,0x8c,0x3d,0x40,0x8c,0x18,0x8c,0x46,0x40,0x0c,0x8c,0x3a,
0x40,0xa0,0x48,0x9c,0x50,0x68,0x00,0x9c,0x44,0x54,0x34,0x8c,0x50,0x40,0x04,0x8c,
0x44,0x40,0x28,0x9c,0x50,0x68,0x00,0x9c,0x44,0x54,0x38,0x8c,0x50,0x40,0x08,0x8c,
0x44,0x40,0x20,0x9c,0x52,0x68,0x00,0x9c,0x46,0x54,0x2c,0x8c,0x52,0x40,0x04,0x8c,
0x46,0x40,0x30,0x9c,0x55,0x5f,0x00,0x9c,0x49,0x47,0x38,0x8c,0x55,0x40,0x08,0x8c,
0x49,0x40,0x18,0x9c,0x52,0x6d,0x04,0x9c,0x46,0x54,0x2c,0x8c,0x52,0x40,0x0c,0x8c,
0x46,0x40,0x28,0x9c,0x55,0x68,0x04,0x9c,0x49,0x54,0x4c,0x8c,0x55,0x40,0x1c,0x8c,
0x49,0x40,0xab,0x38,0x9c,0x50,0x68,0x34,0x8c,0x50,0x40,0x2c,0x9c,0x50,0x68,0x38,
0x8c,0x50,0x40,0x28,0x9c,0x52,0x68,0x2c,0x8c,0x52,0x40,0x34,0x9c,0x55,0x5f,0x38,
0x8c,0x55,0x40,0x20,0x9c,0x52,0x6d,0x30,0x8c,0x52,0x40,0x34,0x9c,0x55,0x68,0x50,
0x8c,0x55,0x40,0xaa,0x10,0x9c,0x55,0x5f,0x00,0x9c,0x50,0x68,0x00,0x9c,0x49,0x5f,
0x20,0x8c,0x49,0x40,0x04,0x8c,0x50,0x40,0x08,0x8c,0x55,0x40,0x30,0x9c,0x55,0x5f,
0x04,0x9c,0x50,0x5f,0x00,0x9c,0x49,0x52,0x20,0x8c,0x49,0x40,0x04,0x8c,0x50,0x40,
0x10,0x8c,0x55,0x40,0x81,0x10,0x9c,0x49,0x38,0x00,0x9c,0x50,0x38,0x00,0x9c,0x55,
0x38,0x24,0x8c,0x49,0x40,0x08,0x8c,0x50,0x40,0x04,0x8c,0x55,0x40,0x2c,0x9c,0x55,
0x68,0x00,0x9c,0x50,0x68,0x00,0x9c,0x49,0x6d,0x24,0x8c,0x49,0x40,0x04,0x8c,0x50,
0x40,0x08,0x8c,0x55,0x40,0x2c,0x9c,0x55,0x5f,0x08,0x9c,0x49,0x5b,0x00,0x9c,0x50,
0x68,0x20,0x8c,0x50,0x40,0x00,0x8c,0x49,0x40,0x0c,0x8c,0x55,0x40,0x34,0x9c,0x49,
0x35,0x00,0x9c,0x55,0x35,0x00,0x9c,0x50,0x35,0x20,0x8c,0x50,0x40,0x0c,0x8c,0x49,
0x40,0x04,0x8c,0x55,0x40,0x2c,0x9c,0x55,0x6d,0x00,0x9c,0x50,0x72,0x04,0x9c,0x49,
0x6d,0x24,0x8c,0x49,0x40,0x04,0x8c,0x50,0x40,0x14,0x8c,0x55,0x40,0x81,0x64,0x9c,
0x55,0x53,0x00,0x9c,0x50,0x53,0x00,0x9c,0x49,0x53,0x2c,0x8c,0x49,0x40,0x00,0x8c,
0x50,0x40,0x08,0x8c,0x55,0x40,0xc6,0x10,0x9c,0x50,0x6d,0x08,0x9c,0x44,0x58,0x8d,
0x10,0x8c,0x50,0x40,0x08,0x8c,0x44,0x40,0x28,0x9c,0x4d,0x6d,0x08,0x9c,0x41,0x68,
0x82,0x54,0x8c,0x41,0x40,0x10,0x8c,0x4d,0x40,0x18,0x9c,0x4b,0x5f,0x08,0x9c,0x3f,
0x5f,0x82,0x50,0x8c,0x3f,0x40,0x14,0x8c,0x4b,0x40,0x14,0x9c,0x49,0x68,0x10,0x9c,
0x3d,0x5f,0x82,0x70,0x9c,0x46,0x6d,0x04,0x8c,0x49,0x40,0x08,0x8c,0x3d,0x40,0x00,
0x9c,0x3a,0x68,0x8b,0x7c,0x8c,0x46,0x40,0x0c,0x8c,0x3a,0x40,0xa0,0x5c,0x9c,0x50,
0x68,0x00,0x9c,0x44,0x54,0x34,0x8c,0x50,0x40,0x04,0x8c,0x44,0x40,0x28,0x9c,0x50,
0x68,0x00,0x9c,0x44,0x54,0x38,0x8c,0x50,0x40,0x08,0x8c,0x44,0x40,0x20,0x9c,0x52,
0x68,0x00,0x9c,0x46,0x54,0x2c,0x8c,0x52,0x40,0x04,0x8c,0x46,0x40,0x30,0x9c,0x55,
0x5f,0x00,0x9c,0x49,0x47,0x38,0x8c,0x55,0x40,0x08,0x8c,0x49,0x40,0x18,0x9c,0x52,
0x6d,0x04,0x9c,0x46,0x54,0x2c,0x8c,0x52,0x40,0x0c,0x8c,0x46,0x40,0x28,0x9c,0x55,
0x68,0x04,0x9c,0x49,0x54,0x4c,0x8c,0x55,0x40,0x1c,0x8c,0x49,0x40,0xab,0x38,0x9c,
0x50,0x68,0x00,0x9c,0x44,0x54,0x34,0x8c,0x50,0x40,0x04,0x8c,0x44,0x40,0x28,0x9c,
0x50,0x68,0x00,0x9c,0x44,0x54,0x38,0x8c,0x50,0x40,0x08,0x8c,0x44,0x40,0x20,0x9c,
0x52,0x68,0x00,0x9c,0x46,0x54,0x2c,0x8c,0x52,0x40,0x04,0x8c,0x46,0x40,0x30,0x9c,
0x55,0x5f,0x00,0x9c,0x49,0x47,0x38,0x8c,0x55,0x40,0x08,0x8c,0x49,0x40,0x18,0x9c,
0x52,0x6d,0x04,0x9c,0x46,0x54,0x2c,0x8c,0x52,0x40,0x0c,0x8c,0x46,0x40,0x28,0x9c,
0x55,0x68,0x04,0x9c,0x49,0x54,0x4c,0x8c,0x55,0x40,0x1c,0x8c,0x49,0x40,0xa9,0x74,
0x9c,0x55,0x5f,0x00,0x9c,0x50,0x68,0x00,0x9c,0x49,0x5f,0x20,0x8c,0x49,0x40,0x04,
0x8c,0x50,0x40,0x08,0x8c,0x55,0x40,0x30,0x9c,0x55,0x5f,0x04,0x9c,0x50,0x5f,0x00,
0x9c,0x49,0x52,0x20,0x8c,0x49,0x40,0x04,0x8c,0x50,0x40,0x10,0x8c,0x55,0x40,0x81,
0x10,0x9c,0x49,0x38,0x00,0x9c,0x50,0x38,0x00,0x9c,0x55,0x38,0x24,0x8c,0x49,0x40,
0x08,0x8c,0x50,0x40,0x04,0x8c,0x55,0x40,0x2c,0x9c,0x55,0x68,0x00,0x9c,0x50,0x68,
0x00,0x9c,0x49,0x6d,0x24,0x8c,0x49,0x40,0x04,0x8c,0x50,0x40,0x08,0x8c,0x55,0x40,
0x2c,0x9c,0x55,0x5f,0x08,0x9c,0x49,0x5b,0x00,0x9c,0x50,0x68,0x20,0x8c,0x50,0x40,
0x00,0x8c,0x49,0x40,0x0c,0x8c,0x55,0x40,0x34,0x9c,0x49,0x35,0x00,0x9c,0x55,0x35,
0x00,0x9c,0x50,0x35,0x20,0x8c,0x50,0x40,0x0c,0x8c,0x49,0x40,0x04,0x8c,0x55,0x40,
0xac,0x50,0x9c,0x50,0x68,0x00,0x9c,0x44,0x54,0x34,0x8c,0x50,0x40,0x04,0x8c,0x44,
0x40,0x28,0x9c,0x50,0x68,0x00,0x9c,0x44,0x54,0x38,0x8c,0x50,0x40,0x08,0x8c,0x44,
0x40,0x20,0x9c,0x52,0x68,0x00,0x9c,0x46,0x54,0x2c,0x8c,0x52,0x40,0x04,0x8c,0x46,
0x40,0x30,0x9c,0x55,0x5f,0x00,0x9c,0x49,0x47,0x38,0x8c,0x55,0x40,0x08,0x8c,0x49,
0x40,0x18,0x9c,0x52,0x6d,0x04,0x9c,0x46,0x54,0x2c,0x8c,0x52,0x40,0x0c,0x8c,0x46,
0x40,0x28,0x9c,0x55,0x68,0x04,0x9c,0x49,0x54,0x4c,0x8c,0x55,0x40,0x1c,0x8c,0x49,
0x40,0xa9,0x74,0x9c,0x55,0x5f,0x00,0x9c,0x50,0x68,0x00,0x9c,0x49,0x5f,0x20,0x8c,
0x49,0x40,0x04,0x8c,0x50,0x40,0x08,0x8c,0x55,0x40,0x30,0x9c,0x55,0x5f,0x04,0x9c,
0x50,0x5f,0x00,0x9c,0x49,0x52,0x20,0x8c,0x49,0x40,0x04,0x8c,0x50,0x40,0x10,0x8c,
0x55,0x40,0x81,0x10,0x9c,0x49,0x38,0x00,0x9c,0x50,0x38,0x00,0x9c,0x55,0x38,0x24,
0x8c,0x49,0x40,0x08,0x8c,0x50,0x40,0x04,0x8c,0x55,0x40,0x2c,0x9c,0x55,0x68,0x00,
0x9c,0x50,0x68,0x00,0x9c,0x49,0x6d,0x24,0x8c,0x49,0x40,0x04,0x8c,0x50,0x40,0x08,
0x8c,0x55,0x40,0x2c,0x9c,0x55,0x5f,0x08,0x9c,0x49,0x5b,0x00,0x9c,0x50,0x68,0x20,
0x8c,0x50,0x40,0x00,0x8c,0x49,0x40,0x0c,0x8c,0x55,0x40,0x34,0x9c,0x49,0x35,0x00,
0x9c,0x55,0x35,0x00,0x9c,0x50,0x35,0x20,0x8c,0x50,0x40,0x0c,0x8c,0x49,0x40,0x04,
0x8c,0x55,0x40,0x81,0xec,0x50,0x9c,0x50,0x68,0x00,0x9c,0x44,0x54,0x34,0x8c,0x50,
0x40,0x04,0x8c,0x44,0x40,0x28,0x9c,0x50,0x68,0x00,0x9c,0x44,0x54,0x38,0x8c,0x50,
0x40,0x08,0x8c,0x44,0x40,0x20,0x9c,0x52,0x68,0x00,0x9c,0x46,0x54,0x2c,0x8c,0x52,
0x40,0x04,0x8c,0x46,0x40,0x30,0x9c,0x55,0x5f,0x00,0x9c,0x49,0x47,0x38,0x8c,0x55,
0x40,0x08,0x8c,0x49,0x40,0x18,0x9c,0x52,0x6d,0x04,0x9c,0x46,0x54,0x2c,0x8c,0x52,
0x40,0x0c,0x8c,0x46,0x40,0x28,0x9c,0x55,0x68,0x04,0x9c,0x49,0x54,0x4c,0x8c,0x55,
0x40,0x1c,0x8c,0x49,0x40,0xab,0x38,0x9c,0x50,0x68,0x00,0x9c,0x44,0x54,0x34,0x8c,
0x50,0x40,0x04,0x8c,0x44,0x40,0x28,0x9c,0x50,0x68,0x00,0x9c,0x44,0x54,0x38,0x8c,
0x50,0x40,0x08,0x8c,0x44,0x40,0x20,0x9c,0x52,0x68,0x00,0x9c,0x46,0x54,0x2c,0x8c,
0x52,0x40,0x04,0x8c,0x46,0x40,0x30,0x9c,0x55,0x5f,0x00,0x9c,0x49,0x47,0x38,0x8c,
0x55,0x40,0x08,0x8c,0x49,0x40,0x18,0x9c,0x52,0x6d,0x04,0x9c,0x46,0x54,0x2c,0x8c,
0x52,0x40,0x0c,0x8c,0x46,0x40,0x28,0x9c,0x55,0x68,0x04,0x9c,0x49,0x54,0x4c,0x8c,
0x55,0x40,0x1c,0x8c,0x49,0x40,0xa9,0x74,0x9c,0x55,0x5f,0x00,0x9c,0x50,0x68,0x00,
0x9c,0x49,0x5f,0x20,0x8c,0x49,0x40,0x04,0x8c,0x50,0x40,0x08,0x8c,0x55,0x40,0x30,
0x9c,0x55,0x5f,0x04,0x9c,0x50,0x5f,0x00,0x9c,0x49,0x52,0x20,0x8c,0x49,0x40,0x04,
0x8c,0x50,0x40,0x10,0x8c,0x55,0x40,0x81,0x10,0x9c,0x49,0x38,0x00,0x9c,0x50,0x38,
0x00,0x9c,0x55,0x38,0x24,0x8c,0x49,0x40,0x08,0x8c,0x50,0x40,0x04,0x8c,0x55,0x40,
0x2c,0x9c,0x55,0x68,0x00,0x9c,0x50,0x68,0x00,0x9c,0x49,0x6d,0x24,0x8c,0x49,0x40,
0x04,0x8c,0x50,0x40,0x08,0x8c,0x55,0x40,0x2c,0x9c,0x55,0x5f,0x08,0x9c,0x49,0x5b,
0x00,0x9c,0x50,0x68,0x20,0x8c,0x50,0x40,0x00,0x8c,0x49,0x40,0x0c,0x8c,0x55,0x40,
0x34,0x9c,0x49,0x35,0x00,0x9c,0x55,0x35,0x00,0x9c,0x50,0x35,0x20,0x8c,0x50,0x40,
0x0c,0x8c,0x49,0x40,0x04,0x8c,0x55,0x40,0xac,0x50,0x9c,0x50,0x68,0x00,0x9c,0x44,
0x54,0x34,0x8c,0x50,0x40,0x04,0x8c,0x44,0x40,0x28,0x9c,0x50,0x68,0x00,0x9c,0x44,
0x54,0x38,0x8c,0x50,0x40,0x08,0x8c,0x44,0x40,0x20,0x9c,0x52,0x68,0x00,0x9c,0x46,
0x54,0x2c,0x8c,0x52,0x40,0x04,0x8c,0x46,0x40,0x30,0x9c,0x55,0x5f,0x00,0x9c,0x49,
0x47,0x38,0x8c,0x55,0x40,0x08,0x8c,0x49,0x40,0x18,0x9c,0x52,0x6d,0x04,0x9c,0x46,
0x54,0x2c,0x8c,0x52,0x40,0x0c,0x8c,0x46,0x40,0x28,0x9c,0x55,0x68,0x04,0x9c,0x49,
0x54,0x4c,0x8c,0x55,0x40,0x1c,0x8c,0x49,0x40,0xa9,0x74,0x9c,0x55,0x5f,0x00,0x9c,
0x50,0x68,0x00,0x9c,0x49,0x5f,0x20,0x8c,0x49,0x40,0x04,0x8c,0x50,0x40,0x08,0x8c,
0x55,0x40,0x30,0x9c,0x55,0x5f,0x04,0x9c,0x50,0x5f,0x00,0x9c,0x49,0x52,0x20,0x8c,
0x49,0x40,0x04,0x8c,0x50,0x40,0x10,0x8c,0x55,0x40,0x81,0x10,0x9c,0x49,0x38,0x00,
0x9c,0x50,0x38,0x00,0x9c,0x55,0x38,0x24,0x8c,0x49,0x40,0x08,0x8c,0x50,0x40,0x04,
0x8c,0x55,0x40,0x2c,0x9c,0x55,0x68,0x00,0x9c,0x50,0x68,0x00,0x9c,0x49,0x6d,0x24,
0x8c,0x49,0x40,0x04,0x8c,0x50,0x40,0x08,0x8c,0x55,0x40,0x2c,0x9c,0x55,0x5f,0x08,
0x9c,0x49,0x5b,0x00,0x9c,0x50,0x68,0x20,0x8c,0x50,0x40,0x00,0x8c,0x49,0x40,0x0c,
0x8c,0x55,0x40,0x34,0x9c,0x49,0x35,0x00,0x9c,0x55,0x35,0x00,0x9c,0x50,0x35,0x20,
0x8c,0x50,0x40,0x0c,0x8c,0x49,0x40,0x04,0x8c,0x55,0x40,0xac,0x50,0x9c,0x50,0x34,
0x00,0x9c,0x44,0x2a,0x34,0x8c,0x50,0x40,0x04,0x8c,0x44,0x40,0x28,0x9c,0x50,0x32,
0x00,0x9c,0x44,0x29,0x38,0x8c,0x50,0x40,0x08,0x8c,0x44,0x40,0x20,0x9c,0x52,0x31,
0x00,0x9c,0x46,0x28,0x2c,0x8c,0x52,0x40,0x04,0x8c,0x46,0x40,0x30,0x9c,0x55,0x2c,
0x00,0x9c,0x49,0x21,0x38,0x8c,0x55,0x40,0x08,0x8c,0x49,0x40,0x18,0x9c,0x52,0x32,
0x04,0x9c,0x46,0x26,0x2c,0x8c,0x52,0x40,0x0c,0x8c,0x46,0x40,0x28,0x9c,0x55,0x2e,
0x04,0x9c,0x49,0x25,0x4c,0x8c,0x55,0x40,0x1c,0x8c,0x49,0x40,0xaf,0x6c,0xff,0x2f,
0x00,0x4d,0x54,0x72,0x6b,0x00,0x00,0x0f,0x34,0x00,0xff,0x03,0x07,0x57,0x48,0x49,
0x53,0x54,0x4c,0x45,0x91,0x0c,0xcd,0x4e,0x04,0xbd,0x07,0x28,0x00,0xbd,0x0a,0x40,
0x00,0xbd,0x0b,0x7f,0x04,0xbd,0x5b,0x3c,0x00,0xbd,0x5d,0x00,0x93,0x64,0x9d,0x4d,
0x58,0x04,0xbd,0x01,0x00,0x00,0xed,0x00,0x40,0x00,0x9d,0x49,0x4a,0x00,0x9d,0x42,
0x49,0x00,0x9d,0x46,0x4e,0x83,0x54,0x8d,0x4d,0x40,0x08,0x8d,0x42,0x40,0x04,0x8d,
0x49,0x40,0x14,0x8d,0x46,0x40,0x81,0x04,0x9d,0x4b,0x4a,0x04,0x9d,0x46,0x3f,0x04,
0x9d,0x44,0x4e,0x04,0x9d,0x48,0x50,0x84,0x70,0x8d,0x4b,0x40,0x1c,0x8d,0x44,0x40,
0x04,0x8d,0x48,0x40,0x00,0x8d,0x46,0x40,0x81,0x54,0x9d,0x4b,0x4e,0x04,0x9d,0x44,
0x50,0x00,0x9d,0x41,0x52,0x04,0x9d,0x48,0x58,0x83,0x60,0x8d,0x48,0x40,0x40,0x8d,
0x41,0x40,0x04,0x8d,0x4b,0x40,0x0c,0x8d,0x44,0x40,0x5c,0x9d,0x49,0x50,0x08,0x9d,
0x44,0x3e,0x00,0x9d,0x41,0x55,0x00,0x9d,0x46,0x58,0x84,0x4c,0x8d,0x41,0x40,0x14,
0x8d,0x44,0x40,0x24,0x8d,0x46,0x40,0x28,0x8d,0x49,0x40,0x81,0x30,0x9d,0x4d,0x5b,
0x00,0x9d,0x42,0x50,0x00,0x9d,0x49,0x4e,0x00,0x9d,0x46,0x50,0x83,0x54,0x8d,0x42,
0x40,0x0c,0x8d,0x4d,0x40,0x10,0x8d,0x46,0x40,0x04,0x8d,0x49,0x40,0x81,0x08,0x9d,
0x44,0x49,0x04,0x9d,0x4b,0x49,0x04,0x9d,0x48,0x52,0x04,0x9d,0x46,0x4e,0x85,0x0c,
0x8d,0x48,0x40,0x04,0x8d,0x44,0x40,0x10,0x8d,0x46,0x40,0x28,0x8d,0x4b,0x40,0x81,
0x38,0x9d,0x44,0x4e,0x00,0x9d,0x4b,0x50,0x08,0x9d,0x48,0x5f,0x82,0x20,0x8d,0x44,
0x40,0x40,0x8d,0x4b,0x40,0x08,0x8d,0x48,0x40,0x2c,0x9d,0x44,0x4a,0x00,0x9d,0x49,
0x4a,0x04,0x9d,0x4d,0x55,0x81,0x0c,0x8d,0x44,0x40,0x10,0x8d,0x4d,0x40,0x08,0x8d,
0x49,0x40,0x60,0x9d,0x4d,0x58,0x04,0x9d,0x49,0x4a,0x04,0x9d,0x44,0x50,0x83,0x5c,
0x8d,0x44,0x40,0x10,0x8d,0x49,0x40,0x0c,0x8d,0x4d,0x40,0x82,0x2c,0x9d,0x49,0x49,
0x00,0x9d,0x4d,0x55,0x04,0x9d,0x42,0x4e,0x04,0x9d,0x46,0x4e,0x83,0x44,0x8d,0x49,
0x40,0x14,0x8d,0x4d,0x40,0x18,0x8d,0x42,0x40,0x04,0x8d,0x46,0x40,0x81,0x20,0x9d,
0x44,0x4a,0x00,0x9d,0x4b,0x52,0x08,0x9d,0x48,0x49,0x00,0x9d,0x46,0x4a,0x84,0x70,
0x8d,0x4b,0x40,0x08,0x8d,0x46,0x40,0x00,0x8d,0x48,0x40,0x10,0x8d,0x44,0x40,0x82,
0x04,0x9d,0x44,0x4a,0x00,0x9d,0x4b,0x4e,0x00,0x9d,0x41,0x4a,0x00,0x9d,0x48,0x52,
0x84,0x04,0x8d,0x48,0x40,0x10,0x8d,0x4b,0x40,0x14,0x8d,0x44,0x40,0x08,0x8d,0x41,
0x40,0x64,0x9d,0x41,0x50,0x00,0x9d,0x44,0x47,0x04,0x9d,0x49,0x4e,0x04,0x9d,0x46,
0x50,0x84,0x58,0x8d,0x41,0x40,0x10,0x8d,0x44,0x40,0x10,0x8d,0x46,0x40,0x08,0x8d,
0x49,0x40,0x81,0x64,0x9d,0x49,0x49,0x04,0x9d,0x46,0x50,0x04,0x9d,0x4d,0x5f,0x00,
0x9d,0x42,0x52,0x83,0x34,0x8d,0x42,0x40,0x00,0x8d,0x49,0x40,0x10,0x8d,0x46,0x40,
0x04,0x8d,0x4d,0x40,0x81,0x1c,0x9d,0x44,0x4e,0x08,0x9d,0x46,0x50,0x00,0x9d,0x48,
0x52,0x00,0x9d,0x4b,0x4e,0x84,0x58,0x8d,0x44,0x40,0x04,0x8d,0x48,0x40,0x1c,0x8d,
0x4b,0x40,0x0c,0x8d,0x46,0x40,0x81,0x70,0x9d,0x4d,0x5f,0x00,0x9d,0x49,0x52,0x04,
0x9d,0x44,0x52,0x81,0x18,0x8d,0x44,0x40,0x08,0x8d,0x49,0x40,0x00,0x8d,0x4d,0x40,
0x81,0x18,0x9d,0x4d,0x5b,0x04,0x9d,0x44,0x58,0x00,0x9d,0x49,0x50,0x82,0x38,0x8d,
0x4d,0x40,0x08,0x8d,0x44,0x40,0x04,0x8d,0x49,0x40,0x87,0x3c,0x9d,0x4d,0x52,0x00,
0x9d,0x42,0x47,0x00,0x9d,0x49,0x47,0x04,0x9d,0x46,0x50,0x8a,0x0c,0x8d,0x49,0x40,
0x10,0x8d,0x42,0x40,0x00,0x8d,0x4d,0x40,0x1c,0x8d,0x46,0x40,0x81,0x24,0x9d,0x4b,
0x49,0x00,0x9d,0x44,0x44,0x08,0x9d,0x46,0x4e,0x0c,0x9d,0x48,0x50,0x8a,0x30,0x8d,
0x48,0x40,0x00,0x8d,0x46,0x40,0x08,0x8d,0x44,0x40,0x10,0x8d,0x4b,0x40,0x81,0x44,
0x9d,0x49,0x49,0x00,0x9d,0x4d,0x55,0x00,0x9d,0x46,0x4e,0x00,0x9d,0x42,0x49,0x8a,
0x7c,0x8d,0x42,0x40,0x00,0x8d,0x46,0x40,0x00,0x8d,0x4d,0x40,0x08,0x8d,0x49,0x40,
0x8d,0x00,0x9d,0x4d,0x55,0x00,0x9d,0x42,0x47,0x08,0x9d,0x46,0x49,0x00,0x9d,0x49,
0x49,0x8a,0x38,0x8d,0x49,0x40,0x00,0x8d,0x42,0x40,0x00,0x8d,0x4d,0x40,0x10,0x8d,
0x46,0x40,0x81,0x34,0x9d,0x4b,0x4e,0x04,0x9d,0x44,0x3f,0x04,0x9d,0x48,0x4e,0x04,
0x9d,0x46,0x4e,0x8a,0x18,0x8d,0x48,0x40,0x08,0x8d,0x44,0x40,0x04,0x8d,0x46,0x40,
0x18,0x8d,0x4b,0x40,0x81,0x3c,0x9d,0x4d,0x4e,0x00,0x9d,0x42,0x49,0x00,0x9d,0x49,
0x4a,0x00,0x9d,0x46,0x4a,0x8a,0x70,0x8d,0x46,0x40,0x00,0x8d,0x4d,0x40,0x08,0x8d,
0x49,0x40,0x00,0x8d,0x42,0x40,0xbd,0x00,0x9d,0x4d,0x58,0x00,0x9d,0x49,0x4e,0x08,
0x9d,0x42,0x4e,0x00,0x9d,0x46,0x52,0x83,0x64,0x8d,0x49,0x40,0x00,0x8d,0x4d,0x40,
0x04,0x8d,0x42,0x40,0x81,0x18,0x9d,0x4b,0x4e,0x04,0x9d,0x44,0x49,0x08,0x9d,0x48,
0x52,0x85,0x00,0x8d,0x46,0x40,0x0c,0x8d,0x44,0x40,0x14,0x8d,0x4b,0x40,0x04,0x8d,
0x48,0x40,0x81,0x2c,0x9d,0x4b,0x50,0x04,0x9d,0x41,0x52,0x00,0x9d,0x44,0x50,0x04,
0x9d,0x48,0x58,0x83,0x7c,0x8d,0x48,0x40,0x30,0x8d,0x4b,0x40,0x0c,0x8d,0x44,0x40,
0x04,0x8d,0x41,0x40,0x5c,0x9d,0x44,0x3f,0x04,0x9d,0x49,0x52,0x04,0x9d,0x41,0x5f,
0x04,0x9d,0x46,0x58,0x84,0x3c,0x8d,0x41,0x40,0x38,0x8d,0x44,0x40,0x08,0x8d,0x46,
0x40,0x00,0x8d,0x49,0x40,0x81,0x50,0x9d,0x4d,0x5b,0x04,0x9d,0x42,0x54,0x04,0x9d,
0x46,0x55,0x00,0x9d,0x49,0x4e,0x83,0x40,0x8d,0x49,0x40,0x20,0x8d,0x42,0x40,0x08,
0x8d,0x4d,0x40,0x81,0x18,0x9d,0x4b,0x45,0x00,0x9d,0x44,0x4c,0x08,0x9d,0x48,0x4f,
0x84,0x54,0x8d,0x48,0x40,0x1c,0x8d,0x46,0x40,0x08,0x8d,0x44,0x40,0x48,0x8d,0x4b,
0x40,0x81,0x24,0x9d,0x4b,0x4f,0x00,0x9d,0x44,0x4f,0x00,0x9d,0x48,0x58,0x82,0x20,
0x8d,0x44,0x40,0x28,0x8d,0x48,0x40,0x08,0x8d,0x4b,0x40,0x4c,0x9d,0x4d,0x5b,0x04,
0x9d,0x44,0x4e,0x00,0x9d,0x49,0x4e,0x85,0x58,0x8d,0x49,0x40,0x04,0x8d,0x44,0x40,
0x1c,0x8d,0x4d,0x40,0x82,0x30,0x9d,0x4d,0x58,0x00,0x9d,0x49,0x49,0x00,0x9d,0x42,
0x49,0x0c,0x9d,0x46,0x50,0x83,0x2c,0x8d,0x42,0x40,0x00,0x8d,0x49,0x40,0x0c,0x8d,
0x4d,0x40,0x08,0x8d,0x46,0x40,0x81,0x38,0x9d,0x4b,0x4e,0x08,0x9d,0x44,0x49,0x04,
0x9d,0x48,0x52,0x04,0x9d,0x46,0x52,0x85,0x18,0x8d,0x46,0x40,0x24,0x8d,0x48,0x40,
0x00,0x8d,0x4b,0x40,0x0c,0x8d,0x44,0x40,0x81,0x60,0x9d,0x44,0x4e,0x00,0x9d,0x41,
0x4e,0x00,0x9d,0x4b,0x50,0x04,0x9d,0x48,0x58,0x84,0x00,0x8d,0x48,0x40,0x04,0x8d,
0x44,0x40,0x08,0x8d,0x4b,0x40,0x08,0x8d,0x41,0x40,0x81,0x00,0x9d,0x49,0x58,0x04,
0x9d,0x44,0x4e,0x08,0x9d,0x41,0x55,0x04,0x9d,0x46,0x50,0x84,0x58,0x8d,0x41,0x40,
0x24,0x8d,0x44,0x40,0x1c,0x8d,0x46,0x40,0x00,0x8d,0x49,0x40,0x81,0x58,0x9d,0x4d,
0x5f,0x00,0x9d,0x49,0x4a,0x00,0x9d,0x42,0x50,0x04,0x9d,0x46,0x50,0x83,0x34,0x8d,
0x49,0x40,0x0c,0x8d,0x42,0x40,0x18,0x8d,0x4d,0x40,0x44,0x8d,0x46,0x40,0x58,0x9d,
0x4b,0x50,0x04,0x9d,0x44,0x4e,0x08,0x9d,0x48,0x52,0x00,0x9d,0x46,0x49,0x84,0x50,
0x8d,0x48,0x40,0x08,0x8d,0x46,0x40,0x34,0x8d,0x44,0x40,0x24,0x8d,0x4b,0x40,0x81,
0x2c,0x9d,0x44,0x4e,0x04,0x9d,0x48,0x58,0x00,0x9d,0x4b,0x52,0x82,0x5c,0x8d,0x44,
0x40,0x18,0x8d,0x48,0x40,0x20,0x8d,0x4b,0x40,0x38,0x9d,0x44,0x4a,0x00,0x9d,0x4d,
0x5b,0x00,0x9d,0x49,0x52,0x85,0x20,0x8d,0x49,0x40,0x10,0x8d,0x4d,0x40,0x1c,0x8d,
0x44,0x40,0x83,0x24,0x9d,0x4d,0x55,0x00,0x9d,0x42,0x4a,0x04,0x9d,0x49,0x4a,0x00,
0x9d,0x46,0x50,0x89,0x64,0x8d,0x49,0x40,0x14,0x8d,0x42,0x40,0x04,0x8d,0x4d,0x40,
0x08,0x8d,0x46,0x40,0x81,0x38,0x9d,0x4b,0x4e,0x00,0x9d,0x44,0x49,0x0c,0x9d,0x46,
0x58,0x00,0x9d,0x48,0x52,0x8a,0x30,0x8d,0x48,0x40,0x14,0x8d,0x46,0x40,0x04,0x8d,
0x44,0x40,0x18,0x8d,0x4b,0x40,0x81,0x30,0x9d,0x4d,0x55,0x04,0x9d,0x42,0x4a,0x04,
0x9d,0x49,0x4a,0x00,0x9d,0x46,0x52,0x8a,0x48,0x8d,0x46,0x40,0x04,0x8d,0x42,0x40,
0x08,0x8d,0x49,0x40,0x08,0x8d,0x4d,0x40,0x8d,0x20,0x9d,0x42,0x43,0x00,0x9d,0x46,
0x49,0x00,0x9d,0x4d,0x55,0x00,0x9d,0x49,0x49,0x8a,0x50,0x8d,0x49,0x40,0x00,0x8d,
0x42,0x40,0x08,0x8d,0x4d,0x40,0x28,0x8d,0x46,0x40,0x81,0x0c,0x9d,0x4b,0x4e,0x08,
0x9d,0x44,0x47,0x08,0x9d,0x46,0x47,0x08,0x9d,0x48,0x4e,0x8a,0x1c,0x8d,0x48,0x40,
0x10,0x8d,0x46,0x40,0x0c,0x8d,0x44,0x40,0x14,0x8d,0x4b,0x40,0x81,0x44,0x9d,0x4d,
0x55,0x00,0x9d,0x49,0x47,0x0c,0x9d,0x42,0x47,0x08,0x9d,0x46,0x49,0x8a,0x54,0x8d,
0x46,0x40,0x00,0x8d,0x42,0x40,0x00,0x8d,0x49,0x40,0x00,0x8d,0x4d,0x40,0xbc,0x78,
0x9d,0x4d,0x58,0x00,0x9d,0x49,0x4e,0x08,0x9d,0x42,0x4e,0x00,0x9d,0x46,0x52,0x83,
0x64,0x8d,0x49,0x40,0x00,0x8d,0x4d,0x40,0x04,0x8d,0x42,0x40,0x81,0x18,0x9d,0x4b,
0x4e,0x04,0x9d,0x44,0x49,0x08,0x9d,0x48,0x52,0x85,0x00,0x8d,0x46,0x40,0x0c,0x8d,
0x44,0x40,0x14,0x8d,0x4b,0x40,0x04,0x8d,0x48,0x40,0x81,0x2c,0x9d,0x4b,0x50,0x04,
0x9d,0x41,0x52,0x00,0x9d,0x44,0x50,0x04,0x9d,0x48,0x58,0x83,0x7c,0x8d,0x48,0x40,
0x30,0x8d,0x4b,0x40,0x0c,0x8d,0x44,0x40,0x04,0x8d,0x41,0x40,0x5c,0x9d,0x44,0x3f,
0x04,0x9d,0x49,0x52,0x04,0x9d,0x41,0x5f,0x04,0x9d,0x46,0x58,0x84,0x3c,0x8d,0x41,
0x40,0x38,0x8d,0x44,0x40,0x08,0x8d,0x46,0x40,0x00,0x8d,0x49,0x40,0x81,0x50,0x9d,
0x4d,0x5b,0x04,0x9d,0x42,0x58,0x04,0x9d,0x46,0x52,0x00,0x9d,0x49,0x52,0x83,0x40,
0x8d,0x49,0x40,0x20,0x8d,0x42,0x40,0x08,0x8d,0x4d,0x40,0x81,0x18,0x9d,0x4b,0x4a,
0x00,0x9d,0x44,0x4e,0x08,0x9d,0x48,0x52,0x84,0x54,0x8d,0x48,0x40,0x1c,0x8d,0x46,
0x40,0x08,0x8d,0x44,0x40,0x48,0x8d,0x4b,0x40,0x81,0x24,0x9d,0x4b,0x4a,0x00,0x9d,
0x44,0x4e,0x00,0x9d,0x48,0x58,0x82,0x20,0x8d,0x44,0x40,0x28,0x8d,0x48,0x40,0x08,
0x8d,0x4b,0x40,0x4c,0x9d,0x4d,0x5b,0x04,0x9d,0x44,0x4e,0x00,0x9d,0x49,0x4e,0x85,
0x58,0x8d,0x49,0x40,0x04,0x8d,0x44,0x40,0x1c,0x8d,0x4d,0x40,0x82,0x30,0x9d,0x4d,
0x58,0x00,0x9d,0x49,0x49,0x00,0x9d,0x42,0x49,0x0c,0x9d,0x46,0x50,0x83,0x2c,0x8d,
0x42,0x40,0x00,0x8d,0x49,0x40,0x0c,0x8d,0x4d,0x40,0x08,0x8d,0x46,0x40,0x81,0x38,
0x9d,0x4b,0x4e,0x08,0x9d,0x44,0x49,0x04,0x9d,0x48,0x52,0x04,0x9d,0x46,0x52,0x85,
0x18,0x8d,0x46,0x40,0x24,0x8d,0x48,0x40,0x00,0x8d,0x4b,0x40,0x0c,0x8d,0x44,0x40,
0x81,0x60,0x9d,0x44,0x4e,0x00,0x9d,0x41,0x4e,0x00,0x9d,0x4b,0x50,0x04,0x9d,0x48,
0x58,0x84,0x00,0x8d,0x48,0x40,0x04,0x8d,0x44,0x40,0x08,0x8d,0x4b,0x40,0x08,0x8d,
0x41,0x40,0x81,0x00,0x9d,0x49,0x58,0x04,0x9d,0x44,0x4e,0x08,0x9d,0x41,0x55,0x04,
0x9d,0x46,0x50,0x84,0x58,0x8d,0x41,0x40,0x24,0x8d,0x44,0x40,0x1c,0x8d,0x46,0x40,
0x00,0x8d,0x49,0x40,0x81,0x58,0x9d,0x4d,0x5f,0x00,0x9d,0x49,0x4a,0x00,0x9d,0x42,
0x50,0x04,0x9d,0x46,0x50,0x83,0x34,0x8d,0x49,0x40,0x0c,0x8d,0x42,0x40,0x18,0x8d,
0x4d,0x40,0x44,0x8d,0x46,0x40,0x58,0x9d,0x4b,0x50,0x04,0x9d,0x44,0x4e,0x08,0x9d,
0x48,0x52,0x00,0x9d,0x46,0x49,0x84,0x50,0x8d,0x48,0x40,0x08,0x8d,0x46,0x40,0x34,
0x8d,0x44,0x40,0x24,0x8d,0x4b,0x40,0x81,0x2c,0x9d,0x44,0x4e,0x04,0x9d,0x48,0x58,
0x00,0x9d,0x4b,0x52,0x82,0x5c,0x8d,0x44,0x40,0x18,0x8d,0x48,0x40,0x20,0x8d,0x4b,
0x40,0x38,0x9d,0x44,0x4a,0x00,0x9d,0x4d,0x5b,0x00,0x9d,0x49,0x52,0x85,0x20,0x8d,
0x49,0x40,0x10,0x8d,0x4d,0x40,0x1c,0x8d,0x44,0x40,0x83,0x18,0x9d,0x4d,0x58,0x00,
0x9d,0x49,0x4e,0x08,0x9d,0x42,0x4e,0x00,0x9d,0x46,0x52,0x83,0x64,0x8d,0x49,0x40,
0x00,0x8d,0x4d,0x40,0x04,0x8d,0x42,0x40,0x81,0x18,0x9d,0x4b,0x4e,0x04,0x9d,0x44,
0x49,0x08,0x9d,0x48,0x52,0x85,0x00,0x8d,0x46,0x40,0x0c,0x8d,0x44,0x40,0x14,0x8d,
0x4b,0x40,0x04,0x8d,0x48,0x40,0x81,0x2c,0x9d,0x4b,0x50,0x04,0x9d,0x41,0x52,0x00,
0x9d,0x44,0x50,0x04,0x9d,0x48,0x58,0x83,0x7c,0x8d,0x48,0x40,0x30,0x8d,0x4b,0x40,
0x0c,0x8d,0x44,0x40,0x04,0x8d,0x41,0x40,0x5c,0x9d,0x44,0x3f,0x04,0x9d,0x49,0x52,
0x04,0x9d,0x41,0x5f,0x04,0x9d,0x46,0x58,0x84,0x3c,0x8d,0x41,0x40,0x38,0x8d,0x44,
0x40,0x08,0x8d,0x46,0x40,0x00,0x8d,0x49,0x40,0x81,0x50,0x9d,0x4d,0x5b,0x04,0x9d,
0x42,0x58,0x04,0x9d,0x46,0x52,0x00,0x9d,0x49,0x52,0x83,0x40,0x8d,0x49,0x40,0x20,
0x8d,0x42,0x40,0x08,0x8d,0x4d,0x40,0x81,0x18,0x9d,0x4b,0x4a,0x00,0x9d,0x44,0x4e,
0x08,0x9d,0x48,0x52,0x84,0x54,0x8d,0x48,0x40,0x1c,0x8d,0x46,0x40,0x08,0x8d,0x44,
0x40,0x48,0x8d,0x4b,0x40,0x81,0x24,0x9d,0x4b,0x4a,0x00,0x9d,0x44,0x4e,0x00,0x9d,
0x48,0x58,0x82,0x20,0x8d,0x44,0x40,0x28,0x8d,0x48,0x40,0x08,0x8d,0x4b,0x40,0x4c,
0x9d,0x4d,0x5b,0x04,0x9d,0x44,0x4e,0x00,0x9d,0x49,0x4e,0x85,0x58,0x8d,0x49,0x40,
0x04,0x8d,0x44,0x40,0x1c,0x8d,0x4d,0x40,0x82,0x30,0x9d,0x4d,0x58,0x00,0x9d,0x49,
0x49,0x00,0x9d,0x42,0x49,0x0c,0x9d,0x46,0x50,0x83,0x2c,0x8d,0x42,0x40,0x00,0x8d,
0x49,0x40,0x0c,0x8d,0x4d,0x40,0x08,0x8d,0x46,0x40,0x81,0x38,0x9d,0x4b,0x4e,0x08,
0x9d,0x44,0x49,0x04,0x9d,0x48,0x52,0x04,0x9d,0x46,0x52,0x85,0x18,0x8d,0x46,0x40,
0x24,0x8d,0x48,0x40,0x00,0x8d,0x4b,0x40,0x0c,0x8d,0x44,0x40,0x81,0x60,0x9d,0x44,
0x4e,0x00,0x9d,0x41,0x4e,0x00,0x9d,0x4b,0x50,0x04,0x9d,0x48,0x58,0x84,0x00,0x8d,
0x48,0x40,0x04,0x8d,0x44,0x40,0x08,0x8d,0x4b,0x40,0x08,0x8d,0x41,0x40,0x81,0x00,
0x9d,0x49,0x58,0x04,0x9d,0x44,0x4e,0x08,0x9d,0x41,0x55,0x04,0x9d,0x46,0x50,0x84,
0x58,0x8d,0x41,0x40,0x24,0x8d,0x44,0x40,0x1c,0x8d,0x46,0x40,0x00,0x8d,0x49,0x40,
0x81,0x58,0x9d,0x4d,0x5f,0x00,0x9d,0x49,0x4a,0x00,0x9d,0x42,0x50,0x04,0x9d,0x46,
0x50,0x83,0x34,0x8d,0x49,0x40,0x0c,0x8d,0x42,0x40,0x18,0x8d,0x4d,0x40,0x44,0x8d,
0x46,0x40,0x58,0x9d,0x4b,0x50,0x04,0x9d,0x44,0x4e,0x08,0x9d,0x48,0x52,0x00,0x9d,
0x46,0x49,0x84,0x50,0x8d,0x48,0x40,0x08,0x8d,0x46,0x40,0x34,0x8d,0x44,0x40,0x24,
0x8d,0x4b,0x40,0x81,0x2c,0x9d,0x44,0x4e,0x04,0x9d,0x48,0x58,0x00,0x9d,0x4b,0x52,
0x82,0x5c,0x8d,0x44,0x40,0x18,0x8d,0x48,0x40,0x20,0x8d,0x4b,0x40,0x38,0x9d,0x44,
0x4a,0x00,0x9d,0x4d,0x5b,0x00,0x9d,0x49,0x52,0x85,0x20,0x8d,0x49,0x40,0x10,0x8d,
0x4d,0x40,0x1c,0x8d,0x44,0x40,0x81,0xf3,0x18,0x9d,0x4d,0x58,0x00,0x9d,0x49,0x4e,
0x08,0x9d,0x42,0x4e,0x00,0x9d,0x46,0x52,0x83,0x64,0x8d,0x49,0x40,0x00,0x8d,0x4d,
0x40,0x04,0x8d,0x42,0x40,0x81,0x18,0x9d,0x4b,0x4e,0x04,0x9d,0x44,0x49,0x08,0x9d,
0x48,0x52,0x85,0x00,0x8d,0x46,0x40,0x0c,0x8d,0x44,0x40,0x14,0x8d,0x4b,0x40,0x04,
0x8d,0x48,0x40,0x81,0x2c,0x9d,0x4b,0x50,0x04,0x9d,0x41,0x52,0x00,0x9d,0x44,0x50,
0x04,0x9d,0x48,0x58,0x83,0x7c,0x8d,0x48,0x40,0x30,0x8d,0x4b,0x40,0x0c,0x8d,0x44,
0x40,0x04,0x8d,0x41,0x40,0x5c,0x9d,0x44,0x3f,0x04,0x9d,0x49,0x52,0x04,0x9d,0x41,
0x5f,0x04,0x9d,0x46,0x58,0x84,0x3c,0x8d,0x41,0x40,0x38,0x8d,0x44,0x40,0x08,0x8d,
0x46,0x40,0x00,0x8d,0x49,0x40,0x81,0x50,0x9d,0x4d,0x5b,0x04,0x9d,0x42,0x58,0x04,
0x9d,0x46,0x52,0x00,0x9d,0x49,0x52,0x83,0x40,0x8d,0x49,0x40,0x20,0x8d,0x42,0x40,
0x08,0x8d,0x4d,0x40,0x81,0x18,0x9d,0x4b,0x4a,0x00,0x9d,0x44,0x4e,0x08,0x9d,0x48,
0x52,0x84,0x54,0x8d,0x48,0x40,0x1c,0x8d,0x46,0x40,0x08,0x8d,0x44,0x40,0x48,0x8d,
0x4b,0x40,0x81,0x24,0x9d,0x4b,0x4a,0x00,0x9d,0x44,0x4e,0x00,0x9d,0x48,0x58,0x82,
0x20,0x8d,0x44,0x40,0x28,0x8d,0x48,0x40,0x08,0x8d,0x4b,0x40,0x4c,0x9d,0x4d,0x5b,
0x04,0x9d,0x44,0x4e,0x00,0x9d,0x49,0x4e,0x85,0x58,0x8d,0x49,0x40,0x04,0x8d,0x44,
0x40,0x1c,0x8d,0x4d,0x40,0x82,0x30,0x9d,0x4d,0x58,0x00,0x9d,0x49,0x49,0x00,0x9d,
0x42,0x49,0x0c,0x9d,0x46,0x50,0x83,0x2c,0x8d,0x42,0x40,0x00,0x8d,0x49,0x40,0x0c,
0x8d,0x4d,0x40,0x08,0x8d,0x46,0x40,0x81,0x38,0x9d,0x4b,0x4e,0x08,0x9d,0x44,0x49,
0x04,0x9d,0x48,0x52,0x04,0x9d,0x46,0x52,0x85,0x18,0x8d,0x46,0x40,0x24,0x8d,0x48,
0x40,0x00,0x8d,0x4b,0x40,0x0c,0x8d,0x44,0x40,0x81,0x60,0x9d,0x44,0x4e,0x00,0x9d,
0x41,0x4e,0x00,0x9d,0x4b,0x50,0x04,0x9d,0x48,0x58,0x84,0x00,0x8d,0x48,0x40,0x04,
0x8d,0x44,0x40,0x08,0x8d,0x4b,0x40,0x08,0x8d,0x41,0x40,0x81,0x00,0x9d,0x49,0x58,
0x04,0x9d,0x44,0x4e,0x08,0x9d,0x41,0x55,0x04,0x9d,0x46,0x50,0x84,0x58,0x8d,0x41,
0x40,0x24,0x8d,0x44,0x40,0x1c,0x8d,0x46,0x40,0x00,0x8d,0x49,0x40,0x81,0x58,0x9d,
0x4d,0x5f,0x00,0x9d,0x49,0x4a,0x00,0x9d,0x42,0x50,0x04,0x9d,0x46,0x50,0x83,0x34,
0x8d,0x49,0x40,0x0c,0x8d,0x42,0x40,0x18,0x8d,0x4d,0x40,0x44,0x8d,0x46,0x40,0x58,
0x9d,0x4b,0x50,0x04,0x9d,0x44,0x4e,0x08,0x9d,0x48,0x52,0x00,0x9d,0x46,0x49,0x84,
0x50,0x8d,0x48,0x40,0x08,0x8d,0x46,0x40,0x34,0x8d,0x44,0x40,0x24,0x8d,0x4b,0x40,
0x81,0x2c,0x9d,0x44,0x4e,0x04,0x9d,0x48,0x58,0x00,0x9d,0x4b,0x52,0x82,0x5c,0x8d,
0x44,0x40,0x18,0x8d,0x48,0x40,0x20,0x8d,0x4b,0x40,0x38,0x9d,0x44,0x4a,0x00,0x9d,
0x4d,0x5b,0x00,0x9d,0x49,0x52,0x85,0x20,0x8d,0x49,0x40,0x10,0x8d,0x4d,0x40,0x1c,
0x8d,0x44,0x40,0x83,0x18,0x9d,0x4d,0x58,0x00,0x9d,0x49,0x4e,0x08,0x9d,0x42,0x4e,
0x00,0x9d,0x46,0x52,0x83,0x64,0x8d,0x49,0x40,0x00,0x8d,0x4d,0x40,0x04,0x8d,0x42,
0x40,0x81,0x18,0x9d,0x4b,0x4e,0x04,0x9d,0x44,0x49,0x08,0x9d,0x48,0x52,0x85,0x00,
0x8d,0x46,0x40,0x0c,0x8d,0x44,0x40,0x14,0x8d,0x4b,0x40,0x04,0x8d,0x48,0x40,0x81,
0x2c,0x9d,0x4b,0x50,0x04,0x9d,0x41,0x52,0x00,0x9d,0x44,0x50,0x04,0x9d,0x48,0x58,
0x83,0x7c,0x8d,0x48,0x40,0x30,0x8d,0x4b,0x40,0x0c,0x8d,0x44,0x40,0x04,0x8d,0x41,
0x40,0x5c,0x9d,0x44,0x3f,0x04,0x9d,0x49,0x52,0x04,0x9d,0x41,0x5f,0x04,0x9d,0x46,
0x58,0x84,0x3c,0x8d,0x41,0x40,0x38,0x8d,0x44,0x40,0x08,0x8d,0x46,0x40,0x00,0x8d,
0x49,0x40,0x81,0x50,0x9d,0x4d,0x5b,0x04,0x9d,0x42,0x58,0x04,0x9d,0x46,0x52,0x00,
0x9d,0x49,0x52,0x83,0x40,0x8d,0x49,0x40,0x20,0x8d,0x42,0x40,0x08,0x8d,0x4d,0x40,
0x81,0x18,0x9d,0x4b,0x4a,0x00,0x9d,0x44,0x4e,0x08,0x9d,0x48,0x52,0x84,0x54,0x8d,
0x48,0x40,0x1c,0x8d,0x46,0x40,0x08,0x8d,0x44,0x40,0x48,0x8d,0x4b,0x40,0x81,0x24,
0x9d,0x4b,0x4a,0x00,0x9d,0x44,0x4e,0x00,0x9d,0x48,0x58,0x82,0x20,0x8d,0x44,0x40,
0x28,0x8d,0x48,0x40,0x08,0x8d,0x4b,0x40,0x4c,0x9d,0x4d,0x5b,0x04,0x9d,0x44,0x4e,
0x00,0x9d,0x49,0x4e,0x85,0x58,0x8d,0x49,0x40,0x04,0x8d,0x44,0x40,0x1c,0x8d,0x4d,
0x40,0x82,0x30,0x9d,0x4d,0x58,0x00,0x9d,0x49,0x49,0x00,0x9d,0x42,0x49,0x0c,0x9d,
0x46,0x50,0x83,0x2c,0x8d,0x42,0x40,0x00,0x8d,0x49,0x40,0x0c,0x8d,0x4d,0x40,0x08,
0x8d,0x46,0x40,0x81,0x38,0x9d,0x4b,0x4e,0x08,0x9d,0x44,0x49,0x04,0x9d,0x48,0x52,
0x04,0x9d,0x46,0x52,0x85,0x18,0x8d,0x46,0x40,0x24,0x8d,0x48,0x40,0x00,0x8d,0x4b,
0x40,0x0c,0x8d,0x44,0x40,0x81,0x60,0x9d,0x44,0x4e,0x00,0x9d,0x41,0x4e,0x00,0x9d,
0x4b,0x50,0x04,0x9d,0x48,0x58,0x84,0x00,0x8d,0x48,0x40,0x04,0x8d,0x44,0x40,0x08,
0x8d,0x4b,0x40,0x08,0x8d,0x41,0x40,0x81,0x00,0x9d,0x49,0x58,0x04,0x9d,0x44,0x4e,
0x08,0x9d,0x41,0x55,0x04,0x9d,0x46,0x50,0x84,0x58,0x8d,0x41,0x40,0x24,0x8d,0x44,
0x40,0x1c,0x8d,0x46,0x40,0x00,0x8d,0x49,0x40,0x81,0x58,0x9d,0x4d,0x5f,0x00,0x9d,
0x49,0x4a,0x00,0x9d,0x42,0x50,0x04,0x9d,0x46,0x50,0x83,0x34,0x8d,0x49,0x40,0x0c,
0x8d,0x42,0x40,0x18,0x8d,0x4d,0x40,0x44,0x8d,0x46,0x40,0x58,0x9d,0x4b,0x50,0x04,
0x9d,0x44,0x4e,0x08,0x9d,0x48,0x52,0x00,0x9d,0x46,0x49,0x84,0x50,0x8d,0x48,0x40,
0x08,0x8d,0x46,0x40,0x34,0x8d,0x44,0x40,0x24,0x8d,0x4b,0x40,0x81,0x2c,0x9d,0x44,
0x4e,0x04,0x9d,0x48,0x58,0x00,0x9d,0x4b,0x52,0x82,0x5c,0x8d,0x44,0x40,0x18,0x8d,
0x48,0x40,0x20,0x8d,0x4b,0x40,0x38,0x9d,0x44,0x4a,0x00,0x9d,0x4d,0x5b,0x00,0x9d,
0x49,0x52,0x85,0x20,0x8d,0x49,0x40,0x10,0x8d,0x4d,0x40,0x1c,0x8d,0x44,0x40,0x83,
0x18,0x9d,0x4d,0x58,0x00,0x9d,0x49,0x4e,0x08,0x9d,0x42,0x4e,0x00,0x9d,0x46,0x52,
0x83,0x64,0x8d,0x49,0x40,0x00,0x8d,0x4d,0x40,0x04,0x8d,0x42,0x40,0x81,0x18,0x9d,
0x4b,0x49,0x04,0x9d,0x44,0x44,0x08,0x9d,0x48,0x4d,0x85,0x00,0x8d,0x46,0x40,0x0c,
0x8d,0x44,0x40,0x14,0x8d,0x4b,0x40,0x04,0x8d,0x48,0x40,0x81,0x2c,0x9d,0x4b,0x44,
0x04,0x9d,0x41,0x46,0x00,0x9d,0x44,0x44,0x04,0x9d,0x48,0x4b,0x83,0x7c,0x8d,0x48,
0x40,0x30,0x8d,0x4b,0x40,0x0c,0x8d,0x44,0x40,0x04,0x8d,0x41,0x40,0x5c,0x9d,0x44,
0x32,0x04,0x9d,0x49,0x41,0x04,0x9d,0x41,0x4c,0x04,0x9d,0x46,0x46,0x84,0x3c,0x8d,
0x41,0x40,0x38,0x8d,0x44,0x40,0x08,0x8d,0x46,0x40,0x00,0x8d,0x49,0x40,0x81,0x50,
0x9d,0x4d,0x41,0x04,0x9d,0x42,0x3f,0x04,0x9d,0x46,0x3b,0x00,0x9d,0x49,0x3b,0x83,
0x40,0x8d,0x49,0x40,0x20,0x8d,0x42,0x40,0x08,0x8d,0x4d,0x40,0x81,0x18,0x9d,0x4b,
0x30,0x00,0x9d,0x44,0x33,0x08,0x9d,0x48,0x36,0x84,0x54,0x8d,0x48,0x40,0x1c,0x8d,
0x46,0x40,0x08,0x8d,0x44,0x40,0x48,0x8d,0x4b,0x40,0x81,0x24,0x9d,0x4b,0x2a,0x00,
0x9d,0x44,0x2d,0x00,0x9d,0x48,0x33,0x82,0x20,0x8d,0x44,0x40,0x28,0x8d,0x48,0x40,
0x08,0x8d,0x4b,0x40,0x4c,0x9d,0x4d,0x31,0x04,0x9d,0x44,0x2a,0x00,0x9d,0x49,0x2a,
0x85,0x58,0x8d,0x49,0x40,0x04,0x8d,0x44,0x40,0x1c,0x8d,0x4d,0x40,0x82,0x30,0x9d,
0x4d,0x26,0x00,0x9d,0x49,0x20,0x00,0x9d,0x42,0x20,0x0c,0x9d,0x46,0x23,0x83,0x2c,
0x8d,0x42,0x40,0x00,0x8d,0x49,0x40,0x0c,0x8d,0x4d,0x40,0x08,0x8d,0x46,0x40,0x81,
0x38,0x9d,0x4b,0x1d,0x08,0x9d,0x44,0x1b,0x04,0x9d,0x48,0x1f,0x04,0x9d,0x46,0x1f,
0x85,0x18,0x8d,0x46,0x40,0x24,0x8d,0x48,0x40,0x00,0x8d,0x4b,0x40,0x0c,0x8d,0x44,
0x40,0x81,0x60,0x9d,0x44,0x16,0x00,0x9d,0x41,0x16,0x00,0x9d,0x4b,0x17,0x04,0x9d,
0x48,0x19,0x84,0x00,0x8d,0x48,0x40,0x04,0x8d,0x44,0x40,0x08,0x8d,0x4b,0x40,0x08,
0x8d,0x41,0x40,0x81,0x00,0x9d,0x49,0x14,0x04,0x9d,0x44,0x11,0x08,0x9d,0x41,0x13,
0x04,0x9d,0x46,0x12,0x84,0x58,0x8d,0x41,0x40,0x24,0x8d,0x44,0x40,0x1c,0x8d,0x46,
0x40,0x00,0x8d,0x49,0x40,0x81,0x58,0x9d,0x4d,0x0e,0x00,0x9d,0x49,0x0b,0x00,0x9d,
0x42,0x0c,0x04,0x9d,0x46,0x0c,0x83,0x34,0x8d,0x49,0x40,0x0c,0x8d,0x42,0x40,0x18,
0x8d,0x4d,0x40,0x44,0x8d,0x46,0x40,0x58,0x9d,0x4b,0x07,0x04,0x9d,0x44,0x07,0x08,
0x9d,0x48,0x07,0x00,0x9d,0x46,0x06,0x84,0x50,0x8d,0x48,0x40,0x08,0x8d,0x46,0x40,
0x34,0x8d,0x44,0x40,0x24,0x8d,0x4b,0x40,0x8c,0x50,0xff,0x2f,0x00,0x4d,0x54,0x72,
0x6b,0x00,0x00,0x02,0x53,0x00,0xff,0x03,0x09,0x4d,0x55,0x54,0x45,0x44,0x20,0x47,
0x54,0x52,0x91,0x20,0xce,0x1c,0x04,0xbe,0x07,0x57,0x00,0xbe,0x0a,0x17,0x00,0xbe,
0x0b,0x7f,0x04,0xbe,0x5b,0x50,0x00,0xbe,0x5d,0x00,0x85,0xba,0x18,0x9e,0x29,0x5e,
0x04,0xbe,0x01,0x00,0x00,0xee,0x00,0x40,0x20,0x8e,0x29,0x40,0x38,0x9e,0x29,0x5e,
0x30,0x8e,0x29,0x40,0x30,0x9e,0x29,0x47,0x44,0x8e,0x29,0x40,0x1c,0x9e,0x2e,0x6b,
0x50,0x8e,0x2e,0x40,0x81,0x04,0x9e,0x2e,0x66,0x50,0x8e,0x2e,0x40,0x87,0x3c,0x9e,
0x2e,0x5c,0x30,0x8e,0x2e,0x40,0x38,0x9e,0x2e,0x5c,0x28,0x8e,0x2e,0x40,0x30,0x9e,
0x2e,0x49,0x44,0x8e,0x2e,0x40,0x24,0x9e,0x33,0x68,0x50,0x8e,0x33,0x40,0x81,0x04,
0x9e,0x33,0x63,0x44,0x8e,0x33,0x40,0x87,0x44,0x9e,0x29,0x5e,0x24,0x8e,0x29,0x40,
0x38,0x9e,0x29,0x5e,0x30,0x8e,0x29,0x40,0x30,0x9e,0x29,0x47,0x44,0x8e,0x29,0x40,
0x1c,0x9e,0x2e,0x6b,0x50,0x8e,0x2e,0x40,0x81,0x04,0x9e,0x2e,0x66,0x50,0x8e,0x2e,
0x40,0x87,0x3c,0x9e,0x2e,0x5c,0x30,0x8e,0x2e,0x40,0x38,0x9e,0x2e,0x5c,0x28,0x8e,
0x2e,0x40,0x30,0x9e,0x2e,0x49,0x44,0x8e,0x2e,0x40,0x24,0x9e,0x33,0x68,0x50,0x8e,
0x33,0x40,0x81,0x04,0x9e,0x33,0x63,0x44,0x8e,0x33,0x40,0x87,0x44,0x9e,0x29,0x5e,
0x24,0x8e,0x29,0x40,0x38,0x9e,0x29,0x5e,0x30,0x8e,0x29,0x40,0x30,0x9e,0x29,0x47,
0x44,0x8e,0x29,0x40,0x1c,0x9e,0x2e,0x6b,0x50,0x8e,0x2e,0x40,0x81,0x04,0x9e,0x2e,
0x66,0x50,0x8e,0x2e,0x40,0x87,0x3c,0x9e,0x2e,0x5c,0x30,0x8e,0x2e,0x40,0x38,0x9e,
0x2e,0x5c,0x28,0x8e,0x2e,0x40,0x30,0x9e,0x2e,0x49,0x44,0x8e,0x2e,0x40,0x24,0x9e,
0x33,0x68,0x50,0x8e,0x33,0x40,0x81,0x04,0x9e,0x33,0x63,0x44,0x8e,0x33,0x40,0x87,
0x44,0x9e,0x29,0x5e,0x24,0x8e,0x29,0x40,0x38,0x9e,0x29,0x5e,0x30,0x8e,0x29,0x40,
0x30,0x9e,0x29,0x47,0x44,0x8e,0x29,0x40,0x1c,0x9e,0x2e,0x6b,0x50,0x8e,0x2e,0x40,
0x81,0x04,0x9e,0x2e,0x66,0x50,0x8e,0x2e,0x40,0x87,0x3c,0x9e,0x2e,0x5c,0x30,0x8e,
0x2e,0x40,0x38,0x9e,0x2e,0x5c,0x28,0x8e,0x2e,0x40,0x30,0x9e,0x2e,0x49,0x44,0x8e,
0x2e,0x40,0x24,0x9e,0x33,0x68,0x50,0x8e,0x33,0x40,0xe1,0x50,0x9e,0x38,0x60,0x3c,
0x8e,0x38,0x40,0x81,0x04,0x9e,0x38,0x6e,0x50,0x8e,0x38,0x40,0x81,0x50,0x9e,0x38,
0x64,0x3c,0x8e,0x38,0x40,0x81,0x04,0x9e,0x38,0x6e,0x44,0x8e,0x38,0x40,0x81,0x54,
0x9e,0x38,0x64,0x38,0x8e,0x38,0x40,0x81,0x68,0x9e,0x38,0x64,0x3c,0x8e,0x38,0x40,
0x81,0x04,0x9e,0x38,0x64,0x40,0x8e,0x38,0x40,0x81,0x60,0x9e,0x38,0x64,0x40,0x8e,
0x38,0x40,0x81,0x60,0x9e,0x38,0x64,0x38,0x8e,0x38,0x40,0x81,0x10,0x9e,0x38,0x64,
0x44,0x8e,0x38,0x40,0x81,0x5c,0x9e,0x38,0x64,0x40,0x8e,0x38,0x40,0x81,0x60,0x9e,
0x38,0x60,0x3c,0x8e,0x38,0x40,0x81,0x08,0x9e,0x38,0x64,0x48,0x8e,0x38,0x40,0x81,
0x54,0x9e,0x38,0x64,0x3c,0x8e,0x38,0x40,0x81,0x64,0x9e,0x38,0x64,0x38,0x8e,0x38,
0x40,0x81,0x0c,0x9e,0x38,0x64,0x44,0x8e,0x38,0x40,0x81,0x58,0x9e,0x38,0x60,0x3c,
0x8e,0x38,0x40,0x81,0x68,0x9e,0x38,0x64,0x38,0x8e,0x38,0x40,0x81,0x08,0x9e,0x38,
0x5d,0x44,0x8e,0x38,0x40,0x81,0x58,0x9e,0x38,0x64,0x40,0x8e,0x38,0x40,0x81,0x64,
0x9e,0x38,0x64,0x38,0x8e,0x38,0x40,0x81,0x08,0x9e,0x38,0x64,0x44,0x8e,0x38,0x40,
0x81,0x58,0x9e,0x38,0x6e,0x44,0x8e,0x38,0x40,0x81,0x5c,0x9e,0x38,0x6e,0x34,0x8e,
0x38,0x40,0x82,0xa1,0x68,0xff,0x2f,0x00,0x4d,0x54,0x72,0x6b,0x00,0x00,0x00,0x1e,
0x00,0xff,0x03,0x08,0x47,0x53,0x2f,0x52,0x45,0x53,0x45,0x54,0x00,0xf0,0x0a,0x41,
0x10,0x42,0x12,0x40,0x00,0x7f,0x00,0x41,0xf7,0xb0,0x00,0xff,0x2f,0x00,
};
