#include <stdint.h>
const uint8_t shoot[] = {
0x4d,0x54,0x68,0x64,0x00,0x00,0x00,0x06,0x00,0x00,0x00,0x01,0x00,0x0a,0x4d,0x54,
0x72,0x6b,0x00,0x00,0x00,0xde,0x00,0xff,0x51,0x03,0x07,0xa1,0x20,0x00,0xc0,0x00,
0x00,0x90,0x3a,0x1f,0x00,0x90,0x3b,0x22,0x00,0x90,0x3c,0x24,0x00,0x90,0x40,0x28,
0x00,0x90,0x41,0x27,0x00,0x90,0x43,0x2d,0x00,0x90,0x44,0x32,0x00,0x90,0x46,0x34,
0x00,0x90,0x47,0x35,0x00,0x90,0x4a,0x35,0x00,0x90,0x4c,0x33,0x00,0x90,0x4d,0x2c,
0x00,0x90,0x4e,0x31,0x00,0x90,0x51,0x2d,0x00,0x90,0x54,0x31,0x00,0x90,0x55,0x32,
0x00,0x90,0x57,0x32,0x00,0x90,0x58,0x34,0x00,0x90,0x59,0x36,0x00,0x90,0x5a,0x36,
0x00,0x90,0x5b,0x36,0x00,0x90,0x5c,0x38,0x00,0x90,0x5d,0x39,0x00,0x90,0x5e,0x2f,
0x02,0x80,0x3a,0x40,0x00,0x80,0x3b,0x40,0x00,0x80,0x3c,0x40,0x00,0x80,0x40,0x40,
0x00,0x80,0x41,0x40,0x00,0x80,0x43,0x40,0x00,0x80,0x44,0x40,0x00,0x80,0x47,0x40,
0x00,0x90,0x49,0x22,0x00,0x90,0x4b,0x23,0x02,0x80,0x46,0x40,0x00,0x80,0x49,0x40,
0x00,0x80,0x4a,0x40,0x00,0x80,0x4b,0x40,0x00,0x80,0x4c,0x40,0x00,0x80,0x4d,0x40,
0x00,0x80,0x4e,0x40,0x00,0x80,0x51,0x40,0x00,0x80,0x54,0x40,0x00,0x80,0x55,0x40,
0x00,0x80,0x57,0x40,0x00,0x80,0x58,0x40,0x00,0x80,0x59,0x40,0x00,0x80,0x5a,0x40,
0x00,0x80,0x5b,0x40,0x00,0x80,0x5c,0x40,0x00,0x80,0x5d,0x40,0x00,0x80,0x5e,0x40,
0x00,0xff,0x2f,0x00,
};
