#include <stdint.h>
const uint8_t SWmidifile[] = {
0x4d,0x54,0x68,0x64,0x00,0x00,0x00,0x06,0x00,0x01,0x00,0x20,0x00,0xc0,0x4d,0x54,
0x72,0x6b,0x00,0x00,0x00,0x13,0x00,0xff,0x58,0x04,0x04,0x02,0x18,0x08,0x00,0xff,
0x51,0x03,0x08,0xa3,0x15,0x00,0xff,0x2f,0x00,0x4d,0x54,0x72,0x6b,0x00,0x00,0x00,
0x21,0x00,0xff,0x21,0x01,0x00,0x00,0xff,0x03,0x14,0x20,0x20,0x20,0x20,0x20,0x53,
0x74,0x61,0x72,0x20,0x57,0x61,0x72,0x73,0x20,0x20,0x20,0x20,0x20,0x20,0x00,0xff,
0x2f,0x00,0x4d,0x54,0x72,0x6b,0x00,0x00,0x00,0x21,0x00,0xff,0x21,0x01,0x00,0x00,
0xff,0x03,0x14,0x20,0x20,0x20,0x20,0x45,0x70,0x69,0x73,0x6f,0x64,0x65,0x20,0x20,
0x56,0x49,0x20,0x20,0x20,0x20,0x20,0x00,0xff,0x2f,0x00,0x4d,0x54,0x72,0x6b,0x00,
0x00,0x00,0x21,0x00,0xff,0x21,0x01,0x00,0x00,0xff,0x03,0x14,0x20,0x52,0x65,0x74,
0x75,0x72,0x6e,0x20,0x6f,0x66,0x20,0x74,0x68,0x65,0x20,0x4a,0x65,0x64,0x69,0x20,
0x00,0xff,0x2f,0x00,0x4d,0x54,0x72,0x6b,0x00,0x00,0x00,0x21,0x00,0xff,0x21,0x01,
0x00,0x00,0xff,0x03,0x14,0x20,0x20,0x20,0x20,0x20,0x20,0x20,0x20,0x20,0x20,0x20,
0x20,0x20,0x20,0x20,0x20,0x20,0x20,0x20,0x20,0x00,0xff,0x2f,0x00,0x4d,0x54,0x72,
0x6b,0x00,0x00,0x00,0x21,0x00,0xff,0x21,0x01,0x00,0x00,0xff,0x03,0x14,0x20,0x20,
0x20,0x20,0x22,0x4d,0x61,0x69,0x6e,0x20,0x54,0x69,0x74,0x6c,0x65,0x22,0x20,0x20,
0x20,0x20,0x00,0xff,0x2f,0x00,0x4d,0x54,0x72,0x6b,0x00,0x00,0x00,0x21,0x00,0xff,
0x21,0x01,0x00,0x00,0xff,0x03,0x14,0x20,0x20,0x20,0x20,0x20,0x20,0x20,0x20,0x20,
0x20,0x20,0x20,0x20,0x20,0x20,0x20,0x20,0x20,0x20,0x20,0x00,0xff,0x2f,0x00,0x4d,
0x54,0x72,0x6b,0x00,0x00,0x00,0x21,0x00,0xff,0x21,0x01,0x00,0x00,0xff,0x03,0x14,
0x43,0x6f,0x6d,0x70,0x6f,0x73,0x65,0x64,0x20,0x62,0x79,0x3a,0x20,0x20,0x20,0x20,
0x20,0x20,0x20,0x20,0x00,0xff,0x2f,0x00,0x4d,0x54,0x72,0x6b,0x00,0x00,0x00,0x21,
0x00,0xff,0x21,0x01,0x00,0x00,0xff,0x03,0x14,0x20,0x20,0x20,0x4a,0x6f,0x68,0x6e,
0x20,0x57,0x69,0x6c,0x6c,0x69,0x61,0x6d,0x73,0x20,0x20,0x20,0x20,0x00,0xff,0x2f,
0x00,0x4d,0x54,0x72,0x6b,0x00,0x00,0x00,0x21,0x00,0xff,0x21,0x01,0x00,0x00,0xff,
0x03,0x14,0x53,0x65,0x71,0x75,0x65,0x6e,0x63,0x65,0x64,0x20,0x62,0x79,0x3a,0x20,
0x20,0x20,0x20,0x20,0x20,0x20,0x00,0xff,0x2f,0x00,0x4d,0x54,0x72,0x6b,0x00,0x00,
0x00,0x21,0x00,0xff,0x21,0x01,0x00,0x00,0xff,0x03,0x14,0x20,0x20,0x20,0x20,0x50,
0x65,0x74,0x65,0x72,0x20,0x4d,0x6f,0x6f,0x72,0x65,0x20,0x20,0x20,0x20,0x20,0x00,
0xff,0x2f,0x00,0x4d,0x54,0x72,0x6b,0x00,0x00,0x00,0x21,0x00,0xff,0x21,0x01,0x00,
0x00,0xff,0x03,0x14,0x20,0x20,0x20,0x20,0x20,0x20,0x20,0x20,0x20,0x20,0x20,0x20,
0x20,0x20,0x20,0x20,0x20,0x20,0x20,0x20,0x00,0xff,0x2f,0x00,0x4d,0x54,0x72,0x6b,
0x00,0x00,0x00,0x21,0x00,0xff,0x21,0x01,0x00,0x00,0xff,0x03,0x14,0x45,0x2d,0x4d,
0x61,0x69,0x6c,0x20,0x43,0x6f,0x6d,0x6d,0x65,0x6e,0x74,0x73,0x20,0x74,0x6f,0x3a,
0x20,0x00,0xff,0x2f,0x00,0x4d,0x54,0x72,0x6b,0x00,0x00,0x00,0x21,0x00,0xff,0x21,
0x01,0x00,0x00,0xff,0x03,0x14,0x70,0x6d,0x6f,0x6f,0x72,0x65,0x39,0x30,0x36,0x40,
0x61,0x6f,0x6c,0x2e,0x63,0x6f,0x6d,0x20,0x20,0x20,0x00,0xff,0x2f,0x00,0x4d,0x54,
0x72,0x6b,0x00,0x00,0x00,0x21,0x00,0xff,0x21,0x01,0x00,0x00,0xff,0x03,0x14,0x20,
0x20,0x20,0x20,0x20,0x20,0x20,0x20,0x20,0x20,0x20,0x20,0x20,0x20,0x20,0x20,0x20,
0x20,0x20,0x20,0x00,0xff,0x2f,0x00,0x4d,0x54,0x72,0x6b,0x00,0x00,0x07,0xb5,0x00,
0xff,0x21,0x01,0x00,0x00,0xff,0x03,0x14,0x46,0x6c,0x75,0x74,0x65,0x20,0x20,0x20,
0x20,0x20,0x20,0x20,0x20,0x20,0x20,0x20,0x20,0x20,0x20,0x20,0x00,0xca,0x49,0x86,
0x00,0xba,0x07,0x40,0x00,0x0b,0x7f,0x00,0x5b,0x7f,0x00,0x5d,0x00,0x00,0x0a,0x40,
0x00,0x00,0x00,0x00,0x20,0x00,0x00,0x01,0x00,0xbc,0x00,0x9a,0x50,0x7f,0x40,0x8a,
0x50,0x40,0x00,0x9a,0x4f,0x7f,0x40,0x8a,0x4f,0x40,0x00,0x9a,0x50,0x7f,0x40,0x8a,
0x50,0x40,0x00,0x9a,0x48,0x7f,0x20,0x8a,0x48,0x40,0x00,0x9a,0x47,0x7f,0x20,0x8a,
0x47,0x40,0x00,0x9a,0x48,0x7f,0x20,0x8a,0x48,0x40,0x00,0x9a,0x4a,0x7f,0x20,0x8a,
0x4a,0x40,0x00,0x9a,0x4b,0x7f,0x20,0x8a,0x4b,0x40,0x00,0x9a,0x4d,0x7f,0x20,0x8a,
0x4d,0x40,0x00,0x9a,0x4f,0x7f,0x20,0x8a,0x4f,0x40,0x00,0x9a,0x50,0x7f,0x20,0x8a,
0x50,0x40,0x00,0x9a,0x52,0x7f,0x20,0x8a,0x52,0x40,0x00,0x9a,0x54,0x7f,0x20,0x8a,
0x54,0x40,0x00,0x9a,0x56,0x7f,0x20,0x8a,0x56,0x40,0x00,0x9a,0x57,0x7f,0x20,0x8a,
0x57,0x40,0x00,0x9a,0x59,0x7f,0x81,0x40,0x8a,0x59,0x40,0x00,0x9a,0x4b,0x7f,0x40,
0x8a,0x4b,0x40,0x00,0x9a,0x46,0x7f,0x40,0x8a,0x46,0x40,0x00,0x9a,0x41,0x7f,0x40,
0x8a,0x41,0x40,0x00,0x9a,0x43,0x7f,0x40,0x8a,0x43,0x40,0x00,0x9a,0x48,0x7f,0x40,
0x8a,0x48,0x40,0x00,0x9a,0x4d,0x7f,0x40,0x8a,0x4d,0x40,0x00,0x9a,0x4f,0x7f,0x40,
0x8a,0x4f,0x40,0x00,0x9a,0x4b,0x7f,0x40,0x8a,0x4b,0x40,0x00,0x9a,0x46,0x7f,0x40,
0x8a,0x46,0x40,0x00,0x9a,0x45,0x7f,0x40,0x8a,0x45,0x40,0x00,0x9a,0x46,0x7f,0x40,
0x8a,0x46,0x40,0x00,0x9a,0x4d,0x7f,0x40,0x8a,0x4d,0x40,0x00,0x9a,0x52,0x7f,0x40,
0x8a,0x52,0x40,0x00,0x9a,0x4d,0x7f,0x40,0x8a,0x4d,0x40,0x00,0x9a,0x48,0x7f,0x40,
0x8a,0x48,0x40,0x00,0x9a,0x4d,0x7f,0x40,0x8a,0x4d,0x40,0x00,0x9a,0x52,0x7f,0x40,
0x8a,0x52,0x40,0x00,0x9a,0x57,0x7f,0x40,0x8a,0x57,0x40,0x00,0x9a,0x54,0x7f,0x40,
0x8a,0x54,0x40,0x00,0x9a,0x4d,0x7f,0x40,0x8a,0x4d,0x40,0x00,0x9a,0x48,0x7f,0x40,
0x8a,0x48,0x40,0x00,0x9a,0x4d,0x7f,0x40,0x8a,0x4d,0x40,0x00,0x9a,0x54,0x7f,0x40,
0x8a,0x54,0x40,0x00,0x9a,0x59,0x7f,0x40,0x8a,0x59,0x40,0x00,0x9a,0x4b,0x7f,0x40,
0x8a,0x4b,0x40,0x00,0x9a,0x46,0x7f,0x40,0x8a,0x46,0x40,0x00,0x9a,0x41,0x7f,0x40,
0x8a,0x41,0x40,0x00,0x9a,0x3c,0x7f,0x40,0x8a,0x3c,0x40,0x00,0x9a,0x41,0x7f,0x40,
0x8a,0x41,0x40,0x00,0x9a,0x46,0x7f,0x40,0x8a,0x46,0x40,0x00,0x9a,0x4b,0x7f,0x40,
0x8a,0x4b,0x40,0x00,0x9a,0x46,0x7f,0x40,0x8a,0x46,0x40,0x00,0x9a,0x43,0x7f,0x40,
0x8a,0x43,0x40,0x00,0x9a,0x3f,0x7f,0x40,0x8a,0x3f,0x40,0x00,0x9a,0x43,0x7f,0x40,
0x8a,0x43,0x40,0x00,0x9a,0x46,0x7f,0x40,0x8a,0x46,0x40,0x00,0x9a,0x4d,0x7f,0x40,
0x8a,0x4d,0x40,0x00,0x9a,0x48,0x7f,0x40,0x8a,0x48,0x40,0x00,0x9a,0x41,0x7f,0x40,
0x8a,0x41,0x40,0x00,0x9a,0x48,0x7f,0x40,0x8a,0x48,0x40,0x00,0x9a,0x4d,0x7f,0x40,
0x8a,0x4d,0x40,0x00,0x9a,0x54,0x7f,0x40,0x8a,0x54,0x40,0x00,0x9a,0x57,0x7f,0x40,
0x8a,0x57,0x40,0x00,0x9a,0x52,0x7f,0x40,0x8a,0x52,0x40,0x00,0x9a,0x4b,0x7f,0x40,
0x8a,0x4b,0x40,0x00,0x9a,0x48,0x7f,0x40,0x8a,0x48,0x40,0x00,0x9a,0x4d,0x7f,0x40,
0x8a,0x4d,0x40,0x00,0x9a,0x54,0x7f,0x40,0x8a,0x54,0x40,0x60,0x9a,0x4b,0x7f,0x20,
0x8a,0x4b,0x40,0x00,0x9a,0x4d,0x7f,0x20,0x8a,0x4d,0x40,0x00,0x9a,0x4f,0x7f,0x20,
0x8a,0x4f,0x40,0x00,0x9a,0x51,0x7f,0x30,0x8a,0x51,0x40,0x00,0x9a,0x52,0x7f,0x30,
0x8a,0x52,0x40,0x00,0x9a,0x54,0x7f,0x30,0x8a,0x54,0x40,0x00,0x9a,0x56,0x7f,0x30,
0x8a,0x56,0x40,0x00,0x9a,0x57,0x7f,0x83,0x00,0x8a,0x57,0x40,0x00,0x9a,0x52,0x7f,
0x40,0x8a,0x52,0x40,0x00,0x9a,0x54,0x7f,0x40,0x8a,0x54,0x40,0x00,0x9a,0x56,0x7f,
0x40,0x8a,0x56,0x40,0x00,0x9a,0x54,0x7f,0x81,0x00,0x8a,0x54,0x40,0x00,0x9a,0x4f,
0x7f,0x40,0x8a,0x4f,0x40,0x00,0x9a,0x51,0x7f,0x81,0x40,0x8a,0x51,0x40,0x00,0x9a,
0x4d,0x7f,0x81,0x00,0x8a,0x4d,0x40,0x00,0x9a,0x4d,0x7f,0x40,0x8a,0x4d,0x40,0x00,
0x9a,0x5e,0x7f,0x81,0x00,0x8a,0x5e,0x40,0x00,0x9a,0x5c,0x7f,0x40,0x8a,0x5c,0x40,
0x00,0x9a,0x5a,0x7f,0x81,0x00,0x8a,0x5a,0x40,0x00,0x9a,0x59,0x7f,0x40,0x8a,0x59,
0x40,0x00,0x9a,0x57,0x7f,0x81,0x00,0x8a,0x57,0x40,0x00,0x9a,0x55,0x7f,0x40,0x8a,
0x55,0x40,0x00,0x9a,0x54,0x7f,0x81,0x00,0x8a,0x54,0x40,0x00,0x9a,0x52,0x7f,0x40,
0x8a,0x52,0x40,0x00,0x9a,0x4d,0x7f,0x18,0x4f,0x7f,0x08,0x8a,0x4d,0x40,0x10,0x9a,
0x4d,0x7f,0x08,0x8a,0x4f,0x40,0x10,0x9a,0x4f,0x7f,0x08,0x8a,0x4d,0x40,0x10,0x9a,
0x4d,0x7f,0x08,0x8a,0x4f,0x40,0x10,0x9a,0x4f,0x7f,0x08,0x8a,0x4d,0x40,0x10,0x9a,
0x4d,0x7f,0x08,0x8a,0x4f,0x40,0x10,0x9a,0x4f,0x7f,0x08,0x8a,0x4d,0x40,0x10,0x9a,
0x4d,0x7f,0x08,0x8a,0x4f,0x40,0x10,0x9a,0x4f,0x7f,0x08,0x8a,0x4d,0x40,0x10,0x9a,
0x4d,0x7f,0x08,0x8a,0x4f,0x40,0x10,0x9a,0x4f,0x7f,0x08,0x8a,0x4d,0x40,0x10,0x9a,
0x4d,0x7f,0x08,0x8a,0x4f,0x40,0x10,0x9a,0x4f,0x7f,0x08,0x8a,0x4d,0x40,0x10,0x9a,
0x4d,0x7f,0x08,0x8a,0x4f,0x40,0x10,0x9a,0x4f,0x7f,0x08,0x8a,0x4d,0x40,0x10,0x9a,
0x4d,0x7f,0x08,0x8a,0x4f,0x40,0x10,0x9a,0x4f,0x7f,0x08,0x8a,0x4d,0x40,0x10,0x9a,
0x4d,0x7f,0x08,0x8a,0x4f,0x40,0x10,0x9a,0x4f,0x7f,0x08,0x8a,0x4d,0x40,0x10,0x9a,
0x4d,0x7f,0x08,0x8a,0x4f,0x40,0x10,0x9a,0x4f,0x7f,0x08,0x8a,0x4d,0x40,0x10,0x9a,
0x4d,0x7f,0x08,0x8a,0x4f,0x40,0x10,0x9a,0x4f,0x7f,0x08,0x8a,0x4d,0x40,0x10,0x9a,
0x4d,0x7f,0x08,0x8a,0x4f,0x40,0x10,0x9a,0x4f,0x7f,0x08,0x8a,0x4d,0x40,0x10,0x9a,
0x4d,0x7f,0x08,0x8a,0x4f,0x40,0x10,0x9a,0x4f,0x7f,0x08,0x8a,0x4d,0x40,0x10,0x9a,
0x4d,0x7f,0x08,0x8a,0x4f,0x40,0x10,0x9a,0x4f,0x7f,0x08,0x8a,0x4d,0x40,0x10,0x9a,
0x4d,0x7f,0x08,0x8a,0x4f,0x40,0x10,0x9a,0x4f,0x7f,0x08,0x8a,0x4d,0x40,0x10,0x4f,
0x40,0x00,0x9a,0x4d,0x7f,0x18,0x4f,0x7f,0x08,0x8a,0x4d,0x40,0x10,0x9a,0x4d,0x7f,
0x08,0x8a,0x4f,0x40,0x10,0x9a,0x4f,0x7f,0x08,0x8a,0x4d,0x40,0x10,0x9a,0x4d,0x7f,
0x08,0x8a,0x4f,0x40,0x10,0x9a,0x4f,0x7f,0x08,0x8a,0x4d,0x40,0x10,0x9a,0x4d,0x7f,
0x08,0x8a,0x4f,0x40,0x10,0x9a,0x4f,0x7f,0x08,0x8a,0x4d,0x40,0x10,0x9a,0x48,0x7f,
0x08,0x8a,0x4f,0x40,0x18,0x48,0x40,0x00,0x9a,0x4a,0x7f,0x20,0x8a,0x4a,0x40,0x00,
0x9a,0x4b,0x7f,0x20,0x8a,0x4b,0x40,0x00,0x9a,0x4d,0x7f,0x18,0x4f,0x7f,0x08,0x8a,
0x4d,0x40,0x10,0x9a,0x51,0x7f,0x08,0x8a,0x4f,0x40,0x10,0x9a,0x52,0x7f,0x08,0x8a,
0x51,0x40,0x10,0x9a,0x54,0x7f,0x08,0x8a,0x52,0x40,0x10,0x9a,0x52,0x7f,0x08,0x8a,
0x54,0x40,0x10,0x9a,0x51,0x7f,0x08,0x8a,0x52,0x40,0x10,0x9a,0x4f,0x7f,0x08,0x8a,
0x51,0x40,0x10,0x9a,0x4d,0x7f,0x08,0x8a,0x4f,0x40,0x10,0x9a,0x4f,0x7f,0x08,0x8a,
0x4d,0x40,0x10,0x9a,0x51,0x7f,0x08,0x8a,0x4f,0x40,0x10,0x9a,0x52,0x7f,0x08,0x8a,
0x51,0x40,0x10,0x9a,0x54,0x7f,0x08,0x8a,0x52,0x40,0x18,0x54,0x40,0x00,0x9a,0x56,
0x7f,0x20,0x8a,0x56,0x40,0x00,0x9a,0x57,0x7f,0x20,0x8a,0x57,0x40,0x00,0x9a,0x59,
0x7f,0x20,0x8a,0x59,0x40,0x00,0x9a,0x5b,0x7f,0x20,0x8a,0x5b,0x40,0x00,0x9a,0x5d,
0x7f,0x20,0x8a,0x5d,0x40,0x81,0x40,0x9a,0x46,0x7f,0x20,0x8a,0x46,0x40,0x00,0x9a,
0x45,0x7f,0x18,0x8a,0x45,0x40,0x08,0x9a,0x46,0x7f,0x18,0x8a,0x46,0x40,0x08,0x9a,
0x48,0x7f,0x18,0x8a,0x48,0x40,0x08,0x9a,0x4a,0x7f,0x18,0x8a,0x4a,0x40,0x08,0x9a,
0x4b,0x7f,0x18,0x8a,0x4b,0x40,0x08,0x9a,0x4d,0x7f,0x18,0x8a,0x4d,0x40,0x08,0x9a,
0x4c,0x7f,0x18,0x8a,0x4c,0x40,0x08,0x9a,0x4d,0x7f,0x18,0x8a,0x4d,0x40,0x08,0x9a,
0x4f,0x7f,0x18,0x8a,0x4f,0x40,0x08,0x9a,0x51,0x7f,0x18,0x8a,0x51,0x40,0x08,0x9a,
0x52,0x7f,0x18,0x8a,0x52,0x40,0x08,0x9a,0x54,0x7f,0x18,0x8a,0x54,0x40,0x08,0x9a,
0x52,0x7f,0x18,0x8a,0x52,0x40,0x08,0x9a,0x51,0x7f,0x18,0x8a,0x51,0x40,0x08,0x9a,
0x52,0x7f,0x18,0x8a,0x52,0x40,0x08,0x9a,0x54,0x7f,0x18,0x8a,0x54,0x40,0x08,0x9a,
0x56,0x7f,0x18,0x8a,0x56,0x40,0x28,0x9a,0x43,0x7f,0x20,0x8a,0x43,0x40,0x00,0x9a,
0x44,0x7f,0x20,0x8a,0x44,0x40,0x00,0x9a,0x46,0x7f,0x20,0x8a,0x46,0x40,0x00,0x9a,
0x48,0x7f,0x20,0x8a,0x48,0x40,0x00,0x9a,0x4a,0x7f,0x20,0x8a,0x4a,0x40,0x00,0x9a,
0x4b,0x7f,0x20,0x8a,0x4b,0x40,0x00,0x9a,0x4a,0x7f,0x20,0x8a,0x4a,0x40,0x00,0x9a,
0x4b,0x7f,0x20,0x8a,0x4b,0x40,0x00,0x9a,0x4d,0x7f,0x20,0x8a,0x4d,0x40,0x00,0x9a,
0x4f,0x7f,0x20,0x8a,0x4f,0x40,0x00,0x9a,0x50,0x7f,0x20,0x8a,0x50,0x40,0x00,0x9a,
0x52,0x7f,0x20,0x8a,0x52,0x40,0x00,0x9a,0x4b,0x7f,0x20,0x8a,0x4b,0x40,0x00,0x9a,
0x4d,0x7f,0x20,0x8a,0x4d,0x40,0x00,0x9a,0x4f,0x7f,0x20,0x8a,0x4f,0x40,0x00,0x9a,
0x51,0x7f,0x20,0x8a,0x51,0x40,0x00,0x9a,0x52,0x7f,0x20,0x8a,0x52,0x40,0x04,0x9a,
0x54,0x7f,0x1c,0x52,0x7f,0x04,0x8a,0x54,0x40,0x1c,0x52,0x40,0x00,0x9a,0x51,0x7f,
0x20,0x8a,0x51,0x40,0x00,0x9a,0x52,0x7f,0x20,0x8a,0x52,0x40,0x00,0x9a,0x54,0x7f,
0x20,0x8a,0x54,0x40,0x00,0x9a,0x56,0x7f,0x20,0x8a,0x56,0x40,0x20,0x9a,0x43,0x7f,
0x20,0x8a,0x43,0x40,0x00,0x9a,0x44,0x7f,0x20,0x8a,0x44,0x40,0x00,0x9a,0x46,0x7f,
0x20,0x8a,0x46,0x40,0x00,0x9a,0x48,0x7f,0x20,0x8a,0x48,0x40,0x00,0x9a,0x4a,0x7f,
0x20,0x8a,0x4a,0x40,0x00,0x9a,0x4b,0x7f,0x20,0x8a,0x4b,0x40,0x00,0x9a,0x4a,0x7f,
0x20,0x8a,0x4a,0x40,0x00,0x9a,0x4b,0x7f,0x20,0x8a,0x4b,0x40,0x00,0x9a,0x4d,0x7f,
0x20,0x8a,0x4d,0x40,0x00,0x9a,0x4f,0x7f,0x20,0x8a,0x4f,0x40,0x00,0x9a,0x50,0x7f,
0x20,0x8a,0x50,0x40,0x00,0x9a,0x52,0x7f,0x20,0x8a,0x52,0x40,0x00,0x9a,0x4b,0x7f,
0x20,0x8a,0x4b,0x40,0x00,0x9a,0x4d,0x7f,0x20,0x8a,0x4d,0x40,0x00,0x9a,0x4f,0x7f,
0x20,0x8a,0x4f,0x40,0x00,0x9a,0x51,0x7f,0x20,0x8a,0x51,0x40,0x00,0x9a,0x52,0x7f,
0x20,0x8a,0x52,0x40,0x04,0x9a,0x54,0x7f,0x1c,0x52,0x7f,0x04,0x8a,0x54,0x40,0x1c,
0x52,0x40,0x00,0x9a,0x51,0x7f,0x20,0x8a,0x51,0x40,0x00,0x9a,0x52,0x7f,0x20,0x8a,
0x52,0x40,0x00,0x9a,0x54,0x7f,0x20,0x8a,0x54,0x40,0x00,0x9a,0x56,0x7f,0x20,0x8a,
0x56,0x40,0x00,0x9a,0x57,0x7f,0x40,0x8a,0x57,0x40,0x00,0x9a,0x56,0x7f,0x40,0x8a,
0x56,0x40,0x00,0x9a,0x57,0x7f,0x40,0x8a,0x57,0x40,0x00,0x9a,0x5b,0x7f,0x20,0x8a,
0x5b,0x40,0x00,0x9a,0x5d,0x7f,0x20,0x8a,0x5d,0x40,0x00,0x9a,0x5e,0x7f,0x20,0x8a,
0x5e,0x40,0x00,0x9a,0x60,0x7f,0x20,0x8a,0x60,0x40,0x00,0x9a,0x62,0x7f,0x20,0x8a,
0x62,0x40,0x00,0x9a,0x63,0x7f,0x20,0x8a,0x63,0x40,0x00,0x9a,0x65,0x7f,0x18,0x64,
0x7f,0x08,0x8a,0x65,0x40,0x10,0x9a,0x65,0x7f,0x08,0x8a,0x64,0x40,0x10,0x9a,0x64,
0x7f,0x08,0x8a,0x65,0x40,0x10,0x9a,0x65,0x7f,0x08,0x8a,0x64,0x40,0x58,0x65,0x40,
0x00,0x9a,0x52,0x7f,0x20,0x8a,0x52,0x40,0x00,0x9a,0x54,0x7f,0x20,0x8a,0x54,0x40,
0x00,0x9a,0x56,0x7f,0x20,0x8a,0x56,0x40,0x00,0x9a,0x57,0x7f,0x18,0x59,0x7f,0x08,
0x8a,0x57,0x40,0x10,0x9a,0x5b,0x7f,0x08,0x8a,0x59,0x40,0x10,0x9a,0x5d,0x7f,0x08,
0x8a,0x5b,0x40,0x10,0x5d,0x40,0x00,0x9a,0x5e,0x7f,0x92,0x00,0x8a,0x5e,0x40,0x00,
0x9a,0x5c,0x7f,0x40,0x8a,0x5c,0x40,0x00,0x9a,0x5b,0x7f,0x40,0x8a,0x5b,0x40,0x00,
0x9a,0x5c,0x7f,0x40,0x8a,0x5c,0x40,0x00,0x9a,0x60,0x7f,0x87,0x40,0x8a,0x60,0x40,
0x00,0xff,0x2f,0x00,0x4d,0x54,0x72,0x6b,0x00,0x00,0x00,0x21,0x00,0xff,0x21,0x01,
0x00,0x00,0xff,0x03,0x14,0x20,0x20,0x20,0x20,0x20,0x20,0x20,0x20,0x20,0x20,0x20,
0x20,0x20,0x20,0x20,0x20,0x20,0x20,0x20,0x20,0x00,0xff,0x2f,0x00,0x4d,0x54,0x72,
0x6b,0x00,0x00,0x04,0xee,0x00,0xff,0x21,0x01,0x00,0x00,0xff,0x03,0x14,0x46,0x72,
0x65,0x6e,0x63,0x68,0x20,0x48,0x6f,0x72,0x6e,0x73,0x20,0x20,0x20,0x20,0x20,0x20,
0x20,0x20,0x00,0xc4,0x3c,0x86,0x00,0xb4,0x07,0x48,0x00,0x0b,0x7f,0x00,0x5b,0x7f,
0x00,0x5d,0x00,0x00,0x0a,0x20,0x00,0x00,0x00,0x00,0x20,0x00,0x00,0x01,0x00,0x00,
0x94,0x41,0x7f,0x00,0x3a,0x7f,0x81,0x40,0x84,0x41,0x40,0x00,0x3a,0x40,0x00,0x94,
0x3a,0x7f,0x82,0x20,0x84,0x3a,0x40,0x00,0x94,0x3a,0x7f,0x60,0x84,0x3a,0x40,0x00,
0x94,0x3a,0x7f,0x40,0x84,0x3a,0x40,0x00,0x94,0x3a,0x7f,0x40,0x84,0x3a,0x40,0x00,
0x94,0x3a,0x7f,0x40,0x84,0x3a,0x40,0x00,0x94,0x3a,0x7f,0x82,0x20,0x84,0x3a,0x40,
0x00,0x94,0x41,0x7f,0x60,0x84,0x41,0x40,0x00,0x94,0x46,0x7f,0x81,0x40,0x84,0x46,
0x40,0x00,0x94,0x44,0x7f,0x00,0x3d,0x7f,0x40,0x84,0x44,0x40,0x00,0x3d,0x40,0x00,
0x94,0x44,0x7f,0x00,0x3d,0x7f,0x40,0x84,0x44,0x40,0x00,0x3d,0x40,0x00,0x94,0x44,
0x7f,0x00,0x3d,0x7f,0x40,0x84,0x44,0x40,0x00,0x3d,0x40,0x00,0x94,0x46,0x7f,0x00,
0x3f,0x7f,0x40,0x84,0x46,0x40,0x00,0x3f,0x40,0x00,0x94,0x46,0x7f,0x00,0x3f,0x7f,
0x40,0x84,0x46,0x40,0x00,0x3f,0x40,0x00,0x94,0x46,0x7f,0x00,0x3f,0x7f,0x40,0x84,
0x46,0x40,0x00,0x3f,0x40,0x00,0x94,0x41,0x7f,0x00,0x3a,0x7f,0x40,0x84,0x41,0x40,
0x00,0x3a,0x40,0x00,0x94,0x41,0x7f,0x00,0x3a,0x7f,0x40,0x84,0x41,0x40,0x00,0x3a,
0x40,0x00,0x94,0x41,0x7f,0x00,0x3a,0x7f,0x40,0x84,0x41,0x40,0x00,0x3a,0x40,0x00,
0x94,0x41,0x7f,0x00,0x3a,0x7f,0x81,0x40,0x84,0x41,0x40,0x00,0x3a,0x40,0x00,0x94,
0x41,0x7f,0x00,0x3c,0x7f,0x00,0x39,0x7f,0x40,0x84,0x41,0x40,0x00,0x3c,0x40,0x00,
0x39,0x40,0x00,0x94,0x41,0x7f,0x00,0x3c,0x7f,0x00,0x39,0x7f,0x40,0x84,0x41,0x40,
0x00,0x3c,0x40,0x00,0x39,0x40,0x00,0x94,0x41,0x7f,0x00,0x3c,0x7f,0x00,0x39,0x7f,
0x40,0x84,0x41,0x40,0x00,0x3c,0x40,0x00,0x39,0x40,0x92,0x00,0x94,0x3f,0x7f,0x40,
0x84,0x3f,0x40,0x00,0x94,0x3e,0x7f,0x40,0x84,0x3e,0x40,0x00,0x94,0x3f,0x7f,0x40,
0x84,0x3f,0x40,0x00,0x94,0x3c,0x7f,0x84,0x40,0x84,0x3c,0x40,0x00,0x94,0x3e,0x7f,
0x81,0x40,0x84,0x3e,0x40,0x00,0x94,0x3e,0x7f,0x83,0x00,0x84,0x3e,0x40,0x00,0x94,
0x3e,0x7f,0x81,0x40,0x84,0x3e,0x40,0x00,0x94,0x3f,0x7f,0x81,0x40,0x84,0x3f,0x40,
0x00,0x94,0x3f,0x7f,0x81,0x00,0x84,0x3f,0x40,0x00,0x94,0x43,0x7f,0x40,0x84,0x43,
0x40,0x00,0x94,0x43,0x7f,0x81,0x40,0x84,0x43,0x40,0x00,0x94,0x41,0x7f,0x81,0x40,
0x84,0x41,0x40,0x00,0x94,0x3f,0x7f,0x81,0x40,0x84,0x3f,0x40,0x00,0x94,0x3f,0x7f,
0x60,0x84,0x3f,0x40,0x00,0x94,0x3f,0x7f,0x60,0x84,0x3f,0x40,0x00,0x94,0x3e,0x7f,
0x81,0x40,0x84,0x3e,0x40,0x00,0x94,0x3e,0x7f,0x60,0x84,0x3e,0x40,0x00,0x94,0x3e,
0x7f,0x60,0x84,0x3e,0x40,0x00,0x94,0x3f,0x7f,0x40,0x84,0x3f,0x40,0x00,0x94,0x3e,
0x7f,0x40,0x84,0x3e,0x40,0x00,0x94,0x3f,0x7f,0x40,0x84,0x3f,0x40,0x00,0x94,0x3c,
0x7f,0x83,0x00,0x84,0x3c,0x40,0x81,0x40,0x94,0x3f,0x7f,0x00,0x3a,0x7f,0x00,0xb4,
0x07,0x48,0x81,0x40,0x84,0x3f,0x40,0x00,0x3a,0x40,0x00,0x94,0x3f,0x7f,0x00,0x3a,
0x7f,0x83,0x00,0x84,0x3f,0x40,0x00,0x3a,0x40,0x00,0x94,0x3f,0x7f,0x00,0x3a,0x7f,
0x81,0x37,0x84,0x3f,0x40,0x09,0x3a,0x40,0x00,0x94,0x3f,0x7f,0x00,0x3a,0x7f,0x82,
0x7f,0x84,0x3f,0x40,0x00,0x3a,0x40,0x01,0x94,0x41,0x7f,0x00,0x39,0x7f,0x82,0x7f,
0x84,0x41,0x40,0x00,0x39,0x40,0x01,0x94,0x3f,0x7f,0x00,0x3a,0x7f,0x81,0x40,0x84,
0x3f,0x40,0x00,0x3a,0x40,0x00,0x94,0x3f,0x7f,0x00,0x3a,0x7f,0x83,0x00,0x84,0x3f,
0x40,0x00,0x3a,0x40,0x00,0x94,0x3f,0x7f,0x00,0x3a,0x7f,0x81,0x40,0x84,0x3f,0x40,
0x00,0x3a,0x40,0x00,0x94,0x38,0x7f,0x00,0x3d,0x7f,0x81,0x40,0x84,0x38,0x40,0x00,
0x3d,0x40,0x00,0x94,0x39,0x7f,0x00,0x3c,0x7f,0x81,0x40,0x84,0x39,0x40,0x00,0x3c,
0x40,0x00,0x94,0x3f,0x7f,0x00,0x3a,0x7f,0x81,0x40,0x84,0x3f,0x40,0x00,0x3a,0x40,
0x00,0x94,0x3c,0x7f,0x00,0x39,0x7f,0x81,0x40,0x84,0x3c,0x40,0x00,0x39,0x40,0x00,
0x94,0x3a,0x7f,0x83,0x00,0x84,0x3a,0x40,0x00,0x94,0x3c,0x7f,0x81,0x40,0x84,0x3c,
0x40,0x00,0x94,0x3e,0x7f,0x81,0x40,0x84,0x3e,0x40,0x00,0x94,0x3f,0x7f,0x81,0x40,
0x84,0x3f,0x40,0x00,0x94,0x3a,0x7f,0x81,0x40,0x84,0x3a,0x40,0x00,0x94,0x3c,0x7f,
0x81,0x40,0x84,0x3c,0x40,0x00,0x94,0x41,0x7f,0x00,0x3c,0x7f,0x81,0x00,0x84,0x41,
0x40,0x00,0x3c,0x40,0x00,0x94,0x3c,0x7f,0x00,0x41,0x7f,0x40,0x84,0x3c,0x40,0x00,
0x41,0x40,0x00,0x94,0x36,0x7f,0x86,0x00,0x84,0x36,0x40,0x00,0x94,0x35,0x7f,0x81,
0x40,0x84,0x35,0x40,0x00,0x94,0x35,0x7f,0x40,0x84,0x35,0x40,0x00,0x94,0x35,0x7f,
0x40,0x84,0x35,0x40,0x00,0x94,0x35,0x7f,0x40,0x84,0x35,0x40,0x00,0x94,0x35,0x7f,
0x81,0x40,0x84,0x35,0x40,0x00,0x94,0x35,0x7f,0x60,0x84,0x35,0x40,0x00,0x94,0x35,
0x7f,0x20,0x84,0x35,0x40,0x00,0x94,0x35,0x7f,0x20,0x84,0x35,0x40,0x00,0x94,0x35,
0x7f,0x20,0x84,0x35,0x40,0x00,0x94,0x37,0x7f,0x00,0xb4,0x07,0x70,0x82,0x20,0x84,
0x37,0x40,0x00,0x94,0x3a,0x7f,0x60,0x84,0x3a,0x40,0x00,0x94,0x3f,0x7f,0x81,0x40,
0x84,0x3f,0x40,0x00,0x94,0x3c,0x7f,0x81,0x40,0x84,0x3c,0x40,0x00,0x94,0x3a,0x7f,
0x00,0xb4,0x07,0x7f,0x83,0x00,0x84,0x3a,0x40,0x00,0x94,0x41,0x7f,0x83,0x00,0x84,
0x41,0x40,0x00,0x94,0x3f,0x7f,0x40,0x84,0x3f,0x40,0x00,0x94,0x3e,0x7f,0x40,0x84,
0x3e,0x40,0x00,0x94,0x3c,0x7f,0x40,0x84,0x3c,0x40,0x00,0x94,0x46,0x7f,0x83,0x00,
0x84,0x46,0x40,0x00,0x94,0x41,0x7f,0x81,0x40,0x84,0x41,0x40,0x00,0x94,0x3f,0x7f,
0x40,0x84,0x3f,0x40,0x00,0x94,0x3e,0x7f,0x40,0x84,0x3e,0x40,0x00,0x94,0x3c,0x7f,
0x40,0x84,0x3c,0x40,0x00,0x94,0x46,0x7f,0x83,0x00,0x84,0x46,0x40,0x00,0x94,0x41,
0x7f,0x81,0x40,0x84,0x41,0x40,0x00,0x94,0x3f,0x7f,0x40,0x84,0x3f,0x40,0x00,0x94,
0x3e,0x7f,0x40,0x84,0x3e,0x40,0x00,0x94,0x3f,0x7f,0x40,0x84,0x3f,0x40,0x00,0x94,
0x3c,0x7f,0x83,0x00,0x84,0x3c,0x40,0x00,0x94,0x35,0x7f,0x40,0x84,0x35,0x40,0x00,
0x94,0x35,0x7f,0x40,0x84,0x35,0x40,0x00,0x94,0x35,0x7f,0x40,0x84,0x35,0x40,0x00,
0x94,0x3a,0x7f,0x83,0x00,0x84,0x3a,0x40,0x00,0x94,0x41,0x7f,0x83,0x00,0x84,0x41,
0x40,0x00,0x94,0x3f,0x7f,0x40,0x84,0x3f,0x40,0x00,0x94,0x3e,0x7f,0x40,0x84,0x3e,
0x40,0x00,0x94,0x3c,0x7f,0x40,0x84,0x3c,0x40,0x00,0x94,0x46,0x7f,0x83,0x00,0x84,
0x46,0x40,0x00,0x94,0x41,0x7f,0x81,0x40,0x84,0x41,0x40,0x00,0x94,0x3f,0x7f,0x40,
0x84,0x3f,0x40,0x00,0x94,0x3e,0x7f,0x40,0x84,0x3e,0x40,0x00,0x94,0x3c,0x7f,0x40,
0x84,0x3c,0x40,0x00,0x94,0x46,0x7f,0x83,0x00,0x84,0x46,0x40,0x00,0x94,0x41,0x7f,
0x81,0x40,0x84,0x41,0x40,0x84,0x00,0x94,0x3c,0x7f,0x30,0x84,0x3c,0x40,0x10,0x94,
0x3c,0x7f,0x30,0x84,0x3c,0x40,0x10,0x94,0x41,0x7f,0x30,0x84,0x41,0x40,0x10,0x94,
0x48,0x7f,0x30,0x84,0x48,0x40,0x10,0x94,0x46,0x7f,0x30,0x84,0x46,0x40,0x10,0x94,
0x45,0x7f,0x30,0x84,0x45,0x40,0x10,0x94,0x46,0x7f,0x30,0x84,0x46,0x40,0x10,0x94,
0x48,0x7f,0x81,0x40,0x84,0x48,0x40,0x00,0x94,0x41,0x7f,0x40,0x84,0x41,0x40,0x00,
0xff,0x2f,0x00,0x4d,0x54,0x72,0x6b,0x00,0x00,0x06,0x30,0x00,0xff,0x21,0x01,0x00,
0x00,0xff,0x03,0x14,0x54,0x72,0x75,0x6d,0x70,0x65,0x74,0x73,0x20,0x20,0x20,0x20,
0x20,0x20,0x20,0x20,0x20,0x20,0x20,0x20,0x00,0xc2,0x38,0x86,0x00,0xb2,0x07,0x7f,
0x00,0x0b,0x7f,0x00,0x5b,0x7f,0x00,0x5d,0x00,0x00,0x0a,0x40,0x00,0x00,0x00,0x00,
0x20,0x00,0x00,0x01,0x00,0x00,0x92,0x46,0x7f,0x00,0x41,0x7f,0x82,0x20,0x82,0x46,
0x40,0x00,0x41,0x40,0x84,0x40,0x92,0x46,0x7f,0x18,0x82,0x46,0x40,0x00,0x92,0x46,
0x7f,0x18,0x82,0x46,0x40,0x00,0x92,0x46,0x7f,0x18,0x82,0x46,0x40,0x00,0x92,0x46,
0x7f,0x18,0x82,0x46,0x40,0x00,0x92,0x46,0x7f,0x30,0x82,0x46,0x40,0x10,0x92,0x41,
0x7f,0x30,0x82,0x41,0x40,0x10,0x92,0x4b,0x7f,0x30,0x82,0x4b,0x40,0x10,0x92,0x4d,
0x7f,0x30,0x82,0x4d,0x40,0x10,0x92,0x4b,0x7f,0x30,0x82,0x4b,0x40,0x10,0x92,0x46,
0x7f,0x30,0x82,0x46,0x40,0x10,0x92,0x46,0x7f,0x30,0x82,0x46,0x40,0x10,0x92,0x41,
0x7f,0x30,0x82,0x41,0x40,0x10,0x92,0x4b,0x7f,0x30,0x82,0x4b,0x40,0x10,0x92,0x4d,
0x7f,0x30,0x82,0x4d,0x40,0x10,0x92,0x4b,0x7f,0x30,0x82,0x4b,0x40,0x10,0x92,0x46,
0x7f,0x30,0x82,0x46,0x40,0x10,0x92,0x46,0x7f,0x30,0x82,0x46,0x40,0x10,0x92,0x41,
0x7f,0x30,0x82,0x41,0x40,0x10,0x92,0x4b,0x7f,0x30,0x82,0x4b,0x40,0x10,0x92,0x4d,
0x7f,0x30,0x82,0x4d,0x40,0x10,0x92,0x46,0x7f,0x30,0x82,0x46,0x40,0x10,0x92,0x46,
0x7f,0x30,0x82,0x46,0x40,0x10,0x92,0x41,0x7f,0x30,0x82,0x41,0x40,0x10,0x92,0x41,
0x7f,0x30,0x82,0x41,0x40,0x10,0x92,0x41,0x7f,0x30,0x82,0x41,0x40,0x10,0x92,0x46,
0x7f,0x83,0x00,0x82,0x46,0x40,0x00,0x92,0x4d,0x7f,0x83,0x00,0x82,0x4d,0x40,0x00,
0x92,0x4b,0x7f,0x40,0x82,0x4b,0x40,0x00,0x92,0x4a,0x7f,0x40,0x82,0x4a,0x40,0x00,
0x92,0x48,0x7f,0x40,0x82,0x48,0x40,0x00,0x92,0x52,0x7f,0x83,0x00,0x82,0x52,0x40,
0x00,0x92,0x4d,0x7f,0x81,0x40,0x82,0x4d,0x40,0x00,0x92,0x4b,0x7f,0x40,0x82,0x4b,
0x40,0x00,0x92,0x4a,0x7f,0x40,0x82,0x4a,0x40,0x00,0x92,0x48,0x7f,0x40,0x82,0x48,
0x40,0x00,0x92,0x52,0x7f,0x83,0x00,0x82,0x52,0x40,0x00,0x92,0x4d,0x7f,0x81,0x40,
0x82,0x4d,0x40,0x00,0x92,0x4b,0x7f,0x40,0x82,0x4b,0x40,0x00,0x92,0x4a,0x7f,0x40,
0x82,0x4a,0x40,0x00,0x92,0x4b,0x7f,0x40,0x82,0x4b,0x40,0x00,0x92,0x48,0x7f,0x84,
0x40,0x82,0x48,0x40,0x00,0x92,0x46,0x7f,0x83,0x00,0x82,0x46,0x40,0x00,0x92,0x4d,
0x7f,0x83,0x00,0x82,0x4d,0x40,0x00,0x92,0x4b,0x7f,0x40,0x82,0x4b,0x40,0x00,0x92,
0x4a,0x7f,0x40,0x82,0x4a,0x40,0x00,0x92,0x48,0x7f,0x40,0x82,0x48,0x40,0x00,0x92,
0x52,0x7f,0x83,0x00,0x82,0x52,0x40,0x00,0x92,0x4d,0x7f,0x81,0x40,0x82,0x4d,0x40,
0x00,0x92,0x4b,0x7f,0x40,0x82,0x4b,0x40,0x00,0x92,0x4a,0x7f,0x40,0x82,0x4a,0x40,
0x00,0x92,0x48,0x7f,0x40,0x82,0x48,0x40,0x00,0x92,0x52,0x7f,0x83,0x00,0x82,0x52,
0x40,0x00,0x92,0x4d,0x7f,0x81,0x40,0x82,0x4d,0x40,0x00,0x92,0x50,0x7f,0x40,0x82,
0x50,0x40,0x00,0x92,0x4f,0x7f,0x40,0x82,0x4f,0x40,0x00,0x92,0x50,0x7f,0x40,0x82,
0x50,0x40,0x00,0x92,0x4d,0x7f,0x83,0x00,0x82,0x4d,0x40,0xa0,0x00,0xb2,0x07,0x7f,
0x84,0x00,0x92,0x4d,0x7f,0x00,0x41,0x7f,0x81,0x00,0x82,0x4d,0x40,0x00,0x41,0x40,
0x00,0x92,0x4d,0x7f,0x00,0x41,0x7f,0x40,0x82,0x4d,0x40,0x00,0x41,0x40,0x00,0x92,
0x52,0x7f,0x00,0x42,0x7f,0x00,0x46,0x7f,0x81,0x00,0x82,0x52,0x40,0x00,0x42,0x40,
0x00,0x46,0x40,0x00,0x92,0x50,0x7f,0x00,0x41,0x7f,0x00,0x44,0x7f,0x40,0x82,0x50,
0x40,0x00,0x41,0x40,0x00,0x44,0x40,0x00,0x92,0x4e,0x7f,0x00,0x3f,0x7f,0x00,0x42,
0x7f,0x81,0x00,0x82,0x4e,0x40,0x00,0x3f,0x40,0x00,0x42,0x40,0x00,0x92,0x4d,0x7f,
0x00,0x3d,0x7f,0x00,0x41,0x7f,0x40,0x82,0x4d,0x40,0x00,0x3d,0x40,0x00,0x41,0x40,
0x00,0x92,0x4b,0x7f,0x00,0x3c,0x7f,0x00,0x3f,0x7f,0x81,0x00,0x82,0x4b,0x40,0x00,
0x3c,0x40,0x00,0x3f,0x40,0x00,0x92,0x49,0x7f,0x00,0x3a,0x7f,0x00,0x3d,0x7f,0x40,
0x82,0x49,0x40,0x00,0x3a,0x40,0x00,0x3d,0x40,0x00,0x92,0x48,0x7f,0x00,0x38,0x7f,
0x00,0x3c,0x7f,0x81,0x00,0x82,0x48,0x40,0x00,0x38,0x40,0x00,0x3c,0x40,0x00,0x92,
0x46,0x7f,0x00,0x36,0x7f,0x00,0x3a,0x7f,0x40,0x82,0x46,0x40,0x00,0x36,0x40,0x00,
0x3a,0x40,0x00,0x92,0x4d,0x7f,0x86,0x00,0x82,0x4d,0x40,0x60,0x92,0x41,0x7f,0x18,
0x82,0x41,0x40,0x08,0x92,0x41,0x7f,0x18,0x82,0x41,0x40,0x08,0x92,0x41,0x7f,0x18,
0x82,0x41,0x40,0x08,0x92,0x41,0x7f,0x60,0x82,0x41,0x40,0x00,0x92,0x41,0x7f,0x18,
0x82,0x41,0x40,0x08,0x92,0x41,0x7f,0x18,0x82,0x41,0x40,0x08,0x92,0x41,0x7f,0x18,
0x82,0x41,0x40,0x08,0x92,0x41,0x7f,0x81,0x00,0x82,0x41,0x40,0x00,0x92,0x41,0x7f,
0x40,0x82,0x41,0x40,0x00,0x92,0x41,0x7f,0x40,0x82,0x41,0x40,0x00,0x92,0x41,0x7f,
0x40,0x82,0x41,0x40,0x00,0x92,0x41,0x7f,0x40,0x82,0x41,0x40,0x98,0x00,0x92,0x4d,
0x7f,0x00,0xb2,0x07,0x60,0x60,0x82,0x4d,0x40,0x00,0x92,0x4d,0x7f,0x18,0x82,0x4d,
0x40,0x00,0x92,0x4c,0x7f,0x18,0x82,0x4c,0x40,0x00,0x92,0x4d,0x7f,0x18,0x82,0x4d,
0x40,0x00,0x92,0x4c,0x7f,0x18,0x82,0x4c,0x40,0x00,0x92,0x4d,0x7f,0x60,0x82,0x4d,
0x40,0x00,0x92,0x4d,0x7f,0x18,0x82,0x4d,0x40,0x00,0x92,0x4c,0x7f,0x18,0x82,0x4c,
0x40,0x00,0x92,0x4d,0x7f,0x18,0x82,0x4d,0x40,0x00,0x92,0x4c,0x7f,0x18,0x82,0x4c,
0x40,0x00,0x92,0x4d,0x7f,0x60,0x82,0x4d,0x40,0x00,0x92,0x4d,0x7f,0x18,0x82,0x4d,
0x40,0x00,0x92,0x4c,0x7f,0x18,0x82,0x4c,0x40,0x00,0x92,0x4d,0x7f,0x18,0x82,0x4d,
0x40,0x00,0x92,0x4c,0x7f,0x18,0x82,0x4c,0x40,0x00,0x92,0x4d,0x7f,0x60,0x82,0x4d,
0x40,0x00,0x92,0x4d,0x7f,0x18,0x82,0x4d,0x40,0x00,0x92,0x4c,0x7f,0x18,0x82,0x4c,
0x40,0x00,0x92,0x4d,0x7f,0x18,0x82,0x4d,0x40,0x00,0x92,0x4c,0x7f,0x18,0x82,0x4c,
0x40,0x00,0x92,0x4b,0x7f,0x60,0x82,0x4b,0x40,0x00,0x92,0x4b,0x7f,0x18,0x82,0x4b,
0x40,0x00,0x92,0x4a,0x7f,0x18,0x82,0x4a,0x40,0x00,0x92,0x4b,0x7f,0x18,0x82,0x4b,
0x40,0x00,0x92,0x4a,0x7f,0x18,0x82,0x4a,0x40,0x00,0x92,0x4b,0x7f,0x60,0x82,0x4b,
0x40,0x00,0x92,0x4b,0x7f,0x18,0x82,0x4b,0x40,0x00,0x92,0x4a,0x7f,0x18,0x82,0x4a,
0x40,0x00,0x92,0x4b,0x7f,0x18,0x82,0x4b,0x40,0x00,0x92,0x4a,0x7f,0x18,0x82,0x4a,
0x40,0x00,0x92,0x4d,0x7f,0x60,0x82,0x4d,0x40,0x00,0x92,0x4d,0x7f,0x18,0x82,0x4d,
0x40,0x00,0x92,0x4c,0x7f,0x18,0x82,0x4c,0x40,0x00,0x92,0x4d,0x7f,0x18,0x82,0x4d,
0x40,0x00,0x92,0x4c,0x7f,0x18,0x82,0x4c,0x40,0x00,0x92,0x4d,0x7f,0x60,0x82,0x4d,
0x40,0x00,0x92,0x4d,0x7f,0x18,0x82,0x4d,0x40,0x00,0x92,0x4c,0x7f,0x18,0x82,0x4c,
0x40,0x00,0x92,0x4d,0x7f,0x18,0x82,0x4d,0x40,0x00,0x92,0x4c,0x7f,0x18,0x82,0x4c,
0x40,0x00,0x92,0x4b,0x7f,0x60,0x82,0x4b,0x40,0x00,0x92,0x4b,0x7f,0x18,0x82,0x4b,
0x40,0x00,0x92,0x4a,0x7f,0x18,0x82,0x4a,0x40,0x00,0x92,0x4b,0x7f,0x18,0x82,0x4b,
0x40,0x00,0x92,0x4a,0x7f,0x18,0x82,0x4a,0x40,0x00,0x92,0x4b,0x7f,0x60,0x82,0x4b,
0x40,0x00,0x92,0x4b,0x7f,0x18,0x82,0x4b,0x40,0x00,0x92,0x4a,0x7f,0x18,0x82,0x4a,
0x40,0x00,0x92,0x4b,0x7f,0x18,0x82,0x4b,0x40,0x00,0x92,0x4a,0x7f,0x18,0x82,0x4a,
0x40,0x00,0x92,0x4d,0x7f,0x60,0x82,0x4d,0x40,0x00,0x92,0x4d,0x7f,0x18,0x82,0x4d,
0x40,0x00,0x92,0x4c,0x7f,0x18,0x82,0x4c,0x40,0x00,0x92,0x4d,0x7f,0x18,0x82,0x4d,
0x40,0x00,0x92,0x4c,0x7f,0x18,0x82,0x4c,0x40,0x00,0x92,0x4d,0x7f,0x60,0x82,0x4d,
0x40,0x00,0x92,0x4d,0x7f,0x18,0x82,0x4d,0x40,0x00,0x92,0x4c,0x7f,0x18,0x82,0x4c,
0x40,0x00,0x92,0x4d,0x7f,0x18,0x82,0x4d,0x40,0x00,0x92,0x4c,0x7f,0x18,0x82,0x4c,
0x40,0x00,0x92,0x4b,0x7f,0x00,0x44,0x7f,0x40,0x82,0x4b,0x40,0x00,0x44,0x40,0x00,
0x92,0x4a,0x7f,0x00,0x43,0x7f,0x40,0x82,0x4a,0x40,0x00,0x43,0x40,0x00,0x92,0x4b,
0x7f,0x00,0x44,0x7f,0x40,0x82,0x4b,0x40,0x00,0x44,0x40,0x00,0x92,0x48,0x7f,0x00,
0x51,0x7f,0x89,0x00,0x82,0x51,0x40,0x00,0x48,0x40,0x86,0x60,0x92,0x44,0x7f,0x00,
0x3f,0x7f,0x20,0x82,0x44,0x40,0x00,0x3f,0x40,0x00,0x92,0x44,0x7f,0x00,0x3f,0x7f,
0x20,0x82,0x44,0x40,0x00,0x3f,0x40,0x00,0x92,0x44,0x7f,0x00,0x3f,0x7f,0x20,0x82,
0x44,0x40,0x00,0x3f,0x40,0x00,0x92,0x44,0x7f,0x00,0x3f,0x7f,0x60,0x82,0x44,0x40,
0x00,0x3f,0x40,0x00,0x92,0x3f,0x7f,0x20,0x82,0x3f,0x40,0x00,0x92,0x3f,0x7f,0x20,
0x82,0x3f,0x40,0x00,0x92,0x3f,0x7f,0x20,0x82,0x3f,0x40,0x00,0x92,0x3f,0x7f,0x60,
0x82,0x3f,0x40,0x00,0x92,0x3f,0x7f,0x00,0x44,0x7f,0x20,0x82,0x3f,0x40,0x00,0x44,
0x40,0x00,0x92,0x3f,0x7f,0x00,0x44,0x7f,0x20,0x82,0x3f,0x40,0x00,0x44,0x40,0x00,
0x92,0x3f,0x7f,0x00,0x44,0x7f,0x20,0x82,0x3f,0x40,0x00,0x44,0x40,0x00,0x92,0x44,
0x7f,0x00,0x3f,0x7f,0x60,0x82,0x44,0x40,0x00,0x3f,0x40,0x88,0x20,0x92,0x44,0x7f,
0x85,0x20,0x82,0x44,0x40,0x00,0x92,0x44,0x7f,0x60,0x82,0x44,0x40,0x00,0x92,0x4c,
0x7f,0x85,0x20,0x82,0x4c,0x40,0x00,0x92,0x4c,0x7f,0x60,0x82,0x4c,0x40,0x00,0x92,
0x4c,0x7f,0x86,0x00,0x82,0x4c,0x40,0x00,0xff,0x2f,0x00,0x4d,0x54,0x72,0x6b,0x00,
0x00,0x0d,0x9f,0x00,0xff,0x21,0x01,0x00,0x00,0xff,0x03,0x14,0x54,0x72,0x6f,0x6d,
0x62,0x6f,0x6e,0x65,0x73,0x20,0x20,0x20,0x20,0x20,0x20,0x20,0x20,0x20,0x20,0x20,
0x00,0xc3,0x39,0x86,0x00,0xb3,0x07,0x7f,0x00,0x0b,0x7f,0x00,0x5b,0x7f,0x00,0x5d,
0x00,0x00,0x0a,0x4c,0x00,0x00,0x00,0x00,0x20,0x00,0x00,0x01,0x00,0x00,0x93,0x35,
0x7f,0x00,0x46,0x7f,0x00,0x3a,0x7f,0x82,0x20,0x83,0x35,0x40,0x00,0x46,0x40,0x00,
0x3a,0x40,0x00,0x93,0x3a,0x7f,0x18,0x83,0x3a,0x40,0x00,0x93,0x3a,0x7f,0x18,0x83,
0x3a,0x40,0x00,0x93,0x3a,0x7f,0x18,0x83,0x3a,0x40,0x00,0x93,0x3a,0x7f,0x18,0x83,
0x3a,0x40,0x00,0x93,0x3a,0x7f,0x82,0x20,0x83,0x3a,0x40,0x18,0x93,0x3a,0x7f,0x18,
0x83,0x3a,0x40,0x00,0x93,0x3a,0x7f,0x18,0x83,0x3a,0x40,0x00,0x93,0x3a,0x7f,0x18,
0x83,0x3a,0x40,0x00,0x93,0x3a,0x7f,0x30,0x83,0x3a,0x40,0x10,0x93,0x35,0x7f,0x30,
0x83,0x35,0x40,0x10,0x93,0x3f,0x7f,0x30,0x83,0x3f,0x40,0x10,0x93,0x41,0x7f,0x30,
0x83,0x41,0x40,0x10,0x93,0x3f,0x7f,0x30,0x83,0x3f,0x40,0x10,0x93,0x3a,0x7f,0x30,
0x83,0x3a,0x40,0x10,0x93,0x3a,0x7f,0x30,0x83,0x3a,0x40,0x10,0x93,0x35,0x7f,0x30,
0x83,0x35,0x40,0x10,0x93,0x3f,0x7f,0x30,0x83,0x3f,0x40,0x10,0x93,0x41,0x7f,0x30,
0x83,0x41,0x40,0x10,0x93,0x3a,0x7f,0x20,0x83,0x3a,0x40,0x00,0x93,0x3a,0x7f,0x18,
0x83,0x3a,0x40,0x00,0x93,0x3a,0x7f,0x30,0x83,0x3a,0x40,0x18,0x93,0x3f,0x7f,0x00,
0x33,0x7f,0x30,0x83,0x3f,0x40,0x00,0x33,0x40,0x10,0x93,0x3a,0x7f,0x00,0x2e,0x7f,
0x30,0x83,0x3a,0x40,0x00,0x2e,0x40,0x10,0x93,0x41,0x7f,0x00,0x35,0x7f,0x30,0x83,
0x41,0x40,0x00,0x35,0x40,0x10,0x93,0x44,0x7f,0x00,0x38,0x7f,0x82,0x20,0x83,0x44,
0x40,0x00,0x38,0x40,0x60,0x93,0x35,0x7f,0x00,0x41,0x7f,0x40,0x83,0x35,0x40,0x00,
0x41,0x40,0x00,0x93,0x35,0x7f,0x00,0x41,0x7f,0x40,0x83,0x35,0x40,0x00,0x41,0x40,
0x00,0x93,0x35,0x7f,0x00,0x41,0x7f,0x40,0x83,0x35,0x40,0x00,0x41,0x40,0x60,0x93,
0x3a,0x7f,0x00,0x35,0x7f,0x30,0x83,0x3a,0x40,0x00,0x35,0x40,0x00,0x93,0x3a,0x7f,
0x00,0x35,0x7f,0x30,0x83,0x3a,0x40,0x00,0x35,0x40,0x00,0x93,0x3a,0x7f,0x00,0x35,
0x7f,0x82,0x20,0x83,0x3a,0x40,0x00,0x35,0x40,0x00,0x93,0x3e,0x7f,0x00,0x3a,0x7f,
0x20,0x83,0x3e,0x40,0x00,0x3a,0x40,0x00,0x93,0x3e,0x7f,0x00,0x3a,0x7f,0x20,0x83,
0x3e,0x40,0x00,0x3a,0x40,0x00,0x93,0x3e,0x7f,0x00,0x3a,0x7f,0x20,0x83,0x3e,0x40,
0x00,0x3a,0x40,0x00,0x93,0x3e,0x7f,0x00,0x3a,0x7f,0x60,0x83,0x3e,0x40,0x00,0x3a,
0x40,0x00,0x93,0x3e,0x7f,0x00,0x35,0x7f,0x60,0x83,0x3e,0x40,0x00,0x35,0x40,0x60,
0x93,0x3f,0x7f,0x00,0x3a,0x7f,0x60,0x83,0x3f,0x40,0x00,0x3a,0x40,0x60,0x93,0x3f,
0x7f,0x00,0x3a,0x7f,0x60,0x83,0x3f,0x40,0x00,0x3a,0x40,0x00,0x93,0x3f,0x7f,0x00,
0x3a,0x7f,0x60,0x83,0x3f,0x40,0x00,0x3a,0x40,0x00,0x93,0x3f,0x7f,0x00,0x3a,0x7f,
0x18,0x83,0x3f,0x40,0x00,0x3a,0x40,0x00,0x93,0x3f,0x7f,0x00,0x3a,0x7f,0x18,0x83,
0x3f,0x40,0x00,0x3a,0x40,0x00,0x93,0x3f,0x7f,0x00,0x3a,0x7f,0x30,0x83,0x3f,0x40,
0x00,0x3a,0x40,0x00,0x93,0x3e,0x7f,0x00,0x3a,0x7f,0x40,0x83,0x3e,0x40,0x00,0x3a,
0x40,0x00,0x93,0x3e,0x7f,0x00,0x3a,0x7f,0x40,0x83,0x3e,0x40,0x00,0x3a,0x40,0x00,
0x93,0x3e,0x7f,0x00,0x3a,0x7f,0x40,0x83,0x3e,0x40,0x00,0x3a,0x40,0x60,0x93,0x3f,
0x7f,0x00,0x3a,0x7f,0x60,0x83,0x3f,0x40,0x00,0x3a,0x40,0x60,0x93,0x3f,0x7f,0x00,
0x3a,0x7f,0x60,0x83,0x3f,0x40,0x00,0x3a,0x40,0x00,0x93,0x3f,0x7f,0x00,0x3a,0x7f,
0x60,0x83,0x3f,0x40,0x00,0x3a,0x40,0x00,0x93,0x3f,0x7f,0x00,0x3a,0x7f,0x18,0x83,
0x3f,0x40,0x00,0x3a,0x40,0x00,0x93,0x3f,0x7f,0x00,0x3a,0x7f,0x18,0x83,0x3f,0x40,
0x00,0x3a,0x40,0x00,0x93,0x3f,0x7f,0x00,0x3a,0x7f,0x30,0x83,0x3f,0x40,0x00,0x3a,
0x40,0x00,0x93,0x3e,0x7f,0x00,0x3a,0x7f,0x40,0x83,0x3e,0x40,0x00,0x3a,0x40,0x00,
0x93,0x3e,0x7f,0x00,0x3a,0x7f,0x40,0x83,0x3e,0x40,0x00,0x3a,0x40,0x00,0x93,0x3e,
0x7f,0x00,0x3a,0x7f,0x40,0x83,0x3e,0x40,0x00,0x3a,0x40,0x00,0x93,0x3f,0x7f,0x00,
0x3c,0x7f,0x40,0x83,0x3f,0x40,0x00,0x3c,0x40,0x00,0x93,0x3e,0x7f,0x00,0x3b,0x7f,
0x40,0x83,0x3e,0x40,0x00,0x3b,0x40,0x00,0x93,0x3f,0x7f,0x00,0x3c,0x7f,0x40,0x83,
0x3f,0x40,0x00,0x3c,0x40,0x00,0x93,0x3c,0x7f,0x00,0x39,0x7f,0x82,0x20,0x83,0x39,
0x40,0x00,0x93,0x39,0x7f,0x60,0x83,0x39,0x40,0x00,0x93,0x39,0x7f,0x60,0x83,0x39,
0x40,0x00,0x93,0x39,0x7f,0x60,0x83,0x3c,0x40,0x00,0x39,0x40,0x00,0x93,0x35,0x7f,
0x00,0x32,0x7f,0x81,0x40,0x83,0x35,0x40,0x00,0x32,0x40,0x00,0x93,0x35,0x7f,0x00,
0x32,0x7f,0x83,0x00,0x83,0x35,0x40,0x00,0x32,0x40,0x00,0x93,0x32,0x7f,0x00,0x35,
0x7f,0x81,0x40,0x83,0x32,0x40,0x00,0x35,0x40,0x00,0x93,0x33,0x7f,0x00,0x37,0x7f,
0x81,0x40,0x83,0x33,0x40,0x00,0x93,0x33,0x7f,0x81,0x00,0x83,0x37,0x40,0x00,0x33,
0x40,0x00,0x93,0x37,0x7f,0x00,0x33,0x7f,0x40,0x83,0x37,0x40,0x00,0x33,0x40,0x00,
0x93,0x37,0x7f,0x00,0x33,0x7f,0x81,0x40,0x83,0x37,0x40,0x00,0x33,0x40,0x00,0x93,
0x35,0x7f,0x00,0x32,0x7f,0x81,0x40,0x83,0x35,0x40,0x00,0x32,0x40,0x00,0x93,0x33,
0x7f,0x00,0x2e,0x7f,0x81,0x40,0x83,0x33,0x40,0x00,0x2e,0x40,0x00,0x93,0x33,0x7f,
0x00,0x2e,0x7f,0x40,0x83,0x33,0x40,0x00,0x2e,0x40,0x00,0x93,0x33,0x7f,0x00,0x2e,
0x7f,0x40,0x83,0x33,0x40,0x00,0x2e,0x40,0x00,0x93,0x33,0x7f,0x00,0x2e,0x7f,0x40,
0x83,0x33,0x40,0x00,0x2e,0x40,0x00,0x93,0x32,0x7f,0x00,0x2e,0x7f,0x81,0x40,0x83,
0x32,0x40,0x00,0x2e,0x40,0x00,0x93,0x2e,0x7f,0x00,0x32,0x7f,0x60,0x83,0x2e,0x40,
0x00,0x32,0x40,0x00,0x93,0x2e,0x7f,0x00,0x32,0x7f,0x60,0x83,0x2e,0x40,0x00,0x32,
0x40,0x00,0x93,0x3f,0x7f,0x00,0x3c,0x7f,0x40,0x83,0x3f,0x40,0x00,0x3c,0x40,0x00,
0x93,0x3e,0x7f,0x00,0x3b,0x7f,0x40,0x83,0x3e,0x40,0x00,0x3b,0x40,0x00,0x93,0x3f,
0x7f,0x00,0x3c,0x7f,0x40,0x83,0x3f,0x40,0x00,0x3c,0x40,0x00,0x93,0x3c,0x7f,0x00,
0x39,0x7f,0x82,0x20,0x83,0x39,0x40,0x00,0x93,0x39,0x7f,0x60,0x83,0x3c,0x40,0x00,
0x39,0x40,0x8f,0x00,0x93,0x3a,0x7f,0x81,0x40,0x83,0x3a,0x40,0x00,0x93,0x43,0x7f,
0x81,0x40,0x83,0x43,0x40,0x00,0x93,0x3a,0x7f,0x60,0x83,0x3a,0x40,0x00,0x93,0x43,
0x7f,0x60,0x83,0x43,0x40,0x00,0x93,0x44,0x7f,0x81,0x40,0x83,0x44,0x40,0x00,0x93,
0x45,0x7f,0x81,0x40,0x83,0x45,0x40,0x00,0x93,0x46,0x7f,0x81,0x40,0x83,0x46,0x40,
0x00,0x93,0x45,0x7f,0x81,0x40,0x83,0x45,0x40,0x00,0x93,0x43,0x7f,0x81,0x40,0x83,
0x43,0x40,0x00,0x93,0x45,0x7f,0x60,0x83,0x45,0x40,0x00,0x93,0x46,0x7f,0x60,0x83,
0x46,0x40,0x00,0x93,0x47,0x7f,0x81,0x40,0x83,0x47,0x40,0x00,0x93,0x48,0x7f,0x60,
0x83,0x48,0x40,0x00,0x93,0x4a,0x7f,0x60,0x83,0x4a,0x40,0x00,0x93,0x4b,0x7f,0x81,
0x40,0x83,0x4b,0x40,0x00,0x93,0x48,0x7f,0x81,0x40,0x83,0x48,0x40,0x00,0x93,0x4d,
0x7f,0x81,0x40,0x83,0x4d,0x40,0x00,0x93,0x35,0x7f,0x81,0x00,0x83,0x35,0x40,0x00,
0x93,0x35,0x7f,0x40,0x83,0x35,0x40,0x00,0x93,0x30,0x7f,0x81,0x00,0x83,0x30,0x40,
0x00,0x93,0x32,0x7f,0x40,0x83,0x32,0x40,0x00,0x93,0x33,0x7f,0x81,0x00,0x83,0x33,
0x40,0x00,0x93,0x35,0x7f,0x40,0x83,0x35,0x40,0x00,0x93,0x36,0x7f,0x81,0x00,0x83,
0x36,0x40,0x00,0x93,0x38,0x7f,0x40,0x83,0x38,0x40,0x00,0x93,0x3a,0x7f,0x81,0x00,
0x83,0x3a,0x40,0x00,0x93,0x3c,0x7f,0x40,0x83,0x3c,0x40,0x00,0x93,0x4d,0x7f,0x00,
0x41,0x7f,0x00,0x35,0x7f,0x81,0x40,0x83,0x35,0x40,0x00,0x93,0x35,0x7f,0x30,0x83,
0x35,0x40,0x10,0x93,0x35,0x7f,0x30,0x83,0x35,0x40,0x10,0x93,0x35,0x7f,0x40,0x83,
0x35,0x40,0x00,0x93,0x35,0x7f,0x81,0x40,0x83,0x35,0x40,0x00,0x93,0x35,0x7f,0x60,
0x83,0x35,0x40,0x00,0x93,0x35,0x7f,0x20,0x83,0x35,0x40,0x00,0x93,0x35,0x7f,0x20,
0x83,0x35,0x40,0x00,0x93,0x35,0x7f,0x20,0x83,0x4d,0x40,0x00,0x35,0x40,0x00,0x93,
0x37,0x7f,0x60,0x83,0x41,0x40,0x00,0x93,0x41,0x7f,0x18,0x83,0x41,0x40,0x08,0x93,
0x41,0x7f,0x18,0x83,0x41,0x40,0x08,0x93,0x41,0x7f,0x18,0x83,0x41,0x40,0x08,0x93,
0x41,0x7f,0x60,0x83,0x37,0x40,0x00,0x41,0x40,0x00,0x93,0x3a,0x7f,0x00,0x41,0x7f,
0x18,0x83,0x41,0x40,0x08,0x93,0x41,0x7f,0x18,0x83,0x41,0x40,0x08,0x93,0x41,0x7f,
0x18,0x83,0x41,0x40,0x08,0x3a,0x40,0x00,0x93,0x3f,0x7f,0x00,0x41,0x7f,0x81,0x00,
0x83,0x41,0x40,0x00,0x93,0x41,0x7f,0x40,0x83,0x3f,0x40,0x00,0x41,0x40,0x00,0x93,
0x3c,0x7f,0x00,0x41,0x7f,0x40,0x83,0x41,0x40,0x00,0x93,0x41,0x7f,0x40,0x83,0x41,
0x40,0x00,0x93,0x41,0x7f,0x40,0x83,0x3c,0x40,0x00,0x41,0x40,0x00,0x93,0x46,0x7f,
0x00,0x3a,0x7f,0x81,0x40,0x83,0x46,0x40,0x00,0x3a,0x40,0x00,0x93,0x3a,0x7f,0x00,
0x35,0x7f,0x00,0x32,0x7f,0x82,0x20,0x83,0x3a,0x40,0x00,0x35,0x40,0x00,0x32,0x40,
0x00,0x93,0x35,0x7f,0x00,0x3a,0x7f,0x00,0x32,0x7f,0x18,0x83,0x35,0x40,0x00,0x3a,
0x40,0x00,0x32,0x40,0x08,0x93,0x35,0x7f,0x00,0x3a,0x7f,0x00,0x32,0x7f,0x18,0x83,
0x35,0x40,0x00,0x3a,0x40,0x00,0x32,0x40,0x08,0x93,0x35,0x7f,0x00,0x3a,0x7f,0x00,
0x32,0x7f,0x18,0x83,0x35,0x40,0x00,0x3a,0x40,0x00,0x32,0x40,0x08,0x93,0x35,0x7f,
0x00,0x3a,0x7f,0x00,0x32,0x7f,0x60,0x83,0x35,0x40,0x00,0x3a,0x40,0x00,0x32,0x40,
0x00,0x93,0x35,0x7f,0x00,0x3a,0x7f,0x00,0x32,0x7f,0x60,0x83,0x35,0x40,0x00,0x3a,
0x40,0x00,0x32,0x40,0x60,0x93,0x38,0x7f,0x00,0x33,0x7f,0x00,0x3a,0x7f,0x18,0x83,
0x38,0x40,0x00,0x33,0x40,0x00,0x3a,0x40,0x00,0x93,0x38,0x7f,0x00,0x33,0x7f,0x00,
0x3a,0x7f,0x18,0x83,0x38,0x40,0x00,0x33,0x40,0x00,0x3a,0x40,0x00,0x93,0x38,0x7f,
0x00,0x33,0x7f,0x00,0x3a,0x7f,0x18,0x83,0x38,0x40,0x00,0x33,0x40,0x00,0x3a,0x40,
0x00,0x93,0x38,0x7f,0x00,0x33,0x7f,0x00,0x3a,0x7f,0x18,0x83,0x38,0x40,0x00,0x33,
0x40,0x00,0x3a,0x40,0x00,0x93,0x38,0x7f,0x00,0x33,0x7f,0x00,0x3a,0x7f,0x60,0x83,
0x38,0x40,0x00,0x33,0x40,0x00,0x3a,0x40,0x00,0x93,0x38,0x7f,0x00,0x33,0x7f,0x00,
0x3a,0x7f,0x18,0x83,0x38,0x40,0x00,0x33,0x40,0x00,0x3a,0x40,0x00,0x93,0x38,0x7f,
0x00,0x33,0x7f,0x00,0x3a,0x7f,0x18,0x83,0x38,0x40,0x00,0x33,0x40,0x00,0x3a,0x40,
0x00,0x93,0x38,0x7f,0x00,0x33,0x7f,0x00,0x3a,0x7f,0x18,0x83,0x38,0x40,0x00,0x33,
0x40,0x00,0x3a,0x40,0x00,0x93,0x38,0x7f,0x00,0x33,0x7f,0x00,0x3a,0x7f,0x18,0x83,
0x38,0x40,0x00,0x33,0x40,0x00,0x3a,0x40,0x00,0x93,0x38,0x7f,0x00,0x33,0x7f,0x00,
0x3a,0x7f,0x60,0x83,0x38,0x40,0x00,0x33,0x40,0x00,0x3a,0x40,0x00,0x93,0x38,0x7f,
0x00,0x33,0x7f,0x00,0x3a,0x7f,0x18,0x83,0x38,0x40,0x00,0x33,0x40,0x00,0x3a,0x40,
0x00,0x93,0x38,0x7f,0x00,0x33,0x7f,0x00,0x3a,0x7f,0x18,0x83,0x38,0x40,0x00,0x33,
0x40,0x00,0x3a,0x40,0x00,0x93,0x38,0x7f,0x00,0x33,0x7f,0x00,0x3a,0x7f,0x18,0x83,
0x38,0x40,0x00,0x33,0x40,0x00,0x3a,0x40,0x00,0x93,0x38,0x7f,0x00,0x33,0x7f,0x00,
0x3a,0x7f,0x18,0x83,0x38,0x40,0x00,0x33,0x40,0x00,0x3a,0x40,0x00,0x93,0x3a,0x7f,
0x00,0x35,0x7f,0x00,0x32,0x7f,0x40,0x83,0x3a,0x40,0x00,0x35,0x40,0x00,0x32,0x40,
0x00,0x93,0x3a,0x7f,0x00,0x35,0x7f,0x00,0x32,0x7f,0x40,0x83,0x3a,0x40,0x00,0x35,
0x40,0x00,0x32,0x40,0x00,0x93,0x3a,0x7f,0x00,0x35,0x7f,0x00,0x32,0x7f,0x40,0x83,
0x3a,0x40,0x00,0x35,0x40,0x00,0x32,0x40,0x60,0x93,0x3f,0x7f,0x00,0x3a,0x7f,0x00,
0x38,0x7f,0x60,0x83,0x3f,0x40,0x00,0x3a,0x40,0x00,0x38,0x40,0x60,0x93,0x3f,0x7f,
0x00,0x3a,0x7f,0x00,0x38,0x7f,0x60,0x83,0x3f,0x40,0x00,0x3a,0x40,0x00,0x38,0x40,
0x00,0x93,0x3f,0x7f,0x00,0x3a,0x7f,0x00,0x38,0x7f,0x60,0x83,0x3f,0x40,0x00,0x3a,
0x40,0x00,0x38,0x40,0x00,0x93,0x38,0x7f,0x00,0x3a,0x7f,0x00,0x3f,0x7f,0x18,0x83,
0x38,0x40,0x00,0x3a,0x40,0x00,0x3f,0x40,0x00,0x93,0x38,0x7f,0x00,0x3a,0x7f,0x00,
0x3f,0x7f,0x18,0x83,0x38,0x40,0x00,0x3a,0x40,0x00,0x3f,0x40,0x00,0x93,0x38,0x7f,
0x00,0x3a,0x7f,0x00,0x3f,0x7f,0x18,0x83,0x38,0x40,0x00,0x3a,0x40,0x00,0x3f,0x40,
0x00,0x93,0x38,0x7f,0x00,0x3a,0x7f,0x00,0x3f,0x7f,0x18,0x83,0x38,0x40,0x00,0x3a,
0x40,0x00,0x3f,0x40,0x00,0x93,0x3a,0x7f,0x00,0x41,0x7f,0x00,0x3e,0x7f,0x40,0x83,
0x3a,0x40,0x00,0x41,0x40,0x00,0x3e,0x40,0x00,0x93,0x3a,0x7f,0x00,0x41,0x7f,0x00,
0x3e,0x7f,0x40,0x83,0x3a,0x40,0x00,0x41,0x40,0x00,0x3e,0x40,0x00,0x93,0x3a,0x7f,
0x00,0x41,0x7f,0x00,0x3e,0x7f,0x40,0x83,0x3a,0x40,0x00,0x41,0x40,0x00,0x3e,0x40,
0x60,0x93,0x3c,0x7f,0x00,0x3a,0x7f,0x00,0x35,0x7f,0x60,0x83,0x3c,0x40,0x00,0x3a,
0x40,0x00,0x35,0x40,0x60,0x93,0x3c,0x7f,0x00,0x3a,0x7f,0x00,0x35,0x7f,0x60,0x83,
0x3c,0x40,0x00,0x3a,0x40,0x00,0x35,0x40,0x60,0x93,0x35,0x7f,0x00,0x3a,0x7f,0x00,
0x3c,0x7f,0x60,0x83,0x35,0x40,0x00,0x3a,0x40,0x00,0x3c,0x40,0x00,0x93,0x3c,0x7f,
0x00,0x35,0x7f,0x00,0x3a,0x7f,0x40,0x83,0x3c,0x40,0x00,0x35,0x40,0x00,0x3a,0x40,
0x00,0x93,0x3c,0x7f,0x00,0x35,0x7f,0x00,0x3a,0x7f,0x40,0x83,0x3c,0x40,0x00,0x35,
0x40,0x00,0x3a,0x40,0x00,0x93,0x3c,0x7f,0x00,0x35,0x7f,0x00,0x3a,0x7f,0x40,0x83,
0x3c,0x40,0x00,0x35,0x40,0x00,0x3a,0x40,0x00,0x93,0x3a,0x7f,0x00,0x35,0x7f,0x00,
0x32,0x7f,0x81,0x40,0x83,0x3a,0x40,0x00,0x35,0x40,0x00,0x32,0x40,0x00,0x93,0x3a,
0x7f,0x00,0x35,0x7f,0x00,0x32,0x7f,0x40,0x83,0x3a,0x40,0x00,0x35,0x40,0x00,0x32,
0x40,0x00,0x93,0x3a,0x7f,0x00,0x35,0x7f,0x00,0x32,0x7f,0x40,0x83,0x3a,0x40,0x00,
0x35,0x40,0x00,0x32,0x40,0x00,0x93,0x3a,0x7f,0x00,0x35,0x7f,0x00,0x32,0x7f,0x40,
0x83,0x3a,0x40,0x00,0x35,0x40,0x00,0x32,0x40,0x00,0x93,0x3a,0x7f,0x00,0x35,0x7f,
0x00,0x32,0x7f,0x81,0x40,0x83,0x3a,0x40,0x00,0x35,0x40,0x00,0x32,0x40,0x00,0x93,
0x3a,0x7f,0x00,0x35,0x7f,0x00,0x32,0x7f,0x81,0x40,0x83,0x3a,0x40,0x00,0x35,0x40,
0x00,0x32,0x40,0x00,0x93,0x3f,0x7f,0x00,0x38,0x7f,0x00,0x3c,0x7f,0x81,0x40,0x83,
0x3f,0x40,0x00,0x38,0x40,0x00,0x3c,0x40,0x00,0x93,0x3f,0x7f,0x00,0x38,0x7f,0x00,
0x3c,0x7f,0x40,0x83,0x3f,0x40,0x00,0x38,0x40,0x00,0x3c,0x40,0x00,0x93,0x3f,0x7f,
0x00,0x38,0x7f,0x00,0x3c,0x7f,0x40,0x83,0x3f,0x40,0x00,0x38,0x40,0x00,0x3c,0x40,
0x00,0x93,0x3f,0x7f,0x00,0x38,0x7f,0x00,0x3c,0x7f,0x40,0x83,0x3f,0x40,0x00,0x38,
0x40,0x00,0x3c,0x40,0x00,0x93,0x41,0x7f,0x00,0x3e,0x7f,0x00,0x39,0x7f,0x81,0x40,
0x83,0x41,0x40,0x00,0x3e,0x40,0x00,0x39,0x40,0x00,0x93,0x41,0x7f,0x00,0x3e,0x7f,
0x00,0x39,0x7f,0x81,0x40,0x83,0x41,0x40,0x00,0x3e,0x40,0x00,0x39,0x40,0x00,0x93,
0x3f,0x7f,0x00,0x38,0x7f,0x00,0x3c,0x7f,0x81,0x40,0x83,0x3f,0x40,0x00,0x38,0x40,
0x00,0x3c,0x40,0x00,0x93,0x3f,0x7f,0x00,0x38,0x7f,0x00,0x3c,0x7f,0x40,0x83,0x3f,
0x40,0x00,0x38,0x40,0x00,0x3c,0x40,0x00,0x93,0x3f,0x7f,0x00,0x38,0x7f,0x00,0x3c,
0x7f,0x40,0x83,0x3f,0x40,0x00,0x38,0x40,0x00,0x3c,0x40,0x00,0x93,0x3f,0x7f,0x00,
0x38,0x7f,0x00,0x3c,0x7f,0x40,0x83,0x3f,0x40,0x00,0x38,0x40,0x00,0x3c,0x40,0x00,
0x93,0x41,0x7f,0x00,0x3e,0x7f,0x00,0x3a,0x7f,0x81,0x40,0x83,0x41,0x40,0x00,0x3e,
0x40,0x00,0x3a,0x40,0x00,0x93,0x41,0x7f,0x00,0x3e,0x7f,0x00,0x39,0x7f,0x81,0x40,
0x83,0x41,0x40,0x00,0x3e,0x40,0x00,0x39,0x40,0x00,0x93,0x3f,0x7f,0x00,0x3c,0x7f,
0x00,0x38,0x7f,0x40,0x83,0x3f,0x40,0x00,0x3c,0x40,0x00,0x38,0x40,0x00,0x93,0x3e,
0x7f,0x00,0x3b,0x7f,0x00,0x37,0x7f,0x40,0x83,0x3e,0x40,0x00,0x3b,0x40,0x00,0x37,
0x40,0x00,0x93,0x3f,0x7f,0x00,0x3c,0x7f,0x00,0x38,0x7f,0x40,0x83,0x3f,0x40,0x00,
0x3c,0x40,0x00,0x38,0x40,0x00,0x93,0x3c,0x7f,0x00,0x35,0x7f,0x00,0x39,0x7f,0x40,
0x83,0x3c,0x40,0x00,0x35,0x40,0x00,0x39,0x40,0x00,0x93,0x3c,0x7f,0x00,0x35,0x7f,
0x00,0x39,0x7f,0x40,0x83,0x3c,0x40,0x00,0x35,0x40,0x00,0x39,0x40,0x00,0x93,0x3c,
0x7f,0x00,0x35,0x7f,0x00,0x39,0x7f,0x40,0x83,0x3c,0x40,0x00,0x35,0x40,0x00,0x39,
0x40,0x00,0x93,0x3c,0x7f,0x00,0x35,0x7f,0x00,0x39,0x7f,0x81,0x00,0x83,0x3c,0x40,
0x00,0x35,0x40,0x00,0x39,0x40,0x86,0x10,0x93,0x35,0x7f,0x00,0x29,0x7f,0x30,0x83,
0x35,0x40,0x00,0x29,0x40,0x00,0x93,0x35,0x7f,0x00,0x29,0x7f,0x30,0x83,0x35,0x40,
0x00,0x29,0x40,0x10,0x93,0x35,0x7f,0x00,0x29,0x7f,0x30,0x83,0x35,0x40,0x00,0x29,
0x40,0x10,0x93,0x35,0x7f,0x00,0x29,0x7f,0x30,0x83,0x35,0x40,0x00,0x29,0x40,0x10,
0x93,0x30,0x7f,0x00,0x33,0x7f,0x00,0x35,0x7f,0x00,0x3a,0x7f,0x60,0x83,0x30,0x40,
0x00,0x33,0x40,0x00,0x35,0x40,0x00,0x3a,0x40,0x00,0x93,0x35,0x7f,0x00,0x33,0x7f,
0x00,0x30,0x7f,0x18,0x83,0x35,0x40,0x00,0x33,0x40,0x00,0x30,0x40,0x08,0x93,0x35,
0x7f,0x00,0x33,0x7f,0x00,0x30,0x7f,0x18,0x83,0x35,0x40,0x00,0x33,0x40,0x00,0x30,
0x40,0x08,0x93,0x35,0x7f,0x00,0x33,0x7f,0x00,0x30,0x7f,0x18,0x83,0x35,0x40,0x00,
0x33,0x40,0x00,0x30,0x40,0x08,0x93,0x35,0x7f,0x00,0x33,0x7f,0x00,0x30,0x7f,0x60,
0x83,0x35,0x40,0x00,0x33,0x40,0x00,0x30,0x40,0x00,0x93,0x30,0x7f,0x00,0x35,0x7f,
0x00,0x3a,0x7f,0x18,0x83,0x30,0x40,0x00,0x35,0x40,0x00,0x3a,0x40,0x08,0x93,0x30,
0x7f,0x00,0x35,0x7f,0x00,0x3a,0x7f,0x18,0x83,0x30,0x40,0x00,0x35,0x40,0x00,0x3a,
0x40,0x08,0x93,0x30,0x7f,0x00,0x35,0x7f,0x00,0x3a,0x7f,0x18,0x83,0x30,0x40,0x00,
0x35,0x40,0x00,0x3a,0x40,0x08,0x93,0x3a,0x7f,0x00,0x35,0x7f,0x00,0x30,0x7f,0x60,
0x83,0x3a,0x40,0x00,0x35,0x40,0x00,0x30,0x40,0x00,0x93,0x33,0x7f,0x00,0x3a,0x7f,
0x00,0x30,0x7f,0x18,0x83,0x33,0x40,0x00,0x3a,0x40,0x00,0x30,0x40,0x08,0x93,0x33,
0x7f,0x00,0x3a,0x7f,0x00,0x30,0x7f,0x18,0x83,0x33,0x40,0x00,0x3a,0x40,0x00,0x30,
0x40,0x08,0x93,0x33,0x7f,0x00,0x3a,0x7f,0x00,0x30,0x7f,0x18,0x83,0x33,0x40,0x00,
0x3a,0x40,0x00,0x30,0x40,0x08,0x93,0x3a,0x7f,0x00,0x33,0x7f,0x00,0x30,0x7f,0x60,
0x83,0x3a,0x40,0x00,0x33,0x40,0x00,0x30,0x40,0x00,0x93,0x3a,0x7f,0x00,0x38,0x7f,
0x00,0x35,0x7f,0x00,0x33,0x7f,0x18,0x83,0x38,0x40,0x00,0x35,0x40,0x00,0x33,0x40,
0x08,0x3a,0x40,0x00,0x93,0x3a,0x7f,0x00,0x38,0x7f,0x00,0x35,0x7f,0x00,0x33,0x7f,
0x18,0x83,0x3a,0x40,0x00,0x38,0x40,0x00,0x35,0x40,0x00,0x33,0x40,0x08,0x93,0x3a,
0x7f,0x00,0x38,0x7f,0x00,0x35,0x7f,0x00,0x33,0x7f,0x18,0x83,0x3a,0x40,0x00,0x38,
0x40,0x00,0x35,0x40,0x00,0x33,0x40,0x08,0x93,0x3a,0x7f,0x00,0x38,0x7f,0x00,0x35,
0x7f,0x00,0x33,0x7f,0x60,0x83,0x3a,0x40,0x00,0x38,0x40,0x00,0x35,0x40,0x00,0x33,
0x40,0x00,0x93,0x33,0x7f,0x00,0x38,0x7f,0x00,0x3a,0x7f,0x18,0x83,0x33,0x40,0x00,
0x38,0x40,0x00,0x3a,0x40,0x08,0x93,0x33,0x7f,0x00,0x38,0x7f,0x00,0x3a,0x7f,0x18,
0x83,0x33,0x40,0x00,0x38,0x40,0x00,0x3a,0x40,0x08,0x93,0x33,0x7f,0x00,0x38,0x7f,
0x00,0x3a,0x7f,0x18,0x83,0x33,0x40,0x00,0x38,0x40,0x00,0x3a,0x40,0x08,0x93,0x33,
0x7f,0x00,0x38,0x7f,0x00,0x3a,0x7f,0x60,0x83,0x33,0x40,0x00,0x38,0x40,0x00,0x3a,
0x40,0x00,0x93,0x3a,0x7f,0x00,0x38,0x7f,0x00,0x33,0x7f,0x18,0x83,0x3a,0x40,0x00,
0x38,0x40,0x00,0x33,0x40,0x08,0x93,0x3a,0x7f,0x00,0x38,0x7f,0x00,0x33,0x7f,0x18,
0x83,0x3a,0x40,0x00,0x38,0x40,0x00,0x33,0x40,0x08,0x93,0x3a,0x7f,0x00,0x38,0x7f,
0x00,0x33,0x7f,0x18,0x83,0x3a,0x40,0x00,0x38,0x40,0x00,0x33,0x40,0x08,0x93,0x3c,
0x7f,0x00,0x38,0x7f,0x00,0x33,0x7f,0x00,0x2e,0x7f,0x86,0x00,0x83,0x2e,0x40,0x00,
0x33,0x40,0x00,0x38,0x40,0x00,0x3c,0x40,0x00,0x93,0x3c,0x7f,0x00,0x38,0x7f,0x00,
0x33,0x7f,0x00,0x2e,0x7f,0x83,0x00,0x83,0x3c,0x40,0x00,0x38,0x40,0x00,0x33,0x40,
0x00,0x2e,0x40,0x00,0x93,0x35,0x7f,0x85,0x20,0x83,0x35,0x40,0x00,0x93,0x35,0x7f,
0x60,0x83,0x35,0x40,0x00,0x93,0x39,0x7f,0x85,0x20,0x83,0x39,0x40,0x00,0x93,0x39,
0x7f,0x60,0x83,0x39,0x40,0x00,0x93,0x38,0x7f,0x86,0x00,0x83,0x38,0x40,0x00,0xff,
0x2f,0x00,0x4d,0x54,0x72,0x6b,0x00,0x00,0x06,0x27,0x00,0xff,0x21,0x01,0x00,0x00,
0xff,0x03,0x14,0x54,0x75,0x62,0x61,0x73,0x20,0x20,0x20,0x20,0x20,0x20,0x20,0x20,
0x20,0x20,0x20,0x20,0x20,0x20,0x20,0x00,0xc5,0x3a,0x86,0x00,0xb5,0x07,0x60,0x00,
0x0b,0x7f,0x00,0x5b,0x7f,0x00,0x5d,0x00,0x00,0x0a,0x40,0x00,0x00,0x00,0x00,0x20,
0x00,0x00,0x01,0x00,0x00,0x95,0x2e,0x7f,0x82,0x20,0x85,0x2e,0x40,0x8f,0x60,0x95,
0x2e,0x7f,0x60,0x85,0x2e,0x40,0x00,0x95,0x2e,0x7f,0x30,0x85,0x2e,0x40,0x00,0x95,
0x2e,0x7f,0x30,0x85,0x2e,0x40,0x00,0x95,0x2e,0x7f,0x82,0x20,0x85,0x2e,0x40,0x00,
0x95,0x2e,0x7f,0x20,0x85,0x2e,0x40,0x00,0x95,0x2e,0x7f,0x20,0x85,0x2e,0x40,0x00,
0x95,0x2e,0x7f,0x20,0x85,0x2e,0x40,0x00,0x95,0x2e,0x7f,0x60,0x85,0x2e,0x40,0x00,
0x95,0x2e,0x7f,0x60,0x85,0x2e,0x40,0x60,0x95,0x33,0x7f,0x60,0x85,0x33,0x40,0x60,
0x95,0x33,0x7f,0x60,0x85,0x33,0x40,0x00,0x95,0x33,0x7f,0x60,0x85,0x33,0x40,0x00,
0x95,0x33,0x7f,0x0c,0x85,0x33,0x40,0x0c,0x95,0x33,0x7f,0x0c,0x85,0x33,0x40,0x0c,
0x95,0x33,0x7f,0x30,0x85,0x33,0x40,0x00,0x95,0x2e,0x7f,0x40,0x85,0x2e,0x40,0x00,
0x95,0x2e,0x7f,0x40,0x85,0x2e,0x40,0x00,0x95,0x2e,0x7f,0x40,0x85,0x2e,0x40,0x60,
0x95,0x33,0x7f,0x60,0x85,0x33,0x40,0x60,0x95,0x33,0x7f,0x60,0x85,0x33,0x40,0x00,
0x95,0x33,0x7f,0x60,0x85,0x33,0x40,0x00,0x95,0x33,0x7f,0x0c,0x85,0x33,0x40,0x0c,
0x95,0x33,0x7f,0x0c,0x85,0x33,0x40,0x0c,0x95,0x33,0x7f,0x30,0x85,0x33,0x40,0x00,
0x95,0x2e,0x7f,0x40,0x85,0x2e,0x40,0x00,0x95,0x2e,0x7f,0x40,0x85,0x2e,0x40,0x00,
0x95,0x2e,0x7f,0x40,0x85,0x2e,0x40,0x00,0x95,0x2c,0x7f,0x40,0x85,0x2c,0x40,0x00,
0x95,0x2b,0x7f,0x40,0x85,0x2b,0x40,0x00,0x95,0x2c,0x7f,0x40,0x85,0x2c,0x40,0x00,
0x95,0x29,0x7f,0x82,0x20,0x85,0x29,0x40,0x00,0x95,0x29,0x7f,0x20,0x85,0x29,0x40,
0x00,0x95,0x29,0x7f,0x20,0x85,0x29,0x40,0x00,0x95,0x29,0x7f,0x20,0x85,0x29,0x40,
0x00,0x95,0x29,0x7f,0x60,0x85,0x29,0x40,0x00,0x95,0x29,0x7f,0x20,0x85,0x29,0x40,
0x00,0x95,0x29,0x7f,0x20,0x85,0x29,0x40,0x00,0x95,0x29,0x7f,0x20,0x85,0x29,0x40,
0x00,0x95,0x2e,0x7f,0x81,0x40,0x85,0x2e,0x40,0x00,0x95,0x2d,0x7f,0x81,0x40,0x85,
0x2d,0x40,0x00,0x95,0x2d,0x7f,0x81,0x40,0x85,0x2d,0x40,0x00,0x95,0x2e,0x7f,0x40,
0x85,0x2e,0x40,0x00,0x95,0x2e,0x7f,0x40,0x85,0x2e,0x40,0x00,0x95,0x2d,0x7f,0x40,
0x85,0x2d,0x40,0x00,0x95,0x2b,0x7f,0x81,0x40,0x85,0x2b,0x40,0x00,0x95,0x2b,0x7f,
0x81,0x00,0x85,0x2b,0x40,0x00,0x95,0x33,0x7f,0x40,0x85,0x33,0x40,0x00,0x95,0x33,
0x7f,0x40,0x85,0x33,0x40,0x00,0x95,0x32,0x7f,0x40,0x85,0x32,0x40,0x00,0x95,0x30,
0x7f,0x40,0x85,0x30,0x40,0x00,0x95,0x2e,0x7f,0x40,0x85,0x2e,0x40,0x00,0x95,0x2d,
0x7f,0x40,0x85,0x2d,0x40,0x00,0x95,0x2b,0x7f,0x40,0x85,0x2b,0x40,0x00,0x95,0x29,
0x7f,0x81,0x40,0x85,0x29,0x40,0x00,0x95,0x2b,0x7f,0x60,0x85,0x2b,0x40,0x00,0x95,
0x2d,0x7f,0x60,0x85,0x2d,0x40,0x00,0x95,0x2e,0x7f,0x40,0x85,0x2e,0x40,0x00,0x95,
0x2d,0x7f,0x40,0x85,0x2d,0x40,0x00,0x95,0x2b,0x7f,0x40,0x85,0x2b,0x40,0x00,0x95,
0x29,0x7f,0x60,0x85,0x29,0x40,0x00,0x95,0x2e,0x7f,0x60,0x85,0x2e,0x40,0x00,0x95,
0x2c,0x7f,0x40,0x85,0x2c,0x40,0x00,0x95,0x2b,0x7f,0x40,0x85,0x2b,0x40,0x00,0x95,
0x2c,0x7f,0x40,0x85,0x2c,0x40,0x00,0x95,0x29,0x7f,0x83,0x00,0x85,0x29,0x40,0xa5,
0x40,0x95,0x2e,0x7f,0x81,0x00,0x85,0x2e,0x40,0x00,0x95,0x2c,0x7f,0x40,0x85,0x2c,
0x40,0x00,0x95,0x2a,0x7f,0x81,0x00,0x85,0x2a,0x40,0x00,0x95,0x29,0x7f,0x40,0x85,
0x29,0x40,0x00,0x95,0x27,0x7f,0x81,0x00,0x85,0x27,0x40,0x00,0x95,0x25,0x7f,0x40,
0x85,0x25,0x40,0x00,0x95,0x24,0x7f,0x81,0x00,0x85,0x24,0x40,0x00,0x95,0x22,0x7f,
0x40,0x85,0x22,0x40,0x00,0x95,0x29,0x7f,0x81,0x40,0x85,0x29,0x40,0x00,0x95,0x29,
0x7f,0x40,0x85,0x29,0x40,0x00,0x95,0x29,0x7f,0x40,0x85,0x29,0x40,0x00,0x95,0x29,
0x7f,0x40,0x85,0x29,0x40,0x00,0x95,0x29,0x7f,0x81,0x40,0x85,0x29,0x40,0x00,0x95,
0x29,0x7f,0x60,0x85,0x29,0x40,0x00,0x95,0x29,0x7f,0x20,0x85,0x29,0x40,0x00,0x95,
0x29,0x7f,0x20,0x85,0x29,0x40,0x00,0x95,0x29,0x7f,0x20,0x85,0x29,0x40,0x00,0x95,
0x29,0x7f,0x82,0x20,0x85,0x29,0x40,0x00,0x95,0x29,0x7f,0x60,0x85,0x29,0x40,0x00,
0x95,0x29,0x7f,0x81,0x40,0x85,0x29,0x40,0x00,0x95,0x29,0x7f,0x81,0x40,0x85,0x29,
0x40,0x00,0x95,0x2e,0x7f,0x81,0x40,0x85,0x2e,0x40,0x00,0x95,0x2e,0x7f,0x82,0x20,
0x85,0x2e,0x40,0x00,0x95,0x2e,0x7f,0x18,0x85,0x2e,0x40,0x08,0x95,0x2e,0x7f,0x18,
0x85,0x2e,0x40,0x08,0x95,0x2e,0x7f,0x18,0x85,0x2e,0x40,0x08,0x95,0x2e,0x7f,0x60,
0x85,0x2e,0x40,0x00,0x95,0x2e,0x7f,0x60,0x85,0x2e,0x40,0x00,0x95,0x29,0x7f,0x60,
0x85,0x29,0x40,0x00,0x95,0x29,0x7f,0x81,0x40,0x85,0x29,0x40,0x00,0x95,0x29,0x7f,
0x18,0x85,0x29,0x40,0x00,0x95,0x29,0x7f,0x18,0x85,0x29,0x40,0x00,0x95,0x29,0x7f,
0x18,0x85,0x29,0x40,0x00,0x95,0x29,0x7f,0x18,0x85,0x29,0x40,0x00,0x95,0x29,0x7f,
0x60,0x85,0x29,0x40,0x00,0x95,0x29,0x7f,0x18,0x85,0x29,0x40,0x00,0x95,0x29,0x7f,
0x18,0x85,0x29,0x40,0x00,0x95,0x29,0x7f,0x18,0x85,0x29,0x40,0x00,0x95,0x29,0x7f,
0x18,0x85,0x29,0x40,0x00,0x95,0x2e,0x7f,0x40,0x85,0x2e,0x40,0x00,0x95,0x2e,0x7f,
0x40,0x85,0x2e,0x40,0x00,0x95,0x2e,0x7f,0x40,0x85,0x2e,0x40,0x00,0x95,0x29,0x7f,
0x60,0x85,0x29,0x40,0x00,0x95,0x29,0x7f,0x81,0x40,0x85,0x29,0x40,0x00,0x95,0x29,
0x7f,0x18,0x85,0x29,0x40,0x00,0x95,0x29,0x7f,0x18,0x85,0x29,0x40,0x00,0x95,0x29,
0x7f,0x18,0x85,0x29,0x40,0x00,0x95,0x29,0x7f,0x18,0x85,0x29,0x40,0x00,0x95,0x29,
0x7f,0x60,0x85,0x29,0x40,0x00,0x95,0x29,0x7f,0x18,0x85,0x29,0x40,0x00,0x95,0x29,
0x7f,0x18,0x85,0x29,0x40,0x00,0x95,0x29,0x7f,0x18,0x85,0x29,0x40,0x00,0x95,0x29,
0x7f,0x18,0x85,0x29,0x40,0x00,0x95,0x2e,0x7f,0x40,0x85,0x2e,0x40,0x00,0x95,0x2e,
0x7f,0x40,0x85,0x2e,0x40,0x00,0x95,0x2e,0x7f,0x40,0x85,0x2e,0x40,0x00,0x95,0x29,
0x7f,0x82,0x20,0x85,0x29,0x40,0x00,0x95,0x29,0x7f,0x81,0x40,0x85,0x29,0x40,0x00,
0x95,0x29,0x7f,0x60,0x85,0x29,0x40,0x00,0x95,0x29,0x7f,0x40,0x85,0x29,0x40,0x00,
0x95,0x29,0x7f,0x40,0x85,0x29,0x40,0x00,0x95,0x29,0x7f,0x40,0x85,0x29,0x40,0x00,
0x95,0x2e,0x7f,0x81,0x40,0x85,0x2e,0x40,0x00,0x95,0x2d,0x7f,0x81,0x40,0x85,0x2d,
0x40,0x00,0x95,0x2d,0x7f,0x81,0x40,0x85,0x2d,0x40,0x00,0x95,0x2b,0x7f,0x81,0x40,
0x85,0x2b,0x40,0x00,0x95,0x2b,0x7f,0x81,0x40,0x85,0x2b,0x40,0x00,0x95,0x29,0x7f,
0x81,0x40,0x85,0x29,0x40,0x00,0x95,0x2e,0x7f,0x81,0x40,0x85,0x2e,0x40,0x00,0x95,
0x29,0x7f,0x40,0x85,0x29,0x40,0x00,0x95,0x29,0x7f,0x40,0x85,0x29,0x40,0x00,0x95,
0x29,0x7f,0x40,0x85,0x29,0x40,0x00,0x95,0x29,0x7f,0x81,0x40,0x85,0x29,0x40,0x00,
0x95,0x29,0x7f,0x81,0x40,0x85,0x29,0x40,0x00,0x95,0x33,0x7f,0x40,0x85,0x33,0x40,
0x00,0x95,0x32,0x7f,0x40,0x85,0x32,0x40,0x00,0x95,0x30,0x7f,0x40,0x85,0x30,0x40,
0x00,0x95,0x2e,0x7f,0x40,0x85,0x2e,0x40,0x00,0x95,0x2d,0x7f,0x40,0x85,0x2d,0x40,
0x00,0x95,0x2b,0x7f,0x40,0x85,0x2b,0x40,0x00,0x95,0x29,0x7f,0x40,0x85,0x29,0x40,
0x00,0x95,0x29,0x7f,0x40,0x85,0x29,0x40,0x00,0x95,0x29,0x7f,0x40,0x85,0x29,0x40,
0x00,0x95,0x29,0x7f,0x88,0x40,0x85,0x29,0x40,0x00,0x95,0x29,0x7f,0x40,0x85,0x29,
0x40,0x00,0x95,0x29,0x7f,0x40,0x85,0x29,0x40,0x00,0x95,0x29,0x7f,0x40,0x85,0x29,
0x40,0x00,0x95,0x29,0x7f,0x40,0x85,0x29,0x40,0x00,0x95,0x29,0x7f,0x60,0x85,0x29,
0x40,0x00,0x95,0x29,0x7f,0x20,0x85,0x29,0x40,0x00,0x95,0x29,0x7f,0x20,0x85,0x29,
0x40,0x00,0x95,0x29,0x7f,0x20,0x85,0x29,0x40,0x00,0x95,0x29,0x7f,0x60,0x85,0x29,
0x40,0x00,0x95,0x29,0x7f,0x20,0x85,0x29,0x40,0x00,0x95,0x29,0x7f,0x20,0x85,0x29,
0x40,0x00,0x95,0x29,0x7f,0x20,0x85,0x29,0x40,0x00,0x95,0x29,0x7f,0x60,0x85,0x29,
0x40,0x00,0x95,0x29,0x7f,0x20,0x85,0x29,0x40,0x00,0x95,0x29,0x7f,0x20,0x85,0x29,
0x40,0x00,0x95,0x29,0x7f,0x20,0x85,0x29,0x40,0x00,0x95,0x29,0x7f,0x60,0x85,0x29,
0x40,0x00,0x95,0x29,0x7f,0x20,0x85,0x29,0x40,0x00,0x95,0x29,0x7f,0x20,0x85,0x29,
0x40,0x00,0x95,0x29,0x7f,0x20,0x85,0x29,0x40,0x00,0x95,0x29,0x7f,0x60,0x85,0x29,
0x40,0x00,0x95,0x29,0x7f,0x20,0x85,0x29,0x40,0x00,0x95,0x29,0x7f,0x20,0x85,0x29,
0x40,0x00,0x95,0x29,0x7f,0x20,0x85,0x29,0x40,0x00,0x95,0x29,0x7f,0x60,0x85,0x29,
0x40,0x00,0x95,0x29,0x7f,0x20,0x85,0x29,0x40,0x00,0x95,0x29,0x7f,0x20,0x85,0x29,
0x40,0x00,0x95,0x29,0x7f,0x20,0x85,0x29,0x40,0x00,0x95,0x22,0x7f,0x89,0x00,0x85,
0x22,0x40,0x00,0x95,0x25,0x7f,0x85,0x20,0x85,0x25,0x40,0x00,0x95,0x25,0x7f,0x60,
0x85,0x25,0x40,0x00,0x95,0x21,0x7f,0x85,0x20,0x85,0x21,0x40,0x00,0x95,0x21,0x7f,
0x60,0x85,0x21,0x40,0x00,0x95,0x20,0x7f,0x86,0x00,0x85,0x20,0x40,0x00,0xff,0x2f,
0x00,0x4d,0x54,0x72,0x6b,0x00,0x00,0x00,0x21,0x00,0xff,0x21,0x01,0x00,0x00,0xff,
0x03,0x14,0x20,0x20,0x20,0x20,0x20,0x20,0x20,0x20,0x20,0x20,0x20,0x20,0x20,0x20,
0x20,0x20,0x20,0x20,0x20,0x20,0x00,0xff,0x2f,0x00,0x4d,0x54,0x72,0x6b,0x00,0x00,
0x08,0xd7,0x00,0xff,0x21,0x01,0x00,0x00,0xff,0x03,0x14,0x54,0x69,0x6d,0x70,0x61,
0x6e,0x69,0x20,0x20,0x20,0x20,0x20,0x20,0x20,0x20,0x20,0x20,0x20,0x20,0x20,0x00,
0xcd,0x2f,0x86,0x00,0xbd,0x07,0x40,0x00,0x0b,0x7f,0x00,0x5b,0x7f,0x00,0x5d,0x00,
0x00,0x0a,0x40,0x00,0x00,0x00,0x00,0x20,0x00,0x00,0x01,0x00,0x90,0x40,0x9d,0x29,
0x7f,0x40,0x8d,0x29,0x40,0x00,0x9d,0x29,0x7f,0x40,0x8d,0x29,0x40,0x00,0x9d,0x29,
0x7f,0x40,0x8d,0x29,0x40,0x60,0x9d,0x2e,0x7f,0x30,0x8d,0x2e,0x40,0x00,0x9d,0x2e,
0x7f,0x30,0x8d,0x2e,0x40,0x00,0x9d,0x2e,0x7f,0x82,0x20,0x8d,0x2e,0x40,0x00,0x9d,
0x2e,0x7f,0x20,0x8d,0x2e,0x40,0x00,0x9d,0x2e,0x7f,0x20,0x8d,0x2e,0x40,0x00,0x9d,
0x2e,0x7f,0x20,0x8d,0x2e,0x40,0x00,0x9d,0x2e,0x7f,0x60,0x8d,0x2e,0x40,0x00,0x9d,
0x2e,0x7f,0x60,0x8d,0x2e,0x40,0x60,0x9d,0x33,0x7f,0x60,0x8d,0x33,0x40,0x60,0x9d,
0x33,0x7f,0x60,0x8d,0x33,0x40,0x00,0x9d,0x33,0x7f,0x60,0x8d,0x33,0x40,0x00,0x9d,
0x33,0x7f,0x0c,0x8d,0x33,0x40,0x0c,0x9d,0x33,0x7f,0x0c,0x8d,0x33,0x40,0x0c,0x9d,
0x33,0x7f,0x30,0x8d,0x33,0x40,0x00,0x9d,0x2e,0x7f,0x40,0x8d,0x2e,0x40,0x00,0x9d,
0x2e,0x7f,0x40,0x8d,0x2e,0x40,0x00,0x9d,0x2e,0x7f,0x40,0x8d,0x2e,0x40,0x60,0x9d,
0x33,0x7f,0x60,0x8d,0x33,0x40,0x60,0x9d,0x33,0x7f,0x60,0x8d,0x33,0x40,0x00,0x9d,
0x33,0x7f,0x60,0x8d,0x33,0x40,0x00,0x9d,0x33,0x7f,0x0c,0x8d,0x33,0x40,0x0c,0x9d,
0x33,0x7f,0x0c,0x8d,0x33,0x40,0x0c,0x9d,0x33,0x7f,0x30,0x8d,0x33,0x40,0x00,0x9d,
0x2e,0x7f,0x40,0x8d,0x2e,0x40,0x00,0x9d,0x2e,0x7f,0x40,0x8d,0x2e,0x40,0x00,0x9d,
0x2e,0x7f,0x40,0x8d,0x2e,0x40,0x00,0x9d,0x2c,0x7f,0x40,0x8d,0x2c,0x40,0x00,0x9d,
0x2b,0x7f,0x40,0x8d,0x2b,0x40,0x00,0x9d,0x2c,0x7f,0x40,0x8d,0x2c,0x40,0x00,0x9d,
0x29,0x7f,0x82,0x20,0x8d,0x29,0x40,0x00,0x9d,0x29,0x7f,0x20,0x8d,0x29,0x40,0x00,
0x9d,0x29,0x7f,0x20,0x8d,0x29,0x40,0x00,0x9d,0x29,0x7f,0x20,0x8d,0x29,0x40,0x00,
0x9d,0x29,0x7f,0x60,0x8d,0x29,0x40,0x00,0x9d,0x29,0x7f,0x20,0x8d,0x29,0x40,0x00,
0x9d,0x29,0x7f,0x20,0x8d,0x29,0x40,0x00,0x9d,0x29,0x7f,0x20,0x8d,0x29,0x40,0x00,
0x9d,0x2e,0x7f,0x60,0x8d,0x2e,0x40,0x60,0x9d,0x2d,0x7f,0x81,0x00,0x8d,0x2d,0x40,
0x40,0x9d,0x2d,0x7f,0x81,0x00,0x8d,0x2d,0x40,0x40,0x9d,0x2e,0x7f,0x40,0x8d,0x2e,
0x40,0x00,0x9d,0x2e,0x7f,0x40,0x8d,0x2e,0x40,0x00,0x9d,0x2d,0x7f,0x40,0x8d,0x2d,
0x40,0x00,0x9d,0x2b,0x7f,0x40,0x8d,0x2b,0x40,0x81,0x00,0x9d,0x2b,0x7f,0x81,0x00,
0x8d,0x2b,0x40,0x00,0x9d,0x33,0x7f,0x40,0x8d,0x33,0x40,0x00,0x9d,0x33,0x7f,0x60,
0x8d,0x33,0x40,0x60,0x9d,0x32,0x7f,0x60,0x8d,0x32,0x40,0x60,0x9d,0x28,0x7f,0x40,
0x8d,0x28,0x40,0x81,0x00,0x9d,0x2b,0x7f,0x60,0x8d,0x2b,0x40,0x00,0x9d,0x2d,0x7f,
0x60,0x8d,0x2d,0x40,0x00,0x9d,0x2e,0x7f,0x60,0x8d,0x2e,0x40,0x60,0x9d,0x29,0x7f,
0x60,0x8d,0x29,0x40,0x60,0x9d,0x2c,0x7f,0x40,0x8d,0x2c,0x40,0x00,0x9d,0x2b,0x7f,
0x40,0x8d,0x2b,0x40,0x00,0x9d,0x2c,0x7f,0x40,0x8d,0x2c,0x40,0x00,0x9d,0x29,0x7f,
0x82,0x20,0x8d,0x29,0x40,0x00,0x9d,0x29,0x7f,0x18,0x8d,0x29,0x40,0x08,0x9d,0x29,
0x7f,0x18,0x8d,0x29,0x40,0x08,0x9d,0x29,0x7f,0x18,0x8d,0x29,0x40,0x08,0x9d,0x29,
0x7f,0x60,0x8d,0x29,0x40,0x00,0x9d,0x29,0x7f,0x18,0x8d,0x29,0x40,0x08,0x9d,0x29,
0x7f,0x18,0x8d,0x29,0x40,0x08,0x9d,0x29,0x7f,0x18,0x8d,0x29,0x40,0xaa,0x08,0x9d,
0x29,0x7f,0x00,0xbd,0x07,0x40,0x18,0x8d,0x29,0x40,0x00,0x9d,0x29,0x7f,0x18,0x8d,
0x29,0x40,0x00,0x9d,0x29,0x7f,0x18,0x8d,0x29,0x40,0x00,0x9d,0x29,0x7f,0x18,0x8d,
0x29,0x40,0x00,0x9d,0x29,0x7f,0x18,0x8d,0x29,0x40,0x00,0x9d,0x29,0x7f,0x18,0x8d,
0x29,0x40,0x00,0x9d,0x29,0x7f,0x18,0x8d,0x29,0x40,0x00,0x9d,0x29,0x7f,0x18,0x8d,
0x29,0x40,0x00,0x9d,0x29,0x7f,0x18,0x8d,0x29,0x40,0x00,0x9d,0x29,0x7f,0x18,0x8d,
0x29,0x40,0x00,0x9d,0x29,0x7f,0x18,0x8d,0x29,0x40,0x00,0x9d,0x29,0x7f,0x18,0x8d,
0x29,0x40,0x00,0x9d,0x29,0x7f,0x18,0x8d,0x29,0x40,0x00,0x9d,0x29,0x7f,0x18,0x8d,
0x29,0x40,0x00,0x9d,0x29,0x7f,0x18,0x8d,0x29,0x40,0x00,0x9d,0x29,0x7f,0x18,0x8d,
0x29,0x40,0x00,0x9d,0x29,0x7f,0x18,0x8d,0x29,0x40,0x00,0x9d,0x29,0x7f,0x18,0x8d,
0x29,0x40,0x00,0x9d,0x29,0x7f,0x18,0x8d,0x29,0x40,0x00,0x9d,0x29,0x7f,0x18,0x8d,
0x29,0x40,0x00,0x9d,0x29,0x7f,0x18,0x8d,0x29,0x40,0x00,0x9d,0x29,0x7f,0x18,0x8d,
0x29,0x40,0x00,0x9d,0x29,0x7f,0x18,0x8d,0x29,0x40,0x00,0x9d,0x29,0x7f,0x18,0x8d,
0x29,0x40,0x00,0x9d,0x29,0x7f,0x18,0x8d,0x29,0x40,0x00,0x9d,0x29,0x7f,0x18,0x8d,
0x29,0x40,0x00,0x9d,0x29,0x7f,0x18,0x8d,0x29,0x40,0x00,0x9d,0x29,0x7f,0x18,0x8d,
0x29,0x40,0x00,0x9d,0x29,0x7f,0x18,0x8d,0x29,0x40,0x00,0x9d,0x29,0x7f,0x18,0x8d,
0x29,0x40,0x00,0x9d,0x29,0x7f,0x18,0x8d,0x29,0x40,0x00,0x9d,0x29,0x7f,0x18,0x8d,
0x29,0x40,0x00,0x9d,0x29,0x7f,0x18,0x8d,0x29,0x40,0x00,0x9d,0x29,0x7f,0x18,0x8d,
0x29,0x40,0x00,0x9d,0x29,0x7f,0x18,0x8d,0x29,0x40,0x00,0x9d,0x29,0x7f,0x18,0x8d,
0x29,0x40,0x00,0x9d,0x29,0x7f,0x18,0x8d,0x29,0x40,0x00,0x9d,0x29,0x7f,0x18,0x8d,
0x29,0x40,0x00,0x9d,0x29,0x7f,0x18,0x8d,0x29,0x40,0x00,0x9d,0x29,0x7f,0x18,0x8d,
0x29,0x40,0x00,0x9d,0x29,0x7f,0x18,0x8d,0x29,0x40,0x00,0x9d,0x29,0x7f,0x18,0x8d,
0x29,0x40,0x00,0x9d,0x29,0x7f,0x18,0x8d,0x29,0x40,0x00,0x9d,0x29,0x7f,0x18,0x8d,
0x29,0x40,0x00,0x9d,0x29,0x7f,0x18,0x8d,0x29,0x40,0x00,0x9d,0x29,0x7f,0x18,0x8d,
0x29,0x40,0x00,0x9d,0x29,0x7f,0x18,0x8d,0x29,0x40,0x00,0x9d,0x29,0x7f,0x18,0x8d,
0x29,0x40,0x00,0x9d,0x29,0x7f,0x00,0xbd,0x07,0x40,0x18,0x8d,0x29,0x40,0x00,0x9d,
0x29,0x7f,0x18,0x8d,0x29,0x40,0x00,0x9d,0x29,0x7f,0x00,0xbd,0x07,0x48,0x18,0x8d,
0x29,0x40,0x00,0x9d,0x29,0x7f,0x18,0x8d,0x29,0x40,0x00,0x9d,0x29,0x7f,0x00,0xbd,
0x07,0x50,0x18,0x8d,0x29,0x40,0x00,0x9d,0x29,0x7f,0x18,0x8d,0x29,0x40,0x00,0x9d,
0x29,0x7f,0x00,0xbd,0x07,0x58,0x18,0x8d,0x29,0x40,0x00,0x9d,0x29,0x7f,0x18,0x8d,
0x29,0x40,0x00,0x9d,0x29,0x7f,0x00,0xbd,0x07,0x60,0x18,0x8d,0x29,0x40,0x00,0x9d,
0x29,0x7f,0x18,0x8d,0x29,0x40,0x00,0x9d,0x29,0x7f,0x00,0xbd,0x07,0x68,0x18,0x8d,
0x29,0x40,0x00,0x9d,0x29,0x7f,0x18,0x8d,0x29,0x40,0x00,0x9d,0x29,0x7f,0x00,0xbd,
0x07,0x70,0x18,0x8d,0x29,0x40,0x00,0x9d,0x29,0x7f,0x18,0x8d,0x29,0x40,0x00,0x9d,
0x29,0x7f,0x18,0x8d,0x29,0x40,0x00,0x9d,0x29,0x7f,0x18,0x8d,0x29,0x40,0x00,0x9d,
0x2e,0x7f,0x81,0x40,0x8d,0x2e,0x40,0x00,0x9d,0x2e,0x7f,0x82,0x20,0x8d,0x2e,0x40,
0x00,0x9d,0x2e,0x7f,0x18,0x8d,0x2e,0x40,0x08,0x9d,0x2e,0x7f,0x18,0x8d,0x2e,0x40,
0x08,0x9d,0x2e,0x7f,0x18,0x8d,0x2e,0x40,0x08,0x9d,0x2e,0x7f,0x60,0x8d,0x2e,0x40,
0x00,0x9d,0x2e,0x7f,0x60,0x8d,0x2e,0x40,0x60,0x9d,0x29,0x7f,0x81,0x40,0x8d,0x29,
0x40,0x00,0x9d,0x29,0x7f,0x81,0x40,0x8d,0x29,0x40,0x00,0x9d,0x29,0x7f,0x18,0x8d,
0x29,0x40,0x00,0x9d,0x29,0x7f,0x18,0x8d,0x29,0x40,0x00,0x9d,0x29,0x7f,0x18,0x8d,
0x29,0x40,0x00,0x9d,0x29,0x7f,0x18,0x8d,0x29,0x40,0x00,0x9d,0x2e,0x7f,0x40,0x8d,
0x2e,0x40,0x00,0x9d,0x2e,0x7f,0x40,0x8d,0x2e,0x40,0x00,0x9d,0x2e,0x7f,0x40,0x8d,
0x2e,0x40,0x60,0x9d,0x29,0x7f,0x81,0x40,0x8d,0x29,0x40,0x00,0x9d,0x29,0x7f,0x81,
0x40,0x8d,0x29,0x40,0x00,0x9d,0x29,0x7f,0x18,0x8d,0x29,0x40,0x00,0x9d,0x29,0x7f,
0x18,0x8d,0x29,0x40,0x00,0x9d,0x29,0x7f,0x18,0x8d,0x29,0x40,0x00,0x9d,0x29,0x7f,
0x18,0x8d,0x29,0x40,0x00,0x9d,0x2e,0x7f,0x40,0x8d,0x2e,0x40,0x00,0x9d,0x2e,0x7f,
0x40,0x8d,0x2e,0x40,0x00,0x9d,0x2e,0x7f,0x40,0x8d,0x2e,0x40,0x00,0x9d,0x29,0x7f,
0x60,0x8d,0x29,0x40,0x00,0x9d,0x29,0x7f,0x81,0x40,0x8d,0x29,0x40,0x00,0x9d,0x29,
0x7f,0x81,0x40,0x8d,0x29,0x40,0x00,0x9d,0x29,0x7f,0x60,0x8d,0x29,0x40,0x00,0x9d,
0x29,0x7f,0x40,0x8d,0x29,0x40,0x00,0x9d,0x29,0x7f,0x40,0x8d,0x29,0x40,0x00,0x9d,
0x29,0x7f,0x40,0x8d,0x29,0x40,0x00,0x9d,0x2e,0x7f,0x81,0x40,0x8d,0x2e,0x40,0x00,
0x9d,0x2d,0x7f,0x81,0x40,0x8d,0x2d,0x40,0x00,0x9d,0x2d,0x7f,0x81,0x40,0x8d,0x2d,
0x40,0x00,0x9d,0x2b,0x7f,0x81,0x40,0x8d,0x2b,0x40,0x00,0x9d,0x2b,0x7f,0x81,0x40,
0x8d,0x2b,0x40,0x00,0x9d,0x29,0x7f,0x81,0x40,0x8d,0x29,0x40,0x00,0x9d,0x2e,0x7f,
0x81,0x40,0x8d,0x2e,0x40,0x00,0x9d,0x29,0x7f,0x40,0x8d,0x29,0x40,0x00,0x9d,0x29,
0x7f,0x40,0x8d,0x29,0x40,0x00,0x9d,0x29,0x7f,0x40,0x8d,0x29,0x40,0x00,0x9d,0x29,
0x7f,0x81,0x40,0x8d,0x29,0x40,0x00,0x9d,0x29,0x7f,0x81,0x40,0x8d,0x29,0x40,0x00,
0x9d,0x29,0x7f,0x40,0x8d,0x29,0x40,0x00,0x9d,0x29,0x7f,0x40,0x8d,0x29,0x40,0x00,
0x9d,0x29,0x7f,0x40,0x8d,0x29,0x40,0x00,0x9d,0x29,0x7f,0x40,0x8d,0x29,0x40,0x00,
0x9d,0x29,0x7f,0x40,0x8d,0x29,0x40,0x00,0x9d,0x29,0x7f,0x40,0x8d,0x29,0x40,0x00,
0x9d,0x29,0x7f,0x18,0x8d,0x29,0x40,0x00,0x9d,0x29,0x7f,0x18,0x8d,0x29,0x40,0x00,
0x9d,0x29,0x7f,0x18,0x8d,0x29,0x40,0x00,0x9d,0x29,0x7f,0x18,0x8d,0x29,0x40,0x00,
0x9d,0x29,0x7f,0x18,0x8d,0x29,0x40,0x00,0x9d,0x29,0x7f,0x48,0x8d,0x29,0x40,0x00,
0x9d,0x29,0x7f,0x40,0x8d,0x29,0x40,0x00,0x9d,0x29,0x7f,0x40,0x8d,0x29,0x40,0x00,
0x9d,0x29,0x7f,0x40,0x8d,0x29,0x40,0x00,0x9d,0x29,0x7f,0x83,0x00,0x8d,0x29,0x40,
0x83,0x60,0xbd,0x07,0x50,0x20,0x9d,0x29,0x7f,0x40,0x8d,0x29,0x40,0x00,0x9d,0x29,
0x7f,0x40,0x8d,0x29,0x40,0x00,0x9d,0x29,0x7f,0x40,0x8d,0x29,0x40,0x00,0x9d,0x29,
0x7f,0x40,0x8d,0x29,0x40,0x00,0x9d,0x29,0x7f,0x60,0x8d,0x29,0x40,0x00,0x9d,0x29,
0x7f,0x20,0x8d,0x29,0x40,0x00,0x9d,0x29,0x7f,0x20,0x8d,0x29,0x40,0x00,0x9d,0x29,
0x7f,0x20,0x8d,0x29,0x40,0x00,0x9d,0x29,0x7f,0x60,0x8d,0x29,0x40,0x00,0x9d,0x29,
0x7f,0x20,0x8d,0x29,0x40,0x00,0x9d,0x29,0x7f,0x20,0x8d,0x29,0x40,0x00,0x9d,0x29,
0x7f,0x20,0x8d,0x29,0x40,0x00,0x9d,0x29,0x7f,0x60,0x8d,0x29,0x40,0x00,0x9d,0x29,
0x7f,0x20,0x8d,0x29,0x40,0x00,0x9d,0x29,0x7f,0x20,0x8d,0x29,0x40,0x00,0x9d,0x29,
0x7f,0x20,0x8d,0x29,0x40,0x00,0x9d,0x29,0x7f,0x60,0x8d,0x29,0x40,0x00,0x9d,0x29,
0x7f,0x20,0x8d,0x29,0x40,0x00,0x9d,0x29,0x7f,0x20,0x8d,0x29,0x40,0x00,0x9d,0x29,
0x7f,0x20,0x8d,0x29,0x40,0x00,0x9d,0x29,0x7f,0x60,0x8d,0x29,0x40,0x00,0x9d,0x29,
0x7f,0x20,0x8d,0x29,0x40,0x00,0x9d,0x29,0x7f,0x20,0x8d,0x29,0x40,0x00,0x9d,0x29,
0x7f,0x20,0x8d,0x29,0x40,0x00,0x9d,0x29,0x7f,0x60,0x8d,0x29,0x40,0x00,0x9d,0x29,
0x7f,0x20,0x8d,0x29,0x40,0x00,0x9d,0x29,0x7f,0x20,0x8d,0x29,0x40,0x00,0x9d,0x29,
0x7f,0x20,0x8d,0x29,0x40,0x00,0x9d,0x2e,0x7f,0x18,0x8d,0x2e,0x40,0x00,0x9d,0x2e,
0x7f,0x18,0x8d,0x2e,0x40,0x00,0x9d,0x2e,0x7f,0x18,0x8d,0x2e,0x40,0x00,0x9d,0x2e,
0x7f,0x18,0x8d,0x2e,0x40,0x00,0x9d,0x2e,0x7f,0x18,0x8d,0x2e,0x40,0x00,0x9d,0x2e,
0x7f,0x18,0x8d,0x2e,0x40,0x00,0x9d,0x2e,0x7f,0x18,0x8d,0x2e,0x40,0x00,0x9d,0x2e,
0x7f,0x18,0x8d,0x2e,0x40,0x00,0x9d,0x2e,0x7f,0x18,0x8d,0x2e,0x40,0x00,0x9d,0x2e,
0x7f,0x18,0x8d,0x2e,0x40,0x00,0x9d,0x2e,0x7f,0x18,0x8d,0x2e,0x40,0x00,0x9d,0x2e,
0x7f,0x18,0x8d,0x2e,0x40,0x00,0x9d,0x2e,0x7f,0x18,0x8d,0x2e,0x40,0x00,0x9d,0x2e,
0x7f,0x18,0x8d,0x2e,0x40,0x00,0x9d,0x2e,0x7f,0x18,0x8d,0x2e,0x40,0x00,0x9d,0x2e,
0x7f,0x18,0x8d,0x2e,0x40,0x00,0x9d,0x2e,0x7f,0x18,0x8d,0x2e,0x40,0x00,0x9d,0x2e,
0x7f,0x18,0x8d,0x2e,0x40,0x00,0x9d,0x2e,0x7f,0x18,0x8d,0x2e,0x40,0x00,0x9d,0x2e,
0x7f,0x18,0x8d,0x2e,0x40,0x00,0x9d,0x2e,0x7f,0x18,0x8d,0x2e,0x40,0x00,0x9d,0x2e,
0x7f,0x18,0x8d,0x2e,0x40,0x00,0x9d,0x2e,0x7f,0x18,0x8d,0x2e,0x40,0x00,0x9d,0x2e,
0x7f,0x18,0x8d,0x2e,0x40,0x00,0x9d,0x2e,0x7f,0x18,0x8d,0x2e,0x40,0x00,0x9d,0x2e,
0x7f,0x18,0x8d,0x2e,0x40,0x00,0x9d,0x2e,0x7f,0x18,0x8d,0x2e,0x40,0x00,0x9d,0x2e,
0x7f,0x18,0x8d,0x2e,0x40,0x00,0x9d,0x2e,0x7f,0x18,0x8d,0x2e,0x40,0x00,0x9d,0x2e,
0x7f,0x18,0x8d,0x2e,0x40,0x00,0x9d,0x2e,0x7f,0x18,0x8d,0x2e,0x40,0x00,0x9d,0x2e,
0x7f,0x18,0x8d,0x2e,0x40,0x00,0x9d,0x2e,0x7f,0x18,0x8d,0x2e,0x40,0x00,0x9d,0x2e,
0x7f,0x18,0x8d,0x2e,0x40,0x00,0x9d,0x2e,0x7f,0x18,0x8d,0x2e,0x40,0x00,0x9d,0x2e,
0x7f,0x18,0x8d,0x2e,0x40,0x00,0x9d,0x2e,0x7f,0x18,0x8d,0x2e,0x40,0x00,0x9d,0x2e,
0x7f,0x18,0x8d,0x2e,0x40,0x00,0x9d,0x2e,0x7f,0x18,0x8d,0x2e,0x40,0x00,0x9d,0x2e,
0x7f,0x18,0x8d,0x2e,0x40,0x00,0x9d,0x2e,0x7f,0x18,0x8d,0x2e,0x40,0x00,0x9d,0x2e,
0x7f,0x18,0x8d,0x2e,0x40,0x00,0x9d,0x2e,0x7f,0x18,0x8d,0x2e,0x40,0x00,0x9d,0x2e,
0x7f,0x18,0x8d,0x2e,0x40,0x00,0x9d,0x2e,0x7f,0x18,0x8d,0x2e,0x40,0x00,0x9d,0x2e,
0x7f,0x18,0x8d,0x2e,0x40,0x00,0x9d,0x2e,0x7f,0x18,0x8d,0x2e,0x40,0x00,0x9d,0x2e,
0x7f,0x18,0x8d,0x2e,0x40,0x00,0xff,0x2f,0x00,0x4d,0x54,0x72,0x6b,0x00,0x00,0x00,
0x70,0x00,0xff,0x21,0x01,0x00,0x00,0xff,0x03,0x14,0x50,0x65,0x72,0x63,0x75,0x73,
0x73,0x69,0x6f,0x6e,0x20,0x20,0x20,0x20,0x20,0x20,0x20,0x20,0x20,0x20,0x00,0xc9,
0x30,0x86,0x00,0xb9,0x07,0x7f,0x00,0x0b,0x7f,0x00,0x5b,0x7f,0x00,0x5d,0x00,0x00,
0x0a,0x40,0x00,0x00,0x00,0x00,0x20,0x00,0x00,0x01,0x00,0x00,0x99,0x39,0x7f,0x84,
0x40,0x89,0x39,0x40,0xb7,0x40,0x99,0x39,0x7f,0x00,0xb9,0x07,0x40,0x60,0x89,0x39,
0x40,0x60,0x99,0x39,0x7f,0x60,0x89,0x39,0x40,0xb9,0x60,0x99,0x39,0x7f,0x81,0x40,
0x89,0x39,0x40,0xa8,0x40,0x99,0x39,0x7f,0x81,0x40,0x89,0x39,0x40,0x00,0xff,0x2f,
0x00,0x4d,0x54,0x72,0x6b,0x00,0x00,0x05,0xdc,0x00,0xff,0x21,0x01,0x00,0x00,0xff,
0x03,0x14,0x43,0x68,0x69,0x6d,0x65,0x73,0x20,0x20,0x20,0x20,0x20,0x20,0x20,0x20,
0x20,0x20,0x20,0x20,0x20,0x20,0x00,0xce,0x09,0x86,0x00,0xbe,0x07,0x20,0x00,0x0b,
0x7f,0x00,0x5b,0x7f,0x00,0x5d,0x00,0x00,0x0a,0x40,0x00,0x00,0x00,0x00,0x20,0x00,
0x00,0x01,0x00,0x00,0xce,0x09,0x18,0x9e,0x52,0x7f,0x18,0x8e,0x52,0x40,0x00,0x9e,
0x52,0x7f,0x18,0x8e,0x52,0x40,0x00,0x9e,0x52,0x7f,0x18,0x8e,0x52,0x40,0x00,0x9e,
0x52,0x7f,0x18,0x8e,0x52,0x40,0x00,0x9e,0x52,0x7f,0x18,0x8e,0x52,0x40,0x00,0x9e,
0x52,0x7f,0x18,0x8e,0x52,0x40,0x00,0x9e,0x52,0x7f,0x18,0x8e,0x52,0x40,0x00,0x9e,
0x52,0x7f,0x18,0x8e,0x52,0x40,0x00,0x9e,0x52,0x7f,0x18,0x8e,0x52,0x40,0x00,0x9e,
0x52,0x7f,0x18,0x8e,0x52,0x40,0x00,0x9e,0x52,0x7f,0x18,0x8e,0x52,0x40,0x00,0x9e,
0x52,0x7f,0x18,0x8e,0x52,0x40,0x00,0x9e,0x52,0x7f,0x18,0x8e,0x52,0x40,0x00,0x9e,
0x52,0x7f,0x18,0x8e,0x52,0x40,0x00,0x9e,0x52,0x7f,0x18,0x8e,0x52,0x40,0x00,0x9e,
0x52,0x7f,0x18,0x8e,0x52,0x40,0x00,0x9e,0x52,0x7f,0x18,0x8e,0x52,0x40,0x00,0x9e,
0x52,0x7f,0x18,0x8e,0x52,0x40,0x00,0x9e,0x52,0x7f,0x18,0x8e,0x52,0x40,0x00,0x9e,
0x52,0x7f,0x18,0x8e,0x52,0x40,0x00,0x9e,0x52,0x7f,0x18,0x8e,0x52,0x40,0x00,0x9e,
0x52,0x7f,0x18,0x8e,0x52,0x40,0x00,0x9e,0x52,0x7f,0x18,0x8e,0x52,0x40,0x00,0x9e,
0x52,0x7f,0x18,0x8e,0x52,0x40,0x00,0x9e,0x52,0x7f,0x18,0x8e,0x52,0x40,0x00,0x9e,
0x52,0x7f,0x18,0x8e,0x52,0x40,0x00,0x9e,0x52,0x7f,0x18,0x8e,0x52,0x40,0x00,0x9e,
0x52,0x7f,0x18,0x8e,0x52,0x40,0x00,0x9e,0x52,0x7f,0x18,0x8e,0x52,0x40,0x00,0x9e,
0x52,0x7f,0x18,0x8e,0x52,0x40,0x00,0x9e,0x52,0x7f,0x18,0x8e,0x52,0x40,0x00,0x9e,
0x52,0x7f,0x18,0x8e,0x52,0x40,0x00,0x9e,0x52,0x7f,0x18,0x8e,0x52,0x40,0x00,0x9e,
0x52,0x7f,0x18,0x8e,0x52,0x40,0x00,0x9e,0x52,0x7f,0x18,0x8e,0x52,0x40,0x00,0x9e,
0x52,0x7f,0x18,0x8e,0x52,0x40,0x00,0x9e,0x52,0x7f,0x18,0x8e,0x52,0x40,0x00,0x9e,
0x52,0x7f,0x18,0x8e,0x52,0x40,0x00,0x9e,0x52,0x7f,0x18,0x8e,0x52,0x40,0x00,0x9e,
0x52,0x7f,0x18,0x8e,0x52,0x40,0x00,0x9e,0x52,0x7f,0x18,0x8e,0x52,0x40,0x00,0x9e,
0x52,0x7f,0x18,0x8e,0x52,0x40,0x00,0x9e,0x52,0x7f,0x18,0x8e,0x52,0x40,0x00,0x9e,
0x52,0x7f,0x18,0x8e,0x52,0x40,0x00,0x9e,0x52,0x7f,0x18,0x8e,0x52,0x40,0x00,0x9e,
0x52,0x7f,0x18,0x8e,0x52,0x40,0x00,0x9e,0x52,0x7f,0x18,0x8e,0x52,0x40,0x00,0x9e,
0x52,0x7f,0x18,0x8e,0x52,0x40,0x00,0x9e,0x52,0x7f,0x18,0x8e,0x52,0x40,0x00,0x9e,
0x52,0x7f,0x18,0x8e,0x52,0x40,0x00,0x9e,0x52,0x7f,0x18,0x8e,0x52,0x40,0x00,0x9e,
0x52,0x7f,0x18,0x8e,0x52,0x40,0x00,0x9e,0x52,0x7f,0x18,0x8e,0x52,0x40,0x00,0x9e,
0x52,0x7f,0x18,0x8e,0x52,0x40,0x00,0x9e,0x52,0x7f,0x18,0x8e,0x52,0x40,0x00,0x9e,
0x52,0x7f,0x18,0x8e,0x52,0x40,0x00,0x9e,0x52,0x7f,0x18,0x8e,0x52,0x40,0x00,0x9e,
0x52,0x7f,0x18,0x8e,0x52,0x40,0x00,0x9e,0x52,0x7f,0x18,0x8e,0x52,0x40,0x00,0x9e,
0x52,0x7f,0x18,0x8e,0x52,0x40,0x00,0x9e,0x52,0x7f,0x18,0x8e,0x52,0x40,0x00,0x9e,
0x52,0x7f,0x18,0x8e,0x52,0x40,0x00,0x9e,0x52,0x7f,0x18,0x8e,0x52,0x40,0x00,0x9e,
0x52,0x7f,0x18,0x8e,0x52,0x40,0x00,0x9e,0x52,0x7f,0x18,0x8e,0x52,0x40,0x00,0x9e,
0x52,0x7f,0x18,0x8e,0x52,0x40,0x00,0x9e,0x52,0x7f,0x18,0x8e,0x52,0x40,0x00,0x9e,
0x52,0x7f,0x18,0x8e,0x52,0x40,0x00,0x9e,0x52,0x7f,0x18,0x8e,0x52,0x40,0x00,0x9e,
0x52,0x7f,0x18,0x8e,0x52,0x40,0x00,0x9e,0x52,0x7f,0x18,0x8e,0x52,0x40,0x00,0x9e,
0x52,0x7f,0x18,0x8e,0x52,0x40,0x00,0x9e,0x52,0x7f,0x18,0x8e,0x52,0x40,0x00,0x9e,
0x52,0x7f,0x18,0x8e,0x52,0x40,0x00,0x9e,0x52,0x7f,0x18,0x8e,0x52,0x40,0x00,0x9e,
0x52,0x7f,0x18,0x8e,0x52,0x40,0x00,0x9e,0x52,0x7f,0x18,0x8e,0x52,0x40,0x00,0x9e,
0x52,0x7f,0x18,0x8e,0x52,0x40,0x00,0x9e,0x52,0x7f,0x18,0x8e,0x52,0x40,0x00,0x9e,
0x52,0x7f,0x18,0x8e,0x52,0x40,0x00,0x9e,0x52,0x7f,0x18,0x8e,0x52,0x40,0x00,0x9e,
0x52,0x7f,0x18,0x8e,0x52,0x40,0x00,0x9e,0x52,0x7f,0x18,0x8e,0x52,0x40,0x00,0x9e,
0x52,0x7f,0x18,0x8e,0x52,0x40,0x00,0x9e,0x52,0x7f,0x18,0x8e,0x52,0x40,0x00,0x9e,
0x52,0x7f,0x18,0x8e,0x52,0x40,0x00,0x9e,0x52,0x7f,0x18,0x8e,0x52,0x40,0x00,0x9e,
0x52,0x7f,0x18,0x8e,0x52,0x40,0x00,0x9e,0x52,0x7f,0x18,0x8e,0x52,0x40,0x00,0x9e,
0x52,0x7f,0x18,0x8e,0x52,0x40,0x00,0x9e,0x52,0x7f,0x18,0x8e,0x52,0x40,0x00,0x9e,
0x52,0x7f,0x18,0x8e,0x52,0x40,0x00,0x9e,0x52,0x7f,0x18,0x8e,0x52,0x40,0x00,0x9e,
0x52,0x7f,0x18,0x8e,0x52,0x40,0x00,0x9e,0x52,0x7f,0x18,0x8e,0x52,0x40,0x86,0x00,
0x9e,0x52,0x7f,0x18,0x8e,0x52,0x40,0x00,0x9e,0x52,0x7f,0x18,0x8e,0x52,0x40,0x00,
0x9e,0x52,0x7f,0x18,0x8e,0x52,0x40,0x00,0x9e,0x52,0x7f,0x18,0x8e,0x52,0x40,0x00,
0x9e,0x52,0x7f,0x18,0x8e,0x52,0x40,0x00,0x9e,0x52,0x7f,0x18,0x8e,0x52,0x40,0x00,
0x9e,0x52,0x7f,0x18,0x8e,0x52,0x40,0x00,0x9e,0x52,0x7f,0x18,0x8e,0x52,0x40,0x00,
0x9e,0x52,0x7f,0x18,0x8e,0x52,0x40,0x00,0x9e,0x52,0x7f,0x18,0x8e,0x52,0x40,0x00,
0x9e,0x52,0x7f,0x18,0x8e,0x52,0x40,0x00,0x9e,0x52,0x7f,0x18,0x8e,0x52,0x40,0x00,
0x9e,0x52,0x7f,0x18,0x8e,0x52,0x40,0x00,0x9e,0x52,0x7f,0x18,0x8e,0x52,0x40,0x00,
0x9e,0x52,0x7f,0x18,0x8e,0x52,0x40,0x00,0x9e,0x52,0x7f,0x18,0x8e,0x52,0x40,0x00,
0x9e,0x52,0x7f,0x18,0x8e,0x52,0x40,0x00,0x9e,0x52,0x7f,0x18,0x8e,0x52,0x40,0x00,
0x9e,0x52,0x7f,0x18,0x8e,0x52,0x40,0x00,0x9e,0x52,0x7f,0x18,0x8e,0x52,0x40,0x00,
0x9e,0x52,0x7f,0x18,0x8e,0x52,0x40,0x00,0x9e,0x52,0x7f,0x18,0x8e,0x52,0x40,0x00,
0x9e,0x52,0x7f,0x18,0x8e,0x52,0x40,0x00,0x9e,0x52,0x7f,0x18,0x8e,0x52,0x40,0x00,
0x9e,0x52,0x7f,0x18,0x8e,0x52,0x40,0x00,0x9e,0x52,0x7f,0x18,0x8e,0x52,0x40,0x00,
0x9e,0x52,0x7f,0x18,0x8e,0x52,0x40,0x00,0x9e,0x52,0x7f,0x18,0x8e,0x52,0x40,0x00,
0x9e,0x52,0x7f,0x18,0x8e,0x52,0x40,0x00,0x9e,0x52,0x7f,0x18,0x8e,0x52,0x40,0x00,
0x9e,0x52,0x7f,0x18,0x8e,0x52,0x40,0x00,0x9e,0x52,0x7f,0x18,0x8e,0x52,0x40,0x00,
0x9e,0x52,0x7f,0x18,0x8e,0x52,0x40,0x00,0x9e,0x52,0x7f,0x18,0x8e,0x52,0x40,0x00,
0x9e,0x52,0x7f,0x18,0x8e,0x52,0x40,0x00,0x9e,0x52,0x7f,0x18,0x8e,0x52,0x40,0x00,
0x9e,0x52,0x7f,0x18,0x8e,0x52,0x40,0x00,0x9e,0x52,0x7f,0x18,0x8e,0x52,0x40,0x00,
0x9e,0x52,0x7f,0x18,0x8e,0x52,0x40,0x00,0x9e,0x52,0x7f,0x18,0x8e,0x52,0x40,0x00,
0x9e,0x52,0x7f,0x18,0x8e,0x52,0x40,0x00,0x9e,0x52,0x7f,0x18,0x8e,0x52,0x40,0x00,
0x9e,0x52,0x7f,0x18,0x8e,0x52,0x40,0x00,0x9e,0x52,0x7f,0x18,0x8e,0x52,0x40,0x00,
0x9e,0x52,0x7f,0x18,0x8e,0x52,0x40,0x00,0x9e,0x52,0x7f,0x18,0x8e,0x52,0x40,0x00,
0x9e,0x52,0x7f,0x18,0x8e,0x52,0x40,0x00,0x9e,0x52,0x7f,0x18,0x8e,0x52,0x40,0x00,
0x9e,0x52,0x7f,0x18,0x8e,0x52,0x40,0x00,0x9e,0x52,0x7f,0x18,0x8e,0x52,0x40,0x00,
0x9e,0x52,0x7f,0x18,0x8e,0x52,0x40,0x00,0x9e,0x52,0x7f,0x18,0x8e,0x52,0x40,0x00,
0x9e,0x52,0x7f,0x18,0x8e,0x52,0x40,0x00,0x9e,0x52,0x7f,0x18,0x8e,0x52,0x40,0x00,
0x9e,0x52,0x7f,0x18,0x8e,0x52,0x40,0x00,0x9e,0x52,0x7f,0x18,0x8e,0x52,0x40,0x00,
0x9e,0x52,0x7f,0x18,0x8e,0x52,0x40,0x00,0x9e,0x52,0x7f,0x18,0x8e,0x52,0x40,0x00,
0x9e,0x52,0x7f,0x18,0x8e,0x52,0x40,0x00,0x9e,0x52,0x7f,0x18,0x8e,0x52,0x40,0x00,
0x9e,0x52,0x7f,0x18,0x8e,0x52,0x40,0x00,0x9e,0x52,0x7f,0x18,0x8e,0x52,0x40,0x00,
0x9e,0x52,0x7f,0x18,0x8e,0x52,0x40,0x00,0x9e,0x52,0x7f,0x18,0x8e,0x52,0x40,0x9e,
0x00,0x9e,0x5b,0x7f,0x60,0x8e,0x5b,0x40,0x60,0x9e,0x5b,0x7f,0x40,0x8e,0x5b,0x40,
0x82,0x40,0x9e,0x5b,0x7f,0x40,0x8e,0x5b,0x40,0x81,0x00,0x9e,0x5e,0x7f,0x60,0x8e,
0x5e,0x40,0x81,0x40,0x9e,0x5e,0x7f,0x60,0x8e,0x5e,0x40,0x00,0x9e,0x60,0x7f,0x60,
0x8e,0x60,0x40,0x82,0x20,0x9e,0x5b,0x7f,0x60,0x8e,0x5b,0x40,0x60,0x9e,0x5b,0x7f,
0x40,0x8e,0x5b,0x40,0x82,0x40,0x9e,0x5b,0x7f,0x40,0x8e,0x5b,0x40,0x86,0x20,0x9e,
0x59,0x7f,0x20,0x8e,0x59,0x40,0x40,0x9e,0x5b,0x7f,0x20,0x8e,0x5b,0x40,0x82,0x00,
0x9e,0x5b,0x7f,0x20,0x8e,0x5b,0x40,0x40,0x9e,0x63,0x7f,0x20,0x8e,0x63,0x40,0x40,
0x9e,0x62,0x7f,0x20,0x8e,0x62,0x40,0x40,0x9e,0x60,0x7f,0x20,0x8e,0x60,0x40,0x40,
0x9e,0x5e,0x7f,0x20,0x8e,0x5e,0x40,0x40,0x9e,0x5e,0x7f,0x20,0x8e,0x5e,0x40,0x81,
0x20,0x9e,0x5e,0x7f,0x20,0x8e,0x5e,0x40,0x81,0x20,0x9e,0x60,0x7f,0x20,0x8e,0x60,
0x40,0x00,0xff,0x2f,0x00,0x4d,0x54,0x72,0x6b,0x00,0x00,0x03,0x26,0x00,0xff,0x21,
0x01,0x00,0x00,0xff,0x03,0x14,0x48,0x61,0x72,0x70,0x20,0x20,0x20,0x20,0x20,0x20,
0x20,0x20,0x20,0x20,0x20,0x20,0x20,0x20,0x20,0x20,0x00,0xcf,0x2e,0x86,0x00,0xbf,
0x07,0x30,0x00,0x0b,0x7f,0x00,0x5b,0x7f,0x00,0x5d,0x00,0x00,0x0a,0x40,0x00,0x00,
0x00,0x00,0x20,0x00,0x00,0x01,0x00,0x90,0x40,0x9f,0x35,0x7f,0x0c,0x8f,0x35,0x40,
0x04,0x9f,0x39,0x7f,0x0c,0x8f,0x39,0x40,0x04,0x9f,0x3c,0x7f,0x0c,0x8f,0x3c,0x40,
0x04,0x9f,0x41,0x7f,0x0c,0x8f,0x41,0x40,0x04,0x9f,0x45,0x7f,0x0c,0x8f,0x45,0x40,
0x04,0x9f,0x48,0x7f,0x0c,0x8f,0x48,0x40,0x04,0x9f,0x4d,0x7f,0x0c,0x8f,0x4d,0x40,
0x04,0x9f,0x45,0x7f,0x0c,0x8f,0x45,0x40,0x04,0x9f,0x48,0x7f,0x0c,0x8f,0x48,0x40,
0x04,0x9f,0x4d,0x7f,0x0c,0x8f,0x4d,0x40,0x04,0x9f,0x51,0x7f,0x0c,0x8f,0x51,0x40,
0x04,0x9f,0x54,0x7f,0x0c,0x8f,0x54,0x40,0xb0,0x04,0x9f,0x37,0x7f,0x00,0xbf,0x07,
0x30,0x18,0x9f,0x3a,0x7f,0x08,0x8f,0x37,0x40,0x10,0x9f,0x3f,0x7f,0x08,0x8f,0x3a,
0x40,0x10,0x9f,0x43,0x7f,0x08,0x8f,0x3f,0x40,0x18,0x43,0x40,0x58,0x9f,0x37,0x7f,
0x18,0x3a,0x7f,0x08,0x8f,0x37,0x40,0x10,0x9f,0x3f,0x7f,0x08,0x8f,0x3a,0x40,0x10,
0x9f,0x43,0x7f,0x08,0x8f,0x3f,0x40,0x18,0x43,0x40,0x58,0x9f,0x37,0x7f,0x18,0x3a,
0x7f,0x08,0x8f,0x37,0x40,0x10,0x9f,0x3f,0x7f,0x08,0x8f,0x3a,0x40,0x10,0x9f,0x43,
0x7f,0x08,0x8f,0x3f,0x40,0x18,0x43,0x40,0x58,0x9f,0x37,0x7f,0x18,0x3a,0x7f,0x08,
0x8f,0x37,0x40,0x10,0x9f,0x3f,0x7f,0x08,0x8f,0x3a,0x40,0x10,0x9f,0x43,0x7f,0x08,
0x8f,0x3f,0x40,0x18,0x43,0x40,0x58,0x9f,0x37,0x7f,0x18,0x3a,0x7f,0x08,0x8f,0x37,
0x40,0x10,0x9f,0x3f,0x7f,0x08,0x8f,0x3a,0x40,0x10,0x9f,0x43,0x7f,0x08,0x8f,0x3f,
0x40,0x18,0x43,0x40,0x58,0x9f,0x37,0x7f,0x18,0x3a,0x7f,0x08,0x8f,0x37,0x40,0x10,
0x9f,0x3f,0x7f,0x08,0x8f,0x3a,0x40,0x10,0x9f,0x43,0x7f,0x08,0x8f,0x3f,0x40,0x18,
0x43,0x40,0x58,0x9f,0x35,0x7f,0x00,0xbf,0x07,0x48,0x18,0x9f,0x39,0x7f,0x08,0x8f,
0x35,0x40,0x10,0x9f,0x3c,0x7f,0x08,0x8f,0x39,0x40,0x10,0x9f,0x41,0x7f,0x08,0x8f,
0x3c,0x40,0x10,0x9f,0x45,0x7f,0x08,0x8f,0x41,0x40,0x10,0x9f,0x48,0x7f,0x08,0x8f,
0x45,0x40,0x10,0x9f,0x4d,0x7f,0x08,0x8f,0x48,0x40,0x10,0x9f,0x51,0x7f,0x08,0x8f,
0x4d,0x40,0x10,0x9f,0x45,0x7f,0x08,0x8f,0x51,0x40,0x10,0x9f,0x48,0x7f,0x08,0x8f,
0x45,0x40,0x10,0x9f,0x4d,0x7f,0x08,0x8f,0x48,0x40,0x10,0x9f,0x51,0x7f,0x08,0x8f,
0x4d,0x40,0x10,0x9f,0x54,0x7f,0x08,0x8f,0x51,0x40,0x10,0x9f,0x59,0x7f,0x08,0x8f,
0x54,0x40,0x18,0x59,0x40,0x28,0x9f,0x37,0x7f,0x00,0xbf,0x07,0x30,0x18,0x9f,0x3a,
0x7f,0x08,0x8f,0x37,0x40,0x10,0x9f,0x3f,0x7f,0x08,0x8f,0x3a,0x40,0x10,0x9f,0x43,
0x7f,0x08,0x8f,0x3f,0x40,0x18,0x43,0x40,0x58,0x9f,0x37,0x7f,0x18,0x3a,0x7f,0x08,
0x8f,0x37,0x40,0x10,0x9f,0x3f,0x7f,0x08,0x8f,0x3a,0x40,0x10,0x9f,0x43,0x7f,0x08,
0x8f,0x3f,0x40,0x18,0x43,0x40,0x58,0x9f,0x37,0x7f,0x18,0x3a,0x7f,0x08,0x8f,0x37,
0x40,0x10,0x9f,0x3f,0x7f,0x08,0x8f,0x3a,0x40,0x10,0x9f,0x43,0x7f,0x08,0x8f,0x3f,
0x40,0x18,0x43,0x40,0x58,0x9f,0x37,0x7f,0x18,0x3a,0x7f,0x08,0x8f,0x37,0x40,0x10,
0x9f,0x3f,0x7f,0x08,0x8f,0x3a,0x40,0x10,0x9f,0x43,0x7f,0x08,0x8f,0x3f,0x40,0x18,
0x43,0x40,0x58,0x9f,0x35,0x7f,0x18,0x38,0x7f,0x08,0x8f,0x35,0x40,0x10,0x9f,0x3d,
0x7f,0x08,0x8f,0x38,0x40,0x10,0x9f,0x41,0x7f,0x08,0x8f,0x3d,0x40,0x18,0x41,0x40,
0x58,0x9f,0x35,0x7f,0x18,0x39,0x7f,0x08,0x8f,0x35,0x40,0x10,0x9f,0x3c,0x7f,0x08,
0x8f,0x39,0x40,0x10,0x9f,0x41,0x7f,0x08,0x8f,0x3c,0x40,0x18,0x41,0x40,0x58,0x9f,
0x35,0x7f,0x18,0x3a,0x7f,0x08,0x8f,0x35,0x40,0x10,0x9f,0x3d,0x7f,0x08,0x8f,0x3a,
0x40,0x10,0x9f,0x41,0x7f,0x08,0x8f,0x3d,0x40,0x18,0x41,0x40,0x58,0x9f,0x35,0x7f,
0x18,0x39,0x7f,0x08,0x8f,0x35,0x40,0x10,0x9f,0x3c,0x7f,0x08,0x8f,0x39,0x40,0x10,
0x9f,0x41,0x7f,0x08,0x8f,0x3c,0x40,0x18,0x41,0x40,0xf8,0x58,0x9f,0x58,0x7f,0x20,
0x8f,0x58,0x40,0x81,0x20,0x9f,0x50,0x7f,0x20,0x8f,0x50,0x40,0x40,0x9f,0x48,0x7f,
0x20,0x8f,0x48,0x40,0x40,0x9f,0x58,0x7f,0x20,0x8f,0x58,0x40,0x81,0x20,0x9f,0x50,
0x7f,0x20,0x8f,0x50,0x40,0x40,0x9f,0x48,0x7f,0x20,0x8f,0x48,0x40,0x40,0x9f,0x58,
0x7f,0x20,0x8f,0x58,0x40,0x81,0x20,0x9f,0x50,0x7f,0x20,0x8f,0x50,0x40,0x40,0x9f,
0x48,0x7f,0x20,0x8f,0x48,0x40,0x40,0x9f,0x58,0x7f,0x20,0x8f,0x58,0x40,0x81,0x20,
0x9f,0x50,0x7f,0x20,0x8f,0x50,0x40,0x40,0x9f,0x48,0x7f,0x20,0x8f,0x48,0x40,0x00,
0xff,0x2f,0x00,0x4d,0x54,0x72,0x6b,0x00,0x00,0x00,0x21,0x00,0xff,0x21,0x01,0x00,
0x00,0xff,0x03,0x14,0x20,0x20,0x20,0x20,0x20,0x20,0x20,0x20,0x20,0x20,0x20,0x20,
0x20,0x20,0x20,0x20,0x20,0x20,0x20,0x20,0x00,0xff,0x2f,0x00,0x4d,0x54,0x72,0x6b,
0x00,0x00,0x0b,0x3f,0x00,0xff,0x21,0x01,0x00,0x00,0xff,0x03,0x14,0x56,0x69,0x6f,
0x6c,0x69,0x6e,0x20,0x49,0x20,0x20,0x20,0x20,0x20,0x20,0x20,0x20,0x20,0x20,0x20,
0x20,0x00,0xc1,0x30,0x86,0x00,0xb1,0x07,0x40,0x00,0x0b,0x7f,0x00,0x5b,0x7f,0x00,
0x5d,0x00,0x00,0x0a,0x30,0x00,0x00,0x00,0x00,0x20,0x00,0x00,0x01,0x00,0x00,0x91,
0x52,0x7f,0x90,0x40,0x81,0x52,0x40,0x00,0x91,0x45,0x7f,0x30,0x81,0x45,0x40,0x00,
0x91,0x48,0x7f,0x30,0x81,0x48,0x40,0x00,0x91,0x4d,0x7f,0x30,0x81,0x4d,0x40,0x00,
0x91,0x51,0x7f,0x30,0x81,0x51,0x40,0x00,0x91,0x52,0x7f,0x92,0x00,0x81,0x52,0x40,
0x00,0x91,0x48,0x7f,0x81,0x40,0x81,0x48,0x40,0x00,0x91,0x48,0x7f,0x20,0x81,0x48,
0x40,0x00,0x91,0x47,0x7f,0x20,0x81,0x47,0x40,0x00,0x91,0x48,0x7f,0x20,0x81,0x48,
0x40,0x00,0x91,0x4a,0x7f,0x20,0x81,0x4a,0x40,0x00,0x91,0x4b,0x7f,0x20,0x81,0x4b,
0x40,0x00,0x91,0x4c,0x7f,0x20,0x81,0x4c,0x40,0x00,0x91,0x4d,0x7f,0x20,0x81,0x4d,
0x40,0x00,0x91,0x4c,0x7f,0x20,0x81,0x4c,0x40,0x00,0x91,0x4d,0x7f,0x20,0x81,0x4d,
0x40,0x00,0x91,0x4f,0x7f,0x20,0x81,0x4f,0x40,0x00,0x91,0x51,0x7f,0x20,0x81,0x51,
0x40,0x00,0x91,0x52,0x7f,0x20,0x81,0x52,0x40,0x00,0x91,0x54,0x7f,0x20,0x81,0x54,
0x40,0x00,0x91,0x56,0x7f,0x20,0x81,0x56,0x40,0x00,0x91,0x57,0x7f,0x20,0x81,0x57,
0x40,0x00,0x91,0x59,0x7f,0x20,0x81,0x59,0x40,0x00,0x91,0x5b,0x7f,0x20,0x81,0x5b,
0x40,0x00,0x91,0x5d,0x7f,0x20,0x81,0x5d,0x40,0x00,0x91,0x52,0x7f,0x60,0x81,0x52,
0x40,0x00,0x91,0x52,0x7f,0x18,0x81,0x52,0x40,0x00,0x91,0x51,0x7f,0x18,0x52,0x7f,
0x08,0x81,0x51,0x40,0x10,0x91,0x51,0x7f,0x08,0x81,0x52,0x40,0x04,0x51,0x40,0x0c,
0x91,0x52,0x7f,0x60,0x81,0x52,0x40,0x00,0x91,0x52,0x7f,0x18,0x51,0x7f,0x08,0x81,
0x52,0x40,0x10,0x91,0x52,0x7f,0x08,0x81,0x51,0x40,0x10,0x91,0x51,0x7f,0x08,0x81,
0x52,0x40,0x10,0x91,0x52,0x7f,0x08,0x81,0x51,0x40,0x58,0x52,0x40,0x00,0x91,0x52,
0x7f,0x18,0x51,0x7f,0x08,0x81,0x52,0x40,0x10,0x91,0x52,0x7f,0x08,0x81,0x51,0x40,
0x10,0x91,0x51,0x7f,0x08,0x81,0x52,0x40,0x10,0x91,0x52,0x7f,0x08,0x81,0x51,0x40,
0x58,0x52,0x40,0x00,0x91,0x52,0x7f,0x18,0x51,0x7f,0x08,0x81,0x52,0x40,0x10,0x91,
0x52,0x7f,0x08,0x81,0x51,0x40,0x10,0x91,0x51,0x7f,0x08,0x81,0x52,0x40,0x10,0x51,
0x40,0x00,0x91,0x52,0x7f,0x60,0x81,0x52,0x40,0x00,0x91,0x52,0x7f,0x18,0x81,0x52,
0x40,0x00,0x91,0x51,0x7f,0x18,0x52,0x7f,0x08,0x81,0x51,0x40,0x10,0x91,0x51,0x7f,
0x08,0x81,0x52,0x40,0x04,0x51,0x40,0x0c,0x91,0x52,0x7f,0x60,0x81,0x52,0x40,0x00,
0x91,0x52,0x7f,0x18,0x51,0x7f,0x08,0x81,0x52,0x40,0x10,0x91,0x52,0x7f,0x08,0x81,
0x51,0x40,0x10,0x91,0x51,0x7f,0x08,0x81,0x52,0x40,0x10,0x91,0x52,0x7f,0x08,0x81,
0x51,0x40,0x58,0x52,0x40,0x00,0x91,0x52,0x7f,0x18,0x51,0x7f,0x08,0x81,0x52,0x40,
0x10,0x91,0x52,0x7f,0x08,0x81,0x51,0x40,0x10,0x91,0x51,0x7f,0x08,0x81,0x52,0x40,
0x10,0x91,0x52,0x7f,0x08,0x81,0x51,0x40,0x58,0x52,0x40,0x00,0x91,0x52,0x7f,0x18,
0x51,0x7f,0x08,0x81,0x52,0x40,0x10,0x91,0x52,0x7f,0x08,0x81,0x51,0x40,0x10,0x91,
0x51,0x7f,0x08,0x81,0x52,0x40,0x10,0x51,0x40,0x00,0x91,0x52,0x7f,0x60,0x81,0x52,
0x40,0x00,0x91,0x52,0x7f,0x18,0x81,0x52,0x40,0x00,0x91,0x51,0x7f,0x18,0x52,0x7f,
0x08,0x81,0x51,0x40,0x10,0x91,0x51,0x7f,0x08,0x81,0x52,0x40,0x04,0x51,0x40,0x0c,
0x91,0x52,0x7f,0x60,0x81,0x52,0x40,0x00,0x91,0x52,0x7f,0x18,0x51,0x7f,0x08,0x81,
0x52,0x40,0x10,0x91,0x52,0x7f,0x08,0x81,0x51,0x40,0x10,0x91,0x51,0x7f,0x08,0x81,
0x52,0x40,0x10,0x91,0x52,0x7f,0x08,0x81,0x51,0x40,0x58,0x52,0x40,0x00,0x91,0x52,
0x7f,0x18,0x51,0x7f,0x08,0x81,0x52,0x40,0x10,0x91,0x52,0x7f,0x08,0x81,0x51,0x40,
0x10,0x91,0x51,0x7f,0x08,0x81,0x52,0x40,0x10,0x91,0x52,0x7f,0x08,0x81,0x51,0x40,
0x58,0x52,0x40,0x00,0x91,0x52,0x7f,0x18,0x51,0x7f,0x08,0x81,0x52,0x40,0x10,0x91,
0x52,0x7f,0x08,0x81,0x51,0x40,0x10,0x91,0x51,0x7f,0x08,0x81,0x52,0x40,0x10,0x51,
0x40,0x00,0x91,0x50,0x7f,0x40,0x81,0x50,0x40,0x00,0x91,0x4f,0x7f,0x40,0x81,0x4f,
0x40,0x00,0x91,0x50,0x7f,0x40,0x81,0x50,0x40,0x00,0x91,0x48,0x7f,0x20,0x81,0x48,
0x40,0x00,0x91,0x47,0x7f,0x20,0x81,0x47,0x40,0x00,0x91,0x48,0x7f,0x20,0x81,0x48,
0x40,0x00,0x91,0x4a,0x7f,0x20,0x81,0x4a,0x40,0x00,0x91,0x4b,0x7f,0x20,0x81,0x4b,
0x40,0x00,0x91,0x4d,0x7f,0x20,0x81,0x4d,0x40,0x00,0x91,0x4f,0x7f,0x20,0x81,0x4f,
0x40,0x00,0x91,0x50,0x7f,0x20,0x81,0x50,0x40,0x00,0x91,0x52,0x7f,0x20,0x81,0x52,
0x40,0x00,0x91,0x54,0x7f,0x20,0x81,0x54,0x40,0x00,0x91,0x56,0x7f,0x20,0x81,0x56,
0x40,0x00,0x91,0x57,0x7f,0x20,0x81,0x57,0x40,0x00,0x91,0x4d,0x7f,0x00,0xb1,0x07,
0x50,0x81,0x40,0x81,0x4d,0x40,0x00,0x91,0x4f,0x7f,0x82,0x20,0x81,0x4f,0x40,0x00,
0x91,0x4f,0x7f,0x5f,0x81,0x4f,0x40,0x01,0x91,0x57,0x7f,0x60,0x81,0x57,0x40,0x00,
0x91,0x56,0x7f,0x60,0x81,0x56,0x40,0x00,0x91,0x54,0x7f,0x60,0x81,0x54,0x40,0x00,
0x91,0x52,0x7f,0x60,0x81,0x52,0x40,0x00,0x91,0x52,0x7f,0x40,0x81,0x52,0x40,0x00,
0x91,0x54,0x7f,0x40,0x81,0x54,0x40,0x00,0x91,0x56,0x7f,0x40,0x81,0x56,0x40,0x00,
0x91,0x54,0x7f,0x81,0x00,0x81,0x54,0x40,0x00,0x91,0x4f,0x7f,0x40,0x81,0x4f,0x40,
0x00,0x91,0x51,0x7f,0x81,0x40,0x81,0x51,0x40,0x00,0x91,0x4d,0x7f,0x81,0x40,0x81,
0x4d,0x40,0x00,0x91,0x4f,0x7f,0x82,0x20,0x81,0x4f,0x40,0x00,0x91,0x4f,0x7f,0x30,
0x81,0x4f,0x40,0x00,0x91,0x57,0x7f,0x30,0x81,0x57,0x40,0x00,0x91,0x57,0x7f,0x60,
0x81,0x57,0x40,0x00,0x91,0x56,0x7f,0x60,0x81,0x56,0x40,0x00,0x91,0x54,0x7f,0x60,
0x81,0x54,0x40,0x00,0x91,0x52,0x7f,0x30,0x81,0x52,0x40,0x00,0x91,0x59,0x7f,0x30,
0x81,0x59,0x40,0x00,0x91,0x59,0x7f,0x81,0x10,0x81,0x59,0x40,0x00,0x91,0x54,0x7f,
0x30,0x81,0x54,0x40,0x00,0x91,0x54,0x7f,0x83,0x00,0x81,0x54,0x40,0x60,0x91,0x4d,
0x7f,0x60,0x81,0x4d,0x40,0x00,0x91,0x4f,0x7f,0x82,0x20,0x81,0x4f,0x40,0x00,0x91,
0x4f,0x7f,0x60,0x81,0x4f,0x40,0x00,0x91,0x57,0x7f,0x60,0x81,0x57,0x40,0x00,0x91,
0x56,0x7f,0x60,0x81,0x56,0x40,0x00,0x91,0x54,0x7f,0x60,0x81,0x54,0x40,0x00,0x91,
0x52,0x7f,0x60,0x81,0x52,0x40,0x00,0x91,0x52,0x7f,0x40,0x81,0x52,0x40,0x00,0x91,
0x54,0x7f,0x40,0x81,0x54,0x40,0x00,0x91,0x56,0x7f,0x40,0x81,0x56,0x40,0x00,0x91,
0x54,0x7f,0x81,0x00,0x81,0x54,0x40,0x00,0x91,0x4f,0x7f,0x40,0x81,0x4f,0x40,0x00,
0x91,0x51,0x7f,0x81,0x40,0x81,0x51,0x40,0x00,0x91,0x4d,0x7f,0x81,0x00,0x81,0x4d,
0x40,0x00,0x91,0x4d,0x7f,0x40,0x81,0x4d,0x40,0x00,0x91,0x52,0x7f,0x00,0xb1,0x07,
0x40,0x81,0x00,0x81,0x52,0x40,0x00,0x91,0x50,0x7f,0x40,0x81,0x50,0x40,0x00,0x91,
0x4e,0x7f,0x81,0x00,0x81,0x4e,0x40,0x00,0x91,0x4d,0x7f,0x40,0x81,0x4d,0x40,0x00,
0x91,0x4b,0x7f,0x81,0x00,0x81,0x4b,0x40,0x00,0x91,0x49,0x7f,0x40,0x81,0x49,0x40,
0x00,0x91,0x48,0x7f,0x81,0x00,0x81,0x48,0x40,0x00,0x91,0x46,0x7f,0x40,0x81,0x46,
0x40,0x00,0x91,0x4d,0x7f,0x18,0x4f,0x7f,0x08,0x81,0x4d,0x40,0x10,0x91,0x4d,0x7f,
0x08,0x81,0x4f,0x40,0x10,0x91,0x4f,0x7f,0x08,0x81,0x4d,0x40,0x10,0x91,0x4d,0x7f,
0x08,0x81,0x4f,0x40,0x10,0x91,0x4f,0x7f,0x08,0x81,0x4d,0x40,0x10,0x91,0x4d,0x7f,
0x08,0x81,0x4f,0x40,0x10,0x91,0x4f,0x7f,0x08,0x81,0x4d,0x40,0x10,0x91,0x4d,0x7f,
0x08,0x81,0x4f,0x40,0x10,0x91,0x4f,0x7f,0x08,0x81,0x4d,0x40,0x10,0x91,0x4d,0x7f,
0x08,0x81,0x4f,0x40,0x10,0x91,0x4f,0x7f,0x08,0x81,0x4d,0x40,0x10,0x91,0x4d,0x7f,
0x08,0x81,0x4f,0x40,0x10,0x91,0x4f,0x7f,0x08,0x81,0x4d,0x40,0x10,0x91,0x4d,0x7f,
0x08,0x81,0x4f,0x40,0x10,0x91,0x4f,0x7f,0x08,0x81,0x4d,0x40,0x10,0x91,0x4d,0x7f,
0x08,0x81,0x4f,0x40,0x10,0x91,0x4f,0x7f,0x08,0x81,0x4d,0x40,0x10,0x91,0x4d,0x7f,
0x08,0x81,0x4f,0x40,0x10,0x91,0x4f,0x7f,0x08,0x81,0x4d,0x40,0x10,0x91,0x4d,0x7f,
0x08,0x81,0x4f,0x40,0x10,0x91,0x4f,0x7f,0x08,0x81,0x4d,0x40,0x10,0x91,0x4d,0x7f,
0x08,0x81,0x4f,0x40,0x10,0x91,0x4f,0x7f,0x08,0x81,0x4d,0x40,0x10,0x91,0x4d,0x7f,
0x08,0x81,0x4f,0x40,0x10,0x91,0x4f,0x7f,0x08,0x81,0x4d,0x40,0x10,0x91,0x4d,0x7f,
0x08,0x81,0x4f,0x40,0x10,0x91,0x4f,0x7f,0x08,0x81,0x4d,0x40,0x10,0x91,0x4d,0x7f,
0x08,0x81,0x4f,0x40,0x10,0x91,0x4f,0x7f,0x08,0x81,0x4d,0x40,0x10,0x91,0x4d,0x7f,
0x08,0x81,0x4f,0x40,0x10,0x91,0x4f,0x7f,0x08,0x81,0x4d,0x40,0x10,0x4f,0x40,0x00,
0x91,0x4d,0x7f,0x18,0x4f,0x7f,0x08,0x81,0x4d,0x40,0x10,0x91,0x4d,0x7f,0x08,0x81,
0x4f,0x40,0x10,0x91,0x4f,0x7f,0x08,0x81,0x4d,0x40,0x10,0x91,0x4d,0x7f,0x08,0x81,
0x4f,0x40,0x10,0x91,0x4f,0x7f,0x08,0x81,0x4d,0x40,0x10,0x91,0x4d,0x7f,0x08,0x81,
0x4f,0x40,0x10,0x91,0x4f,0x7f,0x08,0x81,0x4d,0x40,0x10,0x91,0x4d,0x7f,0x08,0x81,
0x4f,0x40,0x84,0x38,0x4d,0x40,0x00,0x91,0x46,0x7f,0x83,0x00,0x81,0x46,0x40,0x00,
0x91,0x4d,0x7f,0x83,0x00,0x81,0x4d,0x40,0x00,0x91,0x4b,0x7f,0x40,0x81,0x4b,0x40,
0x00,0x91,0x4a,0x7f,0x40,0x81,0x4a,0x40,0x00,0x91,0x48,0x7f,0x40,0x81,0x48,0x40,
0x00,0x91,0x52,0x7f,0x83,0x00,0x81,0x52,0x40,0x00,0x91,0x4d,0x7f,0x81,0x40,0x81,
0x4d,0x40,0x00,0x91,0x4b,0x7f,0x40,0x81,0x4b,0x40,0x00,0x91,0x4a,0x7f,0x40,0x81,
0x4a,0x40,0x00,0x91,0x48,0x7f,0x40,0x81,0x48,0x40,0x00,0x91,0x52,0x7f,0x83,0x00,
0x81,0x52,0x40,0x00,0x91,0x4d,0x7f,0x81,0x40,0x81,0x4d,0x40,0x00,0x91,0x4b,0x7f,
0x40,0x81,0x4b,0x40,0x00,0x91,0x4a,0x7f,0x40,0x81,0x4a,0x40,0x00,0x91,0x4b,0x7f,
0x40,0x81,0x4b,0x40,0x00,0x91,0x48,0x7f,0x83,0x00,0x81,0x48,0x40,0x00,0x91,0x46,
0x7f,0x20,0x81,0x46,0x40,0x00,0x91,0x48,0x7f,0x20,0x81,0x48,0x40,0x00,0x91,0x4a,
0x7f,0x20,0x81,0x4a,0x40,0x00,0x91,0x4b,0x7f,0x18,0x4d,0x7f,0x08,0x81,0x4b,0x40,
0x10,0x91,0x4f,0x7f,0x08,0x81,0x4d,0x40,0x10,0x91,0x51,0x7f,0x08,0x81,0x4f,0x40,
0x10,0x51,0x40,0x00,0x91,0x52,0x7f,0x92,0x00,0x81,0x52,0x40,0x00,0x91,0x57,0x7f,
0x40,0x81,0x57,0x40,0x00,0x91,0x56,0x7f,0x40,0x81,0x56,0x40,0x00,0x91,0x57,0x7f,
0x40,0x81,0x57,0x40,0x93,0x40,0x91,0x48,0x7f,0x20,0x81,0x48,0x40,0x00,0x91,0x46,
0x7f,0x20,0x81,0x46,0x40,0x00,0x91,0x44,0x7f,0x20,0x81,0x44,0x40,0x00,0x91,0x4a,
0x7f,0x20,0x81,0x4a,0x40,0x00,0x91,0x48,0x7f,0x20,0x81,0x48,0x40,0x00,0x91,0x46,
0x7f,0x20,0x81,0x46,0x40,0x00,0x91,0x4b,0x7f,0x20,0x81,0x4b,0x40,0x00,0x91,0x4a,
0x7f,0x20,0x81,0x4a,0x40,0x00,0x91,0x48,0x7f,0x20,0x81,0x48,0x40,0x00,0x91,0x4d,
0x7f,0x20,0x81,0x4d,0x40,0x00,0x91,0x4a,0x7f,0x20,0x81,0x4a,0x40,0x00,0x91,0x46,
0x7f,0x20,0x81,0x46,0x40,0x00,0x91,0x4f,0x7f,0x20,0x81,0x4f,0x40,0x00,0x91,0x4d,
0x7f,0x20,0x81,0x4d,0x40,0x00,0x91,0x4b,0x7f,0x20,0x81,0x4b,0x40,0x00,0x91,0x50,
0x7f,0x20,0x81,0x50,0x40,0x00,0x91,0x4b,0x7f,0x20,0x81,0x4b,0x40,0x00,0x91,0x48,
0x7f,0x20,0x81,0x48,0x40,0x00,0x91,0x52,0x7f,0x20,0x81,0x52,0x40,0x00,0x91,0x50,
0x7f,0x20,0x81,0x50,0x40,0x00,0x91,0x4f,0x7f,0x20,0x81,0x4f,0x40,0x00,0x91,0x54,
0x7f,0x20,0x81,0x54,0x40,0x00,0x91,0x4b,0x7f,0x20,0x81,0x4b,0x40,0x00,0x91,0x4a,
0x7f,0x20,0x81,0x4a,0x40,0x00,0x91,0x52,0x7f,0x20,0x81,0x52,0x40,0x00,0x91,0x50,
0x7f,0x20,0x81,0x50,0x40,0x00,0x91,0x4f,0x7f,0x20,0x81,0x4f,0x40,0x00,0x91,0x54,
0x7f,0x20,0x81,0x54,0x40,0x00,0x91,0x52,0x7f,0x20,0x81,0x52,0x40,0x00,0x91,0x50,
0x7f,0x20,0x81,0x50,0x40,0x00,0x91,0x56,0x7f,0x20,0x81,0x56,0x40,0x00,0x91,0x54,
0x7f,0x20,0x81,0x54,0x40,0x00,0x91,0x52,0x7f,0x20,0x81,0x52,0x40,0x00,0x91,0x57,
0x7f,0x20,0x81,0x57,0x40,0x00,0x91,0x56,0x7f,0x20,0x81,0x56,0x40,0x00,0x91,0x54,
0x7f,0x20,0x81,0x54,0x40,0x00,0x91,0x58,0x7f,0x20,0x81,0x58,0x40,0x00,0x91,0x4f,
0x7f,0x20,0x81,0x4f,0x40,0x00,0x91,0x4c,0x7f,0x20,0x81,0x4c,0x40,0x00,0x91,0x43,
0x7f,0x20,0x81,0x43,0x40,0x00,0x91,0x4c,0x7f,0x20,0x81,0x4c,0x40,0x00,0x91,0x4f,
0x7f,0x20,0x81,0x4f,0x40,0x00,0x91,0x58,0x7f,0x20,0x81,0x58,0x40,0x00,0x91,0x4f,
0x7f,0x20,0x81,0x4f,0x40,0x00,0x91,0x4c,0x7f,0x20,0x81,0x4c,0x40,0x00,0x91,0x43,
0x7f,0x20,0x81,0x43,0x40,0x00,0x91,0x4c,0x7f,0x20,0x81,0x4c,0x40,0x00,0x91,0x4f,
0x7f,0x20,0x81,0x4f,0x40,0x00,0x91,0x58,0x7f,0x20,0x81,0x58,0x40,0x00,0x91,0x4f,
0x7f,0x20,0x81,0x4f,0x40,0x00,0x91,0x4c,0x7f,0x20,0x81,0x4c,0x40,0x00,0x91,0x43,
0x7f,0x20,0x81,0x43,0x40,0x00,0x91,0x4c,0x7f,0x20,0x81,0x4c,0x40,0x00,0x91,0x4f,
0x7f,0x20,0x81,0x4f,0x40,0x00,0x91,0x58,0x7f,0x20,0x81,0x58,0x40,0x00,0x91,0x4f,
0x7f,0x20,0x81,0x4f,0x40,0x00,0x91,0x4c,0x7f,0x20,0x81,0x4c,0x40,0x00,0x91,0x43,
0x7f,0x20,0x81,0x43,0x40,0x00,0x91,0x4c,0x7f,0x20,0x81,0x4c,0x40,0x00,0x91,0x4f,
0x7f,0x20,0x81,0x4f,0x40,0x00,0x91,0x58,0x7f,0x20,0x81,0x58,0x40,0x00,0x91,0x4f,
0x7f,0x20,0x81,0x4f,0x40,0x00,0x91,0x4c,0x7f,0x20,0x81,0x4c,0x40,0x00,0x91,0x43,
0x7f,0x20,0x81,0x43,0x40,0x00,0x91,0x4c,0x7f,0x20,0x81,0x4c,0x40,0x00,0x91,0x4f,
0x7f,0x20,0x81,0x4f,0x40,0x00,0x91,0x58,0x7f,0x20,0x81,0x58,0x40,0x00,0x91,0x4f,
0x7f,0x20,0x81,0x4f,0x40,0x00,0x91,0x4c,0x7f,0x20,0x81,0x4c,0x40,0x00,0x91,0x43,
0x7f,0x20,0x81,0x43,0x40,0x00,0x91,0x4c,0x7f,0x20,0x81,0x4c,0x40,0x00,0x91,0x4f,
0x7f,0x20,0x81,0x4f,0x40,0x00,0x91,0x58,0x7f,0x20,0x81,0x58,0x40,0x00,0x91,0x4f,
0x7f,0x20,0x81,0x4f,0x40,0x00,0x91,0x4c,0x7f,0x20,0x81,0x4c,0x40,0x00,0x91,0x43,
0x7f,0x20,0x81,0x43,0x40,0x00,0x91,0x4c,0x7f,0x20,0x81,0x4c,0x40,0x00,0x91,0x4f,
0x7f,0x20,0x81,0x4f,0x40,0x00,0x91,0x58,0x7f,0x20,0x81,0x58,0x40,0x00,0x91,0x4f,
0x7f,0x20,0x81,0x4f,0x40,0x00,0x91,0x4c,0x7f,0x20,0x81,0x4c,0x40,0x00,0x91,0x43,
0x7f,0x20,0x81,0x43,0x40,0x00,0x91,0x4c,0x7f,0x20,0x81,0x4c,0x40,0x00,0x91,0x4f,
0x7f,0x20,0x81,0x4f,0x40,0x00,0x91,0x5b,0x7f,0x00,0xb1,0x07,0x30,0x20,0x81,0x5b,
0x40,0x00,0x91,0x58,0x7f,0x20,0x81,0x58,0x40,0x00,0x91,0x5b,0x7f,0x20,0x81,0x5b,
0x40,0x00,0x91,0x58,0x7f,0x20,0x81,0x58,0x40,0x00,0x91,0x5b,0x7f,0x20,0x81,0x5b,
0x40,0x00,0x91,0x58,0x7f,0x20,0x81,0x58,0x40,0x00,0x91,0x5b,0x7f,0x20,0x81,0x5b,
0x40,0x00,0x91,0x58,0x7f,0x20,0x81,0x58,0x40,0x00,0x91,0x5b,0x7f,0x20,0x81,0x5b,
0x40,0x00,0x91,0x58,0x7f,0x20,0x81,0x58,0x40,0x00,0x91,0x5b,0x7f,0x20,0x81,0x5b,
0x40,0x00,0x91,0x58,0x7f,0x20,0x81,0x58,0x40,0x00,0x91,0x5b,0x7f,0x20,0x81,0x5b,
0x40,0x00,0x91,0x58,0x7f,0x20,0x81,0x58,0x40,0x00,0x91,0x5b,0x7f,0x20,0x81,0x5b,
0x40,0x00,0x91,0x58,0x7f,0x20,0x81,0x58,0x40,0x00,0x91,0x5b,0x7f,0x20,0x81,0x5b,
0x40,0x00,0x91,0x58,0x7f,0x20,0x81,0x58,0x40,0x00,0x91,0x5b,0x7f,0x20,0x81,0x5b,
0x40,0x00,0x91,0x58,0x7f,0x20,0x81,0x58,0x40,0x00,0x91,0x5b,0x7f,0x20,0x81,0x5b,
0x40,0x00,0x91,0x58,0x7f,0x20,0x81,0x58,0x40,0x00,0x91,0x5b,0x7f,0x20,0x81,0x5b,
0x40,0x00,0x91,0x58,0x7f,0x20,0x81,0x58,0x40,0x00,0x91,0x5b,0x7f,0x20,0x81,0x5b,
0x40,0x00,0x91,0x58,0x7f,0x20,0x81,0x58,0x40,0x00,0x91,0x5b,0x7f,0x20,0x81,0x5b,
0x40,0x00,0x91,0x58,0x7f,0x20,0x81,0x58,0x40,0x00,0x91,0x5b,0x7f,0x20,0x81,0x5b,
0x40,0x00,0x91,0x58,0x7f,0x20,0x81,0x58,0x40,0x00,0x91,0x5b,0x7f,0x20,0x81,0x5b,
0x40,0x00,0x91,0x58,0x7f,0x1f,0x81,0x58,0x40,0x01,0x91,0x5b,0x7f,0x20,0x81,0x5b,
0x40,0x00,0x91,0x58,0x7f,0x20,0x81,0x58,0x40,0x00,0x91,0x5b,0x7f,0x20,0x81,0x5b,
0x40,0x00,0x91,0x58,0x7f,0x20,0x81,0x58,0x40,0x00,0x91,0x5b,0x7f,0x20,0x81,0x5b,
0x40,0x00,0x91,0x58,0x7f,0x20,0x81,0x58,0x40,0x00,0x91,0x5b,0x7f,0x20,0x81,0x5b,
0x40,0x00,0x91,0x58,0x7f,0x20,0x81,0x58,0x40,0x00,0x91,0x5b,0x7f,0x20,0x81,0x5b,
0x40,0x00,0x91,0x58,0x7f,0x20,0x81,0x58,0x40,0x00,0x91,0x5b,0x7f,0x20,0x81,0x5b,
0x40,0x00,0x91,0x58,0x7f,0x20,0x81,0x58,0x40,0x00,0x91,0x5b,0x7f,0x20,0x81,0x5b,
0x40,0x00,0x91,0x58,0x7f,0x20,0x81,0x58,0x40,0x00,0x91,0x5b,0x7f,0x20,0x81,0x5b,
0x40,0x00,0x91,0x58,0x7f,0x20,0x81,0x58,0x40,0x00,0xb1,0x07,0x30,0x00,0x91,0x5b,
0x7f,0x81,0x40,0x81,0x5b,0x40,0x00,0x91,0x58,0x7f,0x84,0x40,0x81,0x58,0x40,0x00,
0xff,0x2f,0x00,0x4d,0x54,0x72,0x6b,0x00,0x00,0x04,0xd6,0x00,0xff,0x21,0x01,0x00,
0x00,0xff,0x03,0x14,0x56,0x69,0x6f,0x6c,0x69,0x6e,0x20,0x49,0x49,0x20,0x20,0x20,
0x20,0x20,0x20,0x20,0x20,0x20,0x20,0x20,0x00,0xc1,0x30,0x86,0x00,0xb1,0x07,0x40,
0x00,0x0b,0x7f,0x00,0x5b,0x7f,0x00,0x5d,0x00,0x00,0x0a,0x40,0x00,0x00,0x00,0x00,
0x20,0x00,0x00,0x01,0x00,0x00,0x91,0x46,0x7f,0x82,0x20,0x81,0x46,0x40,0x8e,0x20,
0x91,0x3c,0x7f,0x40,0x81,0x3c,0x40,0x00,0x91,0x3c,0x7f,0x40,0x81,0x3c,0x40,0x00,
0x91,0x3c,0x7f,0x40,0x81,0x3c,0x40,0x00,0x91,0x3a,0x7f,0x60,0x81,0x3a,0x40,0x00,
0x91,0x3a,0x7f,0x30,0x81,0x3a,0x40,0x00,0x91,0x3a,0x7f,0x30,0x81,0x3a,0x40,0x00,
0x91,0x3a,0x7f,0x82,0x20,0x81,0x3a,0x40,0x00,0x91,0x3e,0x7f,0x20,0x81,0x3e,0x40,
0x00,0x91,0x3e,0x7f,0x20,0x81,0x3e,0x40,0x00,0x91,0x3e,0x7f,0x20,0x81,0x3e,0x40,
0x00,0x91,0x3e,0x7f,0x60,0x81,0x3e,0x40,0x00,0x91,0x3e,0x7f,0x60,0x81,0x3e,0x40,
0x60,0x91,0x3f,0x7f,0x60,0x81,0x3f,0x40,0x60,0x91,0x3f,0x7f,0x60,0x81,0x3f,0x40,
0x00,0x91,0x3f,0x7f,0x60,0x81,0x3f,0x40,0x00,0x91,0x3f,0x7f,0x18,0x81,0x3f,0x40,
0x00,0x91,0x3f,0x7f,0x18,0x81,0x3f,0x40,0x00,0x91,0x3f,0x7f,0x30,0x81,0x3f,0x40,
0x00,0x91,0x3e,0x7f,0x40,0x81,0x3e,0x40,0x00,0x91,0x3e,0x7f,0x40,0x81,0x3e,0x40,
0x00,0x91,0x3e,0x7f,0x40,0x81,0x3e,0x40,0x60,0x91,0x3f,0x7f,0x60,0x81,0x3f,0x40,
0x60,0x91,0x3f,0x7f,0x60,0x81,0x3f,0x40,0x00,0x91,0x3f,0x7f,0x60,0x81,0x3f,0x40,
0x00,0x91,0x3f,0x7f,0x18,0x81,0x3f,0x40,0x00,0x91,0x3f,0x7f,0x18,0x81,0x3f,0x40,
0x00,0x91,0x3f,0x7f,0x30,0x81,0x3f,0x40,0x00,0x91,0x3e,0x7f,0x40,0x81,0x3e,0x40,
0x00,0x91,0x3e,0x7f,0x40,0x81,0x3e,0x40,0x00,0x91,0x3e,0x7f,0x40,0x81,0x3e,0x40,
0x00,0x91,0x3f,0x7f,0x40,0x81,0x3f,0x40,0x00,0x91,0x3e,0x7f,0x40,0x81,0x3e,0x40,
0x00,0x91,0x3f,0x7f,0x40,0x81,0x3f,0x40,0x00,0x91,0x3c,0x7f,0x82,0x20,0x81,0x3c,
0x40,0x00,0x91,0x39,0x7f,0x20,0x81,0x39,0x40,0x00,0x91,0x39,0x7f,0x20,0x81,0x39,
0x40,0x00,0x91,0x39,0x7f,0x20,0x81,0x39,0x40,0x00,0x91,0x39,0x7f,0x60,0x81,0x39,
0x40,0x00,0x91,0x39,0x7f,0x20,0x81,0x39,0x40,0x00,0x91,0x39,0x7f,0x20,0x81,0x39,
0x40,0x00,0x91,0x39,0x7f,0x20,0x81,0x39,0x40,0x00,0x91,0x41,0x7f,0x81,0x40,0x81,
0x41,0x40,0x00,0x91,0x41,0x7f,0x83,0x00,0x81,0x41,0x40,0x00,0x91,0x41,0x7f,0x81,
0x40,0x81,0x41,0x40,0x00,0x91,0x3f,0x7f,0x81,0x40,0x81,0x3f,0x40,0x00,0x91,0x3f,
0x7f,0x81,0x40,0x81,0x3f,0x40,0x00,0x91,0x43,0x7f,0x81,0x40,0x41,0x7f,0x01,0x81,
0x43,0x40,0x81,0x3f,0x41,0x40,0x00,0x91,0x3f,0x7f,0x81,0x40,0x81,0x3f,0x40,0x00,
0x91,0x3f,0x7f,0x60,0x81,0x3f,0x40,0x00,0x91,0x3f,0x7f,0x60,0x81,0x3f,0x40,0x00,
0x91,0x3e,0x7f,0x81,0x40,0x81,0x3e,0x40,0x00,0x91,0x3e,0x7f,0x60,0x81,0x3e,0x40,
0x00,0x91,0x3e,0x7f,0x60,0x81,0x3e,0x40,0x00,0x91,0x3f,0x7f,0x40,0x81,0x3f,0x40,
0x00,0x91,0x3e,0x7f,0x40,0x81,0x3e,0x40,0x00,0x91,0x3f,0x7f,0x40,0x81,0x3f,0x40,
0x00,0x91,0x3c,0x7f,0x83,0x00,0x81,0x3c,0x40,0x00,0x91,0x41,0x7f,0x81,0x40,0x81,
0x41,0x40,0x00,0x91,0x43,0x7f,0x82,0x20,0x81,0x43,0x40,0x00,0x91,0x43,0x7f,0x60,
0x81,0x43,0x40,0x00,0x91,0x4b,0x7f,0x60,0x81,0x4b,0x40,0x00,0x91,0x4a,0x7f,0x60,
0x81,0x4a,0x40,0x00,0x91,0x48,0x7f,0x60,0x81,0x48,0x40,0x00,0x91,0x46,0x7f,0x60,
0x81,0x46,0x40,0x00,0x91,0x46,0x7f,0x40,0x81,0x46,0x40,0x00,0x91,0x48,0x7f,0x40,
0x81,0x48,0x40,0x00,0x91,0x4a,0x7f,0x40,0x81,0x4a,0x40,0x00,0x91,0x48,0x7f,0x81,
0x00,0x81,0x48,0x40,0x00,0x91,0x43,0x7f,0x40,0x81,0x43,0x40,0x00,0x91,0x45,0x7f,
0x81,0x40,0x81,0x45,0x40,0x00,0x91,0x41,0x7f,0x81,0x40,0x81,0x41,0x40,0x00,0x91,
0x43,0x7f,0x82,0x20,0x81,0x43,0x40,0x00,0x91,0x43,0x7f,0x30,0x81,0x43,0x40,0x00,
0x91,0x4b,0x7f,0x30,0x81,0x4b,0x40,0x00,0x91,0x4b,0x7f,0x60,0x81,0x4b,0x40,0x00,
0x91,0x4a,0x7f,0x60,0x81,0x4a,0x40,0x00,0x91,0x48,0x7f,0x60,0x81,0x48,0x40,0x00,
0x91,0x46,0x7f,0x30,0x81,0x46,0x40,0x00,0x91,0x4d,0x7f,0x30,0x81,0x4d,0x40,0x00,
0x91,0x4d,0x7f,0x81,0x10,0x81,0x4d,0x40,0x00,0x91,0x48,0x7f,0x30,0x81,0x48,0x40,
0x00,0x91,0x48,0x7f,0x83,0x00,0x81,0x48,0x40,0x60,0x91,0x41,0x7f,0x60,0x81,0x41,
0x40,0x00,0x91,0x43,0x7f,0x82,0x20,0x81,0x43,0x40,0x00,0x91,0x43,0x7f,0x60,0x81,
0x43,0x40,0x00,0x91,0x4b,0x7f,0x60,0x81,0x4b,0x40,0x00,0x91,0x4a,0x7f,0x60,0x81,
0x4a,0x40,0x00,0x91,0x48,0x7f,0x60,0x81,0x48,0x40,0x00,0x91,0x46,0x7f,0x60,0x81,
0x46,0x40,0x00,0x91,0x46,0x7f,0x40,0x81,0x46,0x40,0x00,0x91,0x48,0x7f,0x40,0x81,
0x48,0x40,0x00,0x91,0x4a,0x7f,0x40,0x81,0x4a,0x40,0x00,0x91,0x48,0x7f,0x81,0x00,
0x81,0x48,0x40,0x00,0x91,0x43,0x7f,0x40,0x81,0x43,0x40,0x00,0x91,0x45,0x7f,0x81,
0x40,0x81,0x45,0x40,0x00,0x91,0x41,0x7f,0x81,0x00,0x81,0x41,0x40,0x00,0x91,0x41,
0x7f,0x40,0x81,0x41,0x40,0x00,0x91,0x46,0x7f,0x81,0x00,0x81,0x46,0x40,0x00,0x91,
0x44,0x7f,0x40,0x81,0x44,0x40,0x00,0x91,0x42,0x7f,0x81,0x00,0x81,0x42,0x40,0x00,
0x91,0x41,0x7f,0x40,0x81,0x41,0x40,0x00,0x91,0x3f,0x7f,0x81,0x00,0x81,0x3f,0x40,
0x00,0x91,0x3d,0x7f,0x40,0x81,0x3d,0x40,0x00,0x91,0x3c,0x7f,0x81,0x00,0x81,0x3c,
0x40,0x00,0x91,0x3a,0x7f,0x40,0x81,0x3a,0x40,0x00,0x91,0x41,0x7f,0x8c,0x00,0x81,
0x41,0x40,0x00,0x91,0x3e,0x7f,0x86,0x00,0x81,0x3e,0x40,0x00,0x91,0x3f,0x7f,0x84,
0x40,0x81,0x3f,0x40,0x00,0x91,0x3e,0x7f,0x81,0x40,0x81,0x3e,0x40,0x00,0x91,0x3f,
0x7f,0x84,0x40,0x81,0x3f,0x40,0x00,0x91,0x3e,0x7f,0x81,0x40,0x81,0x3e,0x40,0x00,
0x91,0x3c,0x7f,0x82,0x20,0x81,0x3c,0x40,0x00,0x91,0x3c,0x7f,0x81,0x40,0x81,0x3c,
0x40,0x00,0x91,0x3c,0x7f,0x60,0x81,0x3c,0x40,0x00,0x91,0x3c,0x7f,0x40,0x81,0x3c,
0x40,0x00,0x91,0x3c,0x7f,0x40,0x81,0x3c,0x40,0x00,0x91,0x3c,0x7f,0x40,0x81,0x3c,
0x40,0x00,0x91,0x3a,0x7f,0x86,0x00,0x81,0x3a,0x40,0x00,0x91,0x3f,0x7f,0x83,0x00,
0x81,0x3f,0x40,0x00,0x91,0x3a,0x7f,0x83,0x00,0x81,0x3a,0x40,0x00,0x91,0x3f,0x7f,
0x83,0x00,0x81,0x3f,0x40,0x00,0x91,0x3a,0x7f,0x83,0x00,0x81,0x3a,0x40,0x00,0x91,
0x48,0x7f,0x40,0x81,0x48,0x40,0x00,0x91,0x47,0x7f,0x40,0x81,0x47,0x40,0x00,0x91,
0x48,0x7f,0x40,0x81,0x48,0x40,0x00,0x91,0x4d,0x7f,0x89,0x00,0x81,0x4d,0x40,0x86,
0x60,0x91,0x44,0x7f,0x20,0x81,0x44,0x40,0x00,0x91,0x44,0x7f,0x20,0x81,0x44,0x40,
0x00,0x91,0x44,0x7f,0x20,0x81,0x44,0x40,0x00,0x91,0x44,0x7f,0x60,0x81,0x44,0x40,
0x81,0x40,0x91,0x44,0x7f,0x20,0x81,0x44,0x40,0x00,0x91,0x44,0x7f,0x20,0x81,0x44,
0x40,0x00,0x91,0x44,0x7f,0x20,0x81,0x44,0x40,0x00,0x91,0x44,0x7f,0x60,0x81,0x44,
0x40,0x88,0x20,0x91,0x41,0x7f,0x85,0x20,0x81,0x41,0x40,0x00,0x91,0x41,0x7f,0x60,
0x81,0x41,0x40,0x00,0x91,0x40,0x7f,0x85,0x20,0x81,0x40,0x40,0x00,0x91,0x40,0x7f,
0x60,0x81,0x40,0x40,0x00,0x91,0x44,0x7f,0x92,0x00,0x81,0x44,0x40,0x00,0xff,0x2f,
0x00,0x4d,0x54,0x72,0x6b,0x00,0x00,0x04,0x88,0x00,0xff,0x21,0x01,0x00,0x00,0xff,
0x03,0x14,0x56,0x69,0x6f,0x6c,0x61,0x20,0x20,0x20,0x20,0x20,0x20,0x20,0x20,0x20,
0x20,0x20,0x20,0x20,0x20,0x20,0x00,0xc1,0x30,0x86,0x00,0xb1,0x07,0x40,0x00,0x0b,
0x7f,0x00,0x5b,0x7f,0x00,0x5d,0x00,0x00,0x0a,0x40,0x00,0x00,0x00,0x00,0x20,0x00,
0x00,0x01,0x00,0x00,0x91,0x41,0x7f,0x82,0x20,0x81,0x41,0x40,0x8e,0x20,0x91,0x39,
0x7f,0x40,0x81,0x39,0x40,0x00,0x91,0x39,0x7f,0x40,0x81,0x39,0x40,0x00,0x91,0x39,
0x7f,0x40,0x81,0x39,0x40,0x00,0x91,0x35,0x7f,0x60,0x81,0x35,0x40,0x00,0x91,0x35,
0x7f,0x30,0x81,0x35,0x40,0x00,0x91,0x35,0x7f,0x30,0x81,0x35,0x40,0x00,0x91,0x35,
0x7f,0x82,0x20,0x81,0x35,0x40,0x00,0x91,0x3a,0x7f,0x20,0x81,0x3a,0x40,0x00,0x91,
0x3a,0x7f,0x20,0x81,0x3a,0x40,0x00,0x91,0x3a,0x7f,0x20,0x81,0x3a,0x40,0x00,0x91,
0x3a,0x7f,0x60,0x81,0x3a,0x40,0x00,0x91,0x35,0x7f,0x60,0x81,0x35,0x40,0x60,0x91,
0x35,0x7f,0x60,0x81,0x35,0x40,0x60,0x91,0x35,0x7f,0x60,0x81,0x35,0x40,0x00,0x91,
0x35,0x7f,0x60,0x81,0x35,0x40,0x00,0x91,0x35,0x7f,0x18,0x81,0x35,0x40,0x00,0x91,
0x35,0x7f,0x18,0x81,0x35,0x40,0x00,0x91,0x35,0x7f,0x30,0x81,0x35,0x40,0x00,0x91,
0x3a,0x7f,0x40,0x81,0x3a,0x40,0x00,0x91,0x3a,0x7f,0x40,0x81,0x3a,0x40,0x00,0x91,
0x3a,0x7f,0x40,0x81,0x3a,0x40,0x60,0x91,0x35,0x7f,0x60,0x81,0x35,0x40,0x60,0x91,
0x35,0x7f,0x60,0x81,0x35,0x40,0x00,0x91,0x35,0x7f,0x60,0x81,0x35,0x40,0x00,0x91,
0x35,0x7f,0x18,0x81,0x35,0x40,0x00,0x91,0x35,0x7f,0x18,0x81,0x35,0x40,0x00,0x91,
0x35,0x7f,0x30,0x81,0x35,0x40,0x00,0x91,0x3a,0x7f,0x40,0x81,0x3a,0x40,0x00,0x91,
0x3a,0x7f,0x40,0x81,0x3a,0x40,0x00,0x91,0x3a,0x7f,0x40,0x81,0x3a,0x40,0x00,0x91,
0x3c,0x7f,0x40,0x81,0x3c,0x40,0x00,0x91,0x3b,0x7f,0x40,0x81,0x3b,0x40,0x00,0x91,
0x3c,0x7f,0x40,0x81,0x3c,0x40,0x00,0x91,0x39,0x7f,0x82,0x20,0x81,0x39,0x40,0x00,
0x91,0x35,0x7f,0x20,0x81,0x35,0x40,0x00,0x91,0x35,0x7f,0x20,0x81,0x35,0x40,0x00,
0x91,0x35,0x7f,0x20,0x81,0x35,0x40,0x00,0x91,0x35,0x7f,0x60,0x81,0x35,0x40,0x00,
0x91,0x35,0x7f,0x20,0x81,0x35,0x40,0x00,0x91,0x35,0x7f,0x20,0x81,0x35,0x40,0x00,
0x91,0x35,0x7f,0x20,0x81,0x35,0x40,0x00,0x91,0x3e,0x7f,0x81,0x40,0x81,0x3e,0x40,
0x00,0x91,0x3e,0x7f,0x83,0x00,0x81,0x3e,0x40,0x00,0x91,0x3e,0x7f,0x81,0x40,0x81,
0x3e,0x40,0x00,0x91,0x3a,0x7f,0x83,0x00,0x81,0x3a,0x40,0x00,0x91,0x3f,0x7f,0x81,
0x40,0x81,0x3f,0x40,0x00,0x91,0x3e,0x7f,0x81,0x40,0x81,0x3e,0x40,0x00,0x91,0x3a,
0x7f,0x81,0x40,0x81,0x3a,0x40,0x00,0x91,0x3a,0x7f,0x60,0x81,0x3a,0x40,0x00,0x91,
0x3a,0x7f,0x60,0x81,0x3a,0x40,0x00,0x91,0x3a,0x7f,0x81,0x40,0x81,0x3a,0x40,0x00,
0x91,0x3a,0x7f,0x60,0x81,0x3a,0x40,0x00,0x91,0x3a,0x7f,0x60,0x81,0x3a,0x40,0x00,
0x91,0x3c,0x7f,0x40,0x81,0x3c,0x40,0x00,0x91,0x3b,0x7f,0x40,0x81,0x3b,0x40,0x00,
0x91,0x3c,0x7f,0x40,0x81,0x3c,0x40,0x00,0x91,0x39,0x7f,0x84,0x40,0x81,0x39,0x40,
0x00,0x91,0x3f,0x7f,0x81,0x40,0x81,0x3f,0x40,0x00,0x91,0x3f,0x7f,0x83,0x00,0x81,
0x3f,0x40,0x00,0x91,0x3f,0x7f,0x81,0x40,0x81,0x3f,0x40,0x00,0x91,0x3f,0x7f,0x82,
0x40,0x81,0x3f,0x40,0x00,0x91,0x3f,0x7f,0x40,0x81,0x3f,0x40,0x00,0x91,0x41,0x7f,
0x83,0x00,0x81,0x41,0x40,0x00,0x91,0x3f,0x7f,0x81,0x40,0x81,0x3f,0x40,0x00,0x91,
0x3f,0x7f,0x83,0x00,0x81,0x3f,0x40,0x00,0x91,0x3f,0x7f,0x81,0x40,0x81,0x3f,0x40,
0x00,0x91,0x3d,0x7f,0x81,0x40,0x81,0x3d,0x40,0x00,0x91,0x3c,0x7f,0x81,0x40,0x81,
0x3c,0x40,0x00,0x91,0x3f,0x7f,0x81,0x40,0x81,0x3f,0x40,0x00,0x91,0x3c,0x7f,0x81,
0x40,0x81,0x3c,0x40,0x00,0x91,0x3f,0x7f,0x81,0x40,0x81,0x3f,0x40,0x00,0x91,0x41,
0x7f,0x60,0x81,0x41,0x40,0x00,0x91,0x43,0x7f,0x60,0x81,0x43,0x40,0x00,0x91,0x44,
0x7f,0x81,0x40,0x81,0x44,0x40,0x00,0x91,0x45,0x7f,0x81,0x40,0x81,0x45,0x40,0x00,
0x91,0x46,0x7f,0x81,0x40,0x81,0x46,0x40,0x00,0x91,0x43,0x7f,0x81,0x40,0x81,0x43,
0x40,0x00,0x91,0x48,0x7f,0x81,0x40,0x81,0x48,0x40,0x00,0x91,0x41,0x7f,0x81,0x00,
0x81,0x41,0x40,0x00,0x91,0x41,0x7f,0x40,0x81,0x41,0x40,0x00,0x91,0x3c,0x7f,0x81,
0x00,0x81,0x3c,0x40,0x00,0x91,0x3e,0x7f,0x40,0x81,0x3e,0x40,0x00,0x91,0x3f,0x7f,
0x81,0x00,0x81,0x3f,0x40,0x00,0x91,0x41,0x7f,0x40,0x81,0x41,0x40,0x00,0x91,0x42,
0x7f,0x81,0x00,0x81,0x42,0x40,0x00,0x91,0x44,0x7f,0x40,0x81,0x44,0x40,0x00,0x91,
0x46,0x7f,0x81,0x00,0x81,0x46,0x40,0x00,0x91,0x48,0x7f,0x40,0x81,0x48,0x40,0x00,
0x91,0x48,0x7f,0x8c,0x00,0x81,0x48,0x40,0x00,0x91,0x3a,0x7f,0x86,0x00,0x81,0x3a,
0x40,0x00,0x91,0x38,0x7f,0x84,0x40,0x81,0x38,0x40,0x00,0x91,0x3a,0x7f,0x81,0x40,
0x81,0x3a,0x40,0x00,0x91,0x38,0x7f,0x84,0x40,0x81,0x38,0x40,0x00,0x91,0x3a,0x7f,
0x81,0x40,0x81,0x3a,0x40,0x00,0x91,0x35,0x7f,0x82,0x20,0x81,0x35,0x40,0x00,0x91,
0x35,0x7f,0x81,0x40,0x81,0x35,0x40,0x00,0x91,0x35,0x7f,0x60,0x81,0x35,0x40,0x00,
0x91,0x35,0x7f,0x40,0x81,0x35,0x40,0x00,0x91,0x35,0x7f,0x40,0x81,0x35,0x40,0x00,
0x91,0x35,0x7f,0x40,0x81,0x35,0x40,0x00,0x91,0x32,0x7f,0x81,0x40,0x81,0x32,0x40,
0x00,0x91,0x32,0x7f,0x83,0x00,0x81,0x32,0x40,0x00,0x91,0x32,0x7f,0x81,0x40,0x81,
0x32,0x40,0x00,0x91,0x37,0x7f,0x83,0x00,0x81,0x37,0x40,0x00,0x91,0x35,0x7f,0x83,
0x00,0x81,0x35,0x40,0x00,0x91,0x37,0x7f,0x81,0x40,0x81,0x37,0x40,0x00,0x91,0x35,
0x7f,0x81,0x40,0x81,0x35,0x40,0x00,0x91,0x35,0x7f,0x83,0x00,0x81,0x35,0x40,0x00,
0x91,0x35,0x7f,0x40,0x81,0x35,0x40,0x00,0x91,0x35,0x7f,0x40,0x81,0x35,0x40,0x00,
0x91,0x35,0x7f,0x40,0x81,0x35,0x40,0x00,0x91,0x35,0x7f,0x89,0x00,0x81,0x35,0x40,
0x86,0x60,0x91,0x3f,0x7f,0x20,0x81,0x3f,0x40,0x00,0x91,0x3f,0x7f,0x20,0x81,0x3f,
0x40,0x00,0x91,0x3f,0x7f,0x20,0x81,0x3f,0x40,0x00,0x91,0x3f,0x7f,0x60,0x81,0x3f,
0x40,0x00,0x91,0x3f,0x7f,0x20,0x81,0x3f,0x40,0x00,0x91,0x3f,0x7f,0x20,0x81,0x3f,
0x40,0x00,0x91,0x3f,0x7f,0x20,0x81,0x3f,0x40,0x00,0x91,0x3f,0x7f,0x60,0x81,0x3f,
0x40,0x00,0x91,0x3f,0x7f,0x20,0x81,0x3f,0x40,0x00,0x91,0x3f,0x7f,0x20,0x81,0x3f,
0x40,0x00,0x91,0x3f,0x7f,0x20,0x81,0x3f,0x40,0x00,0x91,0x3f,0x7f,0x60,0x81,0x3f,
0x40,0x88,0x20,0x91,0x3c,0x7f,0x85,0x20,0x81,0x3c,0x40,0x00,0x91,0x3c,0x7f,0x60,
0x81,0x3c,0x40,0x00,0x91,0x3d,0x7f,0x85,0x20,0x81,0x3d,0x40,0x00,0x91,0x3d,0x7f,
0x60,0x81,0x3d,0x40,0x00,0x91,0x3c,0x7f,0x92,0x00,0x81,0x3c,0x40,0x00,0xff,0x2f,
0x00,0x4d,0x54,0x72,0x6b,0x00,0x00,0x08,0x89,0x00,0xff,0x21,0x01,0x00,0x00,0xff,
0x03,0x14,0x43,0x65,0x6c,0x6c,0x6f,0x20,0x20,0x20,0x20,0x20,0x20,0x20,0x20,0x20,
0x20,0x20,0x20,0x20,0x20,0x20,0x00,0xc1,0x30,0x86,0x00,0xb1,0x07,0x40,0x00,0x0b,
0x7f,0x00,0x5b,0x7f,0x00,0x5d,0x00,0x00,0x0a,0x40,0x00,0x00,0x00,0x00,0x20,0x00,
0x00,0x01,0x00,0x00,0x91,0x22,0x7f,0x82,0x20,0x81,0x22,0x40,0x8e,0x20,0x91,0x29,
0x7f,0x40,0x81,0x29,0x40,0x00,0x91,0x29,0x7f,0x40,0x81,0x29,0x40,0x00,0x91,0x29,
0x7f,0x40,0x81,0x29,0x40,0x00,0x91,0x2e,0x7f,0x60,0x81,0x2e,0x40,0x00,0x91,0x2e,
0x7f,0x30,0x81,0x2e,0x40,0x00,0x91,0x2e,0x7f,0x30,0x81,0x2e,0x40,0x00,0x91,0x2e,
0x7f,0x82,0x20,0x81,0x2e,0x40,0x00,0x91,0x2e,0x7f,0x20,0x81,0x2e,0x40,0x00,0x91,
0x2e,0x7f,0x20,0x81,0x2e,0x40,0x00,0x91,0x2e,0x7f,0x20,0x81,0x2e,0x40,0x00,0x91,
0x2e,0x7f,0x60,0x81,0x2e,0x40,0x00,0x91,0x2e,0x7f,0x60,0x81,0x2e,0x40,0x60,0x91,
0x2e,0x7f,0x60,0x81,0x2e,0x40,0x60,0x91,0x2e,0x7f,0x60,0x81,0x2e,0x40,0x00,0x91,
0x2e,0x7f,0x60,0x81,0x2e,0x40,0x00,0x91,0x2e,0x7f,0x0c,0x81,0x2e,0x40,0x0c,0x91,
0x2e,0x7f,0x0c,0x81,0x2e,0x40,0x0c,0x91,0x2e,0x7f,0x30,0x81,0x2e,0x40,0x00,0x91,
0x2e,0x7f,0x40,0x81,0x2e,0x40,0x00,0x91,0x2e,0x7f,0x40,0x81,0x2e,0x40,0x00,0x91,
0x2e,0x7f,0x40,0x81,0x2e,0x40,0x60,0x91,0x2e,0x7f,0x60,0x81,0x2e,0x40,0x60,0x91,
0x2e,0x7f,0x60,0x81,0x2e,0x40,0x00,0x91,0x2e,0x7f,0x60,0x81,0x2e,0x40,0x00,0x91,
0x2e,0x7f,0x0c,0x81,0x2e,0x40,0x0c,0x91,0x2e,0x7f,0x0c,0x81,0x2e,0x40,0x0c,0x91,
0x2e,0x7f,0x30,0x81,0x2e,0x40,0x00,0x91,0x2e,0x7f,0x40,0x81,0x2e,0x40,0x00,0x91,
0x2e,0x7f,0x40,0x81,0x2e,0x40,0x00,0x91,0x2e,0x7f,0x40,0x81,0x2e,0x40,0x00,0x91,
0x2c,0x7f,0x40,0x81,0x2c,0x40,0x00,0x91,0x2b,0x7f,0x40,0x81,0x2b,0x40,0x00,0x91,
0x2c,0x7f,0x40,0x81,0x2c,0x40,0x00,0x91,0x29,0x7f,0x82,0x20,0x81,0x29,0x40,0x00,
0x91,0x29,0x7f,0x20,0x81,0x29,0x40,0x00,0x91,0x29,0x7f,0x20,0x81,0x29,0x40,0x00,
0x91,0x29,0x7f,0x20,0x81,0x29,0x40,0x00,0x91,0x29,0x7f,0x60,0x81,0x29,0x40,0x00,
0x91,0x29,0x7f,0x20,0x81,0x29,0x40,0x00,0x91,0x29,0x7f,0x20,0x81,0x29,0x40,0x00,
0x91,0x29,0x7f,0x20,0x81,0x29,0x40,0x00,0x91,0x2e,0x7f,0x81,0x40,0x81,0x2e,0x40,
0x00,0x91,0x2d,0x7f,0x81,0x40,0x81,0x2d,0x40,0x00,0x91,0x2d,0x7f,0x81,0x40,0x81,
0x2d,0x40,0x00,0x91,0x2e,0x7f,0x40,0x81,0x2e,0x40,0x00,0x91,0x2e,0x7f,0x40,0x81,
0x2e,0x40,0x00,0x91,0x2d,0x7f,0x40,0x81,0x2d,0x40,0x00,0x91,0x2b,0x7f,0x81,0x40,
0x81,0x2b,0x40,0x00,0x91,0x2b,0x7f,0x81,0x00,0x81,0x2b,0x40,0x00,0x91,0x33,0x7f,
0x40,0x81,0x33,0x40,0x00,0x91,0x33,0x7f,0x40,0x81,0x33,0x40,0x00,0x91,0x32,0x7f,
0x40,0x81,0x32,0x40,0x00,0x91,0x30,0x7f,0x40,0x81,0x30,0x40,0x00,0x91,0x2e,0x7f,
0x40,0x81,0x2e,0x40,0x00,0x91,0x2d,0x7f,0x40,0x81,0x2d,0x40,0x00,0x91,0x2b,0x7f,
0x40,0x81,0x2b,0x40,0x00,0x91,0x29,0x7f,0x81,0x40,0x81,0x29,0x40,0x00,0x91,0x2b,
0x7f,0x60,0x81,0x2b,0x40,0x00,0x91,0x2d,0x7f,0x60,0x81,0x2d,0x40,0x00,0x91,0x2e,
0x7f,0x40,0x81,0x2e,0x40,0x00,0x91,0x2d,0x7f,0x40,0x81,0x2d,0x40,0x00,0x91,0x2b,
0x7f,0x40,0x81,0x2b,0x40,0x00,0x91,0x29,0x7f,0x60,0x81,0x29,0x40,0x00,0x91,0x2e,
0x7f,0x60,0x81,0x2e,0x40,0x00,0x91,0x2c,0x7f,0x40,0x81,0x2c,0x40,0x00,0x91,0x2b,
0x7f,0x40,0x81,0x2b,0x40,0x00,0x91,0x2c,0x7f,0x40,0x81,0x2c,0x40,0x00,0x91,0x29,
0x7f,0x84,0x40,0x81,0x29,0x40,0x00,0x91,0x27,0x7f,0x81,0x40,0x81,0x27,0x40,0x00,
0x91,0x27,0x7f,0x83,0x00,0x81,0x27,0x40,0x00,0x91,0x27,0x7f,0x81,0x40,0x81,0x27,
0x40,0x00,0x91,0x27,0x7f,0x82,0x40,0x81,0x27,0x40,0x00,0x91,0x27,0x7f,0x40,0x81,
0x27,0x40,0x00,0x91,0x29,0x7f,0x83,0x00,0x81,0x29,0x40,0x00,0x91,0x27,0x7f,0x81,
0x40,0x81,0x27,0x40,0x00,0x91,0x27,0x7f,0x83,0x00,0x81,0x27,0x40,0x00,0x91,0x27,
0x7f,0x81,0x40,0x81,0x27,0x40,0x00,0x91,0x2c,0x7f,0x81,0x40,0x81,0x2c,0x40,0x00,
0x91,0x2d,0x7f,0x81,0x40,0x81,0x2d,0x40,0x00,0x91,0x2e,0x7f,0x81,0x40,0x81,0x2e,
0x40,0x00,0x91,0x2d,0x7f,0x81,0x40,0x81,0x2d,0x40,0x00,0x91,0x2b,0x7f,0x83,0x00,
0x81,0x2b,0x40,0x00,0x91,0x2c,0x7f,0x81,0x40,0x81,0x2c,0x40,0x00,0x91,0x2e,0x7f,
0x81,0x40,0x81,0x2e,0x40,0x00,0x91,0x2e,0x7f,0x83,0x00,0x81,0x2e,0x40,0x00,0x91,
0x2d,0x7f,0x83,0x00,0x81,0x2d,0x40,0x00,0x91,0x2a,0x7f,0x85,0x40,0x81,0x2a,0x40,
0x00,0x91,0x2a,0x7f,0x40,0x81,0x2a,0x40,0x00,0x91,0x29,0x7f,0x81,0x40,0x81,0x29,
0x40,0x00,0x91,0x29,0x7f,0x40,0x81,0x29,0x40,0x00,0x91,0x29,0x7f,0x40,0x81,0x29,
0x40,0x00,0x91,0x29,0x7f,0x40,0x81,0x29,0x40,0x00,0x91,0x29,0x7f,0x81,0x40,0x81,
0x29,0x40,0x00,0x91,0x29,0x7f,0x60,0x81,0x29,0x40,0x00,0x91,0x29,0x7f,0x20,0x81,
0x29,0x40,0x00,0x91,0x29,0x7f,0x20,0x81,0x29,0x40,0x00,0x91,0x29,0x7f,0x20,0x81,
0x29,0x40,0x00,0x91,0x29,0x7f,0x82,0x20,0x81,0x29,0x40,0x00,0x91,0x29,0x7f,0x60,
0x81,0x29,0x40,0x00,0x91,0x29,0x7f,0x81,0x40,0x81,0x29,0x40,0x00,0x91,0x29,0x7f,
0x81,0x40,0x81,0x29,0x40,0x00,0x91,0x2e,0x7f,0x81,0x40,0x81,0x2e,0x40,0x00,0x91,
0x2e,0x7f,0x82,0x20,0x81,0x2e,0x40,0x00,0x91,0x2e,0x7f,0x18,0x81,0x2e,0x40,0x08,
0x91,0x2e,0x7f,0x18,0x81,0x2e,0x40,0x08,0x91,0x2e,0x7f,0x18,0x81,0x2e,0x40,0x08,
0x91,0x2e,0x7f,0x60,0x81,0x2e,0x40,0x00,0x91,0x2e,0x7f,0x60,0x81,0x2e,0x40,0x00,
0x91,0x29,0x7f,0x60,0x81,0x29,0x40,0x00,0x91,0x29,0x7f,0x81,0x40,0x81,0x29,0x40,
0x00,0x91,0x29,0x7f,0x18,0x81,0x29,0x40,0x00,0x91,0x29,0x7f,0x18,0x81,0x29,0x40,
0x00,0x91,0x29,0x7f,0x18,0x81,0x29,0x40,0x00,0x91,0x29,0x7f,0x18,0x81,0x29,0x40,
0x00,0x91,0x29,0x7f,0x60,0x81,0x29,0x40,0x00,0x91,0x29,0x7f,0x18,0x81,0x29,0x40,
0x00,0x91,0x29,0x7f,0x18,0x81,0x29,0x40,0x00,0x91,0x29,0x7f,0x18,0x81,0x29,0x40,
0x00,0x91,0x29,0x7f,0x18,0x81,0x29,0x40,0x00,0x91,0x2e,0x7f,0x40,0x81,0x2e,0x40,
0x00,0x91,0x2e,0x7f,0x40,0x81,0x2e,0x40,0x00,0x91,0x2e,0x7f,0x40,0x81,0x2e,0x40,
0x00,0x91,0x29,0x7f,0x60,0x81,0x29,0x40,0x00,0x91,0x29,0x7f,0x18,0x81,0x29,0x40,
0x00,0x91,0x29,0x7f,0x18,0x81,0x29,0x40,0x00,0x91,0x29,0x7f,0x18,0x81,0x29,0x40,
0x00,0x91,0x29,0x7f,0x18,0x81,0x29,0x40,0x00,0x91,0x29,0x7f,0x60,0x81,0x29,0x40,
0x00,0x91,0x29,0x7f,0x18,0x81,0x29,0x40,0x00,0x91,0x29,0x7f,0x18,0x81,0x29,0x40,
0x00,0x91,0x29,0x7f,0x18,0x81,0x29,0x40,0x00,0x91,0x29,0x7f,0x18,0x81,0x29,0x40,
0x00,0x91,0x29,0x7f,0x60,0x81,0x29,0x40,0x00,0x91,0x29,0x7f,0x18,0x81,0x29,0x40,
0x00,0x91,0x29,0x7f,0x18,0x81,0x29,0x40,0x00,0x91,0x29,0x7f,0x18,0x81,0x29,0x40,
0x00,0x91,0x29,0x7f,0x18,0x81,0x29,0x40,0x00,0x91,0x2e,0x7f,0x40,0x81,0x2e,0x40,
0x00,0x91,0x2e,0x7f,0x40,0x81,0x2e,0x40,0x00,0x91,0x2e,0x7f,0x40,0x81,0x2e,0x40,
0x00,0x91,0x29,0x7f,0x82,0x20,0x81,0x29,0x40,0x00,0x91,0x29,0x7f,0x81,0x40,0x81,
0x29,0x40,0x00,0x91,0x29,0x7f,0x60,0x81,0x29,0x40,0x00,0x91,0x29,0x7f,0x40,0x81,
0x29,0x40,0x00,0x91,0x29,0x7f,0x40,0x81,0x29,0x40,0x00,0x91,0x29,0x7f,0x40,0x81,
0x29,0x40,0x00,0x91,0x2e,0x7f,0x81,0x40,0x81,0x2e,0x40,0x00,0x91,0x2d,0x7f,0x83,
0x00,0x81,0x2d,0x40,0x00,0x91,0x2b,0x7f,0x81,0x40,0x81,0x2b,0x40,0x00,0x91,0x2b,
0x7f,0x81,0x40,0x81,0x2b,0x40,0x00,0x91,0x29,0x7f,0x81,0x40,0x81,0x29,0x40,0x00,
0x91,0x2e,0x7f,0x81,0x40,0x81,0x2e,0x40,0x00,0x91,0x29,0x7f,0x40,0x81,0x29,0x40,
0x00,0x91,0x29,0x7f,0x40,0x81,0x29,0x40,0x00,0x91,0x29,0x7f,0x40,0x81,0x29,0x40,
0x00,0x91,0x29,0x7f,0x81,0x40,0x81,0x29,0x40,0x00,0x91,0x29,0x7f,0x81,0x40,0x81,
0x29,0x40,0x00,0x91,0x33,0x7f,0x40,0x81,0x33,0x40,0x00,0x91,0x32,0x7f,0x40,0x81,
0x32,0x40,0x00,0x91,0x30,0x7f,0x40,0x81,0x30,0x40,0x00,0x91,0x2e,0x7f,0x40,0x81,
0x2e,0x40,0x00,0x91,0x2d,0x7f,0x40,0x81,0x2d,0x40,0x00,0x91,0x2b,0x7f,0x40,0x81,
0x2b,0x40,0x00,0x91,0x29,0x7f,0x40,0x81,0x29,0x40,0x00,0x91,0x29,0x7f,0x40,0x81,
0x29,0x40,0x00,0x91,0x29,0x7f,0x40,0x81,0x29,0x40,0x00,0x91,0x29,0x7f,0x88,0x50,
0x81,0x29,0x40,0x00,0x91,0x29,0x7f,0x30,0x81,0x29,0x40,0x00,0x91,0x29,0x7f,0x40,
0x81,0x29,0x40,0x00,0x91,0x29,0x7f,0x40,0x81,0x29,0x40,0x00,0x91,0x29,0x7f,0x40,
0x81,0x29,0x40,0x00,0x91,0x29,0x7f,0x84,0x00,0x81,0x29,0x40,0x00,0x91,0x29,0x7f,
0x40,0x81,0x29,0x40,0x00,0x91,0x29,0x7f,0x40,0x81,0x29,0x40,0x00,0x91,0x29,0x7f,
0x40,0x81,0x29,0x40,0x00,0x91,0x29,0x7f,0x40,0x81,0x29,0x40,0x00,0x91,0x29,0x7f,
0x60,0x81,0x29,0x40,0x00,0x91,0x29,0x7f,0x20,0x81,0x29,0x40,0x00,0x91,0x29,0x7f,
0x20,0x81,0x29,0x40,0x00,0x91,0x29,0x7f,0x20,0x81,0x29,0x40,0x00,0x91,0x29,0x7f,
0x60,0x81,0x29,0x40,0x00,0x91,0x29,0x7f,0x20,0x81,0x29,0x40,0x00,0x91,0x29,0x7f,
0x20,0x81,0x29,0x40,0x00,0x91,0x29,0x7f,0x20,0x81,0x29,0x40,0x00,0x91,0x22,0x7f,
0x89,0x00,0x81,0x22,0x40,0x00,0x91,0x25,0x7f,0x20,0x81,0x25,0x40,0x00,0x91,0x2c,
0x7f,0x20,0x81,0x2c,0x40,0x00,0x91,0x35,0x7f,0x20,0x81,0x35,0x40,0x00,0x91,0x2c,
0x7f,0x20,0x81,0x2c,0x40,0x00,0x91,0x35,0x7f,0x20,0x81,0x35,0x40,0x00,0x91,0x2c,
0x7f,0x20,0x81,0x2c,0x40,0x00,0x91,0x25,0x7f,0x20,0x81,0x25,0x40,0x00,0x91,0x2c,
0x7f,0x20,0x81,0x2c,0x40,0x00,0x91,0x35,0x7f,0x20,0x81,0x35,0x40,0x00,0x91,0x2c,
0x7f,0x20,0x81,0x2c,0x40,0x00,0x91,0x35,0x7f,0x20,0x81,0x35,0x40,0x00,0x91,0x2c,
0x7f,0x20,0x81,0x2c,0x40,0x00,0x91,0x25,0x7f,0x20,0x81,0x25,0x40,0x00,0x91,0x2c,
0x7f,0x20,0x81,0x2c,0x40,0x00,0x91,0x35,0x7f,0x20,0x81,0x35,0x40,0x00,0x91,0x2c,
0x7f,0x20,0x81,0x2c,0x40,0x00,0x91,0x35,0x7f,0x20,0x81,0x35,0x40,0x00,0x91,0x2c,
0x7f,0x20,0x81,0x2c,0x40,0x00,0x91,0x25,0x7f,0x20,0x81,0x25,0x40,0x00,0x91,0x2c,
0x7f,0x20,0x81,0x2c,0x40,0x00,0x91,0x35,0x7f,0x20,0x81,0x35,0x40,0x00,0x91,0x2c,
0x7f,0x20,0x81,0x2c,0x40,0x00,0x91,0x35,0x7f,0x20,0x81,0x35,0x40,0x00,0x91,0x2c,
0x7f,0x20,0x81,0x2c,0x40,0x00,0x91,0x2d,0x7f,0x20,0x81,0x2d,0x40,0x00,0x91,0x31,
0x7f,0x20,0x81,0x31,0x40,0x00,0x91,0x39,0x7f,0x20,0x81,0x39,0x40,0x00,0x91,0x31,
0x7f,0x20,0x81,0x31,0x40,0x00,0x91,0x39,0x7f,0x20,0x81,0x39,0x40,0x00,0x91,0x31,
0x7f,0x20,0x81,0x31,0x40,0x00,0x91,0x2d,0x7f,0x20,0x81,0x2d,0x40,0x00,0x91,0x31,
0x7f,0x20,0x81,0x31,0x40,0x00,0x91,0x39,0x7f,0x20,0x81,0x39,0x40,0x00,0x91,0x31,
0x7f,0x20,0x81,0x31,0x40,0x00,0x91,0x39,0x7f,0x20,0x81,0x39,0x40,0x00,0x91,0x31,
0x7f,0x20,0x81,0x31,0x40,0x00,0x91,0x2d,0x7f,0x20,0x81,0x2d,0x40,0x00,0x91,0x31,
0x7f,0x20,0x81,0x31,0x40,0x00,0x91,0x39,0x7f,0x20,0x81,0x39,0x40,0x00,0x91,0x31,
0x7f,0x20,0x81,0x31,0x40,0x00,0x91,0x39,0x7f,0x20,0x81,0x39,0x40,0x00,0x91,0x31,
0x7f,0x20,0x81,0x31,0x40,0x00,0x91,0x2d,0x7f,0x20,0x81,0x2d,0x40,0x00,0x91,0x31,
0x7f,0x20,0x81,0x31,0x40,0x00,0x91,0x39,0x7f,0x20,0x81,0x39,0x40,0x00,0x91,0x31,
0x7f,0x20,0x81,0x31,0x40,0x00,0x91,0x39,0x7f,0x20,0x81,0x39,0x40,0x00,0x91,0x31,
0x7f,0x20,0x81,0x31,0x40,0x00,0x91,0x27,0x7f,0x20,0x81,0x27,0x40,0x00,0x91,0x30,
0x7f,0x20,0x81,0x30,0x40,0x00,0x91,0x38,0x7f,0x20,0x81,0x38,0x40,0x00,0x91,0x30,
0x7f,0x20,0x81,0x30,0x40,0x00,0x91,0x38,0x7f,0x20,0x81,0x38,0x40,0x00,0x91,0x30,
0x7f,0x20,0x81,0x30,0x40,0x00,0x91,0x27,0x7f,0x20,0x81,0x27,0x40,0x00,0x91,0x30,
0x7f,0x20,0x81,0x30,0x40,0x00,0x91,0x38,0x7f,0x20,0x81,0x38,0x40,0x00,0x91,0x30,
0x7f,0x20,0x81,0x30,0x40,0x00,0x91,0x38,0x7f,0x20,0x81,0x38,0x40,0x00,0x91,0x30,
0x7f,0x20,0x81,0x30,0x40,0x00,0x91,0x27,0x7f,0x20,0x81,0x27,0x40,0x00,0x91,0x30,
0x7f,0x20,0x81,0x30,0x40,0x00,0x91,0x38,0x7f,0x20,0x81,0x38,0x40,0x00,0x91,0x30,
0x7f,0x20,0x81,0x30,0x40,0x00,0x91,0x38,0x7f,0x20,0x81,0x38,0x40,0x00,0x91,0x30,
0x7f,0x20,0x81,0x30,0x40,0x00,0x91,0x27,0x7f,0x20,0x81,0x27,0x40,0x00,0x91,0x30,
0x7f,0x20,0x81,0x30,0x40,0x00,0x91,0x38,0x7f,0x20,0x81,0x38,0x40,0x00,0x91,0x30,
0x7f,0x20,0x81,0x30,0x40,0x00,0x91,0x38,0x7f,0x20,0x81,0x38,0x40,0x00,0x91,0x30,
0x7f,0x20,0x81,0x30,0x40,0x00,0x91,0x28,0x7f,0x8c,0x00,0x81,0x28,0x40,0x00,0xff,
0x2f,0x00,0x4d,0x54,0x72,0x6b,0x00,0x00,0x00,0x21,0x00,0xff,0x21,0x01,0x00,0x00,
0xff,0x03,0x14,0x20,0x20,0x20,0x20,0x20,0x20,0x20,0x20,0x20,0x20,0x20,0x20,0x20,
0x20,0x20,0x20,0x20,0x20,0x20,0x20,0x00,0xff,0x2f,0x00,
};
