#include <stdint.h>
const uint8_t Cantinamidifile[] = {
0x4d,0x54,0x68,0x64,0x00,0x00,0x00,0x06,0x00,0x01,0x00,0x05,0x01,0x20,0x4d,0x54,
0x72,0x6b,0x00,0x00,0x00,0x16,0x00,0xff,0x59,0x02,0x00,0x00,0x00,0xff,0x21,0x01,
0x00,0x00,0xff,0x51,0x03,0x4c,0x4b,0x40,0x00,0xff,0x2f,0x00,0x4d,0x54,0x72,0x6b,
0x00,0x00,0x04,0xd0,0x00,0xff,0x03,0x09,0x53,0x74,0x61,0x72,0x20,0x57,0x61,0x72,
0x73,0x00,0xff,0x21,0x01,0x00,0x00,0xb0,0x00,0x01,0x00,0xc0,0x22,0x00,0xe0,0x1a,
0x40,0x00,0xb0,0x07,0x40,0x00,0x90,0x45,0x7f,0x05,0x45,0x00,0x06,0xe0,0x10,0x40,
0x00,0x90,0x4a,0x7f,0x05,0x4a,0x00,0x07,0xe0,0x1a,0x40,0x00,0x90,0x45,0x7f,0x05,
0x45,0x00,0x06,0xe0,0x10,0x40,0x00,0x90,0x4a,0x7f,0x05,0x4a,0x00,0x07,0xe0,0x1a,
0x40,0x00,0x90,0x45,0x7f,0x05,0x45,0x00,0x06,0xe0,0x10,0x40,0x00,0x90,0x4a,0x7f,
0x05,0x4a,0x00,0x01,0xe0,0x1a,0x40,0x00,0x90,0x45,0x7f,0x05,0x45,0x00,0x0c,0xe0,
0x26,0x40,0x00,0x90,0x44,0x7f,0x05,0x44,0x00,0x01,0xe0,0x1a,0x40,0x00,0x90,0x45,
0x7f,0x0b,0x45,0x00,0x00,0xe0,0x26,0x40,0x00,0x90,0x44,0x7f,0x05,0x44,0x00,0x01,
0xe0,0x1a,0x40,0x00,0x90,0x45,0x7f,0x05,0x45,0x00,0x07,0xe0,0x1e,0x40,0x00,0x90,
0x43,0x7f,0x05,0x43,0x00,0x00,0xe0,0x7f,0x3f,0x00,0x90,0x42,0x7f,0x05,0x42,0x00,
0x01,0xe0,0x1e,0x40,0x00,0x90,0x43,0x7f,0x05,0x43,0x00,0x07,0xe0,0x7c,0x3f,0x00,
0x90,0x41,0x7f,0x11,0x41,0x00,0x00,0xe0,0x1a,0x40,0x00,0x90,0x3e,0x7f,0x05,0x3e,
0x00,0x18,0x45,0x7f,0x05,0x45,0x00,0x06,0xe0,0x10,0x40,0x00,0x90,0x4a,0x7f,0x05,
0x4a,0x00,0x07,0xe0,0x1a,0x40,0x00,0x90,0x45,0x7f,0x05,0x45,0x00,0x06,0xe0,0x10,
0x40,0x00,0x90,0x4a,0x7f,0x05,0x4a,0x00,0x07,0xe0,0x1a,0x40,0x00,0x90,0x45,0x7f,
0x05,0x45,0x00,0x06,0xe0,0x10,0x40,0x00,0x90,0x4a,0x7f,0x05,0x4a,0x00,0x01,0xe0,
0x1a,0x40,0x00,0x90,0x45,0x7f,0x05,0x45,0x00,0x0c,0xe0,0x26,0x40,0x00,0x90,0x44,
0x7f,0x05,0x44,0x00,0x01,0xe0,0x1a,0x40,0x00,0x90,0x45,0x7f,0x05,0x45,0x00,0x01,
0xe0,0x1e,0x40,0x00,0x90,0x43,0x7f,0x17,0x43,0x00,0x0c,0x43,0x7f,0x05,0x43,0x00,
0x06,0x48,0x7f,0x05,0x48,0x00,0x01,0xe0,0x23,0x40,0x00,0x90,0x46,0x7f,0x0b,0x46,
0x00,0x00,0xe0,0x1a,0x40,0x00,0x90,0x45,0x7f,0x11,0x45,0x00,0x01,0xe0,0x1e,0x40,
0x00,0x90,0x43,0x7f,0x0b,0x43,0x00,0x00,0xe0,0x1a,0x40,0x00,0x90,0x45,0x7f,0x05,
0x45,0x00,0x07,0xe0,0x10,0x40,0x00,0x90,0x4a,0x7f,0x05,0x4a,0x00,0x06,0xe0,0x1a,
0x40,0x00,0x90,0x45,0x7f,0x05,0x45,0x00,0x07,0xe0,0x10,0x40,0x00,0x90,0x4a,0x7f,
0x05,0x4a,0x00,0x06,0xe0,0x1a,0x40,0x00,0x90,0x45,0x7f,0x05,0x45,0x00,0x07,0xe0,
0x10,0x40,0x00,0x90,0x4a,0x7f,0x05,0x4a,0x00,0x01,0xe0,0x1a,0x40,0x00,0x90,0x45,
0x7f,0x05,0x45,0x00,0x0c,0xe0,0x26,0x40,0x00,0x90,0x44,0x7f,0x05,0x44,0x00,0x01,
0xe0,0x1a,0x40,0x00,0x90,0x45,0x7f,0x05,0x45,0x00,0x00,0xe0,0x1e,0x40,0x00,0x90,
0x48,0x7f,0x17,0x48,0x00,0x06,0xe0,0x23,0x40,0x00,0x90,0x46,0x7f,0x05,0x46,0x00,
0x01,0xe0,0x1a,0x40,0x00,0x90,0x45,0x7f,0x05,0x45,0x00,0x01,0xe0,0x1e,0x40,0x00,
0x90,0x43,0x7f,0x05,0x43,0x00,0x00,0xe0,0x7c,0x3f,0x00,0x90,0x41,0x7f,0x11,0x41,
0x00,0x01,0xe0,0x1a,0x40,0x00,0x90,0x3e,0x7f,0x05,0x3e,0x00,0x17,0x3e,0x7f,0x0b,
0x3e,0x00,0x01,0xe0,0x6a,0x3f,0x00,0x90,0x3f,0x7f,0x05,0x3f,0x00,0x01,0xe0,0x18,
0x40,0x00,0x90,0x40,0x7f,0x05,0x40,0x00,0x01,0xe0,0x7c,0x3f,0x00,0x90,0x41,0x7f,
0x0b,0x41,0x00,0x00,0xe0,0x1e,0x40,0x00,0x90,0x43,0x7f,0x05,0x43,0x00,0x01,0xe0,
0x26,0x40,0x00,0x90,0x44,0x7f,0x05,0x44,0x00,0x01,0xe0,0x1a,0x40,0x00,0x90,0x45,
0x7f,0x0b,0x45,0x00,0x00,0xe0,0x23,0x40,0x00,0x90,0x46,0x7f,0x05,0x46,0x00,0x01,
0xe0,0x75,0x3f,0x00,0x90,0x47,0x7f,0x05,0x47,0x00,0x01,0xe0,0x1e,0x40,0x00,0x90,
0x48,0x7f,0x17,0x48,0x00,0x00,0xe0,0x19,0x40,0x00,0x90,0x4b,0x7f,0x05,0x4b,0x00,
0x06,0xe0,0x10,0x40,0x00,0x90,0x4a,0x7f,0x0b,0x4a,0x00,0x01,0xe0,0x26,0x40,0x00,
0x90,0x44,0x7f,0x05,0x44,0x00,0x00,0xe0,0x1a,0x40,0x00,0x90,0x45,0x7f,0x11,0x45,
0x00,0x01,0xe0,0x7c,0x3f,0x00,0x90,0x41,0x7f,0x17,0x41,0x00,0x1d,0xe0,0x28,0x40,
0x00,0x90,0x51,0x7f,0x05,0x51,0x00,0x06,0xe0,0x26,0x40,0x00,0x90,0x4d,0x7f,0x05,
0x4d,0x00,0x01,0xe0,0x28,0x40,0x00,0x90,0x51,0x7f,0x0b,0x51,0x00,0x12,0x51,0x7f,
0x05,0x51,0x00,0x06,0xe0,0x26,0x40,0x00,0x90,0x4d,0x7f,0x05,0x4d,0x00,0x01,0xe0,
0x28,0x40,0x00,0x90,0x51,0x7f,0x0b,0x51,0x00,0x12,0x51,0x7f,0x05,0x51,0x00,0x06,
0xe0,0x26,0x40,0x00,0x90,0x4d,0x7f,0x05,0x4d,0x00,0x01,0xe0,0x1f,0x40,0x00,0x90,
0x50,0x7f,0x0b,0x50,0x00,0x01,0xe0,0x28,0x40,0x00,0x90,0x51,0x7f,0x0b,0x51,0x00,
0x00,0xe0,0x26,0x40,0x00,0x90,0x4d,0x7f,0x11,0x4d,0x00,0x00,0xe0,0x10,0x40,0x00,
0x90,0x4a,0x7f,0x05,0x4a,0x00,0x1e,0xe0,0x28,0x40,0x00,0x90,0x51,0x7f,0x05,0x51,
0x00,0x06,0xe0,0x26,0x40,0x00,0x90,0x4d,0x7f,0x05,0x4d,0x00,0x01,0xe0,0x28,0x40,
0x00,0x90,0x51,0x7f,0x0b,0x51,0x00,0x12,0x51,0x7f,0x05,0x51,0x00,0x06,0xe0,0x26,
0x40,0x00,0x90,0x4d,0x7f,0x05,0x4d,0x00,0x01,0xe0,0x28,0x40,0x00,0x90,0x51,0x7f,
0x0b,0x51,0x00,0x12,0x51,0x7f,0x05,0x51,0x00,0x07,0xe0,0x26,0x40,0x00,0x90,0x4d,
0x7f,0x05,0x4d,0x00,0x00,0xe0,0x1f,0x40,0x00,0x90,0x50,0x7f,0x0b,0x50,0x00,0x01,
0xe0,0x28,0x40,0x00,0x90,0x51,0x7f,0x0b,0x51,0x00,0x00,0xe0,0x16,0x40,0x00,0x90,
0x4f,0x7f,0x11,0x4f,0x00,0x01,0xe0,0x1e,0x40,0x00,0x90,0x48,0x7f,0x05,0x48,0x00,
0x1d,0xe0,0x28,0x40,0x00,0x90,0x51,0x7f,0x05,0x51,0x00,0x07,0xe0,0x26,0x40,0x00,
0x90,0x4d,0x7f,0x05,0x4d,0x00,0x00,0xe0,0x28,0x40,0x00,0x90,0x51,0x7f,0x0b,0x51,
0x00,0x12,0x51,0x7f,0x05,0x51,0x00,0x07,0xe0,0x26,0x40,0x00,0x90,0x4d,0x7f,0x05,
0x4d,0x00,0x01,0xe0,0x28,0x40,0x00,0x90,0x51,0x7f,0x0b,0x51,0x00,0x11,0x51,0x7f,
0x05,0x51,0x00,0x07,0xe0,0x26,0x40,0x00,0x90,0x4d,0x7f,0x05,0x4d,0x00,0x01,0xe0,
0x1f,0x40,0x00,0x90,0x50,0x7f,0x0b,0x50,0x00,0x00,0xe0,0x28,0x40,0x00,0x90,0x51,
0x7f,0x0b,0x51,0x00,0x01,0xe0,0x26,0x40,0x00,0x90,0x4d,0x7f,0x11,0x4d,0x00,0x00,
0xe0,0x10,0x40,0x00,0x90,0x4a,0x7f,0x05,0x4a,0x00,0x18,0xe0,0x23,0x40,0x00,0x90,
0x46,0x7f,0x05,0x46,0x00,0x01,0xe0,0x10,0x40,0x00,0x90,0x4a,0x7f,0x05,0x4a,0x00,
0x00,0xe0,0x26,0x40,0x00,0x90,0x4d,0x7f,0x0b,0x4d,0x00,0x01,0xe0,0x75,0x3f,0x00,
0x90,0x47,0x7f,0x05,0x47,0x00,0x01,0xe0,0x10,0x40,0x00,0x90,0x4a,0x7f,0x05,0x4a,
0x00,0x00,0xe0,0x26,0x40,0x00,0x90,0x4d,0x7f,0x0b,0x4d,0x00,0x01,0xe0,0x1f,0x40,
0x00,0x90,0x50,0x7f,0x0b,0x50,0x00,0x00,0xe0,0x28,0x40,0x00,0x90,0x51,0x7f,0x05,
0x51,0x00,0x01,0xe0,0x27,0x40,0x00,0x90,0x4e,0x7f,0x1c,0x4e,0x00,0x01,0xe0,0x10,
0x40,0x00,0x90,0x4a,0x7f,0x05,0x4a,0x00,0x01,0xe0,0x26,0x40,0x00,0x90,0x4d,0x7f,
0x05,0x4d,0x00,0x00,0xe0,0x30,0x40,0x00,0x90,0x52,0x7f,0x05,0x52,0x00,0x01,0xe0,
0x0b,0x40,0x00,0x90,0x56,0x7f,0x05,0x56,0x00,0x01,0xe0,0x1f,0x40,0x00,0x90,0x50,
0x7f,0x05,0x50,0x00,0x01,0xe0,0x28,0x40,0x00,0x90,0x51,0x7f,0x11,0x51,0x00,0x00,
0xe0,0x26,0x40,0x00,0x90,0x4d,0x7f,0x0b,0x4d,0x00,0x0c,0x4d,0x7f,0x0b,0x4d,0x00,
0x00,0xff,0x2f,0x00,0x4d,0x54,0x72,0x6b,0x00,0x00,0x03,0xdf,0x00,0xff,0x03,0x07,
0x43,0x61,0x6e,0x74,0x69,0x6e,0x61,0x00,0xff,0x21,0x01,0x00,0x00,0xb1,0x00,0x01,
0x00,0xc1,0x22,0x00,0xb1,0x07,0x00,0x00,0xe1,0x7c,0x3f,0x00,0xb1,0x07,0x40,0x00,
0x91,0x41,0x7f,0x05,0x41,0x00,0x06,0xe1,0x1a,0x40,0x00,0x91,0x45,0x7f,0x05,0x45,
0x00,0x07,0xe1,0x7c,0x3f,0x00,0x91,0x41,0x7f,0x05,0x41,0x00,0x06,0xe1,0x1a,0x40,
0x00,0x91,0x45,0x7f,0x05,0x45,0x00,0x07,0xe1,0x7c,0x3f,0x00,0x91,0x41,0x7f,0x05,
0x41,0x00,0x06,0xe1,0x1a,0x40,0x00,0x91,0x45,0x7f,0x05,0x45,0x00,0x01,0xe1,0x7c,
0x3f,0x00,0x91,0x41,0x7f,0x05,0x41,0x00,0x0c,0xe1,0x18,0x40,0x00,0x91,0x40,0x7f,
0x05,0x40,0x00,0x01,0xe1,0x7c,0x3f,0x00,0x91,0x41,0x7f,0x0b,0x41,0x00,0x00,0xe1,
0x18,0x40,0x00,0x91,0x40,0x7f,0x05,0x40,0x00,0x01,0xe1,0x7c,0x3f,0x00,0x91,0x41,
0x7f,0x05,0x41,0x00,0x07,0xe1,0x18,0x40,0x00,0x91,0x40,0x7f,0x05,0x40,0x00,0x00,
0xe1,0x6a,0x3f,0x00,0x91,0x3f,0x7f,0x05,0x3f,0x00,0x01,0xe1,0x18,0x40,0x00,0x91,
0x40,0x7f,0x05,0x40,0x00,0x07,0xe1,0x1a,0x40,0x00,0x91,0x3e,0x7f,0x11,0x3e,0x00,
0x00,0xe1,0x7f,0x3f,0x00,0x91,0x39,0x7f,0x05,0x39,0x00,0x18,0xe1,0x7c,0x3f,0x00,
0x91,0x41,0x7f,0x05,0x41,0x00,0x06,0xe1,0x1a,0x40,0x00,0x91,0x45,0x7f,0x05,0x45,
0x00,0x07,0xe1,0x7c,0x3f,0x00,0x91,0x41,0x7f,0x05,0x41,0x00,0x06,0xe1,0x1a,0x40,
0x00,0x91,0x45,0x7f,0x05,0x45,0x00,0x07,0xe1,0x7c,0x3f,0x00,0x91,0x41,0x7f,0x05,
0x41,0x00,0x06,0xe1,0x1a,0x40,0x00,0x91,0x45,0x7f,0x05,0x45,0x00,0x01,0xe1,0x7c,
0x3f,0x00,0x91,0x41,0x7f,0x05,0x41,0x00,0x0c,0xe1,0x18,0x40,0x00,0x91,0x40,0x7f,
0x05,0x40,0x00,0x01,0xe1,0x7c,0x3f,0x00,0x91,0x41,0x7f,0x05,0x41,0x00,0x01,0xe1,
0x18,0x40,0x00,0x91,0x40,0x7f,0x17,0x40,0x00,0x0c,0x40,0x7f,0x05,0x40,0x00,0x06,
0xe1,0x1e,0x40,0x00,0x91,0x43,0x7f,0x11,0x43,0x00,0x00,0xe1,0x7c,0x3f,0x00,0x91,
0x41,0x7f,0x11,0x41,0x00,0x01,0xe1,0x18,0x40,0x00,0x91,0x40,0x7f,0x0b,0x40,0x00,
0x00,0xe1,0x7c,0x3f,0x00,0x91,0x41,0x7f,0x05,0x41,0x00,0x07,0xe1,0x1a,0x40,0x00,
0x91,0x45,0x7f,0x05,0x45,0x00,0x06,0xe1,0x7c,0x3f,0x00,0x91,0x41,0x7f,0x05,0x41,
0x00,0x07,0xe1,0x1a,0x40,0x00,0x91,0x45,0x7f,0x05,0x45,0x00,0x06,0xe1,0x7c,0x3f,
0x00,0x91,0x41,0x7f,0x05,0x41,0x00,0x07,0xe1,0x1a,0x40,0x00,0x91,0x45,0x7f,0x05,
0x45,0x00,0x01,0xe1,0x7c,0x3f,0x00,0x91,0x41,0x7f,0x05,0x41,0x00,0x0c,0xe1,0x18,
0x40,0x00,0x91,0x40,0x7f,0x05,0x40,0x00,0x01,0xe1,0x7c,0x3f,0x00,0x91,0x41,0x7f,
0x05,0x41,0x00,0x00,0xe1,0x1e,0x40,0x00,0x91,0x43,0x7f,0x17,0x43,0x00,0x17,0xe1,
0x1a,0x40,0x00,0x91,0x3e,0x7f,0x11,0x3e,0x00,0x01,0xe1,0x7f,0x3f,0x00,0x91,0x39,
0x7f,0x05,0x39,0x00,0x17,0xe1,0x64,0x3f,0x00,0x91,0x3a,0x7f,0x2e,0x3a,0x00,0x01,
0xe1,0x0c,0x40,0x00,0x91,0x35,0x7f,0x17,0x35,0x00,0x00,0xe1,0x35,0x3f,0x00,0x91,
0x32,0x7f,0x17,0x32,0x00,0x00,0xe1,0x7f,0x3f,0x00,0x91,0x37,0x7f,0x17,0x37,0x00,
0x00,0xe1,0x5b,0x3f,0x00,0x91,0x30,0x7f,0x17,0x30,0x00,0x00,0xe1,0x0c,0x40,0x00,
0x91,0x35,0x7f,0x2e,0x35,0x00,0x06,0xe1,0x26,0x40,0x00,0x91,0x4d,0x7f,0x05,0x4d,
0x00,0x06,0xe1,0x10,0x40,0x00,0x91,0x4a,0x7f,0x05,0x4a,0x00,0x01,0xe1,0x26,0x40,
0x00,0x91,0x4d,0x7f,0x0b,0x4d,0x00,0x12,0x4d,0x7f,0x05,0x4d,0x00,0x06,0xe1,0x10,
0x40,0x00,0x91,0x4a,0x7f,0x05,0x4a,0x00,0x01,0xe1,0x26,0x40,0x00,0x91,0x4d,0x7f,
0x0b,0x4d,0x00,0x12,0x4d,0x7f,0x05,0x4d,0x00,0x06,0xe1,0x10,0x40,0x00,0x91,0x4a,
0x7f,0x05,0x4a,0x00,0x01,0xe1,0x0f,0x40,0x00,0x91,0x4c,0x7f,0x0b,0x4c,0x00,0x01,
0xe1,0x26,0x40,0x00,0x91,0x4d,0x7f,0x0b,0x4d,0x00,0x00,0xe1,0x10,0x40,0x00,0x91,
0x4a,0x7f,0x11,0x4a,0x00,0x00,0xe1,0x1a,0x40,0x00,0x91,0x45,0x7f,0x05,0x45,0x00,
0x1e,0xe1,0x26,0x40,0x00,0x91,0x4d,0x7f,0x05,0x4d,0x00,0x06,0xe1,0x10,0x40,0x00,
0x91,0x4a,0x7f,0x05,0x4a,0x00,0x01,0xe1,0x26,0x40,0x00,0x91,0x4d,0x7f,0x0b,0x4d,
0x00,0x12,0x4d,0x7f,0x05,0x4d,0x00,0x06,0xe1,0x10,0x40,0x00,0x91,0x4a,0x7f,0x05,
0x4a,0x00,0x01,0xe1,0x26,0x40,0x00,0x91,0x4d,0x7f,0x0b,0x4d,0x00,0x12,0x4d,0x7f,
0x05,0x4d,0x00,0x07,0xe1,0x10,0x40,0x00,0x91,0x4a,0x7f,0x05,0x4a,0x00,0x00,0xe1,
0x0f,0x40,0x00,0x91,0x4c,0x7f,0x0b,0x4c,0x00,0x01,0xe1,0x26,0x40,0x00,0x91,0x4d,
0x7f,0x0b,0x4d,0x00,0x00,0xe1,0x0f,0x40,0x00,0x91,0x4c,0x7f,0x11,0x4c,0x00,0x01,
0xe1,0x16,0x40,0x00,0x91,0x4f,0x7f,0x05,0x4f,0x00,0x1d,0xe1,0x26,0x40,0x00,0x91,
0x4d,0x7f,0x05,0x4d,0x00,0x07,0xe1,0x10,0x40,0x00,0x91,0x4a,0x7f,0x05,0x4a,0x00,
0x00,0xe1,0x26,0x40,0x00,0x91,0x4d,0x7f,0x0b,0x4d,0x00,0x12,0x4d,0x7f,0x05,0x4d,
0x00,0x07,0xe1,0x10,0x40,0x00,0x91,0x4a,0x7f,0x05,0x4a,0x00,0x01,0xe1,0x26,0x40,
0x00,0x91,0x4d,0x7f,0x0b,0x4d,0x00,0x11,0x4d,0x7f,0x05,0x4d,0x00,0x07,0xe1,0x10,
0x40,0x00,0x91,0x4a,0x7f,0x05,0x4a,0x00,0x01,0xe1,0x0f,0x40,0x00,0x91,0x4c,0x7f,
0x0b,0x4c,0x00,0x00,0xe1,0x26,0x40,0x00,0x91,0x4d,0x7f,0x0b,0x4d,0x00,0x01,0xe1,
0x10,0x40,0x00,0x91,0x4a,0x7f,0x11,0x4a,0x00,0x00,0xe1,0x1a,0x40,0x00,0x91,0x45,
0x7f,0x05,0x45,0x00,0x18,0xe1,0x23,0x40,0x00,0x91,0x46,0x7f,0x17,0x46,0x00,0x00,
0xe1,0x75,0x3f,0x00,0x91,0x47,0x7f,0x17,0x47,0x00,0x00,0xe1,0x1e,0x40,0x00,0x91,
0x48,0x7f,0x17,0x48,0x00,0x00,0xe1,0x10,0x40,0x00,0x91,0x4a,0x7f,0x17,0x4a,0x00,
0x00,0xe1,0x1e,0x40,0x00,0x91,0x43,0x7f,0x17,0x43,0x00,0x00,0x48,0x7f,0x22,0x48,
0x00,0x0c,0x48,0x7f,0x0b,0x48,0x00,0x00,0xff,0x2f,0x00,0x4d,0x54,0x72,0x6b,0x00,
0x00,0x02,0xc9,0x00,0xff,0x21,0x01,0x00,0x00,0xb2,0x00,0x01,0x00,0xc2,0x27,0x00,
0xb2,0x07,0x00,0x00,0xe2,0x5e,0x3f,0x00,0xb2,0x07,0x60,0x00,0x92,0x26,0x7f,0x07,
0x26,0x00,0x10,0xe2,0x7f,0x3f,0x00,0x92,0x21,0x7f,0x07,0x21,0x00,0x10,0xe2,0x5e,
0x3f,0x00,0x92,0x26,0x7f,0x07,0x26,0x00,0x10,0xe2,0x7f,0x3f,0x00,0x92,0x21,0x7f,
0x07,0x21,0x00,0x10,0xe2,0x5e,0x3f,0x00,0x92,0x26,0x7f,0x07,0x26,0x00,0x10,0xe2,
0x7f,0x3e,0x00,0x92,0x24,0x7f,0x07,0x24,0x00,0x10,0xe2,0x5e,0x3f,0x00,0x92,0x26,
0x7f,0x07,0x26,0x00,0x10,0xe2,0x7f,0x3f,0x00,0x92,0x21,0x7f,0x07,0x21,0x00,0x10,
0xe2,0x5e,0x3f,0x00,0x92,0x26,0x7f,0x07,0x26,0x00,0x10,0xe2,0x7f,0x3f,0x00,0x92,
0x21,0x7f,0x07,0x21,0x00,0x10,0xe2,0x5e,0x3f,0x00,0x92,0x26,0x7f,0x07,0x26,0x00,
0x10,0xe2,0x7f,0x3f,0x00,0x92,0x21,0x7f,0x07,0x21,0x00,0x10,0xe2,0x7f,0x3e,0x00,
0x92,0x24,0x7f,0x07,0x24,0x00,0x10,0xe2,0x7f,0x3f,0x00,0x92,0x1f,0x7f,0x07,0x1f,
0x00,0x10,0xe2,0x7f,0x3e,0x00,0x92,0x24,0x7f,0x07,0x24,0x00,0x10,0xe2,0x7f,0x3f,
0x00,0x92,0x1f,0x7f,0x07,0x1f,0x00,0x10,0xe2,0x5e,0x3f,0x00,0x92,0x26,0x7f,0x07,
0x26,0x00,0x10,0xe2,0x7f,0x3f,0x00,0x92,0x21,0x7f,0x07,0x21,0x00,0x10,0xe2,0x5e,
0x3f,0x00,0x92,0x26,0x7f,0x07,0x26,0x00,0x10,0xe2,0x7f,0x3f,0x00,0x92,0x21,0x7f,
0x07,0x21,0x00,0x10,0xe2,0x7f,0x3e,0x00,0x92,0x24,0x7f,0x07,0x24,0x00,0x10,0xe2,
0x7f,0x3f,0x00,0x92,0x1f,0x7f,0x07,0x1f,0x00,0x10,0xe2,0x5e,0x3f,0x00,0x92,0x26,
0x7f,0x07,0x26,0x00,0x10,0xe2,0x7f,0x3f,0x00,0x92,0x21,0x7f,0x07,0x21,0x00,0x10,
0xe2,0x64,0x3f,0x00,0x92,0x22,0x7f,0x07,0x22,0x00,0x11,0xe2,0x2e,0x40,0x00,0x92,
0x29,0x7f,0x07,0x29,0x00,0x10,0x29,0x7f,0x07,0x29,0x00,0x10,0xe2,0x5e,0x3f,0x00,
0x92,0x26,0x7f,0x07,0x26,0x00,0x10,0xe2,0x7f,0x3f,0x00,0x92,0x1f,0x7f,0x07,0x1f,
0x00,0x10,0xe2,0x7f,0x3e,0x00,0x92,0x24,0x7f,0x07,0x24,0x00,0x10,0xe2,0x2e,0x40,
0x00,0x92,0x29,0x7f,0x07,0x29,0x00,0x10,0x29,0x7f,0x07,0x29,0x00,0x10,0xe2,0x5e,
0x3f,0x00,0x92,0x26,0x7f,0x07,0x26,0x00,0x10,0xe2,0x7f,0x3f,0x00,0x92,0x21,0x7f,
0x07,0x21,0x00,0x10,0xe2,0x5e,0x3f,0x00,0x92,0x26,0x7f,0x07,0x26,0x00,0x10,0xe2,
0x7f,0x3f,0x00,0x92,0x21,0x7f,0x07,0x21,0x00,0x10,0xe2,0x5e,0x3f,0x00,0x92,0x26,
0x7f,0x07,0x26,0x00,0x10,0xe2,0x7f,0x3f,0x00,0x92,0x21,0x7f,0x07,0x21,0x00,0x10,
0xe2,0x5e,0x3f,0x00,0x92,0x26,0x7f,0x07,0x26,0x00,0x10,0xe2,0x7f,0x3f,0x00,0x92,
0x21,0x7f,0x07,0x21,0x00,0x10,0xe2,0x5e,0x3f,0x00,0x92,0x26,0x7f,0x07,0x26,0x00,
0x10,0xe2,0x7f,0x3f,0x00,0x92,0x21,0x7f,0x07,0x21,0x00,0x10,0xe2,0x5e,0x3f,0x00,
0x92,0x26,0x7f,0x07,0x26,0x00,0x10,0xe2,0x7f,0x3f,0x00,0x92,0x21,0x7f,0x07,0x21,
0x00,0x10,0xe2,0x5e,0x3f,0x00,0x92,0x26,0x7f,0x07,0x26,0x00,0x10,0xe2,0x7f,0x3f,
0x00,0x92,0x21,0x7f,0x07,0x21,0x00,0x10,0xe2,0x7f,0x3e,0x00,0x92,0x24,0x7f,0x07,
0x24,0x00,0x10,0xe2,0x7f,0x3f,0x00,0x92,0x1f,0x7f,0x07,0x1f,0x00,0x10,0xe2,0x5e,
0x3f,0x00,0x92,0x26,0x7f,0x07,0x26,0x00,0x10,0xe2,0x7f,0x3f,0x00,0x92,0x21,0x7f,
0x07,0x21,0x00,0x11,0xe2,0x5e,0x3f,0x00,0x92,0x26,0x7f,0x07,0x26,0x00,0x10,0xe2,
0x7f,0x3f,0x00,0x92,0x21,0x7f,0x07,0x21,0x00,0x10,0xe2,0x5e,0x3f,0x00,0x92,0x26,
0x7f,0x07,0x26,0x00,0x10,0xe2,0x7f,0x3f,0x00,0x92,0x21,0x7f,0x07,0x21,0x00,0x10,
0xe2,0x5e,0x3f,0x00,0x92,0x26,0x7f,0x07,0x26,0x00,0x10,0xe2,0x7f,0x3f,0x00,0x92,
0x21,0x7f,0x07,0x21,0x00,0x10,0xe2,0x31,0x3f,0x00,0x92,0x2e,0x7f,0x07,0x2e,0x00,
0x10,0xe2,0x19,0x40,0x00,0x92,0x2f,0x7f,0x07,0x2f,0x00,0x10,0xe2,0x26,0x3f,0x00,
0x92,0x1d,0x7f,0x07,0x1d,0x00,0x10,0xe2,0x5e,0x3f,0x00,0x92,0x26,0x7f,0x07,0x26,
0x00,0x10,0xe2,0x64,0x3f,0x00,0x92,0x22,0x7f,0x07,0x22,0x00,0x10,0xe2,0x7f,0x3e,
0x00,0x92,0x24,0x7f,0x07,0x24,0x00,0x10,0xe2,0x2e,0x40,0x00,0x92,0x29,0x7f,0x07,
0x29,0x00,0x10,0x29,0x7f,0x07,0x29,0x00,0x00,0xff,0x2f,0x00,0x4d,0x54,0x72,0x6b,
0x00,0x00,0x03,0x9d,0x00,0xff,0x03,0x0d,0x6d,0x65,0x65,0x7a,0x6f,0x40,0x6c,0x63,
0x63,0x2e,0x6e,0x65,0x74,0x00,0xff,0x21,0x01,0x00,0x00,0xc9,0x00,0x00,0xe9,0x7f,
0x3e,0x00,0x99,0x6c,0x7f,0x05,0x6c,0x00,0x06,0x6c,0x7f,0x0b,0x6c,0x00,0x01,0xe9,
0x73,0x3e,0x00,0x99,0x4d,0x7f,0x05,0x4d,0x00,0x06,0xe9,0x7f,0x3e,0x00,0x99,0x6c,
0x7f,0x11,0x6c,0x00,0x06,0x6c,0x7f,0x0b,0x6c,0x00,0x01,0xe9,0x73,0x3e,0x00,0x99,
0x4d,0x7f,0x05,0x4d,0x00,0x06,0xe9,0x7f,0x3e,0x00,0x99,0x6c,0x7f,0x11,0x6c,0x00,
0x06,0x6c,0x7f,0x0b,0x6c,0x00,0x01,0xe9,0x73,0x3e,0x00,0x99,0x4d,0x7f,0x05,0x4d,
0x00,0x06,0xe9,0x7f,0x3e,0x00,0x99,0x6c,0x7f,0x11,0x6c,0x00,0x06,0x6c,0x7f,0x0b,
0x6c,0x00,0x01,0xe9,0x73,0x3e,0x00,0x99,0x4d,0x7f,0x05,0x4d,0x00,0x06,0xe9,0x7f,
0x3e,0x00,0x99,0x6c,0x7f,0x11,0x6c,0x00,0x06,0x6c,0x7f,0x0b,0x6c,0x00,0x01,0xe9,
0x73,0x3e,0x00,0x99,0x4d,0x7f,0x05,0x4d,0x00,0x06,0xe9,0x7f,0x3e,0x00,0x99,0x6c,
0x7f,0x11,0x6c,0x00,0x06,0x6c,0x7f,0x0b,0x6c,0x00,0x01,0xe9,0x73,0x3e,0x00,0x99,
0x4d,0x7f,0x05,0x4d,0x00,0x06,0xe9,0x7f,0x3e,0x00,0x99,0x6c,0x7f,0x11,0x6c,0x00,
0x07,0x6c,0x7f,0x0b,0x6c,0x00,0x00,0xe9,0x73,0x3e,0x00,0x99,0x4d,0x7f,0x05,0x4d,
0x00,0x07,0xe9,0x7f,0x3e,0x00,0x99,0x6c,0x7f,0x11,0x6c,0x00,0x06,0x6c,0x7f,0x0b,
0x6c,0x00,0x00,0xe9,0x73,0x3e,0x00,0x99,0x4d,0x7f,0x05,0x4d,0x00,0x07,0xe9,0x7f,
0x3e,0x00,0x99,0x6c,0x7f,0x11,0x6c,0x00,0x06,0x6c,0x7f,0x0b,0x6c,0x00,0x00,0xe9,
0x73,0x3e,0x00,0x99,0x4d,0x7f,0x05,0x4d,0x00,0x07,0xe9,0x7f,0x3e,0x00,0x99,0x6c,
0x7f,0x11,0x6c,0x00,0x06,0x6c,0x7f,0x0b,0x6c,0x00,0x00,0xe9,0x73,0x3e,0x00,0x99,
0x4d,0x7f,0x05,0x4d,0x00,0x07,0xe9,0x7f,0x3e,0x00,0x99,0x6c,0x7f,0x11,0x6c,0x00,
0x06,0x6c,0x7f,0x0b,0x6c,0x00,0x00,0xe9,0x73,0x3e,0x00,0x99,0x4d,0x7f,0x05,0x4d,
0x00,0x07,0xe9,0x7f,0x3e,0x00,0x99,0x6c,0x7f,0x11,0x6c,0x00,0x06,0x6c,0x7f,0x0b,
0x6c,0x00,0x00,0xe9,0x73,0x3e,0x00,0x99,0x4d,0x7f,0x05,0x4d,0x00,0x07,0xe9,0x7f,
0x3e,0x00,0x99,0x6c,0x7f,0x11,0x6c,0x00,0x06,0x6c,0x7f,0x0b,0x6c,0x00,0x01,0xe9,
0x73,0x3e,0x00,0x99,0x4d,0x7f,0x05,0x4d,0x00,0x06,0xe9,0x7f,0x3e,0x00,0x99,0x6c,
0x7f,0x11,0x6c,0x00,0x06,0x6c,0x7f,0x0b,0x6c,0x00,0x01,0xe9,0x73,0x3e,0x00,0x99,
0x4d,0x7f,0x05,0x4d,0x00,0x06,0xe9,0x7f,0x3e,0x00,0x99,0x6c,0x7f,0x11,0x6c,0x00,
0x06,0x6c,0x7f,0x0b,0x6c,0x00,0x01,0xe9,0x73,0x3e,0x00,0x99,0x4d,0x7f,0x05,0x4d,
0x00,0x06,0xe9,0x7f,0x3e,0x00,0x99,0x6c,0x7f,0x11,0x6c,0x00,0x06,0x6c,0x7f,0x0b,
0x6c,0x00,0x01,0xe9,0x73,0x3e,0x00,0x99,0x4d,0x7f,0x05,0x4d,0x00,0x06,0xe9,0x7f,
0x3e,0x00,0x99,0x6c,0x7f,0x11,0x6c,0x00,0x06,0x6c,0x7f,0x0b,0x6c,0x00,0x01,0xe9,
0x73,0x3e,0x00,0x99,0x4d,0x7f,0x05,0x4d,0x00,0x06,0xe9,0x7f,0x3e,0x00,0x99,0x6c,
0x7f,0x11,0x6c,0x00,0x06,0x6c,0x7f,0x0b,0x6c,0x00,0x01,0xe9,0x73,0x3e,0x00,0x99,
0x4d,0x7f,0x05,0x4d,0x00,0x06,0xe9,0x7f,0x3e,0x00,0x99,0x6c,0x7f,0x11,0x6c,0x00,
0x06,0x6c,0x7f,0x0b,0x6c,0x00,0x01,0xe9,0x73,0x3e,0x00,0x99,0x4d,0x7f,0x05,0x4d,
0x00,0x07,0xe9,0x7f,0x3e,0x00,0x99,0x6c,0x7f,0x11,0x6c,0x00,0x06,0x6c,0x7f,0x0b,
0x6c,0x00,0x00,0xe9,0x73,0x3e,0x00,0x99,0x4d,0x7f,0x05,0x4d,0x00,0x07,0xe9,0x7f,
0x3e,0x00,0x99,0x6c,0x7f,0x11,0x6c,0x00,0x06,0x6c,0x7f,0x0b,0x6c,0x00,0x00,0xe9,
0x73,0x3e,0x00,0x99,0x4d,0x7f,0x05,0x4d,0x00,0x07,0xe9,0x7f,0x3e,0x00,0x99,0x6c,
0x7f,0x11,0x6c,0x00,0x06,0x6c,0x7f,0x0b,0x6c,0x00,0x00,0xe9,0x73,0x3e,0x00,0x99,
0x4d,0x7f,0x05,0x4d,0x00,0x07,0xe9,0x7f,0x3e,0x00,0x99,0x6c,0x7f,0x11,0x6c,0x00,
0x06,0x6c,0x7f,0x0b,0x6c,0x00,0x00,0xe9,0x73,0x3e,0x00,0x99,0x4d,0x7f,0x05,0x4d,
0x00,0x07,0xe9,0x7f,0x3e,0x00,0x99,0x6c,0x7f,0x11,0x6c,0x00,0x06,0x6c,0x7f,0x0b,
0x6c,0x00,0x00,0xe9,0x73,0x3e,0x00,0x99,0x4d,0x7f,0x05,0x4d,0x00,0x07,0xe9,0x7f,
0x3e,0x00,0x99,0x6c,0x7f,0x11,0x6c,0x00,0x06,0x6c,0x7f,0x0b,0x6c,0x00,0x00,0xe9,
0x73,0x3e,0x00,0x99,0x4d,0x7f,0x05,0x4d,0x00,0x07,0xe9,0x7f,0x3e,0x00,0x99,0x6c,
0x7f,0x11,0x6c,0x00,0x06,0x6c,0x7f,0x0b,0x6c,0x00,0x01,0xe9,0x73,0x3e,0x00,0x99,
0x4d,0x7f,0x05,0x4d,0x00,0x06,0xe9,0x7f,0x3e,0x00,0x99,0x6c,0x7f,0x11,0x6c,0x00,
0x06,0x6c,0x7f,0x0b,0x6c,0x00,0x01,0xe9,0x73,0x3e,0x00,0x99,0x4d,0x7f,0x05,0x4d,
0x00,0x06,0xe9,0x7f,0x3e,0x00,0x99,0x6c,0x7f,0x11,0x6c,0x00,0x06,0x6c,0x7f,0x0b,
0x6c,0x00,0x01,0xe9,0x73,0x3e,0x00,0x99,0x4d,0x7f,0x05,0x4d,0x00,0x06,0xe9,0x7f,
0x3e,0x00,0x99,0x6c,0x7f,0x11,0x6c,0x00,0x06,0x6c,0x7f,0x0b,0x6c,0x00,0x01,0xe9,
0x73,0x3e,0x00,0x99,0x4d,0x7f,0x05,0x4d,0x00,0x06,0xe9,0x7f,0x3e,0x00,0x99,0x6c,
0x7f,0x11,0x6c,0x00,0x06,0x6c,0x7f,0x0b,0x6c,0x00,0x01,0xe9,0x73,0x3e,0x00,0x99,
0x4d,0x7f,0x05,0x4d,0x00,0x06,0xe9,0x7f,0x3e,0x00,0x99,0x6c,0x7f,0x11,0x6c,0x00,
0x06,0x6c,0x7f,0x0b,0x6c,0x00,0x01,0xe9,0x73,0x3e,0x00,0x99,0x4d,0x7f,0x05,0x4d,
0x00,0x06,0xe9,0x7f,0x3e,0x00,0x99,0x6c,0x7f,0x11,0x6c,0x00,0x07,0x6c,0x7f,0x0b,
0x6c,0x00,0x00,0xe9,0x73,0x3e,0x00,0x99,0x4d,0x7f,0x05,0x4d,0x00,0x00,0xff,0x2f,
0x00,
};
