#include <stdint.h>
const uint8_t SWBmidifile[] = {
0x4d,0x54,0x68,0x64,0x00,0x00,0x00,0x06,0x00,0x01,0x00,0x0f,0x00,0x78,0x4d,0x54,
0x72,0x6b,0x00,0x00,0x01,0x98,0x00,0xff,0x03,0x0e,0x42,0x41,0x54,0x54,0x4c,0x45,
0x2e,0x47,0x65,0x6e,0x4d,0x69,0x64,0x69,0x00,0xff,0x01,0x0c,0x42,0x6f,0x73,0x73,
0x20,0x44,0x53,0x2d,0x33,0x33,0x30,0x0a,0x00,0xff,0x01,0x0c,0x42,0x6f,0x73,0x73,
0x20,0x44,0x53,0x2d,0x33,0x33,0x30,0x0a,0x00,0xff,0x01,0x0c,0x42,0x6f,0x73,0x73,
0x20,0x44,0x53,0x2d,0x33,0x33,0x30,0x0a,0x00,0xff,0x01,0x0c,0x42,0x6f,0x73,0x73,
0x20,0x44,0x53,0x2d,0x33,0x33,0x30,0x0a,0x00,0xff,0x01,0x0c,0x42,0x6f,0x73,0x73,
0x20,0x44,0x53,0x2d,0x33,0x33,0x30,0x0a,0x00,0xff,0x01,0x0c,0x42,0x6f,0x73,0x73,
0x20,0x44,0x53,0x2d,0x33,0x33,0x30,0x0a,0x00,0xff,0x01,0x0c,0x42,0x6f,0x73,0x73,
0x20,0x44,0x53,0x2d,0x33,0x33,0x30,0x0a,0x00,0xff,0x01,0x0c,0x42,0x6f,0x73,0x73,
0x20,0x44,0x53,0x2d,0x33,0x33,0x30,0x0a,0x00,0xff,0x01,0x0c,0x42,0x6f,0x73,0x73,
0x20,0x44,0x53,0x2d,0x33,0x33,0x30,0x0a,0x00,0xff,0x01,0x0c,0x42,0x6f,0x73,0x73,
0x20,0x44,0x53,0x2d,0x33,0x33,0x30,0x0a,0x00,0xff,0x01,0x0c,0x42,0x6f,0x73,0x73,
0x20,0x44,0x53,0x2d,0x33,0x33,0x30,0x0a,0x00,0xff,0x01,0x0c,0x42,0x6f,0x73,0x73,
0x20,0x44,0x53,0x2d,0x33,0x33,0x30,0x0a,0x00,0xff,0x01,0x0c,0x42,0x6f,0x73,0x73,
0x20,0x44,0x53,0x2d,0x33,0x33,0x30,0x0a,0x00,0xff,0x01,0x0c,0x42,0x6f,0x73,0x73,
0x20,0x44,0x53,0x2d,0x33,0x33,0x30,0x0a,0x00,0xff,0x58,0x04,0x03,0x02,0x18,0x08,
0x00,0xff,0x59,0x02,0x00,0x00,0x00,0xff,0x51,0x03,0x07,0xa1,0x20,0x93,0x58,0xff,
0x58,0x04,0x02,0x02,0x18,0x08,0x81,0x70,0xff,0x58,0x04,0x03,0x02,0x18,0x08,0x93,
0x58,0xff,0x58,0x04,0x04,0x02,0x18,0x08,0x92,0x60,0xff,0x58,0x04,0x02,0x02,0x18,
0x08,0x81,0x70,0xff,0x58,0x04,0x04,0x02,0x18,0x08,0xc3,0x40,0xff,0x58,0x04,0x03,
0x02,0x18,0x08,0x81,0x81,0x30,0xff,0x58,0x04,0x04,0x02,0x18,0x08,0x81,0x87,0x00,
0xff,0x58,0x04,0x02,0x02,0x18,0x08,0x81,0x70,0xff,0x58,0x04,0x04,0x02,0x18,0x08,
0x96,0x40,0xff,0x58,0x04,0x02,0x02,0x18,0x08,0x81,0x70,0xff,0x58,0x04,0x04,0x02,
0x18,0x08,0x83,0x60,0xff,0x51,0x03,0x07,0x0a,0xe2,0x87,0x40,0xff,0x51,0x03,0x06,
0x8a,0x1b,0x87,0x40,0xff,0x51,0x03,0x05,0xb8,0xd8,0x87,0x40,0xff,0x51,0x03,0x06,
0x1a,0x80,0x86,0x48,0xff,0x51,0x03,0x09,0x27,0xc0,0x00,0xff,0x2f,0x00,0x4d,0x54,
0x72,0x6b,0x00,0x00,0x08,0x6f,0x00,0xff,0x21,0x01,0x00,0x00,0xff,0x03,0x09,0x46,
0x4c,0x55,0x54,0x45,0x53,0x20,0x20,0x20,0x00,0xc0,0x49,0x00,0xb0,0x07,0x50,0xb2,
0x2b,0x90,0x55,0x65,0x0f,0x55,0x00,0x12,0x55,0x65,0x26,0x55,0x00,0x81,0x20,0x54,
0x69,0x0f,0x54,0x00,0x17,0x54,0x6a,0x45,0x54,0x00,0x83,0x6e,0x5b,0x69,0x10,0x5b,
0x00,0x16,0x5b,0x6a,0x72,0x5b,0x00,0x8a,0x35,0x4f,0x6a,0x0b,0x4f,0x00,0x1d,0x4f,
0x50,0x17,0x4f,0x00,0x11,0x4f,0x6d,0x36,0x4f,0x00,0x1a,0x4f,0x71,0x14,0x4f,0x00,
0x14,0x4f,0x4c,0x15,0x4f,0x00,0x13,0x50,0x6f,0x10,0x50,0x00,0x18,0x50,0x52,0x0b,
0x50,0x00,0x1d,0x50,0x73,0x10,0x50,0x00,0x18,0x52,0x62,0x12,0x52,0x00,0x16,0x52,
0x6e,0x0f,0x52,0x00,0x19,0x52,0x67,0x1a,0x52,0x00,0x8b,0x31,0x48,0x6c,0x2b,0x48,
0x00,0x16,0x4d,0x6c,0x20,0x4d,0x00,0x1c,0x52,0x6f,0x23,0x52,0x00,0x1b,0x54,0x71,
0x41,0x54,0x00,0x8d,0x29,0x60,0x3e,0x25,0x60,0x00,0x03,0x5e,0x47,0x20,0x5e,0x00,
0x08,0x5d,0x53,0x1e,0x5d,0x00,0x32,0x63,0x50,0x21,0x63,0x00,0x07,0x61,0x46,0x14,
0x61,0x00,0x14,0x60,0x3e,0x1c,0x60,0x00,0x0c,0x5e,0x3b,0x20,0x5e,0x00,0x08,0x5d,
0x41,0x1c,0x5d,0x00,0x0c,0x5b,0x3d,0x1e,0x5b,0x00,0x0a,0x5d,0x42,0x20,0x5d,0x00,
0x08,0x60,0x40,0x22,0x60,0x00,0x06,0x5e,0x3c,0x20,0x5e,0x00,0x08,0x60,0x52,0x21,
0x60,0x00,0x2f,0x5d,0x39,0x1d,0x5d,0x00,0x0b,0x5b,0x3d,0x22,0x5b,0x00,0x06,0x5d,
0x4e,0x22,0x5d,0x00,0x06,0x60,0x4a,0x1c,0x60,0x00,0x0c,0x5e,0x55,0x1e,0x5e,0x00,
0x0a,0x60,0x4b,0x23,0x60,0x00,0x05,0x63,0x50,0x1c,0x63,0x00,0x0c,0x61,0x64,0x14,
0x61,0x00,0x8f,0x14,0xc0,0x49,0x00,0xb0,0x07,0x50,0x81,0x70,0x90,0x54,0x44,0x00,
0x51,0x47,0x26,0x54,0x00,0x01,0x51,0x00,0x01,0x52,0x46,0x00,0x4f,0x3d,0x1a,0x52,
0x00,0x0e,0x52,0x47,0x00,0x55,0x57,0x01,0x4f,0x00,0x22,0x52,0x00,0x04,0x55,0x00,
0x01,0x54,0x55,0x00,0x51,0x3d,0x26,0x51,0x00,0x02,0x57,0x59,0x24,0x57,0x00,0x00,
0x54,0x00,0x04,0x52,0x6c,0x00,0x55,0x6b,0x1a,0x55,0x00,0x03,0x52,0x00,0x5b,0x43,
0x59,0x24,0x43,0x00,0x04,0x48,0x52,0x23,0x48,0x00,0x05,0x46,0x43,0x1f,0x46,0x00,
0x09,0x45,0x4b,0x24,0x45,0x00,0x04,0x4b,0x5f,0x1f,0x4b,0x00,0x09,0x4c,0x53,0x26,
0x4c,0x00,0x02,0x4f,0x40,0x24,0x4f,0x00,0x04,0x52,0x61,0x23,0x52,0x00,0x05,0x51,
0x4a,0x1f,0x51,0x00,0x09,0x54,0x55,0x28,0x54,0x00,0x00,0x52,0x60,0x23,0x52,0x00,
0x05,0x4a,0x53,0x20,0x4a,0x00,0x08,0x51,0x51,0x21,0x51,0x00,0x07,0x55,0x63,0x23,
0x55,0x00,0x05,0x57,0x4b,0x1e,0x57,0x00,0x0a,0x58,0x48,0x24,0x58,0x00,0x04,0x5d,
0x58,0x24,0x5d,0x00,0x04,0x5b,0x5e,0x21,0x5b,0x00,0x07,0x60,0x6a,0x2c,0x60,0x00,
0x77,0x52,0x6c,0x3d,0x52,0x00,0x39,0x4e,0x68,0x41,0x4e,0x00,0x39,0x4f,0x63,0x38,
0x4f,0x00,0x79,0x52,0x6b,0x21,0x52,0x00,0x1b,0x4e,0x66,0x2d,0x4e,0x00,0x4b,0x52,
0x6c,0x24,0x52,0x00,0x18,0x4e,0x6d,0x17,0x4e,0x00,0x07,0x4c,0x66,0x23,0x4c,0x00,
0x37,0x51,0x66,0x1e,0x4e,0x65,0x02,0x51,0x00,0x19,0x4e,0x00,0x03,0x4f,0x6a,0x1e,
0x4f,0x00,0x5a,0x56,0x79,0x10,0x56,0x00,0x0e,0x56,0x6d,0x1f,0x56,0x00,0x81,0x15,
0x4e,0x63,0x16,0x4e,0x00,0x08,0x4f,0x62,0x17,0x4f,0x00,0x07,0x51,0x6c,0x19,0x51,
0x00,0x41,0x55,0x73,0x13,0x55,0x00,0x0b,0x55,0x6f,0x17,0x55,0x00,0x7f,0x58,0x4c,
0x1a,0x58,0x00,0x04,0x55,0x48,0x1e,0x54,0x60,0x01,0x55,0x00,0x1e,0x54,0x00,0x59,
0x58,0x39,0x1e,0x55,0x48,0x13,0x58,0x00,0x09,0x55,0x00,0x02,0x54,0x5d,0x1d,0x54,
0x00,0x01,0x4c,0x55,0x13,0x4c,0x00,0x47,0x58,0x57,0x1e,0x55,0x61,0x0a,0x58,0x00,
0x0d,0x55,0x00,0x07,0x54,0x42,0x1e,0x52,0x41,0x0b,0x54,0x00,0x13,0x51,0x45,0x08,
0x52,0x00,0x16,0x4f,0x49,0x03,0x51,0x00,0x1b,0x4f,0x00,0x1e,0x5a,0x47,0x00,0x58,
0x47,0x1e,0x5b,0x53,0x08,0x5a,0x00,0x02,0x58,0x00,0x1e,0x5b,0x00,0x81,0x48,0x54,
0x61,0x14,0x54,0x00,0x64,0x54,0x62,0x15,0x54,0x00,0x81,0x5b,0x56,0x6c,0x14,0x56,
0x00,0x64,0x56,0x66,0x13,0x56,0x00,0x81,0x5d,0x55,0x63,0x12,0x55,0x00,0x66,0x55,
0x65,0x10,0x55,0x00,0x81,0x60,0x57,0x67,0x13,0x57,0x00,0x65,0x5a,0x63,0x1b,0x5a,
0x00,0x03,0x5b,0x51,0x17,0x5b,0x00,0x81,0x3b,0x56,0x6f,0x14,0x56,0x00,0x64,0x56,
0x6d,0x11,0x56,0x00,0x81,0x5f,0x58,0x63,0x15,0x58,0x00,0x63,0x58,0x6a,0x13,0x58,
0x00,0x81,0x5d,0x57,0x68,0x16,0x57,0x00,0x62,0x57,0x65,0x12,0x57,0x00,0x81,0x5e,
0x59,0x6d,0x14,0x59,0x00,0x64,0x59,0x6c,0x10,0x59,0x00,0x82,0x26,0x56,0x41,0x1a,
0x56,0x00,0x06,0x58,0x3d,0x10,0x58,0x00,0x04,0x59,0x45,0x16,0x59,0x00,0x06,0x5b,
0x50,0x18,0x5b,0x00,0x81,0x76,0x57,0x46,0x13,0x57,0x00,0x0b,0x58,0x3f,0x16,0x58,
0x00,0x08,0x5a,0x51,0x19,0x5a,0x00,0x05,0x5b,0x49,0x1b,0x5b,0x00,0x81,0x73,0x59,
0x33,0x19,0x59,0x00,0x05,0x5a,0x49,0x25,0x5a,0x00,0x06,0x5c,0x4f,0x17,0x5c,0x00,
0x01,0x5d,0x49,0x21,0x5d,0x00,0x81,0x66,0x58,0x3d,0x18,0x58,0x00,0x06,0x59,0x4a,
0x17,0x59,0x00,0x07,0x5b,0x4b,0x1d,0x5b,0x00,0x01,0x5c,0x57,0x1c,0x5c,0x00,0x81,
0x6d,0x57,0x53,0x19,0x57,0x00,0x03,0x58,0x47,0x1c,0x58,0x00,0x05,0x5a,0x3f,0x1b,
0x5a,0x00,0x04,0x5b,0x28,0x19,0x5b,0x00,0x06,0x57,0x4b,0x1f,0x57,0x00,0x03,0x58,
0x34,0x1e,0x58,0x00,0x03,0x5a,0x2a,0x14,0x5a,0x00,0x07,0x5b,0x26,0x1b,0x5b,0x00,
0x05,0x58,0x47,0x14,0x58,0x00,0x08,0x5a,0x4a,0x23,0x5a,0x00,0x01,0x5b,0x2f,0x1c,
0x5b,0x00,0x03,0x5d,0x32,0x19,0x5d,0x00,0x08,0x5a,0x49,0x10,0x5a,0x00,0x02,0x5b,
0x3c,0x1e,0x5b,0x00,0x0c,0x5d,0x26,0x18,0x5d,0x00,0x04,0x5e,0x42,0x1a,0x5e,0x00,
0x81,0x6a,0x57,0x4a,0x1c,0x57,0x00,0x02,0x58,0x45,0x19,0x58,0x00,0x05,0x5a,0x3b,
0x1c,0x5a,0x00,0x02,0x5b,0x20,0x13,0x5b,0x00,0x0b,0x57,0x50,0x18,0x57,0x00,0x06,
0x58,0x42,0x1e,0x58,0x00,0x00,0x5a,0x42,0x17,0x5a,0x00,0x07,0x5b,0x2c,0x19,0x5b,
0x00,0x05,0x58,0x4a,0x1c,0x58,0x00,0x02,0x5a,0x45,0x17,0x5a,0x00,0x07,0x5b,0x35,
0x17,0x5b,0x00,0x07,0x5d,0x2c,0x1d,0x5d,0x00,0x01,0x5a,0x52,0x1a,0x5a,0x00,0x04,
0x5b,0x4a,0x17,0x5b,0x00,0x07,0x5d,0x2e,0x19,0x5d,0x00,0x05,0x5e,0x3b,0x1b,0x5e,
0x00,0x81,0x73,0x5b,0x53,0x16,0x5b,0x00,0x08,0x5d,0x2b,0x1d,0x5d,0x00,0x01,0x5e,
0x37,0x17,0x5e,0x00,0x07,0x60,0x30,0x14,0x60,0x00,0x81,0x7d,0x5b,0x55,0x18,0x5b,
0x00,0x05,0x5d,0x30,0x15,0x5d,0x00,0x02,0x5e,0x3a,0x1a,0x5e,0x00,0x08,0x60,0x31,
0x1a,0x60,0x00,0x81,0x76,0x5d,0x52,0x17,0x5d,0x00,0x04,0x5e,0x48,0x12,0x5e,0x00,
0x06,0x60,0x40,0x1f,0x60,0x00,0x02,0x62,0x37,0x14,0x62,0x00,0x81,0x7b,0x5d,0x53,
0x14,0x5d,0x00,0x07,0x5e,0x4c,0x1a,0x5e,0x00,0x04,0x60,0x42,0x15,0x60,0x00,0x09,
0x62,0x3d,0x17,0x62,0x00,0x81,0x63,0x4f,0x54,0x1b,0x4f,0x00,0x03,0x55,0x44,0x17,
0x55,0x00,0x01,0x54,0x45,0x1d,0x54,0x00,0x06,0x52,0x44,0x1c,0x52,0x00,0x00,0x51,
0x42,0x17,0x51,0x00,0x81,0x6a,0x52,0x55,0x16,0x52,0x00,0x08,0x5a,0x57,0x1b,0x5a,
0x00,0x04,0x58,0x45,0x1b,0x58,0x00,0x00,0x57,0x4a,0x18,0x57,0x00,0x03,0x55,0x43,
0x22,0x55,0x00,0x81,0x4d,0x52,0x5e,0x1f,0x52,0x00,0x03,0x58,0x42,0x1f,0x58,0x00,
0x01,0x57,0x3a,0x1b,0x57,0x00,0x03,0x55,0x3f,0x1b,0x55,0x00,0x06,0x54,0x45,0x1c,
0x54,0x00,0x08,0x5b,0x57,0x16,0x5b,0x00,0x07,0x5a,0x52,0x1c,0x5a,0x00,0x04,0x58,
0x3f,0x18,0x58,0x00,0x04,0x57,0x59,0x18,0x57,0x00,0x05,0x55,0x56,0x19,0x55,0x00,
0x05,0x54,0x45,0x19,0x54,0x00,0x02,0x52,0x57,0x19,0x52,0x00,0x04,0x51,0x41,0x13,
0x51,0x00,0x08,0x51,0x5f,0x1c,0x51,0x00,0x0a,0x4f,0x2e,0x14,0x4f,0x00,0x02,0x4e,
0x55,0x1c,0x4e,0x00,0x81,0x5e,0x51,0x43,0x1c,0x51,0x00,0x07,0x55,0x41,0x13,0x55,
0x00,0x02,0x54,0x4f,0x1e,0x54,0x00,0x04,0x52,0x4e,0x1b,0x52,0x00,0x04,0x51,0x4d,
0x14,0x51,0x00,0x81,0x5c,0x52,0x52,0x1a,0x52,0x00,0x09,0x54,0x42,0x1a,0x54,0x00,
0x03,0x55,0x55,0x1d,0x55,0x00,0x04,0x57,0x51,0x18,0x57,0x00,0x03,0x58,0x4e,0x19,
0x58,0x00,0x81,0x55,0x4d,0x5c,0x1e,0x59,0x58,0x01,0x4d,0x00,0x1a,0x59,0x00,0x03,
0x58,0x45,0x1e,0x58,0x00,0x00,0x56,0x49,0x1b,0x56,0x00,0x03,0x55,0x4b,0x10,0x55,
0x00,0x81,0x5a,0x4c,0x5c,0x1b,0x4c,0x00,0x07,0x59,0x5c,0x1a,0x59,0x00,0x03,0x58,
0x51,0x1a,0x58,0x00,0x02,0x56,0x45,0x17,0x56,0x00,0x07,0x55,0x58,0x16,0x55,0x00,
0x81,0x5d,0x55,0x64,0x1b,0x55,0x00,0x0b,0x56,0x4b,0x1b,0x56,0x00,0x04,0x58,0x45,
0x14,0x58,0x00,0x03,0x59,0x55,0x17,0x59,0x00,0x07,0x5b,0x55,0x14,0x5b,0x00,0x81,
0x5c,0x55,0x65,0x19,0x55,0x00,0x0c,0x56,0x48,0x13,0x56,0x00,0x05,0x58,0x4e,0x18,
0x58,0x00,0x03,0x59,0x51,0x17,0x59,0x00,0x02,0x5b,0x4e,0x17,0x5b,0x00,0x32,0x59,
0x55,0x13,0x59,0x00,0x04,0x58,0x4f,0x12,0x58,0x00,0x06,0x56,0x57,0x23,0x56,0x00,
0x04,0x55,0x6b,0x19,0x55,0x00,0x3c,0x55,0x66,0x24,0x55,0x00,0x02,0x56,0x5a,0x17,
0x56,0x00,0x06,0x58,0x4b,0x15,0x58,0x00,0x05,0x59,0x4f,0x16,0x59,0x00,0x05,0x5b,
0x4c,0x1b,0x5b,0x00,0x2c,0x59,0x49,0x10,0x59,0x00,0x04,0x58,0x54,0x1d,0x58,0x00,
0x03,0x56,0x57,0x1a,0x56,0x00,0x06,0x55,0x6e,0x19,0x55,0x00,0x44,0x55,0x72,0x13,
0x55,0x00,0x06,0x56,0x5a,0x18,0x56,0x00,0x06,0x58,0x3f,0x1a,0x58,0x00,0x04,0x59,
0x51,0x1b,0x59,0x00,0x03,0x5b,0x4c,0x1b,0x5b,0x00,0x03,0x55,0x69,0x17,0x55,0x00,
0x07,0x56,0x5a,0x1b,0x56,0x00,0x03,0x58,0x3f,0x19,0x58,0x00,0x05,0x59,0x43,0x19,
0x59,0x00,0x05,0x55,0x6b,0x1a,0x55,0x00,0x04,0x56,0x4c,0x18,0x56,0x00,0x06,0x58,
0x49,0x1d,0x58,0x00,0x01,0x59,0x4e,0x15,0x59,0x00,0x09,0x56,0x64,0x1a,0x56,0x00,
0x04,0x58,0x56,0x1a,0x58,0x00,0x04,0x59,0x5d,0x19,0x59,0x00,0x05,0x5b,0x5b,0x1a,
0x5b,0x00,0xde,0x5c,0xc0,0x49,0x00,0xb0,0x07,0x5a,0x82,0x68,0x90,0x51,0x68,0x16,
0x51,0x00,0x12,0x51,0x5d,0x15,0x51,0x00,0x13,0x51,0x5e,0x16,0x51,0x00,0x15,0x56,
0x6a,0x83,0x24,0x56,0x00,0x20,0x56,0x5b,0x1b,0x56,0x00,0x09,0x5d,0x5c,0x82,0x7c,
0x5d,0x00,0x32,0x5d,0x54,0x22,0x5d,0x00,0x03,0x5b,0x5b,0x47,0x5b,0x00,0x0b,0x5a,
0x58,0x48,0x58,0x59,0x01,0x5a,0x00,0x39,0x58,0x00,0x17,0x56,0x62,0x81,0x56,0x56,
0x00,0x26,0x5d,0x5e,0x83,0x4c,0x5d,0x00,0x06,0x5b,0x5a,0x4d,0x5b,0x00,0x07,0x5a,
0x5d,0x47,0x5a,0x00,0x06,0x58,0x60,0x2d,0x58,0x00,0x20,0x58,0x66,0x81,0x66,0x58,
0x00,0x18,0x52,0x5c,0x82,0x57,0x52,0x00,0x07,0x49,0x51,0x1e,0x4e,0x4d,0x1a,0x4e,
0x00,0x00,0x49,0x00,0x03,0x4f,0x57,0x1d,0x4f,0x00,0x02,0x54,0x59,0x18,0x54,0x00,
0x08,0x57,0x62,0x5a,0x57,0x00,0x03,0x56,0x66,0x4c,0x56,0x00,0x04,0x57,0x64,0x40,
0x57,0x00,0x03,0x54,0x67,0x89,0x04,0x54,0x00,0x39,0x4a,0x69,0x83,0x28,0x4a,0x00,
0x30,0x51,0x61,0x83,0x51,0x51,0x00,0x11,0x4f,0x54,0x4b,0x4f,0x00,0x06,0x4e,0x53,
0x46,0x4e,0x00,0x00,0x4c,0x5e,0x51,0x4c,0x00,0x04,0x56,0x5e,0x81,0x64,0x56,0x00,
0x09,0x51,0x4b,0x83,0x5b,0x51,0x00,0x08,0x4f,0x4f,0x4b,0x4f,0x00,0x04,0x4e,0x51,
0x45,0x4e,0x00,0x08,0x4c,0x4f,0x49,0x4c,0x00,0x08,0x56,0x5b,0x81,0x64,0x56,0x00,
0x08,0x51,0x58,0x83,0x28,0x51,0x00,0x41,0x45,0x47,0x56,0x45,0x00,0x04,0x43,0x55,
0x35,0x43,0x00,0x07,0x49,0x65,0x51,0x49,0x00,0x07,0x4c,0x59,0x83,0x5c,0x4c,0x00,
0x0d,0x53,0x58,0x83,0x52,0x53,0x00,0x07,0x52,0x56,0x54,0x52,0x00,0x06,0x50,0x56,
0x5a,0x4e,0x4e,0x01,0x50,0x00,0x44,0x4e,0x00,0x04,0x58,0x5e,0x81,0x52,0x58,0x00,
0x09,0x53,0x54,0x83,0x63,0x53,0x00,0x07,0x52,0x5d,0x4a,0x52,0x00,0x06,0x50,0x54,
0x46,0x50,0x00,0x0d,0x4e,0x51,0x49,0x4e,0x00,0x0a,0x58,0x54,0x81,0x6b,0x53,0x57,
0x01,0x58,0x00,0x83,0x4c,0x53,0x00,0x10,0x53,0x4c,0x4c,0x53,0x00,0x0b,0x57,0x5d,
0x47,0x57,0x00,0x0a,0x5d,0x54,0x44,0x5d,0x00,0x90,0x0a,0x53,0x47,0x1a,0x53,0x00,
0x81,0x4a,0x53,0x4a,0x19,0x53,0x00,0x81,0x4c,0x53,0x4a,0x18,0x53,0x00,0x28,0x53,
0x4a,0x17,0x53,0x00,0x6a,0x53,0x4b,0x16,0x53,0x00,0x5c,0x53,0x4e,0x15,0x53,0x00,
0x81,0x1b,0x53,0x46,0x1b,0x53,0x00,0x5e,0x53,0x41,0x18,0x53,0x00,0x63,0x53,0x45,
0x19,0x53,0x00,0x60,0x53,0x43,0x17,0x53,0x00,0x65,0x53,0x46,0x16,0x53,0x00,0x6c,
0x53,0x49,0x15,0x53,0x00,0x3c,0x53,0x46,0x17,0x53,0x00,0x36,0x53,0x42,0x14,0x53,
0x00,0x00,0xff,0x2f,0x00,0x4d,0x54,0x72,0x6b,0x00,0x00,0x07,0x2c,0x00,0xff,0x21,
0x01,0x00,0x00,0xff,0x03,0x09,0x54,0x52,0x55,0x4d,0x50,0x45,0x54,0x53,0x20,0x00,
0xc1,0x38,0x00,0xb1,0x07,0x73,0x88,0x1d,0x91,0x49,0x62,0x00,0x45,0x5b,0x02,0x4c,
0x5a,0x0f,0x4c,0x00,0x00,0x49,0x00,0x01,0x45,0x00,0x13,0x49,0x64,0x03,0x4c,0x5d,
0x01,0x45,0x58,0x63,0x49,0x00,0x06,0x45,0x00,0x04,0x4c,0x00,0x00,0x42,0x50,0x01,
0x49,0x55,0x04,0x46,0x68,0x21,0x46,0x00,0x10,0x49,0x00,0x02,0x42,0x00,0x1d,0x4c,
0x62,0x02,0x49,0x6b,0x00,0x45,0x5b,0x0f,0x4c,0x00,0x04,0x49,0x00,0x01,0x45,0x00,
0x0f,0x4c,0x69,0x01,0x45,0x58,0x05,0x49,0x6d,0x5a,0x49,0x00,0x04,0x45,0x00,0x06,
0x4c,0x00,0x0d,0x42,0x53,0x01,0x49,0x5d,0x03,0x46,0x62,0x25,0x46,0x00,0x00,0x49,
0x00,0x09,0x42,0x00,0x27,0x4c,0x67,0x00,0x48,0x62,0x02,0x4f,0x61,0x0d,0x4f,0x00,
0x02,0x4c,0x00,0x06,0x48,0x00,0x0c,0x4f,0x63,0x00,0x48,0x54,0x02,0x4c,0x5f,0x62,
0x4c,0x00,0x0b,0x48,0x00,0x05,0x4f,0x00,0x03,0x4b,0x67,0x00,0x4e,0x5f,0x00,0x47,
0x5b,0x22,0x4b,0x00,0x03,0x4e,0x00,0x04,0x47,0x00,0x17,0x4f,0x5a,0x01,0x48,0x55,
0x01,0x4c,0x62,0x0c,0x4f,0x00,0x05,0x48,0x00,0x04,0x4b,0x5f,0x01,0x47,0x4f,0x01,
0x4c,0x00,0x00,0x4e,0x58,0x1a,0x4b,0x00,0x00,0x49,0x65,0x02,0x45,0x5b,0x00,0x4c,
0x54,0x01,0x47,0x00,0x02,0x4e,0x00,0x0f,0x49,0x00,0x01,0x45,0x00,0x00,0x4c,0x00,
0x22,0x49,0x63,0x01,0x42,0x63,0x06,0x46,0x67,0x87,0x46,0x46,0x00,0x04,0x42,0x00,
0x01,0x49,0x00,0x84,0x65,0x47,0x5e,0x02,0x4e,0x62,0x08,0x4b,0x58,0x09,0x4e,0x00,
0x03,0x47,0x00,0x04,0x4b,0x00,0x0b,0x47,0x53,0x01,0x4e,0x53,0x01,0x4b,0x59,0x71,
0x4e,0x00,0x07,0x4b,0x00,0x01,0x4b,0x59,0x00,0x44,0x5c,0x02,0x47,0x00,0x05,0x48,
0x5d,0x21,0x48,0x00,0x03,0x4b,0x00,0x03,0x44,0x00,0x2e,0x4b,0x5e,0x00,0x4e,0x5b,
0x03,0x47,0x3a,0x0a,0x47,0x00,0x00,0x4e,0x00,0x01,0x4b,0x00,0x09,0x47,0x4d,0x07,
0x4e,0x5f,0x03,0x4b,0x5b,0x69,0x47,0x00,0x02,0x4b,0x59,0x02,0x44,0x57,0x01,0x4b,
0x00,0x00,0x4e,0x00,0x00,0x4b,0x00,0x05,0x48,0x57,0x20,0x48,0x00,0x08,0x44,0x00,
0x2a,0x4e,0x5a,0x05,0x51,0x54,0x01,0x4a,0x5d,0x0a,0x4e,0x00,0x05,0x51,0x00,0x01,
0x4a,0x00,0x0b,0x4e,0x53,0x02,0x4a,0x55,0x01,0x51,0x50,0x6a,0x4a,0x00,0x04,0x51,
0x00,0x00,0x4e,0x00,0x04,0x4d,0x5a,0x03,0x49,0x58,0x00,0x50,0x53,0x1e,0x50,0x00,
0x00,0x4d,0x00,0x01,0x49,0x00,0x1d,0x51,0x4e,0x00,0x4e,0x58,0x02,0x4a,0x57,0x15,
0x4a,0x00,0x01,0x4e,0x00,0x01,0x4d,0x43,0x02,0x49,0x4f,0x02,0x51,0x00,0x03,0x50,
0x41,0x17,0x47,0x5d,0x02,0x50,0x00,0x01,0x4d,0x00,0x01,0x4b,0x64,0x00,0x4e,0x5d,
0x01,0x49,0x00,0x10,0x47,0x00,0x02,0x4b,0x00,0x01,0x4e,0x00,0x26,0x48,0x5d,0x00,
0x44,0x5a,0x02,0x4b,0x61,0x8a,0x19,0x4b,0x00,0x01,0x44,0x00,0x0a,0x48,0x00,0x3e,
0x49,0x52,0x82,0x34,0x49,0x00,0x3c,0x4e,0x5c,0x35,0x4e,0x00,0x44,0x49,0x57,0x82,
0x5f,0x49,0x00,0x78,0x48,0x59,0x82,0x5e,0x48,0x00,0x06,0x4d,0x56,0x3a,0x4d,0x00,
0x3e,0x48,0x54,0x81,0x58,0x48,0x00,0x81,0x11,0x4b,0x57,0x00,0x4f,0x51,0x03,0x46,
0x4e,0x35,0x46,0x00,0x00,0x4f,0x00,0x00,0x4b,0x00,0x86,0x13,0x4c,0x5e,0x00,0x4f,
0x62,0x00,0x48,0x57,0x12,0x4c,0x00,0x06,0x48,0x00,0x00,0x4f,0x00,0x10,0x48,0x60,
0x00,0x4c,0x4e,0x00,0x4f,0x5a,0x10,0x4c,0x00,0x07,0x4f,0x00,0x00,0x48,0x00,0x11,
0x48,0x62,0x00,0x4c,0x4a,0x00,0x4f,0x56,0x45,0x4f,0x00,0x02,0x4c,0x00,0x00,0x48,
0x00,0x09,0x4c,0x5a,0x00,0x48,0x5c,0x00,0x4f,0x58,0x14,0x4c,0x00,0x03,0x4f,0x00,
0x03,0x48,0x00,0x0e,0x4c,0x55,0x00,0x4f,0x58,0x00,0x48,0x5d,0x0f,0x4c,0x00,0x06,
0x4f,0x00,0x02,0x48,0x00,0x18,0x49,0x6d,0x03,0x50,0x67,0x03,0x4d,0x52,0x0b,0x4d,
0x00,0x04,0x50,0x00,0x00,0x49,0x00,0x12,0x50,0x55,0x00,0x49,0x66,0x00,0x4d,0x46,
0x12,0x50,0x00,0x02,0x4d,0x00,0x02,0x49,0x00,0x0e,0x50,0x60,0x01,0x4d,0x49,0x01,
0x49,0x5b,0x13,0x4d,0x00,0x01,0x50,0x00,0x09,0x49,0x00,0x07,0x52,0x59,0x00,0x4f,
0x5d,0x00,0x4b,0x6d,0x12,0x4f,0x00,0x02,0x52,0x00,0x02,0x4b,0x00,0x12,0x4f,0x52,
0x00,0x52,0x54,0x00,0x4b,0x5f,0x13,0x4f,0x00,0x01,0x4b,0x00,0x00,0x52,0x00,0x14,
0x52,0x60,0x00,0x4f,0x5f,0x00,0x4b,0x6b,0x15,0x4f,0x00,0x04,0x4b,0x00,0x01,0x52,
0x00,0x85,0x27,0x41,0x5b,0x26,0x41,0x00,0x18,0x46,0x5f,0x81,0x08,0x46,0x00,0x2f,
0x43,0x5b,0x23,0x43,0x00,0x19,0x4a,0x67,0x78,0x4a,0x00,0x2c,0x43,0x5b,0x21,0x43,
0x00,0x1d,0x48,0x67,0x1c,0x48,0x00,0x24,0x4d,0x64,0x81,0x47,0x4d,0x00,0x2b,0x48,
0x5c,0x21,0x48,0x00,0x17,0x4d,0x59,0x23,0x4d,0x00,0x1b,0x52,0x63,0x53,0x52,0x00,
0x28,0x41,0x5a,0x2e,0x41,0x00,0x0e,0x46,0x61,0x2f,0x46,0x00,0x14,0x4b,0x6c,0x28,
0x4b,0x00,0x14,0x48,0x48,0x2a,0x48,0x00,0x0e,0x4d,0x5b,0x23,0x4d,0x00,0x18,0x52,
0x5c,0x2c,0x52,0x00,0x15,0x54,0x5e,0x3f,0x54,0x00,0x32,0x41,0x60,0x2e,0x41,0x00,
0x10,0x46,0x5f,0x30,0x46,0x00,0x0a,0x4b,0x6b,0x24,0x4b,0x00,0x92,0x75,0x51,0x67,
0x00,0x45,0x55,0x46,0x51,0x00,0x01,0x45,0x00,0x87,0x76,0x4c,0x58,0x1a,0x4c,0x00,
0x0e,0x4c,0x59,0x16,0x4c,0x00,0x0e,0x4c,0x5d,0x0d,0x4c,0x00,0x81,0x12,0x50,0x67,
0x17,0x50,0x00,0x11,0x50,0x59,0x12,0x50,0x00,0x16,0x50,0x60,0x1c,0x50,0x00,0x87,
0x44,0x3d,0x66,0x28,0x3d,0x00,0x86,0x28,0x46,0x67,0x00,0x4a,0x69,0x0d,0x4a,0x00,
0x05,0x46,0x00,0x16,0x4a,0x63,0x00,0x46,0x5a,0x0f,0x4a,0x00,0x05,0x46,0x00,0x14,
0x4a,0x68,0x00,0x46,0x63,0x1b,0x4a,0x00,0x03,0x46,0x00,0x0a,0x46,0x5d,0x00,0x4a,
0x61,0x38,0x4a,0x00,0x02,0x46,0x00,0x37,0x4a,0x64,0x02,0x46,0x60,0x3d,0x46,0x00,
0x02,0x4a,0x00,0x78,0x4a,0x64,0x03,0x46,0x63,0x13,0x4a,0x00,0x03,0x46,0x00,0x27,
0x4a,0x68,0x01,0x46,0x64,0x34,0x46,0x00,0x02,0x4a,0x00,0x7d,0x4a,0x68,0x00,0x46,
0x63,0x29,0x4a,0x00,0x01,0x46,0x00,0x81,0x0c,0x4a,0x6a,0x00,0x46,0x64,0x2c,0x4a,
0x00,0x01,0x46,0x00,0x81,0x40,0x4a,0x63,0x04,0x46,0x64,0x16,0x4a,0x00,0x03,0x46,
0x00,0x1f,0x4a,0x6e,0x01,0x46,0x69,0x19,0x4a,0x00,0x01,0x46,0x00,0x27,0x46,0x6c,
0x00,0x4a,0x67,0x24,0x46,0x00,0x01,0x4a,0x00,0x81,0x44,0x49,0x66,0x02,0x45,0x5d,
0x23,0x45,0x00,0x03,0x49,0x00,0x52,0x4c,0x63,0x01,0x49,0x5f,0x1e,0x49,0x00,0x04,
0x4c,0x00,0x81,0x14,0x4c,0x62,0x00,0x49,0x62,0x1c,0x49,0x00,0x04,0x4c,0x00,0x81,
0x11,0x4c,0x67,0x00,0x49,0x67,0x10,0x49,0x00,0x05,0x4c,0x00,0x09,0x49,0x5f,0x01,
0x4c,0x62,0x1c,0x4c,0x00,0x01,0x49,0x00,0x78,0x49,0x6b,0x00,0x4c,0x62,0x16,0x49,
0x00,0x01,0x4c,0x00,0x98,0x4a,0x4c,0x38,0x02,0x47,0x33,0x6a,0x47,0x00,0x6a,0x4c,
0x00,0x81,0x24,0x4b,0x4a,0x00,0x47,0x33,0x6a,0x47,0x00,0x78,0x4b,0x00,0x81,0x00,
0x4a,0x3d,0x00,0x4d,0x38,0x6a,0x4a,0x00,0x81,0x06,0x4d,0x00,0x78,0x49,0x46,0x03,
0x4c,0x39,0x67,0x49,0x00,0x6a,0x4c,0x00,0x81,0x0c,0x4b,0x54,0x03,0x47,0x3e,0x6a,
0x47,0x00,0x81,0x00,0x4b,0x00,0x81,0x00,0x49,0x4b,0x81,0x74,0x49,0x00,0x79,0x4b,
0x4d,0x81,0x72,0x4b,0x00,0x73,0x49,0x48,0x81,0x4f,0x49,0x00,0x2d,0x4c,0x57,0x6a,
0x4c,0x00,0x07,0x4b,0x4e,0x6a,0x4b,0x00,0x0a,0x4a,0x47,0x6a,0x4a,0x00,0x10,0x4b,
0x51,0x69,0x4a,0x47,0x01,0x4b,0x00,0x69,0x4a,0x00,0x0e,0x49,0x36,0x76,0x49,0x00,
0x03,0x4c,0x51,0x6a,0x4c,0x00,0x0c,0x4b,0x4b,0x6a,0x4b,0x00,0x0e,0x4a,0x4a,0x73,
0x4a,0x00,0x09,0x4b,0x52,0x6a,0x4b,0x00,0x0c,0x4a,0x4a,0x6a,0x4a,0x00,0x0b,0x49,
0x4b,0x65,0x49,0x00,0x1c,0x4d,0x56,0x6a,0x4d,0x00,0x0f,0x4c,0x4a,0x6a,0x4c,0x00,
0x13,0x4b,0x4e,0x6e,0x4b,0x00,0x11,0x4c,0x56,0x6a,0x4c,0x00,0x11,0x4b,0x5a,0x6a,
0x4b,0x00,0x0a,0x4a,0x59,0x6f,0x4d,0x53,0x04,0x4a,0x00,0x66,0x4d,0x00,0x0e,0x4c,
0x46,0x6a,0x4c,0x00,0x0e,0x4b,0x58,0x6a,0x4b,0x00,0x0e,0x4c,0x4f,0x6a,0x4c,0x00,
0x0e,0x4b,0x4e,0x6a,0x4b,0x00,0x0e,0x4a,0x49,0x66,0x4a,0x00,0x0d,0x4e,0x50,0x6a,
0x4e,0x00,0x10,0x4d,0x49,0x6a,0x4d,0x00,0x0c,0x4c,0x42,0x71,0x4c,0x00,0x0a,0x4d,
0x49,0x6a,0x4d,0x00,0x0d,0x4c,0x45,0x6a,0x4c,0x00,0x14,0x4b,0x44,0x64,0x4b,0x00,
0x12,0x4e,0x55,0x6a,0x4e,0x00,0x0d,0x4d,0x4a,0x6a,0x4d,0x00,0x0d,0x4c,0x45,0x6e,
0x4c,0x00,0x06,0x4d,0x49,0x6a,0x4d,0x00,0x0e,0x4c,0x3a,0x6a,0x4c,0x00,0x15,0x4b,
0x54,0x66,0x4b,0x00,0x10,0x4f,0x51,0x6a,0x4f,0x00,0x0e,0x4e,0x52,0x6a,0x4e,0x00,
0x0e,0x4d,0x4a,0x6f,0x4d,0x00,0x02,0x4c,0x5f,0x6a,0x4c,0x00,0x15,0x4b,0x53,0x6a,
0x4b,0x00,0x02,0x4a,0x4b,0x74,0x4a,0x00,0x06,0x4f,0x5a,0x6a,0x4f,0x00,0x0c,0x4e,
0x53,0x6a,0x4e,0x00,0x0b,0x4d,0x4a,0x73,0x4d,0x00,0x14,0x4c,0x5b,0x6a,0x4c,0x00,
0x06,0x4b,0x52,0x6a,0x4b,0x00,0x19,0x4a,0x42,0x5e,0x4a,0x00,0x25,0x50,0x57,0x6a,
0x50,0x00,0x08,0x4f,0x3f,0x6a,0x4f,0x00,0x0e,0x4c,0x5a,0x5e,0x4c,0x00,0xc3,0x4b,
0x35,0x71,0x15,0x35,0x00,0x0e,0x35,0x5d,0x15,0x35,0x00,0x12,0x35,0x72,0x18,0x35,
0x00,0x1d,0x3a,0x6b,0x83,0x50,0x3a,0x00,0x11,0x41,0x69,0x83,0x5e,0x41,0x00,0x06,
0x3f,0x4f,0x0d,0x3f,0x00,0x19,0x3e,0x4e,0x14,0x3e,0x00,0x13,0x3c,0x4c,0x1f,0x3c,
0x00,0x07,0x46,0x4b,0x82,0x68,0x46,0x00,0x01,0x41,0x62,0x83,0x64,0x41,0x00,0x04,
0x3f,0x6b,0x10,0x3f,0x00,0x10,0x3e,0x52,0x12,0x3e,0x00,0x18,0x3c,0x50,0x10,0x3c,
0x00,0x15,0x46,0x63,0x82,0x63,0x46,0x00,0x05,0x41,0x5f,0x83,0x52,0x41,0x00,0x0c,
0x3f,0x66,0x12,0x3f,0x00,0x15,0x3e,0x57,0x12,0x3e,0x00,0x17,0x3f,0x66,0x12,0x3f,
0x00,0x1c,0x3c,0x62,0x85,0x46,0x3c,0x00,0x06,0x39,0x5e,0x0e,0x39,0x00,0x1a,0x39,
0x57,0x0c,0x39,0x00,0x1c,0x39,0x58,0x0f,0x39,0x00,0x14,0x3e,0x66,0x83,0x3b,0x3e,
0x00,0x0c,0x40,0x5c,0x0e,0x40,0x00,0x12,0x45,0x60,0x83,0x29,0x45,0x00,0x19,0x45,
0x5c,0x17,0x45,0x00,0x05,0x43,0x60,0x49,0x43,0x00,0x07,0x42,0x68,0x40,0x42,0x00,
0x06,0x40,0x5f,0x57,0x40,0x00,0x03,0x3e,0x64,0x81,0x64,0x3e,0x00,0x0b,0x45,0x64,
0x83,0x3d,0x45,0x00,0x1d,0x43,0x5e,0x4f,0x43,0x00,0x04,0x42,0x64,0x49,0x42,0x00,
0x03,0x40,0x5f,0x46,0x40,0x00,0x07,0x40,0x61,0x81,0x6e,0x40,0x00,0x0d,0x46,0x66,
0x82,0x66,0x46,0x00,0x02,0x3d,0x52,0x10,0x3d,0x00,0x0e,0x42,0x51,0x17,0x42,0x00,
0x07,0x43,0x53,0x1a,0x43,0x00,0x04,0x48,0x5b,0x12,0x48,0x00,0x08,0x4b,0x6d,0x52,
0x4b,0x00,0x0c,0x4a,0x67,0x38,0x4a,0x00,0x04,0x4b,0x67,0x4b,0x4b,0x00,0x0a,0x48,
0x60,0x89,0x1d,0x48,0x00,0x00,0xff,0x2f,0x00,0x4d,0x54,0x72,0x6b,0x00,0x00,0x00,
0x81,0x00,0xff,0x21,0x01,0x00,0x00,0xff,0x03,0x09,0x54,0x55,0x42,0x41,0x20,0x20,
0x20,0x20,0x20,0xa9,0x20,0x92,0x25,0x53,0x00,0xb2,0x07,0x69,0x00,0xc2,0x3a,0x82,
0x26,0x92,0x25,0x00,0x83,0x2f,0x2a,0x5c,0x42,0x2a,0x00,0x36,0x25,0x58,0x82,0x48,
0x25,0x00,0x19,0x29,0x5e,0x44,0x29,0x00,0x3e,0x24,0x5b,0x82,0x3e,0x24,0x00,0x1e,
0x2b,0x59,0x44,0x2b,0x00,0x3a,0x24,0x5f,0x82,0x69,0x24,0x00,0xcf,0x55,0xc2,0x3a,
0x81,0x70,0x92,0x1e,0x69,0x21,0x1e,0x00,0x1d,0x1e,0x68,0x2a,0x1e,0x00,0x10,0x1e,
0x5c,0x44,0x1e,0x00,0x81,0x2e,0x1f,0x64,0x3c,0x1f,0x00,0x3d,0x25,0x64,0x31,0x25,
0x00,0x7f,0x25,0x65,0x33,0x25,0x00,0x81,0x07,0x25,0x66,0x28,0x25,0x00,0x00,0xff,
0x2f,0x00,0x4d,0x54,0x72,0x6b,0x00,0x00,0x0a,0x2d,0x00,0xff,0x21,0x01,0x00,0x00,
0xff,0x03,0x09,0x54,0x52,0x4f,0x4d,0x42,0x4f,0x4e,0x45,0x53,0x00,0xc3,0x39,0x00,
0xb3,0x07,0x78,0x82,0x68,0x93,0x3b,0x5a,0x1c,0x3b,0x00,0x81,0x58,0x3b,0x51,0x0f,
0x3b,0x00,0x12,0x3b,0x47,0x12,0x3b,0x00,0x09,0x3b,0x64,0x0f,0x3b,0x00,0x13,0x3b,
0x4b,0x12,0x3b,0x00,0x0d,0x3b,0x67,0x14,0x3b,0x00,0x81,0x5d,0x3b,0x58,0x10,0x3b,
0x00,0x0e,0x3b,0x43,0x0d,0x3b,0x00,0x0d,0x3b,0x5a,0x12,0x3b,0x00,0x11,0x3b,0x4e,
0x12,0x3b,0x00,0x0f,0x3b,0x62,0x14,0x3b,0x00,0x81,0x59,0x3b,0x5c,0x10,0x3b,0x00,
0x0b,0x3b,0x49,0x0e,0x3b,0x00,0x12,0x3b,0x56,0x0e,0x3b,0x00,0x0f,0x3b,0x49,0x14,
0x3b,0x00,0x0a,0x3b,0x60,0x1a,0x3b,0x00,0x81,0x5c,0x3b,0x5e,0x10,0x3b,0x00,0x0c,
0x3b,0x50,0x12,0x3b,0x00,0x0b,0x3b,0x4d,0x09,0x3b,0x00,0x0d,0x3b,0x52,0x12,0x3b,
0x00,0x0d,0x3b,0x64,0x16,0x3b,0x00,0x81,0x62,0x3b,0x61,0x0f,0x3b,0x00,0x0b,0x3b,
0x4c,0x12,0x3b,0x00,0x0b,0x3b,0x57,0x0a,0x3b,0x00,0x0e,0x3b,0x4e,0x14,0x3b,0x00,
0x0e,0x3b,0x5e,0x17,0x3b,0x00,0x81,0x58,0x3b,0x63,0x12,0x3b,0x00,0x0e,0x3b,0x44,
0x14,0x3b,0x00,0x0b,0x3b,0x56,0x08,0x3b,0x00,0x10,0x3b,0x42,0x11,0x3b,0x00,0x0d,
0x3b,0x60,0x18,0x3b,0x00,0x81,0x5e,0x3b,0x5b,0x11,0x3b,0x00,0x0d,0x3b,0x4d,0x12,
0x3b,0x00,0x0c,0x3b,0x62,0x0d,0x3b,0x00,0x0c,0x3b,0x56,0x12,0x3b,0x00,0x0f,0x3b,
0x5e,0x1e,0x3b,0x00,0x36,0x3b,0x57,0x14,0x3b,0x00,0x0a,0x3e,0x6d,0x14,0x3e,0x00,
0x0d,0x3e,0x45,0x11,0x3e,0x00,0x0c,0x3e,0x68,0x12,0x3e,0x00,0x0a,0x3e,0x60,0x12,
0x3e,0x00,0x0c,0x3d,0x67,0x23,0x3d,0x00,0x93,0x35,0x3d,0x51,0x82,0x48,0x3d,0x00,
0x27,0x42,0x50,0x42,0x42,0x00,0x2f,0x3d,0x52,0x82,0x3e,0x3d,0x00,0x23,0x44,0x52,
0x4b,0x44,0x00,0x37,0x3c,0x5a,0x82,0x55,0x3c,0x00,0x07,0x41,0x4e,0x4b,0x41,0x00,
0x2d,0x3c,0x50,0x81,0x5a,0x3c,0x00,0x82,0x04,0x3c,0x5d,0x81,0x6d,0x3c,0x00,0x06,
0x41,0x46,0x00,0x3d,0x56,0x83,0x4d,0x3d,0x00,0x02,0x41,0x00,0x19,0x40,0x54,0x00,
0x38,0x5a,0x00,0x3c,0x58,0x17,0x38,0x00,0x00,0x40,0x00,0x02,0x3c,0x00,0x0f,0x3c,
0x47,0x00,0x40,0x4d,0x00,0x38,0x50,0x13,0x3c,0x00,0x01,0x40,0x00,0x02,0x38,0x00,
0x12,0x3c,0x47,0x00,0x40,0x4f,0x00,0x38,0x56,0x39,0x40,0x00,0x00,0x3c,0x00,0x03,
0x38,0x00,0x14,0x3c,0x3f,0x00,0x40,0x4e,0x00,0x38,0x50,0x13,0x3c,0x00,0x01,0x40,
0x00,0x03,0x38,0x00,0x11,0x40,0x4d,0x00,0x3c,0x47,0x00,0x38,0x56,0x12,0x40,0x00,
0x05,0x3c,0x00,0x07,0x38,0x00,0x0a,0x40,0x55,0x00,0x3c,0x54,0x00,0x37,0x5b,0x13,
0x40,0x00,0x01,0x3c,0x00,0x05,0x37,0x00,0x0f,0x3c,0x57,0x00,0x37,0x5a,0x00,0x40,
0x50,0x14,0x3c,0x00,0x03,0x40,0x00,0x03,0x37,0x00,0x0e,0x40,0x53,0x00,0x3c,0x53,
0x00,0x37,0x5d,0x0b,0x40,0x00,0x0a,0x3c,0x00,0x03,0x37,0x00,0x12,0x35,0x6a,0x03,
0x3f,0x67,0x00,0x3a,0x66,0x0f,0x3a,0x00,0x05,0x35,0x00,0x01,0x3f,0x00,0x10,0x3a,
0x5b,0x02,0x3f,0x68,0x02,0x35,0x61,0x0e,0x3a,0x00,0x05,0x3f,0x00,0x02,0x35,0x00,
0x0e,0x3f,0x5d,0x00,0x3a,0x60,0x01,0x35,0x64,0x12,0x3a,0x00,0x04,0x35,0x00,0x04,
0x3f,0x00,0x84,0x29,0x37,0x62,0x36,0x37,0x00,0x0b,0x3c,0x68,0x81,0x30,0x3c,0x00,
0x04,0x3a,0x6e,0x35,0x3a,0x00,0x09,0x3f,0x6f,0x81,0x26,0x3f,0x00,0x04,0x37,0x60,
0x39,0x37,0x00,0x07,0x3c,0x66,0x37,0x3c,0x00,0x03,0x41,0x58,0x35,0x41,0x00,0x07,
0x3e,0x67,0x35,0x3e,0x00,0x07,0x39,0x52,0x38,0x39,0x00,0x08,0x3c,0x64,0x37,0x3c,
0x00,0x05,0x37,0x66,0x6e,0x37,0x00,0x06,0x3c,0x67,0x3c,0x37,0x63,0x3a,0x37,0x00,
0x00,0x32,0x62,0x37,0x3c,0x00,0x07,0x3a,0x5d,0x35,0x3a,0x00,0x00,0x32,0x00,0x07,
0x3f,0x63,0x02,0x37,0x5c,0x32,0x3f,0x00,0x01,0x37,0x00,0x07,0x32,0x54,0x00,0x3c,
0x58,0x35,0x3c,0x00,0x05,0x32,0x00,0x04,0x2d,0x5e,0x01,0x41,0x63,0x56,0x2d,0x00,
0x14,0x41,0x00,0x0e,0x3f,0x6c,0x35,0x3f,0x00,0x07,0x3a,0x5e,0x33,0x3a,0x00,0x05,
0x35,0x5b,0x57,0x35,0x00,0x22,0x3a,0x69,0x3c,0x35,0x57,0x03,0x3a,0x00,0x2d,0x35,
0x00,0x07,0x30,0x5b,0x33,0x30,0x00,0x0e,0x39,0x60,0x00,0x3e,0x5e,0x00,0x43,0x5f,
0x0f,0x43,0x00,0x00,0x3e,0x00,0x01,0x39,0x00,0x18,0x3e,0x5f,0x00,0x43,0x5c,0x00,
0x39,0x5d,0x0e,0x3e,0x00,0x01,0x43,0x00,0x05,0x39,0x00,0x14,0x3e,0x5f,0x00,0x39,
0x59,0x00,0x43,0x5b,0x3b,0x3e,0x00,0x02,0x43,0x00,0x02,0x39,0x00,0x11,0x3e,0x66,
0x00,0x39,0x66,0x00,0x43,0x66,0x11,0x3e,0x00,0x05,0x43,0x00,0x04,0x39,0x00,0x0e,
0x39,0x5a,0x00,0x3e,0x61,0x00,0x43,0x5f,0x12,0x3e,0x00,0x02,0x43,0x00,0x04,0x39,
0x00,0x10,0x43,0x6d,0x00,0x3e,0x71,0x00,0x39,0x6a,0x21,0x3e,0x00,0x02,0x43,0x00,
0x02,0x39,0x00,0x81,0x4b,0x3d,0x45,0x61,0x3d,0x00,0x55,0x3d,0x4a,0x63,0x3d,0x00,
0x4f,0x3a,0x43,0x46,0x3a,0x00,0x32,0x37,0x3b,0x46,0x37,0x00,0x32,0x3a,0x41,0x4b,
0x3a,0x00,0x2d,0x37,0x3d,0x46,0x37,0x00,0x32,0x3a,0x3f,0x3f,0x3a,0x00,0x39,0x3d,
0x3e,0x51,0x3d,0x00,0x87,0x6f,0x41,0x3d,0x6e,0x41,0x00,0x02,0x40,0x3f,0x6f,0x40,
0x00,0x06,0x41,0x44,0x77,0x41,0x00,0x02,0x42,0x42,0x5c,0x42,0x00,0x19,0x42,0x48,
0x59,0x42,0x00,0x24,0x40,0x4b,0x55,0x40,0x00,0x82,0x13,0x40,0x64,0x17,0x40,0x00,
0x11,0x40,0x61,0x0f,0x40,0x00,0x19,0x40,0x61,0x0d,0x40,0x00,0x81,0x13,0x44,0x68,
0x13,0x44,0x00,0x15,0x44,0x64,0x12,0x44,0x00,0x16,0x44,0x5d,0x13,0x44,0x00,0x15,
0x48,0x68,0x01,0x45,0x60,0x02,0x3d,0x68,0x19,0x45,0x00,0x01,0x48,0x00,0x09,0x3d,
0x00,0x81,0x0b,0x3d,0x6b,0x01,0x48,0x6f,0x02,0x45,0x61,0x19,0x48,0x00,0x02,0x3d,
0x00,0x01,0x45,0x00,0x82,0x0f,0x45,0x5f,0x00,0x48,0x62,0x00,0x3d,0x6c,0x25,0x48,
0x00,0x01,0x3d,0x00,0x03,0x45,0x00,0x83,0x2e,0x48,0x68,0x28,0x48,0x00,0x86,0x2a,
0x36,0x6b,0x10,0x36,0x00,0x18,0x36,0x6e,0x0f,0x36,0x00,0x19,0x36,0x70,0x11,0x36,
0x00,0x91,0x7f,0x39,0x5c,0x00,0x38,0x67,0x00,0x3c,0x66,0x0e,0x38,0x00,0x00,0x39,
0x00,0x04,0x3c,0x00,0x0c,0x39,0x52,0x00,0x38,0x56,0x00,0x3c,0x4c,0x0d,0x38,0x00,
0x02,0x3c,0x00,0x00,0x39,0x00,0x0f,0x38,0x5b,0x00,0x39,0x5b,0x15,0x38,0x00,0x01,
0x39,0x00,0x26,0x3c,0x69,0x00,0x39,0x68,0x00,0x38,0x6c,0x0f,0x39,0x00,0x01,0x38,
0x00,0x00,0x3c,0x00,0x0e,0x3c,0x42,0x00,0x38,0x57,0x00,0x39,0x58,0x0c,0x3c,0x00,
0x01,0x39,0x00,0x01,0x38,0x00,0x10,0x39,0x5b,0x00,0x38,0x5d,0x14,0x38,0x00,0x00,
0x39,0x00,0x81,0x20,0x3d,0x63,0x00,0x3a,0x6c,0x00,0x3e,0x67,0x0b,0x3d,0x00,0x03,
0x3a,0x00,0x02,0x3e,0x00,0x0e,0x3d,0x64,0x00,0x3e,0x56,0x00,0x3a,0x5d,0x0e,0x3e,
0x00,0x00,0x3d,0x00,0x01,0x3a,0x00,0x0f,0x3a,0x60,0x00,0x3d,0x62,0x14,0x3d,0x00,
0x00,0x3a,0x00,0x28,0x3e,0x69,0x00,0x3a,0x6f,0x00,0x3d,0x74,0x0d,0x3e,0x00,0x01,
0x3d,0x00,0x00,0x3a,0x00,0x10,0x3a,0x5f,0x00,0x3e,0x5c,0x00,0x3d,0x64,0x0d,0x3d,
0x00,0x00,0x3e,0x00,0x00,0x3a,0x00,0x11,0x3a,0x62,0x00,0x3d,0x66,0x12,0x3d,0x00,
0x01,0x3a,0x00,0x81,0x21,0x3a,0x67,0x00,0x3d,0x67,0x00,0x39,0x64,0x0b,0x3a,0x00,
0x02,0x39,0x00,0x03,0x3d,0x00,0x0e,0x3a,0x60,0x00,0x3d,0x4d,0x00,0x39,0x54,0x0a,
0x3a,0x00,0x05,0x39,0x00,0x00,0x3d,0x00,0x0f,0x3a,0x63,0x00,0x39,0x46,0x10,0x39,
0x00,0x04,0x3a,0x00,0x28,0x3d,0x67,0x00,0x3a,0x6d,0x00,0x39,0x64,0x0b,0x3a,0x00,
0x02,0x39,0x00,0x00,0x3d,0x00,0x11,0x3d,0x62,0x00,0x39,0x5b,0x00,0x3a,0x72,0x0b,
0x3d,0x00,0x01,0x39,0x00,0x02,0x3a,0x00,0x10,0x39,0x5c,0x00,0x3a,0x67,0x0f,0x39,
0x00,0x01,0x3a,0x00,0x81,0x24,0x3b,0x66,0x00,0x3c,0x67,0x00,0x3f,0x6f,0x0b,0x3f,
0x00,0x02,0x3c,0x00,0x02,0x3b,0x00,0x0f,0x3f,0x63,0x00,0x3c,0x63,0x00,0x3b,0x5e,
0x0e,0x3f,0x00,0x02,0x3b,0x00,0x00,0x3c,0x00,0x0e,0x3c,0x51,0x00,0x3b,0x58,0x0e,
0x3c,0x00,0x07,0x3b,0x00,0x27,0x3c,0x6a,0x00,0x3b,0x6a,0x00,0x3f,0x72,0x0e,0x3b,
0x00,0x00,0x3c,0x00,0x01,0x3f,0x00,0x0f,0x3f,0x52,0x00,0x3c,0x5b,0x00,0x3b,0x53,
0x0a,0x3f,0x00,0x04,0x3b,0x00,0x00,0x3c,0x00,0x10,0x3c,0x63,0x00,0x3b,0x64,0x0e,
0x3b,0x00,0x00,0x3c,0x00,0x81,0x26,0x3a,0x63,0x00,0x3e,0x5f,0x00,0x3d,0x70,0x0d,
0x3d,0x00,0x03,0x3e,0x00,0x00,0x3a,0x00,0x0e,0x3d,0x66,0x00,0x3a,0x55,0x00,0x3e,
0x5b,0x0b,0x3d,0x00,0x05,0x3a,0x00,0x03,0x3e,0x00,0x0b,0x3d,0x5a,0x00,0x3a,0x5c,
0x12,0x3d,0x00,0x01,0x3a,0x00,0x29,0x3e,0x5d,0x00,0x3a,0x62,0x00,0x3d,0x6e,0x0b,
0x3d,0x00,0x04,0x3a,0x00,0x01,0x3e,0x00,0x0e,0x3d,0x61,0x00,0x3e,0x53,0x00,0x3a,
0x4e,0x0b,0x3d,0x00,0x04,0x3a,0x00,0x02,0x3e,0x00,0x0d,0x3a,0x50,0x00,0x3d,0x5e,
0x15,0x3d,0x00,0x02,0x3a,0x00,0x81,0x1d,0x3d,0x67,0x00,0x3c,0x63,0x00,0x40,0x6a,
0x08,0x3d,0x00,0x05,0x3c,0x00,0x05,0x40,0x00,0x0c,0x3d,0x5c,0x00,0x3c,0x52,0x00,
0x40,0x51,0x0b,0x3d,0x00,0x02,0x3c,0x00,0x03,0x40,0x00,0x0e,0x3d,0x58,0x00,0x3c,
0x55,0x12,0x3d,0x00,0x03,0x3c,0x00,0x27,0x3c,0x5f,0x00,0x3d,0x69,0x00,0x40,0x63,
0x0e,0x3d,0x00,0x00,0x3c,0x00,0x04,0x40,0x00,0x0c,0x40,0x4e,0x00,0x3c,0x4f,0x00,
0x3d,0x5a,0x0d,0x3d,0x00,0x00,0x40,0x00,0x02,0x3c,0x00,0x0f,0x3c,0x56,0x00,0x3d,
0x5a,0x12,0x3d,0x00,0x04,0x3c,0x00,0x81,0x1e,0x3b,0x58,0x00,0x3f,0x69,0x00,0x3c,
0x5c,0x10,0x3f,0x00,0x01,0x3c,0x00,0x00,0x3b,0x00,0x0d,0x3c,0x59,0x00,0x3b,0x5a,
0x00,0x3f,0x66,0x0f,0x3f,0x00,0x01,0x3b,0x00,0x01,0x3c,0x00,0x0d,0x3c,0x59,0x00,
0x3b,0x5a,0x10,0x3c,0x00,0x02,0x3b,0x00,0x2a,0x3c,0x5c,0x00,0x3b,0x5e,0x00,0x3f,
0x6f,0x0d,0x3c,0x00,0x03,0x3b,0x00,0x01,0x3f,0x00,0x0d,0x3c,0x4f,0x00,0x3b,0x52,
0x00,0x3f,0x62,0x0d,0x3f,0x00,0x00,0x3c,0x00,0x04,0x3b,0x00,0x0d,0x3c,0x50,0x00,
0x3b,0x5d,0x10,0x3c,0x00,0x07,0x3b,0x00,0x81,0x1d,0x3b,0x60,0x00,0x3a,0x6c,0x00,
0x3e,0x6c,0x0b,0x3a,0x00,0x02,0x3b,0x00,0x03,0x3e,0x00,0x0e,0x3b,0x64,0x00,0x3e,
0x5a,0x00,0x3a,0x62,0x09,0x3b,0x00,0x02,0x3a,0x00,0x01,0x3e,0x00,0x12,0x3b,0x61,
0x00,0x3a,0x58,0x10,0x3a,0x00,0x00,0x3b,0x00,0x2c,0x3e,0x66,0x00,0x3b,0x68,0x00,
0x3a,0x6c,0x0b,0x3b,0x00,0x03,0x3a,0x00,0x02,0x3e,0x00,0x0e,0x3e,0x57,0x00,0x3b,
0x59,0x00,0x3a,0x67,0x0b,0x3b,0x00,0x03,0x3a,0x00,0x00,0x3e,0x00,0x10,0x3b,0x5e,
0x00,0x3a,0x5e,0x13,0x3b,0x00,0x02,0x3a,0x00,0x81,0x1c,0x3c,0x6e,0x12,0x3c,0x00,
0x0d,0x3c,0x61,0x0f,0x3c,0x00,0x0d,0x3c,0x64,0x11,0x3c,0x00,0x2f,0x3c,0x6f,0x0f,
0x3c,0x00,0x0f,0x3c,0x63,0x0f,0x3c,0x00,0x0d,0x3c,0x67,0x11,0x3c,0x00,0x81,0x25,
0x3c,0x71,0x10,0x3c,0x00,0x0e,0x3c,0x63,0x0e,0x3c,0x00,0x10,0x3c,0x4c,0x13,0x3c,
0x00,0x29,0x3c,0x6f,0x0f,0x3c,0x00,0x0f,0x3c,0x5f,0x0e,0x3c,0x00,0x10,0x3c,0x5a,
0x14,0x3c,0x00,0x81,0x20,0x3d,0x6f,0x0d,0x3d,0x00,0x11,0x3d,0x54,0x0d,0x3d,0x00,
0x11,0x3d,0x61,0x0f,0x3d,0x00,0x2d,0x3d,0x6f,0x0c,0x3d,0x00,0x12,0x3d,0x58,0x0e,
0x3d,0x00,0x10,0x3d,0x65,0x0e,0x3d,0x00,0x81,0x26,0x3d,0x72,0x0f,0x3d,0x00,0x0f,
0x3d,0x62,0x0f,0x3d,0x00,0x0f,0x3d,0x63,0x10,0x3d,0x00,0x2c,0x3c,0x70,0x0d,0x3c,
0x00,0x11,0x3c,0x64,0x10,0x3c,0x00,0x0e,0x3c,0x65,0x10,0x3c,0x00,0x81,0x29,0x3c,
0x69,0x12,0x3c,0x00,0x0e,0x3c,0x57,0x0f,0x3c,0x00,0x0b,0x3c,0x56,0x13,0x3c,0x00,
0x2d,0x3c,0x6c,0x0e,0x3c,0x00,0x0c,0x3c,0x64,0x12,0x3c,0x00,0x0c,0x3c,0x66,0x13,
0x3c,0x00,0x81,0x22,0x3b,0x69,0x0f,0x3b,0x00,0x0f,0x3b,0x59,0x10,0x3b,0x00,0x0e,
0x3b,0x57,0x12,0x3b,0x00,0x2b,0x3b,0x72,0x0f,0x3b,0x00,0x12,0x3b,0x64,0x0d,0x3b,
0x00,0x0e,0x3b,0x57,0x11,0x3b,0x00,0x81,0x1e,0x3c,0x6d,0x0e,0x3c,0x00,0x10,0x3c,
0x54,0x0f,0x3c,0x00,0x0f,0x3c,0x64,0x11,0x3c,0x00,0x2b,0x3c,0x6f,0x0e,0x3c,0x00,
0x10,0x3c,0x67,0x0f,0x3c,0x00,0x0f,0x3c,0x5e,0x14,0x3c,0x00,0x81,0x20,0x3b,0x72,
0x10,0x3b,0x00,0x0e,0x3b,0x63,0x0f,0x3b,0x00,0x0f,0x3b,0x53,0x13,0x3b,0x00,0x29,
0x3b,0x6c,0x10,0x3b,0x00,0x0e,0x3b,0x66,0x0f,0x3b,0x00,0x0f,0x3b,0x6c,0x13,0x3b,
0x00,0xb0,0x11,0x2b,0x50,0x82,0x5c,0x2b,0x00,0x0c,0x32,0x47,0x82,0x60,0x32,0x00,
0x08,0x30,0x59,0x33,0x30,0x00,0x09,0x2e,0x47,0x1d,0x2e,0x00,0x01,0x2d,0x3f,0x1e,
0x37,0x4a,0x12,0x2d,0x00,0x81,0x55,0x37,0x00,0x09,0x32,0x55,0x82,0x5c,0x32,0x00,
0x0f,0x30,0x56,0x2a,0x2e,0x58,0x01,0x30,0x00,0x21,0x2e,0x00,0x04,0x2d,0x44,0x1f,
0x2d,0x00,0x06,0x37,0x54,0x81,0x64,0x37,0x00,0x0e,0x32,0x55,0x82,0x66,0x32,0x00,
0x04,0x30,0x53,0x82,0x46,0x30,0x00,0xa2,0x77,0x32,0x54,0x00,0x35,0x55,0x00,0x3a,
0x5c,0x81,0x2a,0x3a,0x00,0x09,0x35,0x00,0x02,0x32,0x00,0x32,0x33,0x63,0x00,0x3a,
0x5b,0x01,0x37,0x5c,0x19,0x3a,0x00,0x04,0x37,0x00,0x0a,0x33,0x00,0x55,0x35,0x54,
0x01,0x3a,0x5a,0x02,0x32,0x56,0x2a,0x3a,0x00,0x05,0x32,0x00,0x06,0x35,0x00,0x3d,
0x35,0x56,0x00,0x3a,0x5c,0x01,0x32,0x57,0x81,0x39,0x35,0x00,0x0f,0x32,0x00,0x09,
0x3a,0x00,0x23,0x33,0x6b,0x03,0x37,0x5d,0x00,0x3a,0x63,0x23,0x33,0x00,0x06,0x37,
0x00,0x01,0x3a,0x00,0x49,0x35,0x5d,0x01,0x3a,0x60,0x02,0x30,0x55,0x1c,0x3a,0x00,
0x02,0x30,0x00,0x05,0x35,0x00,0x58,0x3a,0x65,0x00,0x35,0x5b,0x01,0x30,0x5a,0x81,
0x2f,0x3a,0x00,0x07,0x30,0x00,0x08,0x35,0x00,0x29,0x33,0x69,0x02,0x3a,0x65,0x01,
0x30,0x55,0x25,0x3a,0x00,0x01,0x30,0x00,0x04,0x33,0x00,0x5a,0x30,0x50,0x01,0x3a,
0x5d,0x00,0x35,0x58,0x2a,0x30,0x00,0x01,0x3a,0x00,0x05,0x35,0x00,0x45,0x35,0x5a,
0x00,0x3a,0x5e,0x02,0x30,0x59,0x81,0x40,0x30,0x00,0x0a,0x3a,0x00,0x02,0x35,0x00,
0x18,0x30,0x60,0x02,0x33,0x6e,0x2c,0x30,0x00,0x0b,0x33,0x00,0x82,0x36,0x30,0x67,
0x83,0x14,0x30,0x00,0x49,0x32,0x68,0x83,0x1b,0x32,0x00,0x4f,0x33,0x64,0x83,0x1e,
0x33,0x00,0x3c,0x35,0x66,0x83,0x1f,0x35,0x00,0x3b,0x37,0x61,0x83,0x51,0x37,0x00,
0x0f,0x39,0x5c,0x56,0x39,0x00,0x22,0x3a,0x5a,0x44,0x3a,0x00,0x31,0x38,0x57,0x05,
0x3c,0x5b,0x83,0x4a,0x3c,0x00,0x0b,0x38,0x00,0x09,0x35,0x4e,0x00,0x30,0x58,0x83,
0x61,0x30,0x00,0x07,0x35,0x00,0xd3,0x21,0x3d,0x50,0x00,0x43,0x4c,0x3d,0x43,0x00,
0x01,0x3d,0x00,0x3a,0x3d,0x55,0x01,0x43,0x4b,0x3a,0x43,0x00,0x01,0x3d,0x00,0x42,
0x43,0x46,0x00,0x3d,0x54,0x38,0x3d,0x00,0x00,0x43,0x00,0x43,0x3d,0x56,0x01,0x43,
0x4a,0x38,0x43,0x00,0x02,0x3d,0x00,0x3d,0x43,0x4d,0x01,0x3d,0x57,0x38,0x3d,0x00,
0x01,0x43,0x00,0x40,0x43,0x4c,0x00,0x3d,0x56,0x2d,0x43,0x00,0x01,0x3d,0x00,0x2f,
0x3d,0x5b,0x00,0x43,0x4c,0x24,0x43,0x00,0x04,0x3d,0x00,0x27,0x3d,0x5f,0x00,0x43,
0x4f,0x26,0x43,0x00,0x02,0x3d,0x00,0x81,0x12,0x3d,0x5a,0x40,0x3d,0x00,0x7d,0x3d,
0x5f,0x2b,0x3d,0x00,0x45,0x3d,0x5e,0x25,0x3d,0x00,0x81,0x10,0x3d,0x5c,0x21,0x3d,
0x00,0x23,0x3d,0x5a,0x28,0x3d,0x00,0x53,0x3d,0x5e,0x2e,0x3d,0x00,0x4a,0x3d,0x5b,
0x24,0x3d,0x00,0x00,0xff,0x2f,0x00,0x4d,0x54,0x72,0x6b,0x00,0x00,0x06,0xde,0x00,
0xff,0x21,0x01,0x00,0x00,0xff,0x03,0x09,0x54,0x49,0x4d,0x50,0x41,0x4e,0x49,0x20,
0x20,0x00,0xc4,0x2f,0x00,0xb4,0x07,0x69,0x82,0x68,0x94,0x2f,0x69,0x14,0x2f,0x00,
0x43,0x2f,0x3d,0x18,0x2f,0x00,0x08,0x2f,0x71,0x15,0x2f,0x00,0x41,0x2f,0x45,0x14,
0x2f,0x00,0x0b,0x2f,0x6c,0x13,0x2f,0x00,0x0b,0x2f,0x4f,0x14,0x2f,0x00,0x0a,0x2f,
0x66,0x10,0x2f,0x00,0x0e,0x2f,0x4c,0x17,0x2f,0x00,0x06,0x2f,0x6d,0x15,0x2f,0x00,
0x44,0x2f,0x4a,0x17,0x2f,0x00,0x08,0x2f,0x72,0x16,0x2f,0x00,0x44,0x2f,0x50,0x15,
0x2f,0x00,0x09,0x2f,0x6f,0x14,0x2f,0x00,0x0d,0x2f,0x4a,0x15,0x2f,0x00,0x08,0x2f,
0x6a,0x0f,0x2f,0x00,0x0d,0x2f,0x4a,0x16,0x2f,0x00,0x0a,0x2f,0x6e,0x15,0x2f,0x00,
0x4a,0x2f,0x4f,0x15,0x2f,0x00,0x07,0x2f,0x75,0x16,0x2f,0x00,0x45,0x2f,0x4b,0x16,
0x2f,0x00,0x0a,0x2f,0x72,0x15,0x2f,0x00,0x0b,0x2f,0x51,0x11,0x2f,0x00,0x09,0x2f,
0x6f,0x14,0x2f,0x00,0x09,0x2f,0x51,0x13,0x2f,0x00,0x09,0x2f,0x71,0x18,0x2f,0x00,
0x44,0x2f,0x58,0x17,0x2f,0x00,0x07,0x2f,0x75,0x16,0x2f,0x00,0x41,0x2f,0x54,0x14,
0x2f,0x00,0x0b,0x2f,0x71,0x14,0x2f,0x00,0x0a,0x2f,0x53,0x17,0x2f,0x00,0x06,0x2f,
0x66,0x0f,0x2f,0x00,0x0a,0x2f,0x56,0x19,0x2f,0x00,0x08,0x2f,0x73,0x17,0x2f,0x00,
0x42,0x2f,0x53,0x17,0x2f,0x00,0x09,0x2f,0x73,0x17,0x2f,0x00,0x40,0x2f,0x4e,0x16,
0x2f,0x00,0x0d,0x2f,0x71,0x15,0x2f,0x00,0x0b,0x2f,0x51,0x0b,0x2f,0x00,0x0d,0x2f,
0x6e,0x14,0x2f,0x00,0x0b,0x2f,0x4e,0x14,0x2f,0x00,0x08,0x2f,0x75,0x19,0x2f,0x00,
0x45,0x2f,0x53,0x19,0x2f,0x00,0x06,0x2f,0x77,0x17,0x2f,0x00,0x42,0x2f,0x4b,0x14,
0x2f,0x00,0x0b,0x2f,0x72,0x16,0x2f,0x00,0x0a,0x2f,0x58,0x14,0x2f,0x00,0x07,0x2f,
0x73,0x10,0x2f,0x00,0x0c,0x2f,0x58,0x1b,0x2f,0x00,0x05,0x2f,0x72,0x17,0x2f,0x00,
0x4b,0x2f,0x53,0x15,0x2f,0x00,0x06,0x2f,0x73,0x16,0x2f,0x00,0x45,0x2f,0x59,0x17,
0x2f,0x00,0x09,0x2f,0x77,0x14,0x2f,0x00,0x0b,0x2f,0x5b,0x12,0x2f,0x00,0x08,0x2f,
0x72,0x13,0x2f,0x00,0x09,0x2f,0x67,0x19,0x2f,0x00,0x08,0x2f,0x5f,0x11,0x2f,0x00,
0x0a,0x2f,0x55,0x14,0x2f,0x00,0x0a,0x2f,0x5e,0x13,0x2f,0x00,0x09,0x2f,0x56,0x13,
0x2f,0x00,0x0f,0x2a,0x62,0x11,0x2a,0x00,0x0b,0x2a,0x5b,0x12,0x2a,0x00,0x0a,0x2a,
0x67,0x10,0x2a,0x00,0x0c,0x2a,0x5e,0x15,0x2a,0x00,0x0f,0x31,0x65,0x24,0x31,0x00,
0x38,0x31,0x50,0x0f,0x31,0x00,0x10,0x31,0x6c,0x1e,0x31,0x00,0x37,0x31,0x51,0x10,
0x31,0x00,0x10,0x31,0x67,0x14,0x31,0x00,0x0c,0x31,0x51,0x06,0x31,0x00,0x12,0x31,
0x64,0x10,0x31,0x00,0x0b,0x31,0x59,0x14,0x31,0x00,0x0b,0x31,0x6c,0x1c,0x31,0x00,
0x44,0x31,0x57,0x0a,0x31,0x00,0x14,0x31,0x68,0x16,0x31,0x00,0x45,0x31,0x50,0x11,
0x31,0x00,0x0d,0x31,0x67,0x12,0x31,0x00,0x0e,0x31,0x4f,0x11,0x31,0x00,0x0d,0x31,
0x62,0x09,0x31,0x00,0x0d,0x31,0x54,0x19,0x31,0x00,0x0a,0x31,0x6c,0x15,0x31,0x00,
0x40,0x31,0x54,0x13,0x31,0x00,0x0e,0x31,0x67,0x12,0x31,0x00,0x48,0x31,0x4b,0x0d,
0x31,0x00,0x13,0x31,0x67,0x10,0x31,0x00,0x0f,0x31,0x4b,0x0f,0x31,0x00,0x0b,0x31,
0x64,0x0d,0x31,0x00,0x0b,0x31,0x50,0x15,0x31,0x00,0x0d,0x31,0x6b,0x1a,0x31,0x00,
0x43,0x31,0x49,0x13,0x31,0x00,0x0e,0x31,0x63,0x1e,0x31,0x00,0x35,0x31,0x4d,0x15,
0x31,0x00,0x0f,0x31,0x65,0x14,0x31,0x00,0x0d,0x31,0x4e,0x08,0x31,0x00,0x0f,0x31,
0x65,0x10,0x31,0x00,0x0d,0x31,0x4f,0x15,0x31,0x00,0x09,0x31,0x6d,0x24,0x31,0x00,
0x37,0x31,0x52,0x14,0x31,0x00,0x0e,0x31,0x63,0x1c,0x31,0x00,0x35,0x31,0x52,0x14,
0x31,0x00,0x0c,0x31,0x65,0x13,0x31,0x00,0x0c,0x31,0x58,0x11,0x31,0x00,0x0a,0x31,
0x6b,0x10,0x31,0x00,0x0d,0x31,0x59,0x13,0x31,0x00,0x0c,0x31,0x68,0x19,0x31,0x00,
0x40,0x31,0x4f,0x18,0x31,0x00,0x09,0x31,0x6b,0x1b,0x31,0x00,0x3c,0x31,0x50,0x14,
0x31,0x00,0x0f,0x31,0x68,0x0f,0x31,0x00,0x0b,0x31,0x51,0x12,0x31,0x00,0x0b,0x31,
0x6b,0x11,0x31,0x00,0x0b,0x31,0x57,0x10,0x31,0x00,0x10,0x31,0x65,0x1c,0x31,0x00,
0x3c,0x31,0x52,0x0f,0x31,0x00,0x0c,0x31,0x6e,0x16,0x31,0x00,0x46,0x31,0x58,0x13,
0x31,0x00,0x0e,0x31,0x67,0x12,0x31,0x00,0x0c,0x31,0x5b,0x12,0x31,0x00,0x0c,0x31,
0x63,0x13,0x31,0x00,0x0f,0x31,0x64,0x0e,0x31,0x00,0x8e,0x67,0x30,0x58,0x07,0x30,
0x00,0x0f,0x30,0x62,0x0f,0x30,0x00,0x05,0x30,0x75,0x0e,0x30,0x00,0x81,0x6d,0x2b,
0x47,0x08,0x2b,0x00,0x13,0x2b,0x3b,0x0d,0x2b,0x00,0x0f,0x2b,0x5f,0x0a,0x2b,0x00,
0x0e,0x2b,0x42,0x08,0x2b,0x00,0x0d,0x2b,0x5d,0x0b,0x2b,0x00,0x0d,0x2b,0x42,0x0a,
0x2b,0x00,0x0d,0x2b,0x62,0x09,0x2b,0x00,0x10,0x2b,0x46,0x08,0x2b,0x00,0x0b,0x2b,
0x66,0x0c,0x2b,0x00,0x0c,0x2b,0x4e,0x0a,0x2b,0x00,0x0a,0x2b,0x6c,0x0d,0x2b,0x00,
0x0b,0x2b,0x56,0x0b,0x2b,0x00,0x0a,0x2b,0x5f,0x07,0x2b,0x00,0x08,0x2b,0x59,0x0e,
0x2b,0x00,0x06,0x2b,0x69,0x0d,0x2b,0x00,0x09,0x2b,0x6c,0x0f,0x2b,0x00,0x09,0x2b,
0x73,0x0f,0x2b,0x00,0x0d,0x2b,0x64,0x0c,0x2b,0x00,0x0e,0x2b,0x6e,0x0b,0x2b,0x00,
0x0c,0x2b,0x6e,0x0d,0x2b,0x00,0x09,0x2b,0x73,0x0a,0x2b,0x00,0x95,0x48,0x2d,0x54,
0x0d,0x2d,0x00,0x09,0x2d,0x66,0x14,0x2d,0x00,0x02,0x2d,0x57,0x11,0x2d,0x00,0x09,
0x2d,0x61,0x25,0x2d,0x00,0x03,0x2d,0x62,0x17,0x2d,0x00,0x93,0x26,0x2b,0x3f,0x0a,
0x2b,0x00,0x8e,0x25,0x27,0x73,0x16,0x27,0x00,0x83,0x40,0x2d,0x64,0x36,0x2d,0x00,
0x86,0x1c,0x2a,0x54,0x0b,0x2a,0x00,0x1d,0x2a,0x2c,0x0a,0x2a,0x00,0x1e,0x2a,0x50,
0x21,0x2a,0x00,0x0d,0x2a,0x78,0x1c,0x2a,0x00,0xee,0x3a,0x2a,0x61,0x17,0x2a,0x00,
0x24,0x28,0x60,0x29,0x28,0x00,0x82,0x02,0x2a,0x6c,0x15,0x2a,0x00,0x61,0x28,0x67,
0x23,0x28,0x00,0x82,0x3c,0x2a,0x69,0x19,0x2a,0x00,0x25,0x28,0x5f,0x26,0x28,0x00,
0x81,0x0d,0x2a,0x69,0x19,0x2a,0x00,0x5f,0x28,0x63,0x19,0x28,0x00,0x82,0x18,0x2d,
0x5d,0x19,0x2d,0x00,0x26,0x2a,0x68,0x14,0x2a,0x00,0x29,0x28,0x66,0x17,0x28,0x00,
0x81,0x15,0x2a,0x64,0x14,0x2a,0x00,0x64,0x28,0x61,0x18,0x28,0x00,0x81,0x20,0x2e,
0x63,0x15,0x2e,0x00,0x25,0x2d,0x61,0x15,0x2d,0x00,0xa1,0x48,0x29,0x59,0x0e,0x29,
0x00,0x0c,0x29,0x4c,0x0e,0x29,0x00,0x0c,0x29,0x4e,0x0b,0x29,0x00,0x0c,0x29,0x57,
0x0d,0x29,0x00,0x02,0x29,0x57,0x0c,0x29,0x00,0x12,0x29,0x5d,0x08,0x29,0x00,0x16,
0x29,0x63,0x1e,0x29,0x5e,0x02,0x29,0x00,0x00,0x29,0x00,0x1c,0x29,0x67,0x0f,0x29,
0x00,0x83,0x15,0x33,0x56,0x13,0x33,0x00,0x08,0x33,0x54,0x0a,0x33,0x00,0x38,0x2e,
0x6d,0x14,0x2e,0x00,0x82,0x6b,0x33,0x51,0x0a,0x33,0x00,0x11,0x33,0x61,0x0f,0x33,
0x00,0x3b,0x2b,0x6a,0x17,0x2b,0x00,0x82,0x68,0x35,0x5b,0x14,0x35,0x00,0x0b,0x35,
0x5f,0x0d,0x35,0x00,0x36,0x2b,0x6d,0x16,0x2b,0x00,0x82,0x5e,0x35,0x5c,0x16,0x35,
0x00,0x0a,0x35,0x6c,0x15,0x35,0x00,0x2b,0x2b,0x5e,0x4d,0x2b,0x00,0x2e,0x2b,0x5c,
0x42,0x2b,0x00,0x32,0x2b,0x60,0x3c,0x2b,0x00,0x3d,0x2b,0x61,0x40,0x2b,0x00,0x39,
0x2b,0x5a,0x3f,0x2b,0x00,0x3e,0x2b,0x5b,0x3b,0x2b,0x00,0x38,0x2b,0x5e,0x3c,0x2b,
0x00,0x3f,0x2b,0x5e,0x3b,0x2b,0x00,0x3f,0x2b,0x5e,0x38,0x2b,0x00,0x3c,0x2b,0x5d,
0x3f,0x2b,0x00,0x45,0x2b,0x60,0x32,0x2b,0x00,0x3f,0x2b,0x5f,0x37,0x2b,0x00,0x49,
0x2b,0x5f,0x2e,0x2b,0x00,0x46,0x2b,0x5e,0x37,0x2b,0x00,0x3f,0x2b,0x61,0x42,0x2b,
0x00,0x3a,0x2b,0x60,0x41,0x2b,0x00,0x38,0x2b,0x60,0x36,0x2b,0x00,0x39,0x2b,0x5e,
0x46,0x2b,0x00,0x36,0x2d,0x5f,0x42,0x2d,0x00,0x38,0x2d,0x5e,0x42,0x2d,0x00,0x37,
0x2d,0x64,0x44,0x2d,0x00,0x37,0x2d,0x5d,0x44,0x2d,0x00,0x2f,0x2b,0x63,0x47,0x2b,
0x00,0x32,0x2b,0x60,0x45,0x2b,0x00,0x33,0x2b,0x61,0x3d,0x2b,0x00,0x36,0x2b,0x63,
0x41,0x2b,0x00,0x35,0x2b,0x62,0x3d,0x2b,0x00,0x3b,0x2b,0x61,0x3d,0x2b,0x00,0x38,
0x2b,0x66,0x42,0x2b,0x00,0x36,0x2b,0x63,0x41,0x2b,0x00,0x35,0x2b,0x66,0x3c,0x2b,
0x00,0x3f,0x2b,0x69,0x2e,0x2b,0x00,0x82,0x07,0x32,0x4e,0x08,0x32,0x00,0x11,0x32,
0x5b,0x12,0x32,0x00,0x83,0x2e,0x32,0x57,0x0a,0x32,0x00,0x0d,0x32,0x5c,0x15,0x32,
0x00,0x87,0x1a,0x32,0x61,0x0a,0x32,0x00,0x0b,0x32,0x64,0x0f,0x32,0x00,0x04,0x32,
0x6c,0x0e,0x32,0x00,0x95,0x47,0x2a,0x61,0x20,0x2a,0x00,0x59,0x2a,0x66,0x20,0x2a,
0x00,0x58,0x2a,0x63,0x1f,0x2a,0x00,0x5b,0x2a,0x65,0x23,0x2a,0x00,0x53,0x2a,0x64,
0x20,0x2a,0x00,0x56,0x2a,0x64,0x25,0x2a,0x00,0x52,0x2a,0x63,0x24,0x2a,0x00,0x53,
0x2a,0x65,0x24,0x2a,0x00,0x55,0x2a,0x65,0x22,0x2a,0x00,0x54,0x2a,0x64,0x25,0x2a,
0x00,0x55,0x2a,0x64,0x20,0x2a,0x00,0x59,0x2a,0x66,0x23,0x2a,0x00,0x58,0x2a,0x62,
0x21,0x2a,0x00,0x54,0x2a,0x67,0x22,0x2a,0x00,0x57,0x2a,0x66,0x23,0x2a,0x00,0x4f,
0x2a,0x69,0x23,0x2a,0x00,0x56,0x2a,0x65,0x23,0x2a,0x00,0x54,0x2a,0x63,0x20,0x2a,
0x00,0x57,0x2a,0x65,0x20,0x2a,0x00,0x57,0x2a,0x68,0x22,0x2a,0x00,0x5f,0x2a,0x64,
0x25,0x2a,0x00,0x53,0x2a,0x65,0x23,0x2a,0x00,0x55,0x2a,0x65,0x23,0x2a,0x00,0x55,
0x2a,0x6d,0x21,0x2a,0x00,0x4e,0x2a,0x74,0x1a,0x2a,0x00,0x64,0x2a,0x66,0x2e,0x2a,
0x00,0x47,0x2a,0x69,0x28,0x2a,0x00,0x54,0x27,0x65,0x28,0x27,0x00,0x54,0x27,0x65,
0x31,0x27,0x00,0x44,0x27,0x65,0x36,0x27,0x00,0x39,0x27,0x68,0x2b,0x27,0x00,0x4f,
0x27,0x63,0x2d,0x27,0x00,0x4b,0x27,0x63,0x33,0x27,0x00,0x48,0x27,0x68,0x33,0x27,
0x00,0x45,0x27,0x65,0x2e,0x27,0x00,0x48,0x27,0x69,0x31,0x27,0x00,0x4b,0x27,0x64,
0x32,0x27,0x00,0x47,0x27,0x64,0x29,0x27,0x00,0x53,0x27,0x62,0x21,0x27,0x00,0x59,
0x27,0x64,0x25,0x27,0x00,0x54,0x27,0x5e,0x2b,0x27,0x00,0x4f,0x27,0x63,0x1f,0x27,
0x00,0x53,0x27,0x62,0x20,0x27,0x00,0x4e,0x27,0x62,0x26,0x27,0x00,0x60,0x27,0x67,
0x2b,0x27,0x00,0x50,0x27,0x68,0x24,0x27,0x00,0x53,0x27,0x63,0x1e,0x27,0x00,0x2d,
0x27,0x62,0x06,0x27,0x00,0x0e,0x27,0x65,0x14,0x27,0x00,0x06,0x27,0x58,0x16,0x27,
0x00,0x56,0x27,0x66,0x1a,0x27,0x00,0x62,0x27,0x69,0x19,0x27,0x00,0x57,0x27,0x75,
0x19,0x27,0x00,0x5b,0x2b,0x75,0x14,0x2b,0x00,0x00,0xff,0x2f,0x00,0x4d,0x54,0x72,
0x6b,0x00,0x00,0x02,0xef,0x00,0xff,0x21,0x01,0x00,0x00,0xff,0x03,0x09,0x50,0x45,
0x52,0x43,0x55,0x53,0x53,0x49,0x4f,0x00,0xc9,0x00,0x00,0xb9,0x07,0x41,0x82,0x68,
0x99,0x26,0x5e,0x0d,0x26,0x00,0x4b,0x26,0x48,0x0d,0x26,0x00,0x15,0x26,0x60,0x12,
0x26,0x00,0x47,0x26,0x42,0x0d,0x26,0x00,0x13,0x26,0x66,0x0f,0x26,0x00,0x0d,0x26,
0x4f,0x12,0x26,0x00,0x0b,0x26,0x5f,0x0a,0x26,0x00,0x12,0x26,0x40,0x13,0x26,0x00,
0x0e,0x26,0x66,0x13,0x26,0x00,0x46,0x26,0x56,0x12,0x26,0x00,0x0f,0x26,0x66,0x10,
0x26,0x00,0x4d,0x26,0x45,0x0e,0x26,0x00,0x14,0x26,0x67,0x0f,0x26,0x00,0x0c,0x26,
0x4f,0x12,0x26,0x00,0x0b,0x26,0x69,0x10,0x26,0x00,0x0d,0x26,0x50,0x15,0x26,0x00,
0x0a,0x26,0x6d,0x13,0x26,0x00,0x45,0x26,0x55,0x12,0x26,0x00,0x0f,0x26,0x6a,0x12,
0x26,0x00,0x49,0x26,0x4a,0x12,0x26,0x00,0x0d,0x26,0x72,0x0f,0x26,0x00,0x10,0x26,
0x50,0x11,0x26,0x00,0x09,0x26,0x6f,0x0e,0x26,0x00,0x0d,0x26,0x56,0x16,0x26,0x00,
0x0b,0x26,0x6f,0x11,0x26,0x00,0x4d,0x26,0x52,0x12,0x26,0x00,0x09,0x26,0x75,0x12,
0x26,0x00,0x49,0x26,0x4f,0x13,0x26,0x00,0x09,0x26,0x73,0x13,0x26,0x00,0x0f,0x26,
0x49,0x12,0x26,0x00,0x07,0x26,0x6c,0x0e,0x26,0x00,0x0e,0x26,0x55,0x15,0x26,0x00,
0x0b,0x26,0x6e,0x14,0x26,0x00,0x4a,0x26,0x57,0x11,0x26,0x00,0x09,0x26,0x72,0x0f,
0x26,0x00,0x47,0x26,0x53,0x13,0x26,0x00,0x0a,0x26,0x72,0x12,0x26,0x00,0x11,0x26,
0x4c,0x12,0x26,0x00,0x07,0x26,0x6c,0x0f,0x26,0x00,0x0d,0x26,0x4f,0x12,0x26,0x00,
0x0c,0x26,0x6f,0x15,0x26,0x00,0x44,0x26,0x57,0x13,0x26,0x00,0x0a,0x26,0x71,0x14,
0x26,0x00,0x46,0x26,0x53,0x13,0x26,0x00,0x0d,0x26,0x6c,0x12,0x26,0x00,0x0c,0x26,
0x54,0x14,0x26,0x00,0x09,0x26,0x6f,0x10,0x26,0x00,0x0d,0x26,0x5a,0x16,0x26,0x00,
0x08,0x26,0x71,0x17,0x26,0x00,0x48,0x26,0x5f,0x14,0x26,0x00,0x0a,0x26,0x71,0x16,
0x26,0x00,0x44,0x26,0x54,0x14,0x26,0x00,0x0b,0x26,0x6e,0x12,0x26,0x00,0x0b,0x26,
0x5b,0x14,0x26,0x00,0x0c,0x26,0x6d,0x0f,0x26,0x00,0x0c,0x26,0x61,0x12,0x26,0x00,
0x12,0x26,0x61,0x0f,0x26,0x00,0x0e,0x26,0x42,0x11,0x26,0x00,0x0b,0x26,0x60,0x13,
0x26,0x00,0x0c,0x26,0x52,0x12,0x26,0x00,0x0b,0x26,0x68,0x12,0x26,0x00,0x0f,0x26,
0x4a,0x12,0x26,0x00,0x09,0x26,0x6e,0x11,0x26,0x00,0x0c,0x26,0x57,0x15,0x26,0x00,
0x0b,0x26,0x6e,0x19,0x26,0x00,0x43,0x26,0x52,0x12,0x26,0x00,0x0c,0x26,0x6a,0x13,
0x26,0x00,0x46,0x26,0x4b,0x12,0x26,0x00,0x0e,0x26,0x67,0x11,0x26,0x00,0x0e,0x26,
0x48,0x12,0x26,0x00,0x09,0x26,0x68,0x11,0x26,0x00,0x0c,0x26,0x4e,0x14,0x26,0x00,
0x0c,0x26,0x68,0x17,0x26,0x00,0x43,0x26,0x5b,0x12,0x26,0x00,0x0e,0x26,0x68,0x15,
0x26,0x00,0x47,0x26,0x4c,0x13,0x26,0x00,0x0b,0x26,0x6c,0x13,0x26,0x00,0x0b,0x26,
0x4f,0x14,0x26,0x00,0x07,0x26,0x63,0x0f,0x26,0x00,0x0b,0x26,0x55,0x15,0x26,0x00,
0x09,0x26,0x6e,0x15,0x26,0x00,0x49,0x26,0x4f,0x14,0x26,0x00,0x09,0x26,0x6d,0x13,
0x26,0x00,0x47,0x26,0x50,0x12,0x26,0x00,0x09,0x26,0x6e,0x10,0x26,0x00,0x0b,0x26,
0x51,0x14,0x26,0x00,0x08,0x26,0x69,0x12,0x26,0x00,0x0d,0x26,0x4b,0x11,0x26,0x00,
0x0c,0x26,0x67,0x1c,0x26,0x00,0x40,0x26,0x4b,0x13,0x26,0x00,0x0b,0x26,0x6c,0x15,
0x26,0x00,0x48,0x26,0x4f,0x12,0x26,0x00,0x0c,0x26,0x69,0x14,0x26,0x00,0x0c,0x26,
0x59,0x0d,0x26,0x00,0x0e,0x26,0x66,0x10,0x26,0x00,0x0c,0x26,0x4d,0x0b,0x26,0x00,
0x15,0x26,0x6a,0x17,0x26,0x00,0x40,0x26,0x4f,0x15,0x26,0x00,0x0c,0x26,0x6c,0x19,
0x26,0x00,0x3f,0x26,0x57,0x13,0x26,0x00,0x0e,0x26,0x6c,0x11,0x26,0x00,0x0d,0x26,
0x52,0x13,0x26,0x00,0x08,0x26,0x6c,0x10,0x26,0x00,0x0b,0x26,0x53,0x17,0x26,0x00,
0x07,0x26,0x6d,0x16,0x26,0x00,0x45,0x26,0x51,0x17,0x26,0x00,0x0b,0x26,0x6e,0x15,
0x26,0x00,0x3f,0x26,0x4d,0x13,0x26,0x00,0x0c,0x26,0x6d,0x10,0x26,0x00,0x0c,0x26,
0x53,0x13,0x26,0x00,0x08,0x26,0x6d,0x11,0x26,0x00,0x0b,0x26,0x57,0x13,0x26,0x00,
0x0a,0x26,0x6c,0x17,0x26,0x00,0x46,0x26,0x48,0x17,0x26,0x00,0x05,0x26,0x6c,0x15,
0x26,0x00,0x41,0x26,0x4f,0x14,0x26,0x00,0x0b,0x26,0x6a,0x13,0x26,0x00,0x0d,0x26,
0x4d,0x13,0x26,0x00,0x0b,0x26,0x6c,0x11,0x26,0x00,0x0e,0x26,0x5e,0x14,0x26,0x00,
0x00,0xff,0x2f,0x00,0x4d,0x54,0x72,0x6b,0x00,0x00,0x19,0x34,0x00,0xff,0x21,0x01,
0x00,0x00,0xff,0x03,0x09,0x56,0x49,0x4f,0x4c,0x49,0x4e,0x20,0x31,0x20,0x00,0xc5,
0x30,0x00,0xb5,0x07,0x78,0x82,0x68,0x95,0x3b,0x30,0x20,0x3b,0x00,0x23,0x3b,0x2b,
0x1d,0x3b,0x00,0x0e,0x3b,0x42,0x29,0x3b,0x00,0x33,0x3b,0x30,0x15,0x3b,0x00,0x0e,
0x3b,0x46,0x16,0x3b,0x00,0x0f,0x3b,0x2c,0x0d,0x3b,0x00,0x0e,0x3b,0x47,0x0e,0x3b,
0x00,0x0d,0x3b,0x45,0x17,0x3b,0x00,0x0e,0x3b,0x4a,0x1a,0x3b,0x00,0x3e,0x3b,0x3c,
0x19,0x3b,0x00,0x0b,0x3b,0x4e,0x1c,0x3b,0x00,0x3d,0x3b,0x40,0x16,0x3b,0x00,0x0b,
0x3b,0x58,0x12,0x3b,0x00,0x0e,0x3b,0x48,0x0f,0x3b,0x00,0x09,0x3b,0x44,0x10,0x3b,
0x00,0x0d,0x3b,0x47,0x1c,0x3b,0x00,0x04,0x3b,0x40,0x1e,0x3b,0x00,0x3c,0x3b,0x47,
0x17,0x3b,0x00,0x0a,0x3b,0x52,0x1d,0x3b,0x00,0x3e,0x3b,0x41,0x13,0x3b,0x00,0x0a,
0x3b,0x56,0x15,0x3b,0x00,0x0b,0x3b,0x24,0x0c,0x3b,0x00,0x0d,0x3b,0x50,0x12,0x3b,
0x00,0x0b,0x3b,0x33,0x19,0x3b,0x00,0x05,0x3b,0x38,0x1e,0x3b,0x00,0x3c,0x3b,0x3f,
0x18,0x3b,0x00,0x0b,0x3b,0x4f,0x19,0x3b,0x00,0x3c,0x3b,0x3e,0x19,0x3b,0x00,0x0a,
0x3b,0x56,0x14,0x3b,0x00,0x0b,0x3b,0x34,0x0e,0x3b,0x00,0x0a,0x3b,0x49,0x10,0x3b,
0x00,0x0c,0x3b,0x35,0x16,0x3b,0x00,0x0a,0x3b,0x48,0x1d,0x3b,0x00,0x3d,0x3b,0x45,
0x16,0x3b,0x00,0x0b,0x3b,0x56,0x15,0x3b,0x00,0x44,0x3b,0x42,0x15,0x3b,0x00,0x0c,
0x37,0x57,0x12,0x37,0x00,0x0c,0x37,0x42,0x10,0x37,0x00,0x0b,0x37,0x52,0x0f,0x37,
0x00,0x0c,0x37,0x45,0x16,0x37,0x00,0x08,0x3b,0x51,0x17,0x3b,0x00,0x40,0x3b,0x44,
0x15,0x3b,0x00,0x0c,0x3b,0x4e,0x17,0x3b,0x00,0x38,0x3b,0x42,0x17,0x3b,0x00,0x0c,
0x37,0x56,0x14,0x37,0x00,0x0a,0x37,0x42,0x15,0x37,0x00,0x09,0x37,0x4b,0x0f,0x37,
0x00,0x0f,0x37,0x4d,0x16,0x37,0x00,0x0b,0x3b,0x50,0x19,0x3b,0x00,0x3e,0x3b,0x4d,
0x1a,0x3b,0x00,0x0b,0x3b,0x55,0x17,0x3b,0x00,0x3f,0x3b,0x4a,0x15,0x3b,0x00,0x0d,
0x37,0x55,0x12,0x37,0x00,0x0c,0x37,0x4c,0x16,0x37,0x00,0x09,0x37,0x62,0x12,0x37,
0x00,0x0a,0x37,0x57,0x12,0x37,0x00,0x13,0x3b,0x56,0x12,0x3b,0x00,0x0b,0x3b,0x41,
0x2e,0x3b,0x00,0x0c,0x3b,0x4c,0x17,0x3b,0x00,0x07,0x3e,0x61,0x14,0x3e,0x00,0x0e,
0x3e,0x4a,0x0c,0x3e,0x00,0x0c,0x3e,0x61,0x10,0x3e,0x00,0x0a,0x3e,0x3c,0x15,0x3e,
0x00,0x09,0x3d,0x5d,0x26,0x3d,0x00,0x29,0x3d,0x47,0x15,0x3d,0x00,0x0b,0x3d,0x66,
0x1c,0x3d,0x00,0x3f,0x3d,0x50,0x0d,0x3d,0x00,0x11,0x3d,0x5b,0x14,0x3d,0x00,0x0b,
0x3d,0x56,0x15,0x3d,0x00,0x08,0x3d,0x5a,0x11,0x3d,0x00,0x0b,0x3d,0x57,0x14,0x3d,
0x00,0x0c,0x3d,0x5d,0x1e,0x3d,0x00,0x43,0x3d,0x3f,0x13,0x3d,0x00,0x0b,0x3d,0x5e,
0x1e,0x3d,0x00,0x3b,0x3d,0x4b,0x0f,0x3d,0x00,0x0f,0x3d,0x54,0x13,0x3d,0x00,0x0c,
0x3d,0x4a,0x12,0x3d,0x00,0x0b,0x3d,0x5b,0x0d,0x3d,0x00,0x0b,0x3d,0x54,0x14,0x3d,
0x00,0x0b,0x3d,0x5e,0x21,0x3d,0x00,0x3f,0x3d,0x49,0x0e,0x3d,0x00,0x10,0x3d,0x5e,
0x1b,0x3d,0x00,0x3a,0x3d,0x48,0x10,0x3d,0x00,0x0d,0x3d,0x6b,0x14,0x3d,0x00,0x0d,
0x3d,0x4f,0x12,0x3d,0x00,0x0b,0x3d,0x55,0x0a,0x3d,0x00,0x11,0x3d,0x4b,0x14,0x3d,
0x00,0x0b,0x3d,0x5b,0x1c,0x3d,0x00,0x41,0x3d,0x53,0x15,0x3d,0x00,0x0c,0x3d,0x5d,
0x1f,0x3d,0x00,0x31,0x3d,0x4b,0x12,0x3d,0x00,0x16,0x39,0x4d,0x11,0x39,0x00,0x0d,
0x39,0x3d,0x12,0x39,0x00,0x07,0x39,0x5a,0x0f,0x39,0x00,0x0a,0x39,0x51,0x19,0x39,
0x00,0x07,0x3d,0x64,0x27,0x3d,0x00,0x3b,0x3d,0x54,0x14,0x3d,0x00,0x09,0x3d,0x61,
0x20,0x3d,0x00,0x31,0x3d,0x5f,0x11,0x3d,0x00,0x11,0x39,0x55,0x10,0x39,0x00,0x0c,
0x39,0x50,0x18,0x39,0x00,0x04,0x39,0x4c,0x12,0x39,0x00,0x09,0x39,0x51,0x15,0x39,
0x00,0x0b,0x3d,0x64,0x24,0x3d,0x00,0x39,0x3d,0x5d,0x17,0x3d,0x00,0x07,0x3d,0x6c,
0x13,0x3d,0x00,0x2e,0x3d,0x54,0x14,0x3d,0x00,0x28,0x39,0x5a,0x13,0x39,0x00,0x0b,
0x39,0x4a,0x17,0x39,0x00,0x07,0x39,0x49,0x12,0x39,0x00,0x0c,0x39,0x50,0x14,0x39,
0x00,0x0a,0x3d,0x63,0x2e,0x3d,0x00,0x28,0x3d,0x59,0x17,0x3d,0x00,0x08,0x3d,0x69,
0x19,0x3d,0x00,0x3d,0x3d,0x64,0x12,0x3d,0x00,0x0f,0x39,0x5c,0x13,0x39,0x00,0x0b,
0x39,0x4f,0x16,0x39,0x00,0x08,0x39,0x5e,0x10,0x39,0x00,0x0b,0x39,0x58,0x10,0x39,
0x00,0x15,0x3d,0x2c,0x1d,0x3d,0x00,0x01,0x3d,0x34,0x17,0x3d,0x00,0x07,0x3a,0x4d,
0x15,0x3a,0x00,0x09,0x38,0x3c,0x19,0x38,0x00,0x05,0x3d,0x49,0x19,0x3d,0x00,0x05,
0x3d,0x33,0x14,0x3d,0x00,0x0a,0x3a,0x44,0x15,0x3a,0x00,0x09,0x38,0x33,0x1d,0x38,
0x00,0x01,0x3d,0x4a,0x19,0x3d,0x00,0x05,0x3d,0x24,0x19,0x3d,0x00,0x05,0x3a,0x3b,
0x18,0x3a,0x00,0x06,0x38,0x37,0x19,0x38,0x00,0x05,0x42,0x40,0x18,0x42,0x00,0x06,
0x41,0x3f,0x1a,0x41,0x00,0x04,0x3f,0x4c,0x1d,0x3f,0x00,0x01,0x3d,0x52,0x0d,0x3d,
0x00,0x11,0x3d,0x56,0x19,0x3d,0x00,0x05,0x3d,0x45,0x19,0x3d,0x00,0x05,0x3a,0x44,
0x16,0x3a,0x00,0x08,0x38,0x3d,0x17,0x38,0x00,0x07,0x3d,0x4b,0x1a,0x3d,0x00,0x04,
0x3d,0x38,0x1d,0x3d,0x00,0x01,0x3a,0x3f,0x1a,0x3a,0x00,0x04,0x38,0x3b,0x15,0x38,
0x00,0x09,0x44,0x57,0x1d,0x44,0x00,0x01,0x42,0x44,0x1a,0x42,0x00,0x04,0x41,0x47,
0x1c,0x41,0x00,0x02,0x3f,0x50,0x17,0x3f,0x00,0x07,0x49,0x51,0x1c,0x49,0x00,0x02,
0x48,0x35,0x16,0x48,0x00,0x08,0x46,0x47,0x1c,0x46,0x00,0x02,0x44,0x40,0x19,0x44,
0x00,0x05,0x3d,0x3d,0x1d,0x3d,0x00,0x01,0x3b,0x49,0x1d,0x3b,0x00,0x01,0x39,0x2e,
0x1d,0x39,0x00,0x01,0x37,0x35,0x1d,0x37,0x00,0x01,0x3d,0x46,0x1d,0x3d,0x00,0x01,
0x3b,0x3d,0x1d,0x3b,0x00,0x01,0x39,0x3c,0x1c,0x39,0x00,0x02,0x37,0x37,0x1d,0x37,
0x00,0x01,0x3d,0x47,0x1d,0x3d,0x00,0x01,0x3b,0x48,0x1d,0x3b,0x00,0x01,0x39,0x35,
0x1d,0x39,0x00,0x01,0x37,0x33,0x1a,0x37,0x00,0x04,0x41,0x4f,0x1d,0x41,0x00,0x01,
0x40,0x45,0x1d,0x40,0x00,0x01,0x3e,0x38,0x1d,0x3e,0x00,0x01,0x3d,0x36,0x16,0x3d,
0x00,0x08,0x43,0x34,0x1d,0x43,0x00,0x01,0x41,0x4b,0x1d,0x41,0x00,0x01,0x40,0x44,
0x1b,0x40,0x00,0x03,0x3e,0x45,0x1a,0x3e,0x00,0x04,0x43,0x47,0x1d,0x43,0x00,0x01,
0x41,0x42,0x1d,0x41,0x00,0x01,0x40,0x3d,0x1a,0x40,0x00,0x04,0x3e,0x43,0x1c,0x3e,
0x00,0x02,0x43,0x42,0x1d,0x43,0x00,0x01,0x41,0x4f,0x1d,0x41,0x00,0x01,0x40,0x42,
0x1b,0x40,0x00,0x03,0x3e,0x42,0x1a,0x3e,0x00,0x04,0x48,0x4b,0x1d,0x48,0x00,0x01,
0x46,0x4d,0x1d,0x46,0x00,0x01,0x44,0x4d,0x1d,0x44,0x00,0x01,0x43,0x4f,0x0d,0x43,
0x00,0x11,0x43,0x56,0x1d,0x43,0x00,0x01,0x41,0x41,0x1d,0x41,0x00,0x01,0x3f,0x50,
0x1d,0x3f,0x00,0x01,0x3e,0x46,0x1d,0x3e,0x00,0x01,0x48,0x59,0x1d,0x48,0x00,0x01,
0x46,0x48,0x1d,0x46,0x00,0x01,0x44,0x4a,0x1d,0x44,0x00,0x01,0x43,0x3f,0x1d,0x43,
0x00,0x01,0x46,0x52,0x1d,0x46,0x00,0x01,0x44,0x49,0x1d,0x44,0x00,0x01,0x43,0x3f,
0x1d,0x43,0x00,0x01,0x41,0x44,0x1d,0x41,0x00,0x01,0x4b,0x61,0x1d,0x4b,0x00,0x01,
0x49,0x4d,0x1d,0x49,0x00,0x01,0x48,0x3a,0x1d,0x48,0x00,0x01,0x46,0x45,0x1d,0x46,
0x00,0x01,0x4b,0x4d,0x1d,0x4b,0x00,0x01,0x49,0x41,0x1d,0x49,0x00,0x01,0x48,0x45,
0x1d,0x48,0x00,0x01,0x46,0x43,0x1d,0x46,0x00,0x01,0x4f,0x4e,0x1d,0x4f,0x00,0x01,
0x4d,0x4b,0x1d,0x4d,0x00,0x01,0x4b,0x46,0x1d,0x4b,0x00,0x01,0x49,0x48,0x1b,0x49,
0x00,0x83,0x63,0x40,0x5f,0x00,0x43,0x5a,0x13,0x43,0x00,0x00,0x40,0x00,0x15,0x40,
0x56,0x00,0x43,0x58,0x12,0x43,0x00,0x00,0x40,0x00,0x16,0x40,0x55,0x00,0x43,0x60,
0x39,0x40,0x00,0x04,0x43,0x00,0x13,0x43,0x62,0x00,0x40,0x55,0x0f,0x40,0x00,0x04,
0x43,0x00,0x15,0x43,0x5b,0x00,0x40,0x55,0x11,0x43,0x00,0x08,0x40,0x00,0x0f,0x44,
0x61,0x00,0x41,0x62,0x10,0x44,0x00,0x03,0x41,0x00,0x15,0x41,0x5f,0x00,0x44,0x63,
0x12,0x44,0x00,0x04,0x41,0x00,0x12,0x44,0x66,0x00,0x41,0x5a,0x13,0x44,0x00,0x02,
0x41,0x00,0x13,0x46,0x6c,0x00,0x43,0x60,0x14,0x46,0x00,0x01,0x43,0x00,0x13,0x43,
0x68,0x00,0x46,0x67,0x0f,0x46,0x00,0x01,0x43,0x00,0x18,0x46,0x6d,0x00,0x43,0x5e,
0x12,0x46,0x00,0x03,0x43,0x00,0x91,0x2b,0x39,0x34,0x25,0x39,0x00,0x03,0x3e,0x5e,
0x25,0x3e,0x00,0x03,0x43,0x4b,0x24,0x43,0x00,0x04,0x45,0x4d,0x23,0x45,0x00,0x05,
0x46,0x50,0x28,0x46,0x00,0x28,0x54,0x38,0x21,0x54,0x00,0x07,0x52,0x4d,0x25,0x51,
0x59,0x01,0x52,0x00,0x29,0x51,0x00,0x1c,0x57,0x30,0x33,0x57,0x00,0x00,0x55,0x2f,
0x21,0x55,0x00,0x06,0x54,0x41,0x1e,0x54,0x00,0x07,0x52,0x55,0x29,0x52,0x00,0x08,
0x51,0x54,0x24,0x51,0x00,0x01,0x4f,0x43,0x1f,0x4f,0x00,0x06,0x51,0x49,0x2b,0x54,
0x42,0x02,0x51,0x00,0x26,0x52,0x45,0x03,0x54,0x00,0x25,0x52,0x00,0x00,0x54,0x53,
0x29,0x54,0x00,0x26,0x51,0x2a,0x2d,0x51,0x00,0x01,0x4f,0x42,0x22,0x4f,0x00,0x04,
0x51,0x51,0x21,0x51,0x00,0x04,0x54,0x41,0x28,0x52,0x4b,0x05,0x54,0x00,0x23,0x54,
0x50,0x01,0x52,0x00,0x28,0x54,0x00,0x01,0x57,0x3f,0x23,0x55,0x51,0x01,0x57,0x00,
0x20,0x55,0x00,0x88,0x42,0x46,0x5d,0x1e,0x46,0x00,0x0a,0x48,0x39,0x1f,0x48,0x00,
0x09,0x49,0x43,0x09,0x49,0x00,0x1f,0x48,0x5b,0x12,0x48,0x00,0x16,0x49,0x58,0x20,
0x49,0x00,0x08,0x4b,0x42,0x10,0x4b,0x00,0x18,0x4b,0x57,0x1e,0x4b,0x00,0x0a,0x4c,
0x42,0x23,0x4c,0x00,0x05,0x4e,0x47,0x14,0x4e,0x00,0x14,0x4e,0x4d,0x1e,0x4e,0x00,
0x0a,0x4f,0x37,0x1e,0x4f,0x00,0x0a,0x51,0x2e,0x0d,0x51,0x00,0x1b,0x51,0x44,0x28,
0x51,0x00,0x00,0x52,0x39,0x25,0x52,0x00,0x03,0x54,0x2f,0x0e,0x54,0x00,0x1a,0x54,
0x33,0x25,0x54,0x00,0x03,0x55,0x3d,0x1e,0x55,0x00,0x0a,0x57,0x4b,0x17,0x57,0x00,
0x11,0x58,0x41,0x81,0x23,0x58,0x00,0x83,0x5d,0x3d,0x3c,0x24,0x3d,0x00,0x04,0x3a,
0x30,0x28,0x39,0x3d,0x03,0x3a,0x00,0x29,0x39,0x00,0x24,0x39,0x30,0x1f,0x39,0x00,
0x09,0x3d,0x52,0x24,0x3d,0x00,0x04,0x3d,0x3c,0x1f,0x3d,0x00,0x09,0x3f,0x49,0x28,
0x3d,0x41,0x01,0x3f,0x00,0x1d,0x3d,0x00,0x0a,0x40,0x4a,0x28,0x3f,0x45,0x05,0x40,
0x00,0x1b,0x3f,0x00,0x30,0x3f,0x5b,0x22,0x3f,0x00,0x06,0x3d,0x44,0x1b,0x3d,0x00,
0x0d,0x3d,0x34,0x24,0x3d,0x00,0x04,0x44,0x3c,0x1c,0x44,0x00,0x0c,0x45,0x37,0x26,
0x45,0x00,0x02,0x48,0x47,0x27,0x48,0x00,0x01,0x46,0x2a,0x25,0x46,0x00,0x03,0x49,
0x50,0x1f,0x49,0x00,0x09,0x48,0x42,0x22,0x48,0x00,0x06,0x4b,0x50,0x21,0x4b,0x00,
0x07,0x49,0x54,0x26,0x49,0x00,0x40,0x37,0x2d,0x29,0x37,0x00,0x07,0x3d,0x3a,0x2e,
0x3d,0x00,0x04,0x3a,0x3d,0x27,0x3a,0x00,0x01,0x39,0x4a,0x28,0x3f,0x59,0x01,0x39,
0x00,0x24,0x3f,0x00,0x03,0x40,0x4d,0x24,0x40,0x00,0x04,0x43,0x4c,0x24,0x43,0x00,
0x04,0x46,0x50,0x21,0x46,0x00,0x07,0x45,0x32,0x1b,0x45,0x00,0x0d,0x48,0x4a,0x26,
0x48,0x00,0x02,0x46,0x4e,0x28,0x3e,0x45,0x02,0x46,0x00,0x1c,0x3e,0x00,0x0a,0x45,
0x45,0x24,0x45,0x00,0x04,0x49,0x57,0x23,0x49,0x00,0x05,0x4b,0x4b,0x23,0x4b,0x00,
0x05,0x4c,0x51,0x21,0x4c,0x00,0x07,0x51,0x58,0x22,0x51,0x00,0x06,0x4f,0x46,0x1f,
0x4f,0x00,0x09,0x54,0x5c,0x25,0x54,0x00,0x7b,0x46,0x6f,0x21,0x46,0x00,0x07,0x43,
0x53,0x23,0x43,0x00,0x05,0x42,0x56,0x22,0x42,0x00,0x22,0x46,0x6b,0x1c,0x43,0x52,
0x05,0x46,0x00,0x0e,0x43,0x00,0x09,0x42,0x53,0x19,0x42,0x00,0x06,0x43,0x57,0x15,
0x43,0x00,0x09,0x45,0x52,0x1b,0x45,0x00,0x06,0x46,0x4c,0x1f,0x46,0x00,0x01,0x48,
0x4a,0x1f,0x48,0x00,0x3b,0x52,0x62,0x1e,0x4f,0x46,0x01,0x52,0x00,0x1b,0x4f,0x00,
0x02,0x4e,0x54,0x1f,0x4e,0x00,0x59,0x52,0x5d,0x1e,0x4f,0x58,0x02,0x52,0x00,0x18,
0x4f,0x00,0x04,0x4e,0x57,0x18,0x4e,0x00,0x06,0x4c,0x64,0x18,0x4c,0x00,0x3c,0x51,
0x5c,0x10,0x51,0x00,0x0a,0x4e,0x3f,0x16,0x4e,0x00,0x03,0x4f,0x46,0x1f,0x4f,0x00,
0x04,0x51,0x32,0x1c,0x51,0x00,0x00,0x52,0x4b,0x21,0x55,0x4b,0x07,0x52,0x00,0x10,
0x56,0x5a,0x02,0x55,0x00,0x17,0x56,0x00,0x0a,0x56,0x58,0x15,0x56,0x00,0x09,0x56,
0x6e,0x12,0x56,0x00,0x0c,0x56,0x62,0x15,0x56,0x00,0x4b,0x4e,0x4b,0x19,0x4e,0x00,
0x08,0x51,0x55,0x10,0x51,0x00,0x0b,0x4f,0x46,0x15,0x4f,0x00,0x06,0x51,0x3d,0x15,
0x51,0x00,0x07,0x52,0x4c,0x19,0x52,0x00,0x07,0x54,0x42,0x1f,0x54,0x00,0x04,0x55,
0x63,0x0b,0x55,0x00,0x12,0x55,0x4f,0x13,0x55,0x00,0x0a,0x55,0x68,0x14,0x55,0x00,
0x08,0x55,0x69,0x15,0x55,0x00,0x51,0x58,0x2a,0x11,0x55,0x3f,0x04,0x58,0x00,0x22,
0x55,0x00,0x00,0x54,0x36,0x1a,0x54,0x00,0x62,0x58,0x35,0x17,0x58,0x00,0x03,0x55,
0x3d,0x19,0x55,0x00,0x02,0x54,0x45,0x1c,0x54,0x00,0x01,0x4c,0x47,0x1d,0x4c,0x00,
0x44,0x58,0x2e,0x1a,0x58,0x00,0x03,0x55,0x44,0x17,0x55,0x00,0x04,0x54,0x3d,0x17,
0x54,0x00,0x03,0x52,0x4e,0x1a,0x52,0x00,0x05,0x51,0x49,0x16,0x4f,0x45,0x03,0x51,
0x00,0x19,0x4f,0x00,0x0b,0x58,0x35,0x1e,0x58,0x00,0x01,0x5a,0x2f,0x19,0x5a,0x00,
0x03,0x5b,0x4e,0x1c,0x5d,0x56,0x0c,0x5b,0x00,0x09,0x5d,0x00,0x2d,0x40,0x45,0x18,
0x40,0x00,0x06,0x3f,0x4b,0x1e,0x3f,0x00,0x00,0x3d,0x48,0x1e,0x3d,0x2f,0x03,0x3d,
0x00,0x00,0x3d,0x00,0x1b,0x3d,0x27,0x08,0x3d,0x00,0x16,0x3f,0x47,0x1a,0x3f,0x00,
0x04,0x40,0x38,0x18,0x40,0x00,0x06,0x3f,0x4a,0x18,0x3f,0x00,0x06,0x40,0x35,0x1a,
0x40,0x00,0x04,0x42,0x3c,0x14,0x42,0x00,0x0a,0x43,0x45,0x1a,0x43,0x00,0x22,0x3e,
0x37,0x1b,0x3e,0x00,0x03,0x3d,0x47,0x19,0x3d,0x00,0x05,0x3b,0x27,0x1c,0x3b,0x00,
0x02,0x3a,0x49,0x1a,0x3a,0x00,0x04,0x3b,0x3a,0x15,0x3b,0x00,0x09,0x3d,0x3b,0x1d,
0x3d,0x00,0x01,0x3e,0x4f,0x19,0x3e,0x00,0x05,0x3e,0x56,0x1e,0x3f,0x5b,0x08,0x3e,
0x00,0x13,0x3f,0x00,0x03,0x41,0x3c,0x1a,0x41,0x00,0x04,0x42,0x47,0x23,0x42,0x00,
0x19,0x41,0x55,0x19,0x41,0x00,0x05,0x40,0x44,0x14,0x40,0x00,0x0a,0x3e,0x4b,0x1d,
0x3e,0x00,0x01,0x3d,0x4b,0x15,0x3d,0x00,0x09,0x3e,0x49,0x1e,0x3e,0x00,0x00,0x40,
0x44,0x1e,0x41,0x49,0x03,0x40,0x00,0x16,0x41,0x00,0x05,0x40,0x44,0x1c,0x40,0x00,
0x02,0x41,0x3c,0x1e,0x43,0x3e,0x04,0x41,0x00,0x17,0x43,0x00,0x03,0x44,0x4a,0x16,
0x44,0x00,0x26,0x40,0x55,0x1a,0x40,0x00,0x04,0x3f,0x57,0x19,0x3f,0x00,0x05,0x3d,
0x50,0x19,0x3d,0x00,0x05,0x3d,0x4a,0x17,0x3d,0x00,0x07,0x3d,0x44,0x19,0x3d,0x00,
0x05,0x40,0x3d,0x10,0x40,0x00,0x0e,0x41,0x43,0x0f,0x41,0x00,0x0f,0x3f,0x5a,0x14,
0x3f,0x00,0x0a,0x40,0x49,0x1e,0x40,0x00,0x00,0x42,0x50,0x18,0x42,0x00,0x06,0x43,
0x58,0x1b,0x43,0x00,0x21,0x44,0x39,0x1c,0x44,0x00,0x02,0x43,0x25,0x1e,0x41,0x49,
0x01,0x43,0x00,0x1d,0x41,0x00,0x00,0x40,0x4c,0x1d,0x40,0x00,0x01,0x41,0x3f,0x1e,
0x43,0x3d,0x05,0x41,0x00,0x12,0x43,0x00,0x07,0x44,0x47,0x1e,0x44,0x00,0x00,0x40,
0x56,0x1a,0x40,0x00,0x04,0x41,0x4b,0x1e,0x43,0x3f,0x03,0x41,0x00,0x16,0x43,0x00,
0x05,0x44,0x4c,0x17,0x44,0x00,0x25,0x44,0x33,0x19,0x44,0x00,0x05,0x43,0x34,0x1b,
0x43,0x00,0x03,0x41,0x48,0x1c,0x41,0x00,0x03,0x40,0x51,0x20,0x40,0x00,0x00,0x41,
0x59,0x1b,0x41,0x00,0x02,0x43,0x4c,0x17,0x43,0x00,0x05,0x44,0x52,0x23,0x40,0x57,
0x03,0x44,0x00,0x13,0x40,0x00,0x03,0x41,0x51,0x1d,0x41,0x00,0x00,0x43,0x4f,0x17,
0x43,0x00,0x06,0x44,0x56,0x19,0x44,0x00,0x22,0x43,0x35,0x17,0x43,0x00,0x03,0x42,
0x50,0x1c,0x42,0x00,0x02,0x40,0x3f,0x1b,0x40,0x00,0x05,0x3f,0x3b,0x14,0x3f,0x00,
0x08,0x40,0x3f,0x22,0x42,0x4b,0x04,0x40,0x00,0x1b,0x42,0x00,0x01,0x43,0x35,0x19,
0x43,0x00,0x03,0x42,0x3d,0x19,0x42,0x00,0x04,0x43,0x41,0x21,0x43,0x00,0x04,0x45,
0x40,0x16,0x45,0x00,0x08,0x46,0x4c,0x12,0x46,0x00,0x35,0x42,0x4c,0x18,0x42,0x00,
0x03,0x41,0x41,0x17,0x41,0x00,0x03,0x3f,0x56,0x19,0x3f,0x00,0x02,0x3e,0x50,0x17,
0x3e,0x00,0x06,0x3f,0x49,0x14,0x3f,0x00,0x04,0x41,0x3e,0x1e,0x41,0x00,0x07,0x42,
0x44,0x15,0x42,0x00,0x07,0x41,0x47,0x17,0x41,0x00,0x02,0x42,0x48,0x1c,0x42,0x00,
0x03,0x44,0x46,0x1a,0x44,0x00,0x06,0x45,0x41,0x1f,0x45,0x00,0x1b,0x43,0x42,0x1a,
0x43,0x00,0x06,0x41,0x4a,0x1c,0x41,0x00,0x03,0x40,0x38,0x1a,0x40,0x00,0x01,0x3e,
0x45,0x20,0x3e,0x00,0x03,0x40,0x3a,0x1e,0x40,0x00,0x00,0x41,0x38,0x17,0x41,0x00,
0x03,0x43,0x2a,0x1c,0x43,0x00,0x03,0x3e,0x49,0x1b,0x3e,0x00,0x01,0x40,0x3a,0x1a,
0x40,0x00,0x02,0x41,0x38,0x1e,0x43,0x2a,0x05,0x41,0x00,0x14,0x43,0x00,0x27,0x43,
0x3e,0x15,0x43,0x00,0x09,0x42,0x4a,0x19,0x42,0x00,0x05,0x40,0x2b,0x19,0x40,0x00,
0x05,0x3f,0x52,0x19,0x3f,0x00,0x05,0x40,0x4c,0x1b,0x40,0x00,0x03,0x42,0x45,0x18,
0x42,0x00,0x06,0x43,0x23,0x1d,0x43,0x00,0x01,0x3f,0x58,0x1a,0x3f,0x00,0x04,0x40,
0x45,0x17,0x40,0x00,0x07,0x42,0x44,0x19,0x42,0x00,0x05,0x43,0x42,0x1a,0x43,0x00,
0x22,0x45,0x4a,0x18,0x45,0x00,0x06,0x44,0x4e,0x15,0x44,0x00,0x09,0x42,0x3e,0x1c,
0x42,0x00,0x02,0x41,0x45,0x18,0x41,0x00,0x06,0x42,0x3e,0x19,0x42,0x00,0x05,0x44,
0x47,0x1e,0x45,0x3a,0x01,0x44,0x00,0x1d,0x41,0x48,0x03,0x45,0x00,0x17,0x41,0x00,
0x04,0x42,0x44,0x1b,0x42,0x00,0x03,0x44,0x34,0x1a,0x44,0x00,0x04,0x45,0x3a,0x1e,
0x45,0x00,0x1e,0x44,0x4e,0x1d,0x44,0x00,0x01,0x43,0x34,0x1c,0x43,0x00,0x02,0x41,
0x3d,0x1b,0x41,0x00,0x03,0x40,0x48,0x1c,0x40,0x00,0x02,0x41,0x4a,0x1b,0x41,0x00,
0x03,0x43,0x36,0x17,0x43,0x00,0x07,0x44,0x47,0x1e,0x40,0x48,0x05,0x44,0x00,0x17,
0x40,0x00,0x02,0x41,0x47,0x1b,0x41,0x00,0x03,0x43,0x27,0x1e,0x44,0x44,0x03,0x43,
0x00,0x1c,0x44,0x00,0x1a,0x43,0x42,0x17,0x43,0x00,0x05,0x42,0x4e,0x1f,0x42,0x00,
0x02,0x40,0x3a,0x16,0x40,0x00,0x05,0x3f,0x4e,0x1a,0x3f,0x00,0x03,0x40,0x4a,0x12,
0x40,0x00,0x0c,0x42,0x48,0x18,0x42,0x00,0x07,0x43,0x3a,0x26,0x43,0x00,0x02,0x3f,
0x50,0x0f,0x3f,0x00,0x08,0x40,0x4a,0x16,0x40,0x00,0x09,0x42,0x4a,0x19,0x42,0x00,
0x03,0x43,0x3d,0x1e,0x43,0x00,0x07,0x3f,0x5c,0x14,0x3f,0x00,0x03,0x40,0x3c,0x16,
0x40,0x00,0x07,0x42,0x48,0x1b,0x42,0x00,0x04,0x43,0x3a,0x1c,0x43,0x00,0x05,0x40,
0x45,0x17,0x40,0x00,0x03,0x42,0x4f,0x15,0x42,0x00,0x06,0x43,0x4e,0x19,0x43,0x00,
0x08,0x45,0x3d,0x22,0x45,0x00,0x00,0x42,0x5c,0x1c,0x42,0x00,0x03,0x43,0x45,0x16,
0x43,0x00,0x05,0x45,0x43,0x14,0x45,0x00,0x05,0x46,0x49,0x16,0x46,0x00,0x2d,0x43,
0x4a,0x1c,0x42,0x4a,0x03,0x43,0x00,0x17,0x42,0x00,0x01,0x40,0x45,0x16,0x40,0x00,
0x08,0x3f,0x51,0x19,0x3f,0x00,0x08,0x40,0x30,0x18,0x42,0x54,0x04,0x40,0x00,0x1b,
0x42,0x00,0x02,0x43,0x3d,0x21,0x3f,0x56,0x03,0x43,0x00,0x13,0x3f,0x00,0x03,0x40,
0x3f,0x20,0x42,0x4b,0x05,0x40,0x00,0x12,0x42,0x00,0x04,0x43,0x37,0x26,0x3f,0x4e,
0x02,0x43,0x00,0x13,0x3f,0x00,0x04,0x40,0x4c,0x1f,0x42,0x50,0x05,0x40,0x00,0x14,
0x42,0x00,0x05,0x43,0x3e,0x1b,0x43,0x00,0x04,0x40,0x47,0x15,0x40,0x00,0x07,0x42,
0x50,0x19,0x42,0x00,0x07,0x43,0x42,0x1e,0x45,0x43,0x03,0x43,0x00,0x1e,0x45,0x00,
0x00,0x42,0x50,0x15,0x42,0x00,0x01,0x43,0x4f,0x1c,0x43,0x00,0x07,0x45,0x45,0x15,
0x45,0x00,0x00,0x46,0x5b,0x1c,0x46,0x00,0x32,0x46,0x57,0x15,0x46,0x00,0x03,0x45,
0x48,0x19,0x43,0x48,0x01,0x45,0x00,0x16,0x43,0x00,0x0a,0x42,0x50,0x17,0x42,0x00,
0x09,0x43,0x45,0x1e,0x43,0x00,0x00,0x45,0x42,0x1e,0x46,0x4f,0x01,0x45,0x00,0x1d,
0x3b,0x48,0x01,0x46,0x00,0x19,0x3b,0x00,0x04,0x45,0x49,0x1e,0x45,0x00,0x00,0x46,
0x4a,0x1b,0x46,0x00,0x03,0x48,0x46,0x1f,0x48,0x00,0x1d,0x46,0x54,0x15,0x46,0x00,
0x09,0x45,0x43,0x17,0x45,0x00,0x07,0x43,0x43,0x1e,0x43,0x00,0x00,0x3a,0x51,0x13,
0x3a,0x00,0x0b,0x42,0x3a,0x1a,0x42,0x00,0x04,0x43,0x43,0x1e,0x45,0x3d,0x05,0x43,
0x00,0x19,0x45,0x00,0x00,0x43,0x45,0x1a,0x43,0x00,0x04,0x45,0x4f,0x1a,0x45,0x00,
0x04,0x46,0x5a,0x17,0x46,0x00,0x07,0x48,0x4a,0x1f,0x48,0x00,0x1f,0x48,0x43,0x1f,
0x46,0x43,0x01,0x48,0x00,0x19,0x46,0x00,0x03,0x45,0x38,0x1e,0x45,0x00,0x04,0x43,
0x42,0x17,0x43,0x00,0x08,0x45,0x3a,0x15,0x45,0x00,0x02,0x46,0x4e,0x19,0x46,0x00,
0x04,0x48,0x3b,0x1e,0x3b,0x48,0x01,0x48,0x00,0x11,0x3b,0x00,0x04,0x46,0x41,0x17,
0x46,0x00,0x06,0x48,0x45,0x21,0x48,0x00,0x03,0x49,0x54,0x15,0x49,0x00,0x2b,0x48,
0x57,0x1a,0x48,0x00,0x06,0x46,0x4b,0x1c,0x45,0x45,0x01,0x46,0x00,0x14,0x45,0x00,
0x0a,0x3e,0x4f,0x15,0x3e,0x00,0x0b,0x45,0x4c,0x17,0x45,0x00,0x02,0x46,0x4a,0x11,
0x46,0x00,0x08,0x48,0x49,0x24,0x48,0x00,0x01,0x45,0x52,0x1d,0x45,0x00,0x01,0x46,
0x57,0x1e,0x48,0x45,0x02,0x46,0x00,0x17,0x48,0x00,0x05,0x49,0x55,0x1b,0x49,0x00,
0x1f,0x49,0x44,0x1f,0x49,0x00,0x03,0x48,0x35,0x16,0x48,0x00,0x03,0x46,0x40,0x1e,
0x46,0x00,0x03,0x45,0x53,0x1f,0x45,0x00,0x3b,0x43,0x33,0x1a,0x43,0x00,0x04,0x49,
0x3d,0x1d,0x49,0x00,0x01,0x48,0x2a,0x1d,0x48,0x00,0x01,0x46,0x46,0x1c,0x46,0x00,
0x02,0x45,0x59,0x1d,0x45,0x00,0x1f,0x4c,0x32,0x1e,0x4c,0x00,0x08,0x4b,0x42,0x14,
0x4b,0x00,0x02,0x49,0x43,0x1b,0x48,0x53,0x01,0x49,0x00,0x1c,0x48,0x00,0x05,0x46,
0x4c,0x13,0x46,0x00,0x06,0x45,0x48,0x18,0x45,0x00,0x02,0x43,0x3a,0x1e,0x43,0x00,
0x00,0x39,0x53,0x17,0x39,0x00,0x0d,0x40,0x4e,0x16,0x40,0x00,0x02,0x3f,0x61,0x1e,
0x3d,0x61,0x01,0x3f,0x00,0x0d,0x3d,0x00,0x33,0x4c,0x46,0x1d,0x4c,0x00,0x04,0x4b,
0x3b,0x15,0x4b,0x00,0x04,0x49,0x37,0x20,0x49,0x00,0x05,0x48,0x48,0x23,0x48,0x00,
0x30,0x46,0x3f,0x15,0x46,0x00,0x0e,0x4c,0x37,0x1d,0x4c,0x00,0x03,0x4b,0x44,0x19,
0x4b,0x00,0x01,0x49,0x3f,0x19,0x49,0x00,0x07,0x48,0x40,0x1d,0x48,0x00,0x01,0x45,
0x52,0x0f,0x45,0x00,0x0f,0x4e,0x4d,0x19,0x4e,0x00,0x05,0x4c,0x3f,0x1c,0x4c,0x00,
0x02,0x4b,0x46,0x1c,0x4b,0x00,0x02,0x49,0x3e,0x19,0x49,0x00,0x05,0x48,0x45,0x1c,
0x48,0x00,0x02,0x46,0x43,0x16,0x46,0x00,0x08,0x45,0x4d,0x11,0x45,0x00,0x0d,0x45,
0x5a,0x13,0x45,0x00,0x0b,0x43,0x54,0x12,0x43,0x00,0x0c,0x42,0x51,0x12,0x42,0x00,
0x0c,0x40,0x5e,0x15,0x40,0x00,0x2f,0x49,0x41,0x10,0x48,0x2a,0x04,0x49,0x00,0x15,
0x48,0x00,0x01,0x46,0x47,0x25,0x45,0x44,0x01,0x46,0x00,0x25,0x45,0x00,0x32,0x45,
0x42,0x1e,0x49,0x46,0x03,0x45,0x00,0x17,0x49,0x00,0x01,0x48,0x2d,0x16,0x48,0x00,
0x03,0x46,0x46,0x26,0x46,0x00,0x00,0x45,0x3d,0x16,0x45,0x00,0x29,0x49,0x44,0x18,
0x48,0x19,0x02,0x49,0x00,0x10,0x48,0x00,0x05,0x46,0x4b,0x21,0x46,0x00,0x01,0x45,
0x47,0x1a,0x45,0x00,0x3e,0x45,0x51,0x1c,0x45,0x00,0x0a,0x3e,0x5d,0x19,0x3e,0x00,
0x00,0x48,0x51,0x1e,0x48,0x00,0x03,0x49,0x3f,0x18,0x49,0x00,0x06,0x4b,0x5e,0x08,
0x4b,0x00,0x43,0x4d,0x45,0x14,0x4d,0x00,0x02,0x4c,0x30,0x17,0x4c,0x00,0x05,0x4a,
0x30,0x16,0x4a,0x00,0x08,0x49,0x3f,0x1b,0x49,0x00,0x3c,0x41,0x3b,0x18,0x41,0x00,
0x06,0x4d,0x35,0x1d,0x4d,0x00,0x04,0x4c,0x22,0x13,0x4c,0x00,0x05,0x4a,0x28,0x18,
0x4a,0x00,0x05,0x49,0x3c,0x13,0x49,0x00,0x39,0x4d,0x41,0x13,0x4d,0x00,0x04,0x4c,
0x35,0x17,0x4c,0x00,0x02,0x4a,0x33,0x1a,0x4a,0x00,0x09,0x49,0x43,0x18,0x49,0x00,
0x42,0x40,0x42,0x1a,0x40,0x00,0x04,0x4d,0x49,0x19,0x4d,0x00,0x05,0x4c,0x39,0x1c,
0x4c,0x00,0x02,0x4a,0x37,0x1a,0x4a,0x00,0x04,0x49,0x44,0x14,0x49,0x00,0x29,0x4d,
0x2d,0x17,0x4d,0x00,0x04,0x4c,0x33,0x10,0x4c,0x00,0x0b,0x4a,0x3a,0x1a,0x4a,0x00,
0x02,0x49,0x52,0x17,0x49,0x00,0x38,0x49,0x45,0x17,0x49,0x00,0x19,0x4a,0x46,0x1e,
0x4c,0x48,0x03,0x4a,0x00,0x15,0x4c,0x00,0x06,0x4d,0x49,0x1e,0x4f,0x3a,0x01,0x4d,
0x00,0x19,0x4f,0x00,0x04,0x4d,0x3b,0x1b,0x4d,0x00,0x03,0x4c,0x3d,0x1c,0x4c,0x00,
0x02,0x4a,0x44,0x19,0x4a,0x00,0x05,0x49,0x56,0x1b,0x49,0x00,0x5d,0x49,0x4f,0x1a,
0x49,0x00,0x04,0x4a,0x4e,0x19,0x4a,0x00,0x05,0x4c,0x50,0x19,0x4c,0x00,0x05,0x4d,
0x4b,0x1d,0x4d,0x00,0x01,0x4f,0x46,0x1c,0x4f,0x00,0x19,0x59,0x32,0x1e,0x59,0x00,
0x05,0x58,0x2c,0x19,0x56,0x40,0x02,0x58,0x00,0x1a,0x56,0x00,0x09,0x55,0x47,0x13,
0x55,0x00,0x41,0x55,0x4c,0x19,0x55,0x00,0x06,0x56,0x49,0x20,0x58,0x3b,0x01,0x56,
0x00,0x18,0x58,0x00,0x06,0x59,0x43,0x20,0x5b,0x31,0x02,0x59,0x00,0x12,0x5b,0x00,
0x2d,0x59,0x48,0x1e,0x59,0x00,0x02,0x58,0x2f,0x1a,0x58,0x00,0x00,0x56,0x40,0x18,
0x56,0x00,0x08,0x55,0x51,0x17,0x55,0x00,0x3b,0x55,0x54,0x1e,0x55,0x00,0x05,0x56,
0x52,0x1e,0x56,0x00,0x06,0x58,0x40,0x14,0x58,0x00,0x04,0x59,0x47,0x17,0x59,0x00,
0x07,0x5b,0x44,0x19,0x5b,0x00,0x03,0x55,0x61,0x19,0x55,0x00,0x05,0x56,0x55,0x1d,
0x56,0x00,0x01,0x58,0x50,0x1a,0x58,0x00,0x04,0x59,0x3e,0x19,0x59,0x00,0x05,0x55,
0x60,0x1a,0x55,0x00,0x04,0x56,0x5c,0x17,0x56,0x00,0x07,0x58,0x4f,0x19,0x58,0x00,
0x05,0x59,0x44,0x17,0x59,0x00,0x07,0x56,0x5b,0x1e,0x56,0x00,0x00,0x58,0x59,0x0f,
0x58,0x00,0x0f,0x59,0x5f,0x1a,0x59,0x00,0x04,0x5b,0x66,0x1c,0x5b,0x00,0x20,0x3e,
0x50,0x19,0x3e,0x00,0x05,0x3d,0x51,0x12,0x3d,0x00,0x0c,0x3a,0x48,0x11,0x3a,0x00,
0x0d,0x39,0x3b,0x19,0x39,0x00,0x05,0x3a,0x44,0x16,0x3a,0x00,0x08,0x3d,0x4b,0x1e,
0x3d,0x00,0x00,0x3e,0x58,0x19,0x3e,0x00,0x05,0x39,0x47,0x19,0x39,0x00,0x05,0x3a,
0x43,0x17,0x3a,0x00,0x07,0x3d,0x58,0x1a,0x3d,0x00,0x04,0x3e,0x59,0x17,0x3e,0x00,
0x2c,0x3e,0x5a,0x17,0x3e,0x00,0x08,0x3d,0x5f,0x1b,0x3a,0x55,0x01,0x3d,0x00,0x15,
0x3a,0x00,0x06,0x39,0x45,0x1d,0x39,0x00,0x06,0x3a,0x4c,0x10,0x3a,0x00,0x03,0x3d,
0x55,0x17,0x3d,0x00,0x06,0x3e,0x4a,0x22,0x40,0x54,0x02,0x3e,0x00,0x15,0x40,0x00,
0x05,0x42,0x55,0x16,0x42,0x00,0x06,0x43,0x44,0x22,0x43,0x00,0x00,0x45,0x5a,0x16,
0x45,0x00,0x58,0x3e,0x61,0x0d,0x3e,0x00,0x14,0x3e,0x63,0x20,0x40,0x4a,0x03,0x3e,
0x00,0x14,0x42,0x57,0x05,0x40,0x00,0x12,0x42,0x00,0x0b,0x43,0x34,0x10,0x43,0x00,
0x11,0x43,0x56,0x1e,0x43,0x00,0x05,0x45,0x37,0x14,0x45,0x00,0x06,0x46,0x4f,0x13,
0x46,0x00,0x07,0x48,0x57,0x13,0x48,0x00,0x31,0x49,0x54,0x1c,0x49,0x00,0x02,0x48,
0x49,0x1a,0x48,0x00,0x04,0x46,0x4a,0x1e,0x46,0x00,0x00,0x3e,0x52,0x21,0x3e,0x00,
0x39,0x45,0x34,0x1e,0x45,0x00,0x00,0x49,0x4c,0x1c,0x49,0x00,0x02,0x48,0x45,0x1e,
0x46,0x52,0x01,0x48,0x00,0x19,0x46,0x00,0x04,0x3e,0x5b,0x19,0x3e,0x00,0x64,0x3e,
0x5e,0x0d,0x3e,0x00,0x0c,0x3e,0x60,0x1d,0x3e,0x00,0x06,0x40,0x57,0x1c,0x42,0x5a,
0x02,0x40,0x00,0x16,0x43,0x2b,0x01,0x42,0x00,0x1d,0x43,0x00,0x00,0x45,0x4e,0x21,
0x46,0x52,0x04,0x45,0x00,0x15,0x48,0x59,0x06,0x46,0x00,0x15,0x48,0x00,0x02,0x49,
0x63,0x12,0x49,0x00,0x2d,0x49,0x5d,0x19,0x49,0x00,0x03,0x48,0x45,0x1c,0x48,0x00,
0x01,0x46,0x55,0x0f,0x46,0x00,0x33,0x49,0x66,0x15,0x49,0x00,0x04,0x48,0x5b,0x15,
0x48,0x00,0x04,0x46,0x50,0x0e,0x46,0x00,0x12,0x3e,0x60,0x1c,0x3e,0x00,0x3b,0x3e,
0x6a,0x15,0x3e,0x00,0x0b,0x43,0x59,0x1f,0x45,0x46,0x03,0x43,0x00,0x1a,0x46,0x54,
0x01,0x45,0x00,0x17,0x46,0x00,0x07,0x48,0x55,0x18,0x48,0x00,0x4c,0x43,0x64,0x18,
0x43,0x00,0x05,0x45,0x4b,0x13,0x45,0x00,0x07,0x46,0x62,0x14,0x46,0x00,0x0f,0x48,
0x5f,0x1a,0x48,0x00,0x03,0x49,0x54,0x15,0x49,0x00,0x05,0x4b,0x63,0x0d,0x4b,0x00,
0xa9,0x31,0x46,0x41,0x17,0x46,0x00,0x02,0x45,0x38,0x1f,0x45,0x00,0x08,0x43,0x20,
0x14,0x43,0x00,0x01,0x41,0x42,0x24,0x41,0x00,0x04,0x46,0x4d,0x1a,0x46,0x00,0x03,
0x45,0x33,0x20,0x45,0x00,0x02,0x43,0x21,0x14,0x43,0x00,0x05,0x41,0x3c,0x25,0x41,
0x00,0x02,0x46,0x48,0x12,0x46,0x00,0x03,0x45,0x34,0x1a,0x45,0x00,0x04,0x43,0x29,
0x17,0x43,0x00,0x07,0x41,0x43,0x19,0x41,0x00,0x05,0x4b,0x3f,0x1a,0x4b,0x00,0x04,
0x4a,0x45,0x19,0x4a,0x00,0x05,0x48,0x36,0x1a,0x48,0x00,0x04,0x46,0x5d,0x0d,0x46,
0x00,0x11,0x46,0x5a,0x17,0x46,0x00,0x07,0x45,0x3d,0x19,0x45,0x00,0x05,0x43,0x21,
0x19,0x43,0x00,0x05,0x41,0x43,0x1b,0x41,0x00,0x03,0x46,0x53,0x1a,0x46,0x00,0x04,
0x45,0x2d,0x19,0x45,0x00,0x05,0x43,0x23,0x17,0x43,0x00,0x07,0x41,0x46,0x1c,0x41,
0x00,0x02,0x46,0x50,0x19,0x46,0x00,0x05,0x45,0x3b,0x1c,0x45,0x00,0x02,0x43,0x2f,
0x18,0x43,0x00,0x06,0x41,0x4e,0x1c,0x41,0x00,0x02,0x4b,0x5b,0x18,0x4b,0x00,0x06,
0x4a,0x49,0x16,0x4a,0x00,0x08,0x48,0x43,0x18,0x48,0x00,0x06,0x46,0x5a,0x0c,0x46,
0x00,0x12,0x46,0x56,0x34,0x46,0x00,0x08,0x43,0x35,0x1c,0x43,0x00,0x02,0x41,0x41,
0x1e,0x41,0x00,0x00,0x46,0x50,0x1c,0x46,0x00,0x02,0x45,0x29,0x1d,0x45,0x00,0x01,
0x43,0x34,0x1c,0x43,0x00,0x02,0x41,0x3d,0x1a,0x41,0x00,0x04,0x4b,0x44,0x1c,0x4b,
0x00,0x02,0x4a,0x20,0x1b,0x4a,0x00,0x03,0x48,0x35,0x1c,0x48,0x00,0x02,0x46,0x41,
0x14,0x46,0x00,0x0a,0x46,0x41,0x1b,0x46,0x00,0x03,0x45,0x28,0x1c,0x45,0x00,0x02,
0x43,0x34,0x1c,0x43,0x00,0x02,0x41,0x46,0x17,0x41,0x00,0x02,0x46,0x56,0x17,0x46,
0x00,0x02,0x45,0x21,0x15,0x45,0x00,0x06,0x43,0x2e,0x19,0x43,0x00,0x05,0x41,0x3f,
0x1c,0x41,0x00,0x07,0x46,0x50,0x1c,0x46,0x00,0x03,0x45,0x20,0x10,0x45,0x00,0x03,
0x43,0x31,0x1e,0x43,0x00,0x06,0x41,0x1e,0x14,0x41,0x00,0x11,0x4d,0x51,0x1d,0x4d,
0x00,0x04,0x4b,0x4c,0x15,0x4b,0x00,0x04,0x4a,0x39,0x17,0x4a,0x00,0x04,0x48,0x38,
0x12,0x48,0x00,0x11,0x48,0x40,0x1b,0x48,0x00,0x08,0x46,0x3f,0x14,0x46,0x00,0x02,
0x45,0x2e,0x14,0x45,0x00,0x05,0x43,0x3e,0x1a,0x43,0x00,0x0c,0x46,0x50,0x1b,0x46,
0x00,0x05,0x45,0x23,0x15,0x45,0x00,0x02,0x43,0x37,0x1c,0x43,0x00,0x02,0x41,0x40,
0x20,0x41,0x00,0x08,0x3f,0x56,0x1a,0x3f,0x00,0x04,0x3e,0x38,0x1a,0x3e,0x00,0x04,
0x3d,0x29,0x1b,0x3d,0x00,0x03,0x3a,0x47,0x1c,0x3a,0x00,0x02,0x3f,0x52,0x19,0x3f,
0x00,0x02,0x3e,0x4b,0x19,0x3e,0x00,0x03,0x3d,0x32,0x12,0x3d,0x00,0x04,0x3a,0x3f,
0x1f,0x3a,0x00,0x07,0x41,0x4d,0x1c,0x41,0x00,0x09,0x3f,0x3d,0x17,0x3f,0x00,0x02,
0x3e,0x3e,0x17,0x3e,0x00,0x02,0x3d,0x4c,0x1a,0x3d,0x00,0x0f,0x46,0x4a,0x12,0x46,
0x00,0x06,0x45,0x24,0x14,0x45,0x00,0x06,0x43,0x34,0x20,0x43,0x00,0x05,0x41,0x2d,
0x18,0x41,0x00,0x03,0x48,0x38,0x1f,0x48,0x00,0x05,0x46,0x39,0x15,0x46,0x00,0x04,
0x45,0x24,0x19,0x45,0x00,0x02,0x43,0x2e,0x1d,0x43,0x00,0x03,0x4b,0x3a,0x1c,0x4b,
0x00,0x07,0x4a,0x30,0x0f,0x4a,0x00,0x05,0x48,0x31,0x1a,0x48,0x00,0x07,0x46,0x3f,
0x16,0x46,0x00,0x0f,0x48,0x45,0x1f,0x48,0x00,0x05,0x46,0x41,0x15,0x46,0x00,0x01,
0x45,0x32,0x15,0x45,0x00,0x06,0x43,0x36,0x1e,0x43,0x00,0x03,0x46,0x44,0x15,0x46,
0x00,0x04,0x45,0x1f,0x18,0x45,0x00,0x03,0x43,0x2e,0x17,0x43,0x00,0x07,0x41,0x32,
0x1d,0x41,0x00,0x06,0x4b,0x41,0x1a,0x4b,0x00,0x02,0x4a,0x35,0x14,0x4a,0x00,0x03,
0x48,0x30,0x19,0x48,0x00,0x04,0x46,0x35,0x1c,0x46,0x00,0x0a,0x4b,0x3f,0x11,0x4b,
0x00,0x05,0x4a,0x41,0x19,0x4a,0x00,0x03,0x48,0x3a,0x1e,0x48,0x00,0x03,0x46,0x36,
0x1a,0x46,0x00,0x0e,0x46,0x3d,0x17,0x46,0x00,0x06,0x45,0x2c,0x17,0x45,0x00,0x03,
0x43,0x37,0x1c,0x43,0x00,0x04,0x41,0x43,0x15,0x41,0x00,0x18,0x48,0x55,0x17,0x48,
0x00,0x04,0x46,0x39,0x13,0x46,0x00,0x04,0x45,0x2f,0x18,0x45,0x00,0x03,0x43,0x32,
0x19,0x43,0x00,0x06,0x45,0x4c,0x1c,0x45,0x00,0x06,0x43,0x3a,0x1a,0x43,0x00,0x02,
0x41,0x30,0x13,0x41,0x00,0x01,0x3f,0x3b,0x19,0x3f,0x00,0x0f,0x4b,0x47,0x1c,0x4b,
0x00,0x02,0x4a,0x41,0x18,0x4a,0x00,0x06,0x48,0x35,0x1c,0x48,0x00,0x02,0x46,0x41,
0x12,0x46,0x00,0x0c,0x48,0x43,0x1a,0x48,0x00,0x04,0x46,0x39,0x1c,0x46,0x00,0x02,
0x45,0x3c,0x1a,0x45,0x00,0x04,0x43,0x44,0x16,0x43,0x00,0x08,0x4b,0x49,0x1b,0x4b,
0x00,0x03,0x4a,0x45,0x1b,0x4a,0x00,0x03,0x48,0x38,0x1b,0x48,0x00,0x03,0x46,0x40,
0x1c,0x46,0x00,0x02,0x4b,0x4e,0x1c,0x4b,0x00,0x02,0x4a,0x43,0x19,0x4a,0x00,0x05,
0x48,0x3a,0x1c,0x48,0x00,0x02,0x46,0x4a,0x1a,0x46,0x00,0x04,0x50,0x4b,0x1d,0x50,
0x00,0x01,0x4f,0x3f,0x19,0x4f,0x00,0x05,0x4d,0x40,0x1a,0x4d,0x00,0x04,0x4b,0x46,
0x19,0x4b,0x00,0x05,0x4b,0x55,0x1b,0x4b,0x00,0x03,0x4a,0x37,0x1d,0x4a,0x00,0x01,
0x48,0x3a,0x1c,0x48,0x00,0x02,0x46,0x38,0x1c,0x46,0x00,0x02,0x4b,0x64,0x1a,0x4b,
0x00,0x04,0x4a,0x3d,0x10,0x4a,0x00,0x02,0x48,0x41,0x1c,0x48,0x00,0x02,0x46,0x5f,
0x1e,0x46,0x00,0x02,0x45,0x5a,0x1e,0x45,0x00,0x07,0x43,0x2c,0x1a,0x43,0x00,0x04,
0x41,0x47,0x12,0x41,0x00,0x02,0x3f,0x5b,0x1c,0x3f,0x00,0x07,0x41,0x70,0x1b,0x41,
0x00,0x03,0x3f,0x5b,0x1d,0x3f,0x00,0x06,0x3e,0x53,0x15,0x3e,0x00,0x05,0x3d,0x54,
0x1f,0x3d,0x00,0x03,0x45,0x6e,0x20,0x45,0x00,0x01,0x43,0x64,0x19,0x43,0x00,0x05,
0x41,0x59,0x1c,0x41,0x00,0x04,0x3f,0x4d,0x19,0x3f,0x00,0x03,0x42,0x51,0x78,0x42,
0x00,0x00,0x3f,0x3b,0x6c,0x3f,0x00,0x0c,0x42,0x4c,0x76,0x42,0x00,0x02,0x3f,0x41,
0x73,0x3f,0x00,0x05,0x42,0x44,0x69,0x42,0x00,0x0f,0x3f,0x2f,0x72,0x3f,0x00,0x06,
0x42,0x41,0x75,0x42,0x00,0x03,0x3f,0x45,0x6c,0x3f,0x00,0x0c,0x42,0x41,0x76,0x42,
0x00,0x02,0x3f,0x40,0x6a,0x3f,0x00,0x0e,0x42,0x44,0x75,0x42,0x00,0x03,0x3f,0x3b,
0x6e,0x3f,0x00,0x0a,0x42,0x48,0x76,0x42,0x00,0x02,0x3f,0x3d,0x6d,0x3f,0x00,0x0b,
0x42,0x40,0x75,0x42,0x00,0x03,0x3f,0x31,0x6c,0x3f,0x00,0x0c,0x42,0x48,0x71,0x42,
0x00,0x07,0x3f,0x28,0x65,0x3f,0x00,0x13,0x42,0x48,0x74,0x42,0x00,0x04,0x3f,0x36,
0x75,0x3f,0x00,0x03,0x42,0x4b,0x72,0x42,0x00,0x06,0x3f,0x42,0x71,0x3f,0x00,0x07,
0x42,0x4c,0x74,0x42,0x00,0x04,0x3f,0x4c,0x73,0x3f,0x00,0x05,0x42,0x44,0x73,0x42,
0x00,0x05,0x3f,0x3d,0x74,0x3f,0x00,0x04,0x42,0x46,0x73,0x42,0x00,0x05,0x3f,0x33,
0x75,0x3f,0x00,0x03,0x42,0x48,0x78,0x3f,0x45,0x03,0x42,0x00,0x71,0x3f,0x00,0x04,
0x42,0x4e,0x78,0x42,0x00,0x00,0x3f,0x47,0x76,0x3f,0x00,0x02,0x42,0x4e,0x76,0x42,
0x00,0x02,0x3f,0x34,0x6c,0x3f,0x00,0x0c,0x42,0x4e,0x74,0x42,0x00,0x04,0x3f,0x5d,
0x4b,0x3f,0x00,0x24,0x46,0x49,0x01,0x4a,0x42,0x83,0x54,0x46,0x00,0x0c,0x4a,0x00,
0x0a,0x4d,0x3e,0x01,0x51,0x33,0x83,0x5c,0x51,0x00,0x01,0x4d,0x00,0x00,0x4f,0x3a,
0x00,0x4c,0x43,0x5d,0x4c,0x00,0x07,0x4f,0x00,0x14,0x4e,0x36,0x00,0x4b,0x3e,0x3a,
0x4b,0x00,0x02,0x4e,0x00,0x00,0x49,0x44,0x00,0x4c,0x3d,0x3d,0x49,0x00,0x01,0x4c,
0x00,0x02,0x52,0x41,0x04,0x56,0x41,0x81,0x5b,0x52,0x00,0x04,0x56,0x00,0x02,0x51,
0x40,0x02,0x4d,0x43,0x83,0x64,0x4d,0x00,0x00,0x51,0x00,0x01,0x4c,0x30,0x00,0x4f,
0x3d,0x53,0x4f,0x00,0x00,0x4c,0x00,0x07,0x4b,0x3f,0x00,0x4e,0x42,0x38,0x4b,0x00,
0x01,0x4e,0x00,0x03,0x49,0x40,0x00,0x4c,0x42,0x41,0x49,0x00,0x12,0x4c,0x00,0x07,
0x52,0x3b,0x03,0x56,0x46,0x81,0x58,0x52,0x00,0x02,0x56,0x00,0x09,0x51,0x3a,0x05,
0x4d,0x34,0x83,0x43,0x4d,0x00,0x05,0x51,0x00,0x1d,0x41,0x40,0x00,0x45,0x49,0x33,
0x41,0x00,0x07,0x45,0x00,0x02,0x43,0x50,0x00,0x40,0x50,0x4f,0x40,0x00,0x02,0x43,
0x00,0x09,0x49,0x48,0x00,0x46,0x4f,0x43,0x49,0x00,0x0a,0x46,0x00,0x0b,0x48,0x50,
0x04,0x4c,0x3e,0x83,0x51,0x53,0x3e,0x01,0x4f,0x30,0x03,0x48,0x00,0x03,0x4c,0x00,
0x83,0x5a,0x4f,0x00,0x06,0x53,0x00,0x06,0x4e,0x3a,0x00,0x52,0x47,0x50,0x52,0x00,
0x03,0x4e,0x00,0x07,0x50,0x46,0x00,0x4d,0x38,0x35,0x50,0x00,0x04,0x4d,0x00,0x03,
0x4b,0x33,0x00,0x4e,0x40,0x53,0x4b,0x00,0x07,0x54,0x3e,0x04,0x4e,0x00,0x04,0x58,
0x2e,0x81,0x67,0x58,0x00,0x04,0x54,0x00,0x02,0x53,0x2c,0x06,0x4f,0x2f,0x83,0x4f,
0x52,0x38,0x00,0x4e,0x36,0x04,0x53,0x00,0x02,0x4f,0x00,0x50,0x52,0x00,0x00,0x4e,
0x00,0x01,0x4d,0x37,0x02,0x50,0x37,0x43,0x4d,0x00,0x03,0x50,0x00,0x02,0x4e,0x33,
0x04,0x4b,0x30,0x4d,0x4e,0x00,0x02,0x4b,0x00,0x08,0x54,0x35,0x03,0x58,0x36,0x81,
0x5c,0x58,0x00,0x01,0x54,0x00,0x0a,0x4f,0x2e,0x00,0x53,0x2e,0x83,0x4e,0x53,0x00,
0x0e,0x4f,0x00,0x04,0x41,0x30,0x00,0x45,0x2a,0x36,0x45,0x00,0x02,0x41,0x00,0x04,
0x4b,0x39,0x00,0x47,0x50,0x4b,0x4b,0x00,0x03,0x47,0x00,0x0c,0x51,0x45,0x00,0x4d,
0x3a,0x3d,0x4d,0x00,0x00,0x51,0x00,0x81,0x15,0x43,0x46,0x3a,0x43,0x00,0x3e,0x43,
0x4a,0x46,0x43,0x00,0x32,0x43,0x4d,0x43,0x43,0x00,0x2d,0x43,0x46,0x3d,0x43,0x00,
0x38,0x43,0x43,0x37,0x43,0x00,0x47,0x43,0x4a,0x30,0x43,0x00,0x2c,0x43,0x3d,0x2d,
0x43,0x00,0x21,0x43,0x3f,0x2d,0x43,0x00,0x81,0x07,0x43,0x45,0x3d,0x43,0x00,0x7a,
0x43,0x41,0x2d,0x43,0x00,0x54,0x43,0x4a,0x23,0x43,0x00,0x81,0x11,0x43,0x51,0x1f,
0x43,0x00,0x20,0x43,0x3f,0x23,0x43,0x00,0x5b,0x43,0x4e,0x28,0x43,0x00,0x55,0x43,
0x46,0x1e,0x43,0x00,0x81,0x0b,0x4f,0x49,0x23,0x4f,0x00,0x81,0x59,0x4f,0x57,0x1e,
0x4f,0x00,0x81,0x42,0x4f,0x50,0x1a,0x4f,0x00,0x1f,0x4f,0x4a,0x1c,0x4f,0x00,0x66,
0x4f,0x52,0x1e,0x4f,0x00,0x5b,0x4f,0x53,0x1c,0x4f,0x00,0x81,0x0c,0x5b,0x53,0x29,
0x5b,0x00,0x52,0x5b,0x48,0x2d,0x5b,0x00,0x4c,0x5b,0x52,0x2b,0x5b,0x00,0x55,0x5b,
0x53,0x2f,0x5b,0x00,0x44,0x5b,0x4e,0x33,0x5b,0x00,0x50,0x5b,0x4a,0x23,0x5b,0x00,
0x2f,0x5b,0x49,0x1c,0x5b,0x00,0x2f,0x5b,0x49,0x18,0x5b,0x00,0x00,0xff,0x2f,0x00,
0x4d,0x54,0x72,0x6b,0x00,0x00,0x01,0xb5,0x00,0xff,0x21,0x01,0x00,0x00,0xff,0x03,
0x09,0x56,0x49,0x4f,0x4c,0x49,0x4e,0x20,0x32,0x20,0x00,0xc2,0x28,0x00,0xb2,0x07,
0x78,0xdb,0x20,0x92,0x51,0x2e,0x28,0x4f,0x23,0x01,0x51,0x00,0x25,0x4f,0x00,0x02,
0x4e,0x35,0x21,0x4e,0x00,0x1b,0x54,0x43,0x27,0x54,0x00,0x15,0x52,0x36,0x28,0x51,
0x2d,0x01,0x52,0x00,0x18,0x51,0x00,0x0f,0x4f,0x39,0x21,0x4f,0x00,0x04,0x4e,0x44,
0x1c,0x4e,0x00,0x0c,0x4c,0x39,0x24,0x4e,0x37,0x04,0x4c,0x00,0x1c,0x4e,0x00,0x0f,
0x51,0x40,0x23,0x51,0x00,0x05,0x4f,0x3f,0x20,0x4f,0x00,0x08,0x51,0x45,0x22,0x51,
0x00,0x33,0x4e,0x39,0x1c,0x4e,0x00,0x0b,0x4c,0x30,0x2d,0x4e,0x32,0x03,0x4c,0x00,
0x22,0x51,0x3e,0x01,0x4e,0x00,0x20,0x51,0x00,0x03,0x4f,0x3d,0x23,0x4f,0x00,0x03,
0x51,0x3c,0x25,0x51,0x00,0x05,0x54,0x31,0x21,0x54,0x00,0x05,0x52,0x3d,0x17,0x52,
0x00,0x39,0x51,0x43,0x18,0x51,0x00,0x10,0x4f,0x2f,0x1f,0x4f,0x00,0x09,0x4e,0x3f,
0x1d,0x4e,0x00,0x33,0x54,0x42,0x21,0x54,0x00,0x07,0x52,0x22,0x1e,0x52,0x00,0x0a,
0x51,0x25,0x16,0x51,0x00,0x12,0x4f,0x38,0x1c,0x4f,0x00,0x0c,0x4e,0x41,0x19,0x4e,
0x00,0x12,0x4c,0x38,0x19,0x4c,0x00,0x0c,0x4e,0x32,0x1f,0x4e,0x00,0x09,0x51,0x43,
0x1e,0x51,0x00,0x0a,0x4f,0x3e,0x1c,0x4f,0x00,0x0c,0x51,0x40,0x1b,0x51,0x00,0x37,
0x4e,0x3a,0x17,0x4e,0x00,0x11,0x4c,0x1d,0x23,0x4c,0x00,0x82,0x75,0x3a,0x4b,0x1b,
0x3a,0x00,0x0d,0x3c,0x2e,0x1a,0x3c,0x00,0x04,0x3d,0x48,0x1a,0x3d,0x00,0x10,0x3c,
0x3f,0x15,0x3c,0x00,0x13,0x3d,0x49,0x15,0x3d,0x00,0x0b,0x3f,0x47,0x10,0x3f,0x00,
0x22,0x3f,0x48,0x16,0x3f,0x00,0x0e,0x40,0x37,0x21,0x42,0x44,0x01,0x40,0x00,0x0a,
0x42,0x00,0x24,0x42,0x50,0x24,0x42,0x00,0x04,0x43,0x45,0x27,0x43,0x00,0x01,0x45,
0x3a,0x15,0x45,0x00,0x13,0x45,0x46,0x21,0x45,0x00,0x07,0x46,0x40,0x20,0x46,0x00,
0x08,0x48,0x35,0x0f,0x48,0x00,0x19,0x48,0x3a,0x20,0x48,0x00,0x08,0x49,0x3c,0x21,
0x49,0x00,0x07,0x4b,0x3f,0x21,0x4b,0x00,0x07,0x4c,0x41,0x81,0x23,0x4c,0x00,0x85,
0x25,0x3a,0x56,0x22,0x3a,0x00,0x06,0x39,0x33,0x19,0x39,0x00,0x0f,0x3c,0x48,0x24,
0x3c,0x00,0x04,0x3a,0x51,0x16,0x3a,0x00,0x12,0x3d,0x4a,0x20,0x3d,0x00,0x08,0x3c,
0x54,0x26,0x3c,0x00,0x81,0x6b,0x45,0x54,0x21,0x45,0x00,0x08,0x43,0x3e,0x1b,0x43,
0x00,0x0e,0x46,0x52,0x22,0x46,0x00,0x02,0x45,0x3f,0x1c,0x45,0x00,0x11,0x48,0x37,
0x23,0x48,0x00,0x03,0x46,0x4d,0x0e,0x46,0x00,0x00,0xff,0x2f,0x00,0x4d,0x54,0x72,
0x6b,0x00,0x00,0x0a,0x5a,0x00,0xff,0x21,0x01,0x00,0x00,0xff,0x03,0x09,0x56,0x49,
0x4f,0x4c,0x41,0x20,0x20,0x20,0x20,0x00,0xc8,0x29,0x00,0xb8,0x07,0x78,0xd9,0x7d,
0x98,0x37,0x3a,0x24,0x37,0x00,0x05,0x39,0x44,0x1e,0x39,0x00,0x05,0x3a,0x4b,0x2c,
0x3a,0x00,0x2b,0x48,0x30,0x00,0x45,0x34,0x28,0x45,0x00,0x00,0x46,0x46,0x00,0x43,
0x3b,0x01,0x48,0x00,0x1f,0x46,0x00,0x07,0x43,0x00,0x01,0x45,0x4a,0x00,0x42,0x4d,
0x1c,0x45,0x00,0x05,0x42,0x00,0x2f,0x48,0x49,0x00,0x4b,0x45,0x23,0x4b,0x00,0x01,
0x48,0x00,0x04,0x49,0x3d,0x00,0x46,0x48,0x17,0x46,0x00,0x02,0x49,0x00,0x0f,0x48,
0x3b,0x00,0x45,0x4a,0x1b,0x45,0x00,0x03,0x48,0x00,0x0a,0x46,0x3d,0x00,0x43,0x3c,
0x1b,0x43,0x00,0x07,0x46,0x00,0x06,0x45,0x45,0x00,0x42,0x50,0x21,0x42,0x00,0x02,
0x45,0x00,0x05,0x43,0x3a,0x00,0x40,0x2d,0x21,0x43,0x00,0x05,0x40,0x00,0x02,0x45,
0x42,0x00,0x42,0x4b,0x1c,0x45,0x00,0x07,0x42,0x00,0x05,0x48,0x40,0x00,0x45,0x4a,
0x1c,0x48,0x00,0x0a,0x45,0x00,0x02,0x43,0x3a,0x00,0x46,0x46,0x14,0x46,0x00,0x08,
0x43,0x00,0x0c,0x48,0x48,0x00,0x45,0x4c,0x24,0x48,0x00,0x06,0x45,0x00,0x26,0x42,
0x45,0x00,0x45,0x45,0x1e,0x45,0x00,0x02,0x42,0x00,0x08,0x40,0x2c,0x00,0x43,0x39,
0x1f,0x43,0x00,0x07,0x40,0x00,0x02,0x45,0x3e,0x00,0x42,0x4d,0x1c,0x45,0x00,0x0c,
0x42,0x00,0x00,0x48,0x3f,0x00,0x45,0x47,0x21,0x48,0x00,0x03,0x45,0x00,0x04,0x43,
0x44,0x00,0x46,0x4f,0x1b,0x46,0x00,0x01,0x43,0x00,0x0c,0x48,0x3f,0x00,0x45,0x41,
0x1e,0x48,0x00,0x05,0x45,0x00,0x05,0x4b,0x3c,0x00,0x48,0x4b,0x24,0x48,0x00,0x04,
0x4b,0x00,0x00,0x49,0x4e,0x00,0x46,0x51,0x15,0x46,0x00,0x00,0x49,0x00,0x3b,0x48,
0x42,0x00,0x45,0x40,0x21,0x45,0x00,0x00,0x48,0x00,0x07,0x43,0x31,0x00,0x46,0x47,
0x20,0x46,0x00,0x03,0x43,0x00,0x05,0x42,0x58,0x00,0x45,0x4d,0x1c,0x45,0x00,0x06,
0x42,0x00,0x2e,0x48,0x4d,0x00,0x4b,0x40,0x19,0x48,0x00,0x04,0x4b,0x00,0x0b,0x49,
0x4b,0x00,0x46,0x4b,0x1b,0x49,0x00,0x01,0x46,0x00,0x0c,0x48,0x47,0x00,0x45,0x4b,
0x19,0x45,0x00,0x06,0x48,0x00,0x09,0x46,0x4b,0x00,0x43,0x4e,0x19,0x46,0x00,0x01,
0x43,0x00,0x0e,0x45,0x44,0x00,0x42,0x55,0x1b,0x42,0x00,0x00,0x45,0x00,0x0d,0x43,
0x44,0x00,0x40,0x42,0x19,0x43,0x00,0x03,0x40,0x00,0x0c,0x45,0x4a,0x00,0x42,0x56,
0x15,0x45,0x00,0x0a,0x42,0x00,0x09,0x48,0x48,0x00,0x45,0x3f,0x1c,0x45,0x00,0x03,
0x48,0x00,0x09,0x43,0x3a,0x00,0x46,0x4f,0x19,0x46,0x00,0x06,0x43,0x00,0x09,0x45,
0x59,0x00,0x48,0x56,0x1b,0x48,0x00,0x05,0x45,0x00,0x30,0x45,0x3d,0x00,0x42,0x56,
0x1e,0x45,0x00,0x03,0x42,0x00,0x07,0x40,0x31,0x00,0x43,0x40,0x1c,0x43,0x00,0x05,
0x40,0x00,0x07,0x45,0x4d,0x00,0x42,0x54,0x1a,0x42,0x00,0x05,0x45,0x00,0x09,0x48,
0x45,0x00,0x45,0x50,0x15,0x45,0x00,0x04,0x48,0x00,0x0f,0x43,0x4a,0x00,0x46,0x58,
0x1f,0x43,0x00,0x01,0x46,0x00,0x08,0x48,0x53,0x00,0x45,0x4d,0x1f,0x48,0x00,0x03,
0x45,0x00,0x06,0x4b,0x58,0x00,0x48,0x57,0x1f,0x48,0x00,0x04,0x4b,0x00,0x05,0x46,
0x61,0x00,0x49,0x60,0x14,0x49,0x00,0x03,0x46,0x00,0x97,0x21,0x39,0x26,0x24,0x39,
0x00,0x04,0x3d,0x3e,0x28,0x3f,0x41,0x03,0x3d,0x00,0x1b,0x3f,0x00,0x0a,0x40,0x45,
0x23,0x40,0x00,0x05,0x45,0x4a,0x20,0x45,0x00,0x08,0x43,0x51,0x25,0x43,0x00,0x03,
0x48,0x5b,0x29,0x48,0x00,0x77,0x3a,0x6d,0x25,0x3a,0x00,0x03,0x37,0x4f,0x22,0x37,
0x00,0x06,0x36,0x53,0x21,0x36,0x00,0x25,0x3a,0x54,0x1e,0x3a,0x00,0x00,0x37,0x45,
0x1e,0x36,0x51,0x01,0x37,0x00,0x15,0x36,0x00,0x08,0x37,0x54,0x17,0x37,0x00,0x07,
0x39,0x50,0x1b,0x39,0x00,0x03,0x3a,0x5f,0x1e,0x3c,0x56,0x03,0x3a,0x00,0x20,0x3c,
0x00,0x3f,0x46,0x5f,0x19,0x43,0x4c,0x05,0x46,0x00,0x19,0x43,0x00,0x03,0x42,0x53,
0x19,0x42,0x00,0x54,0x46,0x58,0x1c,0x46,0x00,0x04,0x43,0x49,0x1a,0x43,0x00,0x03,
0x42,0x4d,0x1d,0x40,0x59,0x03,0x42,0x00,0x16,0x40,0x00,0x46,0x45,0x5f,0x10,0x45,
0x00,0x0c,0x42,0x49,0x12,0x42,0x00,0x06,0x43,0x42,0x1c,0x43,0x00,0x07,0x45,0x3b,
0x1c,0x45,0x00,0x03,0x46,0x41,0x1a,0x46,0x00,0x02,0x49,0x34,0x17,0x49,0x00,0x02,
0x4a,0x60,0x14,0x4a,0x00,0x0e,0x4a,0x4e,0x14,0x4a,0x00,0x0b,0x4a,0x67,0x13,0x4a,
0x00,0x0a,0x4a,0x5f,0x16,0x4a,0x00,0x49,0x42,0x5f,0x17,0x42,0x00,0x05,0x45,0x56,
0x0e,0x45,0x00,0x0d,0x43,0x4a,0x19,0x43,0x00,0x06,0x45,0x35,0x19,0x46,0x44,0x03,
0x45,0x00,0x17,0x46,0x00,0x06,0x48,0x53,0x19,0x48,0x00,0x07,0x49,0x66,0x10,0x49,
0x00,0x0c,0x49,0x55,0x10,0x49,0x00,0x0b,0x49,0x6b,0x0f,0x49,0x00,0x14,0x49,0x59,
0x10,0x49,0x00,0x4d,0x4c,0x40,0x17,0x4c,0x00,0x05,0x49,0x3d,0x1b,0x48,0x45,0x03,
0x49,0x00,0x16,0x48,0x00,0x61,0x4c,0x48,0x1b,0x4c,0x00,0x01,0x49,0x3c,0x1b,0x48,
0x48,0x03,0x49,0x00,0x16,0x48,0x00,0x07,0x40,0x4b,0x1b,0x40,0x00,0x4d,0x4c,0x45,
0x15,0x4c,0x00,0x05,0x49,0x4b,0x16,0x49,0x00,0x05,0x48,0x51,0x1c,0x48,0x00,0x03,
0x46,0x4a,0x1b,0x45,0x3d,0x03,0x46,0x00,0x17,0x45,0x00,0x07,0x43,0x51,0x1e,0x43,
0x00,0x00,0x4c,0x50,0x1e,0x4c,0x00,0x00,0x4e,0x4d,0x1e,0x4f,0x47,0x01,0x4e,0x00,
0x19,0x4f,0x00,0x04,0x51,0x21,0x1b,0x51,0x00,0x81,0x8e,0x43,0xc8,0x2c,0x83,0x60,
0x98,0x3a,0x58,0x17,0x3a,0x00,0x07,0x39,0x4a,0x1a,0x39,0x00,0x04,0x37,0x33,0x1b,
0x37,0x00,0x03,0x35,0x45,0x1a,0x35,0x00,0x04,0x3a,0x59,0x15,0x3a,0x00,0x09,0x39,
0x3c,0x17,0x39,0x00,0x07,0x37,0x2e,0x17,0x37,0x00,0x07,0x35,0x47,0x15,0x35,0x00,
0x09,0x3a,0x59,0x1b,0x3a,0x00,0x03,0x39,0x42,0x1d,0x39,0x00,0x01,0x37,0x30,0x16,
0x37,0x00,0x08,0x35,0x49,0x19,0x35,0x00,0x05,0x3f,0x55,0x19,0x3f,0x00,0x05,0x3e,
0x53,0x16,0x3e,0x00,0x08,0x3c,0x48,0x1c,0x3c,0x00,0x02,0x3a,0x4a,0x0a,0x3a,0x00,
0x10,0x3a,0x64,0x19,0x3a,0x00,0x03,0x39,0x44,0x1d,0x39,0x00,0x02,0x37,0x29,0x14,
0x37,0x00,0x03,0x35,0x41,0x23,0x35,0x00,0x02,0x3a,0x5d,0x1a,0x3a,0x00,0x03,0x39,
0x42,0x16,0x39,0x00,0x09,0x37,0x2c,0x12,0x37,0x00,0x05,0x35,0x4a,0x25,0x35,0x00,
0x05,0x3a,0x5c,0x17,0x3a,0x00,0x07,0x39,0x44,0x1b,0x39,0x00,0x03,0x37,0x30,0x16,
0x37,0x00,0x08,0x35,0x53,0x15,0x35,0x00,0x09,0x3f,0x52,0x13,0x3f,0x00,0x0b,0x3e,
0x55,0x1a,0x3e,0x00,0x04,0x3c,0x46,0x1a,0x3c,0x00,0x04,0x3a,0x52,0x12,0x3a,0x00,
0x08,0x3a,0x60,0x15,0x3a,0x00,0x06,0x39,0x41,0x1c,0x39,0x00,0x05,0x37,0x37,0x14,
0x37,0x00,0x03,0x35,0x4b,0x23,0x35,0x00,0x08,0x3a,0x57,0x14,0x3a,0x00,0x04,0x39,
0x3d,0x1d,0x39,0x00,0x03,0x37,0x3a,0x14,0x37,0x00,0x04,0x35,0x46,0x1e,0x35,0x00,
0x05,0x3a,0x60,0x15,0x3a,0x00,0x06,0x39,0x3f,0x16,0x39,0x00,0x02,0x37,0x3e,0x19,
0x37,0x00,0x05,0x35,0x4d,0x1a,0x35,0x00,0x0b,0x3f,0x4a,0x12,0x3f,0x00,0x05,0x3e,
0x4e,0x1c,0x3e,0x00,0x06,0x3c,0x47,0x21,0x3c,0x00,0x02,0x3a,0x5f,0x09,0x3a,0x00,
0x18,0x3a,0x62,0x19,0x3a,0x00,0x05,0x39,0x43,0x1c,0x39,0x00,0x02,0x37,0x3f,0x19,
0x37,0x00,0x05,0x35,0x48,0x19,0x35,0x00,0x05,0x3a,0x5c,0x1c,0x3a,0x00,0x02,0x39,
0x42,0x1c,0x39,0x00,0x02,0x37,0x2c,0x1b,0x37,0x00,0x03,0x35,0x44,0x1a,0x35,0x00,
0x04,0x3a,0x60,0x1b,0x3a,0x00,0x03,0x39,0x29,0x18,0x39,0x00,0x06,0x37,0x2a,0x1b,
0x37,0x00,0x03,0x35,0x50,0x1c,0x35,0x00,0x02,0x3f,0x4a,0x10,0x3f,0x00,0x07,0x3e,
0x50,0x18,0x3e,0x00,0x0b,0x3c,0x4a,0x1a,0x3c,0x00,0x06,0x3a,0x62,0x0a,0x3a,0x00,
0x0f,0x3a,0x59,0x05,0x3a,0x3c,0x04,0x3a,0x00,0x01,0x3a,0x00,0x19,0x39,0x38,0x14,
0x39,0x00,0x05,0x37,0x32,0x19,0x37,0x00,0x05,0x35,0x35,0x17,0x35,0x00,0x05,0x3a,
0x46,0x15,0x3a,0x00,0x06,0x39,0x40,0x1e,0x39,0x00,0x05,0x37,0x31,0x14,0x37,0x00,
0x05,0x35,0x3a,0x22,0x35,0x00,0x0e,0x3f,0x22,0x15,0x3f,0x00,0x06,0x3e,0x36,0x15,
0x3e,0x00,0x09,0x3c,0x35,0x14,0x3c,0x00,0x05,0x3a,0x4e,0x17,0x3a,0x00,0x07,0x3a,
0x53,0x19,0x3a,0x00,0x05,0x39,0x31,0x14,0x39,0x00,0x0a,0x37,0x2d,0x13,0x37,0x00,
0x0b,0x35,0x37,0x1c,0x35,0x00,0x09,0x3a,0x54,0x17,0x3a,0x00,0x03,0x39,0x3a,0x17,
0x39,0x00,0x06,0x37,0x2b,0x10,0x37,0x00,0x05,0x35,0x37,0x1b,0x35,0x00,0x07,0x3a,
0x53,0x19,0x3a,0x00,0x05,0x39,0x18,0x11,0x39,0x00,0x04,0x37,0x32,0x19,0x37,0x00,
0x04,0x35,0x37,0x17,0x35,0x00,0x16,0x41,0x44,0x14,0x41,0x00,0x08,0x3f,0x44,0x17,
0x3f,0x00,0x09,0x3e,0x42,0x0f,0x3e,0x00,0x03,0x3c,0x3a,0x12,0x3c,0x00,0x13,0x3c,
0x48,0x18,0x3c,0x00,0x06,0x3a,0x35,0x15,0x3a,0x00,0x09,0x39,0x32,0x12,0x39,0x00,
0x05,0x37,0x3f,0x1b,0x37,0x00,0x0d,0x3a,0x48,0x18,0x3a,0x00,0x06,0x39,0x2a,0x0f,
0x39,0x00,0x05,0x37,0x37,0x16,0x37,0x00,0x0a,0x35,0x30,0x1b,0x35,0x00,0x0b,0x33,
0x56,0x14,0x33,0x00,0x0a,0x32,0x38,0x15,0x32,0x00,0x09,0x31,0x29,0x13,0x31,0x00,
0x0b,0x2e,0x47,0x17,0x2e,0x00,0x07,0x33,0x52,0x14,0x33,0x00,0x07,0x32,0x4b,0x14,
0x32,0x00,0x08,0x31,0x32,0x0f,0x31,0x00,0x07,0x2e,0x3f,0x1c,0x2e,0x00,0x0a,0x35,
0x4d,0x1b,0x35,0x00,0x0a,0x33,0x3d,0x15,0x33,0x00,0x04,0x32,0x3e,0x12,0x32,0x00,
0x07,0x31,0x4c,0x18,0x31,0x00,0x15,0x3a,0x4f,0x16,0x3a,0x00,0x03,0x39,0x30,0x12,
0x39,0x00,0x07,0x37,0x37,0x17,0x37,0x00,0x03,0x35,0x45,0x21,0x35,0x00,0x01,0x3c,
0x3e,0x19,0x3c,0x00,0x08,0x3a,0x38,0x18,0x3a,0x00,0x01,0x39,0x30,0x15,0x39,0x00,
0x0b,0x37,0x31,0x1b,0x37,0x00,0x06,0x3f,0x37,0x14,0x3f,0x00,0x05,0x3e,0x42,0x16,
0x3e,0x00,0x05,0x3c,0x37,0x18,0x3c,0x00,0x09,0x3a,0x50,0x0e,0x3a,0x00,0x17,0x3c,
0x4a,0x17,0x3c,0x00,0x0a,0x3a,0x48,0x12,0x3a,0x00,0x09,0x39,0x38,0x17,0x39,0x00,
0x08,0x37,0x3a,0x17,0x37,0x00,0x0b,0x3a,0x56,0x17,0x3a,0x00,0x07,0x39,0x14,0x10,
0x39,0x00,0x09,0x37,0x2e,0x18,0x37,0x00,0x06,0x35,0x3b,0x17,0x35,0x00,0x0c,0x3f,
0x47,0x1a,0x3f,0x00,0x07,0x3e,0x42,0x14,0x3e,0x00,0x03,0x3c,0x31,0x1b,0x3c,0x00,
0x05,0x3a,0x37,0x1c,0x3a,0x00,0x07,0x3f,0x52,0x13,0x3f,0x00,0x0b,0x3e,0x34,0x11,
0x3e,0x00,0x0a,0x3c,0x35,0x17,0x3c,0x00,0x0a,0x3a,0x45,0x0f,0x3a,0x00,0x16,0x3a,
0x5a,0x13,0x3a,0x00,0x07,0x39,0x28,0x14,0x39,0x00,0x09,0x37,0x3a,0x1c,0x37,0x00,
0x16,0x3c,0x4b,0x15,0x3c,0x00,0x07,0x3a,0x3d,0x15,0x3a,0x00,0x07,0x39,0x38,0x17,
0x39,0x00,0x06,0x37,0x2b,0x17,0x37,0x00,0x08,0x39,0x57,0x1b,0x39,0x00,0x08,0x37,
0x39,0x16,0x37,0x00,0x0a,0x35,0x2c,0x14,0x35,0x00,0x05,0x33,0x40,0x1c,0x33,0x00,
0x0e,0x3f,0x50,0x17,0x3f,0x00,0x05,0x3e,0x48,0x17,0x3e,0x00,0x04,0x3c,0x40,0x1a,
0x3c,0x00,0x04,0x3a,0x52,0x11,0x3a,0x00,0x0b,0x3c,0x45,0x18,0x3c,0x00,0x08,0x3a,
0x3f,0x18,0x3a,0x00,0x0b,0x39,0x38,0x17,0x39,0x00,0x03,0x37,0x37,0x13,0x37,0x00,
0x0a,0x3f,0x46,0x16,0x3f,0x00,0x03,0x3e,0x43,0x13,0x3e,0x00,0x09,0x3c,0x34,0x12,
0x3c,0x00,0x07,0x3a,0x46,0x1c,0x3a,0x00,0x07,0x3f,0x51,0x14,0x3f,0x00,0x07,0x3e,
0x3e,0x16,0x3e,0x00,0x06,0x3c,0x41,0x16,0x3c,0x00,0x05,0x3a,0x43,0x1d,0x3a,0x00,
0x0b,0x44,0x43,0x18,0x44,0x00,0x02,0x43,0x1d,0x18,0x43,0x00,0x01,0x41,0x35,0x18,
0x41,0x00,0x08,0x3f,0x4b,0x0f,0x3f,0x00,0x16,0x3f,0x5a,0x1b,0x3f,0x00,0x06,0x3e,
0x2e,0x0e,0x3e,0x00,0x04,0x3c,0x3b,0x1c,0x3c,0x00,0x02,0x3a,0x47,0x1e,0x3a,0x00,
0x07,0x3f,0x5d,0x13,0x3f,0x00,0x06,0x3e,0x4a,0x1f,0x3e,0x00,0x02,0x3c,0x42,0x1d,
0x3c,0x00,0x05,0x3a,0x4c,0x19,0x3a,0x00,0x01,0x39,0x48,0x14,0x39,0x00,0x09,0x37,
0x45,0x14,0x37,0x00,0x08,0x35,0x40,0x17,0x35,0x00,0x07,0x33,0x47,0x17,0x33,0x00,
0x0a,0x35,0x58,0x14,0x35,0x00,0x0c,0x33,0x4f,0x20,0x33,0x00,0x05,0x32,0x42,0x12,
0x32,0x00,0x05,0x30,0x3a,0x15,0x30,0x00,0x09,0x39,0x55,0x15,0x39,0x00,0x09,0x37,
0x53,0x14,0x37,0x00,0x0a,0x35,0x3f,0x15,0x35,0x00,0x09,0x33,0x44,0x17,0x33,0x00,
0x00,0x3e,0x56,0x7a,0x3e,0x00,0x04,0x42,0x56,0x75,0x42,0x00,0x04,0x3e,0x54,0x6d,
0x3e,0x00,0x04,0x42,0x56,0x7d,0x42,0x00,0x02,0x3e,0x51,0x74,0x3e,0x00,0x04,0x42,
0x54,0x76,0x42,0x00,0x02,0x3e,0x55,0x75,0x3e,0x00,0x03,0x42,0x5b,0x6d,0x42,0x00,
0x0b,0x3e,0x55,0x74,0x3e,0x00,0x04,0x42,0x54,0x75,0x42,0x00,0x03,0x3e,0x54,0x73,
0x3e,0x00,0x05,0x42,0x56,0x6f,0x42,0x00,0x09,0x3e,0x57,0x77,0x3e,0x00,0x01,0x42,
0x5b,0x77,0x42,0x00,0x01,0x3e,0x53,0x77,0x3e,0x00,0x01,0x42,0x54,0x6b,0x42,0x00,
0x0d,0x3e,0x53,0x75,0x3e,0x00,0x03,0x42,0x5b,0x76,0x42,0x00,0x02,0x3e,0x58,0x77,
0x3e,0x00,0x01,0x42,0x58,0x74,0x42,0x00,0x04,0x3e,0x52,0x76,0x3e,0x00,0x02,0x42,
0x57,0x72,0x42,0x00,0x06,0x3e,0x3f,0x73,0x3e,0x00,0x05,0x42,0x5c,0x75,0x42,0x00,
0x03,0x3e,0x56,0x72,0x3e,0x00,0x06,0x42,0x50,0x74,0x42,0x00,0x04,0x3e,0x59,0x78,
0x42,0x56,0x02,0x3e,0x00,0x75,0x42,0x00,0x01,0x3e,0x5d,0x78,0x42,0x5c,0x03,0x3e,
0x00,0x72,0x42,0x00,0x03,0x3e,0x53,0x72,0x3e,0x00,0x06,0x42,0x56,0x76,0x42,0x00,
0x02,0x3e,0x5b,0x77,0x3e,0x00,0x01,0x42,0x5b,0x71,0x42,0x00,0x07,0x3e,0x5e,0x6f,
0x3e,0x00,0x09,0x42,0x62,0x51,0x42,0x00,0xb1,0x7f,0x3d,0x5a,0x00,0x38,0x59,0x3d,
0x3d,0x00,0x04,0x38,0x00,0x37,0x3d,0x57,0x00,0x38,0x54,0x3a,0x3d,0x00,0x03,0x38,
0x00,0x2f,0x3d,0x57,0x00,0x38,0x57,0x33,0x3d,0x00,0x03,0x38,0x00,0x46,0x38,0x54,
0x01,0x3d,0x54,0x36,0x3d,0x00,0x05,0x38,0x00,0x3c,0x3d,0x56,0x00,0x38,0x57,0x3c,
0x3d,0x00,0x03,0x38,0x00,0x3c,0x3d,0x5a,0x00,0x38,0x5b,0x2a,0x3d,0x00,0x04,0x38,
0x00,0x2c,0x38,0x5c,0x02,0x3d,0x5b,0x1e,0x3d,0x00,0x06,0x38,0x00,0x2c,0x3d,0x57,
0x00,0x38,0x54,0x2c,0x3d,0x00,0x02,0x38,0x00,0x81,0x11,0x38,0x5e,0x01,0x3d,0x5d,
0x3f,0x3d,0x00,0x03,0x38,0x00,0x6f,0x3d,0x60,0x00,0x38,0x60,0x2e,0x3d,0x00,0x04,
0x38,0x00,0x42,0x3d,0x60,0x00,0x38,0x5f,0x23,0x3d,0x00,0x06,0x38,0x00,0x81,0x0c,
0x38,0x65,0x02,0x3d,0x62,0x1c,0x3d,0x00,0x05,0x38,0x00,0x1e,0x3d,0x56,0x00,0x38,
0x53,0x28,0x3d,0x00,0x06,0x38,0x00,0x53,0x3d,0x64,0x00,0x38,0x64,0x2d,0x3d,0x00,
0x05,0x38,0x00,0x42,0x3d,0x61,0x00,0x38,0x5e,0x29,0x38,0x00,0x02,0x3d,0x00,0x81,
0x0d,0x3d,0x63,0x00,0x38,0x63,0x26,0x3d,0x00,0x06,0x38,0x00,0x81,0x35,0x3d,0x63,
0x00,0x38,0x63,0x2b,0x3d,0x00,0x05,0x38,0x00,0x81,0x39,0x3d,0x63,0x0f,0x38,0x64,
0x13,0x3d,0x00,0x13,0x38,0x00,0x12,0x3d,0x55,0x00,0x38,0x57,0x26,0x3d,0x00,0x07,
0x38,0x00,0x50,0x3d,0x64,0x00,0x38,0x63,0x28,0x3d,0x00,0x05,0x38,0x00,0x4a,0x38,
0x62,0x02,0x3d,0x65,0x1f,0x38,0x00,0x01,0x3d,0x00,0x81,0x15,0x49,0x5b,0x00,0x44,
0x61,0x2a,0x44,0x00,0x01,0x49,0x00,0x45,0x49,0x5b,0x00,0x44,0x5f,0x30,0x49,0x00,
0x02,0x44,0x00,0x46,0x44,0x5b,0x00,0x49,0x59,0x32,0x49,0x00,0x03,0x44,0x00,0x46,
0x49,0x59,0x00,0x44,0x5c,0x2d,0x44,0x00,0x00,0x49,0x00,0x4b,0x44,0x5d,0x00,0x49,
0x5a,0x2d,0x49,0x00,0x06,0x44,0x00,0x4f,0x44,0x61,0x02,0x49,0x5a,0x28,0x49,0x00,
0x02,0x44,0x00,0x2d,0x49,0x5f,0x00,0x44,0x61,0x21,0x49,0x00,0x03,0x44,0x00,0x28,
0x44,0x66,0x00,0x49,0x64,0x1e,0x49,0x00,0x03,0x44,0x00,0x00,0xff,0x2f,0x00,0x4d,
0x54,0x72,0x6b,0x00,0x00,0x06,0x25,0x00,0xff,0x21,0x01,0x00,0x00,0xff,0x03,0x09,
0x48,0x41,0x52,0x50,0x20,0x20,0x20,0x20,0x20,0x00,0xc2,0x2e,0x00,0xb2,0x07,0x64,
0xa4,0x43,0x92,0x38,0x3d,0x13,0x38,0x00,0x07,0x39,0x54,0x10,0x39,0x00,0x05,0x3b,
0x47,0x0b,0x3b,0x00,0x05,0x3c,0x4f,0x0a,0x3c,0x00,0x04,0x3d,0x58,0x0c,0x3d,0x00,
0x03,0x3f,0x4d,0x0d,0x3f,0x00,0x03,0x40,0x4d,0x0d,0x40,0x00,0x01,0x44,0x4b,0x0c,
0x44,0x00,0x03,0x45,0x4c,0x0c,0x45,0x00,0x03,0x47,0x50,0x0e,0x47,0x00,0x01,0x48,
0x50,0x0f,0x48,0x00,0x00,0x49,0x45,0x0d,0x49,0x00,0x00,0x4b,0x52,0x0c,0x4b,0x00,
0x02,0x4c,0x53,0x0c,0x4c,0x00,0x02,0x50,0x50,0x0d,0x50,0x00,0x02,0x51,0x51,0x0a,
0x51,0x00,0x02,0x53,0x57,0x0c,0x54,0x58,0x01,0x53,0x00,0x08,0x54,0x00,0x02,0x55,
0x5c,0x0a,0x55,0x00,0x02,0x57,0x59,0x0c,0x58,0x56,0x01,0x57,0x00,0x09,0x58,0x00,
0x00,0x5c,0x58,0x0b,0x5c,0x00,0x00,0x5d,0x4d,0x08,0x5d,0x00,0xec,0x0f,0xb2,0x07,
0x50,0x00,0xc2,0x2e,0x08,0x92,0x31,0x67,0x21,0x31,0x00,0x04,0x34,0x50,0x0b,0x34,
0x00,0x02,0x35,0x58,0x06,0x35,0x00,0x03,0x37,0x5f,0x04,0x37,0x00,0x02,0x38,0x52,
0x05,0x38,0x00,0x04,0x3a,0x51,0x04,0x3a,0x00,0x02,0x3c,0x5c,0x04,0x3c,0x00,0x04,
0x3d,0x5c,0x04,0x3d,0x00,0x02,0x40,0x62,0x04,0x40,0x00,0x03,0x41,0x5d,0x03,0x41,
0x00,0x03,0x43,0x61,0x03,0x43,0x00,0x04,0x44,0x57,0x05,0x44,0x00,0x01,0x46,0x5b,
0x05,0x46,0x00,0x02,0x48,0x5e,0x05,0x48,0x00,0x02,0x49,0x5f,0x05,0x49,0x00,0x01,
0x4c,0x62,0x05,0x4c,0x00,0x02,0x4d,0x63,0x04,0x4d,0x00,0x03,0x4f,0x60,0x06,0x50,
0x5e,0x02,0x4f,0x00,0x06,0x52,0x63,0x03,0x50,0x00,0x05,0x54,0x66,0x05,0x52,0x00,
0x04,0x55,0x66,0x07,0x54,0x00,0x00,0x58,0x63,0x06,0x55,0x00,0x04,0x59,0x64,0x07,
0x5b,0x68,0x01,0x59,0x00,0x00,0x58,0x00,0x06,0x5b,0x00,0x02,0x5c,0x6e,0x0a,0x5c,
0x00,0xf0,0x44,0xc2,0x2e,0x00,0xb2,0x07,0x5a,0x0c,0x92,0x52,0x59,0x16,0x4f,0x1a,
0x0d,0x52,0x00,0x0f,0x4d,0x3b,0x0a,0x4f,0x00,0x10,0x4d,0x3f,0x0b,0x4d,0x00,0x00,
0x4d,0x00,0x0d,0x4b,0x48,0x13,0x48,0x48,0x0a,0x4b,0x00,0x0b,0x48,0x48,0x09,0x48,
0x00,0x00,0x48,0x00,0x0b,0x46,0x4a,0x0f,0x43,0x55,0x0b,0x43,0x00,0x00,0x46,0x00,
0x09,0x52,0x4a,0x14,0x4f,0x2e,0x0a,0x52,0x00,0x0d,0x4d,0x2a,0x0a,0x4f,0x00,0x13,
0x4d,0x2c,0x08,0x4d,0x00,0x00,0x4d,0x00,0x14,0x4b,0x35,0x17,0x48,0x2d,0x03,0x4b,
0x00,0x15,0x48,0x30,0x09,0x48,0x00,0x01,0x48,0x00,0x08,0x46,0x3d,0x0a,0x46,0x00,
0x0a,0x54,0x42,0x0f,0x52,0x47,0x0a,0x54,0x00,0x0a,0x4f,0x42,0x0b,0x52,0x00,0x0e,
0x4d,0x3d,0x0c,0x4f,0x00,0x11,0x4d,0x37,0x0b,0x4d,0x00,0x00,0x4d,0x00,0x16,0x4b,
0x38,0x1c,0x48,0x43,0x09,0x4b,0x00,0x0e,0x48,0x4e,0x0b,0x48,0x00,0x00,0x48,0x00,
0x0a,0x46,0x44,0x0a,0x46,0x00,0x01,0x54,0x1e,0x02,0x52,0x3e,0x0f,0x54,0x00,0x06,
0x4f,0x0e,0x0e,0x52,0x00,0x0e,0x4d,0x0b,0x0a,0x4f,0x00,0x10,0x4d,0x18,0x09,0x4d,
0x00,0x00,0x4d,0x00,0x0c,0x4b,0x3a,0x15,0x48,0x3a,0x08,0x4b,0x00,0x0b,0x48,0x35,
0x0b,0x48,0x00,0x00,0x48,0x00,0x10,0x46,0x30,0x16,0x43,0x3b,0x02,0x46,0x00,0x06,
0x43,0x00,0x16,0x52,0x5d,0x0d,0x4f,0x56,0x0a,0x52,0x00,0x0f,0x4d,0x51,0x09,0x4f,
0x00,0x16,0x4d,0x3e,0x0a,0x4d,0x00,0x00,0x4d,0x00,0x1b,0x4b,0x42,0x20,0x48,0x45,
0x09,0x4b,0x00,0x14,0x48,0x48,0x09,0x48,0x00,0x00,0x48,0x00,0x11,0x46,0x37,0x06,
0x52,0x4e,0x05,0x46,0x00,0x07,0x4f,0x44,0x09,0x52,0x00,0x0c,0x4d,0x3f,0x09,0x4f,
0x00,0x0d,0x4d,0x40,0x08,0x4d,0x00,0x00,0x4d,0x00,0x11,0x4b,0x3a,0x1b,0x48,0x36,
0x06,0x4b,0x00,0x18,0x48,0x38,0x0b,0x48,0x00,0x00,0x48,0x00,0x0f,0x46,0x3d,0x18,
0x43,0x30,0x01,0x46,0x00,0x0c,0x43,0x00,0x0a,0x52,0x3e,0x11,0x4f,0x45,0x0b,0x52,
0x00,0x0e,0x4d,0x42,0x0c,0x4f,0x00,0x15,0x4d,0x38,0x09,0x4d,0x00,0x01,0x4d,0x00,
0x16,0x4b,0x41,0x1b,0x48,0x3f,0x09,0x4b,0x00,0x15,0x48,0x3e,0x0a,0x48,0x00,0x00,
0x48,0x00,0x10,0x46,0x4a,0x09,0x46,0x00,0x0b,0x52,0x5b,0x0a,0x4f,0x2c,0x10,0x52,
0x00,0x11,0x4d,0x2d,0x08,0x4f,0x00,0x0d,0x4d,0x00,0x01,0x4d,0x3f,0x0d,0x4d,0x00,
0x02,0x4b,0x4d,0x0f,0x48,0x46,0x09,0x4b,0x00,0x0d,0x48,0x37,0x08,0x48,0x00,0x01,
0x48,0x00,0x0e,0x46,0x34,0x15,0x43,0x34,0x01,0x46,0x00,0x0b,0x52,0x1b,0x01,0x43,
0x00,0x10,0x4f,0x44,0x0b,0x52,0x00,0x0d,0x4d,0x4f,0x0b,0x4f,0x00,0x0e,0x4d,0x4c,
0x0b,0x4d,0x00,0x00,0x4d,0x00,0x11,0x4b,0x42,0x1d,0x48,0x46,0x0a,0x4b,0x00,0x10,
0x48,0x4a,0x0a,0x48,0x00,0x00,0x48,0x00,0x12,0x52,0x57,0x14,0x4f,0x07,0x0b,0x52,
0x00,0x0d,0x4d,0x38,0x0a,0x4f,0x00,0x0f,0x4d,0x39,0x0a,0x4d,0x00,0x00,0x4d,0x00,
0x0e,0x4b,0x45,0x15,0x48,0x3f,0x08,0x4b,0x00,0x0d,0x48,0x3f,0x09,0x48,0x00,0x00,
0x48,0x00,0x0b,0x46,0x3f,0x12,0x43,0x3d,0x02,0x46,0x00,0x08,0x43,0x00,0x06,0x52,
0x54,0x15,0x4f,0x13,0x0f,0x52,0x00,0x17,0x4d,0x27,0x0c,0x4f,0x00,0x16,0x4d,0x3a,
0x0b,0x4d,0x00,0x00,0x4d,0x00,0x13,0x4b,0x3f,0x1c,0x48,0x3f,0x09,0x4b,0x00,0x15,
0x48,0x00,0x00,0x48,0x20,0x09,0x52,0x4a,0x02,0x48,0x00,0x03,0x4f,0x4a,0x0c,0x52,
0x00,0x0c,0x4d,0x19,0x0a,0x4f,0x00,0x0c,0x4d,0x37,0x0b,0x4d,0x00,0x00,0x4d,0x00,
0x0a,0x4b,0x41,0x12,0x48,0x45,0x08,0x4b,0x00,0x0d,0x48,0x3f,0x09,0x48,0x00,0x00,
0x48,0x00,0x0d,0x46,0x3d,0x17,0x43,0x3e,0x08,0x46,0x00,0x08,0x43,0x00,0x17,0x52,
0x5f,0x11,0x4f,0x3e,0x0e,0x52,0x00,0x17,0x4d,0x24,0x0d,0x4f,0x00,0x16,0x4d,0x3c,
0x0b,0x4d,0x00,0x00,0x4d,0x00,0x14,0x4b,0x3a,0x1e,0x48,0x39,0x0a,0x4b,0x00,0x12,
0x48,0x00,0x03,0x54,0x4a,0x0d,0x52,0x16,0x0a,0x54,0x00,0x0c,0x4f,0x29,0x0b,0x52,
0x00,0x0b,0x4d,0x2b,0x08,0x4f,0x00,0x0b,0x4d,0x37,0x08,0x4d,0x00,0x01,0x4d,0x00,
0x0a,0x4b,0x30,0x14,0x48,0x3d,0x0a,0x4b,0x00,0x09,0x48,0x47,0x07,0x48,0x00,0x01,
0x48,0x00,0x07,0x46,0x43,0x08,0x46,0x00,0x06,0x54,0x31,0x16,0x54,0x29,0x0b,0x54,
0x00,0x00,0x54,0x00,0x0d,0x52,0x38,0x16,0x4f,0x3f,0x0b,0x52,0x00,0x0a,0x4d,0x46,
0x0a,0x4f,0x00,0x0b,0x4d,0x49,0x09,0x4d,0x00,0x00,0x4d,0x00,0x0d,0x4b,0x48,0x0f,
0x4b,0x00,0x18,0x54,0x2b,0x01,0x57,0x12,0x0b,0x57,0x00,0x00,0x54,0x22,0x0b,0x54,
0x00,0x00,0x54,0x00,0x05,0x52,0x2b,0x11,0x4f,0x23,0x0c,0x52,0x00,0x05,0x4d,0x2f,
0x09,0x4f,0x00,0x07,0x4d,0x35,0x09,0x4d,0x00,0x01,0x4d,0x00,0x05,0x4b,0x3c,0x0d,
0x48,0x4e,0x0a,0x4b,0x00,0x05,0x48,0x4f,0x09,0x48,0x00,0x00,0x48,0x00,0x05,0x46,
0x49,0x08,0x59,0x14,0x02,0x46,0x00,0x13,0x57,0x31,0x0a,0x59,0x00,0x0a,0x54,0x34,
0x0a,0x57,0x00,0x08,0x54,0x30,0x0b,0x54,0x00,0x00,0x54,0x00,0x09,0x52,0x39,0x15,
0x4f,0x36,0x0a,0x52,0x00,0x0b,0x4d,0x3d,0x0b,0x4f,0x00,0x0a,0x4d,0x45,0x09,0x4d,
0x00,0x00,0x4d,0x00,0x1a,0x59,0x2b,0x01,0x59,0x3d,0x01,0x59,0x00,0x01,0x59,0x00,
0x15,0x57,0x11,0x09,0x54,0x26,0x0c,0x54,0x3a,0x02,0x57,0x00,0x09,0x54,0x00,0x01,
0x54,0x00,0x02,0x52,0x37,0x0f,0x4f,0x3d,0x0a,0x52,0x00,0x02,0x4d,0x3f,0x0b,0x4f,
0x00,0x03,0x4d,0x49,0x09,0x4d,0x00,0x00,0x4d,0x00,0x04,0x4b,0x56,0x0a,0x48,0x5c,
0x0b,0x4b,0x00,0x00,0x48,0x62,0x06,0x48,0x00,0x00,0x48,0x00,0x05,0x46,0x60,0x05,
0x46,0x00,0x04,0x43,0x4e,0x08,0x43,0x00,0x06,0x5e,0x62,0x19,0x5e,0x00,0x83,0x49,
0x2e,0x4c,0x10,0x2e,0x00,0x16,0x32,0x4f,0x08,0x32,0x00,0x02,0x35,0x54,0x1d,0x35,
0x00,0x07,0x37,0x49,0x0f,0x37,0x00,0x04,0x39,0x46,0x11,0x39,0x00,0x03,0x3c,0x4c,
0x1c,0x3c,0x00,0x07,0x3e,0x57,0x0d,0x3e,0x00,0x03,0x41,0x56,0x18,0x41,0x00,0x05,
0x43,0x5c,0x0c,0x43,0x00,0x03,0x45,0x5c,0x0a,0x45,0x00,0x03,0x48,0x5d,0x16,0x48,
0x00,0x04,0x4a,0x60,0x0c,0x4a,0x00,0x01,0x4d,0x59,0x16,0x4d,0x00,0x03,0x4f,0x4f,
0x09,0x4f,0x00,0x04,0x51,0x49,0x0c,0x51,0x00,0x00,0x54,0x47,0x0d,0x54,0x00,0x0c,
0x56,0x50,0x0b,0x59,0x4e,0x02,0x56,0x00,0x13,0x59,0x00,0x01,0x5b,0x55,0x08,0x5b,
0x00,0x02,0x5d,0x57,0x0a,0x54,0x4d,0x05,0x5d,0x00,0x05,0x54,0x00,0xcb,0x46,0xc2,
0x2e,0x7a,0x92,0x32,0x72,0x28,0x33,0x29,0x0a,0x32,0x00,0x0a,0x36,0x4f,0x0a,0x33,
0x00,0x05,0x37,0x51,0x0b,0x36,0x00,0x05,0x38,0x49,0x0c,0x37,0x00,0x05,0x3a,0x43,
0x0b,0x38,0x00,0x07,0x3c,0x47,0x08,0x3a,0x00,0x07,0x3e,0x4b,0x08,0x3c,0x00,0x06,
0x3f,0x44,0x08,0x3e,0x00,0x07,0x42,0x3f,0x07,0x3f,0x00,0x05,0x43,0x3e,0x0a,0x42,
0x00,0x03,0x44,0x3c,0x09,0x43,0x00,0x04,0x46,0x43,0x09,0x44,0x00,0x03,0x48,0x46,
0x09,0x46,0x00,0x02,0x4a,0x4a,0x09,0x48,0x00,0x01,0x4b,0x44,0x0a,0x4a,0x00,0x00,
0x4e,0x3d,0x09,0x4b,0x00,0x00,0x4f,0x39,0x09,0x4e,0x00,0x00,0x50,0x3e,0x08,0x52,
0x40,0x01,0x4f,0x00,0x08,0x54,0x45,0x01,0x50,0x00,0x08,0x56,0x49,0x02,0x52,0x00,
0x07,0x57,0x4c,0x02,0x54,0x00,0x04,0x5a,0x51,0x03,0x56,0x00,0x06,0x5a,0x00,0x00,
0x57,0x00,0x00,0x5b,0x4e,0x06,0x5b,0x00,0x00,0xff,0x2f,0x00,0x4d,0x54,0x72,0x6b,
0x00,0x00,0x06,0x6f,0x00,0xff,0x21,0x01,0x00,0x00,0xff,0x03,0x0b,0x48,0x4f,0x52,
0x4e,0x20,0x77,0x2f,0x34,0x74,0x68,0x73,0x00,0xc6,0x3c,0x00,0xb6,0x07,0x78,0x9b,
0x06,0x96,0x42,0x57,0x0d,0x42,0x00,0x0d,0x42,0x50,0x71,0x42,0x00,0x0c,0x3f,0x5e,
0x1f,0x3f,0x00,0x3b,0x42,0x50,0x0c,0x42,0x00,0x12,0x42,0x56,0x6a,0x42,0x00,0x09,
0x3f,0x5a,0x23,0x3f,0x00,0x31,0x45,0x50,0x11,0x45,0x00,0x0b,0x45,0x45,0x76,0x45,
0x00,0x08,0x44,0x4d,0x2b,0x44,0x00,0x13,0x45,0x47,0x17,0x45,0x00,0x02,0x44,0x48,
0x14,0x44,0x00,0x0a,0x42,0x57,0x1f,0x42,0x00,0x1f,0x3f,0x59,0x82,0x61,0x3f,0x00,
0xaa,0x17,0x3e,0x64,0x3a,0x3e,0x00,0x08,0x43,0x58,0x35,0x43,0x00,0x07,0x48,0x56,
0x36,0x48,0x00,0x08,0x46,0x56,0x83,0x11,0x46,0x00,0x15,0x46,0x5a,0x1e,0x46,0x00,
0x1f,0x48,0x4a,0x02,0x41,0x4e,0x81,0x0a,0x48,0x00,0x03,0x41,0x00,0x1f,0x48,0x4c,
0x00,0x41,0x50,0x1d,0x48,0x00,0x03,0x41,0x00,0x1d,0x48,0x4c,0x02,0x41,0x4b,0x81,
0x13,0x48,0x00,0x03,0x41,0x00,0x20,0x41,0x45,0x00,0x48,0x49,0x1a,0x48,0x00,0x09,
0x41,0x00,0x12,0x3e,0x53,0x00,0x45,0x52,0x13,0x45,0x00,0x07,0x3e,0x00,0x0e,0x45,
0x63,0x00,0x3e,0x5b,0x13,0x45,0x00,0x06,0x3e,0x00,0x0f,0x3e,0x59,0x00,0x45,0x51,
0x3a,0x3e,0x00,0x02,0x45,0x00,0x14,0x3e,0x5e,0x00,0x45,0x61,0x14,0x3e,0x00,0x01,
0x45,0x00,0x13,0x3e,0x5a,0x00,0x45,0x5b,0x11,0x3e,0x00,0x05,0x45,0x00,0x12,0x3e,
0x6a,0x00,0x45,0x62,0x1f,0x3e,0x00,0x07,0x45,0x00,0x81,0x4a,0x43,0x4a,0x67,0x43,
0x00,0x53,0x43,0x52,0x6c,0x43,0x00,0x43,0x40,0x52,0x38,0x40,0x00,0x3f,0x39,0x3f,
0x55,0x39,0x00,0x23,0x3c,0x5b,0x50,0x3c,0x00,0x28,0x39,0x50,0x4e,0x39,0x00,0x2a,
0x3c,0x4b,0x3d,0x3c,0x00,0x3b,0x43,0x49,0x6d,0x43,0x00,0x47,0x43,0x58,0x68,0x43,
0x00,0x4c,0x40,0x56,0x2e,0x40,0x00,0x43,0x39,0x51,0x4e,0x39,0x00,0x31,0x3c,0x5c,
0x4d,0x3c,0x00,0x88,0x63,0x43,0x50,0x00,0x4c,0x55,0x13,0x43,0x00,0x04,0x4c,0x00,
0x11,0x43,0x51,0x00,0x4c,0x53,0x13,0x43,0x00,0x01,0x4c,0x00,0x14,0x43,0x51,0x00,
0x4c,0x55,0x13,0x43,0x00,0x02,0x4c,0x00,0x13,0x4c,0x63,0x00,0x43,0x51,0x81,0x5f,
0x4c,0x00,0x11,0x50,0x4d,0x00,0x44,0x45,0x00,0x4c,0x3f,0x02,0x43,0x00,0x81,0x67,
0x50,0x00,0x02,0x4c,0x00,0x01,0x44,0x00,0x87,0x3d,0x45,0x62,0x35,0x45,0x00,0x86,
0x1a,0x4a,0x50,0x15,0x4a,0x00,0x13,0x46,0x50,0x0a,0x46,0x00,0x1e,0x4a,0x64,0x1b,
0x4a,0x00,0xbe,0x05,0x36,0x5c,0x8a,0x56,0x36,0x00,0x42,0x39,0x61,0x84,0x49,0x39,
0x00,0x0f,0x3a,0x55,0x76,0x3a,0x00,0x02,0x39,0x53,0x84,0x51,0x39,0x00,0x07,0x3a,
0x4d,0x76,0x3a,0x00,0x02,0x3d,0x51,0x8a,0x78,0x3d,0x00,0x28,0x43,0x35,0x71,0x43,
0x00,0x07,0x42,0x3a,0x6a,0x42,0x00,0x09,0x43,0x3c,0x73,0x44,0x3a,0x02,0x43,0x00,
0x73,0x44,0x00,0x0e,0x43,0x2f,0x71,0x43,0x00,0x03,0x44,0x3e,0x71,0x44,0x00,0x0c,
0x43,0x3d,0x6c,0x43,0x00,0x00,0x42,0x4e,0x74,0x42,0x00,0x0c,0x43,0x39,0x72,0x43,
0x00,0x05,0x44,0x38,0x73,0x44,0x00,0x10,0x43,0x3d,0x70,0x43,0x00,0x0d,0x44,0x3f,
0x6a,0x3e,0x53,0x05,0x44,0x00,0x81,0x65,0x3e,0x00,0x81,0x00,0x37,0x57,0x82,0x5a,
0x37,0x00,0x0b,0x3e,0x5e,0x82,0x53,0x3e,0x00,0x17,0x3c,0x53,0x2d,0x3c,0x00,0x0f,
0x3a,0x5a,0x1e,0x39,0x45,0x01,0x3a,0x00,0x1d,0x43,0x52,0x12,0x39,0x00,0x81,0x56,
0x43,0x00,0x08,0x3e,0x55,0x82,0x5a,0x3e,0x00,0x0e,0x3c,0x55,0x2c,0x3c,0x00,0x03,
0x3a,0x4f,0x1c,0x3a,0x00,0x08,0x39,0x48,0x2d,0x39,0x00,0x01,0x43,0x58,0x81,0x63,
0x43,0x00,0x0a,0x3e,0x55,0x82,0x5e,0x3e,0x00,0x04,0x3c,0x56,0x82,0x45,0x3c,0x00,
0x27,0x38,0x46,0x08,0x41,0x38,0x47,0x38,0x00,0x07,0x41,0x00,0x1b,0x41,0x37,0x01,
0x38,0x3d,0x51,0x38,0x00,0x06,0x41,0x00,0x1e,0x41,0x4f,0x05,0x38,0x36,0x4c,0x38,
0x00,0x03,0x41,0x00,0x22,0x41,0x39,0x01,0x38,0x2e,0x4b,0x38,0x00,0x00,0x41,0x00,
0x33,0x38,0x38,0x00,0x41,0x2d,0x4f,0x38,0x00,0x06,0x41,0x00,0x23,0x38,0x4b,0x00,
0x41,0x2e,0x46,0x38,0x00,0x05,0x41,0x00,0x2d,0x41,0x36,0x00,0x38,0x48,0x41,0x38,
0x00,0x01,0x41,0x00,0x36,0x38,0x49,0x00,0x41,0x42,0x4c,0x38,0x00,0x05,0x41,0x00,
0x20,0x38,0x34,0x05,0x41,0x39,0x47,0x38,0x00,0x02,0x41,0x00,0x29,0x38,0x39,0x03,
0x41,0x39,0x40,0x38,0x00,0x06,0x41,0x00,0x2d,0x38,0x42,0x02,0x41,0x3e,0x44,0x38,
0x00,0x07,0x41,0x00,0x2c,0x41,0x38,0x01,0x38,0x38,0x3b,0x38,0x00,0x03,0x41,0x00,
0x37,0x41,0x45,0x00,0x38,0x42,0x4c,0x38,0x00,0x00,0x41,0x00,0x37,0x41,0x4b,0x00,
0x38,0x51,0x48,0x41,0x00,0x06,0x38,0x00,0x1f,0x38,0x49,0x05,0x41,0x4b,0x38,0x38,
0x00,0x07,0x41,0x00,0x35,0x41,0x54,0x01,0x38,0x45,0x35,0x41,0x00,0x12,0x38,0x00,
0x34,0x38,0x2d,0x06,0x3c,0x56,0x34,0x38,0x00,0x0a,0x3c,0x00,0x36,0x38,0x39,0x04,
0x3c,0x4b,0x3a,0x38,0x00,0x03,0x3c,0x00,0x39,0x38,0x3e,0x02,0x3c,0x52,0x3f,0x38,
0x00,0x0f,0x3c,0x00,0x27,0x38,0x38,0x03,0x3c,0x4c,0x3a,0x38,0x00,0x08,0x3c,0x00,
0x36,0x3c,0x3c,0x02,0x38,0x34,0x3f,0x38,0x00,0x08,0x3c,0x00,0x28,0x38,0x4b,0x07,
0x3c,0x3e,0x3f,0x38,0x00,0x10,0x3c,0x00,0x29,0x3c,0x3d,0x00,0x38,0x49,0x43,0x38,
0x00,0x06,0x3c,0x00,0x2d,0x43,0x58,0x02,0x3c,0x4a,0x01,0x38,0x31,0x40,0x43,0x00,
0x01,0x38,0x00,0x02,0x3c,0x00,0x31,0x38,0x49,0x00,0x43,0x4b,0x03,0x3c,0x49,0x33,
0x3c,0x00,0x09,0x43,0x00,0x01,0x38,0x00,0x3b,0x44,0x4c,0x01,0x38,0x4e,0x00,0x41,
0x4f,0x33,0x38,0x00,0x07,0x44,0x00,0x0a,0x41,0x00,0x2e,0x38,0x4b,0x00,0x41,0x58,
0x05,0x44,0x4b,0x33,0x44,0x00,0x0a,0x38,0x00,0x08,0x41,0x00,0x30,0x38,0x5c,0x01,
0x41,0x48,0x36,0x38,0x00,0x11,0x41,0x00,0x30,0x35,0x4c,0x03,0x3e,0x54,0x04,0x41,
0x37,0x36,0x41,0x00,0x01,0x35,0x00,0x0b,0x3e,0x00,0x2d,0x3e,0x45,0x03,0x35,0x4f,
0x03,0x41,0x4f,0x81,0x24,0x3e,0x00,0x04,0x35,0x00,0x01,0x41,0x00,0x39,0x41,0x4e,
0x01,0x35,0x3c,0x0c,0x3e,0x3d,0x81,0x20,0x35,0x00,0x07,0x41,0x00,0x0c,0x3e,0x00,
0x3d,0x3e,0x50,0x00,0x35,0x55,0x81,0x4b,0x35,0x00,0x03,0x3e,0x00,0x22,0x3e,0x62,
0x00,0x35,0x68,0x36,0x35,0x00,0x02,0x3e,0x00,0x39,0x35,0x5b,0x01,0x32,0x5e,0x47,
0x32,0x00,0x03,0x35,0x00,0x8d,0x44,0x35,0x6f,0x12,0x35,0x73,0x05,0x35,0x00,0x01,
0x35,0x00,0x20,0x35,0x6e,0x1a,0x35,0x00,0x23,0x3a,0x69,0x83,0x56,0x3a,0x00,0x0f,
0x41,0x5f,0x83,0x4f,0x41,0x00,0x0f,0x3f,0x64,0x1c,0x3f,0x00,0x0c,0x3e,0x54,0x1a,
0x3e,0x00,0x0e,0x3c,0x55,0x1c,0x3c,0x00,0x0c,0x46,0x5e,0x82,0x61,0x46,0x00,0x07,
0x41,0x60,0x83,0x47,0x41,0x00,0x19,0x3f,0x66,0x22,0x3f,0x00,0x06,0x3e,0x53,0x27,
0x3e,0x00,0x01,0x3c,0x53,0x21,0x3c,0x00,0x0a,0x46,0x63,0x82,0x5c,0x46,0x00,0x09,
0x41,0x5c,0x83,0x4f,0x41,0x00,0x11,0x3f,0x61,0x22,0x3f,0x00,0x06,0x3e,0x5d,0x21,
0x3e,0x00,0x07,0x3f,0x61,0x21,0x3f,0x00,0x07,0x3c,0x55,0x85,0x45,0x3c,0x00,0x81,
0x7e,0x3e,0x71,0x11,0x3e,0x00,0x10,0x3e,0x5d,0x17,0x3e,0x00,0x09,0x3e,0x72,0x14,
0x3e,0x00,0x81,0x1d,0x3e,0x6c,0x14,0x3e,0x00,0x24,0x3e,0x6c,0x15,0x3e,0x00,0x81,
0x21,0x3e,0x6d,0x11,0x3e,0x00,0x0c,0x3e,0x60,0x18,0x3e,0x00,0x08,0x3e,0x72,0x12,
0x3e,0x00,0x5f,0x3e,0x6a,0x11,0x3e,0x00,0x29,0x3e,0x6d,0x10,0x3e,0x00,0x2c,0x3e,
0x71,0x11,0x3e,0x00,0x81,0x25,0x3e,0x79,0x12,0x3e,0x00,0x81,0x5e,0x3e,0x73,0x14,
0x3e,0x00,0x23,0x3e,0x6e,0x16,0x3e,0x00,0x81,0x65,0x32,0x63,0x1f,0x32,0x00,0x21,
0x32,0x66,0x83,0x14,0x37,0x5a,0x08,0x32,0x00,0x0f,0x37,0x00,0x30,0x37,0x6d,0x81,
0x26,0x3e,0x62,0x07,0x37,0x00,0x14,0x3e,0x00,0x25,0x3e,0x6c,0x81,0x33,0x43,0x5d,
0x0d,0x3e,0x00,0x12,0x43,0x00,0x23,0x43,0x6c,0x81,0x61,0x43,0x00,0x0a,0x39,0x4d,
0x05,0x46,0x5e,0x32,0x39,0x00,0x05,0x46,0x00,0x03,0x3f,0x61,0x00,0x45,0x54,0x2c,
0x45,0x00,0x13,0x3f,0x00,0x81,0x71,0x46,0x5e,0x01,0x39,0x45,0x31,0x46,0x00,0x03,
0x45,0x50,0x03,0x39,0x00,0x00,0x3f,0x5a,0x1d,0x45,0x00,0x0b,0x3f,0x00,0x16,0x39,
0x42,0x03,0x46,0x5b,0x39,0x45,0x4b,0x01,0x46,0x00,0x04,0x3e,0x51,0x03,0x39,0x00,
0x23,0x3e,0x00,0x00,0x45,0x00,0x82,0x04,0x46,0x59,0x00,0x39,0x3f,0x2e,0x39,0x00,
0x07,0x46,0x00,0x07,0x3e,0x42,0x00,0x45,0x43,0x1e,0x45,0x00,0x00,0x3e,0x00,0x1e,
0x46,0x59,0x00,0x39,0x47,0x3c,0x3e,0x33,0x00,0x45,0x45,0x01,0x46,0x00,0x02,0x39,
0x00,0x18,0x3e,0x00,0x04,0x45,0x00,0x1d,0x46,0x5b,0x39,0x46,0x00,0x03,0x45,0x47,
0x1f,0x45,0x00,0x1d,0x46,0x60,0x3a,0x46,0x00,0x00,0x45,0x4f,0x1a,0x45,0x00,0x26,
0x46,0x63,0x30,0x46,0x00,0x07,0x45,0x4e,0x21,0x45,0x00,0xb9,0x30,0x40,0x4c,0x40,
0x40,0x00,0x77,0x40,0x51,0x2e,0x40,0x00,0x49,0x40,0x4d,0x1f,0x40,0x00,0x81,0x17,
0x40,0x4c,0x1c,0x40,0x00,0x27,0x40,0x4a,0x20,0x40,0x00,0x5e,0x40,0x53,0x21,0x40,
0x00,0x54,0x40,0x50,0x20,0x40,0x00,0x81,0x0c,0x40,0x58,0x21,0x40,0x00,0x81,0x54,
0x40,0x4b,0x1f,0x40,0x00,0x81,0x3e,0x40,0x51,0x1a,0x40,0x00,0x24,0x40,0x46,0x20,
0x40,0x00,0x5d,0x40,0x54,0x1c,0x40,0x00,0x59,0x40,0x49,0x18,0x40,0x00,0x81,0x24,
0x3d,0x59,0x20,0x3d,0x00,0x55,0x3d,0x5a,0x21,0x3d,0x00,0x5d,0x3d,0x60,0x1b,0x3d,
0x00,0x5e,0x3d,0x60,0x19,0x3d,0x00,0x5d,0x3d,0x63,0x19,0x3d,0x00,0x62,0x3d,0x66,
0x1f,0x3d,0x00,0x40,0x3d,0x68,0x1e,0x3d,0x00,0x32,0x3d,0x68,0x19,0x3d,0x00,0x00,
0xff,0x2f,0x00,0x4d,0x54,0x72,0x6b,0x00,0x00,0x00,0x87,0x00,0xff,0x21,0x01,0x00,
0x00,0xff,0x03,0x0a,0x56,0x49,0x4f,0x4c,0x49,0x4e,0x40,0x38,0x76,0x61,0x00,0xc0,
0x30,0x00,0xb0,0x07,0x78,0x82,0x88,0x30,0x90,0x48,0x4a,0x73,0x48,0x00,0x07,0x4d,
0x4e,0x83,0x51,0x4d,0x00,0x05,0x4f,0x4c,0x82,0x63,0x4f,0x00,0x05,0x50,0x40,0x46,
0x52,0x56,0x03,0x50,0x00,0x33,0x52,0x00,0x06,0x50,0x5a,0x83,0x3e,0x50,0x00,0x1e,
0x48,0x4c,0x82,0x3b,0x48,0x00,0x2f,0x48,0x52,0x76,0x4d,0x40,0x02,0x48,0x00,0x82,
0x61,0x4d,0x00,0x07,0x4f,0x40,0x74,0x4f,0x00,0x06,0x50,0x52,0x71,0x50,0x00,0x05,
0x48,0x40,0x68,0x48,0x00,0x10,0x50,0x40,0x58,0x50,0x00,0x20,0x4d,0x54,0x3c,0x4d,
0x00,0x00,0x54,0x4c,0x38,0x54,0x00,0x04,0x52,0x4e,0x86,0x76,0x52,0x00,0x00,0xff,
0x2f,0x00,0x4d,0x54,0x72,0x6b,0x00,0x00,0x03,0x37,0x00,0xff,0x21,0x01,0x00,0x00,
0xff,0x03,0x0c,0x76,0x69,0x6f,0x63,0x65,0x6c,0x2e,0x2e,0x40,0x38,0x76,0x61,0x00,
0xc2,0x2b,0x00,0xb2,0x07,0x78,0x81,0xe3,0x60,0x92,0x37,0x4d,0x15,0x37,0x00,0x0e,
0x37,0x4d,0x12,0x37,0x00,0x08,0x37,0x50,0x14,0x37,0x00,0x0a,0x37,0x4b,0x17,0x37,
0x00,0x0a,0x36,0x61,0x0f,0x36,0x00,0x0e,0x36,0x53,0x0e,0x36,0x00,0x0d,0x36,0x54,
0x0f,0x36,0x00,0x0e,0x36,0x60,0x12,0x36,0x00,0x10,0x37,0x56,0x12,0x37,0x00,0x0b,
0x37,0x51,0x14,0x37,0x00,0x09,0x37,0x5b,0x14,0x37,0x00,0x08,0x37,0x5d,0x13,0x37,
0x00,0x0a,0x38,0x68,0x0f,0x38,0x00,0x11,0x38,0x61,0x0f,0x38,0x00,0x10,0x38,0x56,
0x0d,0x38,0x00,0x13,0x38,0x55,0x10,0x38,0x00,0x0b,0x37,0x5b,0x15,0x37,0x00,0x09,
0x37,0x55,0x14,0x37,0x00,0x0a,0x37,0x54,0x13,0x37,0x00,0x0b,0x37,0x47,0x15,0x37,
0x00,0x0a,0x38,0x61,0x10,0x38,0x00,0x0b,0x38,0x4f,0x12,0x38,0x00,0x0d,0x38,0x50,
0x0f,0x38,0x00,0x11,0x38,0x55,0x0e,0x38,0x00,0x0f,0x37,0x59,0x13,0x37,0x00,0x0c,
0x37,0x47,0x13,0x37,0x00,0x0d,0x37,0x4c,0x14,0x37,0x00,0x0a,0x37,0x45,0x14,0x37,
0x00,0x0b,0x36,0x5c,0x0e,0x36,0x00,0x10,0x36,0x5a,0x0e,0x36,0x00,0x0d,0x36,0x5a,
0x0f,0x36,0x00,0x0d,0x36,0x5f,0x10,0x36,0x00,0x10,0x37,0x5d,0x13,0x37,0x00,0x0b,
0x37,0x51,0x15,0x37,0x00,0x0c,0x37,0x41,0x13,0x37,0x00,0x0d,0x37,0x40,0x15,0x37,
0x00,0x09,0x38,0x63,0x0d,0x38,0x00,0x12,0x38,0x61,0x0e,0x38,0x00,0x0f,0x38,0x56,
0x0d,0x38,0x00,0x0c,0x38,0x54,0x10,0x38,0x00,0x0d,0x37,0x60,0x12,0x37,0x00,0x14,
0x37,0x5c,0x13,0x37,0x00,0x0b,0x37,0x57,0x12,0x37,0x00,0x0c,0x37,0x52,0x15,0x37,
0x00,0x09,0x38,0x61,0x11,0x38,0x00,0x0d,0x38,0x57,0x0e,0x38,0x00,0x10,0x38,0x4e,
0x17,0x38,0x00,0x07,0x38,0x64,0x12,0x38,0x00,0x0c,0x38,0x62,0x17,0x38,0x00,0x07,
0x38,0x63,0x15,0x38,0x00,0x09,0x38,0x57,0x0e,0x38,0x00,0x10,0x38,0x5b,0x12,0x38,
0x00,0x0c,0x38,0x20,0x15,0x38,0x00,0x09,0x38,0x5c,0x0b,0x38,0x00,0x13,0x38,0x5c,
0x0c,0x38,0x00,0x12,0x38,0x5c,0x0b,0x38,0x00,0x13,0x2c,0x6b,0x0b,0x2c,0x00,0x13,
0x2c,0x5f,0x0a,0x2c,0x00,0x14,0x2c,0x61,0x0a,0x2c,0x00,0x14,0x2c,0x64,0x0b,0x2c,
0x00,0x81,0x16,0x1e,0x70,0x26,0x1e,0x00,0x18,0x1c,0x6f,0x30,0x1c,0x00,0x81,0x72,
0x1e,0x6e,0x2f,0x1e,0x00,0x49,0x1c,0x66,0x29,0x1c,0x00,0x82,0x3a,0x1e,0x6d,0x28,
0x1e,0x00,0x1b,0x1c,0x6f,0x25,0x1c,0x00,0x81,0x12,0x1e,0x73,0x29,0x1e,0x00,0x47,
0x1c,0x66,0x2e,0x1c,0x00,0xaa,0x62,0xc2,0x2b,0x00,0x92,0x22,0x5c,0x82,0x57,0x22,
0x00,0x11,0x27,0x62,0x41,0x27,0x00,0x37,0x22,0x53,0x82,0x63,0x22,0x00,0x05,0x27,
0x62,0x4e,0x27,0x00,0x2a,0x1f,0x5d,0x82,0x66,0x1f,0x00,0x02,0x29,0x63,0x4b,0x29,
0x00,0x2d,0x1f,0x5e,0x82,0x68,0x29,0x63,0x0a,0x1f,0x00,0x33,0x29,0x00,0x3b,0x1f,
0x60,0x44,0x1f,0x00,0x34,0x1f,0x5e,0x47,0x1f,0x00,0x31,0x1f,0x5d,0x43,0x1f,0x00,
0x35,0x1f,0x5f,0x49,0x1f,0x00,0x2f,0x1f,0x5f,0x46,0x1f,0x00,0x32,0x1f,0x5e,0x4b,
0x1f,0x00,0x2d,0x1f,0x5f,0x42,0x1f,0x00,0x36,0x1f,0x60,0x48,0x1f,0x00,0x30,0x1f,
0x59,0x4a,0x1f,0x00,0x2e,0x1f,0x5c,0x4e,0x1f,0x00,0x2a,0x1f,0x5e,0x3d,0x1f,0x00,
0x3b,0x1f,0x5e,0x3e,0x1f,0x00,0x3a,0x1f,0x5d,0x45,0x1f,0x00,0x33,0x1f,0x5e,0x3f,
0x1f,0x00,0x39,0x1f,0x5d,0x43,0x1f,0x00,0x35,0x1f,0x5f,0x46,0x1f,0x00,0x32,0x1f,
0x5f,0x44,0x1f,0x00,0x34,0x1f,0x61,0x4c,0x1f,0x00,0x2c,0x1f,0x5b,0x47,0x1f,0x00,
0x31,0x1f,0x5f,0x58,0x1f,0x00,0x20,0x1f,0x57,0x4b,0x1f,0x00,0x2d,0x1f,0x51,0x4b,
0x1f,0x00,0x2d,0x1f,0x5e,0x50,0x1f,0x00,0x28,0x1f,0x63,0x55,0x1f,0x00,0x23,0x1f,
0x60,0x49,0x1f,0x00,0x2f,0x1f,0x64,0x52,0x1f,0x00,0x33,0x1f,0x69,0x50,0x1f,0x00,
0x21,0x1f,0x6a,0x4a,0x1f,0x00,0x2b,0x1f,0x6a,0x50,0x1f,0x00,0x2c,0x1f,0x67,0x4b,
0x1f,0x00,0x26,0x1f,0x67,0x54,0x1f,0x00,0x27,0x1f,0x6e,0x35,0x1f,0x00,0x82,0x32,
0x26,0x66,0x81,0x0d,0x26,0x00,0x82,0x48,0x26,0x61,0x81,0x14,0x26,0x00,0x86,0x2e,
0x26,0x5c,0x81,0x18,0x26,0x00,0x93,0x3f,0xc2,0x2b,0x81,0x65,0x92,0x1e,0x68,0x83,
0x54,0x1e,0x00,0x1c,0x1e,0x65,0x83,0x4c,0x1e,0x00,0x14,0x1e,0x66,0x83,0x3b,0x1e,
0x00,0x26,0x1e,0x68,0x83,0x3e,0x1e,0x00,0x1a,0x1e,0x67,0x83,0x37,0x1e,0x00,0x25,
0x1e,0x65,0x82,0x3f,0x1e,0x00,0x1e,0x1e,0x68,0x82,0x54,0x1e,0x00,0x20,0x1b,0x70,
0x83,0x42,0x1b,0x00,0x1b,0x1b,0x63,0x83,0x48,0x1b,0x00,0x22,0x1b,0x6c,0x83,0x43,
0x1b,0x00,0x1a,0x1b,0x6c,0x83,0x47,0x1b,0x00,0x1a,0x1b,0x6f,0x83,0x31,0x1b,0x00,
0x2f,0x1b,0x6b,0x82,0x54,0x1b,0x00,0x14,0x1b,0x6b,0x30,0x1b,0x00,0x00,0xff,0x2f,
0x00,0x4d,0x54,0x72,0x6b,0x00,0x00,0x13,0x26,0x00,0xff,0x21,0x01,0x00,0x00,0xff,
0x03,0x0a,0x63,0x65,0x6c,0x6c,0x6f,0x2f,0x62,0x61,0x73,0x73,0x00,0xc7,0x2c,0x00,
0xb7,0x07,0x7f,0x82,0x6d,0x97,0x2f,0x47,0x2a,0x2f,0x00,0x25,0x2f,0x3a,0x1c,0x2f,
0x00,0x0f,0x2f,0x48,0x1a,0x2f,0x00,0x3b,0x2f,0x3a,0x12,0x2f,0x00,0x0c,0x2f,0x4d,
0x14,0x2f,0x00,0x0b,0x2f,0x4e,0x14,0x2f,0x00,0x0a,0x2f,0x54,0x12,0x2f,0x00,0x0b,
0x2f,0x4a,0x15,0x2f,0x00,0x0c,0x2f,0x56,0x23,0x2f,0x00,0x3a,0x2f,0x4f,0x18,0x2f,
0x00,0x09,0x2f,0x59,0x19,0x2f,0x00,0x3a,0x2f,0x4b,0x15,0x2f,0x00,0x0b,0x2f,0x58,
0x14,0x2f,0x00,0x0c,0x2f,0x4b,0x14,0x2f,0x00,0x09,0x2f,0x5c,0x12,0x2f,0x00,0x0b,
0x2f,0x4a,0x0f,0x2f,0x00,0x0d,0x2f,0x53,0x2f,0x2f,0x00,0x2f,0x2f,0x4b,0x19,0x2f,
0x00,0x0a,0x2f,0x5e,0x1a,0x2f,0x00,0x35,0x2f,0x4f,0x13,0x2f,0x00,0x0c,0x2f,0x58,
0x14,0x2f,0x00,0x0e,0x2f,0x47,0x14,0x2f,0x00,0x0a,0x2f,0x4d,0x11,0x2f,0x00,0x0b,
0x2f,0x48,0x15,0x2f,0x00,0x0a,0x2f,0x58,0x33,0x2f,0x00,0x25,0x2f,0x4d,0x19,0x2f,
0x00,0x08,0x2f,0x5b,0x30,0x2f,0x00,0x2d,0x2f,0x4f,0x13,0x2f,0x00,0x09,0x2f,0x59,
0x15,0x2f,0x00,0x0c,0x2f,0x51,0x13,0x2f,0x00,0x0b,0x2f,0x4d,0x0f,0x2f,0x00,0x0a,
0x2f,0x4e,0x14,0x2f,0x00,0x0a,0x2f,0x5b,0x32,0x2f,0x00,0x26,0x2f,0x4e,0x17,0x2f,
0x00,0x0a,0x2f,0x50,0x38,0x2f,0x00,0x1b,0x2f,0x53,0x16,0x2f,0x00,0x0b,0x2b,0x4b,
0x13,0x2b,0x00,0x0c,0x2b,0x3d,0x10,0x2b,0x00,0x0b,0x2b,0x59,0x10,0x2b,0x00,0x07,
0x2b,0x3f,0x15,0x2b,0x00,0x0c,0x2f,0x52,0x43,0x2f,0x00,0x14,0x2f,0x45,0x19,0x2f,
0x00,0x0c,0x2f,0x56,0x2c,0x2f,0x00,0x2e,0x2f,0x51,0x15,0x2f,0x00,0x0a,0x2b,0x5c,
0x12,0x2b,0x00,0x0a,0x2b,0x58,0x15,0x2b,0x00,0x0a,0x2b,0x59,0x10,0x2b,0x00,0x0b,
0x2b,0x53,0x14,0x2b,0x00,0x09,0x2f,0x57,0x38,0x2f,0x00,0x25,0x2f,0x56,0x1a,0x2f,
0x00,0x0a,0x2f,0x54,0x30,0x2f,0x00,0x24,0x2f,0x55,0x16,0x2f,0x00,0x0a,0x2b,0x51,
0x13,0x2b,0x00,0x0c,0x2b,0x52,0x0f,0x2b,0x00,0x0e,0x2b,0x56,0x11,0x2b,0x00,0x09,
0x2b,0x58,0x12,0x2b,0x00,0x11,0x2f,0x60,0x12,0x2f,0x00,0x09,0x2f,0x5a,0x12,0x2f,
0x00,0x08,0x2f,0x66,0x14,0x2f,0x00,0x09,0x2f,0x5d,0x18,0x2f,0x00,0x06,0x2a,0x69,
0x14,0x2a,0x00,0x09,0x2a,0x5c,0x13,0x2a,0x00,0x07,0x2a,0x64,0x11,0x2a,0x00,0x09,
0x2a,0x65,0x19,0x2a,0x00,0x0b,0x31,0x6c,0x24,0x31,0x00,0x34,0x31,0x58,0x17,0x31,
0x00,0x09,0x31,0x6b,0x2d,0x31,0x00,0x30,0x31,0x59,0x14,0x31,0x00,0x0b,0x31,0x69,
0x15,0x31,0x00,0x0b,0x31,0x59,0x13,0x31,0x00,0x09,0x31,0x69,0x14,0x31,0x00,0x09,
0x31,0x3f,0x12,0x31,0x00,0x0c,0x31,0x63,0x39,0x31,0x00,0x26,0x31,0x5f,0x14,0x31,
0x00,0x0a,0x31,0x6b,0x35,0x31,0x00,0x21,0x31,0x5b,0x11,0x31,0x00,0x0a,0x31,0x6d,
0x17,0x31,0x00,0x0a,0x31,0x5f,0x12,0x31,0x00,0x0b,0x31,0x68,0x13,0x31,0x00,0x0b,
0x31,0x5d,0x14,0x31,0x00,0x0b,0x31,0x69,0x2e,0x31,0x00,0x2c,0x31,0x58,0x13,0x31,
0x00,0x08,0x31,0x6d,0x32,0x31,0x00,0x2a,0x31,0x61,0x17,0x31,0x00,0x08,0x31,0x6b,
0x14,0x31,0x00,0x0a,0x31,0x60,0x13,0x31,0x00,0x0b,0x31,0x66,0x13,0x31,0x00,0x0b,
0x31,0x5e,0x17,0x31,0x00,0x0a,0x31,0x6d,0x3c,0x31,0x00,0x1c,0x31,0x57,0x15,0x31,
0x00,0x0c,0x31,0x6f,0x3c,0x31,0x00,0x19,0x31,0x5c,0x13,0x31,0x00,0x10,0x2d,0x60,
0x15,0x2d,0x00,0x04,0x2d,0x33,0x19,0x2d,0x00,0x07,0x2d,0x66,0x12,0x2d,0x00,0x08,
0x2d,0x5f,0x18,0x2d,0x00,0x0a,0x31,0x6c,0x2e,0x31,0x00,0x27,0x31,0x65,0x16,0x31,
0x00,0x09,0x31,0x6f,0x42,0x31,0x00,0x13,0x31,0x5b,0x10,0x31,0x00,0x1a,0x2d,0x64,
0x14,0x2d,0x00,0x0a,0x2d,0x48,0x17,0x2d,0x00,0x07,0x2d,0x64,0x12,0x2d,0x00,0x0c,
0x2d,0x5d,0x1a,0x2d,0x00,0x04,0x31,0x67,0x33,0x31,0x00,0x1c,0x31,0x5d,0x14,0x31,
0x00,0x15,0x31,0x6e,0x43,0x31,0x00,0x17,0x31,0x56,0x17,0x31,0x00,0x07,0x2d,0x63,
0x13,0x2d,0x00,0x0b,0x2d,0x56,0x1e,0x2d,0x56,0x10,0x2d,0x00,0x00,0x2d,0x00,0x2c,
0xc7,0x2c,0x00,0x97,0x31,0x6b,0x00,0xb7,0x07,0x7f,0x35,0x97,0x31,0x00,0x1b,0x31,
0x5f,0x15,0x31,0x00,0x0c,0x31,0x6f,0x42,0x31,0x00,0x15,0x31,0x61,0x13,0x31,0x00,
0x10,0x2d,0x67,0x13,0x2d,0x00,0x04,0x2d,0x3f,0x19,0x2d,0x00,0x07,0x2d,0x66,0x15,
0x2d,0x00,0x09,0x2d,0x67,0x14,0x2d,0x00,0x12,0x25,0x6d,0x02,0x31,0x49,0x1a,0x31,
0x00,0x04,0x30,0x37,0x19,0x30,0x00,0x05,0x2e,0x3d,0x1a,0x2e,0x00,0x04,0x2c,0x3b,
0x18,0x2c,0x00,0x06,0x31,0x42,0x0d,0x25,0x00,0x0c,0x31,0x00,0x05,0x30,0x28,0x18,
0x30,0x00,0x06,0x2e,0x46,0x14,0x2e,0x00,0x0a,0x2c,0x2a,0x18,0x2c,0x00,0x06,0x31,
0x44,0x17,0x31,0x00,0x07,0x30,0x2a,0x1c,0x30,0x00,0x02,0x2e,0x3b,0x1a,0x2e,0x00,
0x04,0x2c,0x3d,0x14,0x2c,0x00,0x0a,0x36,0x44,0x08,0x2a,0x6b,0x10,0x36,0x00,0x06,
0x35,0x27,0x15,0x35,0x00,0x09,0x33,0x4b,0x09,0x2a,0x00,0x14,0x33,0x00,0x01,0x31,
0x47,0x0f,0x31,0x00,0x0f,0x31,0x35,0x0a,0x25,0x6e,0x0d,0x31,0x00,0x07,0x30,0x3a,
0x1a,0x30,0x00,0x04,0x2e,0x40,0x18,0x2e,0x00,0x06,0x2c,0x3c,0x15,0x2c,0x00,0x09,
0x31,0x4a,0x13,0x25,0x00,0x05,0x31,0x00,0x06,0x30,0x3b,0x19,0x30,0x00,0x05,0x2e,
0x45,0x18,0x2e,0x00,0x06,0x2c,0x35,0x14,0x2c,0x00,0x0a,0x38,0x2a,0x1d,0x38,0x00,
0x01,0x36,0x2f,0x10,0x36,0x00,0x0e,0x35,0x2e,0x1c,0x35,0x00,0x02,0x33,0x41,0x17,
0x33,0x00,0x07,0x3d,0x3f,0x02,0x29,0x6a,0x15,0x3d,0x00,0x07,0x3c,0x3a,0x19,0x3c,
0x00,0x05,0x3a,0x3f,0x03,0x29,0x00,0x19,0x3a,0x00,0x02,0x38,0x49,0x18,0x38,0x00,
0x06,0x30,0x45,0x01,0x24,0x6d,0x1c,0x30,0x00,0x01,0x2f,0x38,0x1d,0x2f,0x00,0x01,
0x2d,0x2d,0x15,0x24,0x00,0x06,0x2d,0x00,0x03,0x2b,0x3c,0x1d,0x2b,0x00,0x01,0x30,
0x53,0x1d,0x30,0x00,0x01,0x2f,0x3d,0x1d,0x2f,0x00,0x01,0x2d,0x34,0x1d,0x2d,0x00,
0x01,0x2b,0x35,0x1d,0x2b,0x00,0x01,0x30,0x4d,0x1d,0x30,0x00,0x01,0x2f,0x48,0x1d,
0x2f,0x00,0x01,0x2d,0x4b,0x1d,0x2d,0x00,0x01,0x2b,0x38,0x1a,0x2b,0x00,0x02,0x2b,
0x69,0x02,0x35,0x46,0x1d,0x35,0x00,0x01,0x34,0x4a,0x1d,0x34,0x00,0x01,0x32,0x47,
0x05,0x2b,0x00,0x18,0x32,0x00,0x01,0x30,0x42,0x19,0x30,0x00,0x05,0x37,0x4a,0x05,
0x24,0x69,0x18,0x37,0x00,0x01,0x35,0x4b,0x1d,0x35,0x00,0x01,0x34,0x4e,0x1d,0x34,
0x00,0x01,0x32,0x42,0x1c,0x32,0x00,0x02,0x37,0x47,0x06,0x24,0x00,0x17,0x37,0x00,
0x01,0x35,0x4d,0x1d,0x35,0x00,0x01,0x34,0x4d,0x1d,0x34,0x00,0x01,0x32,0x45,0x1b,
0x32,0x00,0x03,0x37,0x4f,0x1d,0x37,0x00,0x01,0x35,0x3f,0x1d,0x35,0x00,0x01,0x34,
0x4a,0x1d,0x34,0x00,0x01,0x32,0x42,0x17,0x32,0x00,0x05,0x29,0x69,0x02,0x3c,0x48,
0x1d,0x3c,0x00,0x01,0x3a,0x4c,0x1d,0x3a,0x00,0x01,0x38,0x4d,0x17,0x29,0x00,0x02,
0x38,0x00,0x05,0x37,0x45,0x0f,0x37,0x00,0x0f,0x37,0x43,0x1d,0x37,0x00,0x01,0x35,
0x3e,0x1d,0x35,0x00,0x01,0x33,0x44,0x1d,0x33,0x00,0x01,0x32,0x43,0x1b,0x32,0x00,
0x03,0x3c,0x58,0x04,0x2c,0x6b,0x19,0x3c,0x00,0x01,0x2c,0x00,0x00,0x3a,0x4f,0x1d,
0x3a,0x00,0x01,0x38,0x49,0x05,0x2c,0x62,0x18,0x38,0x00,0x01,0x37,0x35,0x1d,0x37,
0x00,0x01,0x3a,0x5a,0x02,0x2c,0x00,0x04,0x2b,0x5b,0x17,0x3a,0x00,0x01,0x38,0x4a,
0x1d,0x38,0x00,0x01,0x37,0x40,0x1d,0x37,0x00,0x01,0x35,0x3a,0x1b,0x2b,0x00,0x01,
0x35,0x00,0x02,0x3f,0x5b,0x1d,0x3f,0x00,0x01,0x3d,0x49,0x1d,0x3d,0x00,0x01,0x3c,
0x35,0x1c,0x3c,0x00,0x02,0x3a,0x47,0x1d,0x3a,0x00,0x01,0x3f,0x61,0x1d,0x3f,0x00,
0x01,0x3d,0x45,0x1a,0x3d,0x00,0x04,0x3c,0x30,0x1d,0x3c,0x00,0x01,0x3a,0x48,0x1d,
0x3a,0x00,0x01,0x43,0x57,0x03,0x1f,0x6f,0x1a,0x43,0x00,0x01,0x41,0x50,0x07,0x1f,
0x00,0x16,0x41,0x00,0x01,0x3f,0x58,0x02,0x1f,0x6e,0x1b,0x3f,0x00,0x01,0x3d,0x57,
0x12,0x1f,0x00,0x03,0x3d,0x00,0x83,0x69,0x20,0x6c,0x00,0x2c,0x4e,0x00,0x3c,0x5b,
0x0b,0x2c,0x00,0x05,0x20,0x00,0x04,0x3c,0x00,0x14,0x20,0x70,0x00,0x3c,0x60,0x00,
0x2c,0x60,0x10,0x2c,0x00,0x00,0x3c,0x00,0x02,0x20,0x00,0x16,0x20,0x6e,0x00,0x3c,
0x67,0x00,0x2c,0x69,0x3f,0x3c,0x00,0x02,0x20,0x00,0x06,0x2c,0x00,0x09,0x20,0x64,
0x00,0x3c,0x67,0x00,0x2c,0x62,0x13,0x3c,0x00,0x01,0x2c,0x00,0x03,0x20,0x00,0x11,
0x20,0x67,0x00,0x2c,0x63,0x00,0x3c,0x60,0x15,0x3c,0x00,0x02,0x20,0x00,0x04,0x2c,
0x00,0x0d,0x1f,0x6a,0x00,0x3d,0x69,0x00,0x2b,0x60,0x15,0x3d,0x00,0x04,0x2b,0x00,
0x0f,0x3d,0x67,0x00,0x2b,0x5c,0x0d,0x1f,0x00,0x03,0x3d,0x00,0x0d,0x2b,0x00,0x0b,
0x1d,0x6e,0x00,0x3d,0x64,0x00,0x29,0x60,0x10,0x3d,0x00,0x06,0x1d,0x00,0x0b,0x29,
0x00,0x07,0x1c,0x63,0x00,0x28,0x69,0x00,0x3f,0x67,0x12,0x3f,0x00,0x04,0x1c,0x00,
0x03,0x28,0x00,0x0f,0x1c,0x67,0x00,0x28,0x67,0x00,0x3f,0x64,0x0d,0x3f,0x00,0x08,
0x1c,0x00,0x01,0x28,0x00,0x12,0x1c,0x69,0x00,0x3f,0x72,0x00,0x28,0x6d,0x0f,0x3f,
0x00,0x0c,0x28,0x00,0x12,0x1c,0x00,0x91,0x0e,0x32,0x71,0x1f,0x32,0x00,0x08,0x2d,
0x64,0x1f,0x2d,0x00,0x0f,0x28,0x64,0x23,0x28,0x00,0x05,0x26,0x69,0x19,0x26,0x00,
0x0f,0x25,0x6e,0x2b,0x25,0x00,0x8f,0x76,0x2b,0x57,0x46,0x2b,0x00,0x2d,0x2a,0x5f,
0x42,0x2a,0x00,0x35,0x29,0x5c,0x43,0x29,0x00,0x41,0x27,0x57,0x41,0x27,0x00,0x31,
0x26,0x5e,0x3a,0x26,0x00,0x38,0x25,0x59,0x3c,0x25,0x00,0x3d,0x24,0x5a,0x82,0x34,
0x24,0x00,0x34,0x24,0x55,0x76,0x24,0x00,0x08,0x22,0x61,0x65,0x22,0x00,0x14,0x21,
0x72,0x2b,0x21,0x00,0x81,0x38,0x31,0x5f,0x00,0x2e,0x5a,0x20,0x2e,0x00,0x01,0x31,
0x00,0x57,0x31,0x5e,0x01,0x2e,0x56,0x1b,0x2e,0x00,0x02,0x31,0x00,0x5d,0x27,0x5d,
0x40,0x27,0x00,0x83,0x23,0x2d,0x66,0x33,0x2d,0x00,0x86,0x19,0x2a,0x64,0x10,0x2a,
0x00,0x18,0x2a,0x65,0x12,0x2a,0x00,0x16,0x2a,0x74,0x16,0x2a,0x00,0x12,0x2e,0x62,
0x00,0x1e,0x68,0x24,0x2e,0x00,0x04,0x2b,0x50,0x1e,0x1e,0x00,0x06,0x2b,0x00,0x04,
0x2a,0x4d,0x21,0x2a,0x00,0x02,0x1e,0x6d,0x26,0x2e,0x58,0x12,0x1e,0x00,0x08,0x2b,
0x49,0x08,0x2e,0x00,0x12,0x2b,0x00,0x05,0x2a,0x4d,0x16,0x2a,0x00,0x06,0x2b,0x4e,
0x1d,0x2b,0x00,0x01,0x2d,0x55,0x18,0x1e,0x68,0x03,0x2d,0x00,0x04,0x2e,0x55,0x16,
0x2e,0x00,0x06,0x1e,0x00,0x00,0x30,0x51,0x1e,0x1e,0x6e,0x01,0x30,0x00,0x37,0x1e,
0x00,0x0e,0x3a,0x5f,0x1c,0x37,0x4e,0x05,0x3a,0x00,0x12,0x37,0x00,0x09,0x36,0x54,
0x18,0x36,0x00,0x20,0x1e,0x6f,0x2b,0x1e,0x00,0x0c,0x3a,0x60,0x15,0x3a,0x00,0x08,
0x37,0x5b,0x1a,0x37,0x00,0x04,0x36,0x55,0x19,0x36,0x00,0x00,0x34,0x56,0x1a,0x34,
0x00,0x14,0x1e,0x70,0x2a,0x1e,0x00,0x0a,0x39,0x4d,0x14,0x39,0x00,0x08,0x36,0x51,
0x16,0x36,0x00,0x05,0x37,0x41,0x1e,0x37,0x00,0x02,0x39,0x46,0x24,0x3a,0x47,0x07,
0x39,0x00,0x14,0x3d,0x54,0x04,0x3a,0x00,0x13,0x3d,0x00,0x04,0x1e,0x70,0x03,0x3e,
0x58,0x15,0x3e,0x00,0x05,0x1e,0x00,0x07,0x3e,0x5c,0x12,0x3e,0x00,0x09,0x1e,0x77,
0x03,0x3e,0x69,0x15,0x3e,0x00,0x05,0x1e,0x00,0x05,0x3e,0x63,0x14,0x3e,0x00,0x10,
0x1e,0x6f,0x2d,0x1e,0x00,0x11,0x36,0x5b,0x19,0x36,0x00,0x03,0x39,0x53,0x12,0x39,
0x00,0x08,0x37,0x4f,0x1c,0x37,0x00,0x04,0x39,0x45,0x13,0x39,0x00,0x06,0x3a,0x4c,
0x12,0x3a,0x00,0x0b,0x3c,0x49,0x17,0x3c,0x00,0x07,0x3d,0x6b,0x01,0x1f,0x6d,0x12,
0x3d,0x00,0x0c,0x3d,0x5d,0x10,0x3d,0x00,0x00,0x1f,0x00,0x0d,0x3d,0x6b,0x13,0x3d,
0x00,0x07,0x3d,0x6e,0x17,0x3d,0x00,0x0a,0x25,0x69,0x3d,0x25,0x00,0x04,0x40,0x57,
0x1f,0x3d,0x46,0x05,0x40,0x00,0x15,0x3c,0x4f,0x02,0x3d,0x00,0x1e,0x3c,0x00,0x1b,
0x25,0x70,0x32,0x25,0x00,0x0f,0x40,0x4b,0x1e,0x40,0x00,0x04,0x3d,0x4b,0x1d,0x3c,
0x52,0x05,0x3d,0x00,0x14,0x3c,0x00,0x21,0x25,0x72,0x29,0x25,0x00,0x0e,0x40,0x37,
0x1c,0x40,0x00,0x06,0x3d,0x3e,0x15,0x3d,0x00,0x09,0x3c,0x3d,0x14,0x3c,0x00,0x03,
0x3a,0x50,0x19,0x3a,0x00,0x05,0x39,0x39,0x02,0x25,0x72,0x1e,0x39,0x00,0x0a,0x25,
0x00,0x1a,0x40,0x40,0x1a,0x40,0x00,0x03,0x42,0x3d,0x19,0x42,0x00,0x01,0x43,0x45,
0x1a,0x43,0x00,0x05,0x45,0x51,0x19,0x45,0x00,0x05,0x3d,0x4d,0x6e,0x3d,0x00,0x07,
0x3c,0x42,0x03,0x2d,0x17,0x66,0x2d,0x00,0x0a,0x3c,0x00,0x01,0x30,0x51,0x01,0x21,
0x55,0x59,0x30,0x00,0x09,0x21,0x00,0x16,0x3f,0x4a,0x7c,0x3e,0x4b,0x00,0x2d,0x42,
0x02,0x3f,0x00,0x6b,0x2d,0x00,0x09,0x21,0x59,0x04,0x32,0x45,0x3b,0x3e,0x00,0x1b,
0x32,0x00,0x06,0x21,0x00,0x1f,0x3e,0x4e,0x75,0x3e,0x00,0x03,0x29,0x48,0x01,0x3d,
0x4b,0x66,0x29,0x00,0x04,0x1d,0x53,0x07,0x31,0x45,0x41,0x3d,0x00,0x0a,0x31,0x00,
0x0e,0x1d,0x00,0x1c,0x40,0x45,0x71,0x29,0x49,0x00,0x3f,0x4c,0x03,0x40,0x00,0x75,
0x29,0x00,0x03,0x1d,0x47,0x01,0x33,0x5a,0x46,0x33,0x00,0x04,0x3f,0x00,0x16,0x1d,
0x00,0x24,0x3f,0x58,0x6e,0x2c,0x50,0x03,0x3e,0x4f,0x01,0x3f,0x00,0x76,0x20,0x62,
0x00,0x32,0x60,0x04,0x2c,0x00,0x0f,0x3e,0x00,0x33,0x32,0x00,0x28,0x20,0x00,0x04,
0x41,0x4f,0x7a,0x2c,0x4f,0x01,0x41,0x00,0x02,0x40,0x56,0x73,0x20,0x64,0x07,0x34,
0x5f,0x01,0x2c,0x00,0x2a,0x40,0x00,0x12,0x34,0x00,0x25,0x20,0x00,0x11,0x40,0x54,
0x7d,0x2e,0x54,0x01,0x40,0x00,0x00,0x3f,0x59,0x79,0x22,0x69,0x00,0x33,0x5d,0x09,
0x2e,0x00,0x0b,0x3f,0x00,0x3b,0x33,0x00,0x14,0x22,0x00,0x0a,0x3f,0x5a,0x78,0x2f,
0x51,0x03,0x3e,0x57,0x03,0x3f,0x00,0x72,0x23,0x60,0x09,0x32,0x61,0x01,0x2f,0x00,
0x0c,0x3e,0x00,0x35,0x32,0x00,0x14,0x23,0x00,0x1d,0x41,0x4e,0x78,0x41,0x00,0x00,
0x31,0x58,0x02,0x40,0x4a,0x78,0x31,0x00,0x00,0x34,0x56,0x05,0x25,0x60,0x03,0x40,
0x00,0x53,0x34,0x00,0x18,0x40,0x50,0x14,0x25,0x00,0x71,0x40,0x00,0x00,0x31,0x51,
0x00,0x3f,0x50,0x73,0x25,0x67,0x0d,0x33,0x59,0x04,0x31,0x00,0x12,0x3f,0x00,0x35,
0x33,0x00,0x20,0x42,0x4f,0x01,0x25,0x00,0x72,0x42,0x00,0x05,0x2c,0x4b,0x00,0x41,
0x41,0x74,0x2c,0x00,0x04,0x35,0x56,0x0a,0x41,0x00,0x02,0x20,0x64,0x4a,0x35,0x00,
0x29,0x20,0x00,0x00,0x41,0x53,0x74,0x41,0x00,0x05,0x2c,0x4d,0x01,0x40,0x4a,0x71,
0x20,0x68,0x07,0x34,0x59,0x01,0x40,0x00,0x03,0x2c,0x00,0x45,0x34,0x00,0x08,0x40,
0x4e,0x20,0x20,0x00,0x5d,0x40,0x00,0x1e,0x2d,0x40,0x03,0x3f,0x48,0x69,0x2d,0x00,
0x05,0x21,0x58,0x07,0x33,0x53,0x0d,0x3f,0x00,0x3a,0x33,0x00,0x1e,0x21,0x00,0x12,
0x3f,0x5a,0x70,0x2d,0x42,0x01,0x3f,0x00,0x03,0x3d,0x57,0x75,0x31,0x5a,0x08,0x21,
0x60,0x01,0x2d,0x00,0x09,0x3d,0x00,0x29,0x31,0x00,0x28,0x21,0x00,0x16,0x40,0x57,
0x6f,0x40,0x00,0x06,0x2d,0x3f,0x03,0x3f,0x58,0x62,0x2d,0x00,0x0e,0x33,0x59,0x0f,
0x21,0x5e,0x35,0x33,0x00,0x03,0x3f,0x00,0x27,0x21,0x00,0x0b,0x3f,0x57,0x71,0x3f,
0x00,0x08,0x2d,0x35,0x02,0x3d,0x50,0x70,0x2d,0x00,0x08,0x31,0x50,0x09,0x21,0x62,
0x16,0x3d,0x00,0x20,0x31,0x00,0x1b,0x21,0x00,0x2b,0x40,0x56,0x71,0x2e,0x61,0x03,
0x40,0x00,0x07,0x3f,0x54,0x0c,0x2e,0x00,0x08,0x2e,0x4a,0x13,0x2e,0x00,0x0b,0x2e,
0x5f,0x12,0x2e,0x00,0x0c,0x2e,0x55,0x1c,0x2e,0x00,0x02,0x22,0x62,0x03,0x3f,0x00,
0x04,0x33,0x64,0x01,0x22,0x00,0x14,0x33,0x00,0x02,0x22,0x54,0x0a,0x33,0x5d,0x0c,
0x33,0x00,0x0f,0x33,0x66,0x02,0x22,0x00,0x15,0x22,0x56,0x03,0x33,0x00,0x05,0x33,
0x4c,0x11,0x33,0x00,0x01,0x22,0x00,0x0e,0x3f,0x61,0x76,0x3e,0x5d,0x02,0x2e,0x62,
0x01,0x3f,0x00,0x10,0x2e,0x00,0x0b,0x2e,0x63,0x13,0x2e,0x00,0x08,0x2e,0x5e,0x12,
0x2e,0x00,0x08,0x2e,0x4e,0x12,0x3e,0x00,0x05,0x2e,0x00,0x00,0x32,0x61,0x07,0x22,
0x72,0x0e,0x22,0x00,0x01,0x32,0x00,0x0b,0x32,0x64,0x05,0x22,0x44,0x0a,0x32,0x00,
0x09,0x22,0x00,0x02,0x32,0x5f,0x06,0x22,0x6e,0x0d,0x22,0x00,0x06,0x32,0x00,0x07,
0x32,0x4f,0x02,0x22,0x5a,0x10,0x32,0x00,0x07,0x22,0x00,0x08,0x40,0x50,0x71,0x40,
0x00,0x09,0x3f,0x5c,0x02,0x2e,0x6b,0x15,0x2e,0x00,0x07,0x2e,0x4f,0x13,0x2e,0x00,
0x09,0x2e,0x68,0x0f,0x2e,0x00,0x0a,0x2e,0x60,0x1a,0x2e,0x00,0x05,0x3f,0x00,0x04,
0x22,0x70,0x02,0x33,0x68,0x13,0x22,0x00,0x02,0x33,0x00,0x0a,0x22,0x54,0x01,0x33,
0x5b,0x14,0x22,0x00,0x01,0x33,0x00,0x02,0x22,0x6d,0x02,0x33,0x68,0x14,0x22,0x00,
0x05,0x33,0x00,0x02,0x22,0x53,0x04,0x33,0x4e,0x12,0x22,0x00,0x01,0x33,0x00,0x0e,
0x3f,0x61,0x76,0x3f,0x00,0x03,0x2e,0x69,0x05,0x3e,0x59,0x10,0x2e,0x00,0x09,0x2e,
0x65,0x14,0x2e,0x00,0x09,0x2e,0x67,0x14,0x2e,0x00,0x09,0x2e,0x5e,0x17,0x2e,0x00,
0x09,0x22,0x73,0x01,0x3e,0x00,0x04,0x32,0x61,0x08,0x22,0x00,0x11,0x32,0x00,0x01,
0x22,0x4f,0x04,0x32,0x5a,0x0e,0x22,0x00,0x01,0x32,0x00,0x04,0x22,0x6c,0x09,0x32,
0x62,0x05,0x22,0x00,0x10,0x22,0x59,0x04,0x32,0x00,0x04,0x32,0x60,0x0c,0x22,0x00,
0x04,0x32,0x00,0x0c,0x41,0x4f,0x70,0x41,0x00,0x0b,0x31,0x73,0x00,0x40,0x4c,0x10,
0x31,0x00,0x0f,0x31,0x5a,0x2c,0x31,0x00,0x0d,0x31,0x57,0x0d,0x40,0x00,0x09,0x31,
0x00,0x05,0x34,0x54,0x05,0x25,0x79,0x0e,0x25,0x00,0x02,0x34,0x00,0x09,0x34,0x4b,
0x02,0x25,0x5b,0x14,0x25,0x00,0x02,0x34,0x00,0x06,0x34,0x5d,0x00,0x25,0x6b,0x0d,
0x25,0x00,0x07,0x34,0x00,0x05,0x25,0x63,0x05,0x34,0x4d,0x11,0x34,0x00,0x03,0x25,
0x00,0x16,0x40,0x54,0x69,0x40,0x00,0x03,0x2b,0x6a,0x00,0x3f,0x55,0x12,0x2b,0x00,
0x48,0x2b,0x59,0x14,0x2b,0x00,0x02,0x3f,0x00,0x08,0x33,0x62,0x00,0x2b,0x6a,0x17,
0x2b,0x00,0x07,0x2b,0x4f,0x0d,0x33,0x00,0x0d,0x2b,0x00,0x04,0x1f,0x5d,0x08,0x33,
0x67,0x16,0x1f,0x72,0x0a,0x1f,0x00,0x00,0x1f,0x00,0x0e,0x33,0x00,0x06,0x1f,0x67,
0x06,0x41,0x59,0x14,0x1f,0x00,0x5a,0x41,0x00,0x0a,0x40,0x49,0x0f,0x31,0x70,0x18,
0x31,0x00,0x08,0x31,0x58,0x12,0x31,0x00,0x09,0x31,0x74,0x16,0x31,0x00,0x12,0x34,
0x59,0x0a,0x40,0x00,0x0a,0x34,0x00,0x0a,0x25,0x78,0x00,0x34,0x5d,0x12,0x34,0x00,
0x04,0x25,0x00,0x08,0x25,0x5e,0x00,0x34,0x62,0x10,0x25,0x00,0x04,0x34,0x00,0x0a,
0x25,0x74,0x00,0x34,0x53,0x10,0x34,0x00,0x00,0x25,0x00,0x0e,0x25,0x61,0x07,0x40,
0x5d,0x0d,0x25,0x00,0x63,0x40,0x00,0x0d,0x3f,0x5b,0x0d,0x29,0x6f,0x12,0x29,0x00,
0x0f,0x29,0x57,0x13,0x29,0x00,0x08,0x29,0x6e,0x0d,0x29,0x00,0x10,0x29,0x54,0x17,
0x29,0x00,0x04,0x3f,0x00,0x04,0x1d,0x73,0x05,0x33,0x5a,0x0a,0x1d,0x00,0x0a,0x33,
0x00,0x07,0x1d,0x62,0x03,0x33,0x57,0x10,0x33,0x00,0x03,0x1d,0x00,0x02,0x1d,0x67,
0x09,0x33,0x68,0x05,0x1d,0x00,0x12,0x33,0x00,0x07,0x42,0x4d,0x76,0x32,0x69,0x02,
0x42,0x00,0x00,0x41,0x51,0x0d,0x32,0x00,0x11,0x32,0x5b,0x14,0x32,0x00,0x0a,0x32,
0x6c,0x12,0x32,0x00,0x0b,0x32,0x5e,0x0d,0x41,0x00,0x08,0x32,0x00,0x0a,0x35,0x52,
0x06,0x26,0x66,0x0c,0x35,0x00,0x03,0x26,0x00,0x09,0x35,0x4c,0x07,0x26,0x5c,0x0f,
0x35,0x00,0x08,0x26,0x00,0x00,0x35,0x5a,0x07,0x26,0x62,0x0e,0x26,0x00,0x01,0x35,
0x00,0x08,0x35,0x3d,0x05,0x26,0x66,0x0d,0x35,0x00,0x0d,0x26,0x00,0x02,0x41,0x57,
0x70,0x41,0x00,0x09,0x40,0x4d,0x03,0x32,0x69,0x17,0x32,0x00,0x07,0x32,0x5c,0x14,
0x32,0x00,0x08,0x32,0x6e,0x0e,0x32,0x00,0x0e,0x32,0x58,0x0d,0x40,0x00,0x05,0x32,
0x00,0x0d,0x34,0x56,0x00,0x26,0x56,0x0f,0x26,0x00,0x00,0x34,0x00,0x0b,0x34,0x51,
0x00,0x26,0x51,0x17,0x26,0x00,0x00,0x34,0x00,0x08,0x34,0x5c,0x00,0x26,0x5c,0x0f,
0x26,0x00,0x00,0x34,0x00,0x0b,0x34,0x52,0x00,0x26,0x52,0x14,0x26,0x00,0x00,0x34,
0x00,0x12,0x42,0x52,0x72,0x41,0x57,0x05,0x42,0x00,0x04,0x2f,0x64,0x0f,0x2f,0x00,
0x11,0x2f,0x56,0x15,0x2f,0x00,0x0a,0x2f,0x5e,0x0e,0x2f,0x00,0x0b,0x2f,0x5c,0x15,
0x41,0x00,0x02,0x2f,0x00,0x09,0x35,0x55,0x05,0x23,0x64,0x0d,0x35,0x00,0x02,0x23,
0x00,0x08,0x35,0x60,0x08,0x23,0x59,0x07,0x35,0x00,0x0e,0x35,0x5e,0x04,0x23,0x00,
0x05,0x23,0x5a,0x0b,0x35,0x00,0x01,0x23,0x00,0x07,0x35,0x53,0x07,0x23,0x5b,0x09,
0x35,0x00,0x10,0x23,0x00,0x05,0x41,0x5a,0x67,0x40,0x4a,0x02,0x41,0x00,0x05,0x29,
0x61,0x10,0x29,0x00,0x15,0x29,0x5c,0x0e,0x29,0x00,0x0b,0x29,0x68,0x0f,0x29,0x00,
0x0a,0x29,0x5f,0x17,0x29,0x00,0x0f,0x1d,0x69,0x01,0x40,0x00,0x04,0x34,0x60,0x09,
0x1d,0x00,0x0b,0x34,0x00,0x06,0x1d,0x5d,0x03,0x34,0x60,0x0f,0x34,0x00,0x05,0x1d,
0x00,0x04,0x1d,0x5f,0x03,0x34,0x5e,0x0b,0x1d,0x00,0x0a,0x34,0x00,0x01,0x1d,0x66,
0x07,0x34,0x57,0x0e,0x1d,0x00,0x01,0x34,0x00,0x81,0x02,0x2e,0x61,0x0f,0x2e,0x00,
0x0f,0x2e,0x5c,0x12,0x2e,0x00,0x0c,0x2e,0x62,0x11,0x2e,0x00,0x08,0x2e,0x5c,0x15,
0x2e,0x00,0x09,0x22,0x6d,0x0a,0x22,0x00,0x12,0x22,0x47,0x10,0x22,0x00,0x09,0x22,
0x6b,0x0e,0x22,0x00,0x0f,0x22,0x5b,0x1a,0x22,0x00,0x81,0x04,0x29,0x62,0x12,0x29,
0x00,0x0c,0x29,0x54,0x13,0x29,0x00,0x0d,0x29,0x5b,0x13,0x29,0x00,0x0b,0x29,0x4e,
0x14,0x29,0x00,0x0b,0x1d,0x69,0x10,0x1d,0x00,0x10,0x1d,0x57,0x14,0x1d,0x00,0x07,
0x1d,0x6a,0x0e,0x1d,0x00,0x0b,0x1d,0x5a,0x1c,0x1d,0x00,0x7d,0x2e,0x64,0x0f,0x2e,
0x00,0x14,0x2e,0x45,0x09,0x2e,0x00,0x13,0x2e,0x63,0x11,0x2e,0x00,0x08,0x2e,0x64,
0x16,0x2e,0x00,0x0c,0x22,0x54,0x0d,0x22,0x00,0x0c,0x22,0x5e,0x14,0x22,0x00,0x0a,
0x22,0x6b,0x0f,0x22,0x00,0x0d,0x22,0x58,0x14,0x22,0x00,0x81,0x0c,0x34,0x64,0x10,
0x34,0x00,0x0e,0x34,0x4b,0x10,0x34,0x00,0x0e,0x34,0x60,0x0f,0x34,0x00,0x0f,0x34,
0x55,0x15,0x34,0x00,0x09,0x28,0x66,0x0d,0x28,0x00,0x11,0x28,0x4a,0x17,0x28,0x00,
0x07,0x28,0x60,0x0d,0x28,0x00,0x11,0x28,0x56,0x11,0x28,0x00,0x0d,0x28,0x6f,0x10,
0x28,0x00,0x0e,0x28,0x5b,0x15,0x28,0x00,0x09,0x28,0x5e,0x0e,0x28,0x00,0x10,0x28,
0x4d,0x15,0x28,0x00,0x09,0x28,0x6f,0x11,0x28,0x00,0x0d,0x28,0x4a,0x12,0x28,0x00,
0x0c,0x28,0x64,0x10,0x28,0x00,0x0e,0x28,0x47,0x12,0x28,0x00,0x0c,0x22,0x6e,0x0f,
0x22,0x00,0x0f,0x22,0x55,0x11,0x22,0x00,0x0d,0x22,0x69,0x0d,0x22,0x00,0x11,0x22,
0x68,0x10,0x22,0x00,0x2c,0x32,0x42,0x18,0x32,0x00,0x06,0x31,0x47,0x1e,0x31,0x00,
0x00,0x2e,0x50,0x17,0x2e,0x00,0x07,0x2d,0x46,0x18,0x2d,0x00,0x06,0x2e,0x4b,0x18,
0x2e,0x00,0x06,0x31,0x4a,0x1b,0x31,0x00,0x03,0x32,0x42,0x1e,0x2d,0x38,0x01,0x32,
0x00,0x19,0x2d,0x00,0x04,0x2e,0x3d,0x13,0x2e,0x00,0x0b,0x31,0x4a,0x1e,0x32,0x48,
0x01,0x31,0x00,0x1b,0x32,0x00,0x2c,0x32,0x4c,0x14,0x32,0x00,0x05,0x31,0x55,0x1a,
0x2e,0x4e,0x08,0x31,0x00,0x15,0x2e,0x00,0x01,0x2d,0x47,0x18,0x2d,0x00,0x06,0x2e,
0x42,0x15,0x2e,0x00,0x09,0x31,0x4a,0x1c,0x31,0x00,0x01,0x32,0x4c,0x17,0x32,0x00,
0x0a,0x34,0x4d,0x11,0x34,0x00,0x05,0x36,0x4e,0x13,0x36,0x00,0x0b,0x37,0x42,0x1d,
0x37,0x00,0x01,0x39,0x4e,0x19,0x39,0x00,0x64,0x32,0x59,0x0e,0x32,0x00,0x10,0x32,
0x5a,0x23,0x34,0x42,0x01,0x32,0x00,0x0e,0x34,0x00,0x03,0x36,0x57,0x1c,0x36,0x00,
0x04,0x37,0x50,0x10,0x37,0x00,0x11,0x37,0x5f,0x19,0x37,0x00,0x07,0x39,0x35,0x1a,
0x3a,0x49,0x04,0x39,0x00,0x13,0x3c,0x4c,0x05,0x3a,0x00,0x12,0x3c,0x00,0x2e,0x3d,
0x48,0x19,0x3d,0x00,0x05,0x3c,0x40,0x18,0x3c,0x00,0x06,0x3a,0x42,0x17,0x3a,0x00,
0x07,0x32,0x60,0x1d,0x32,0x00,0x3d,0x39,0x49,0x18,0x39,0x00,0x06,0x3d,0x43,0x18,
0x3d,0x00,0x06,0x3c,0x3e,0x14,0x3c,0x00,0x0a,0x3a,0x4b,0x1e,0x32,0x5b,0x02,0x3a,
0x00,0x1c,0x32,0x00,0x5f,0x32,0x58,0x0f,0x32,0x00,0x0d,0x32,0x55,0x17,0x32,0x00,
0x02,0x34,0x43,0x12,0x34,0x00,0x06,0x36,0x53,0x1e,0x37,0x42,0x01,0x36,0x00,0x1c,
0x37,0x00,0x05,0x39,0x4d,0x17,0x39,0x00,0x08,0x3a,0x52,0x1d,0x3c,0x52,0x01,0x3a,
0x00,0x22,0x3d,0x5a,0x03,0x3c,0x00,0x11,0x3d,0x00,0x2a,0x3d,0x59,0x1a,0x3c,0x48,
0x02,0x3d,0x00,0x1d,0x3a,0x4f,0x05,0x3c,0x00,0x10,0x3a,0x00,0x2e,0x3d,0x5e,0x19,
0x3d,0x00,0x01,0x3c,0x40,0x1a,0x3a,0x4c,0x05,0x3c,0x00,0x10,0x3a,0x00,0x0d,0x32,
0x5d,0x20,0x32,0x00,0x3d,0x32,0x67,0x14,0x32,0x00,0x05,0x37,0x5c,0x1e,0x39,0x45,
0x05,0x37,0x00,0x12,0x39,0x00,0x03,0x3a,0x5b,0x1e,0x3c,0x49,0x04,0x3a,0x00,0x13,
0x3c,0x00,0x4f,0x37,0x5d,0x13,0x37,0x00,0x09,0x39,0x4a,0x11,0x39,0x00,0x0d,0x3a,
0x5e,0x15,0x3a,0x00,0x07,0x3c,0x60,0x19,0x3c,0x00,0x07,0x3d,0x66,0x1c,0x3f,0x68,
0x07,0x3d,0x00,0x0c,0x3f,0x00,0x82,0x71,0x3c,0x38,0x7a,0x3c,0x00,0x08,0x41,0x3a,
0x83,0x43,0x41,0x00,0x09,0x43,0x35,0x82,0x5d,0x43,0x00,0x07,0x44,0x36,0x3c,0x44,
0x00,0x0c,0x46,0x2a,0x42,0x46,0x00,0x02,0x44,0x33,0x83,0x4f,0x44,0x00,0x00,0x3c,
0x3d,0x82,0x43,0x3c,0x00,0x32,0x3c,0x41,0x6c,0x3c,0x00,0x0a,0x41,0x3b,0x82,0x56,
0x43,0x34,0x08,0x41,0x00,0x81,0x00,0x43,0x00,0x00,0x44,0x38,0x79,0x44,0x00,0x02,
0x3c,0x3f,0x75,0x3c,0x00,0x02,0x44,0x44,0x51,0x44,0x00,0x24,0x41,0x31,0x34,0x48,
0x38,0x03,0x41,0x00,0x35,0x48,0x00,0x0c,0x46,0x2d,0x86,0x71,0x46,0x00,0xad,0x4a,
0x39,0x40,0x76,0x39,0x00,0x02,0x3a,0x43,0x72,0x3a,0x00,0x01,0x39,0x48,0x76,0x3a,
0x46,0x01,0x39,0x00,0x6f,0x3a,0x00,0x05,0x39,0x3c,0x7c,0x39,0x00,0x0b,0x3a,0x45,
0x75,0x3a,0x00,0x03,0x39,0x42,0x64,0x39,0x00,0x09,0x3a,0x4b,0x6f,0x3a,0x00,0x08,
0x39,0x41,0x78,0x3a,0x41,0x02,0x39,0x00,0x68,0x3a,0x00,0x1a,0x39,0x44,0x66,0x39,
0x00,0x12,0x3a,0x47,0x75,0x3a,0x00,0x03,0x39,0x3f,0x70,0x39,0x00,0x08,0x3a,0x44,
0x6d,0x3a,0x00,0x0b,0x39,0x48,0x75,0x39,0x00,0x03,0x3a,0x46,0x72,0x3a,0x00,0x06,
0x39,0x49,0x78,0x3a,0x4d,0x01,0x39,0x00,0x6f,0x3a,0x00,0x08,0x39,0x45,0x77,0x39,
0x00,0x01,0x3a,0x45,0x71,0x3a,0x00,0x07,0x39,0x46,0x71,0x39,0x00,0x07,0x3a,0x4a,
0x72,0x3a,0x00,0x06,0x39,0x39,0x74,0x39,0x00,0x04,0x3a,0x43,0x77,0x3a,0x00,0x01,
0x39,0x3a,0x71,0x39,0x00,0x07,0x3a,0x3c,0x72,0x3a,0x00,0x06,0x39,0x3d,0x75,0x39,
0x00,0x03,0x3a,0x4b,0x75,0x3a,0x00,0x03,0x39,0x3f,0x71,0x39,0x00,0x07,0x3a,0x4a,
0x71,0x3a,0x00,0x07,0x39,0x37,0x78,0x39,0x00,0x00,0x3a,0x44,0x6f,0x3a,0x00,0x09,
0x39,0x38,0x6f,0x39,0x00,0x09,0x3a,0x3b,0x70,0x3a,0x00,0x08,0x39,0x3c,0x71,0x39,
0x00,0x07,0x3a,0x4f,0x4d,0x3a,0x00,0x2f,0x3a,0x47,0x83,0x58,0x3a,0x00,0x01,0x41,
0x44,0x83,0x57,0x41,0x00,0x0c,0x40,0x4f,0x65,0x40,0x00,0x13,0x3f,0x50,0x34,0x3f,
0x00,0x08,0x3d,0x57,0x32,0x3d,0x00,0x0a,0x46,0x45,0x81,0x6e,0x46,0x00,0x07,0x41,
0x45,0x83,0x50,0x41,0x00,0x0b,0x40,0x51,0x51,0x40,0x00,0x09,0x3f,0x56,0x57,0x3f,
0x00,0x03,0x3d,0x59,0x4b,0x3d,0x00,0x0f,0x46,0x50,0x81,0x4a,0x46,0x00,0x06,0x41,
0x4f,0x83,0x49,0x35,0x57,0x0b,0x41,0x00,0x4c,0x35,0x00,0x07,0x34,0x54,0x53,0x34,
0x00,0x05,0x3a,0x5d,0x44,0x3a,0x00,0x16,0x3c,0x53,0x83,0x52,0x43,0x42,0x05,0x3c,
0x00,0x83,0x4f,0x43,0x00,0x0a,0x42,0x41,0x54,0x42,0x00,0x05,0x41,0x4a,0x4a,0x41,
0x00,0x0b,0x3f,0x53,0x50,0x48,0x51,0x02,0x3f,0x00,0x81,0x61,0x48,0x00,0x0d,0x43,
0x49,0x83,0x56,0x43,0x00,0x05,0x42,0x4a,0x53,0x42,0x00,0x07,0x41,0x48,0x33,0x41,
0x00,0x09,0x3f,0x58,0x58,0x3f,0x00,0x0c,0x48,0x49,0x81,0x69,0x48,0x00,0x0a,0x43,
0x40,0x83,0x45,0x43,0x00,0x0e,0x37,0x58,0x50,0x37,0x00,0x0a,0x3b,0x51,0x57,0x3b,
0x00,0x03,0x41,0x51,0x57,0x41,0x00,0x5d,0x1f,0x61,0x49,0x1f,0x00,0x2f,0x1f,0x5b,
0x4e,0x1f,0x00,0x2a,0x1f,0x56,0x49,0x1f,0x00,0x2f,0x1f,0x5a,0x4c,0x1f,0x00,0x2c,
0x1f,0x59,0x4c,0x1f,0x00,0x2c,0x1f,0x55,0x33,0x1f,0x00,0x27,0x1f,0x5d,0x2d,0x1f,
0x00,0x2d,0x1f,0x5e,0x2d,0x1f,0x00,0x81,0x07,0x1f,0x5d,0x3d,0x1f,0x00,0x6d,0x1f,
0x59,0x43,0x1f,0x00,0x36,0x1f,0x5e,0x2b,0x1f,0x00,0x81,0x0f,0x1f,0x61,0x24,0x1f,
0x00,0x1a,0x1f,0x5a,0x36,0x1f,0x00,0x49,0x1f,0x5e,0x3d,0x1f,0x00,0x32,0x1f,0x5d,
0x2f,0x1f,0x00,0x81,0x08,0x1f,0x60,0x31,0x1f,0x00,0x81,0x46,0x1f,0x58,0x26,0x1f,
0x00,0x81,0x39,0x1f,0x5f,0x24,0x1f,0x00,0x1e,0x1f,0x67,0x29,0x1f,0x00,0x50,0x1f,
0x64,0x2e,0x1f,0x00,0x44,0x1f,0x5c,0x24,0x1f,0x00,0x81,0x16,0x1f,0x64,0x2d,0x1f,
0x00,0x45,0x1f,0x64,0x3b,0x1f,0x00,0x3d,0x1f,0x67,0x42,0x1f,0x00,0x35,0x1f,0x67,
0x51,0x1f,0x00,0x33,0x1f,0x68,0x49,0x1f,0x00,0x2e,0x1f,0x6d,0x3c,0x1f,0x00,0x1d,
0x1f,0x6d,0x2f,0x1f,0x00,0x1c,0x1f,0x6d,0x2e,0x1f,0x00,0x00,0xff,0x2f,0x00,
};
